<svg width="1440" height="144" viewBox="0 0 1440 144" fill="none" xmlns="http://www.w3.org/2000/svg">
<path fill-rule="evenodd" clip-rule="evenodd" d="M0 0L60 12C120 24 240 48 360 72C480 96 600 120 720 120C840 120 960 96 1080 72C1200 48 1320 24 1380 12L1440 0V144H1380C1320 144 1200 144 1080 144C960 144 840 144 720 144C600 144 480 144 360 144C240 144 120 144 60 144H0V0Z" fill="#FF9F66"/>
<path opacity="0.6" fill-rule="evenodd" clip-rule="evenodd" d="M0 47.25L39.6 39.1875C80.4 31.125 159.6 15 240 25.75C320.4 36.5 399.6 74.125 480 76.8125C560.4 79.5 639.6 47.25 720 36.5C800.4 25.75 879.6 36.5 960 33.8125C1040.4 31.125 1119.6 15 1200 15C1280.4 15 1359.6 31.125 1400.4 39.1875L1440 47.25V144H1400.4C1359.6 144 1280.4 144 1200 144C1119.6 144 1040.4 144 960 144C879.6 144 800.4 144 720 144C639.6 144 560.4 144 480 144C399.6 144 320.4 144 240 144C159.6 144 80.4 144 39.6 144H0V47.25Z" fill="#FF9F66"/>
</svg>
