<svg width="80" height="74" viewBox="0 0 80 74" fill="none" xmlns="http://www.w3.org/2000/svg">
<path d="M75.7096 37C75.7096 56.5981 59.73 72.5 40.0003 72.5C20.2706 72.5 4.29102 56.5981 4.29102 37C4.29102 17.4019 20.2706 1.5 40.0003 1.5C59.73 1.5 75.7096 17.4019 75.7096 37Z" fill="white" stroke="url(#paint0_linear_58_77)" stroke-width="3"/>
<ellipse cx="40" cy="37.0003" rx="32.2481" ry="32.0667" fill="#E4A321"/>
<ellipse cx="39.9999" cy="36.9841" rx="28.0702" ry="27.9123" fill="white"/>
<path d="M78.4999 36.8457C78.4999 37.7973 77.7218 38.5832 76.7441 38.5832C75.7664 38.5832 74.9883 37.7973 74.9883 36.8457C74.9883 35.894 75.7664 35.1082 76.7441 35.1082C77.7218 35.1082 78.4999 35.894 78.4999 36.8457Z" fill="white" stroke="url(#paint1_linear_58_77)" stroke-width="3"/>
<path d="M5.01163 36.8457C5.01163 37.7973 4.23351 38.5832 3.25581 38.5832C2.27812 38.5832 1.5 37.7973 1.5 36.8457C1.5 35.894 2.27812 35.1082 3.25581 35.1082C4.23351 35.1082 5.01163 35.894 5.01163 36.8457Z" fill="white" stroke="url(#paint2_linear_58_77)" stroke-width="3"/>
<path d="M33.6506 37.1011C32.6746 37.1011 31.7866 36.8771 30.9866 36.4291C30.1866 35.9731 29.4946 35.3451 28.9106 34.5451C28.3346 33.7451 27.8906 32.8211 27.5786 31.7731C27.2666 30.7171 27.1106 29.5891 27.1106 28.3891C27.1106 27.1891 27.2666 26.0651 27.5786 25.0171C27.8906 23.9611 28.3346 23.0331 28.9106 22.2331C29.4946 21.4331 30.1866 20.8091 30.9866 20.3611C31.7866 19.9051 32.6746 19.6771 33.6506 19.6771C34.6266 19.6771 35.5146 19.9051 36.3146 20.3611C37.1146 20.8091 37.7986 21.4331 38.3666 22.2331C38.9426 23.0331 39.3866 23.9611 39.6986 25.0171C40.0186 26.0651 40.1786 27.1891 40.1786 28.3891C40.1786 29.5891 40.0186 30.7171 39.6986 31.7731C39.3866 32.8211 38.9426 33.7451 38.3666 34.5451C37.7986 35.3451 37.1146 35.9731 36.3146 36.4291C35.5146 36.8771 34.6266 37.1011 33.6506 37.1011ZM33.6506 34.1731C34.5066 34.1731 35.2146 33.9011 35.7746 33.3571C36.3346 32.8131 36.7506 32.1011 37.0226 31.2211C37.2946 30.3411 37.4306 29.3971 37.4306 28.3891C37.4306 27.3251 37.2866 26.3571 36.9986 25.4851C36.7106 24.6051 36.2866 23.9051 35.7266 23.3851C35.1666 22.8651 34.4746 22.6051 33.6506 22.6051C33.0026 22.6051 32.4386 22.7651 31.9586 23.0851C31.4866 23.3971 31.0946 23.8251 30.7826 24.3691C30.4706 24.9131 30.2386 25.5331 30.0866 26.2291C29.9346 26.9171 29.8586 27.6371 29.8586 28.3891C29.8586 29.3891 29.9946 30.3331 30.2666 31.2211C30.5466 32.1011 30.9666 32.8131 31.5266 33.3571C32.0946 33.9011 32.8026 34.1731 33.6506 34.1731ZM41.8584 36.7891V34.1731C42.3784 33.7811 42.9944 33.2971 43.7064 32.7211C44.4184 32.1371 45.1504 31.5091 45.9024 30.8371C46.6544 30.1571 47.3504 29.4771 47.9904 28.7971C48.6304 28.1171 49.1504 27.4691 49.5504 26.8531C49.9584 26.2371 50.1624 25.7091 50.1624 25.2691C50.1624 24.7811 50.0424 24.3371 49.8024 23.9371C49.5624 23.5291 49.2424 23.2051 48.8424 22.9651C48.4504 22.7251 48.0104 22.6051 47.5224 22.6051C47.0344 22.6051 46.5904 22.7251 46.1904 22.9651C45.7904 23.2051 45.4704 23.5291 45.2304 23.9371C44.9904 24.3371 44.8704 24.7811 44.8704 25.2691H41.9424C41.9424 24.2131 42.1984 23.2651 42.7104 22.4251C43.2224 21.5771 43.8984 20.9091 44.7384 20.4211C45.5864 19.9251 46.5144 19.6771 47.5224 19.6771C48.5464 19.6771 49.4784 19.9291 50.3184 20.4331C51.1584 20.9291 51.8304 21.6011 52.3344 22.4491C52.8384 23.2971 53.0904 24.2371 53.0904 25.2691C53.0904 25.8131 52.9904 26.3611 52.7904 26.9131C52.5904 27.4651 52.3104 28.0211 51.9504 28.5811C51.5904 29.1411 51.1664 29.7091 50.6784 30.2851C50.1904 30.8531 49.6504 31.4371 49.0584 32.0371C48.4744 32.6291 47.8584 33.2371 47.2104 33.8611H53.1744V36.7891H41.8584Z" fill="#343434"/>
<path d="M28.7265 54.9711C28.1992 54.9711 27.6905 54.8894 27.2005 54.7261C26.7105 54.5581 26.2812 54.3201 25.9125 54.0121C25.5485 53.7041 25.2895 53.3377 25.1355 52.9131L26.2345 52.5001C26.3279 52.7614 26.5005 52.9901 26.7525 53.1861C27.0092 53.3774 27.3102 53.5267 27.6555 53.6341C28.0009 53.7414 28.3579 53.7951 28.7265 53.7951C29.1465 53.7951 29.5362 53.7274 29.8955 53.5921C30.2595 53.4521 30.5535 53.2584 30.7775 53.0111C31.0015 52.7637 31.1135 52.4744 31.1135 52.1431C31.1135 51.8024 30.9969 51.5247 30.7635 51.3101C30.5302 51.0907 30.2315 50.9181 29.8675 50.7921C29.5035 50.6614 29.1232 50.5611 28.7265 50.4911C28.0499 50.3791 27.4432 50.2204 26.9065 50.0151C26.3745 49.8051 25.9522 49.5134 25.6395 49.1401C25.3315 48.7667 25.1775 48.2744 25.1775 47.6631C25.1775 47.0937 25.3409 46.5967 25.6675 46.1721C25.9989 45.7474 26.4352 45.4184 26.9765 45.1851C27.5179 44.9517 28.1012 44.8351 28.7265 44.8351C29.2445 44.8351 29.7462 44.9167 30.2315 45.0801C30.7215 45.2387 31.1532 45.4721 31.5265 45.7801C31.8999 46.0881 32.1682 46.4637 32.3315 46.9071L31.2185 47.3131C31.1252 47.0471 30.9502 46.8184 30.6935 46.6271C30.4415 46.4311 30.1429 46.2817 29.7975 46.1791C29.4569 46.0717 29.0999 46.0181 28.7265 46.0181C28.3112 46.0134 27.9239 46.0811 27.5645 46.2211C27.2052 46.3611 26.9135 46.5547 26.6895 46.8021C26.4655 47.0494 26.3535 47.3364 26.3535 47.6631C26.3535 48.0551 26.4562 48.3561 26.6615 48.5661C26.8715 48.7714 27.1562 48.9254 27.5155 49.0281C27.8749 49.1307 28.2785 49.2217 28.7265 49.3011C29.3612 49.4084 29.9492 49.5787 30.4905 49.8121C31.0319 50.0407 31.4659 50.3464 31.7925 50.7291C32.1239 51.1117 32.2895 51.5831 32.2895 52.1431C32.2895 52.7124 32.1239 53.2094 31.7925 53.6341C31.4659 54.0587 31.0319 54.3877 30.4905 54.6211C29.9492 54.8544 29.3612 54.9711 28.7265 54.9711ZM40.9327 44.9891V46.1651H37.6707V54.7891H36.4947V46.1651H33.2397V44.9891H40.9327ZM42.338 54.7891V44.9891H48.351V46.1651H43.514V48.9511H47.476V50.1271H43.514V53.6131H48.351V54.7891H42.338ZM49.967 54.7891V44.9891H53.201C53.7283 44.9891 54.202 45.1174 54.622 45.3741C55.0466 45.6307 55.3826 45.9784 55.63 46.4171C55.882 46.8511 56.008 47.3364 56.008 47.8731C56.008 48.4191 55.8796 48.9114 55.623 49.3501C55.371 49.7841 55.0303 50.1294 54.601 50.3861C54.1763 50.6381 53.7096 50.7641 53.201 50.7641H51.143V54.7891H49.967ZM51.143 49.5881H53.096C53.4133 49.5881 53.7026 49.5111 53.964 49.3571C54.23 49.1984 54.44 48.9861 54.594 48.7201C54.7526 48.4494 54.832 48.1461 54.832 47.8101C54.832 47.4694 54.7526 47.1661 54.594 46.9001C54.44 46.6294 54.23 46.4171 53.964 46.2631C53.7026 46.1044 53.4133 46.0251 53.096 46.0251H51.143V49.5881Z" fill="#343434"/>
<defs>
<linearGradient id="paint0_linear_58_77" x1="40.0003" y1="0" x2="65.9409" y2="73.0136" gradientUnits="userSpaceOnUse">
<stop stop-color="#E2A11A"/>
<stop offset="1" stop-color="#D82108"/>
</linearGradient>
<linearGradient id="paint1_linear_58_77" x1="76.7441" y1="33.6082" x2="79.0139" y2="39.9968" gradientUnits="userSpaceOnUse">
<stop stop-color="#E2A11A"/>
<stop offset="1" stop-color="#D82108"/>
</linearGradient>
<linearGradient id="paint2_linear_58_77" x1="3.25581" y1="33.6082" x2="5.52561" y2="39.9968" gradientUnits="userSpaceOnUse">
<stop stop-color="#E2A11A"/>
<stop offset="1" stop-color="#D82108"/>
</linearGradient>
</defs>
</svg>
