<svg width="80" height="74" viewBox="0 0 80 74" fill="none" xmlns="http://www.w3.org/2000/svg">
<path d="M75.7096 37C75.7096 56.5981 59.73 72.5 40.0003 72.5C20.2706 72.5 4.29102 56.5981 4.29102 37C4.29102 17.4019 20.2706 1.5 40.0003 1.5C59.73 1.5 75.7096 17.4019 75.7096 37Z" fill="white" stroke="url(#paint0_linear_58_86)" stroke-width="3"/>
<ellipse cx="40" cy="37.0003" rx="32.2481" ry="32.0667" fill="#E4A321"/>
<ellipse cx="39.9999" cy="36.9841" rx="28.0702" ry="27.9123" fill="white"/>
<path d="M78.4999 36.8457C78.4999 37.7973 77.7218 38.5832 76.7441 38.5832C75.7664 38.5832 74.9883 37.7973 74.9883 36.8457C74.9883 35.894 75.7664 35.1082 76.7441 35.1082C77.7218 35.1082 78.4999 35.894 78.4999 36.8457Z" fill="white" stroke="url(#paint1_linear_58_86)" stroke-width="3"/>
<path d="M5.01163 36.8457C5.01163 37.7973 4.23351 38.5832 3.25581 38.5832C2.27812 38.5832 1.5 37.7973 1.5 36.8457C1.5 35.894 2.27812 35.1082 3.25581 35.1082C4.23351 35.1082 5.01163 35.894 5.01163 36.8457Z" fill="white" stroke="url(#paint2_linear_58_86)" stroke-width="3"/>
<path d="M34.3655 37.1011C33.3895 37.1011 32.5015 36.8771 31.7015 36.4291C30.9015 35.9731 30.2095 35.3451 29.6255 34.5451C29.0495 33.7451 28.6055 32.8211 28.2935 31.7731C27.9815 30.7171 27.8255 29.5891 27.8255 28.3891C27.8255 27.1891 27.9815 26.0651 28.2935 25.0171C28.6055 23.9611 29.0495 23.0331 29.6255 22.2331C30.2095 21.4331 30.9015 20.8091 31.7015 20.3611C32.5015 19.9051 33.3895 19.6771 34.3655 19.6771C35.3415 19.6771 36.2295 19.9051 37.0295 20.3611C37.8295 20.8091 38.5135 21.4331 39.0815 22.2331C39.6575 23.0331 40.1015 23.9611 40.4135 25.0171C40.7335 26.0651 40.8935 27.1891 40.8935 28.3891C40.8935 29.5891 40.7335 30.7171 40.4135 31.7731C40.1015 32.8211 39.6575 33.7451 39.0815 34.5451C38.5135 35.3451 37.8295 35.9731 37.0295 36.4291C36.2295 36.8771 35.3415 37.1011 34.3655 37.1011ZM34.3655 34.1731C35.2215 34.1731 35.9295 33.9011 36.4895 33.3571C37.0495 32.8131 37.4655 32.1011 37.7375 31.2211C38.0095 30.3411 38.1455 29.3971 38.1455 28.3891C38.1455 27.3251 38.0015 26.3571 37.7135 25.4851C37.4255 24.6051 37.0015 23.9051 36.4415 23.3851C35.8815 22.8651 35.1895 22.6051 34.3655 22.6051C33.7175 22.6051 33.1535 22.7651 32.6735 23.0851C32.2015 23.3971 31.8095 23.8251 31.4975 24.3691C31.1855 24.9131 30.9535 25.5331 30.8015 26.2291C30.6495 26.9171 30.5735 27.6371 30.5735 28.3891C30.5735 29.3891 30.7095 30.3331 30.9815 31.2211C31.2615 32.1011 31.6815 32.8131 32.2415 33.3571C32.8095 33.9011 33.5175 34.1731 34.3655 34.1731ZM47.7453 37.1011C46.7293 37.1011 45.8133 36.8611 44.9973 36.3811C44.1813 35.9011 43.5333 35.2571 43.0533 34.4491C42.5733 33.6331 42.3333 32.7291 42.3333 31.7371H45.2613C45.2613 32.1851 45.3653 32.5931 45.5733 32.9611C45.7893 33.3291 46.0853 33.6251 46.4613 33.8491C46.8373 34.0651 47.2653 34.1731 47.7453 34.1731C48.1853 34.1731 48.5933 34.0651 48.9693 33.8491C49.3533 33.6251 49.6613 33.3291 49.8933 32.9611C50.1253 32.5931 50.2413 32.1851 50.2413 31.7371C50.2413 31.1531 50.0853 30.6691 49.7733 30.2851C49.4613 29.8931 49.0253 29.6011 48.4653 29.4091C47.9133 29.2171 47.2693 29.1211 46.5333 29.1211V26.8651C47.5253 26.8651 48.3093 26.6771 48.8853 26.3011C49.4693 25.9251 49.7613 25.3731 49.7613 24.6451C49.7613 24.2691 49.6653 23.9251 49.4733 23.6131C49.2813 23.3011 49.0253 23.0531 48.7053 22.8691C48.3933 22.6771 48.0493 22.5811 47.6733 22.5811C47.2893 22.5811 46.9173 22.6771 46.5573 22.8691C46.1973 23.0531 45.9013 23.3011 45.6693 23.6131C45.4453 23.9251 45.3333 24.2691 45.3333 24.6451H42.4053C42.4053 23.9571 42.5453 23.3131 42.8253 22.7131C43.1053 22.1051 43.4893 21.5731 43.9773 21.1171C44.4733 20.6611 45.0333 20.3051 45.6573 20.0491C46.2893 19.7851 46.9493 19.6531 47.6373 19.6531C48.5413 19.6531 49.3773 19.8771 50.1453 20.3251C50.9133 20.7731 51.5293 21.3731 51.9933 22.1251C52.4573 22.8771 52.6893 23.7171 52.6893 24.6451C52.6893 25.2931 52.5373 25.9291 52.2333 26.5531C51.9293 27.1771 51.4973 27.6171 50.9373 27.8731C51.4253 28.0491 51.8333 28.3451 52.1613 28.7611C52.4893 29.1691 52.7373 29.6371 52.9053 30.1651C53.0813 30.6851 53.1693 31.2091 53.1693 31.7371C53.1693 32.7211 52.9213 33.6211 52.4253 34.4371C51.9293 35.2451 51.2693 35.8931 50.4453 36.3811C49.6293 36.8611 48.7293 37.1011 47.7453 37.1011Z" fill="#343434"/>
<path d="M28.7265 54.9711C28.1992 54.9711 27.6905 54.8894 27.2005 54.7261C26.7105 54.5581 26.2812 54.3201 25.9125 54.0121C25.5485 53.7041 25.2895 53.3377 25.1355 52.9131L26.2345 52.5001C26.3279 52.7614 26.5005 52.9901 26.7525 53.1861C27.0092 53.3774 27.3102 53.5267 27.6555 53.6341C28.0009 53.7414 28.3579 53.7951 28.7265 53.7951C29.1465 53.7951 29.5362 53.7274 29.8955 53.5921C30.2595 53.4521 30.5535 53.2584 30.7775 53.0111C31.0015 52.7637 31.1135 52.4744 31.1135 52.1431C31.1135 51.8024 30.9969 51.5247 30.7635 51.3101C30.5302 51.0907 30.2315 50.9181 29.8675 50.7921C29.5035 50.6614 29.1232 50.5611 28.7265 50.4911C28.0499 50.3791 27.4432 50.2204 26.9065 50.0151C26.3745 49.8051 25.9522 49.5134 25.6395 49.1401C25.3315 48.7667 25.1775 48.2744 25.1775 47.6631C25.1775 47.0937 25.3409 46.5967 25.6675 46.1721C25.9989 45.7474 26.4352 45.4184 26.9765 45.1851C27.5179 44.9517 28.1012 44.8351 28.7265 44.8351C29.2445 44.8351 29.7462 44.9167 30.2315 45.0801C30.7215 45.2387 31.1532 45.4721 31.5265 45.7801C31.8999 46.0881 32.1682 46.4637 32.3315 46.9071L31.2185 47.3131C31.1252 47.0471 30.9502 46.8184 30.6935 46.6271C30.4415 46.4311 30.1429 46.2817 29.7975 46.1791C29.4569 46.0717 29.0999 46.0181 28.7265 46.0181C28.3112 46.0134 27.9239 46.0811 27.5645 46.2211C27.2052 46.3611 26.9135 46.5547 26.6895 46.8021C26.4655 47.0494 26.3535 47.3364 26.3535 47.6631C26.3535 48.0551 26.4562 48.3561 26.6615 48.5661C26.8715 48.7714 27.1562 48.9254 27.5155 49.0281C27.8749 49.1307 28.2785 49.2217 28.7265 49.3011C29.3612 49.4084 29.9492 49.5787 30.4905 49.8121C31.0319 50.0407 31.4659 50.3464 31.7925 50.7291C32.1239 51.1117 32.2895 51.5831 32.2895 52.1431C32.2895 52.7124 32.1239 53.2094 31.7925 53.6341C31.4659 54.0587 31.0319 54.3877 30.4905 54.6211C29.9492 54.8544 29.3612 54.9711 28.7265 54.9711ZM40.9327 44.9891V46.1651H37.6707V54.7891H36.4947V46.1651H33.2397V44.9891H40.9327ZM42.338 54.7891V44.9891H48.351V46.1651H43.514V48.9511H47.476V50.1271H43.514V53.6131H48.351V54.7891H42.338ZM49.967 54.7891V44.9891H53.201C53.7283 44.9891 54.202 45.1174 54.622 45.3741C55.0466 45.6307 55.3826 45.9784 55.63 46.4171C55.882 46.8511 56.008 47.3364 56.008 47.8731C56.008 48.4191 55.8796 48.9114 55.623 49.3501C55.371 49.7841 55.0303 50.1294 54.601 50.3861C54.1763 50.6381 53.7096 50.7641 53.201 50.7641H51.143V54.7891H49.967ZM51.143 49.5881H53.096C53.4133 49.5881 53.7026 49.5111 53.964 49.3571C54.23 49.1984 54.44 48.9861 54.594 48.7201C54.7526 48.4494 54.832 48.1461 54.832 47.8101C54.832 47.4694 54.7526 47.1661 54.594 46.9001C54.44 46.6294 54.23 46.4171 53.964 46.2631C53.7026 46.1044 53.4133 46.0251 53.096 46.0251H51.143V49.5881Z" fill="#343434"/>
<defs>
<linearGradient id="paint0_linear_58_86" x1="40.0003" y1="0" x2="65.9409" y2="73.0136" gradientUnits="userSpaceOnUse">
<stop stop-color="#E2A11A"/>
<stop offset="1" stop-color="#D82108"/>
</linearGradient>
<linearGradient id="paint1_linear_58_86" x1="76.7441" y1="33.6082" x2="79.0139" y2="39.9968" gradientUnits="userSpaceOnUse">
<stop stop-color="#E2A11A"/>
<stop offset="1" stop-color="#D82108"/>
</linearGradient>
<linearGradient id="paint2_linear_58_86" x1="3.25581" y1="33.6082" x2="5.52561" y2="39.9968" gradientUnits="userSpaceOnUse">
<stop stop-color="#E2A11A"/>
<stop offset="1" stop-color="#D82108"/>
</linearGradient>
</defs>
</svg>
