<svg width="155" height="161" viewBox="0 0 155 161" fill="none" xmlns="http://www.w3.org/2000/svg">
<mask id="mask0_98_5263" style="mask-type:luminance" maskUnits="userSpaceOnUse" x="0" y="0" width="155" height="161">
<path d="M0 0H155V160.87H0V0Z" fill="white"/>
</mask>
<g mask="url(#mask0_98_5263)">
<path d="M87.3921 144.547C87.3921 144.547 87.3196 144.552 87.3144 144.573C87.2937 144.62 87.2937 144.672 87.2885 144.729C87.3403 144.724 87.3921 144.714 87.4439 144.714C87.4283 144.656 87.418 144.604 87.3921 144.547ZM87.3921 144.547C87.3921 144.547 87.3196 144.552 87.3144 144.573C87.2937 144.62 87.2937 144.672 87.2885 144.729C87.3403 144.724 87.3921 144.714 87.4439 144.714C87.4283 144.656 87.418 144.604 87.3921 144.547ZM144.398 89.6406C143.725 89.6406 143.073 89.724 142.436 89.849C141.881 88.901 141.218 88.0312 140.457 87.2656C146.874 74.8542 150.577 61.3073 150.292 48.3073C150.266 47.0521 150.204 45.8021 150.101 44.5573C150.075 44.2812 150.054 44.0104 150.028 43.7344C150.023 43.7031 150.018 43.6719 150.018 43.6406C149.992 43.3698 149.966 43.099 149.935 42.8281C149.924 42.7656 149.919 42.7031 149.914 42.6406C149.412 38.1823 148.407 33.8177 146.838 29.6094C146.776 29.4375 146.698 29.2656 146.631 29.0885C146.615 29.0365 146.594 28.9792 146.574 28.9271C136.205 1.18229 97.9367 0.0416667 94.6583 0C94.6532 0 94.6532 0.00520833 94.648 0.00520833C94.6221 0.00520833 94.6117 0 94.6117 0H94.6066C94.4253 0.005208 67.9187 0.458333 51.8479 15.526C51.7702 15.599 51.6926 15.6823 51.6097 15.7552C49.8954 17.3906 48.3003 19.1875 46.876 21.1823C45.4518 23.1667 44.1932 25.349 43.1522 27.7292C41.1842 26.1458 38.8743 24.9948 36.3521 24.4062C36.3417 24.4062 36.3314 24.401 36.3262 24.401C36.321 24.401 36.3106 24.3958 36.3055 24.3958C36.2847 24.3906 36.2744 24.3854 36.2537 24.3854C35.9688 24.3177 35.6788 24.2656 35.3888 24.2083C34.4462 24.0469 33.4725 23.9583 32.4833 23.9583C32.2968 23.9583 32.1052 23.9635 31.9136 23.9688C31.5821 23.9792 31.2507 24 30.9192 24.0312C30.5929 24.0625 30.2718 24.1042 29.9507 24.151C29.785 24.1771 29.6244 24.2031 29.4535 24.2344C28.9615 24.3229 28.4799 24.4323 28.0034 24.5677C27.5321 24.6979 27.0608 24.849 26.605 25.0208C26.1493 25.1875 25.6987 25.3802 25.2585 25.5938C24.9632 25.7344 24.6784 25.8802 24.3935 26.0365C24.2537 26.1146 24.1139 26.1979 23.974 26.2812C23.8342 26.3646 23.6995 26.4479 23.5649 26.5312C23.4251 26.6146 23.2956 26.6979 23.1609 26.7865C23.1506 26.7865 23.1454 26.7917 23.1454 26.7969C23.0159 26.8854 22.8864 26.974 22.757 27.0677C22.4928 27.25 22.2339 27.4427 21.9801 27.6458C21.6901 27.8698 21.4156 28.1094 21.1411 28.3542C20.3331 29.0833 19.5977 29.8854 18.9244 30.75L18.8985 30.7812C18.8985 30.7812 18.8985 30.7813 18.8933 30.7865C18.8778 30.8021 18.8623 30.8177 18.8467 30.8333C18.8105 30.8854 18.7742 30.9375 18.738 30.9896L18.5878 31.1979C18.2408 31.6771 17.9093 32.1719 17.6141 32.6823C16.7285 32.5156 15.8221 32.3906 14.8899 32.3906C14.4031 32.3906 13.9162 32.4167 13.4449 32.4635C13.2378 32.4844 13.0358 32.5104 12.8286 32.5417C12.0828 32.6458 11.3629 32.8073 10.6586 33.026C10.4877 33.0781 10.3168 33.1354 10.151 33.1927C9.88171 33.2813 9.61758 33.3854 9.35863 33.4948C9.32755 33.5 9.29648 33.5156 9.2654 33.526C9.23433 33.5417 9.20325 33.5521 9.17218 33.5677C4.94086 35.375 1.69874 39.1302 0.507551 43.7396C0.507551 43.7396 0.507551 43.7396 0.507551 43.7448C0.507551 43.7448 0.507551 43.7448 0.502372 43.7448C0.419507 44.0729 0.34182 44.4062 0.279671 44.7448L0.274492 44.75C0.0984022 45.6979 0 46.6719 0 47.6667C0 55.6563 6.00257 62.1198 13.621 62.7917V62.8802H14.4652C14.6102 62.8854 14.7449 62.9375 14.8899 62.9375C15.0349 62.9375 15.1696 62.8854 15.3146 62.8802H40.2105C40.6559 65.2083 41.2049 67.526 41.8626 69.8281C46.8967 87.5938 57.9696 104.656 71.9325 116.792V116.797H71.9014L82.6739 130.953H82.8189V150.568H82.1508L83.8599 161.318H104.457L106.741 150.568H105.969V130.953H106.306L117.255 116.885H117.291C119.197 115.229 121.051 113.474 122.848 111.646H144.098C144.202 111.646 144.295 111.677 144.398 111.677C144.507 111.677 144.606 111.646 144.709 111.646H145.32V111.583C150.815 111.094 155.145 106.427 155.145 100.667C155.145 94.5833 150.334 89.6406 144.398 89.6406ZM83.3058 150.568V130.953H93.5656V150.568H83.3058ZM94.0576 150.568V130.953H105.483V150.568H94.0576ZM87.3144 144.573C87.2937 144.62 87.2937 144.672 87.2885 144.724C87.3403 144.724 87.3921 144.714 87.4439 144.714C87.4283 144.656 87.418 144.604 87.3921 144.547C87.3921 144.547 87.3196 144.552 87.3144 144.573Z" fill="#F58634"/>
</g>
<path d="M54.1419 39.1152C54.1264 39.1361 54.1108 39.1517 54.1005 39.1673C54.0487 39.1465 53.9969 39.1204 53.9451 39.0892C53.9555 39.0684 53.9606 39.0527 53.971 39.0319C53.2666 38.6882 52.526 38.4017 51.7544 38.1934C51.7544 38.209 51.7492 38.2194 51.7492 38.2298C51.7492 38.2298 51.7492 38.2298 51.7544 38.2298C51.7751 38.4225 51.801 38.6152 51.8269 38.7975C51.7595 38.8079 51.6974 38.8236 51.6352 38.834C51.2157 40.9694 50.9361 43.209 50.8377 45.5632C50.6098 51.2194 51.195 56.8392 52.3499 62.3079C57.3374 60.709 60.9576 55.9642 60.9576 50.3288C60.9576 45.3913 58.1764 41.1569 54.1419 39.1152ZM52.2619 48.9329C52.179 48.9277 52.0962 48.9173 52.0185 48.9121V48.3757C52.1221 48.3809 52.2308 48.3913 52.3344 48.3965C52.3085 48.5736 52.2878 48.7507 52.2619 48.9329ZM52.3241 39.2142C52.2567 39.1204 52.1894 39.0215 52.1272 38.9277C52.3033 38.7975 52.4846 38.6777 52.6607 38.5475C52.728 38.6569 52.7902 38.7663 52.8575 38.8757C52.6814 38.985 52.5001 39.0996 52.3241 39.2142ZM53.4479 61.4434C53.4065 61.3913 53.3754 61.3288 53.334 61.2767C53.3599 61.2611 53.3806 61.2454 53.4013 61.2298C53.4376 61.2923 53.4738 61.3444 53.5049 61.4017C53.5049 61.4017 53.4686 61.4277 53.4479 61.4434ZM55.1674 45.1152C55.2554 45.1204 55.3435 45.1725 55.4522 45.2142C55.271 45.36 55.2192 45.4017 55.1726 45.4382C55.1156 45.3704 55.0586 45.3027 55.0224 45.2246C55.0172 45.209 55.1156 45.11 55.1674 45.1152ZM55.447 58.1257H55.0638V58.0163H55.447V58.1257ZM55.1777 51.8548C55.2969 51.8548 55.4263 51.86 55.5455 51.86C55.5713 52.2611 55.5921 52.6569 55.6128 53.0579C54.9758 52.6934 54.6391 52.3079 55.1777 51.8548ZM55.4729 41.0944C55.447 41.0319 55.4108 40.9694 55.3745 40.9017C55.4315 40.8861 55.4988 40.834 55.5351 40.8548C55.5765 40.8757 55.5869 40.9538 55.618 41.0111C55.5662 41.0423 55.5247 41.0684 55.4729 41.0944ZM56.0634 47.2038C56.0271 47.1517 55.9909 47.11 55.9598 47.0684C56.0323 47.0319 56.0996 46.9902 56.1669 46.9538C56.1877 47.0059 56.2343 47.0788 56.2187 47.1204C56.2032 47.1569 56.1203 47.1777 56.0634 47.2038ZM59.0051 53.834C59.1087 53.9017 59.2174 53.9642 59.3262 54.0267C59.2381 54.1257 59.1501 54.2246 59.0621 54.3184C58.9792 54.235 58.8963 54.1517 58.8135 54.0632C58.8756 53.9902 58.9378 53.9173 59.0051 53.834ZM58.5908 44.9277C58.6218 44.9694 58.6529 45.0111 58.6788 45.0527C58.57 45.1465 58.4561 45.2454 58.3422 45.3392C58.3059 45.2767 58.2645 45.209 58.223 45.1413C58.3473 45.0684 58.4716 45.0007 58.5908 44.9277ZM58.7254 55.4694C58.6529 55.5111 58.6115 55.6048 58.4872 55.7611C58.394 55.3392 58.3214 54.9954 58.2489 54.6517C58.3059 54.584 58.3577 54.5215 58.4095 54.4486C58.6892 54.6309 58.9688 54.8079 59.4298 55.11C58.9999 55.3236 58.8497 55.3861 58.7254 55.4694ZM59.8648 51.6673C59.8752 51.5788 59.8907 51.4954 59.9063 51.4069C59.9632 51.4277 60.0668 51.4538 60.0668 51.4746C60.0668 51.5527 60.0357 51.6309 60.015 51.709C59.958 51.6986 59.9114 51.6829 59.8648 51.6673Z" fill="white"/>
<path d="M119.486 93.5573C114.846 93.8385 111.158 97.75 111.158 102.583C111.158 105.219 112.251 107.583 114.002 109.229C118.461 103.312 124.536 94.349 129.508 83.75C124.551 84.651 120.6 88.5521 119.486 93.5573ZM114.364 105.943L114.385 105.885L114.426 105.943H114.364ZM116.058 105.656C116.011 105.599 115.964 105.536 115.918 105.479C115.97 105.458 116.021 105.411 116.063 105.417C116.099 105.417 116.125 105.49 116.156 105.531C116.12 105.573 116.094 105.615 116.058 105.656ZM125.038 91.7031C125.059 91.6042 125.085 91.5052 125.106 91.4062C125.142 91.4115 125.188 91.4167 125.225 91.4167V91.7344C125.162 91.724 125.1 91.7135 125.038 91.7031Z" fill="white"/>
<mask id="mask1_98_5263" style="mask-type:luminance" maskUnits="userSpaceOnUse" x="0" y="23" width="155" height="129">
<path d="M0 23.791H155V151.791H0V23.791Z" fill="white"/>
</mask>
<g mask="url(#mask1_98_5263)">
<path d="M107.777 116.885C107.777 116.885 107.813 116.849 107.86 116.797H101.873C101.857 116.849 101.842 116.885 101.842 116.885H94.6117V116.797H71.9014L82.6739 130.953H82.8189V150.567H83.3058V130.953H93.5656V150.567H94.0576V130.953H105.483V150.567H105.969V130.953H106.306L117.255 116.885H107.777ZM104.587 126.109C104.556 126.031 104.514 125.958 104.509 125.885C104.509 125.859 104.613 125.791 104.654 125.807C104.711 125.823 104.763 125.89 104.856 125.968C104.727 126.036 104.654 126.067 104.587 126.109ZM104.861 117.963C104.742 117.864 104.628 117.755 104.514 117.651C104.664 117.515 104.82 117.38 104.975 117.25C105.079 117.359 105.187 117.479 105.296 117.599C105.151 117.718 105.006 117.843 104.861 117.963ZM18.8467 30.833C18.8105 30.8851 18.7742 30.9372 18.738 30.9893C18.7898 30.9215 18.8364 30.8538 18.8933 30.7861C18.8778 30.8018 18.8623 30.8174 18.8467 30.833ZM50.838 45.5622C50.9364 43.208 51.2161 40.9684 51.6356 38.833C51.6201 38.833 51.6045 38.8382 51.5838 38.8382C51.5527 38.6455 51.5113 38.4528 51.475 38.2601L51.7495 38.2288C51.7495 38.2184 51.7547 38.208 51.7547 38.1924C50.9986 37.9997 50.2165 37.8747 49.4086 37.8226C49.3464 37.5309 49.2739 37.2445 49.1962 36.958C49.1548 36.9372 49.1082 36.9163 49.0668 36.8955C49.0668 36.8903 49.0927 36.833 49.0978 36.833C49.1237 36.8382 49.1444 36.8486 49.1652 36.859C48.1397 33.1976 46.0059 30.0153 43.1522 27.7288C41.1842 26.1455 38.8691 24.9945 36.3521 24.4059C36.409 24.4788 36.466 24.5518 36.5282 24.6247C36.3624 24.7757 36.2019 24.9215 36.0413 25.0726C35.9585 24.9788 35.8756 24.8747 35.7927 24.7757C35.9636 24.6455 36.1346 24.5257 36.3055 24.3955C36.2847 24.3903 36.2744 24.3851 36.2537 24.3851C35.9688 24.3174 35.6788 24.2653 35.3888 24.208C34.4462 24.0465 33.4725 23.958 32.4833 23.958C32.2968 23.958 32.1052 23.9632 31.9136 23.9684C31.5821 23.9788 31.2507 23.9997 30.9192 24.0309C30.5929 24.0622 30.2718 24.1038 29.9507 24.1507C29.785 24.1768 29.6193 24.2028 29.4535 24.234C28.9615 24.3226 28.4799 24.432 28.0034 24.5674C27.5321 24.6976 27.0608 24.8486 26.605 25.0205C26.1493 25.1872 25.6987 25.3799 25.2585 25.5934C24.9632 25.734 24.6784 25.8799 24.3935 26.0361C24.2537 26.1143 24.1139 26.1924 23.974 26.2809C23.8342 26.3643 23.6995 26.4476 23.5649 26.5309C23.4251 26.6143 23.2956 26.6976 23.1609 26.7861C23.1506 26.7861 23.1454 26.7913 23.1454 26.7965C23.0159 26.8851 22.8812 26.9736 22.757 27.0674C22.4928 27.2497 22.2339 27.4424 21.9801 27.6455C21.6901 27.8695 21.4156 28.109 21.1411 28.3538C20.3228 29.083 19.5718 29.9007 18.8985 30.7809L18.9555 30.7184C19.0487 30.8018 19.1419 30.8851 19.2352 30.9736C19.1057 31.1299 18.9814 31.2861 18.8519 31.4424C18.7639 31.359 18.6758 31.2809 18.5878 31.1976C18.2408 31.6768 17.9093 32.1715 17.6089 32.682C16.7285 32.5153 15.8221 32.3903 14.8899 32.3903C14.4031 32.3903 13.9162 32.4163 13.4449 32.4632C13.2378 32.484 13.0306 32.5101 12.8286 32.5413C12.0828 32.6455 11.3629 32.807 10.6586 33.0257C10.4877 33.0778 10.3168 33.1351 10.151 33.1924C9.88171 33.2809 9.61758 33.3851 9.35863 33.4945C9.40006 33.5361 9.43631 33.583 9.47257 33.6351C9.40006 33.6768 9.32237 33.7236 9.24987 33.7601C9.22915 33.6976 9.19808 33.6299 9.17218 33.5674C4.94086 35.3747 1.69874 39.1299 0.507551 43.7393C0.580059 43.7705 0.657745 43.8018 0.730253 43.833C0.673282 44.083 0.605955 44.333 0.548984 44.5778H1.06689C0.590417 45.1872 0.590417 45.1872 0.346999 44.7601C0.326283 44.7601 0.300387 44.7549 0.274492 44.7497C0.0984022 45.6976 0 46.6716 0 47.6663C0 55.6559 6.00257 62.1195 13.621 62.7913V62.8799H14.4652C14.6102 62.8851 14.7449 62.9372 14.8899 62.9372C15.0349 62.9372 15.1696 62.8851 15.3146 62.8799H48.2485C48.3935 62.8851 48.5385 62.9372 48.6835 62.9372C48.8337 62.9372 48.9787 62.8851 49.1237 62.8799H49.4552V62.8538C50.4548 62.7913 51.4284 62.6038 52.3503 62.307C51.1954 56.8382 50.6101 51.2184 50.838 45.5622ZM0.305567 49.2757C0.279672 49.2288 0.248598 49.1924 0.222701 49.1507C0.305567 49.0986 0.388432 49.0466 0.466119 48.9841C0.497194 49.0257 0.517909 49.0622 0.543805 49.1038C0.466118 49.1611 0.383253 49.2184 0.305567 49.2757ZM1.17048 50.7497C0.989207 50.5413 0.807938 50.3382 0.626671 50.1299C0.709536 50.057 0.797581 49.9788 0.880446 49.9007C1.05136 50.1143 1.22227 50.3382 1.388 50.5466C1.31549 50.6195 1.24298 50.682 1.17048 50.7497ZM2.03538 52.932C1.97324 52.8486 1.91627 52.7653 1.8593 52.682C1.9318 52.6403 2.00431 52.6038 2.082 52.5674C2.10789 52.6716 2.13379 52.7705 2.1545 52.8747C2.11825 52.8903 2.07164 52.9111 2.03538 52.932ZM2.41346 42.3382C2.3772 42.3174 2.36685 42.234 2.34095 42.182C2.39792 42.1559 2.47043 42.1038 2.49632 42.1247C2.54294 42.1507 2.55847 42.2288 2.57919 42.2809C2.52222 42.3018 2.45489 42.3538 2.41346 42.3382ZM3.7652 39.9059C3.78592 39.8174 3.80146 39.7236 3.81699 39.6351C3.86878 39.6455 3.91022 39.6559 3.95683 39.6663C3.93611 39.7497 3.9154 39.8382 3.89986 39.932C3.85325 39.9268 3.81182 39.9163 3.7652 39.9059ZM4.10184 48.8799C4.03969 48.8591 3.96719 48.8278 3.90504 48.7966C3.94129 48.6976 3.97237 48.5934 4.00862 48.4893C4.08113 48.5205 4.15881 48.5518 4.23132 48.583C4.18989 48.6872 4.14328 48.7861 4.10184 48.8799ZM4.47992 45.1351C4.59386 44.9945 4.71298 44.8591 4.82692 44.7184C4.88389 44.7601 4.94086 44.8018 4.99783 44.8434C4.88389 44.9997 4.77513 45.1559 4.66119 45.3122C4.60422 45.2549 4.54207 45.1924 4.47992 45.1351ZM5.26714 52.6455C5.10141 52.6351 4.93568 52.6247 4.76477 52.6143C4.76995 52.5465 4.77513 52.4736 4.77513 52.4059C4.94604 52.4163 5.11177 52.4268 5.28268 52.432C5.2775 52.5049 5.27232 52.5726 5.26714 52.6455ZM6.03365 45.1351C6.00775 45.0778 5.97668 45.0205 5.9456 44.9684C6.07508 44.9007 6.20456 44.8382 6.33403 44.7705C6.35993 44.8174 6.38065 44.8695 6.40654 44.9163C6.28742 44.9893 6.15795 45.0622 6.03365 45.1351ZM7.3336 43.7705C7.32842 43.7236 7.31806 43.6768 7.30253 43.6299C7.40611 43.6091 7.50451 43.5934 7.59773 43.5778C7.60809 43.6143 7.61845 43.6559 7.62363 43.6976C7.53041 43.7236 7.432 43.7497 7.3336 43.7705ZM8.47818 43.8695C8.41603 43.7549 8.35388 43.6455 8.28137 43.5309C8.48854 43.4007 8.69052 43.2653 8.88733 43.1351C8.96502 43.2341 9.02716 43.3382 9.09967 43.4424C8.89251 43.583 8.68534 43.7288 8.47818 43.8695ZM10.7518 48.9268C10.7829 48.9059 10.845 48.958 10.8916 48.9788C10.8709 49.0309 10.8606 49.1143 10.8243 49.1247C10.7777 49.1351 10.7156 49.0934 10.6586 49.0726C10.6897 49.0205 10.7052 48.9528 10.7518 48.9268ZM10.1976 58.1559C10.1251 57.9997 10.0474 57.8486 9.97494 57.6976C10.0578 57.6663 10.1407 57.6351 10.2235 57.6038C10.2753 57.7549 10.3375 57.9111 10.3944 58.0622C10.3323 58.0934 10.265 58.1247 10.1976 58.1559ZM10.8347 57.2809C10.7311 57.2705 10.6275 57.2601 10.5239 57.2549C10.5498 56.8903 10.5809 56.5205 10.612 56.1611C10.7156 56.1716 10.8243 56.1768 10.9331 56.182C10.8968 56.5466 10.8709 56.9111 10.8347 57.2809ZM12.3211 38.984C12.2486 38.859 12.1709 38.7288 12.0984 38.6038C12.1761 38.5674 12.2589 38.5361 12.3418 38.4945C12.4143 38.6143 12.4868 38.7236 12.5386 38.8486C12.5386 38.8695 12.3988 38.9424 12.3211 38.984ZM12.7406 33.3226C12.7561 33.2705 12.7665 33.2236 12.7717 33.1663C12.8597 33.1768 12.9477 33.182 13.0358 33.1872C13.0202 33.2653 12.9995 33.3382 12.9788 33.4163C12.9011 33.3903 12.8234 33.3538 12.7406 33.3226ZM13.0928 36.2445C13.0565 36.182 13.0254 36.1143 12.9892 36.0518C13.041 36.0309 13.1083 35.9945 13.1497 36.0101C13.186 36.0153 13.2015 36.0986 13.2222 36.1507C13.1808 36.182 13.1342 36.208 13.0928 36.2445ZM13.9007 55.9111V55.7393C13.9784 55.7236 14.0509 55.708 14.1234 55.6872C14.1338 55.7601 14.1389 55.833 14.1441 55.9111H13.9007ZM20.4264 34.1976V34.484H20.3124V34.1976H20.4264ZM20.2451 35.5882C20.2192 35.6455 20.1985 35.6924 20.1778 35.7497C20.1208 35.7236 20.069 35.6976 20.0224 35.6715C20.0431 35.6195 20.0742 35.5674 20.1001 35.5153C20.1467 35.5413 20.1985 35.5674 20.2451 35.5882ZM19.7013 39.0622C19.6702 39.1507 19.634 39.2393 19.6029 39.3278C19.5614 39.3174 19.52 39.3018 19.4786 39.2913C19.5097 39.1976 19.5304 39.109 19.5614 39.0153C19.6029 39.0361 19.6547 39.0518 19.7013 39.0622ZM19.1212 42.3643C19.2559 42.3903 19.3854 42.4111 19.5148 42.4372C19.5097 42.4945 19.4993 42.5518 19.4889 42.6143C19.3543 42.5882 19.2248 42.5674 19.0901 42.5413C19.1005 42.484 19.1109 42.432 19.1212 42.3643ZM19.1989 45.9059C19.2921 46.0778 19.3905 46.2497 19.4838 46.4216C19.3802 46.4632 19.2766 46.5153 19.173 46.557C19.1005 46.3747 19.028 46.1924 18.9555 46.0101C19.0384 45.9788 19.116 45.9424 19.1989 45.9059ZM17.236 34.9163C17.5675 35.0049 17.899 35.0986 18.2304 35.1924C18.1993 35.3174 18.1631 35.4476 18.132 35.5778C17.7954 35.484 17.4639 35.3851 17.1325 35.2861C17.1687 35.1611 17.1998 35.0413 17.236 34.9163ZM17.987 54.8382C17.9352 54.8434 17.8782 54.8538 17.8316 54.8486C17.8161 54.8486 17.7902 54.7861 17.7954 54.7757C17.8316 54.7393 17.8782 54.7132 17.9197 54.6924C17.9404 54.7393 17.9611 54.7861 17.987 54.8382ZM17.7643 41.2288C17.6918 41.2653 17.6193 41.2965 17.5468 41.3278C17.5053 41.2288 17.4536 41.1351 17.4069 41.0361C17.4432 41.0049 17.4846 40.9736 17.5261 40.9528C17.6089 41.0465 17.6814 41.1403 17.7643 41.2288ZM16.7129 46.6716C16.9253 46.7966 17.1428 46.932 17.3552 47.057C17.3085 47.1455 17.2619 47.234 17.205 47.3226C16.9926 47.1924 16.7751 47.057 16.5576 46.9216C16.6094 46.8382 16.6612 46.7549 16.7129 46.6716ZM16.7544 47.6299C16.7958 47.7132 16.8321 47.7966 16.8683 47.8747C16.7492 47.8903 16.6301 47.9007 16.5058 47.9163C16.4954 47.8643 16.4902 47.8174 16.4747 47.7653C16.5731 47.7236 16.6612 47.6768 16.7544 47.6299ZM15.211 48.9216C14.9676 48.8643 14.7293 48.7965 14.4859 48.7393C14.5118 48.6351 14.5429 48.5257 14.574 48.4268C14.807 48.5153 15.0401 48.6038 15.2783 48.6924C15.2576 48.7705 15.2317 48.8434 15.211 48.9216ZM15.0867 36.5153C15.0556 36.4372 15.0246 36.3538 14.9935 36.2705C15.1281 36.2288 15.268 36.1872 15.4026 36.1455C15.4285 36.2028 15.4492 36.2601 15.47 36.307C15.3457 36.3799 15.211 36.4476 15.0867 36.5153ZM15.6253 50.4424C15.9568 49.7653 16.2365 49.1924 16.5213 48.6143C16.6353 48.5934 16.7492 48.5726 16.8683 48.5518C17.0185 48.9528 17.381 49.4163 17.2775 49.7288C17.0548 50.4007 16.4747 50.7236 15.6253 50.4424ZM17.1791 56.4163C17.1583 56.2861 17.1325 56.1559 17.1066 56.0257C17.5053 55.9632 17.899 55.9059 18.2977 55.8434C18.3185 55.9424 18.3392 56.0413 18.3651 56.1403C17.9663 56.2341 17.5727 56.3278 17.1791 56.4163ZM18.883 53.5361C18.8778 53.5465 18.8778 53.557 18.8778 53.5674C18.8623 53.5726 18.8467 53.583 18.8312 53.5934C18.7742 53.7132 18.7173 53.8278 18.6551 53.9476C18.6033 53.9059 18.5567 53.8643 18.5101 53.8278C18.6189 53.7445 18.7276 53.6716 18.8312 53.5934C18.8364 53.5778 18.8467 53.5622 18.8571 53.5466C18.8623 53.5413 18.8726 53.5413 18.883 53.5361C18.9037 53.2965 18.9244 53.0465 18.9607 52.6611C19.2766 52.8174 19.4993 52.9268 19.9343 53.1455C19.432 53.333 19.1523 53.432 18.883 53.5361ZM19.7583 41.3538C19.7375 41.2236 19.7168 41.0934 19.6961 40.9632C20.0483 40.9424 20.4056 40.9268 20.7578 40.9111C20.763 41.0153 20.7734 41.1195 20.7785 41.2236C20.4419 41.2653 20.1001 41.3122 19.7583 41.3538ZM21.0686 31.8174C21.1307 31.708 21.2705 31.6455 21.3793 31.557C21.4207 31.5934 21.4674 31.6351 21.5088 31.6715C21.3948 31.8799 21.2757 32.0934 21.1566 32.307C21.0996 32.2861 21.0478 32.2757 20.9857 32.2549C21.0116 32.1038 21.0012 31.9372 21.0686 31.8174ZM21.2032 40.307C21.2757 40.307 21.3431 40.3538 21.4259 40.3799C21.3741 40.458 21.3327 40.5466 21.3172 40.5466C21.2447 40.5257 21.1773 40.4788 21.11 40.4424C21.1463 40.3955 21.1721 40.307 21.2032 40.307ZM21.2188 48.2028C21.3638 47.9893 21.4363 47.8747 21.5088 47.7653C21.5968 47.8695 21.6849 47.9684 21.8558 48.1559C21.602 48.1768 21.4932 48.1768 21.2188 48.2028ZM21.9076 32.6715C21.7729 32.6611 21.6486 32.6559 21.514 32.6455C21.5191 32.5882 21.5243 32.5257 21.5295 32.4632C21.659 32.4736 21.7833 32.4893 21.9179 32.4997C21.9128 32.5518 21.9076 32.6143 21.9076 32.6715ZM21.4259 30.3122C21.3897 30.2028 21.3534 30.0986 21.3172 29.9893C21.5554 29.9007 21.7885 29.8122 22.0267 29.7236C22.0733 29.8434 22.1096 29.958 22.1562 30.0778C21.9128 30.1559 21.6745 30.234 21.4259 30.3122ZM22.5964 31.1038C22.6378 31.1143 22.6689 31.1872 22.7103 31.2393C22.6689 31.2757 22.6275 31.3226 22.5964 31.359C22.5446 31.3018 22.498 31.2393 22.4514 31.1768C22.498 31.1507 22.555 31.0934 22.5964 31.1038ZM22.7052 34.7445C22.6637 34.708 22.6275 34.6715 22.5809 34.6299C22.6689 34.5309 22.757 34.432 22.8398 34.333C22.8864 34.3799 22.9382 34.4268 22.99 34.4736C22.8916 34.5622 22.7984 34.6559 22.7052 34.7445ZM23.7772 27.057C23.8601 27.109 23.943 27.1559 24.0206 27.2132C23.9585 27.2861 23.9015 27.359 23.8342 27.432C23.7565 27.3747 23.6788 27.3174 23.6011 27.2549C23.6633 27.1872 23.7203 27.1247 23.7772 27.057ZM24.1812 41.8799C23.9222 41.3174 23.7772 41.0153 23.5752 40.5726C23.974 40.5205 24.2692 40.4788 24.7457 40.4216C24.5386 40.9476 24.4143 41.2809 24.1812 41.8799ZM25.4915 53.7861V53.2653C25.5433 53.2601 25.5899 53.2497 25.6417 53.2393C25.6883 53.3903 25.7349 53.5465 25.7919 53.7028C25.6624 53.7393 25.6055 53.7549 25.4915 53.7861ZM26.1078 35.0934C26.2114 35.1299 26.315 35.1663 26.4237 35.2028C26.403 35.2497 26.3875 35.2965 26.372 35.3434C26.2632 35.3174 26.1648 35.2861 26.056 35.2497C26.0768 35.1976 26.0871 35.1455 26.1078 35.0934ZM26.3357 50.0778C26.2839 49.9684 26.2166 49.8851 26.2269 49.8174C26.2373 49.7601 26.3616 49.6768 26.4134 49.6924C26.4755 49.7184 26.5636 49.833 26.5532 49.8851C26.5377 49.9476 26.4289 49.9997 26.3357 50.0778ZM26.6309 29.1455C26.6413 29.109 26.7086 29.083 26.7604 29.057C26.7915 29.0986 26.8277 29.1455 26.864 29.1924C26.8018 29.234 26.7397 29.2705 26.6827 29.3122C26.662 29.2549 26.6206 29.1976 26.6309 29.1455ZM27.0038 46.9111L26.6931 46.7913C26.7811 46.5778 26.864 46.359 26.9468 46.1611C27.0711 46.1715 27.1333 46.182 27.1954 46.1872C27.1281 46.432 27.066 46.6715 27.0038 46.9111ZM27.066 37.708C27.0401 37.6455 27.0142 37.5778 26.9883 37.5101C27.1799 37.432 27.3767 37.359 27.5632 37.2861C27.589 37.3486 27.6201 37.4163 27.6408 37.484C27.4544 37.557 27.2628 37.6351 27.066 37.708ZM28.1432 60.2913C28.0914 60.2653 28.0396 60.2549 27.9878 60.2288C28.0345 60.1455 28.0759 60.057 28.1277 59.9736C28.1329 59.9736 28.2105 59.9997 28.2105 60.0049C28.1898 60.1038 28.1639 60.1976 28.1432 60.2913ZM28.1795 47.4528C28.1173 47.3955 28.0448 47.3382 28.0448 47.3174C28.0811 47.2497 28.138 47.1872 28.2002 47.1403C28.2157 47.1299 28.3297 47.2236 28.3297 47.2288C28.2882 47.3122 28.2364 47.3747 28.1795 47.4528ZM28.3141 28.6299C28.5575 28.6038 28.801 28.5778 29.0496 28.5518C29.0651 28.6351 29.0806 28.7184 29.0962 28.8018C28.8424 28.859 28.5886 28.9163 28.3348 28.9788C28.3297 28.8643 28.3193 28.7445 28.3141 28.6299ZM28.63 35.6872C28.6663 35.5986 28.6922 35.5153 28.7233 35.4268C28.7647 35.4424 28.8113 35.4632 28.8527 35.484C28.8217 35.5674 28.7802 35.6507 28.7492 35.734C28.7077 35.7236 28.6715 35.7028 28.63 35.6872ZM29.1065 49.9788C29.0081 49.8955 28.9097 49.8122 28.8113 49.7341C28.8424 49.6872 28.8735 49.6507 28.9045 49.6091C29.0081 49.6872 29.1065 49.7653 29.2049 49.8486C29.1739 49.8903 29.1376 49.932 29.1065 49.9788ZM29.671 26.3643C29.3396 26.2132 29.0133 26.0674 28.6818 25.9268C28.7181 25.8382 28.7543 25.7497 28.7854 25.6611L29.7953 26.0257C29.7539 26.1403 29.7125 26.2549 29.671 26.3643ZM29.9196 29.4788C29.8834 29.458 29.8575 29.4372 29.8212 29.4215C29.8627 29.3434 29.8989 29.2705 29.9352 29.1976C29.9818 29.2288 30.0284 29.2549 30.0698 29.2809C30.0232 29.3434 29.9714 29.4111 29.9196 29.4788ZM30.334 45.2341C30.2511 45.1559 30.1734 45.0778 30.0906 44.9997C30.2097 44.859 30.3184 44.7132 30.4375 44.5726C30.5463 44.6768 30.6499 44.7809 30.7535 44.8799C30.6136 44.9997 30.4738 45.1195 30.334 45.2341ZM33.7056 35.2028C33.9438 35.3382 34.182 35.4788 34.4203 35.6143C34.3737 35.7132 34.3322 35.8122 34.2856 35.9111C34.0215 35.807 33.7574 35.708 33.488 35.6038C33.5605 35.4736 33.6331 35.333 33.7056 35.2028ZM34.529 41.458C34.4772 41.4997 34.4306 41.5466 34.3788 41.5882C34.3529 41.5413 34.3219 41.4945 34.2649 41.4059C34.3737 41.4215 34.4565 41.4424 34.529 41.458ZM33.1721 42.4684C33.053 42.5726 32.9235 42.6768 32.7992 42.7809C32.7526 42.7236 32.706 42.6663 32.6594 42.6091C32.7889 42.5101 32.9132 42.4059 33.0478 42.3018C33.0892 42.3591 33.1359 42.4111 33.1721 42.4684ZM32.9183 44.3695C32.8562 44.4215 32.794 44.4684 32.7319 44.5205C32.706 44.4632 32.649 44.4059 32.6646 44.3643C32.6749 44.3174 32.7474 44.2861 32.8199 44.2341C32.851 44.2809 32.8873 44.3278 32.9183 44.3695ZM32.4729 32.833C32.561 32.9007 32.6438 32.9684 32.7319 33.0361C32.6697 33.0882 32.618 33.1455 32.561 33.1924C32.4937 33.1247 32.4211 33.057 32.3849 32.9736C32.3694 32.9528 32.4367 32.8851 32.4729 32.833ZM31.7013 36.7757C31.8618 36.8643 32.012 36.958 32.1622 37.0465C32.1156 37.1143 32.0586 37.182 32.012 37.2445C31.8722 37.1559 31.7323 37.0674 31.5925 36.9788C31.6287 36.9111 31.6702 36.8434 31.7013 36.7757ZM31.3491 44.6872C31.4112 44.5726 31.4734 44.4528 31.5355 44.3434C32.0431 44.6143 32.5403 44.8851 33.0375 45.1559C32.9753 45.2549 32.908 45.3538 32.8407 45.4528C32.3435 45.1976 31.8514 44.9424 31.3491 44.6872ZM33.141 58.8851C33.1048 58.807 33.0737 58.7288 33.0375 58.6559C33.141 58.6351 33.2498 58.6143 33.3534 58.5934C33.3689 58.6351 33.3896 58.6768 33.4052 58.7184C33.3171 58.7757 33.2291 58.8278 33.141 58.8851ZM33.5243 50.6455C33.5088 50.6299 33.4621 50.6195 33.4621 50.6195C33.4777 50.5622 33.5036 50.5101 33.5191 50.4528C33.545 50.4632 33.5761 50.4736 33.602 50.4893C33.5761 50.5361 33.5502 50.5934 33.5243 50.6455ZM34.8294 42.8486C34.8501 42.9215 34.8657 42.9945 34.8864 43.0726C34.5964 43.1455 34.3012 43.2288 34.0111 43.3122C33.9852 43.208 33.9645 43.1038 33.9438 42.9997C34.2338 42.9528 34.5342 42.8955 34.8294 42.8486ZM34.0526 59.8174C34.0267 59.7341 33.9956 59.6559 33.9645 59.5778C34.1924 59.4893 34.4203 59.3955 34.6482 59.3122C34.6792 59.3955 34.7155 59.4788 34.7414 59.5674C34.5135 59.6507 34.2856 59.7341 34.0526 59.8174ZM34.3167 46.9893C34.3633 46.6611 34.3219 46.3955 34.4203 46.3278C34.643 46.1559 34.9434 46.083 35.2075 45.9632C35.2438 46.0726 35.2852 46.182 35.3266 46.2913C35.0521 46.4841 34.7725 46.6768 34.3167 46.9893ZM35.5856 34.2549C35.5856 34.1872 35.6011 34.109 35.6115 34.0413C35.6425 34.0465 35.6684 34.0518 35.6995 34.057C35.684 34.1299 35.6736 34.2028 35.6684 34.2757C35.6374 34.2705 35.5856 34.2601 35.5856 34.2549ZM35.8497 59.7913C35.8135 59.807 35.7565 59.7497 35.6995 59.7341C35.7306 59.682 35.7617 59.6403 35.7876 59.5934C35.8393 59.6143 35.886 59.6299 35.9378 59.6507C35.9119 59.6976 35.8911 59.7705 35.8497 59.7913ZM37.1134 26.7965C37.0772 26.7549 37.0409 26.7184 37.015 26.6768C37.015 26.6611 37.0513 26.6143 37.0564 26.6143C37.1134 26.6247 37.16 26.6403 37.2222 26.6611C37.1807 26.708 37.1445 26.7497 37.1134 26.7965ZM37.7453 59.6247C37.7038 59.5622 37.6572 59.4997 37.6106 59.4424C37.6624 59.4268 37.7245 59.3851 37.7712 59.4007C37.8126 59.4163 37.8333 59.4788 37.8696 59.5309C37.8281 59.5622 37.7919 59.5934 37.7453 59.6247ZM39.9257 28.9372C40.1173 29.0361 40.3089 29.1403 40.5005 29.234C40.4591 29.3278 40.4228 29.4111 40.3762 29.4997C40.1639 29.4111 39.9567 29.3174 39.7444 29.2288C39.8065 29.1299 39.8635 29.0361 39.9257 28.9372ZM40.05 53.682C40.0085 53.6143 39.9723 53.5466 39.936 53.4788C39.9723 53.4632 40.0033 53.4476 40.0396 53.432C40.0655 53.5049 40.081 53.5726 40.1069 53.6507C40.0862 53.6559 40.0707 53.6663 40.05 53.682ZM40.6093 59.1195C40.5471 59.1351 40.4591 59.0778 40.1639 58.9788C40.3762 58.8955 40.4539 58.8486 40.5368 58.8382C40.5834 58.8278 40.687 58.8799 40.6818 58.9059C40.6818 58.9788 40.6559 59.1091 40.6093 59.1195ZM41.5571 41.6716C41.4328 41.6611 41.3085 41.6403 41.1894 41.6247C41.2463 41.1924 41.3033 40.7601 41.3654 40.3278C41.4846 40.3486 41.6089 40.3591 41.7332 40.3799C41.6762 40.807 41.6192 41.2393 41.5571 41.6716ZM42.1475 52.1872C42.1371 52.0622 42.1216 51.9268 42.1112 51.8018C42.1578 51.7966 42.22 51.7913 42.2718 51.7861C42.2821 51.9163 42.2925 52.0466 42.2977 52.1768C42.2459 52.1768 42.1993 52.182 42.1475 52.1872ZM42.9036 34.2393C42.9451 34.1195 42.9917 34.0101 43.0331 33.8903C43.0901 33.9059 43.1419 33.9215 43.1988 33.9372C43.1833 34.0674 43.1626 34.1924 43.1419 34.3226C43.0642 34.2965 42.9865 34.2705 42.9036 34.2393ZM43.5925 42.7809H43.1626C43.1626 42.7236 43.1574 42.6715 43.1522 42.6195C43.3024 42.5986 43.4474 42.583 43.6028 42.5674C43.5976 42.6351 43.5976 42.708 43.5925 42.7809ZM45.2912 52.7445C45.2549 52.7184 45.2135 52.6924 45.1773 52.6663C45.229 52.5726 45.2808 52.4736 45.3378 52.3747C45.3844 52.4268 45.4362 52.4684 45.4932 52.5153C45.431 52.5934 45.3585 52.6663 45.2912 52.7445ZM44.9338 46.4945C44.9338 46.3538 44.9183 46.2445 44.939 46.2341C45.1669 46.1663 45.4 46.1091 45.6278 46.0518C45.633 46.182 45.6382 46.307 45.6382 46.4372C45.4051 46.4528 45.1773 46.4736 44.9338 46.4945ZM45.8298 61.3695C45.8039 61.3226 45.7832 61.2809 45.7573 61.2341C45.8609 61.1768 45.9541 61.1195 46.0577 61.057C46.0836 61.1143 46.1147 61.1611 46.1354 61.2184C46.037 61.2705 45.9334 61.3174 45.8298 61.3695ZM46.731 37.2965C46.7258 37.1455 46.7206 37.0049 46.7103 36.859C46.7828 36.8486 46.8501 36.8382 46.9174 36.8226C46.9537 36.9736 46.9899 37.1195 47.0158 37.2653C46.9226 37.2757 46.8242 37.2861 46.731 37.2965ZM47.2334 33.8955C47.311 33.8226 47.425 33.7809 47.5182 33.734C47.57 33.7965 47.6114 33.8538 47.658 33.9215C47.5493 33.9893 47.4405 34.057 47.3369 34.1299C47.3007 34.0465 47.2126 33.9163 47.2334 33.8955ZM47.7254 36.0153C47.6995 36.1195 47.6839 36.2236 47.658 36.3226C47.6011 36.307 47.5493 36.2965 47.5027 36.2809C47.5182 36.182 47.5441 36.083 47.5648 35.9788C47.6166 35.9945 47.6736 36.0049 47.7254 36.0153ZM47.8031 57.5882C47.6788 57.5413 47.5493 57.4945 47.425 57.4476C47.4405 57.3903 47.4561 57.3382 47.4716 57.2861C47.6063 57.307 47.7409 57.3382 47.8756 57.3695C47.8549 57.4424 47.829 57.5153 47.8031 57.5882ZM47.6114 51.4528C47.5337 51.4111 47.4509 51.3747 47.3732 51.333C47.4612 51.0986 47.5545 50.8643 47.6425 50.6247C47.7565 50.682 47.8652 50.7341 47.9791 50.7913C47.8549 51.0153 47.7357 51.2288 47.6114 51.4528ZM49.4293 59.2809C49.393 59.2497 49.3568 59.2184 49.3205 59.1872C49.393 59.0986 49.4655 59.0101 49.5381 58.9216C49.5743 58.9528 49.6106 58.9788 49.6468 59.0101C49.5743 59.1038 49.5018 59.1924 49.4293 59.2809ZM49.74 51.0882C49.5795 50.9632 49.4086 50.833 49.248 50.7028C49.305 50.6299 49.362 50.557 49.4138 50.4841C49.5847 50.6143 49.7504 50.7393 49.9161 50.8695C49.854 50.9424 49.797 51.0205 49.74 51.0882ZM144.398 89.6403C143.725 89.6403 143.073 89.7236 142.436 89.8486C141.881 88.9007 141.218 88.0309 140.457 87.2653C140.447 87.2497 140.431 87.2393 140.421 87.2288C138.173 84.958 135.112 83.5518 131.704 83.5518C131.404 83.5518 131.109 83.5726 130.814 83.5986C130.808 83.5986 130.808 83.5986 130.808 83.6038C130.803 83.6038 130.803 83.5986 130.798 83.5986C130.368 83.6299 129.938 83.6768 129.514 83.7497C129.514 83.7497 129.514 83.7497 129.508 83.7497C124.537 94.3486 118.461 103.312 114.002 109.229C115.452 110.604 117.358 111.484 119.461 111.625V111.646H119.699C119.803 111.646 119.906 111.677 120.01 111.677C120.119 111.677 120.222 111.646 120.331 111.646H144.098C144.196 111.646 144.295 111.677 144.398 111.677C144.507 111.677 144.606 111.646 144.709 111.646H145.32V111.583C150.815 111.093 155.145 106.427 155.145 100.666C155.145 94.583 150.334 89.6403 144.398 89.6403ZM130.415 110.427C130.41 110.349 130.399 110.276 130.389 110.198C130.513 110.203 130.627 110.213 130.741 110.218C130.746 110.265 130.751 110.312 130.751 110.364C130.638 110.39 130.529 110.406 130.415 110.427ZM144.932 97.9372C144.885 97.9216 144.833 97.9007 144.787 97.8851C144.823 97.7184 144.87 97.5466 144.906 97.3799C144.994 97.4111 145.077 97.4424 145.165 97.4736C145.087 97.6247 145.01 97.7861 144.932 97.9372Z" fill="white"/>
</g>
<mask id="mask2_98_5263" style="mask-type:luminance" maskUnits="userSpaceOnUse" x="0" y="0" width="151" height="159">
<path d="M0 0H150.411V158.458H0V0Z" fill="white"/>
</mask>
<g mask="url(#mask2_98_5263)">
<path d="M52.3493 62.3073C51.4274 62.6042 50.4537 62.7917 49.4542 62.8542V62.8802H49.1227C48.9777 62.8854 48.8327 62.9375 48.6825 62.9375C48.5375 62.9375 48.3925 62.8854 48.2474 62.8802H40.2095C40.6549 65.2083 41.2039 67.526 41.8616 69.8281C46.8957 87.5938 57.9686 104.656 71.9314 116.792H81.4454C81.4454 116.792 58.6056 91.849 52.3493 62.3073ZM150.291 48.3073C150.265 47.0521 150.203 45.8021 150.1 44.5573C150.074 44.2812 150.053 44.0104 150.027 43.7344C150.022 43.7031 150.017 43.6719 150.017 43.6406C150.012 43.599 150.006 43.5677 150.001 43.526C149.965 43.1406 149.918 42.7552 149.872 42.3594C149.841 42.1458 149.815 41.9271 149.784 41.7135C149.758 41.5417 149.732 41.375 149.711 41.2083C149.67 40.9219 149.628 40.6354 149.576 40.3542C149.406 39.3125 149.209 38.2656 148.981 37.2188C148.929 36.974 148.872 36.7292 148.815 36.4844C148.774 36.3229 148.743 36.1615 148.701 36C148.639 35.7292 148.572 35.4583 148.504 35.1875C148.147 33.7604 147.743 32.3646 147.303 31.0208C147.085 30.3646 146.863 29.7188 146.63 29.0885C146.614 29.0365 146.593 28.9792 146.573 28.9271C136.204 1.18229 97.9357 0.0416667 94.6573 0C94.6521 0 94.6521 0.00520833 94.647 0.00520833C94.6314 0.00520833 94.6211 0.00520867 94.6107 0.0104167V0H94.6055C94.4243 0.005208 67.9176 0.458333 51.8469 15.526C51.7692 15.599 51.6915 15.6823 51.6087 15.7552C49.8944 17.3906 48.2992 19.1875 46.875 21.1823C45.4507 23.1667 44.1922 25.349 43.1512 27.7292C46.0049 30.0156 48.1387 33.1979 49.1641 36.8594C49.1434 36.849 49.1227 36.8385 49.0968 36.8333C49.0916 36.8333 49.0657 36.8906 49.0657 36.8958C49.1072 36.9167 49.1538 36.9375 49.1952 36.9583C49.2729 37.2448 49.3454 37.5312 49.4076 37.8229C50.2155 37.875 50.9975 38 51.7537 38.1927C52.6341 34.0625 54.0739 30.3438 55.9177 27C55.9384 27.0313 55.9591 27.0625 55.9798 27.099C56.0627 26.9844 56.1145 26.9167 56.1611 26.8542C56.1197 26.8333 56.0782 26.8073 56.0368 26.7917C67.4878 6.26042 93.8494 0.171875 94.5952 0.00520833C94.2637 0.104167 89.6491 1.54167 84.5529 6.23958C84.4908 6.19792 84.4338 6.15104 84.3768 6.10938C84.3198 6.17188 84.2732 6.23438 84.2214 6.29688C84.2629 6.33854 84.3095 6.38542 84.3509 6.42188C79.5085 10.9583 74.2828 18.4531 71.9004 30.5417C70.9112 35.5625 70.7558 41.4948 71.1649 47.8646H71.0303C71.0251 47.9583 71.0251 48.0521 71.0251 48.1406C71.0821 48.1302 71.1287 48.1198 71.1857 48.1146C73.1589 77.8177 87.3859 116.797 87.3859 116.797H94.6107V116.885H101.841C101.841 116.885 101.856 116.849 101.872 116.797C102.752 114.359 122.811 58.4896 117.326 30.6302C116.772 27.8333 116.068 25.276 115.255 22.9479C115.317 22.9062 115.374 22.8698 115.436 22.8281C115.306 22.6198 115.172 22.4115 115.037 22.2031C115.027 22.2135 115.011 22.224 114.996 22.2344C109.154 6.33333 98.0755 1.29688 95.3151 0.260417C95.7294 0.369793 96.3302 0.53125 97.0708 0.744792C97.0863 0.765625 97.0967 0.791667 97.1122 0.8125C97.1278 0.802083 97.1485 0.786459 97.164 0.776042C101.494 2.05208 110.65 5.26563 119.242 11.5521C119.222 11.5521 119.191 11.5573 119.165 11.5625C119.17 11.6042 119.17 11.651 119.17 11.6875C119.268 11.6979 119.367 11.7083 119.465 11.7188C119.465 11.7135 119.465 11.7135 119.465 11.7083C128.974 18.7292 137.732 29.526 138.39 45.6562C138.933 59.0938 134.857 72.375 129.513 83.75C129.943 83.6771 130.367 83.6302 130.802 83.599C130.807 83.599 130.807 83.6042 130.807 83.6042C130.807 83.599 130.807 83.599 130.813 83.599C131.108 83.5729 131.403 83.5521 131.703 83.5521C135.111 83.5521 138.172 84.9583 140.42 87.2292C140.43 87.2396 140.446 87.25 140.456 87.2656C146.873 74.8542 150.576 61.3073 150.291 48.3073ZM120.33 111.646C120.221 111.646 120.118 111.677 120.014 111.677C119.905 111.677 119.802 111.646 119.698 111.646H119.46V111.625C117.357 111.484 115.451 110.604 114.001 109.229C110.723 113.594 108.315 116.292 107.859 116.797C107.812 116.849 107.776 116.885 107.776 116.885H117.29C119.196 115.229 121.05 113.474 122.847 111.646H120.33ZM16.8673 48.5521C16.7482 48.5729 16.6342 48.5938 16.5203 48.6198C16.2354 49.1927 15.9558 49.7656 15.6243 50.4427C16.4737 50.724 17.0537 50.401 17.2764 49.7292C17.38 49.4167 17.0175 48.9531 16.8673 48.5521ZM65.8357 20.1927C65.6544 20.6094 65.4835 21.0208 65.297 21.4531C65.5663 21.5781 65.758 21.6719 65.96 21.7656C66.1775 21.5417 66.3795 21.3333 66.5866 21.1302C66.3846 20.8802 66.1826 20.6198 65.8357 20.1927ZM66.5918 21.1354L66.6022 21.1562V21.1406C66.6022 21.1406 66.597 21.1354 66.5918 21.1354ZM66.5193 20.7865C66.5193 20.7917 66.5245 20.7917 66.5245 20.7969C66.5245 20.7917 66.5245 20.7865 66.5245 20.7865C66.5193 20.7865 66.5193 20.7865 66.5193 20.7865ZM66.5245 20.7969C66.5555 20.9219 66.5814 21.0313 66.6022 21.1406C66.742 21.1979 66.8767 21.2552 67.0165 21.3177C66.8559 21.1458 66.6902 20.9688 66.5245 20.7969ZM66.4313 20.3385C66.4675 20.5156 66.4986 20.6562 66.5245 20.7865C66.9647 20.5417 67.4049 20.2917 67.8607 20.0417C67.4205 20.1354 66.9336 20.2344 66.4313 20.3385ZM107.455 6.51562C107.201 6.46354 106.839 6.28125 106.725 6.38021C106.502 6.57813 106.419 6.9375 106.279 7.23438C106.362 7.30729 106.44 7.375 106.523 7.44792C106.859 7.24479 107.191 7.03646 107.522 6.82812C107.501 6.72917 107.476 6.61979 107.455 6.51562ZM70.0773 22.8177C69.663 23.2031 69.3885 23.4531 69.1192 23.6979C69.1762 23.7708 69.2331 23.8438 69.2849 23.9167C69.6009 23.9375 69.9168 23.9531 70.4295 23.9792C70.3104 23.5833 70.2327 23.3229 70.0773 22.8177ZM23.5742 40.5729C23.7762 41.0156 23.9212 41.3177 24.1802 41.8802C24.4132 41.2813 24.5375 40.9479 24.7447 40.4219C24.2682 40.4792 23.973 40.5208 23.5742 40.5729ZM58.4088 54.4479C58.357 54.5208 58.3052 54.5833 58.2483 54.651C58.3208 54.9948 58.3985 55.3385 58.4865 55.7604C58.6108 55.6042 58.6522 55.5104 58.7248 55.4688C58.8491 55.3854 58.9992 55.3229 59.4291 55.1094C58.9682 54.8073 58.6885 54.6302 58.4088 54.4479ZM31.5345 44.3438C31.4723 44.4531 31.4102 44.5729 31.348 44.6875C31.8504 44.9427 32.3424 45.1979 32.8396 45.4531C32.907 45.3542 32.9743 45.2552 33.0364 45.1562C32.5392 44.8854 32.042 44.6146 31.5345 44.3438ZM55.5448 51.8594C55.4257 51.8594 55.2962 51.8542 55.1771 51.8542C54.6384 52.3073 54.9751 52.6927 55.6121 53.0573C55.5914 52.6562 55.5707 52.2604 55.5448 51.8594ZM114.607 8.95833C114.4 9.15104 114.188 9.33854 113.944 9.55729C114.115 9.75 114.234 9.89062 114.364 10.0365C114.478 10.0521 114.586 10.0625 114.706 10.0781C114.778 9.73958 114.856 9.40625 114.933 9.06771C114.825 9.03125 114.721 8.98958 114.607 8.95833ZM75.8624 12.526C76.0178 12.0104 76.1576 11.5365 76.2923 11.0677C75.3911 11.6354 75.3445 11.8542 75.8624 12.526ZM41.3644 40.3281C41.3023 40.7604 41.2453 41.1927 41.1883 41.625C41.3075 41.6406 41.4318 41.6615 41.556 41.6719C41.6182 41.2396 41.6752 40.8073 41.7321 40.3802C41.6078 40.3594 41.4835 40.349 41.3644 40.3281ZM35.2065 45.9635C34.9423 46.0833 34.642 46.1562 34.4193 46.3281C34.3209 46.3958 34.3623 46.6615 34.3157 46.9896C34.7714 46.6771 35.0511 46.4844 35.3256 46.2917C35.2842 46.1823 35.2427 46.0729 35.2065 45.9635ZM69.8132 21.099C70.2275 21.3958 70.4917 21.5833 70.8749 21.8542C70.9008 21.4948 70.9163 21.2656 70.9422 20.8698C70.4968 20.9583 70.2379 21.0104 69.8132 21.099ZM17.235 34.9167C17.1988 35.0417 17.1677 35.1615 17.1314 35.2865C17.4629 35.3854 17.7944 35.4844 18.131 35.5781C18.1621 35.4479 18.1983 35.3177 18.2294 35.1927C17.8979 35.099 17.5665 35.0052 17.235 34.9167ZM18.2967 55.8438C17.8979 55.9063 17.5043 55.9635 17.1055 56.026C17.1314 56.1563 17.1573 56.2865 17.178 56.4167C17.5717 56.3281 17.9653 56.2344 18.3641 56.1406C18.3382 56.0417 18.3174 55.9427 18.2967 55.8438ZM22.0257 29.724C21.7874 29.8125 21.5544 29.901 21.3161 29.9896C21.3524 30.099 21.3886 30.2031 21.4249 30.3125C21.6735 30.2344 21.9117 30.1563 22.1552 30.0781C22.1085 29.9583 22.0723 29.8438 22.0257 29.724ZM10.6109 56.1615C10.5799 56.526 10.5488 56.8906 10.5229 57.2552C10.6265 57.2604 10.7301 57.2708 10.8336 57.2812C10.8699 56.9115 10.8958 56.5469 10.9321 56.1823C10.8233 56.1771 10.7145 56.1719 10.6109 56.1615ZM20.7568 40.9115C20.4046 40.9271 20.0473 40.9427 19.6951 40.9635C19.7158 41.0938 19.7365 41.224 19.7572 41.3542C20.0991 41.3125 20.4409 41.2656 20.7775 41.224C20.7723 41.1198 20.762 41.0156 20.7568 40.9115ZM26.9458 46.1615C26.863 46.3594 26.7801 46.5781 26.692 46.7917L27.0028 46.9115C27.0649 46.6719 27.1271 46.4323 27.1944 46.1875C27.1323 46.1823 27.0701 46.1719 26.9458 46.1615ZM67.2754 25.4115C67.3117 25.6875 67.3583 25.9635 67.3946 26.2344C67.4826 26.2292 67.5655 26.224 67.6535 26.2188V25.3646C67.5292 25.3802 67.3997 25.3958 67.2754 25.4115ZM18.9597 52.6615C18.9234 53.0469 18.9027 53.2969 18.882 53.5365C19.1513 53.4323 19.4309 53.3333 19.9333 53.1458C19.4983 52.9271 19.2756 52.8177 18.9597 52.6615ZM28.7844 25.6615C28.7533 25.75 28.7171 25.8385 28.6808 25.9271C29.0123 26.0677 29.3386 26.2135 29.67 26.3646C29.7115 26.2552 29.7529 26.1406 29.7943 26.026L28.7844 25.6615ZM33.7045 35.2031C33.632 35.3333 33.5595 35.474 33.487 35.6042C33.7563 35.7083 34.0205 35.8073 34.2846 35.9115C34.3312 35.8125 34.3726 35.7135 34.4193 35.6146C34.181 35.4792 33.9428 35.3385 33.7045 35.2031ZM63.676 30.2812C63.4584 30.3698 63.2357 30.4583 63.0182 30.5521C63.0648 30.6719 63.1011 30.7969 63.1477 30.9167C63.3808 30.8385 63.6086 30.7604 63.8417 30.6823C63.7847 30.5469 63.7329 30.4115 63.676 30.2812ZM119.543 24.25C119.393 24.4427 119.237 24.6302 119.092 24.8229L119.274 25.0052C119.465 24.8333 119.652 24.6615 119.838 24.4896C119.74 24.4115 119.641 24.3281 119.543 24.25ZM34.8284 42.849C34.5332 42.8958 34.2328 42.9531 33.9428 43C33.9635 43.1042 33.9842 43.2083 34.0101 43.3125C34.3001 43.2292 34.5953 43.1458 34.8854 43.0729C34.8647 42.9948 34.8491 42.9219 34.8284 42.849ZM53.8564 36.599C53.6751 36.7656 53.4939 36.9375 53.3126 37.1094C53.3851 37.1823 53.4628 37.2552 53.5353 37.3281C53.7269 37.1667 53.9186 37.0104 54.1102 36.8542C54.0273 36.7656 53.9393 36.6823 53.8564 36.599ZM52.66 38.5469C52.4839 38.6771 52.3027 38.7969 52.1266 38.9271C52.1887 39.0208 52.2561 39.1198 52.3234 39.2135C52.4995 39.099 52.6807 38.9844 52.8568 38.875C52.7895 38.7656 52.7274 38.6563 52.66 38.5469ZM8.88631 43.1354C8.6895 43.2656 8.48752 43.401 8.28035 43.5312C8.35286 43.6458 8.41501 43.7552 8.47716 43.8698C8.68432 43.7292 8.89149 43.5833 9.09865 43.4427C9.02614 43.3385 8.96399 43.2344 8.88631 43.1354ZM89.1468 154.094C89.0535 154.396 88.9603 154.698 88.8671 154.995C88.9655 155.042 89.0639 155.083 89.1571 155.125C89.2555 154.812 89.3591 154.5 89.4575 154.188C89.3539 154.156 89.2452 154.125 89.1468 154.094ZM47.6415 50.625C47.5534 50.8646 47.4602 51.099 47.3722 51.3333C47.4499 51.375 47.5327 51.4115 47.6104 51.4531C47.7347 51.2292 47.8538 51.0156 47.9781 50.7917C47.8642 50.7344 47.7554 50.6823 47.6415 50.625ZM49.4127 50.4844C49.3609 50.5573 49.304 50.6302 49.247 50.7031C49.4076 50.8333 49.5785 50.9635 49.739 51.0885C49.796 51.0208 49.853 50.9427 49.9151 50.8698C49.7494 50.7396 49.5836 50.6146 49.4127 50.4844ZM0.879425 49.901C0.796559 49.9792 0.708515 50.0573 0.625649 50.1302C0.806917 50.3385 0.988186 50.5417 1.16945 50.75C1.24196 50.6823 1.31447 50.6198 1.38698 50.5469C1.22125 50.3385 1.05033 50.1146 0.879425 49.901ZM45.6268 46.0521C45.3989 46.1094 45.1659 46.1667 44.938 46.2344C44.9173 46.2448 44.9328 46.3542 44.9328 46.4948C45.1762 46.474 45.4041 46.4531 45.6372 46.4375C45.6372 46.3073 45.632 46.1823 45.6268 46.0521ZM16.7119 46.6719C16.6601 46.7552 16.6083 46.8385 16.5565 46.9219C16.7741 47.0573 16.9916 47.1927 17.2039 47.3229C17.2609 47.2344 17.3075 47.1458 17.3541 47.0573C17.1418 46.9323 16.9243 46.7969 16.7119 46.6719ZM104.974 117.25C104.819 117.38 104.663 117.516 104.513 117.651C104.627 117.755 104.741 117.865 104.86 117.964C105.005 117.844 105.15 117.719 105.295 117.599C105.186 117.479 105.078 117.359 104.974 117.25ZM61.5422 20.2396C61.449 20.2865 61.3557 20.3385 61.2677 20.3854C61.3713 20.5938 61.48 20.8021 61.5888 21.0052C61.682 20.9479 61.7804 20.8854 61.8788 20.8229C61.7649 20.6302 61.6561 20.4323 61.5422 20.2396ZM36.3511 24.4062C36.3407 24.4062 36.3303 24.401 36.3252 24.401C36.32 24.401 36.3096 24.3958 36.3044 24.3958C36.1335 24.526 35.9626 24.6458 35.7917 24.776C35.8746 24.875 35.9574 24.9792 36.0403 25.0729C36.2009 24.9219 36.3614 24.776 36.5271 24.625C36.465 24.5521 36.408 24.4792 36.3511 24.4062ZM39.9246 28.9375C39.8625 29.0365 39.8055 29.1302 39.7434 29.2292C39.9557 29.3177 40.1629 29.4115 40.3752 29.5C40.4218 29.4115 40.4581 29.3281 40.4995 29.2344C40.3079 29.1406 40.1163 29.0365 39.9246 28.9375ZM64.0178 85.5938C64.0489 85.7813 64.0696 85.9688 64.1058 86.1562C64.111 86.1719 64.2198 86.1667 64.3441 86.1771V85.5833C64.2353 85.5885 64.1266 85.5885 64.0178 85.5938ZM29.0485 28.5521C28.7999 28.5781 28.5565 28.6042 28.3131 28.6302C28.3183 28.7448 28.3286 28.8646 28.3338 28.9792C28.5876 28.9167 28.8414 28.8594 29.0951 28.8021C29.0796 28.7188 29.0641 28.6354 29.0485 28.5521ZM65.7942 45.1927C65.701 45.4271 65.613 45.6615 65.5197 45.8906C65.6647 45.901 65.8098 45.9062 65.9548 45.9115C65.903 45.6667 65.846 45.4323 65.7942 45.1927ZM19.1979 45.9062C19.115 45.9427 19.0373 45.9792 18.9545 46.0104C19.027 46.1927 19.0995 46.375 19.172 46.5573C19.2756 46.5156 19.3792 46.4635 19.4827 46.4219C19.3895 46.25 19.2911 46.0781 19.1979 45.9062ZM0.547963 44.5781C0.604933 44.3333 0.672261 44.0833 0.729231 43.8333C0.656723 43.8021 0.579038 43.7708 0.50653 43.7396C0.50653 43.7396 0.50653 43.7396 0.50653 43.7448C0.50653 43.7448 0.50653 43.7448 0.501351 43.7448C0.418485 44.0729 0.340799 44.4062 0.27865 44.7448L0.273471 44.75C0.299366 44.7552 0.325262 44.7604 0.345978 44.7604C0.589396 45.1875 0.589396 45.1875 1.06587 44.5781H0.547963ZM30.4365 44.5729C30.3174 44.7135 30.2086 44.8594 30.0895 45C30.1724 45.0781 30.2501 45.1563 30.3329 45.2344C30.4728 45.1198 30.6126 45 30.7525 44.8802C30.6489 44.7813 30.5453 44.6771 30.4365 44.5729ZM14.573 48.4271C14.5419 48.526 14.5108 48.6354 14.4849 48.7396C14.7283 48.7969 14.9666 48.8646 15.21 48.9219C15.2307 48.8438 15.2566 48.7708 15.2773 48.6927C15.0391 48.6042 14.806 48.5156 14.573 48.4271ZM59.3359 26.1198C59.3204 26.2083 59.2996 26.2917 59.2789 26.3802C59.5638 26.4479 59.8486 26.5104 60.1283 26.5729C60.149 26.474 60.1697 26.3802 60.1904 26.2865C59.9056 26.2292 59.6207 26.1771 59.3359 26.1198ZM61.1641 47.3802C61.1486 47.474 61.1227 47.5625 61.102 47.6562C61.3868 47.7083 61.6768 47.7656 61.9565 47.8229C61.9772 47.7396 61.9928 47.6562 62.0135 47.5729C61.7286 47.5052 61.449 47.4427 61.1641 47.3802ZM65.3592 17.3438C65.1624 17.5885 64.9656 17.8229 64.7739 18.0625C64.8361 18.1198 64.9034 18.1667 64.9656 18.224C65.1572 17.974 65.3488 17.7292 65.5353 17.4844C65.4783 17.4375 65.4161 17.3906 65.3592 17.3438ZM65.354 64.401C65.1986 64.4688 65.0484 64.5365 64.8879 64.6042C64.9345 64.7031 64.9604 64.7656 65.0122 64.8958C65.1727 64.776 65.3074 64.6719 65.442 64.5625C65.411 64.5104 65.3851 64.4531 65.354 64.401ZM34.6471 59.3125C34.4193 59.3958 34.1914 59.4896 33.9635 59.5781C33.9946 59.6563 34.0256 59.7344 34.0515 59.8177C34.2846 59.7344 34.5125 59.651 34.7404 59.5677C34.7145 59.4792 34.6782 59.3958 34.6471 59.3125ZM68.881 25.6302C68.881 25.6875 68.8861 25.75 68.8861 25.8073H69.4248C69.4248 25.7344 69.4299 25.6563 69.4351 25.5833C69.2487 25.599 69.0674 25.6146 68.881 25.6302ZM25.6407 53.2396C25.5889 53.25 25.5423 53.2604 25.4905 53.2656V53.7865C25.6044 53.7552 25.6614 53.7396 25.7909 53.7031C25.7339 53.5469 25.6873 53.3906 25.6407 53.2396ZM64.748 88.0365C64.7014 88.2396 64.6652 88.4479 64.6237 88.6562C64.7118 88.6719 64.805 88.6927 64.8931 88.7135C64.9552 88.5104 65.0018 88.3125 65.0536 88.1094C64.9552 88.0833 64.8516 88.0625 64.748 88.0365ZM52.0178 48.375V48.9115C52.0955 48.9167 52.1784 48.9271 52.2612 48.9323C52.2871 48.75 52.3079 48.5729 52.3337 48.3958C52.2302 48.3906 52.1214 48.3802 52.0178 48.375ZM76.3596 12.3802C76.603 12.6615 76.6548 12.7865 76.7376 12.8073C76.8568 12.8333 76.9863 12.7917 77.1157 12.776C77.1209 12.7188 77.1261 12.6563 77.1313 12.599C76.9604 12.5521 76.7894 12.5052 76.3596 12.3802ZM21.3783 31.5573C21.2695 31.6458 21.1297 31.7083 21.0675 31.8177C21.0002 31.9375 21.0106 32.1042 20.9847 32.2552C21.0468 32.276 21.0986 32.2865 21.1556 32.3073C21.2747 32.0938 21.3938 31.8802 21.5078 31.6719C21.4663 31.6354 21.4197 31.5938 21.3783 31.5573ZM117.616 27.8958C117.44 28.0052 117.259 28.1094 117.083 28.2188C117.135 28.2865 117.176 28.3594 117.223 28.4323C117.394 28.3125 117.564 28.1979 117.735 28.0833C117.694 28.0208 117.658 27.9583 117.616 27.8958ZM74.6815 15.6094C74.5158 15.7344 74.3501 15.8542 74.1895 15.9792C74.2206 16.0313 74.262 16.0781 74.2983 16.125C74.464 16.026 74.6401 15.9115 74.8058 15.8021C74.7644 15.7396 74.723 15.6771 74.6815 15.6094ZM53.4524 34.3438C53.2608 34.4323 53.0692 34.5208 52.8776 34.6094C52.8931 34.6458 52.9086 34.6927 52.9242 34.7344C53.1158 34.6979 53.3074 34.651 53.499 34.6146C53.4783 34.526 53.468 34.4375 53.4524 34.3438ZM68.4874 17.2188C68.2957 17.2552 68.1041 17.2969 67.9073 17.3385C67.9176 17.4167 67.928 17.4896 67.9384 17.5677C68.1352 17.5469 68.332 17.5313 68.5236 17.5104C68.5132 17.4167 68.5029 17.3177 68.4874 17.2188ZM69.2228 29.9427C69.1451 30.0573 69.0674 30.1771 68.9845 30.2917C69.0622 30.3385 69.1347 30.3854 69.2124 30.4375C69.2849 30.3177 69.3523 30.1979 69.4196 30.0885C69.3574 30.0365 69.2849 29.9948 69.2228 29.9427ZM18.9545 30.7188L18.8975 30.7812C18.8975 30.7812 18.8975 30.7813 18.8923 30.7865C18.8768 30.8021 18.8612 30.8177 18.8457 30.8333C18.8095 30.8854 18.7732 30.9375 18.7369 30.9896L18.5868 31.1979C18.6748 31.2812 18.7628 31.3594 18.8509 31.4427C18.9804 31.2865 19.1047 31.1302 19.2341 30.974C19.1409 30.8854 19.0477 30.8021 18.9545 30.7188ZM22.8388 34.3333C22.7559 34.4323 22.6679 34.5313 22.5798 34.6302C22.6265 34.6719 22.6627 34.7083 22.7041 34.7448C22.7974 34.6562 22.8906 34.5625 22.989 34.474C22.9372 34.4271 22.8854 34.3802 22.8388 34.3333ZM15.4016 36.1458C15.267 36.1875 15.1271 36.2292 14.9925 36.2708C15.0235 36.3542 15.0546 36.4375 15.0857 36.5156C15.21 36.4479 15.3446 36.3802 15.4689 36.3073C15.4482 36.2604 15.4275 36.2031 15.4016 36.1458ZM31.7002 36.776C31.6692 36.8438 31.6277 36.9115 31.5915 36.9792C31.7313 37.0677 31.8711 37.1562 32.011 37.2448C32.0576 37.1823 32.1146 37.1146 32.1612 37.0469C32.011 36.9583 31.8608 36.8646 31.7002 36.776ZM46.9164 36.8229C46.8491 36.8385 46.7818 36.849 46.7093 36.8594C46.7196 37.0052 46.7248 37.1458 46.73 37.2969C46.8232 37.2865 46.9216 37.276 47.0148 37.2656C46.9889 37.1198 46.9527 36.974 46.9164 36.8229ZM27.5621 37.2865C27.3757 37.3594 27.1789 37.4323 26.9872 37.5104C27.0131 37.5781 27.039 37.6458 27.0649 37.7083C27.2617 37.6354 27.4534 37.5573 27.6398 37.4844C27.6191 37.4167 27.588 37.349 27.5621 37.2865ZM51.7537 38.2292C51.7485 38.2292 51.7485 38.2292 51.7485 38.2292L51.474 38.2604C51.5103 38.4531 51.5517 38.6458 51.5828 38.8385C51.6035 38.8385 51.619 38.8333 51.6346 38.8333C51.6967 38.8229 51.7589 38.8073 51.8262 38.7969C51.8003 38.6146 51.7744 38.4219 51.7537 38.2292ZM124.738 38.8177C124.665 38.9635 124.593 39.1146 124.52 39.2656C124.618 39.3021 124.717 39.3333 124.81 39.375C124.846 39.2083 124.883 39.0417 124.924 38.875C124.857 38.8542 124.8 38.8385 124.738 38.8177ZM69.026 42.1875C68.9431 42.1875 68.8602 42.1875 68.7774 42.1927C68.8136 42.3646 68.8447 42.5417 68.8706 42.7188C68.9379 42.7083 69.0001 42.7031 69.0622 42.6979C69.0467 42.526 69.0363 42.3594 69.026 42.1875ZM4.8259 44.7188C4.71196 44.8594 4.59284 44.9948 4.4789 45.1354C4.54105 45.1927 4.6032 45.2552 4.66017 45.3125C4.77411 45.1563 4.88287 45 4.99681 44.8438C4.93984 44.8021 4.88287 44.7604 4.8259 44.7188ZM4.77411 52.4062C4.77411 52.474 4.76893 52.5469 4.76375 52.6146C4.93466 52.625 5.10039 52.6354 5.26612 52.6458C5.2713 52.5729 5.27648 52.5052 5.28166 52.4323C5.11075 52.4271 4.94502 52.4167 4.77411 52.4062ZM10.2225 57.6042C10.1396 57.6354 10.0568 57.6667 9.97392 57.6979C10.0464 57.849 10.1241 58 10.1966 58.1562C10.2639 58.125 10.3313 58.0938 10.3934 58.0625C10.3365 57.9115 10.2743 57.7552 10.2225 57.6042ZM127.529 65.2708C127.431 65.2969 127.343 65.375 127.249 65.4323C127.312 65.4844 127.363 65.5729 127.436 65.5938C127.503 65.6094 127.586 65.5469 127.695 65.5C127.622 65.401 127.555 65.2708 127.529 65.2708ZM118.181 87.3073C118.036 87.4062 117.896 87.5052 117.751 87.6042C117.798 87.6771 117.844 87.7448 117.896 87.8125C118.036 87.7135 118.181 87.6094 118.321 87.5052C118.274 87.4427 118.227 87.3698 118.181 87.3073ZM72.2836 98.5417C72.18 98.5104 72.0661 98.5104 71.9625 98.5C71.9418 98.5833 71.9211 98.6667 71.9004 98.7448C72.0247 98.7552 72.1438 98.7708 72.2629 98.7812C72.2733 98.6979 72.2992 98.5469 72.2836 98.5417ZM70.849 100.214C70.7817 100.391 70.7195 100.568 70.6522 100.75C70.7144 100.771 70.7765 100.792 70.8387 100.818C70.906 100.635 70.9681 100.458 71.0251 100.276C70.9681 100.255 70.9112 100.234 70.849 100.214ZM128.922 23.2396C128.891 23.3802 128.855 23.526 128.819 23.6771C128.891 23.6927 128.958 23.7135 129.026 23.7344C129.088 23.6146 129.155 23.4948 129.217 23.3698C129.119 23.3281 129.021 23.2812 128.922 23.2396ZM58.1499 26.6042C58.0515 26.8021 57.9582 27.0156 57.865 27.2188C57.922 27.2448 57.979 27.2708 58.0411 27.3021C58.1343 27.0885 58.2224 26.8854 58.3156 26.6771C58.2638 26.651 58.2068 26.6302 58.1499 26.6042ZM43.1512 42.6198C43.1564 42.6719 43.1616 42.724 43.1616 42.7812H43.5914C43.5966 42.7083 43.5966 42.6354 43.6018 42.5677C43.4464 42.5833 43.3014 42.599 43.1512 42.6198ZM81.4662 5.79688C81.4506 5.84896 81.4351 5.90104 81.4144 5.95312C81.5283 6 81.6423 6.05208 81.751 6.10417C81.7769 6.02083 81.7976 5.94271 81.8183 5.86458C81.6992 5.83854 81.5801 5.81771 81.4662 5.79688ZM12.3408 38.4948C12.2579 38.5365 12.175 38.5677 12.0973 38.6042C12.1699 38.7292 12.2475 38.8594 12.32 38.9844C12.3977 38.9427 12.5376 38.8698 12.5376 38.849C12.4858 38.724 12.4133 38.6146 12.3408 38.4948ZM133.423 34.4167C133.444 34.5365 133.469 34.6563 133.49 34.776C133.547 34.776 133.599 34.7708 133.651 34.7656C133.661 34.6406 133.666 34.5208 133.671 34.3906C133.589 34.401 133.506 34.4115 133.423 34.4167ZM62.9043 45.0208C62.7852 45.1615 62.666 45.3125 62.5417 45.4531L62.6919 45.5729C62.8059 45.4219 62.925 45.276 63.0441 45.1302C62.9975 45.0938 62.9509 45.0573 62.9043 45.0208ZM4.0076 48.4896C3.97135 48.5938 3.94027 48.6979 3.90402 48.7969C3.96617 48.8281 4.03867 48.8594 4.10082 48.8802C4.14226 48.7865 4.18887 48.6875 4.2303 48.5833C4.15779 48.5521 4.08011 48.5208 4.0076 48.4896ZM47.5172 33.7344C47.424 33.7813 47.31 33.8229 47.2323 33.8958C47.2116 33.9167 47.2997 34.0469 47.3359 34.1302C47.4395 34.0573 47.5483 33.9896 47.657 33.9219C47.6104 33.8542 47.569 33.7969 47.5172 33.7344ZM43.0321 33.8906C42.9907 34.0104 42.944 34.1198 42.9026 34.2396C42.9855 34.2708 43.0632 34.2969 43.1409 34.3229C43.1616 34.1927 43.1823 34.0677 43.1978 33.9375C43.1409 33.9219 43.0891 33.9062 43.0321 33.8906ZM6.33301 44.7708C6.20354 44.8385 6.07406 44.901 5.94458 44.9688C5.97566 45.0208 6.00673 45.0781 6.03263 45.1354C6.15692 45.0625 6.2864 44.9896 6.40552 44.9167C6.37963 44.8698 6.35891 44.8177 6.33301 44.7708ZM21.5285 32.4635C21.5233 32.526 21.5181 32.5885 21.5129 32.6458C21.6476 32.6562 21.7719 32.6615 21.9066 32.6719C21.9066 32.6146 21.9117 32.5521 21.9169 32.5C21.7823 32.4896 21.658 32.474 21.5285 32.4635ZM117.637 73.1458C117.59 73.1771 117.549 73.2083 117.502 73.2344C117.564 73.3333 117.621 73.4375 117.678 73.5365C117.73 73.5052 117.782 73.4688 117.834 73.4427C117.766 73.3438 117.699 73.2448 117.637 73.1458ZM42.2708 51.7865C42.219 51.7917 42.1568 51.7969 42.1102 51.8021C42.1206 51.9271 42.1361 52.0625 42.1465 52.1875C42.1983 52.1823 42.2449 52.1771 42.2967 52.1771C42.2915 52.0469 42.2811 51.9167 42.2708 51.7865ZM60.8378 36.8281C60.8119 36.8854 60.7653 36.9844 60.7757 36.9948C60.8637 37.0573 60.9621 37.1042 61.0553 37.1562C61.0864 37.0885 61.1175 37.026 61.1486 36.9583C61.045 36.9167 60.9414 36.875 60.8378 36.8281ZM62.2465 53.5885C62.4589 53.6563 62.6609 53.7188 62.8732 53.7812C62.8887 53.7083 62.8991 53.6302 62.9146 53.5573C62.6919 53.5677 62.4692 53.5781 62.2465 53.5885ZM62.1792 53.5938C62.1533 53.4792 62.1274 53.3594 62.1067 53.2344C62.0342 53.224 61.972 53.2188 61.9047 53.2083C61.8426 53.4583 61.7752 53.7083 61.7131 53.9583C61.7804 53.9844 61.8529 54 61.9203 54.026C62.0083 53.8854 62.0963 53.7396 62.1844 53.5938H62.1792ZM62.1999 53.5729L62.1844 53.5938C62.2051 53.5938 62.2258 53.5938 62.2465 53.5885C62.231 53.5833 62.2103 53.5781 62.1999 53.5729ZM69.6941 53.625C69.6889 53.6719 69.6785 53.7188 69.6734 53.7656C69.8132 53.8073 69.9582 53.8438 70.1032 53.8854C70.1136 53.8021 70.1239 53.7135 70.1343 53.625H69.6941ZM59.0044 53.8333C58.9371 53.9167 58.875 53.9896 58.8128 54.0625C58.8957 54.151 58.9785 54.2344 59.0614 54.3177C59.1494 54.224 59.2375 54.125 59.3255 54.026C59.2168 53.9635 59.108 53.901 59.0044 53.8333ZM144.905 97.3802C144.869 97.5469 144.822 97.7188 144.786 97.8854C144.832 97.901 144.884 97.9219 144.931 97.9375C145.008 97.7865 145.086 97.625 145.164 97.474C145.076 97.4427 144.993 97.4115 144.905 97.3802ZM123.981 84.1667C123.971 84.2135 123.955 84.2552 123.94 84.3021C124.095 84.3698 124.246 84.4323 124.406 84.5C124.427 84.4427 124.447 84.3854 124.473 84.3229C124.313 84.2708 124.152 84.2188 123.981 84.1667ZM66.1619 23.1458C66.1205 23.2083 66.0843 23.276 66.0428 23.3438C66.1775 23.4115 66.307 23.474 66.4364 23.5417C66.4675 23.4948 66.4986 23.4375 66.5245 23.3906C66.4053 23.3073 66.2811 23.2292 66.1619 23.1458ZM19.1202 42.3646C19.1098 42.4323 19.0995 42.4844 19.0891 42.5417C19.2238 42.5677 19.3533 42.5885 19.4879 42.6146C19.4983 42.5521 19.5086 42.4948 19.5138 42.4375C19.3843 42.4115 19.2549 42.3906 19.1202 42.3646ZM70.7713 41.026C70.6936 41.1563 70.616 41.2969 70.5383 41.4219C70.6056 41.474 70.6677 41.5156 70.7351 41.5625C70.8024 41.4115 70.8697 41.2604 70.9371 41.1094C70.8853 41.0833 70.8283 41.0573 70.7713 41.026ZM66.4002 86.9271C66.3173 87.0469 66.2396 87.1771 66.1568 87.2969C66.2293 87.3385 66.3018 87.3698 66.3743 87.4115C66.4364 87.2812 66.4986 87.151 66.5555 87.0208C66.5038 86.9844 66.452 86.9531 66.4002 86.9271ZM59.7968 61.7708C59.7554 61.8021 59.7088 61.8281 59.6674 61.8646C59.7554 62 59.8486 62.1302 59.9418 62.2656C59.9833 62.2344 60.0299 62.2031 60.0713 62.1719C59.9833 62.0365 59.89 61.9063 59.7968 61.7708ZM120.832 28.5885C120.781 28.7552 120.739 28.9271 120.693 29.0938C120.744 29.1094 120.791 29.125 120.843 29.1406C120.9 28.9792 120.957 28.8073 121.009 28.6406C120.946 28.625 120.889 28.6094 120.832 28.5885ZM124.22 19.9844C124.106 20.0833 123.997 20.1771 123.888 20.276C123.924 20.3125 123.961 20.3542 123.997 20.3958C124.106 20.2969 124.214 20.1979 124.328 20.1094C124.287 20.0625 124.251 20.026 124.22 19.9844ZM128.472 27.9062C128.353 28.0156 128.223 28.1042 128.233 28.125C128.28 28.224 128.353 28.3229 128.446 28.3802C128.472 28.3958 128.643 28.2812 128.643 28.2396C128.627 28.1354 128.549 28.0417 128.472 27.9062ZM63.676 23.5625V23.7448H64.0955V23.5625H63.676ZM80.508 98.4062C80.4459 98.4792 80.3889 98.5417 80.3268 98.6094C80.4148 98.6406 80.4977 98.6927 80.5857 98.6927C80.6272 98.6927 80.6738 98.5885 80.7152 98.5312C80.6427 98.4896 80.5754 98.4531 80.508 98.4062ZM68.6997 99C68.6479 99.0625 68.5961 99.125 68.5443 99.1875C68.6686 99.2656 68.7877 99.3385 68.912 99.4167C68.9431 99.3646 68.9845 99.3229 69.0208 99.276C68.912 99.1823 68.8033 99.0938 68.6997 99ZM73.8581 99.8177C73.7648 99.9583 73.6716 100.094 73.5784 100.234C73.625 100.266 73.6716 100.302 73.7182 100.333C73.8166 100.198 73.9099 100.057 74.0083 99.9167C73.9513 99.8854 73.9047 99.8542 73.8581 99.8177ZM123.717 20.5885H123.562C123.557 20.6719 123.552 20.7552 123.552 20.8385C123.629 20.8281 123.702 20.8229 123.774 20.8125C123.753 20.7396 123.733 20.6615 123.717 20.5885ZM130.74 110.219C130.626 110.214 130.512 110.203 130.388 110.198C130.398 110.276 130.409 110.349 130.414 110.427C130.528 110.406 130.637 110.391 130.75 110.365C130.75 110.312 130.745 110.266 130.74 110.219ZM104.653 125.807C104.612 125.792 104.508 125.859 104.508 125.885C104.513 125.958 104.555 126.031 104.586 126.109C104.653 126.068 104.725 126.036 104.855 125.969C104.762 125.891 104.71 125.823 104.653 125.807ZM124.893 17.9688C124.898 18.1094 124.908 18.2448 124.914 18.375C124.971 18.375 125.022 18.375 125.079 18.375V17.9635C125.012 17.9688 124.955 17.9688 124.893 17.9688ZM32.8189 44.2344C32.7464 44.2865 32.6739 44.3177 32.6635 44.3646C32.648 44.4062 32.705 44.4635 32.7309 44.5208C32.793 44.4688 32.8552 44.4219 32.9173 44.3698C32.8862 44.3281 32.85 44.2813 32.8189 44.2344ZM65.2763 16.6094C65.1986 16.625 65.095 16.6406 65.0588 16.6979C65.0381 16.7396 65.1054 16.8385 65.152 16.9635C65.2401 16.8646 65.3074 16.8125 65.3436 16.7448C65.354 16.7188 65.2918 16.6042 65.2763 16.6094ZM100.214 156.448C100.168 156.474 100.126 156.505 100.08 156.536C100.142 156.63 100.214 156.729 100.277 156.823C100.318 156.802 100.365 156.771 100.401 156.745C100.339 156.646 100.277 156.542 100.214 156.448ZM101.509 2.54688C101.426 2.65104 101.359 2.71354 101.338 2.78646C101.328 2.81771 101.406 2.91667 101.421 2.91146C101.494 2.89583 101.597 2.85938 101.618 2.80208C101.639 2.75521 101.566 2.66667 101.509 2.54688ZM65.7839 45.151C65.789 45.1667 65.789 45.1771 65.7942 45.1927C65.7942 45.1875 65.7994 45.1771 65.8046 45.1719C65.8098 45.151 65.8201 45.1354 65.8305 45.1146C65.8149 45.1302 65.7994 45.1406 65.7839 45.151ZM65.9496 44.8385C65.9082 44.9323 65.8667 45.0208 65.8253 45.1146C65.8978 45.0469 65.9755 44.974 66.048 44.9062C66.0117 44.8854 65.9807 44.8594 65.9496 44.8385ZM58.5901 44.9271C58.471 45 58.3467 45.0677 58.2224 45.1406C58.2638 45.2083 58.3052 45.276 58.3415 45.3385C58.4554 45.2448 58.5694 45.1458 58.6781 45.0521C58.6522 45.0104 58.6212 44.9688 58.5901 44.9271ZM55.1667 45.1146C55.1149 45.1094 55.0165 45.2083 55.0217 45.224C55.058 45.3021 55.1149 45.3698 55.1719 45.4375C55.2185 45.401 55.2703 45.3594 55.4516 45.2135C55.3428 45.1719 55.2548 45.1198 55.1667 45.1146ZM13.1487 36.0104C13.1073 35.9948 13.0399 36.0313 12.9882 36.0521C13.0244 36.1146 13.0555 36.1823 13.0917 36.2448C13.1332 36.2083 13.1798 36.1823 13.2212 36.151C13.2005 36.099 13.185 36.0156 13.1487 36.0104ZM16.7534 47.6302C16.6601 47.6771 16.5721 47.724 16.4737 47.7656C16.4892 47.8177 16.4944 47.8646 16.5048 47.9167C16.6291 47.901 16.7482 47.8906 16.8673 47.875C16.831 47.7969 16.7948 47.7135 16.7534 47.6302ZM21.5078 47.7656C21.4353 47.875 21.3628 47.9896 21.2177 48.2031C21.4922 48.1771 21.601 48.1771 21.8548 48.1562C21.6839 47.9688 21.5958 47.8698 21.5078 47.7656ZM0.465097 48.9844C0.38741 49.0469 0.304545 49.099 0.22168 49.151C0.247576 49.1927 0.27865 49.2292 0.304545 49.276C0.382232 49.2188 0.465097 49.1615 0.542784 49.1042C0.516887 49.0625 0.496172 49.026 0.465097 48.9844ZM9.35761 33.4948C9.32653 33.5 9.29546 33.5156 9.26438 33.526C9.23331 33.5417 9.20223 33.5521 9.17116 33.5677C9.19705 33.6302 9.22813 33.6979 9.24885 33.7604C9.32135 33.724 9.39904 33.6771 9.47155 33.6354C9.43529 33.5833 9.39904 33.5365 9.35761 33.4948ZM26.4124 49.6927C26.3606 49.6771 26.2363 49.7604 26.2259 49.8177C26.2156 49.8854 26.2829 49.9688 26.3347 50.0781C26.4279 50 26.5367 49.9479 26.5522 49.8854C26.5626 49.8333 26.4745 49.7188 26.4124 49.6927ZM69.8028 11.6927C69.7303 11.7917 69.6578 11.8906 69.5905 11.9896C69.6319 12.0208 69.6682 12.0521 69.7148 12.0833C69.7873 11.9896 69.865 11.8958 69.9375 11.7969C69.8909 11.7656 69.8494 11.7292 69.8028 11.6927ZM12.7706 33.1667C12.7655 33.224 12.7551 33.2708 12.7396 33.3229C12.8224 33.3542 12.9001 33.3906 12.9778 33.4167C12.9985 33.3385 13.0192 33.2656 13.0348 33.1875C12.9467 33.1823 12.8639 33.1771 12.7706 33.1667ZM69.461 35.3073C69.3315 35.3229 69.2021 35.3438 69.0726 35.3646C69.0829 35.4323 69.0933 35.5052 69.1088 35.5781C69.2331 35.5573 69.3678 35.5365 69.4921 35.5156C69.4817 35.4427 69.4714 35.375 69.461 35.3073ZM53.2712 35.3385C53.1935 35.349 53.0744 35.3802 53.0536 35.4271C53.0329 35.4896 53.0951 35.5833 53.2038 35.9115C53.2919 35.6667 53.3385 35.5833 53.3489 35.4896C53.354 35.4375 53.2919 35.3333 53.2712 35.3385ZM58.01 32.2812C57.9997 32.2812 57.9531 32.375 57.9013 32.4531C57.9841 32.4896 58.0618 32.5312 58.1395 32.5417C58.1602 32.5469 58.2276 32.4219 58.2224 32.4115C58.1551 32.3646 58.0877 32.3125 58.01 32.2812ZM126.804 31.5781C126.742 31.599 126.69 31.6198 126.638 31.6458C126.659 31.6979 126.68 31.7552 126.706 31.8073C126.752 31.7813 126.809 31.7552 126.861 31.7344C126.84 31.6771 126.825 31.6302 126.804 31.5781ZM55.5344 40.8542C55.4982 40.8333 55.4308 40.8854 55.3739 40.901C55.4101 40.9688 55.4464 41.0313 55.4723 41.0938C55.5241 41.0677 55.5655 41.0417 55.6173 41.0104C55.5862 40.9531 55.5759 40.875 55.5344 40.8542ZM112.644 10.1302C112.577 10.2396 112.51 10.3542 112.448 10.4635C112.484 10.4948 112.53 10.526 112.572 10.5573C112.66 10.4635 112.748 10.3698 112.836 10.2708C112.769 10.2188 112.706 10.1771 112.644 10.1302ZM45.3368 52.375C45.2798 52.474 45.228 52.5729 45.1762 52.6667C45.2125 52.6927 45.2539 52.7188 45.2902 52.7448C45.3575 52.6667 45.43 52.5938 45.4922 52.5156C45.4352 52.4688 45.3834 52.4271 45.3368 52.375ZM2.08098 52.5677C2.00329 52.6042 1.93078 52.6406 1.85827 52.6823C1.91524 52.7656 1.97221 52.849 2.03436 52.9323C2.07062 52.9115 2.11723 52.8906 2.15348 52.875C2.13276 52.7708 2.10687 52.6719 2.08098 52.5677ZM18.5091 53.8281C18.5557 53.8646 18.6023 53.9062 18.6541 53.9479C18.7162 53.8281 18.7732 53.7135 18.8302 53.5938C18.7266 53.6719 18.6178 53.7448 18.5091 53.8281ZM18.8561 53.5469C18.8457 53.5625 18.8354 53.5781 18.8302 53.5938C18.8457 53.5833 18.8612 53.5729 18.8768 53.5677C18.8768 53.5573 18.8768 53.5469 18.882 53.5365C18.8716 53.5417 18.8612 53.5417 18.8561 53.5469ZM17.9187 54.6927C17.8772 54.7135 17.8306 54.7396 17.7944 54.776C17.7892 54.7865 17.8151 54.849 17.8306 54.849C17.8772 54.8542 17.9342 54.8438 17.986 54.8385C17.9601 54.7865 17.9394 54.7396 17.9187 54.6927ZM14.1224 55.6875C14.0499 55.7083 13.9774 55.724 13.8997 55.7396V55.9115H14.1431C14.1379 55.8333 14.1327 55.7604 14.1224 55.6875ZM47.4706 57.2865C47.455 57.3385 47.4395 57.3906 47.424 57.4479C47.5483 57.4948 47.6777 57.5417 47.802 57.5885C47.8279 57.5156 47.8538 57.4427 47.8745 57.3698C47.7399 57.3385 47.6052 57.3073 47.4706 57.2865ZM54.0739 38.75C54.0429 38.8438 54.0014 38.9375 53.9703 39.0312C53.96 39.0521 53.9548 39.0677 53.9444 39.0885C53.9962 39.1198 54.048 39.1458 54.0998 39.1667C54.1102 39.151 54.1257 39.1354 54.1413 39.1146C54.193 39.0365 54.2448 38.9583 54.2966 38.8802C54.2241 38.8333 54.1516 38.7969 54.0739 38.75ZM17.525 40.9531C17.4836 40.974 17.4422 41.0052 17.4059 41.0365C17.4525 41.1354 17.5043 41.2292 17.5458 41.3281C17.6183 41.2969 17.6908 41.2656 17.7633 41.2292C17.6804 41.1406 17.6079 41.0469 17.525 40.9531ZM33.3524 58.5938C33.2488 58.6146 33.14 58.6354 33.0364 58.6562C33.0727 58.7292 33.1038 58.8073 33.14 58.8854C33.2281 58.8281 33.3161 58.776 33.4042 58.7188C33.3886 58.6771 33.3679 58.6354 33.3524 58.5938ZM40.5358 58.8385C40.4529 58.849 40.3752 58.8958 40.1629 58.9792C40.4581 59.0781 40.5461 59.1354 40.6083 59.1198C40.6549 59.1094 40.6808 58.9792 40.6808 58.9062C40.686 58.8802 40.5824 58.8281 40.5358 58.8385ZM49.537 58.9219C49.4645 59.0104 49.392 59.099 49.3195 59.1875C49.3558 59.2188 49.392 59.25 49.4283 59.2812C49.5008 59.1927 49.5733 59.1042 49.6458 59.0104C49.6095 58.9792 49.5733 58.9531 49.537 58.9219ZM59.89 59.026C59.8434 59.0208 59.7865 59.0625 59.7347 59.0885C59.7709 59.1458 59.802 59.2031 59.8383 59.2604C59.8797 59.224 59.9211 59.1927 59.9626 59.151C59.9418 59.1094 59.9159 59.026 59.89 59.026ZM37.7701 59.401C37.7235 59.3854 37.6614 59.4271 37.6096 59.4427C37.6562 59.5 37.7028 59.5677 37.7494 59.625C37.7908 59.5938 37.8271 59.5625 37.8685 59.5312C37.8323 59.4792 37.8116 59.4167 37.7701 59.401ZM28.1267 59.974C28.0749 60.0573 28.0334 60.1458 27.9868 60.2292C28.0386 60.2552 28.0904 60.2656 28.1422 60.2917C28.1629 60.1979 28.1888 60.1042 28.2095 60.0052C28.2095 60 28.1318 59.974 28.1267 59.974ZM61.3402 28.9323C61.19 28.9792 61.045 29.0156 60.8948 29.0573C60.9155 29.125 60.9362 29.1927 60.9621 29.2552C61.102 29.2031 61.247 29.1458 61.392 29.0885C61.3764 29.0365 61.3557 28.9844 61.3402 28.9323ZM65.1934 60.4115C65.1313 60.4583 65.0329 60.5 65.007 60.5677C64.9915 60.625 65.064 60.7083 65.1158 60.8281C65.2193 60.7344 65.3281 60.6823 65.3333 60.6146C65.3385 60.5521 65.2401 60.4792 65.1934 60.4115ZM69.518 62.1719C69.4973 62.2135 69.4714 62.2552 69.4558 62.2969C69.5542 62.3698 69.663 62.4427 69.7666 62.5156C69.8028 62.4479 69.8391 62.375 69.8754 62.3073C69.7562 62.2604 69.6371 62.2135 69.518 62.1719ZM65.6181 69.0052C65.5663 69.0052 65.5145 69.0052 65.4679 69.0104C65.4576 69.0938 65.4524 69.1771 65.4472 69.2656C65.5249 69.2552 65.5974 69.2448 65.6699 69.2396C65.6544 69.1615 65.6388 69.0833 65.6181 69.0052ZM33.0468 42.3021C32.9121 42.4063 32.7878 42.5104 32.6584 42.6094C32.705 42.6667 32.7516 42.724 32.7982 42.7812C32.9225 42.6771 33.052 42.5729 33.1711 42.4688C33.1348 42.4115 33.0882 42.3594 33.0468 42.3021ZM114.385 80.0052C114.364 80.0521 114.338 80.0938 114.312 80.1406C114.4 80.1979 114.483 80.2604 114.566 80.3229C114.607 80.2448 114.649 80.1719 114.685 80.099C114.586 80.0729 114.483 80.0365 114.385 80.0052ZM60.149 39.4115C60.0765 39.474 60.0092 39.5313 59.9418 39.5885L60.0299 39.7083C60.0972 39.6354 60.1594 39.5573 60.2215 39.4844C60.2008 39.4583 60.1749 39.4375 60.149 39.4115ZM88.9914 1.97396C88.981 2.02083 88.9707 2.0625 88.9603 2.10938C89.0432 2.13542 89.1312 2.16667 89.2193 2.19271C89.2348 2.13542 89.2452 2.08333 89.2607 2.02604C89.1675 2.01042 89.0794 1.98958 88.9914 1.97396ZM82.7609 4.54167C82.7454 4.54167 82.6936 4.57292 82.6936 4.58854C82.7092 4.64063 82.7402 4.67708 82.7609 4.72396C82.7972 4.6875 82.8335 4.65625 82.8697 4.625C82.8335 4.59375 82.7972 4.5625 82.7609 4.54167ZM104.964 5.57812C104.938 5.60417 104.912 5.64063 104.886 5.67188C104.953 5.73958 105.016 5.80729 105.072 5.875C105.114 5.82292 105.15 5.77604 105.197 5.71875C105.119 5.67188 105.041 5.625 104.964 5.57812ZM26.1068 35.0938C26.0861 35.1458 26.0757 35.1979 26.055 35.25C26.1638 35.2865 26.2622 35.3177 26.3709 35.3438C26.3865 35.2969 26.402 35.25 26.4227 35.2031C26.314 35.1667 26.2104 35.1302 26.1068 35.0938ZM127.581 34.5521C127.508 34.5885 127.431 34.625 127.353 34.6562C127.425 34.7396 127.488 34.8281 127.555 34.9167C127.596 34.8958 127.627 34.8802 127.669 34.8594C127.638 34.7552 127.607 34.6563 127.581 34.5521ZM56.1663 46.9531C56.099 46.9896 56.0316 47.0313 55.9591 47.0677C55.9902 47.1094 56.0264 47.151 56.0627 47.2031C56.1197 47.1771 56.2025 47.1562 56.2181 47.1198C56.2336 47.0781 56.187 47.0052 56.1663 46.9531ZM122.039 47.0156C121.998 47.0469 121.967 47.0729 121.93 47.1094C121.993 47.1823 122.055 47.2604 122.117 47.3333C122.158 47.3021 122.195 47.2708 122.236 47.2344C122.169 47.1615 122.101 47.0885 122.039 47.0156ZM28.1992 47.1406C28.137 47.1875 28.08 47.25 28.0438 47.3177C28.0438 47.3385 28.1163 47.3958 28.1784 47.4531C28.2354 47.375 28.2872 47.3125 28.3286 47.2292C28.3286 47.224 28.2147 47.1302 28.1992 47.1406ZM20.3114 34.1979V34.4844H20.4253V34.1979H20.3114ZM35.6104 34.0417C35.6001 34.1094 35.5845 34.1875 35.5845 34.2552C35.5845 34.2604 35.6363 34.2708 35.6674 34.276C35.6726 34.2031 35.683 34.1302 35.6985 34.0573C35.6674 34.0521 35.6415 34.0469 35.6104 34.0417ZM59.9522 33.8021C59.8693 33.8333 59.7865 33.8646 59.7036 33.901C59.7243 33.9427 59.745 33.9896 59.7709 34.0312C59.8486 33.9948 59.9263 33.9479 60.004 33.9115C59.9885 33.875 59.9677 33.8385 59.9522 33.8021ZM10.7508 48.9271C10.7042 48.9531 10.6886 49.0208 10.6576 49.0729C10.7145 49.0938 10.7767 49.1354 10.8233 49.125C10.8595 49.1146 10.8699 49.0313 10.8906 48.9792C10.844 48.9583 10.7819 48.9063 10.7508 48.9271ZM19.5604 39.0156C19.5294 39.1094 19.5086 39.1979 19.4776 39.2917C19.519 39.3021 19.5604 39.3177 19.6019 39.3281C19.6329 39.2396 19.6692 39.151 19.7003 39.0625C19.6537 39.0521 19.6019 39.0365 19.5604 39.0156ZM28.9035 49.6094C28.8724 49.651 28.8414 49.6875 28.8103 49.7344C28.9087 49.8125 29.0071 49.8958 29.1055 49.9792C29.1366 49.9323 29.1728 49.8906 29.2039 49.849C29.1055 49.7656 29.0071 49.6875 28.9035 49.6094ZM33.5181 50.4531C33.5026 50.5104 33.4767 50.5625 33.4611 50.6198C33.4611 50.6198 33.5077 50.6302 33.5233 50.6458C33.5492 50.5938 33.5751 50.5365 33.601 50.4896C33.5751 50.474 33.544 50.4635 33.5181 50.4531ZM32.4719 32.8333C32.4357 32.8854 32.3683 32.9531 32.3839 32.974C32.4201 33.0573 32.4926 33.125 32.56 33.1927C32.6169 33.1458 32.6687 33.0885 32.7309 33.0365C32.6428 32.9688 32.56 32.901 32.4719 32.8333ZM59.9056 51.4062C59.89 51.4948 59.8745 51.5781 59.8642 51.6667C59.9108 51.6823 59.9574 51.6979 60.0143 51.7083C60.0351 51.6302 60.0661 51.5521 60.0661 51.474C60.0661 51.4531 59.9626 51.4271 59.9056 51.4062ZM64.2923 38.875C64.5668 38.9375 64.6393 38.9531 64.7118 38.9688C64.717 38.9219 64.7273 38.875 64.7325 38.8281C64.6548 38.8333 64.5771 38.8438 64.2923 38.875ZM22.5954 31.1042C22.5539 31.0938 22.497 31.151 22.4504 31.1771C22.497 31.2396 22.5436 31.3021 22.5954 31.3594C22.6265 31.3229 22.6679 31.276 22.7093 31.2396C22.6679 31.1875 22.6368 31.1146 22.5954 31.1042ZM40.0386 53.4323C40.0023 53.4479 39.9712 53.4635 39.935 53.4792C39.9712 53.5469 40.0075 53.6146 40.0489 53.6823C40.0696 53.6667 40.0852 53.6563 40.1059 53.651C40.08 53.5729 40.0645 53.5052 40.0386 53.4323ZM70.616 29.7083C70.5901 29.7604 70.5642 29.8177 70.5383 29.8698C70.5901 29.901 70.647 29.9271 70.6988 29.9479C70.7247 29.8958 70.7506 29.8438 70.7713 29.7865C70.7247 29.7604 70.6677 29.7344 70.616 29.7083ZM70.761 57.5C70.7299 57.5 70.6626 57.6354 70.6677 57.6458C70.7351 57.6979 70.8128 57.7396 70.8801 57.7865C70.9112 57.7344 70.9371 57.6719 70.9837 57.5781C70.906 57.5521 70.8335 57.5 70.761 57.5ZM66.5918 89.4479C66.5607 89.5 66.5245 89.5521 66.4986 89.6094C66.5141 89.6198 66.5245 89.625 66.54 89.6354C66.5763 89.5833 66.6125 89.5365 66.6488 89.4792C66.6281 89.4688 66.6073 89.4531 66.5918 89.4479ZM72.4701 89.4375C72.4545 89.4583 72.439 89.4896 72.4286 89.5156C72.4338 89.5417 72.4442 89.5729 72.4494 89.6042C72.4908 89.5781 72.5374 89.5521 72.5788 89.5365C72.5426 89.5 72.5012 89.4635 72.4701 89.4375ZM116.011 76.1562C115.918 76.2031 115.829 76.25 115.741 76.3021C115.778 76.3542 115.819 76.4167 115.855 76.4688C115.938 76.401 116.011 76.3333 116.083 76.2604C116.057 76.2292 116.031 76.1875 116.011 76.1562ZM116.218 75.724C116.119 75.7448 116.031 75.7708 115.933 75.8021C115.949 75.8542 115.964 75.9531 115.985 75.9531C116.078 75.9688 116.171 75.9479 116.265 75.9427C116.249 75.8698 116.233 75.7969 116.218 75.724ZM87.3911 144.547C87.3911 144.547 87.3185 144.552 87.3134 144.573C87.2926 144.62 87.2926 144.672 87.2875 144.729C87.3393 144.724 87.3911 144.714 87.4428 144.714C87.4273 144.656 87.4169 144.604 87.3911 144.547ZM63.6294 25.3333C63.5517 25.3802 63.4843 25.4323 63.4118 25.4896C63.5102 25.5 63.6086 25.5156 63.7847 25.5469C63.6863 25.4167 63.6345 25.3333 63.6294 25.3333ZM79.0061 98.224C78.9232 98.2552 78.8404 98.3073 78.7627 98.3438C78.7886 98.401 78.8145 98.4479 78.8455 98.4948C78.9181 98.4219 78.9957 98.349 79.0734 98.276C79.0475 98.2552 79.0216 98.224 79.0061 98.224ZM60.1904 21.8854C60.1645 21.9583 60.1335 22.0313 60.1076 22.1094C60.1904 22.125 60.2785 22.1406 60.3613 22.1615C60.3821 22.1146 60.3976 22.0625 60.4183 22.0156C60.3406 21.9688 60.2681 21.9271 60.1904 21.8854ZM72.496 21.3802C72.4235 21.3958 72.351 21.4063 72.2785 21.4323C72.2733 21.4375 72.2992 21.5313 72.3043 21.5833C72.3872 21.5521 72.4597 21.5156 72.5374 21.4896C72.527 21.4479 72.5115 21.4167 72.496 21.3802ZM115.581 73.901C115.498 73.9531 115.42 74 115.337 74.0573C115.363 74.099 115.394 74.1458 115.425 74.1875C115.503 74.1354 115.581 74.0781 115.664 74.0208C115.633 73.9844 115.602 73.9375 115.581 73.901ZM118.818 16.3802C118.875 16.4792 118.906 16.5365 118.937 16.5833C118.989 16.5365 119.041 16.4844 119.092 16.4375C119.015 16.4219 118.937 16.4063 118.818 16.3802ZM62.2983 21.0573C62.2828 21.1198 62.2362 21.1823 62.2465 21.2396C62.2569 21.2708 62.3449 21.2917 62.3967 21.3125C62.4174 21.2552 62.4382 21.2031 62.4589 21.1458C62.4071 21.1146 62.3553 21.0833 62.2983 21.0573ZM84.4856 157.578C84.439 157.573 84.382 157.615 84.3302 157.641C84.3716 157.698 84.4131 157.755 84.4597 157.818C84.4959 157.776 84.5425 157.74 84.5788 157.693C84.5529 157.656 84.5218 157.583 84.4856 157.578ZM116.063 105.417C116.021 105.411 115.969 105.458 115.918 105.479C115.964 105.536 116.011 105.599 116.057 105.656C116.094 105.615 116.119 105.573 116.156 105.531C116.125 105.49 116.099 105.417 116.063 105.417ZM114.385 105.885L114.364 105.943H114.426L114.385 105.885ZM7.59671 43.5781C7.50349 43.5938 7.40509 43.6094 7.3015 43.6302C7.31704 43.6771 7.3274 43.724 7.33258 43.7708C7.43098 43.75 7.52938 43.724 7.62261 43.6979C7.61743 43.6562 7.60707 43.6146 7.59671 43.5781ZM125.105 91.4062C125.085 91.5052 125.059 91.6042 125.038 91.7031C125.1 91.7135 125.162 91.724 125.224 91.7344V91.4167C125.188 91.4167 125.141 91.4115 125.105 91.4062ZM37.0554 26.6146C37.0502 26.6146 37.014 26.6615 37.014 26.6771C37.0399 26.7188 37.0761 26.7552 37.1124 26.7969C37.1435 26.75 37.1797 26.7083 37.2211 26.6615C37.159 26.6406 37.1124 26.625 37.0554 26.6146ZM69.1762 43.6406C69.1969 43.7292 69.2124 43.8229 69.2487 44C69.3367 43.8542 69.3678 43.8073 69.3937 43.7604C69.3212 43.724 69.2487 43.6771 69.1762 43.6406ZM107.025 109.755C106.984 109.776 106.973 109.849 106.952 109.896C107.004 109.917 107.061 109.964 107.108 109.953C107.134 109.943 107.144 109.859 107.17 109.807C107.118 109.786 107.051 109.74 107.025 109.755ZM71.3255 20.5469C71.31 20.5729 71.2996 20.599 71.2892 20.625C71.3203 20.6354 71.3462 20.6458 71.3669 20.6615C71.3566 20.625 71.341 20.5833 71.3255 20.5469ZM23.7762 27.0573C23.7192 27.125 23.6623 27.1875 23.6001 27.2552C23.6778 27.3177 23.7555 27.375 23.8332 27.4323C23.9005 27.3594 23.9575 27.2865 24.0196 27.2135C23.9419 27.1563 23.8591 27.1094 23.7762 27.0573ZM68.2543 13.776V14.0573C68.2957 14.0625 68.332 14.0625 68.3734 14.0625C68.3786 13.9688 68.3838 13.875 68.3889 13.7812C68.3423 13.7812 68.3009 13.7813 68.2543 13.776ZM68.8499 20.2812C68.7826 20.3229 68.7152 20.3646 68.6479 20.401C68.6686 20.4479 68.6842 20.4844 68.6997 20.5312C68.7826 20.5156 68.8602 20.5 68.9379 20.4844C68.912 20.4167 68.881 20.349 68.8499 20.2812ZM47.5638 35.9792C47.5431 36.0833 47.5172 36.1823 47.5017 36.2812C47.5483 36.2969 47.6001 36.3073 47.657 36.3229C47.6829 36.224 47.6985 36.1198 47.7244 36.0156C47.6726 36.0052 47.6156 35.9948 47.5638 35.9792ZM67.9746 26.974C67.9021 26.9792 67.8192 26.9948 67.7416 27.0052C67.7467 27.0365 67.7467 27.0677 67.7519 27.0885C67.8296 27.0833 67.9073 27.0729 67.985 27.0677C67.985 27.0365 67.9798 27.0052 67.9746 26.974ZM2.4953 42.125C2.46941 42.1042 2.3969 42.1562 2.33993 42.1823C2.36583 42.2344 2.37618 42.3177 2.41244 42.3385C2.45387 42.3542 2.5212 42.3021 2.57817 42.2812C2.55745 42.2292 2.54191 42.151 2.4953 42.125ZM67.5344 24.0781C67.4826 24.0833 67.436 24.0885 67.3894 24.0885L67.4205 24.4844C67.4671 24.4844 67.5189 24.4792 67.5655 24.474C67.5551 24.3438 67.5448 24.2083 67.5344 24.0781ZM57.285 35.3906C57.2798 35.4375 57.2746 35.4896 57.2694 35.5417C57.3627 35.5521 57.4611 35.5677 57.5595 35.5781C57.5646 35.5208 57.5698 35.474 57.575 35.4167C57.4818 35.4062 57.3834 35.401 57.285 35.3906ZM67.8503 13.2135C67.8141 13.276 67.7882 13.3281 67.7571 13.375C67.8089 13.3958 67.8555 13.4167 67.9021 13.4219C67.9125 13.4219 67.9487 13.3594 67.9384 13.3385C67.9176 13.2969 67.8866 13.2604 67.8503 13.2135ZM122.977 27.4635C122.925 27.526 122.868 27.5885 122.811 27.6562C122.858 27.6927 122.904 27.7292 122.946 27.7604C122.997 27.6979 123.054 27.6458 123.091 27.5781C123.091 27.5521 123.018 27.5 122.977 27.4635ZM63.0389 68.2292C63.0338 68.2448 63.0338 68.2604 63.0338 68.2812C63.0959 68.2812 63.1632 68.2865 63.2357 68.2917V68.2448C63.1684 68.2396 63.1011 68.2344 63.0389 68.2292ZM3.81597 39.6354C3.80044 39.724 3.7849 39.8177 3.76418 39.9062C3.81079 39.9167 3.85223 39.9271 3.89884 39.9323C3.91437 39.8385 3.93509 39.75 3.95581 39.6667C3.9092 39.6562 3.86776 39.6458 3.81597 39.6354ZM54.5038 65.9844C54.4261 66.0521 54.3588 66.1146 54.2863 66.1823C54.3329 66.224 54.3743 66.2604 54.4209 66.3021C54.4831 66.224 54.54 66.151 54.6022 66.0729C54.5659 66.0417 54.5349 66.0104 54.5038 65.9844ZM70.761 79.5938C70.7092 79.5938 70.6677 79.5885 70.616 79.5885C70.5952 79.7031 70.5797 79.8177 70.559 79.9323C70.6315 79.9375 70.704 79.9479 70.7765 79.9531C70.7713 79.8281 70.7662 79.7135 70.761 79.5938ZM28.7222 35.4271C28.6912 35.5156 28.6653 35.599 28.629 35.6875C28.6705 35.7031 28.7067 35.724 28.7481 35.7344C28.7792 35.651 28.8207 35.5677 28.8517 35.4844C28.8103 35.4635 28.7637 35.4427 28.7222 35.4271ZM20.0991 35.5156C20.0732 35.5677 20.0421 35.6198 20.0214 35.6719C20.068 35.6979 20.1198 35.724 20.1767 35.75C20.1975 35.6927 20.2182 35.6458 20.2441 35.5885C20.1975 35.5677 20.1457 35.5417 20.0991 35.5156ZM34.2639 41.4062C34.3209 41.4948 34.3519 41.5417 34.3778 41.5885C34.4296 41.5469 34.4762 41.5 34.528 41.4583C34.4555 41.4427 34.3726 41.4219 34.2639 41.4062ZM72.9207 19.4583C72.8792 19.4635 72.8326 19.4688 72.7912 19.4688C72.8015 19.5781 72.8067 19.6771 72.8171 19.7865C72.8585 19.7812 72.9051 19.7813 72.9517 19.776C72.9414 19.6719 72.931 19.5677 72.9207 19.4583ZM21.2022 40.3073C21.1711 40.3073 21.1452 40.3958 21.109 40.4427C21.1763 40.4792 21.2436 40.526 21.3161 40.5469C21.3317 40.5469 21.3731 40.4583 21.4249 40.3802C21.342 40.3542 21.2747 40.3073 21.2022 40.3073ZM26.7594 29.0573C26.7076 29.0833 26.6403 29.1094 26.6299 29.1458C26.6195 29.1979 26.661 29.2552 26.6817 29.3125C26.7387 29.2708 26.8008 29.2344 26.8578 29.1927C26.8267 29.1458 26.7904 29.099 26.7594 29.0573ZM74.8369 9.95833C74.8162 10.0104 74.7903 10.0573 74.7644 10.1094C74.8162 10.1302 74.8784 10.1875 74.9094 10.1771C74.9509 10.1563 74.9664 10.0833 74.9923 10.0312C74.9405 10.0104 74.8887 9.98438 74.8369 9.95833ZM53.4006 61.2292C53.3799 61.2448 53.3592 61.2604 53.3333 61.276C53.3747 61.3281 53.4058 61.3906 53.4473 61.4427C53.468 61.4271 53.5042 61.401 53.5042 61.401C53.4732 61.3438 53.4369 61.2917 53.4006 61.2292ZM46.0567 61.0573C45.9531 61.1198 45.8599 61.1771 45.7563 61.2344C45.7822 61.2813 45.8029 61.3229 45.8288 61.3698C45.9324 61.3177 46.036 61.2708 46.1344 61.2188C46.1137 61.1615 46.0826 61.1146 46.0567 61.0573ZM35.7865 59.5938C35.7606 59.6406 35.7296 59.6823 35.6985 59.7344C35.7555 59.75 35.8124 59.8073 35.8487 59.7917C35.8901 59.7708 35.9108 59.6979 35.9367 59.651C35.8849 59.6302 35.8383 59.6146 35.7865 59.5938ZM29.9342 29.1979C29.8979 29.2708 29.8616 29.3438 29.8202 29.4219C29.8565 29.4375 29.8824 29.4583 29.9186 29.4792C29.9704 29.4115 30.0222 29.3438 30.0688 29.2812C30.0274 29.2552 29.9808 29.2292 29.9342 29.1979ZM110.402 6.85417V7.22396H110.531V6.85417H110.402ZM55.0631 58.0156V58.125H55.4464V58.0156H55.0631Z" fill="#FFDE59"/>
</g>
</svg>
