<svg width="660" height="504" viewBox="0 0 660 504" fill="none" xmlns="http://www.w3.org/2000/svg">
<mask id="mask0_91_170" style="mask-type:alpha" maskUnits="userSpaceOnUse" x="0" y="0" width="660" height="504">
<rect width="660" height="504" rx="25" fill="#F2F0F4"/>
</mask>
<g mask="url(#mask0_91_170)">
<path opacity="0.08" d="M1856.76 615.679C1976.42 645.234 1979.93 703.708 1966.72 729.25L1802.24 1120.88L-309.863 759.809L-145.386 368.179C-136.806 341.845 -87.9461 292.323 38.8484 304.901C197.342 320.623 208.775 282.773 244.993 256.742C281.211 230.711 331.305 207.052 453.112 253.464C574.918 299.875 700.634 329.896 822.929 290.149C920.766 258.35 999.221 266.266 1027.28 271.062C1055.33 275.858 1129.48 294.03 1189.29 352.779C1264.05 426.214 1396.45 440.319 1538.31 438.981C1680.17 437.644 1705.01 474.114 1715.98 508.211C1726.94 542.308 1707.18 578.735 1856.76 615.679Z" fill="#4F4F4F"/>
</g>
<mask id="mask1_91_170" style="mask-type:alpha" maskUnits="userSpaceOnUse" x="0" y="0" width="660" height="504">
<rect width="660" height="504" rx="25" fill="#F2F0F4"/>
</mask>
<g mask="url(#mask1_91_170)">
<path opacity="0.08" d="M1649.76 912.076C1769.42 966.612 1772.93 1074.51 1759.72 1121.64L1595.24 1844.29L-516.864 1178.03L-352.387 455.379C-343.806 406.788 -294.946 315.408 -168.152 338.617C-9.65868 367.628 1.77514 297.785 37.9927 249.751C74.2103 201.717 124.305 158.061 246.111 243.702C367.918 329.343 493.634 384.739 615.929 311.395C713.765 252.719 792.221 267.325 820.276 276.175C848.331 285.025 922.478 318.558 982.287 426.962C1057.05 562.468 1189.45 588.494 1331.31 586.027C1473.17 583.559 1498.01 650.854 1508.98 713.772C1519.94 776.689 1500.18 843.905 1649.76 912.076Z" fill="#4F4F4F"/>
</g>
</svg>
