<svg width="769" height="1264" viewBox="0 0 769 1264" fill="none" xmlns="http://www.w3.org/2000/svg">
<g opacity="0.1">
<mask id="mask0_98_5146" style="mask-type:luminance" maskUnits="userSpaceOnUse" x="0" y="0" width="769" height="1264">
<path d="M768.652 0H0.652344V1264H768.652V0Z" fill="white"/>
</mask>
<g mask="url(#mask0_98_5146)">
<mask id="mask1_98_5146" style="mask-type:luminance" maskUnits="userSpaceOnUse" x="3" y="0" width="763" height="1262">
<path d="M3.31934 0.15625H765.986V1261.33H3.31934V0.15625Z" fill="white"/>
</mask>
<g mask="url(#mask1_98_5146)">
<path d="M705.209 1259.3C647.553 1255.62 588.361 1247.7 537.058 1219.44C457.288 1177.77 406.288 1089.71 408.861 999.885C279.881 1033.97 146.72 988.312 67.7824 880.26C13.1782 804.703 -1.29051 707.896 5.18865 616.708C13.0012 458.786 87.147 311.885 176.845 184.672C215.064 132.713 307.814 23.3228 366.355 3.28115C396.277 -9.22406 426.459 18.8593 410.6 48.9843C402.329 63.8124 386.824 72.3801 374.423 83.3749C359.902 96.4582 346.111 110.349 332.22 124.141C273.553 183.234 223.032 250.292 183.225 323.453C130.407 415.901 91.1053 515.458 86.1887 622.255C81.6991 692.766 90.548 766.964 130.334 827.062C164.47 876.224 217.387 911.948 275.923 924.656C322.465 933.833 370.793 927.052 415.564 912.578C433.871 797.318 498.23 624.167 619.699 585.724C662.48 572.917 713.079 590.714 735.163 630.297C757.626 668.818 749.683 716.339 734.907 756.146C695.532 863.37 595.319 933.479 492.157 972.859C490.845 1001.07 490.444 1030.06 499.543 1057.11C516.611 1105.64 556.772 1143.69 605.454 1159.74C630.767 1168.11 657.111 1172.25 683.553 1174.92C700.699 1177.11 718.246 1176.41 735.189 1180.02C785.381 1196.2 770.986 1272.08 705.209 1259.3ZM509.475 866.292C508.418 869.672 507.637 873.151 506.855 876.63C563.777 848.646 617.855 807.755 647.376 750.349C657.663 727.964 669.032 703.833 666.111 678.625C662.074 655.151 633.689 665.766 620.73 675.349C598.871 690.599 582.209 711.979 566.907 733.505C540.387 774.099 523.418 820.083 509.475 866.292Z" fill="#FF9F66"/>
</g>
</g>
</g>
</svg>
