<svg width="288" height="255" viewBox="0 0 288 255" fill="none" xmlns="http://www.w3.org/2000/svg">
<path fill-rule="evenodd" clip-rule="evenodd" d="M48.1604 205.361C139.576 199.372 76.3619 51.4628 48.1604 54.0331C11.277 57.3975 -38.4778 204.227 48.1604 205.361Z" fill="#6F9932"/>
<mask id="mask0_98_5196" style="mask-type:luminance" maskUnits="userSpaceOnUse" x="0" y="56" width="96" height="150">
<path d="M0 56.087L95.8911 56.087L95.8911 205.398L0 205.398L0 56.087Z" fill="white"/>
</mask>
<g mask="url(#mask0_98_5196)">
<mask id="mask1_98_5196" style="mask-type:luminance" maskUnits="userSpaceOnUse" x="0" y="54" width="96" height="152">
<path fill-rule="evenodd" clip-rule="evenodd" d="M48.1613 205.361C139.577 199.372 76.3629 51.4628 48.1613 54.0332C11.2779 57.3975 -38.4768 204.227 48.1613 205.361Z" fill="white"/>
</mask>
<g mask="url(#mask1_98_5196)">
<path fill-rule="evenodd" clip-rule="evenodd" d="M-5.07128 173.748C-5.07128 173.748 42.8186 229.131 78.2426 152.579C87.8012 131.925 87.4613 93.7802 78.1569 65.5116C68.8497 37.2401 107.647 83.233 107.647 83.233C107.647 83.233 115.526 159.417 115.252 161.85C114.975 164.286 107.952 214.389 104.402 218.056C100.852 221.723 5.95232 228.783 5.95232 228.783C5.95232 228.783 -17.023 198.378 -17.2601 195.288C-17.4971 192.198 -5.07128 173.748 -5.07128 173.748Z" fill="#5F8B20"/>
</g>
</g>
<path d="M48.1613 78.7977C48.1613 79.2718 48.1156 79.743 48.0242 80.2085C47.9357 80.6769 47.8015 81.1282 47.6215 81.568C47.4445 82.0078 47.2274 82.4248 46.9675 82.8189C46.7105 83.213 46.4164 83.5786 46.0879 83.9156C45.7595 84.2526 45.4025 84.5525 45.0141 84.8152C44.6286 85.0808 44.2202 85.3036 43.7918 85.4835C43.3606 85.6663 42.9179 85.8034 42.4639 85.8977C42.0069 85.9891 41.5471 86.0348 41.0816 86.0348C40.6161 86.0348 40.1563 85.9891 39.6994 85.8977C39.2453 85.8034 38.8026 85.6663 38.3714 85.4835C37.943 85.3036 37.5346 85.0808 37.1491 84.8152C36.7607 84.5525 36.4037 84.2526 36.0753 83.9156C35.7469 83.5786 35.4527 83.213 35.1957 82.8189C34.9358 82.4248 34.7188 82.0078 34.5417 81.568C34.3618 81.1282 34.2276 80.6769 34.139 80.2085C34.0476 79.743 34.002 79.2718 34.002 78.7977C34.002 78.3236 34.0476 77.8523 34.139 77.3868C34.2276 76.9184 34.3618 76.4672 34.5417 76.0274C34.7188 75.5875 34.9358 75.1706 35.1957 74.7764C35.4527 74.3823 35.7469 74.0167 36.0753 73.6797C36.4037 73.3427 36.7607 73.0428 37.1491 72.7801C37.5346 72.5145 37.943 72.2917 38.3714 72.1118C38.8026 71.929 39.2453 71.7919 39.6994 71.6977C40.1563 71.6063 40.6161 71.5606 41.0816 71.5606C41.5471 71.5606 42.0069 71.6063 42.4639 71.6977C42.9179 71.7919 43.3606 71.929 43.7918 72.1118C44.2202 72.2917 44.6286 72.5145 45.0141 72.7801C45.4025 73.0428 45.7595 73.3427 46.0879 73.6797C46.4164 74.0167 46.7105 74.3823 46.9675 74.7764C47.2274 75.1706 47.4445 75.5875 47.6215 76.0274C47.8015 76.4672 47.9357 76.9184 48.0242 77.3868C48.1156 77.8523 48.1613 78.3236 48.1613 78.7977Z" fill="#C2C400"/>
<path d="M77.1935 129.68C77.1935 130.157 77.1478 130.629 77.0564 131.094C76.965 131.56 76.8308 132.014 76.6538 132.451C76.4767 132.891 76.2568 133.308 75.9998 133.702C75.7399 134.099 75.4486 134.464 75.1173 134.798C74.7889 135.135 74.4319 135.435 74.0464 135.701C73.658 135.964 73.2524 136.186 72.8212 136.369C72.3928 136.552 71.9502 136.689 71.4932 136.78C71.0391 136.875 70.5765 136.92 70.1138 136.92C69.6483 136.92 69.1886 136.875 68.7316 136.78C68.2747 136.689 67.832 136.552 67.4036 136.369C66.9753 136.186 66.5669 135.964 66.1785 135.701C65.7929 135.435 65.436 135.135 65.1075 134.798C64.7791 134.464 64.485 134.099 64.2251 133.702C63.968 133.308 63.751 132.891 63.5711 132.451C63.394 132.014 63.2598 131.56 63.1684 131.094C63.077 130.629 63.0342 130.157 63.0342 129.68C63.0342 129.206 63.077 128.735 63.1684 128.27C63.2598 127.804 63.394 127.35 63.5711 126.913C63.751 126.473 63.968 126.056 64.2251 125.659C64.485 125.265 64.7791 124.9 65.1075 124.563C65.436 124.228 65.7929 123.929 66.1785 123.663C66.5669 123.4 66.9753 123.177 67.4036 122.995C67.832 122.812 68.2747 122.675 68.7316 122.583C69.1886 122.489 69.6483 122.443 70.1138 122.443C70.5765 122.443 71.0391 122.489 71.4932 122.583C71.9502 122.675 72.3928 122.812 72.8212 122.995C73.2524 123.177 73.658 123.4 74.0464 123.663C74.4319 123.929 74.7889 124.228 75.1173 124.563C75.4486 124.9 75.7399 125.265 75.9998 125.659C76.2568 126.056 76.4767 126.473 76.6538 126.913C76.8308 127.35 76.965 127.804 77.0564 128.27C77.1478 128.735 77.1935 129.206 77.1935 129.68Z" fill="#C2C400"/>
<path d="M85.261 143.138C85.261 143.409 85.2353 143.677 85.1839 143.943C85.1325 144.209 85.0554 144.466 84.9526 144.717C84.8526 144.965 84.727 145.205 84.5813 145.428C84.4328 145.654 84.2672 145.862 84.0787 146.054C83.8931 146.245 83.6875 146.416 83.4676 146.568C83.2477 146.719 83.0163 146.845 82.7707 146.947C82.5251 147.053 82.2738 147.13 82.0139 147.185C81.754 147.236 81.4913 147.262 81.2257 147.262C80.963 147.262 80.7002 147.236 80.4403 147.185C80.1805 147.13 79.9291 147.053 79.6835 146.947C79.4379 146.845 79.2066 146.719 78.9867 146.568C78.7668 146.416 78.5612 146.245 78.3756 146.054C78.1871 145.862 78.0214 145.654 77.8729 145.428C77.7244 145.205 77.6016 144.965 77.4988 144.717C77.3989 144.466 77.3218 144.209 77.2703 143.943C77.2189 143.677 77.1932 143.409 77.1932 143.138C77.1932 142.866 77.2189 142.601 77.2703 142.335C77.3218 142.069 77.3989 141.81 77.4988 141.561C77.6016 141.31 77.7244 141.073 77.8729 140.847C78.0214 140.621 78.1871 140.413 78.3756 140.222C78.5612 140.03 78.7668 139.859 78.9867 139.71C79.2066 139.559 79.4379 139.431 79.6835 139.328C79.9291 139.225 80.1805 139.145 80.4403 139.094C80.7002 139.039 80.963 139.014 81.2257 139.014C81.4913 139.014 81.754 139.039 82.0139 139.094C82.2738 139.145 82.5251 139.225 82.7707 139.328C83.0163 139.431 83.2477 139.559 83.4676 139.71C83.6875 139.859 83.8931 140.03 84.0787 140.222C84.2672 140.413 84.4328 140.621 84.5813 140.847C84.727 141.073 84.8526 141.31 84.9526 141.561C85.0554 141.81 85.1325 142.069 85.1839 142.335C85.2353 142.598 85.261 142.866 85.261 143.138Z" fill="#C2C400"/>
<path d="M29.8207 98.6924C29.8207 98.9638 29.795 99.2322 29.7436 99.4978C29.6922 99.7634 29.6151 100.02 29.5123 100.272C29.4123 100.52 29.2867 100.757 29.141 100.983C28.9925 101.209 28.8269 101.417 28.6384 101.608C28.4528 101.8 28.2471 101.971 28.0272 102.122C27.8073 102.271 27.576 102.4 27.3304 102.502C27.0848 102.605 26.8335 102.685 26.5736 102.737C26.3137 102.791 26.051 102.816 25.7883 102.816C25.5227 102.816 25.2599 102.791 25 102.737C24.7402 102.685 24.4888 102.605 24.2432 102.502C23.9976 102.4 23.7663 102.271 23.5464 102.122C23.3265 101.971 23.1209 101.8 22.9353 101.608C22.7468 101.417 22.5811 101.209 22.4326 100.983C22.287 100.757 22.1613 100.52 22.0585 100.272C21.9586 100.02 21.8814 99.7634 21.83 99.4978C21.7786 99.2322 21.7529 98.9638 21.7529 98.6924C21.7529 98.4211 21.7786 98.1527 21.83 97.8871C21.8814 97.6214 21.9586 97.3644 22.0585 97.1131C22.1613 96.8646 22.287 96.6276 22.4326 96.4019C22.5811 96.1763 22.7468 95.9678 22.9353 95.7765C23.1209 95.5851 23.3265 95.4138 23.5464 95.2624C23.7663 95.1139 23.9976 94.9854 24.2432 94.8825C24.4888 94.7797 24.7402 94.6998 25 94.6484C25.2599 94.5941 25.5227 94.5684 25.7883 94.5684C26.051 94.5684 26.3137 94.5941 26.5736 94.6484C26.8335 94.6998 27.0848 94.7797 27.3304 94.8825C27.576 94.9854 27.8073 95.1139 28.0272 95.2624C28.2471 95.4138 28.4528 95.5851 28.6384 95.7765C28.8269 95.9678 28.9925 96.1763 29.141 96.4019C29.2867 96.6276 29.4123 96.8646 29.5123 97.1131C29.6151 97.3644 29.6922 97.6214 29.7436 97.8871C29.795 98.1527 29.8207 98.4211 29.8207 98.6924Z" fill="#C2C400"/>
<mask id="mask2_98_5196" style="mask-type:luminance" maskUnits="userSpaceOnUse" x="40" y="109" width="16" height="146">
<path d="M40.6934 109.459H55.3153L55.3153 254.195H40.6934L40.6934 109.459Z" fill="white"/>
</mask>
<g mask="url(#mask2_98_5196)">
<path fill-rule="evenodd" clip-rule="evenodd" d="M49.8936 109.62L45.864 109.703L41.3574 254.153L54.6771 254.196L49.8936 109.62Z" fill="#8A5132"/>
</g>
<path fill-rule="evenodd" clip-rule="evenodd" d="M48.1611 195.79L68.2207 158.328L70.1141 161.096L49.8661 212.918L48.1611 195.79Z" fill="#8A5132"/>
<path fill-rule="evenodd" clip-rule="evenodd" d="M45.5022 183.881L46.2533 175.253L23.7349 147.262L21.7529 150.563L45.5022 183.881Z" fill="#8A5132"/>
<path fill-rule="evenodd" clip-rule="evenodd" d="M240.16 205.361C331.576 199.372 268.362 51.4628 240.16 54.0331C203.277 57.3975 153.522 204.227 240.16 205.361Z" fill="#6F9932"/>
<mask id="mask3_98_5196" style="mask-type:luminance" maskUnits="userSpaceOnUse" x="192" y="56" width="96" height="150">
<path d="M192 56.087L287.891 56.087V205.398L192 205.398L192 56.087Z" fill="white"/>
</mask>
<g mask="url(#mask3_98_5196)">
<mask id="mask4_98_5196" style="mask-type:luminance" maskUnits="userSpaceOnUse" x="192" y="54" width="96" height="152">
<path fill-rule="evenodd" clip-rule="evenodd" d="M240.161 205.361C331.577 199.372 268.363 51.4628 240.161 54.0332C203.278 57.3975 153.523 204.227 240.161 205.361Z" fill="white"/>
</mask>
<g mask="url(#mask4_98_5196)">
<path fill-rule="evenodd" clip-rule="evenodd" d="M186.929 173.748C186.929 173.748 234.819 229.131 270.243 152.579C279.801 131.925 279.461 93.7802 270.157 65.5116C260.85 37.2401 299.647 83.233 299.647 83.233C299.647 83.233 307.526 159.417 307.252 161.85C306.975 164.286 299.952 214.389 296.402 218.056C292.852 221.723 197.952 228.783 197.952 228.783C197.952 228.783 174.977 198.378 174.74 195.288C174.503 192.198 186.929 173.748 186.929 173.748Z" fill="#5F8B20"/>
</g>
</g>
<path d="M240.161 78.7977C240.161 79.2718 240.116 79.743 240.024 80.2085C239.936 80.6769 239.801 81.1282 239.622 81.568C239.444 82.0078 239.227 82.4248 238.968 82.8189C238.711 83.213 238.416 83.5786 238.088 83.9156C237.76 84.2526 237.403 84.5525 237.014 84.8152C236.629 85.0808 236.22 85.3036 235.792 85.4835C235.361 85.6663 234.918 85.8034 234.464 85.8977C234.007 85.9891 233.547 86.0348 233.082 86.0348C232.616 86.0348 232.156 85.9891 231.699 85.8977C231.245 85.8034 230.803 85.6663 230.371 85.4835C229.943 85.3036 229.535 85.0808 229.149 84.8152C228.761 84.5525 228.404 84.2526 228.075 83.9156C227.747 83.5786 227.453 83.213 227.196 82.8189C226.936 82.4248 226.719 82.0078 226.542 81.568C226.362 81.1282 226.228 80.6769 226.139 80.2085C226.048 79.743 226.002 79.2718 226.002 78.7977C226.002 78.3236 226.048 77.8523 226.139 77.3868C226.228 76.9184 226.362 76.4672 226.542 76.0274C226.719 75.5875 226.936 75.1706 227.196 74.7764C227.453 74.3823 227.747 74.0167 228.075 73.6797C228.404 73.3427 228.761 73.0428 229.149 72.7801C229.535 72.5145 229.943 72.2917 230.371 72.1118C230.803 71.929 231.245 71.7919 231.699 71.6977C232.156 71.6063 232.616 71.5606 233.082 71.5606C233.547 71.5606 234.007 71.6063 234.464 71.6977C234.918 71.7919 235.361 71.929 235.792 72.1118C236.22 72.2917 236.629 72.5145 237.014 72.7801C237.403 73.0428 237.76 73.3427 238.088 73.6797C238.416 74.0167 238.711 74.3823 238.968 74.7764C239.227 75.1706 239.444 75.5875 239.622 76.0274C239.801 76.4672 239.936 76.9184 240.024 77.3868C240.116 77.8523 240.161 78.3236 240.161 78.7977Z" fill="#C2C400"/>
<path d="M269.194 129.68C269.194 130.157 269.148 130.629 269.056 131.094C268.965 131.56 268.831 132.014 268.654 132.451C268.477 132.891 268.257 133.308 268 133.702C267.74 134.099 267.449 134.464 267.117 134.798C266.789 135.135 266.432 135.435 266.046 135.701C265.658 135.964 265.252 136.186 264.821 136.369C264.393 136.552 263.95 136.689 263.493 136.78C263.039 136.875 262.576 136.92 262.114 136.92C261.648 136.92 261.189 136.875 260.732 136.78C260.275 136.689 259.832 136.552 259.404 136.369C258.975 136.186 258.567 135.964 258.178 135.701C257.793 135.435 257.436 135.135 257.108 134.798C256.779 134.464 256.485 134.099 256.225 133.702C255.968 133.308 255.751 132.891 255.571 132.451C255.394 132.014 255.26 131.56 255.168 131.094C255.077 130.629 255.034 130.157 255.034 129.68C255.034 129.206 255.077 128.735 255.168 128.27C255.26 127.804 255.394 127.35 255.571 126.913C255.751 126.473 255.968 126.056 256.225 125.659C256.485 125.265 256.779 124.9 257.108 124.563C257.436 124.228 257.793 123.929 258.178 123.663C258.567 123.4 258.975 123.177 259.404 122.995C259.832 122.812 260.275 122.675 260.732 122.583C261.189 122.489 261.648 122.443 262.114 122.443C262.576 122.443 263.039 122.489 263.493 122.583C263.95 122.675 264.393 122.812 264.821 122.995C265.252 123.177 265.658 123.4 266.046 123.663C266.432 123.929 266.789 124.228 267.117 124.563C267.449 124.9 267.74 125.265 268 125.659C268.257 126.056 268.477 126.473 268.654 126.913C268.831 127.35 268.965 127.804 269.056 128.27C269.148 128.735 269.194 129.206 269.194 129.68Z" fill="#C2C400"/>
<path d="M277.261 143.138C277.261 143.409 277.235 143.677 277.184 143.943C277.133 144.209 277.055 144.466 276.953 144.717C276.853 144.965 276.727 145.205 276.581 145.428C276.433 145.654 276.267 145.862 276.079 146.054C275.893 146.245 275.687 146.416 275.468 146.568C275.248 146.719 275.016 146.845 274.771 146.947C274.525 147.053 274.274 147.13 274.014 147.185C273.754 147.236 273.491 147.262 273.226 147.262C272.963 147.262 272.7 147.236 272.44 147.185C272.18 147.13 271.929 147.053 271.684 146.947C271.438 146.845 271.207 146.719 270.987 146.568C270.767 146.416 270.561 146.245 270.376 146.054C270.187 145.862 270.021 145.654 269.873 145.428C269.724 145.205 269.602 144.965 269.499 144.717C269.399 144.466 269.322 144.209 269.27 143.943C269.219 143.677 269.193 143.409 269.193 143.138C269.193 142.866 269.219 142.601 269.27 142.335C269.322 142.069 269.399 141.81 269.499 141.561C269.602 141.31 269.724 141.073 269.873 140.847C270.021 140.621 270.187 140.413 270.376 140.222C270.561 140.03 270.767 139.859 270.987 139.71C271.207 139.559 271.438 139.431 271.684 139.328C271.929 139.225 272.18 139.145 272.44 139.094C272.7 139.039 272.963 139.014 273.226 139.014C273.491 139.014 273.754 139.039 274.014 139.094C274.274 139.145 274.525 139.225 274.771 139.328C275.016 139.431 275.248 139.559 275.468 139.71C275.687 139.859 275.893 140.03 276.079 140.222C276.267 140.413 276.433 140.621 276.581 140.847C276.727 141.073 276.853 141.31 276.953 141.561C277.055 141.81 277.133 142.069 277.184 142.335C277.235 142.598 277.261 142.866 277.261 143.138Z" fill="#C2C400"/>
<path d="M221.821 98.6924C221.821 98.9638 221.795 99.2322 221.744 99.4978C221.692 99.7634 221.615 100.02 221.512 100.272C221.412 100.52 221.287 100.757 221.141 100.983C220.993 101.209 220.827 101.417 220.638 101.608C220.453 101.8 220.247 101.971 220.027 102.122C219.807 102.271 219.576 102.4 219.33 102.502C219.085 102.605 218.833 102.685 218.574 102.737C218.314 102.791 218.051 102.816 217.788 102.816C217.523 102.816 217.26 102.791 217 102.737C216.74 102.685 216.489 102.605 216.243 102.502C215.998 102.4 215.766 102.271 215.546 102.122C215.327 101.971 215.121 101.8 214.935 101.608C214.747 101.417 214.581 101.209 214.433 100.983C214.287 100.757 214.161 100.52 214.059 100.272C213.959 100.02 213.881 99.7634 213.83 99.4978C213.779 99.2322 213.753 98.9638 213.753 98.6924C213.753 98.4211 213.779 98.1527 213.83 97.8871C213.881 97.6214 213.959 97.3644 214.059 97.1131C214.161 96.8646 214.287 96.6276 214.433 96.4019C214.581 96.1763 214.747 95.9678 214.935 95.7765C215.121 95.5851 215.327 95.4138 215.546 95.2624C215.766 95.1139 215.998 94.9854 216.243 94.8825C216.489 94.7797 216.74 94.6998 217 94.6484C217.26 94.5941 217.523 94.5684 217.788 94.5684C218.051 94.5684 218.314 94.5941 218.574 94.6484C218.833 94.6998 219.085 94.7797 219.33 94.8825C219.576 94.9854 219.807 95.1139 220.027 95.2624C220.247 95.4138 220.453 95.5851 220.638 95.7765C220.827 95.9678 220.993 96.1763 221.141 96.4019C221.287 96.6276 221.412 96.8646 221.512 97.1131C221.615 97.3644 221.692 97.6214 221.744 97.8871C221.795 98.1527 221.821 98.4211 221.821 98.6924Z" fill="#C2C400"/>
<mask id="mask5_98_5196" style="mask-type:luminance" maskUnits="userSpaceOnUse" x="232" y="109" width="16" height="146">
<path d="M232.693 109.459H247.315L247.315 254.195H232.693L232.693 109.459Z" fill="white"/>
</mask>
<g mask="url(#mask5_98_5196)">
<path fill-rule="evenodd" clip-rule="evenodd" d="M241.894 109.62L237.864 109.703L233.357 254.153L246.677 254.196L241.894 109.62Z" fill="#8A5132"/>
</g>
<path fill-rule="evenodd" clip-rule="evenodd" d="M240.161 195.79L260.221 158.328L262.114 161.096L241.866 212.918L240.161 195.79Z" fill="#8A5132"/>
<path fill-rule="evenodd" clip-rule="evenodd" d="M237.502 183.881L238.253 175.253L215.735 147.262L213.753 150.563L237.502 183.881Z" fill="#8A5132"/>
<path fill-rule="evenodd" clip-rule="evenodd" d="M145.214 189.244C259.51 181.756 180.474 -3.17232 145.214 0.0414017C99.0991 4.24781 36.8916 187.826 145.214 189.244Z" fill="#6F9932"/>
<mask id="mask6_98_5196" style="mask-type:luminance" maskUnits="userSpaceOnUse" x="85" y="2" width="120" height="188">
<path d="M85 2.6084L204.891 2.6084L204.891 189.29L85 189.29L85 2.6084Z" fill="white"/>
</mask>
<g mask="url(#mask6_98_5196)">
<mask id="mask7_98_5196" style="mask-type:luminance" maskUnits="userSpaceOnUse" x="85" y="-1" width="120" height="191">
<path fill-rule="evenodd" clip-rule="evenodd" d="M145.214 189.243C259.51 181.755 180.474 -3.1733 145.214 0.0404251C99.0993 4.24683 36.8917 187.825 145.214 189.243Z" fill="white"/>
</mask>
<g mask="url(#mask7_98_5196)">
<path fill-rule="evenodd" clip-rule="evenodd" d="M78.6587 149.718C78.6587 149.718 138.535 218.963 182.825 123.252C194.776 97.4276 194.351 49.736 182.718 14.3922C171.081 -20.9552 219.588 36.549 219.588 36.549C219.588 36.549 229.439 131.8 229.097 134.842C228.75 137.888 219.97 200.531 215.532 205.116C211.093 209.701 92.4413 218.528 92.4413 218.528C92.4413 218.528 63.7156 180.513 63.4192 176.649C63.1229 172.786 78.6587 149.718 78.6587 149.718Z" fill="#5F8B20"/>
</g>
</g>
<path d="M145.215 31.0045C145.215 31.5972 145.158 32.1864 145.044 32.7684C144.933 33.3541 144.765 33.9182 144.54 34.4681C144.319 35.018 144.047 35.5394 143.722 36.0322C143.401 36.5249 143.033 36.982 142.623 37.4033C142.212 37.8247 141.766 38.1996 141.28 38.5281C140.798 38.8602 140.287 39.1388 139.752 39.3637C139.213 39.5922 138.659 39.7636 138.092 39.8815C137.52 39.9957 136.945 40.0529 136.363 40.0529C135.781 40.0529 135.206 39.9957 134.635 39.8815C134.067 39.7636 133.514 39.5922 132.975 39.3637C132.439 39.1388 131.929 38.8602 131.447 38.5281C130.961 38.1996 130.515 37.8247 130.104 37.4033C129.693 36.982 129.326 36.5249 129.004 36.0322C128.679 35.5394 128.408 35.018 128.187 34.4681C127.962 33.9182 127.794 33.3541 127.683 32.7684C127.569 32.1864 127.512 31.5972 127.512 31.0045C127.512 30.4117 127.569 29.8225 127.683 29.2405C127.794 28.6549 127.962 28.0907 128.187 27.5408C128.408 26.9909 128.679 26.4695 129.004 25.9768C129.326 25.484 129.693 25.0269 130.104 24.6056C130.515 24.1842 130.961 23.8093 131.447 23.4808C131.929 23.1487 132.439 22.8702 132.975 22.6452C133.514 22.4167 134.067 22.2453 134.635 22.1275C135.206 22.0132 135.781 21.9561 136.363 21.9561C136.945 21.9561 137.52 22.0132 138.092 22.1275C138.659 22.2453 139.213 22.4167 139.752 22.6452C140.287 22.8702 140.798 23.1487 141.28 23.4808C141.766 23.8093 142.212 24.1842 142.623 24.6056C143.033 25.0269 143.401 25.484 143.722 25.9768C144.047 26.4695 144.319 26.9909 144.54 27.5408C144.765 28.0907 144.933 28.6549 145.044 29.2405C145.158 29.8225 145.215 30.4117 145.215 31.0045Z" fill="#C2C400"/>
<path d="M181.514 94.6217C181.514 95.218 181.457 95.8072 181.342 96.3892C181.228 96.9712 181.06 97.539 180.839 98.0853C180.618 98.6352 180.343 99.1566 180.021 99.6493C179.696 100.146 179.332 100.603 178.918 101.021C178.507 101.442 178.061 101.817 177.579 102.149C177.093 102.477 176.586 102.756 176.047 102.984C175.512 103.213 174.958 103.384 174.387 103.499C173.819 103.617 173.241 103.674 172.662 103.674C172.08 103.674 171.505 103.617 170.934 103.499C170.363 103.384 169.809 103.213 169.274 102.984C168.738 102.756 168.227 102.477 167.742 102.149C167.26 101.817 166.813 101.442 166.403 101.021C165.992 100.603 165.624 100.146 165.3 99.6493C164.978 99.1566 164.707 98.6352 164.482 98.0853C164.26 97.539 164.093 96.9712 163.978 96.3892C163.864 95.8072 163.811 95.218 163.811 94.6217C163.811 94.0289 163.864 93.4397 163.978 92.8577C164.093 92.2756 164.26 91.7079 164.482 91.1615C164.707 90.6116 164.978 90.0903 165.3 89.594C165.624 89.1012 165.992 88.6441 166.403 88.2228C166.813 87.805 167.26 87.4301 167.742 87.098C168.227 86.7695 168.738 86.4909 169.274 86.2624C169.809 86.0339 170.363 85.8625 170.934 85.7482C171.505 85.6304 172.08 85.5732 172.662 85.5732C173.241 85.5732 173.819 85.6304 174.387 85.7482C174.958 85.8625 175.512 86.0339 176.047 86.2624C176.586 86.4909 177.093 86.7695 177.579 87.098C178.061 87.4301 178.507 87.805 178.918 88.2228C179.332 88.6441 179.696 89.1012 180.021 89.594C180.343 90.0903 180.618 90.6116 180.839 91.1615C181.06 91.7079 181.228 92.2756 181.342 92.8577C181.457 93.4397 181.514 94.0289 181.514 94.6217Z" fill="#C2C400"/>
<path d="M191.601 111.447C191.601 111.787 191.569 112.122 191.504 112.454C191.44 112.787 191.344 113.108 191.215 113.422C191.09 113.733 190.933 114.033 190.751 114.311C190.565 114.593 190.358 114.854 190.122 115.093C189.89 115.333 189.633 115.547 189.358 115.736C189.083 115.925 188.794 116.082 188.487 116.211C188.18 116.343 187.866 116.439 187.541 116.507C187.216 116.572 186.887 116.604 186.555 116.604C186.227 116.604 185.898 116.572 185.573 116.507C185.249 116.439 184.934 116.343 184.627 116.211C184.32 116.082 184.031 115.925 183.756 115.736C183.481 115.547 183.224 115.333 182.992 115.093C182.756 114.854 182.549 114.593 182.363 114.311C182.178 114.033 182.024 113.733 181.896 113.422C181.771 113.108 181.674 112.787 181.61 112.454C181.546 112.122 181.514 111.787 181.514 111.447C181.514 111.108 181.546 110.776 181.61 110.444C181.674 110.112 181.771 109.787 181.896 109.476C182.024 109.162 182.178 108.866 182.363 108.584C182.549 108.302 182.756 108.041 182.992 107.802C183.224 107.562 183.481 107.348 183.756 107.163C184.031 106.973 184.32 106.813 184.627 106.684C184.934 106.555 185.249 106.455 185.573 106.391C185.898 106.323 186.227 106.291 186.555 106.291C186.887 106.291 187.216 106.323 187.541 106.391C187.866 106.455 188.18 106.555 188.487 106.684C188.794 106.813 189.083 106.973 189.358 107.163C189.633 107.348 189.89 107.562 190.122 107.802C190.358 108.041 190.565 108.302 190.751 108.584C190.933 108.866 191.09 109.162 191.215 109.476C191.344 109.787 191.44 110.112 191.504 110.444C191.569 110.773 191.601 111.108 191.601 111.447Z" fill="#C2C400"/>
<path d="M122.284 55.8779C122.284 56.2171 122.252 56.5528 122.188 56.8849C122.124 57.217 122.027 57.5383 121.899 57.8526C121.774 58.1632 121.617 58.4596 121.434 58.7417C121.249 59.0238 121.042 59.2845 120.806 59.5237C120.574 59.763 120.317 59.9772 120.042 60.1665C119.767 60.3521 119.478 60.5128 119.171 60.6414C118.864 60.7699 118.549 60.8699 118.224 60.9342C117.9 61.002 117.571 61.0342 117.243 61.0342C116.91 61.0342 116.582 61.002 116.257 60.9342C115.932 60.8699 115.618 60.7699 115.311 60.6414C115.004 60.5128 114.715 60.3521 114.44 60.1665C114.165 59.9772 113.908 59.763 113.676 59.5237C113.44 59.2845 113.233 59.0238 113.047 58.7417C112.865 58.4596 112.708 58.1632 112.579 57.8526C112.454 57.5383 112.358 57.217 112.294 56.8849C112.229 56.5528 112.197 56.2171 112.197 55.8779C112.197 55.5387 112.229 55.203 112.294 54.871C112.358 54.5389 112.454 54.2175 112.579 53.9033C112.708 53.5926 112.865 53.2962 113.047 53.0141C113.233 52.732 113.44 52.4714 113.676 52.2321C113.908 51.9929 114.165 51.7786 114.44 51.5894C114.715 51.4037 115.004 51.243 115.311 51.1145C115.618 50.9859 115.932 50.8859 116.257 50.8217C116.582 50.7538 116.91 50.7217 117.243 50.7217C117.571 50.7217 117.9 50.7538 118.224 50.8217C118.549 50.8859 118.864 50.9859 119.171 51.1145C119.478 51.243 119.767 51.4037 120.042 51.5894C120.317 51.7786 120.574 51.9929 120.806 52.2321C121.042 52.4714 121.249 52.732 121.434 53.0141C121.617 53.2962 121.774 53.5926 121.899 53.9033C122.027 54.2175 122.124 54.5389 122.188 54.871C122.252 55.203 122.284 55.5387 122.284 55.8779Z" fill="#C2C400"/>
<mask id="mask8_98_5196" style="mask-type:luminance" maskUnits="userSpaceOnUse" x="135" y="69" width="20" height="182">
<path d="M135.879 69.3408H154.161L154.161 250.302H135.879L135.879 69.3408Z" fill="white"/>
</mask>
<g mask="url(#mask8_98_5196)">
<path fill-rule="evenodd" clip-rule="evenodd" d="M147.381 69.542L142.342 69.6455L136.708 250.25L153.361 250.303L147.381 69.542Z" fill="#8A5132"/>
</g>
<path fill-rule="evenodd" clip-rule="evenodd" d="M145.215 177.278L170.295 130.439L172.662 133.9L147.347 198.692L145.215 177.278Z" fill="#8A5132"/>
<path fill-rule="evenodd" clip-rule="evenodd" d="M141.891 162.388L142.83 151.601L114.675 116.604L112.197 120.731L141.891 162.388Z" fill="#8A5132"/>
</svg>
