<svg width="335" height="30" viewBox="0 0 335 30" fill="none" xmlns="http://www.w3.org/2000/svg">
<path d="M0.890923 1.80606C0.630389 1.71453 0.493378 1.42913 0.584902 1.1686C0.676425 0.908064 0.961824 0.771054 1.22236 0.862577L0.890923 1.80606ZM334.068 1.33432L330.293 5.7027L328.397 0.249274L334.068 1.33432ZM1.22236 0.862577C2.17206 1.1962 3.12387 1.52706 4.07776 1.85513L3.75253 2.80076C2.79657 2.47198 1.8427 2.1404 0.890923 1.80606L1.22236 0.862577ZM9.81246 3.78564C11.7244 4.41544 13.6445 5.03413 15.5724 5.64162L15.2719 6.5954C13.3398 5.98661 11.4157 5.36659 9.4996 4.73544L9.81246 3.78564ZM21.3534 7.42235C23.2804 8.00243 25.2151 8.5714 27.1572 9.12913L26.8812 10.0903C24.935 9.53138 22.9962 8.96122 21.0651 8.37991L21.3534 7.42235ZM32.983 10.7622C34.9246 11.2932 36.8735 11.8131 38.8295 12.3218L38.5778 13.2896C36.6178 12.7799 34.6648 12.2589 32.7192 11.7268L32.983 10.7622ZM44.6956 13.8081C46.6499 14.2903 48.611 14.7613 50.5789 15.221L50.3514 16.1948C48.3795 15.7341 46.4143 15.2622 44.456 14.779L44.6956 13.8081ZM56.4782 16.5609C58.4437 16.9946 60.4157 17.4171 62.3941 17.8283L62.1906 18.8073C60.2083 18.3953 58.2323 17.972 56.2627 17.5374L56.4782 16.5609ZM68.3255 19.0234C70.3014 19.409 72.2834 19.7833 74.2714 20.1464L74.0917 21.1301C72.0998 20.7664 70.1138 20.3912 68.1339 20.0048L68.3255 19.0234ZM80.2308 21.1976C82.2157 21.5354 84.2064 21.8619 86.2028 22.1771L86.0468 23.1649C84.0465 22.8491 82.0519 22.5219 80.063 22.1834L80.2308 21.1976ZM92.1841 23.0849C94.176 23.3751 96.1734 23.654 98.1761 23.9216L98.0437 24.9128C96.0371 24.6447 94.0358 24.3652 92.0399 24.0745L92.1841 23.0849ZM104.178 24.6873C106.176 24.9303 108.18 25.162 110.189 25.3823L110.08 26.3764C108.067 26.1556 106.06 25.9235 104.057 25.68L104.178 24.6873ZM116.207 26.0069C118.211 26.203 120.22 26.3878 122.233 26.5611L122.147 27.5575C120.13 27.3838 118.118 27.1986 116.11 27.0021L116.207 26.0069ZM128.265 27.0453C130.273 27.1948 132.286 27.333 134.303 27.4597L134.24 28.4577C132.219 28.3308 130.203 28.1924 128.191 28.0426L128.265 27.0453ZM140.344 27.8044C142.354 27.9075 144.369 27.9993 146.388 28.0796L146.348 29.0788C144.325 28.9983 142.307 28.9064 140.292 28.803L140.344 27.8044ZM152.435 28.2857C154.447 28.3428 156.464 28.3886 158.484 28.4229L158.467 29.4228C156.443 29.3884 154.423 29.3425 152.406 29.2853L152.435 28.2857ZM164.534 28.4914C165.543 28.4971 166.552 28.5 167.562 28.5V29.5C166.55 29.5 165.539 29.4971 164.529 29.4914L164.534 28.4914ZM167.562 28.5C168.572 28.5 169.582 28.4971 170.59 28.4914L170.596 29.4914C169.585 29.4971 168.574 29.5 167.562 29.5V28.5ZM176.641 28.4229C178.661 28.3886 180.677 28.3428 182.69 28.2857L182.718 29.2853C180.702 29.3425 178.682 29.3884 176.658 29.4228L176.641 28.4229ZM188.737 28.0796C190.756 27.9993 192.77 27.9075 194.781 27.8044L194.832 28.803C192.818 28.9064 190.799 28.9983 188.777 29.0788L188.737 28.0796ZM200.822 27.4597C202.839 27.333 204.851 27.1948 206.859 27.0454L206.933 28.0426C204.921 28.1924 202.905 28.3308 200.884 28.4577L200.822 27.4597ZM212.891 26.5612C214.905 26.3878 216.913 26.203 218.917 26.0069L219.015 27.0021C217.007 27.1986 214.994 27.3838 212.977 27.5575L212.891 26.5612ZM224.936 25.3824C226.944 25.162 228.948 24.9303 230.947 24.6873L231.067 25.68C229.065 25.9235 227.057 26.1556 225.045 26.3764L224.936 25.3824ZM236.948 23.9216C238.951 23.654 240.948 23.3751 242.94 23.0849L243.085 24.0745C241.089 24.3652 239.087 24.6447 237.081 24.9128L236.948 23.9216ZM248.922 22.1771C250.918 21.8619 252.909 21.5354 254.894 21.1976L255.061 22.1834C253.073 22.5219 251.078 22.8491 249.078 23.1649L248.922 22.1771ZM260.853 20.1464C262.841 19.7834 264.823 19.409 266.799 19.0234L266.991 20.0048C265.011 20.3912 263.025 20.7664 261.033 21.1301L260.853 20.1464ZM272.73 17.8283C274.709 17.4171 276.681 16.9946 278.646 16.5609L278.862 17.5374C276.892 17.972 274.916 18.3953 272.934 18.8074L272.73 17.8283ZM284.546 15.221C286.513 14.7613 288.475 14.2903 290.429 13.8081L290.668 14.779C288.71 15.2622 286.745 15.7341 284.773 16.1948L284.546 15.221ZM296.295 12.3218C298.251 11.8131 300.2 11.2932 302.141 10.7622L302.405 11.7268C300.46 12.2589 298.507 12.7799 296.547 13.2896L296.295 12.3218ZM307.967 9.12913C309.909 8.5714 311.844 8.00244 313.771 7.42235L314.059 8.37991C312.128 8.96122 310.19 9.53138 308.243 10.0903L307.967 9.12913ZM319.552 5.64162C321.48 5.03413 323.4 4.41543 325.312 3.78564L325.625 4.73544C323.709 5.36659 321.785 5.98661 319.853 6.5954L319.552 5.64162ZM0.890923 1.80606C0.630389 1.71453 0.493378 1.42913 0.584902 1.1686C0.676425 0.908064 0.961824 0.771054 1.22236 0.862577L0.890923 1.80606ZM334.068 1.33432L330.293 5.7027L328.397 0.249274L334.068 1.33432ZM1.22236 0.862577C2.17206 1.1962 3.12387 1.52706 4.07776 1.85513L3.75253 2.80076C2.79657 2.47198 1.8427 2.1404 0.890923 1.80606L1.22236 0.862577ZM9.81246 3.78564C11.7244 4.41544 13.6445 5.03413 15.5724 5.64162L15.2719 6.5954C13.3398 5.98661 11.4157 5.36659 9.4996 4.73544L9.81246 3.78564ZM21.3534 7.42235C23.2804 8.00243 25.2151 8.5714 27.1572 9.12913L26.8812 10.0903C24.935 9.53138 22.9962 8.96122 21.0651 8.37991L21.3534 7.42235ZM32.983 10.7622C34.9246 11.2932 36.8735 11.8131 38.8295 12.3218L38.5778 13.2896C36.6178 12.7799 34.6648 12.2589 32.7192 11.7268L32.983 10.7622ZM44.6956 13.8081C46.6499 14.2903 48.611 14.7613 50.5789 15.221L50.3514 16.1948C48.3795 15.7341 46.4143 15.2622 44.456 14.779L44.6956 13.8081ZM56.4782 16.5609C58.4437 16.9946 60.4157 17.4171 62.3941 17.8283L62.1906 18.8073C60.2083 18.3953 58.2323 17.972 56.2627 17.5374L56.4782 16.5609ZM68.3255 19.0234C70.3014 19.409 72.2834 19.7833 74.2714 20.1464L74.0917 21.1301C72.0998 20.7664 70.1138 20.3912 68.1339 20.0048L68.3255 19.0234ZM80.2308 21.1976C82.2157 21.5354 84.2064 21.8619 86.2028 22.1771L86.0468 23.1649C84.0465 22.8491 82.0519 22.5219 80.063 22.1834L80.2308 21.1976ZM92.1841 23.0849C94.176 23.3751 96.1734 23.654 98.1761 23.9216L98.0437 24.9128C96.0371 24.6447 94.0358 24.3652 92.0399 24.0745L92.1841 23.0849ZM104.178 24.6873C106.176 24.9303 108.18 25.162 110.189 25.3823L110.08 26.3764C108.067 26.1556 106.06 25.9235 104.057 25.68L104.178 24.6873ZM116.207 26.0069C118.211 26.203 120.22 26.3878 122.233 26.5611L122.147 27.5575C120.13 27.3838 118.118 27.1986 116.11 27.0021L116.207 26.0069ZM128.265 27.0453C130.273 27.1948 132.286 27.333 134.303 27.4597L134.24 28.4577C132.219 28.3308 130.203 28.1924 128.191 28.0426L128.265 27.0453ZM140.344 27.8044C142.354 27.9075 144.369 27.9993 146.388 28.0796L146.348 29.0788C144.325 28.9983 142.307 28.9064 140.292 28.803L140.344 27.8044ZM152.435 28.2857C154.447 28.3428 156.464 28.3886 158.484 28.4229L158.467 29.4228C156.443 29.3884 154.423 29.3425 152.406 29.2853L152.435 28.2857ZM164.534 28.4914C165.543 28.4971 166.552 28.5 167.562 28.5V29.5C166.55 29.5 165.539 29.4971 164.529 29.4914L164.534 28.4914ZM167.562 28.5C168.572 28.5 169.582 28.4971 170.59 28.4914L170.596 29.4914C169.585 29.4971 168.574 29.5 167.562 29.5V28.5ZM176.641 28.4229C178.661 28.3886 180.677 28.3428 182.69 28.2857L182.718 29.2853C180.702 29.3425 178.682 29.3884 176.658 29.4228L176.641 28.4229ZM188.737 28.0796C190.756 27.9993 192.77 27.9075 194.781 27.8044L194.832 28.803C192.818 28.9064 190.799 28.9983 188.777 29.0788L188.737 28.0796ZM200.822 27.4597C202.839 27.333 204.851 27.1948 206.859 27.0454L206.933 28.0426C204.921 28.1924 202.905 28.3308 200.884 28.4577L200.822 27.4597ZM212.891 26.5612C214.905 26.3878 216.913 26.203 218.917 26.0069L219.015 27.0021C217.007 27.1986 214.994 27.3838 212.977 27.5575L212.891 26.5612ZM224.936 25.3824C226.944 25.162 228.948 24.9303 230.947 24.6873L231.067 25.68C229.065 25.9235 227.057 26.1556 225.045 26.3764L224.936 25.3824ZM236.948 23.9216C238.951 23.654 240.948 23.3751 242.94 23.0849L243.085 24.0745C241.089 24.3652 239.087 24.6447 237.081 24.9128L236.948 23.9216ZM248.922 22.1771C250.918 21.8619 252.909 21.5354 254.894 21.1976L255.061 22.1834C253.073 22.5219 251.078 22.8491 249.078 23.1649L248.922 22.1771ZM260.853 20.1464C262.841 19.7834 264.823 19.409 266.799 19.0234L266.991 20.0048C265.011 20.3912 263.025 20.7664 261.033 21.1301L260.853 20.1464ZM272.73 17.8283C274.709 17.4171 276.681 16.9946 278.646 16.5609L278.862 17.5374C276.892 17.972 274.916 18.3953 272.934 18.8074L272.73 17.8283ZM284.546 15.221C286.513 14.7613 288.475 14.2903 290.429 13.8081L290.668 14.779C288.71 15.2622 286.745 15.7341 284.773 16.1948L284.546 15.221ZM296.295 12.3218C298.251 11.8131 300.2 11.2932 302.141 10.7622L302.405 11.7268C300.46 12.2589 298.507 12.7799 296.547 13.2896L296.295 12.3218ZM307.967 9.12913C309.909 8.5714 311.844 8.00244 313.771 7.42235L314.059 8.37991C312.128 8.96122 310.19 9.53138 308.243 10.0903L307.967 9.12913ZM319.552 5.64162C321.48 5.03413 323.4 4.41543 325.312 3.78564L325.625 4.73544C323.709 5.36659 321.785 5.98661 319.853 6.5954L319.552 5.64162Z" fill="#1B1D21"/>
</svg>
