<svg width="48" height="48" viewBox="0 0 48 48" fill="none" xmlns="http://www.w3.org/2000/svg">
<path d="M43.4344 36.4781L37.2113 6.89062C37.1308 6.5037 36.9746 6.13649 36.7518 5.81009C36.529 5.4837 36.2438 5.20455 35.9128 4.98868C35.5818 4.7728 35.2113 4.62447 34.8228 4.55219C34.4343 4.47991 34.0353 4.48511 33.6488 4.56749L24.8719 6.45374C24.0955 6.62373 23.4177 7.09337 22.9858 7.76051C22.5539 8.42766 22.4029 9.23834 22.5656 10.0162L28.7887 39.6037C28.9274 40.2788 29.2943 40.8855 29.8277 41.3219C30.361 41.7583 31.0284 41.9977 31.7175 42C31.9305 41.9997 32.1429 41.9771 32.3512 41.9325L41.1281 40.0462C41.9054 39.8759 42.5839 39.4053 43.0159 38.737C43.4478 38.0687 43.5982 37.2568 43.4344 36.4781ZM25.5 9.40312C25.5 9.39187 25.5 9.38624 25.5 9.38624L34.275 7.51124L34.8994 10.4869L26.1244 12.375L25.5 9.40312ZM26.7412 15.3037L35.52 13.4194L36.1462 16.4006L27.375 18.2869L26.7412 15.3037ZM27.9862 21.2231L36.765 19.3369L39.2588 31.1944L30.48 33.0806L27.9862 21.2231ZM40.5 37.1137L31.725 38.9887L31.1006 36.0131L39.8756 34.125L40.5 37.0969C40.5 37.1081 40.5 37.1137 40.5 37.1137ZM19.5 5.99999H10.5C9.70435 5.99999 8.94129 6.31606 8.37868 6.87867C7.81607 7.44128 7.5 8.20434 7.5 8.99999V39C7.5 39.7956 7.81607 40.5587 8.37868 41.1213C8.94129 41.6839 9.70435 42 10.5 42H19.5C20.2956 42 21.0587 41.6839 21.6213 41.1213C22.1839 40.5587 22.5 39.7956 22.5 39V8.99999C22.5 8.20434 22.1839 7.44128 21.6213 6.87867C21.0587 6.31606 20.2956 5.99999 19.5 5.99999ZM10.5 8.99999H19.5V12H10.5V8.99999ZM10.5 15H19.5V33H10.5V15ZM19.5 39H10.5V36H19.5V39Z" fill="#FFFAE6"/>
</svg>
