<svg width="48" height="48" viewBox="0 0 48 48" fill="none" xmlns="http://www.w3.org/2000/svg">
<path d="M43.5 13.5H30C28.8357 13.5 27.6873 13.7711 26.6459 14.2918C25.6045 14.8125 24.6986 15.5685 24 16.5C23.3014 15.5685 22.3955 14.8125 21.3541 14.2918C20.3127 13.7711 19.1643 13.5 18 13.5H4.5C4.10218 13.5 3.72064 13.6581 3.43934 13.9394C3.15804 14.2207 3 14.6022 3 15V37.5C3 37.8978 3.15804 38.2794 3.43934 38.5607C3.72064 38.842 4.10218 39 4.5 39H18C19.1935 39 20.3381 39.4741 21.182 40.318C22.0259 41.1619 22.5 42.3065 22.5 43.5C22.5 43.8978 22.658 44.2794 22.9393 44.5607C23.2206 44.842 23.6022 45 24 45C24.3978 45 24.7794 44.842 25.0607 44.5607C25.342 44.2794 25.5 43.8978 25.5 43.5C25.5 42.3065 25.9741 41.1619 26.818 40.318C27.6619 39.4741 28.8065 39 30 39H43.5C43.8978 39 44.2794 38.842 44.5607 38.5607C44.842 38.2794 45 37.8978 45 37.5V15C45 14.6022 44.842 14.2207 44.5607 13.9394C44.2794 13.6581 43.8978 13.5 43.5 13.5ZM18 36H6V16.5H18C19.1935 16.5 20.3381 16.9741 21.182 17.818C22.0259 18.6619 22.5 19.8065 22.5 21V37.5C21.203 36.524 19.6232 35.9974 18 36ZM42 36H30C28.3768 35.9974 26.797 36.524 25.5 37.5V21C25.5 19.8065 25.9741 18.6619 26.818 17.818C27.6619 16.9741 28.8065 16.5 30 16.5H42V36ZM16.8 8.09814C17.6383 6.98037 18.7254 6.07314 19.9751 5.44829C21.2248 4.82344 22.6028 4.49814 24 4.49814C25.3972 4.49814 26.7752 4.82344 28.0249 5.44829C29.2746 6.07314 30.3617 6.98037 31.2 8.09814C31.4392 8.41615 31.5423 8.81615 31.4865 9.21016C31.4308 9.60416 31.2208 9.95988 30.9028 10.1991C30.5848 10.4383 30.1848 10.5413 29.7908 10.4856C29.3968 10.4299 29.0411 10.2199 28.8019 9.90189C28.2431 9.156 27.5182 8.55054 26.6847 8.13352C25.8512 7.7165 24.932 7.49939 24 7.49939C23.068 7.49939 22.1488 7.7165 21.3153 8.13352C20.4818 8.55054 19.7569 9.156 19.1981 9.90189C19.0797 10.0594 18.9314 10.1919 18.7617 10.2921C18.592 10.3923 18.4043 10.458 18.2092 10.4856C18.0141 10.5132 17.8155 10.5021 17.6247 10.4529C17.4339 10.4038 17.2547 10.3175 17.0972 10.1991C16.9397 10.0806 16.8071 9.93235 16.707 9.76267C16.6068 9.59299 16.5411 9.40525 16.5135 9.21016C16.4859 9.01507 16.497 8.81645 16.5461 8.62565C16.5953 8.43485 16.6816 8.2556 16.8 8.09814Z" fill="#FFFAE6"/>
</svg>
