<svg width="48" height="48" viewBox="0 0 48 48" fill="none" xmlns="http://www.w3.org/2000/svg">
<path d="M44.1225 33.75L37.3275 26.9531L30.4912 4.39874C30.297 3.75651 29.9473 3.17211 29.4732 2.6973C28.9991 2.22249 28.4152 1.87194 27.7733 1.67669C27.1314 1.48144 26.4512 1.44752 25.793 1.57793C25.1348 1.70835 24.519 1.99908 24 2.42436C23.481 1.99908 22.8652 1.70835 22.207 1.57793C21.5488 1.44752 20.8686 1.48144 20.2267 1.67669C19.5848 1.87194 19.0009 2.22249 18.5268 2.6973C18.0527 3.17211 17.703 3.75651 17.5087 4.39874L10.6725 26.955L3.8775 33.75C3.31531 34.3125 2.99951 35.0753 2.99951 35.8706C2.99951 36.6659 3.31531 37.4287 3.8775 37.9912L10.0069 44.1206C10.2855 44.3993 10.6162 44.6203 10.9802 44.7711C11.3442 44.9219 11.7344 44.9995 12.1284 44.9995C12.5225 44.9995 12.9126 44.9219 13.2766 44.7711C13.6407 44.6203 13.9714 44.3993 14.25 44.1206L23.3025 35.0625C23.5534 34.8109 23.7865 34.5422 24 34.2581C24.2135 34.5422 24.4465 34.8109 24.6975 35.0625L33.75 44.1225C34.0286 44.4011 34.3593 44.6222 34.7233 44.773C35.0874 44.9238 35.4775 45.0014 35.8716 45.0014C36.2656 45.0014 36.6557 44.9238 37.0198 44.773C37.3838 44.6222 37.7145 44.4011 37.9931 44.1225L44.1225 37.9931C44.4011 37.7145 44.6222 37.3838 44.773 37.0198C44.9238 36.6557 45.0014 36.2656 45.0014 35.8715C45.0014 35.4775 44.9238 35.0874 44.773 34.7233C44.6222 34.3593 44.4011 34.0286 44.1225 33.75ZM12.1275 42L6 35.8725L8.37937 33.4931L14.5087 39.6225L12.1275 42ZM22.5 29.7656C22.503 30.3573 22.3885 30.9438 22.1632 31.4909C21.9379 32.0381 21.6063 32.5351 21.1875 32.9531L16.6275 37.5L10.5 31.3725L13.0594 28.8112C13.234 28.6365 13.3628 28.4214 13.4344 28.185L20.3719 5.26874C20.4422 5.01373 20.6034 4.79327 20.8251 4.6489C21.0468 4.50453 21.3136 4.44621 21.5753 4.48495C21.8369 4.52368 22.0754 4.65679 22.2458 4.85918C22.4161 5.06158 22.5065 5.31928 22.5 5.58374V29.7656ZM26.8125 32.9531C26.3937 32.5351 26.0621 32.0381 25.8368 31.4909C25.6115 30.9438 25.497 30.3573 25.5 29.7656V5.57811C25.5001 5.31832 25.5934 5.0672 25.7631 4.87049C25.9328 4.67378 26.1675 4.54458 26.4245 4.50641C26.6815 4.46824 26.9436 4.52364 27.1632 4.66253C27.3827 4.80142 27.545 5.01456 27.6206 5.26311L34.5581 28.1794C34.6296 28.4158 34.7585 28.6309 34.9331 28.8056L37.65 31.5225L31.3875 37.5225L26.8125 32.9531ZM35.8725 42L33.5175 39.6431L39.7781 33.6431L42 35.8725L35.8725 42Z" fill="#FFFAE6"/>
</svg>
