<svg width="416" height="407" viewBox="0 0 416 407" fill="none" xmlns="http://www.w3.org/2000/svg">
<path opacity="0.1" d="M160.917 0.598472C163.786 0.754283 166.544 0.776097 169.28 1.0846C171.273 1.30585 173.244 1.90105 175.213 2.31863C176.77 2.64895 178.323 2.91382 179.855 3.26596C181.456 3.61809 183.053 3.99515 184.65 4.3691C187.082 4.94248 189.512 5.45043 191.92 6.15469C194.832 7.01477 197.723 8.02754 200.589 8.99669C202.737 9.72588 204.904 10.4083 207.005 11.203C212.347 13.2534 217.448 15.8087 222.53 18.4326C227.083 20.7698 230.85 24.0543 234.199 27.8249C236.696 30.6451 238.535 33.9514 239.915 37.4353C240.766 39.573 241.249 41.8666 241.927 44.0947C242.63 46.3851 242.608 48.7659 242.893 51.1031C243.199 53.5275 242.825 55.8865 242.673 58.2454C242.497 61.0469 241.642 63.8671 240.766 66.5564C239.717 69.8409 238.492 73.1036 237.046 76.2354C235.907 78.7034 234.332 80.9752 232.951 83.3559C232.205 84.6554 231.528 86.0016 230.717 87.2793C229.732 88.8218 228.658 90.3207 227.588 91.8196C226.077 93.9573 224.588 96.0982 223.01 98.1673C221.413 100.24 219.704 102.225 218.086 104.275C216.507 106.26 214.997 108.264 213.443 110.271C212.787 111.109 212.106 111.925 211.428 112.742C209.24 115.384 206.984 117.987 204.86 120.698C202.669 123.499 200.568 126.385 198.509 129.295C195.903 133 193.43 136.815 190.824 140.517C188.002 144.506 185.854 148.85 183.907 153.281C182.353 156.852 180.908 160.51 179.834 164.259C179.023 167.079 178.432 169.968 178.06 172.944C177.646 176.294 177.689 179.6 177.797 182.91C177.93 187.185 179.286 191.043 182.133 194.459C183.402 195.982 184.826 197.26 186.336 198.407C187.605 199.398 189.249 200.015 190.803 200.501C192.007 200.897 193.387 201.074 194.656 200.94C196.473 200.722 198.293 200.28 200.02 199.641C202.496 198.737 204.969 197.746 207.247 196.465C210.224 194.792 213.05 192.785 215.894 190.887C218.216 189.345 220.515 187.737 222.815 186.126C224.827 184.717 226.712 183.084 228.857 181.894C232.339 179.956 235.95 178.214 239.915 177.375C241.862 176.958 243.769 176.45 245.805 176.494C246.396 176.515 247.009 176.054 247.6 176.12C249.525 176.316 251.454 176.758 253.379 176.911C255.855 177.111 258.086 178.014 260.321 178.962C261.698 179.535 263.014 180.242 264.326 180.925C265.991 181.785 267.632 182.667 269.253 183.592C269.758 183.879 270.194 184.318 270.677 184.649C273.983 186.899 276.938 189.544 279.566 192.542C281.516 194.792 283.178 197.26 284.93 199.663C286.812 202.243 288.783 204.798 290.47 207.487C292.089 210.09 293.448 212.844 294.893 215.555C295.877 217.41 296.886 219.282 297.762 221.199C299.251 224.44 300.628 227.724 302.139 230.943C303.126 233.059 304.417 235.066 305.336 237.226C306.277 239.41 307.592 241.305 309.189 242.981C311.402 245.297 314.095 246.64 317.335 247.104C321.319 247.699 324.934 246.353 328.391 244.963C332.551 243.29 336.472 240.996 340.434 238.858C342.842 237.556 345.12 236.035 347.441 234.58C351.468 232.046 355.519 229.557 359.527 226.955C361.366 225.764 363.053 224.352 364.826 223.053C367.649 220.981 370.453 218.865 373.365 216.923C376.036 215.138 378.553 213.087 381.598 211.919C383.087 211.345 384.619 210.95 386.129 210.442C388.801 209.516 391.626 209.781 394.251 210.111C398.435 210.619 402.376 212.118 405.659 215.072C407.916 217.101 409.841 219.391 411.286 221.993C412.447 224.109 413.193 226.49 414.001 228.784C414.945 231.517 415.205 234.405 415.644 237.272C416.214 241.018 415.929 244.745 415.929 248.447C415.929 250.962 415.403 253.495 415.118 256.01C414.966 257.353 414.855 258.699 414.682 260.043C414.505 261.432 414.264 262.797 414.022 264.187C413.827 265.378 413.607 266.59 413.366 267.78C413.146 268.861 412.886 269.94 412.645 270.999C412.295 272.52 411.964 274.019 411.614 275.54C411.351 276.664 411.045 277.789 410.738 278.914C409.862 282.155 409.076 285.418 408.089 288.612C406.644 293.352 405.047 298.07 403.514 302.788C402.725 305.169 401.982 307.593 401.085 309.93C399.683 313.61 398.237 317.272 396.705 320.887C394.557 325.935 392.326 330.962 390.113 335.988C388.844 338.874 387.597 341.762 386.194 344.607C384.904 347.231 383.458 349.787 382.056 352.367C379.45 357.085 376.912 361.846 374.13 366.474C372.554 369.098 370.518 371.435 368.831 373.972C364.848 380.011 359.438 384.729 354.359 389.733C351.731 392.332 348.71 394.604 345.581 396.567C342.625 398.44 339.36 399.83 336.144 401.282C333.844 402.32 331.458 403.202 329.05 404.018C327.67 404.501 326.203 404.722 324.779 405.053C322.807 405.495 320.839 405.935 318.867 406.377C318.737 406.399 318.583 406.377 318.431 406.399C313.677 406.994 308.926 406.904 304.153 406.795C302.117 406.751 300.059 406.33 298.069 405.935C295.636 405.449 293.163 404.966 290.82 404.127C288.61 403.333 286.505 402.164 284.447 401.02C282.85 400.138 281.383 399.035 279.894 397.998C278.997 397.381 278.099 396.764 277.31 396.038C275.713 394.539 274.091 393.04 272.692 391.341C270.94 389.247 269.21 387.11 267.808 384.794C265.858 381.597 264.02 378.312 262.509 374.897C261.021 371.479 259.947 367.886 258.811 364.314C258.173 362.351 257.737 360.347 257.275 358.341C257.081 357.524 257.012 356.686 256.882 355.851C256.511 353.445 256.072 351.042 255.743 348.618C255.524 346.945 255.437 345.268 255.285 343.592C255.196 342.557 255.087 341.497 255.066 340.441C254.911 333.872 254.803 327.3 254.604 320.753C254.539 318.793 254.146 316.829 253.992 314.848C253.862 313.236 253.948 311.607 253.729 310.017C253.512 308.344 253.029 306.711 252.658 305.081C252.001 302.171 250.686 299.525 248.891 297.188C247.928 295.91 246.548 294.873 245.189 293.991C243.242 292.735 241.141 292.031 238.708 291.875C235.777 291.722 233.038 292.118 230.215 292.8C224.412 294.212 219.113 296.77 214.078 299.855C211.013 301.75 207.925 303.626 204.99 305.72C201.707 308.057 198.621 310.634 195.424 313.084C193.452 314.583 191.459 316.038 189.469 317.515C187.958 318.637 186.491 319.827 184.956 320.952C183.009 322.408 181.016 323.797 179.066 325.228C177.469 326.418 175.937 327.677 174.294 328.799C172.214 330.254 170.09 331.666 167.924 333.012C165.776 334.355 163.653 335.701 161.421 336.87C158.945 338.169 156.385 339.316 153.801 340.397C151.415 341.41 148.985 342.379 146.487 343.109C144.538 343.682 142.479 343.835 140.468 344.165C139.372 344.343 138.255 344.607 137.137 344.586C133.327 344.564 129.564 344.165 125.949 342.822C122.971 341.719 120.278 340.198 117.957 338.038C116.58 336.779 115.091 335.633 113.819 334.268C111.324 331.557 109.068 328.646 107.712 325.14C106.858 322.937 105.763 320.8 105.02 318.55C104.494 316.963 104.295 315.243 104.011 313.567C103.683 311.451 103.42 309.335 103.135 307.219C103.091 306.976 103.135 306.711 103.135 306.446C103.135 304.617 103.026 302.766 103.156 300.937C103.355 298.226 103.704 295.511 104.011 292.822C104.274 290.553 104.58 288.282 104.887 286.035C104.952 285.592 105.063 285.153 105.15 284.711C105.719 282.308 106.267 279.884 106.858 277.481C107.23 276.026 107.669 274.592 108.084 273.137C109.025 270.052 109.922 266.92 110.953 263.857C112.222 260.13 113.581 256.428 114.98 252.747C116.097 249.771 117.323 246.817 118.527 243.863C119.492 241.548 120.498 239.254 121.461 236.917C122.315 234.845 123.083 232.751 123.915 230.657C125.141 227.637 126.41 224.639 127.614 221.62C128.555 219.261 129.474 216.88 130.35 214.499C131.359 211.722 132.476 208.965 133.284 206.144C134.181 203.034 134.773 199.862 135.519 196.708C136.131 194.15 136.546 191.551 136.351 188.927C136.153 186.525 135.803 184.122 135.255 181.785C134.293 177.506 132.145 173.717 129.499 170.32C127.79 168.139 125.754 166.176 123.324 164.655C121.024 163.222 118.638 162.009 116.032 161.327C114.06 160.819 112.024 160.423 110.009 160.314C107.251 160.137 104.472 160.158 101.689 160.314C99.8726 160.401 98.0558 160.819 96.239 161.127C94.4655 161.414 92.692 161.701 90.9186 162.053C89.5165 162.34 88.1361 162.739 86.7805 163.156C83.8247 164.016 80.8472 164.833 77.9131 165.824C73.6852 167.235 69.4604 168.691 65.279 170.233C62.6513 171.202 60.135 172.414 57.5506 173.518C55.4026 174.421 53.2361 175.26 51.0912 176.185C49.426 176.911 47.829 177.84 46.1205 178.5C43.3195 179.6 40.4937 180.638 37.6245 181.52C35.9161 182.05 34.0776 182.093 32.3691 182.601C29.8095 183.349 27.2251 182.997 24.6624 182.953C22.2544 182.932 19.9331 182.202 17.8099 181.012C15.9931 179.999 14.0215 179.183 12.4461 177.862C10.6727 176.384 9.09728 174.599 7.69521 172.745C5.78865 170.255 4.23492 167.5 3.18569 164.502C2.50478 162.539 1.78362 160.576 1.32246 158.572C0.864389 156.5 0.666304 154.337 0.424888 152.221C0.205139 150.327 -0.0548469 148.41 0.0101494 146.534C0.118477 144.066 0.514646 141.62 0.842723 139.196C1.1058 137.298 1.25746 135.359 1.74029 133.505C2.63786 130.046 3.60043 126.584 4.80441 123.212C5.85674 120.324 7.21238 117.525 8.54945 114.746C9.66677 112.408 10.8924 110.118 12.2264 107.912C14.4827 104.119 16.2778 100.131 18.1596 96.1636C19.6267 93.0536 21.4683 90.0994 23.2634 87.1453C24.8171 84.6118 26.4823 82.1656 28.2093 79.738C29.5031 77.9306 30.9268 76.2354 32.3041 74.4934C33.9259 72.4866 35.5447 70.4797 37.1665 68.476C37.9743 67.4601 38.7635 66.4255 39.5744 65.4096C41.2612 63.2719 42.9233 61.156 44.6101 59.0183C44.7184 58.8843 44.8732 58.7534 44.9815 58.6194C48.9463 54.1881 53.6075 50.5515 57.9653 46.5409C58.2718 46.276 58.4698 45.8803 58.7763 45.6154C61.404 43.3873 63.9636 41.1156 66.6811 38.9997C70.7078 35.8492 74.8025 32.7392 78.9623 29.7196C81.1319 28.1552 83.4533 26.809 85.7065 25.3537C87.873 23.967 90.021 22.5336 92.2092 21.2123C94.0043 20.1091 95.8676 19.1151 97.706 18.0805C99.9593 16.8246 102.194 15.5221 104.494 14.3535C106.66 13.2534 108.873 12.2376 111.083 11.2248C113.995 9.87858 116.886 8.49186 119.864 7.25784C122.358 6.22013 124.878 5.25099 127.462 4.45635C129.978 3.70846 132.584 3.24414 135.147 2.62713C136.964 2.18774 138.781 1.6798 140.619 1.32767C141.935 1.06279 143.269 0.950605 144.606 0.885164C147.778 0.710655 150.975 0.598472 154.173 0.423963C155.247 0.355407 156.429 -0.217978 157.348 0.0905274C158.552 0.620285 159.669 0.489404 160.917 0.598472ZM8.30803 129.451C8.45969 128.79 8.63611 128.127 8.72277 127.444C8.74444 127.313 8.28637 126.936 8.15328 126.98C7.49713 127.245 7.54046 129.121 8.30803 129.451ZM27.1384 98.8093C27.3799 98.7875 27.6863 98.8311 27.8596 98.6971C28.0143 98.588 28.036 98.2577 28.1227 98.0365C27.8596 98.0583 27.5965 98.0583 27.3799 98.1455C27.2468 98.1923 27.2034 98.4322 27.1384 98.8093ZM14.8758 117.987C14.9191 117.812 14.9624 117.634 15.0089 117.457C14.8758 117.479 14.656 117.525 14.656 117.547C14.656 117.722 14.7241 117.899 14.8758 117.987Z" fill="white"/>
</svg>
