<svg width="360" height="593" viewBox="0 0 360 593" fill="none" xmlns="http://www.w3.org/2000/svg">
<g opacity="0.1">
<mask id="mask0_88_7" style="mask-type:luminance" maskUnits="userSpaceOnUse" x="0" y="0" width="360" height="593">
<path d="M360 0H0V592.5H360V0Z" fill="white"/>
</mask>
<g mask="url(#mask0_88_7)">
<mask id="mask1_88_7" style="mask-type:luminance" maskUnits="userSpaceOnUse" x="1" y="1" width="358" height="592">
<path d="M1.25015 1.24878H358.75V592.201H1.25015V1.24878Z" fill="white"/>
</mask>
<g mask="url(#mask1_88_7)">
<path d="M29.5895 1.99603C56.6159 3.7221 84.3624 7.43304 108.413 20.6801C145.803 40.2138 169.709 81.4931 168.503 123.6C228.962 107.621 291.384 129.022 328.383 179.674C353.979 215.089 360.764 260.47 357.727 303.214C354.062 377.238 319.309 446.1 277.26 505.731C259.345 530.087 215.869 581.361 188.43 590.758C174.402 596.62 160.256 583.454 167.69 569.333C171.565 562.384 178.833 558.366 184.648 553.214C191.455 547.079 197.917 540.568 204.428 534.105C231.928 506.403 255.61 474.97 274.272 440.675C299.028 397.34 317.453 350.673 319.756 300.614C321.86 267.56 317.712 232.782 299.065 204.608C283.064 181.564 258.259 164.818 230.818 158.864C209.004 154.562 186.35 157.741 165.361 164.523C156.782 218.554 126.611 299.716 69.6749 317.738C49.6212 323.742 25.903 315.397 15.5514 296.845C5.02162 278.788 8.74233 256.51 15.6686 237.851C34.1281 187.592 81.1032 154.726 129.46 136.269C130.073 123.043 130.263 109.455 125.996 96.7739C117.995 74.0248 99.172 56.1928 76.3522 48.6635C64.487 44.7402 52.1383 42.8041 39.7409 41.5493C31.7038 40.5214 23.4787 40.8535 15.5392 39.164C-7.99107 31.5761 -1.24303 -3.99518 29.5895 1.99603ZM121.34 186.22C121.838 184.638 122.204 183.007 122.57 181.376C95.8859 194.494 70.5368 213.661 56.6989 240.568C51.8771 251.063 46.5475 262.372 47.9171 274.191C49.8092 285.192 63.1149 280.216 69.1891 275.727C79.4357 268.576 87.2482 258.556 94.421 248.463C106.853 229.437 114.804 207.882 121.34 186.22Z" fill="#FEFEFE"/>
</g>
</g>
</g>
</svg>
