<svg width="298" height="245" viewBox="0 0 298 245" fill="none" xmlns="http://www.w3.org/2000/svg">
<g clip-path="url(#clip0_88_19)">
<mask id="mask0_88_19" style="mask-type:luminance" maskUnits="userSpaceOnUse" x="211" y="49" width="7" height="7">
<path d="M211.438 49.8169H217.282V55.4167H211.438V49.8169Z" fill="white"/>
</mask>
<g mask="url(#mask0_88_19)">
<path d="M211.975 55.1774L211.615 50.1701C213.407 50.1701 214.84 49.8169 216.632 49.8169V54.8242C215.199 54.8242 213.407 54.8242 211.975 55.1774Z" fill="#FF5F00"/>
</g>
<mask id="mask1_88_19" style="mask-type:luminance" maskUnits="userSpaceOnUse" x="-18" y="51" width="223" height="193">
<path d="M-17.9297 51.0415L204.134 51.0415V243.861H-17.9297L-17.9297 51.0415Z" fill="white"/>
</mask>
<g mask="url(#mask1_88_19)">
<path d="M74.0353 243.655C71.8838 243.655 69.3785 243.297 66.8675 242.943L67.5866 237.936C70.8109 238.648 73.6758 238.648 76.9001 238.295L77.2596 243.297C76.1868 243.655 75.1082 243.655 74.0353 243.655ZM87.6518 240.796L85.8598 236.147C88.7247 235.076 91.2357 233.288 93.7409 231.14L96.9653 235.076C93.7409 237.218 90.8761 239.366 87.6518 240.796ZM57.1945 240.078C53.9701 238.648 51.1053 237.218 47.8809 235.43L50.3862 230.781C53.2568 232.57 56.1216 234 58.9864 235.076L57.1945 240.078ZM39.2808 229.351C36.7755 227.563 34.2645 225.415 31.3996 222.555L34.624 218.625C37.4888 221.125 39.9998 223.273 42.1513 225.062L39.2808 229.351ZM103.774 226.85L99.8301 223.626C101.622 221.125 103.414 218.266 104.846 215.047L109.149 217.548C107.717 221.125 105.925 224.344 103.774 226.85ZM23.878 215.759C21.367 213.617 18.8618 211.111 16.3508 208.963L19.5751 205.032C22.0861 207.18 24.5914 209.681 27.1024 211.828L23.878 215.759ZM113.806 207.892L109.149 206.103C109.503 204.674 110.222 203.244 110.582 201.814C111.295 200.025 111.655 198.236 112.374 196.448L117.03 197.877C116.671 199.666 115.958 201.455 115.239 203.603C114.879 204.674 114.519 206.462 113.806 207.892ZM8.82916 202.526L8.1101 202.173C5.60481 200.384 3.09381 198.954 0.588516 197.519L2.73999 192.87C5.24528 194.3 8.1101 196.089 10.6211 197.877L11.3345 198.595L8.82916 202.526ZM-8.01166 193.588C-11.236 192.511 -14.1008 191.799 -17.3252 191.799L-16.9657 186.792C-13.7413 187.151 -10.1631 187.863 -6.93878 188.939L-8.01166 193.588ZM119.895 187.51L115.239 186.074C116.311 182.502 117.03 179.284 118.103 175.706L122.76 177.136C121.687 180.714 120.614 184.291 119.895 187.51ZM125.631 167.839L120.968 166.05C122.406 162.473 123.839 159.254 125.271 156.395L129.568 158.896C128.495 161.396 127.063 164.262 125.631 167.839ZM188.326 150.67C185.82 150.67 183.315 149.952 180.804 149.24C179.731 148.881 178.653 148.522 177.939 148.169L179.731 143.515C180.445 143.874 181.523 144.232 182.237 144.591C184.388 145.303 186.54 145.662 188.326 145.662V150.67ZM135.304 150.311L131.72 147.092C133.871 144.232 136.377 141.726 138.888 139.225L142.112 143.161C139.601 145.303 137.449 147.81 135.304 150.311ZM199.077 147.092L196.213 143.161C198.005 141.373 199.437 138.866 199.437 136.365L204.094 135.648V136.365C204.094 140.296 202.302 144.591 199.077 147.092ZM168.62 142.085C166.115 139.584 163.61 137.077 161.458 133.859L165.396 130.999C167.188 133.859 169.339 136.007 171.844 138.154L168.62 142.085ZM149.634 137.077L147.128 132.788C149.993 130.999 153.217 129.21 156.442 127.781L158.234 132.429C155.369 133.859 152.498 135.289 149.634 137.077ZM194.78 130.64C193.702 130.281 192.269 129.569 190.837 129.21C189.045 128.852 187.612 128.498 185.82 128.498L186.54 123.491C188.326 123.844 190.118 123.844 191.91 124.562C193.702 124.921 195.494 125.633 196.926 125.992L194.78 130.64ZM167.188 129.569L166.115 124.562C169.339 123.844 172.923 123.132 176.147 123.132L176.507 128.139C173.283 128.498 170.412 128.852 167.188 129.569ZM156.442 124.203C155.009 120.626 154.29 117.054 153.577 113.476L158.234 112.759C158.593 115.977 159.307 119.196 160.739 122.414L156.442 124.203ZM158.593 102.744L153.931 102.032C154.29 98.4544 155.009 94.877 156.082 91.2995L160.739 93.0882C159.666 96.3068 158.947 99.5254 158.593 102.744ZM164.323 83.7913L160.379 81.2848C162.171 78.0662 163.963 75.2065 166.474 72.3468L170.058 75.5654C167.907 78.0662 166.115 80.9316 164.323 83.7913ZM176.861 68.7694L173.996 64.833C176.507 62.6911 179.372 60.5435 182.596 58.7547L184.748 63.4032C181.877 64.833 179.012 66.6217 176.861 68.7694ZM193.342 59.1136L191.55 54.1063C194.78 53.0353 198.005 51.9587 201.229 51.2466L202.302 56.2539C199.437 56.966 196.213 58.0426 193.342 59.1136Z" fill="#FF5F00"/>
</g>
<mask id="mask2_88_19" style="mask-type:luminance" maskUnits="userSpaceOnUse" x="202" y="0" width="95" height="55">
<path d="M202.229 0.404297L296.91 0.404297V54.9095H202.229V0.404297Z" fill="white"/>
</mask>
<g mask="url(#mask2_88_19)">
<path fill-rule="evenodd" clip-rule="evenodd" d="M202.234 26.5404L297.236 0.415771L267.629 54.8868L240.327 36.7317L297.099 0.506917L237.166 36.1165L233.462 54.4311L226.214 34.2024L297.087 0.501221L224.902 32.8238L202.234 26.5404Z" fill="#FF5F00"/>
</g>
<mask id="mask3_88_19" style="mask-type:luminance" maskUnits="userSpaceOnUse" x="234" y="37" width="14" height="18">
<path d="M234.814 37.9165H247.963V54.9095H234.814V37.9165Z" fill="white"/>
</mask>
<g mask="url(#mask3_88_19)">
<path fill-rule="evenodd" clip-rule="evenodd" d="M235.306 54.841L247.524 43.7896L239.671 38.0474L235.306 54.841Z" fill="#FF5F00"/>
</g>
</g>
<defs>
<clipPath id="clip0_88_19">
<rect width="298" height="245" fill="white"/>
</clipPath>
</defs>
</svg>
