<svg width="100" height="100" viewBox="0 0 100 100" fill="none" xmlns="http://www.w3.org/2000/svg">
<g clip-path="url(#clip0_17_57)">
<g filter="url(#filter0_dddd_17_57)">
<rect width="100" height="100" rx="12" fill="#2278D4"/>
<rect x="27" y="27" width="46" height="46" rx="4" fill="white"/>
<path d="M64 43.7236V58.7236C64 58.9888 63.8946 59.2432 63.7071 59.4307C63.5196 59.6183 63.2652 59.7236 63 59.7236H54C53.2056 59.7236 52.4437 60.0387 51.8813 60.5997C51.3189 61.1606 51.002 61.9218 51 62.7161C51.004 62.9203 50.9446 63.1207 50.83 63.2897C50.7154 63.4587 50.5512 63.5881 50.36 63.6599C50.2082 63.7184 50.0445 63.7391 49.8829 63.7201C49.7214 63.701 49.5669 63.6429 49.433 63.5506C49.299 63.4584 49.1895 63.3349 49.1141 63.1907C49.0386 63.0466 48.9995 62.8863 49 62.7236C49 61.928 48.6839 61.1649 48.1213 60.6023C47.5587 60.0397 46.7956 59.7236 46 59.7236H37C36.7348 59.7236 36.4804 59.6183 36.2929 59.4307C36.1054 59.2432 36 58.9888 36 58.7236V43.7236C36 43.4584 36.1054 43.2041 36.2929 43.0165C36.4804 42.829 36.7348 42.7236 37 42.7236H45C46.0609 42.7236 47.0783 43.1451 47.8284 43.8952C48.5786 44.6454 49 45.6628 49 46.7236V54.6899C48.9965 54.948 49.0909 55.1978 49.2641 55.3891C49.4374 55.5804 49.6766 55.699 49.9338 55.7211C50.0705 55.7302 50.2077 55.7111 50.3368 55.6649C50.4659 55.6187 50.5841 55.5465 50.6841 55.4527C50.7841 55.359 50.8637 55.2456 50.9181 55.1198C50.9724 54.9939 51.0003 54.8582 51 54.7211V46.7236C51 45.6628 51.4214 44.6454 52.1716 43.8952C52.9217 43.1451 53.9391 42.7236 55 42.7236H63C63.2652 42.7236 63.5196 42.829 63.7071 43.0165C63.8946 43.2041 64 43.4584 64 43.7236ZM45.1012 40.7236H45.125C45.9875 40.7408 46.836 40.944 47.6127 41.3194C48.3894 41.6947 49.0758 42.2335 49.625 42.8986C49.6719 42.9535 49.7302 42.9976 49.7958 43.0278C49.8614 43.058 49.9328 43.0737 50.005 43.0737C50.0772 43.0737 50.1486 43.058 50.2142 43.0278C50.2798 42.9976 50.3381 42.9535 50.385 42.8986C50.9331 42.2347 51.6179 41.6968 52.3928 41.3214C53.1676 40.9461 54.0142 40.7422 54.875 40.7236H54.8988C54.9845 40.7234 55.0687 40.7011 55.1433 40.6589C55.2179 40.6168 55.2804 40.5561 55.3249 40.4828C55.3693 40.4095 55.3941 40.326 55.397 40.2404C55.3999 40.1547 55.3807 40.0697 55.3412 39.9936C54.838 39.0102 54.073 38.1848 53.1305 37.6084C52.188 37.032 51.1047 36.727 50 36.727C48.8953 36.727 47.812 37.032 46.8695 37.6084C45.927 38.1848 45.162 39.0102 44.6587 39.9936C44.6193 40.0697 44.6001 40.1547 44.603 40.2404C44.6059 40.326 44.6307 40.4095 44.6751 40.4828C44.7196 40.5561 44.7821 40.6168 44.8567 40.6589C44.9313 40.7011 45.0155 40.7234 45.1012 40.7236Z" fill="#2278D4"/>
</g>
</g>
<defs>
<filter id="filter0_dddd_17_57" x="-4" y="-2" width="135" height="142" filterUnits="userSpaceOnUse" color-interpolation-filters="sRGB">
<feFlood flood-opacity="0" result="BackgroundImageFix"/>
<feColorMatrix in="SourceAlpha" type="matrix" values="0 0 0 0 0 0 0 0 0 0 0 0 0 0 0 0 0 0 127 0" result="hardAlpha"/>
<feOffset dx="1" dy="2"/>
<feGaussianBlur stdDeviation="2"/>
<feColorMatrix type="matrix" values="0 0 0 0 0.341176 0 0 0 0 0.341176 0 0 0 0 0.341176 0 0 0 0.1 0"/>
<feBlend mode="normal" in2="BackgroundImageFix" result="effect1_dropShadow_17_57"/>
<feColorMatrix in="SourceAlpha" type="matrix" values="0 0 0 0 0 0 0 0 0 0 0 0 0 0 0 0 0 0 127 0" result="hardAlpha"/>
<feOffset dx="4" dy="7"/>
<feGaussianBlur stdDeviation="4"/>
<feColorMatrix type="matrix" values="0 0 0 0 0.341176 0 0 0 0 0.341176 0 0 0 0 0.341176 0 0 0 0.09 0"/>
<feBlend mode="normal" in2="effect1_dropShadow_17_57" result="effect2_dropShadow_17_57"/>
<feColorMatrix in="SourceAlpha" type="matrix" values="0 0 0 0 0 0 0 0 0 0 0 0 0 0 0 0 0 0 127 0" result="hardAlpha"/>
<feOffset dx="10" dy="15"/>
<feGaussianBlur stdDeviation="5.5"/>
<feColorMatrix type="matrix" values="0 0 0 0 0.341176 0 0 0 0 0.341176 0 0 0 0 0.341176 0 0 0 0.05 0"/>
<feBlend mode="normal" in2="effect2_dropShadow_17_57" result="effect3_dropShadow_17_57"/>
<feColorMatrix in="SourceAlpha" type="matrix" values="0 0 0 0 0 0 0 0 0 0 0 0 0 0 0 0 0 0 127 0" result="hardAlpha"/>
<feOffset dx="18" dy="27"/>
<feGaussianBlur stdDeviation="6.5"/>
<feColorMatrix type="matrix" values="0 0 0 0 0.341176 0 0 0 0 0.341176 0 0 0 0 0.341176 0 0 0 0.01 0"/>
<feBlend mode="normal" in2="effect3_dropShadow_17_57" result="effect4_dropShadow_17_57"/>
<feBlend mode="normal" in="SourceGraphic" in2="effect4_dropShadow_17_57" result="shape"/>
</filter>
<clipPath id="clip0_17_57">
<rect width="100" height="100" fill="white"/>
</clipPath>
</defs>
</svg>
