<svg width="1440" height="290" viewBox="0 0 1440 290" fill="none" xmlns="http://www.w3.org/2000/svg">
<path fill-rule="evenodd" clip-rule="evenodd" d="M202.969 115C205.956 87.9999 228.847 67 256.644 67C280.797 67 301.247 82.8561 308.152 104.727C314.69 101.079 322.223 99 330.242 99C337.821 99 344.965 100.857 351.246 104.14C357.472 90.8701 369.932 81.1061 384.854 78.6195C394.056 71.3435 405.683 67 418.324 67C438.401 67 455.92 77.9559 465.227 94.2154C472.663 87.8468 482.322 84 492.88 84C507.995 84 521.268 91.8832 528.812 103.762C536.007 82.3913 556.209 67 580.006 67C584.124 67 588.134 67.4609 591.987 68.3338C601.801 54.8012 617.741 46 635.736 46C657.316 46 675.94 58.658 684.588 76.9545C692.214 65.5272 705.225 58 719.994 58C738.693 58 754.573 70.0658 760.275 86.8363C765.023 85.0044 770.184 84 775.579 84C780.963 84 786.113 85.0003 790.854 86.8251C790.024 83.509 789.583 80.0386 789.583 76.4652V72.5348C789.583 49.0435 808.627 30 832.118 30C852.451 30 869.451 44.2667 873.655 63.3357C877.512 62.4615 881.525 62 885.646 62C887.543 62 889.418 62.0979 891.265 62.2888C897.742 58.3006 905.37 56 913.535 56C926.655 56 938.388 61.9405 946.19 71.2785C953.938 60.7969 966.384 54 980.419 54C993.448 54 1005.11 59.8587 1012.91 69.0854C1017.61 69.3815 1022.09 70.4389 1026.25 72.1357C1034.86 53.7416 1053.54 41 1075.19 41C1087.92 41 1099.61 45.4016 1108.84 52.7654C1117.51 45.4261 1128.71 41 1140.96 41C1163.85 41 1183.13 56.4755 1188.9 77.5352C1198.79 65.0266 1214.1 57 1231.28 57C1241.34 57 1250.75 59.7483 1258.81 64.5349C1267.78 51.5267 1282.78 43 1299.77 43C1303.27 43 1306.68 43.3607 1309.97 44.0468C1321.17 18.1328 1346.97 0 1377 0C1417.32 0 1450 32.6832 1450 73V80C1450 93.4625 1446.36 106.074 1440 116.901V290H0V145.465V141.535V115H9.28952C17.0837 105.248 29.0796 99 42.5348 99C42.694 99 42.8531 99.0009 43.0119 99.0026V96.5348C43.0119 73.0435 62.0554 54 85.5467 54C105.244 54 121.815 67.3894 126.653 85.5633C130.301 84.5446 134.146 84 138.119 84C157.612 84 174.043 97.1134 179.071 115H181.479C184.445 114.345 187.527 114 190.69 114C193.853 114 196.935 114.345 199.901 115H202.969Z" fill="#FF9F66"/>
</svg>
