<svg width="1440" height="277" viewBox="0 0 1440 277" fill="none" xmlns="http://www.w3.org/2000/svg">
<path fill-rule="evenodd" clip-rule="evenodd" d="M197.969 102C200.956 74.9999 223.847 54 251.644 54C275.797 54 296.247 69.8561 303.152 91.7269C309.69 88.0788 317.223 86 325.242 86C332.821 86 339.965 87.8568 346.246 91.1402C352.472 77.8701 364.932 68.1061 379.854 65.6195C389.056 58.3435 400.683 54 413.324 54C433.401 54 450.92 64.9559 460.227 81.2154C467.663 74.8468 477.322 71 487.88 71C502.995 71 516.268 78.8832 523.812 90.7622C531.007 69.3913 551.209 54 575.006 54C579.124 54 583.134 54.4609 586.987 55.3338C596.801 41.8012 612.741 33 630.736 33C652.316 33 670.94 45.658 679.588 63.9545C687.214 52.5272 700.225 45 714.994 45C733.693 45 749.573 57.0658 755.275 73.8363C760.023 72.0044 765.184 71 770.579 71C775.963 71 781.113 72.0003 785.854 73.8251C785.024 70.509 784.583 67.0386 784.583 63.4652V59.5348C784.583 36.0435 803.627 17 827.118 17C847.451 17 864.451 31.2667 868.655 50.3357C872.512 49.4615 876.525 49 880.646 49C882.543 49 884.418 49.0979 886.265 49.2888C892.742 45.3006 900.37 43 908.535 43C921.655 43 933.388 48.9405 941.19 58.2785C948.938 47.7969 961.384 41 975.419 41C988.448 41 1000.11 46.8587 1007.91 56.0854C1012.61 56.3815 1017.09 57.4389 1021.25 59.1357C1029.86 40.7416 1048.54 28 1070.19 28C1082.92 28 1094.61 32.4016 1103.84 39.7654C1112.51 32.4261 1123.71 28 1135.96 28C1158.85 28 1178.13 43.4755 1183.9 64.5352C1193.79 52.0266 1209.1 44 1226.28 44C1236.34 44 1245.75 46.7484 1253.81 51.5349C1262.78 38.5267 1277.78 30 1294.77 30C1300.49 30 1305.98 30.9656 1311.09 32.7425C1324.16 13.0116 1346.56 0 1372 0C1412.32 0 1445 32.6832 1445 73V80C1445 89.3878 1443.23 98.3618 1440 106.606V277H-5V132.465V128.535V102H4.28952C12.0837 92.2475 24.0796 86 37.5348 86C37.694 86 37.8531 86.0009 38.0119 86.0026V83.5348C38.0119 60.0435 57.0554 41 80.5467 41C100.244 41 116.815 54.3894 121.653 72.5633C125.301 71.5446 129.146 71 133.119 71C152.612 71 169.043 84.1134 174.071 102H176.479C179.445 101.345 182.527 101 185.69 101C188.853 101 191.935 101.345 194.901 102H197.969Z" fill="#2278D4"/>
</svg>
