<svg width="111" height="288" viewBox="0 0 111 288" fill="none" xmlns="http://www.w3.org/2000/svg">
<path d="M110.04 30.7968L101.85 177.882L79.2236 176.629L87.414 29.5441L110.04 30.7968Z" fill="#F6C3BC"/>
<path d="M110.04 30.7964L87.4219 29.5437C91.7058 20.681 95.9815 11.8223 100.249 2.96777C103.519 12.244 106.782 21.5202 110.04 30.7964Z" fill="#F6E7C6"/>
<mask id="mask0_98_5351" style="mask-type:luminance" maskUnits="userSpaceOnUse" x="98" y="0" width="5" height="8">
<path d="M98.1123 0H102.315V7.14342H98.1123V0Z" fill="white"/>
</mask>
<g mask="url(#mask0_98_5351)">
<path d="M101.674 0.547544L101.325 6.70439L98.8096 6.56111L99.1091 0.404266L101.674 0.547544Z" fill="#F6C3BC"/>
</g>
<path d="M77.7823 63.3604L80.8065 210.65L58.1599 211.112L55.1357 63.8311L77.7823 63.3604Z" fill="#54BEC1"/>
<path d="M77.7823 63.3613L55.1357 63.832L65.8702 36.3555L77.7823 63.3613Z" fill="#F6E7C6"/>
<path d="M67.1355 33.8293L67.2627 39.9943L64.6897 40.0475L64.5625 33.8825L67.1355 33.8293Z" fill="#54BEC1"/>
<mask id="mask1_98_5351" style="mask-type:luminance" maskUnits="userSpaceOnUse" x="0" y="45" width="52" height="151">
<path d="M0 45.9181H51.8914V195.778H0V45.9181Z" fill="white"/>
</mask>
<g mask="url(#mask1_98_5351)">
<path d="M22.1911 46.4091L51.674 190.747L29.4829 195.25L0 50.9408L22.1911 46.4091Z" fill="#F3B32F"/>
</g>
<mask id="mask2_98_5351" style="mask-type:luminance" maskUnits="userSpaceOnUse" x="0" y="21" width="23" height="31">
<path d="M0 21.8145H22.4784V51.1577H0V21.8145Z" fill="white"/>
</mask>
<g mask="url(#mask2_98_5351)">
<path d="M22.1911 46.4084L0 50.9401C1.88346 41.2873 3.76281 31.6345 5.64626 21.9775C11.1653 30.1362 16.6803 38.2785 22.1911 46.4084Z" fill="#F6E7C6"/>
</g>
<path d="M6.40112 19.2773L7.64045 25.3155L5.12076 25.8231L3.88965 19.7931L6.40112 19.2773Z" fill="#F3B32F"/>
<path d="M52.0675 32.5488L54.2997 179.851L31.6531 180.194L29.4209 32.8968L52.0675 32.5488Z" fill="#E65945"/>
<path d="M52.0675 32.5484L29.4209 32.8964L40.3236 5.48528L52.0675 32.5484Z" fill="#F6E7C6"/>
<path d="M41.5707 2.96777L41.6692 9.13281H39.0961L39.0059 2.96777H41.5707Z" fill="#E65945"/>
<mask id="mask3_98_5351" style="mask-type:luminance" maskUnits="userSpaceOnUse" x="13" y="143" width="98" height="146">
<path d="M13.0234 143.38H111V288H13.0234V143.38Z" fill="white"/>
</mask>
<g mask="url(#mask3_98_5351)">
<path d="M106.478 269.591C106.429 270.729 106.22 271.838 105.85 272.915C105.485 273.991 104.972 274.994 104.32 275.927C103.663 276.857 102.892 277.68 102.005 278.392C101.115 279.1 100.143 279.673 99.092 280.107C96.1704 281.347 93.1914 282.44 90.1631 283.382C87.1307 284.324 84.0572 285.11 80.9469 285.744C77.8365 286.379 74.7015 286.853 71.5419 287.173C68.3864 287.488 65.2186 287.648 62.0425 287.648C58.8706 287.648 55.7028 287.488 52.5432 287.173C49.3836 286.853 46.2486 286.379 43.1382 285.744C40.0279 285.11 36.9585 284.324 33.9261 283.382C30.8937 282.44 27.9188 281.347 24.9971 280.107C23.9426 279.673 22.9701 279.096 22.0796 278.38C21.1892 277.663 20.4219 276.836 19.7694 275.899C19.117 274.957 18.6123 273.95 18.2512 272.865C17.8942 271.781 17.6931 270.671 17.6521 269.529C16.4252 231.831 15.2024 194.136 13.9837 156.45C13.9672 155.586 14.0329 154.727 14.1888 153.879C14.3448 153.028 14.5827 152.201 14.9069 151.403C15.227 150.6 15.6291 149.839 16.1051 149.119C16.5852 148.398 17.131 147.735 17.7424 147.125C18.3538 146.515 19.0226 145.975 19.7448 145.5C20.467 145.025 21.2302 144.632 22.0345 144.313C22.8388 143.993 23.6635 143.756 24.5171 143.604C25.3665 143.457 26.2241 143.391 27.0858 143.416L98.2385 144.652C99.0879 144.656 99.925 144.746 100.758 144.923C101.587 145.094 102.391 145.348 103.175 145.684C103.955 146.02 104.693 146.429 105.391 146.908C106.088 147.391 106.733 147.94 107.323 148.549C107.91 149.159 108.435 149.823 108.891 150.539C109.346 151.251 109.728 152.005 110.036 152.799C110.339 153.589 110.565 154.403 110.709 155.239C110.852 156.074 110.91 156.917 110.885 157.764L106.478 269.591Z" fill="#F6E7C6"/>
</g>
<path d="M109.408 195.251C108.715 212.813 108.021 230.37 107.336 247.928H16.9136C16.3187 230.37 15.7524 212.813 15.2148 195.251H109.408Z" fill="#E65945"/>
</svg>
