<svg width="181" height="146" viewBox="0 0 181 146" fill="none" xmlns="http://www.w3.org/2000/svg">
<path d="M36.8403 64.9821L99.2634 49.4113V102.792L36.8403 116.043V64.9821Z" fill="#BF762E"/>
<path d="M144.717 65.1018L99.2638 49.4113V102.792L144.717 116.043V65.1018Z" fill="#C98132"/>
<mask id="mask0_235_7714" style="mask-type:luminance" maskUnits="userSpaceOnUse" x="24" y="47" width="77" height="19">
<path d="M24.9365 47.5164H100.025V65.3877H24.9365V47.5164Z" fill="white"/>
</mask>
<g mask="url(#mask0_235_7714)">
<path d="M36.8407 64.9824L24.973 62.9081L80.3154 48.2248L99.2637 49.4115L36.8407 64.9824Z" fill="#CE9756"/>
</g>
<mask id="mask1_235_7714" style="mask-type:luminance" maskUnits="userSpaceOnUse" x="99" y="49" width="58" height="17">
<path d="M99.1741 49.2186H156.937V65.3879H99.1741V49.2186Z" fill="white"/>
</mask>
<g mask="url(#mask1_235_7714)">
<path d="M99.2642 49.412L115.876 49.2292L156.907 63.3374L144.717 65.1026L99.2642 49.412Z" fill="#E4A252"/>
</g>
<path d="M88.7157 39.7808C88.7157 39.7808 80.0959 42.52 74.4413 50.4683C68.7867 58.4133 71.9913 62.0102 72.45 62.5587C72.9055 63.1072 77.9417 68.9679 85.7072 52.8485C93.4727 36.7291 88.7157 39.7808 88.7157 39.7808Z" fill="#843317"/>
<path d="M89.1514 39.5915C88.8555 41.4132 87.7053 44.764 84.7833 50.8275C77.0178 66.9469 71.9848 61.0829 71.5261 60.5377C71.4762 60.4779 71.3965 60.3848 71.3 60.2551C71.6125 61.5948 72.2608 62.3361 72.4502 62.5588C72.9057 63.1073 77.9419 68.968 85.7074 52.8487C91.9138 39.9638 90.122 39.3289 89.1514 39.5915Z" fill="#6D2411"/>
<path d="M107.342 41.4131C107.342 41.4131 115.357 45.6117 119.545 54.421C123.734 63.2303 119.951 66.2155 119.406 66.6742C118.86 67.133 112.883 72.0296 108.037 54.8066C103.19 37.5836 107.342 41.4131 107.342 41.4131Z" fill="#843317"/>
<path d="M119.545 54.4211C117.693 50.5217 115.09 47.5266 112.763 45.399C114.449 47.2606 116.124 49.5544 117.427 52.2936C121.612 61.1029 117.829 64.0881 117.284 64.5468C116.975 64.8061 114.917 66.4982 112.304 64.7596C115.848 69.5964 119.016 67.0035 119.405 66.6744C119.95 66.2156 123.733 63.2304 119.545 54.4211Z" fill="#6D2411"/>
<path d="M111.863 60.7075C110.992 51.0372 107.199 43.7405 107.199 43.7405L97.5649 42.8961L97.4951 42.8894L87.8614 42.0451C87.8614 42.0451 82.8617 48.5739 80.322 57.9417C77.7889 67.2929 80.5613 75.0351 94.5731 76.2917C94.5831 76.2917 94.5964 76.2917 94.6063 76.295C94.6196 76.295 94.6296 76.295 94.6429 76.2983V76.295C108.658 77.4984 112.734 70.3579 111.863 60.7075Z" fill="#893F1F"/>
<path d="M111.863 60.7071C110.992 51.0368 107.199 43.74 107.199 43.74L106.853 43.7068C107.907 46.7418 109.07 50.977 109.506 55.8038C110.377 65.4541 106.305 72.598 92.2862 71.3946C92.2762 71.3946 92.2629 71.3913 92.2529 71.3913C92.2396 71.3913 92.2297 71.3913 92.2164 71.388C86.0432 70.8361 82.0541 69.0244 79.7371 66.3716C80.7709 71.634 85.1058 75.4436 94.5733 76.2913C94.5832 76.2913 94.5965 76.2913 94.6065 76.2946C94.6198 76.2946 94.6298 76.2946 94.6431 76.2979V76.2946C108.658 77.498 112.734 70.3574 111.863 60.7071Z" fill="#772C12"/>
<path d="M85.1354 26.8262C85.1354 26.8262 74.9365 18.7815 82.6488 14.1674C91.7772 8.70565 92.9208 22.5978 92.9208 22.5978L85.1354 26.8262Z" fill="#893F1F"/>
<path d="M107.285 57.1235C106.73 49.87 104.141 44.4115 104.141 44.4115L97.4753 43.8265L97.4255 43.8231L90.757 43.2381C90.757 43.2381 87.2565 48.1646 85.4515 55.2088C83.6497 62.2396 85.5279 68.0371 95.2281 68.9081C95.2381 68.9081 95.2448 68.9081 95.2547 68.9114C95.2614 68.9114 95.2714 68.9114 95.278 68.9114C104.982 69.7425 107.84 64.3605 107.285 57.1235Z" fill="#D38D5E"/>
<path d="M113.488 29.3093C113.488 29.3093 124.93 23.1628 118.135 17.2788C110.091 10.3111 106.557 23.791 106.557 23.791L113.488 29.3093Z" fill="#893F1F"/>
<path d="M83.2273 22.6747C84.4772 19.6995 87.2064 18.1437 89.9124 17.3525C88.9084 15.1053 86.997 13.1939 83.4101 15.338C79.8199 17.4855 81.5053 20.6436 83.2273 22.6747Z" fill="#D38D5E"/>
<path d="M116.087 25.5533C115.373 22.4085 112.956 20.4007 110.43 19.1507C111.809 17.113 114.023 15.5605 117.181 18.2964C120.346 21.0389 118.139 23.8546 116.087 25.5533Z" fill="#D38D5E"/>
<path d="M116.942 29.722C116.895 19.0245 105.649 16.4016 100.374 15.9395C95.2243 15.4874 83.5661 16.1024 81.6613 26.6304C79.7598 37.1583 84.929 45.3593 97.7009 46.4763C110.469 47.5965 116.985 40.4194 116.942 29.722Z" fill="#893F1F"/>
<path d="M87.2996 25.1642C86.6048 25.1642 86.073 24.8384 85.7139 24.0872C84.8064 22.189 87.3129 20.1878 88.5096 19.4132C89.3341 18.8814 90.8765 18.0536 92.2129 18.0536C92.8678 18.0536 93.4728 18.2531 93.9182 18.7816C95.2778 20.3873 94.5665 21.3313 91.5979 23.2528C89.8028 24.4096 88.3634 25.1642 87.2996 25.1642Z" fill="#955336"/>
<path d="M116.942 29.722C116.926 26.3147 115.775 23.7284 114.043 21.7704C115.267 23.5622 116.038 25.7961 116.051 28.5785C116.095 39.276 109.579 46.4531 96.8105 45.3328C90.88 44.8142 86.5917 42.7665 83.8857 39.6682C86.492 43.4014 91.0695 45.8946 97.7014 46.4763C110.47 47.5966 116.985 40.4195 116.942 29.722Z" fill="#772C12"/>
<path d="M94.161 29.9613C94.0813 30.8722 93.2768 31.547 92.3659 31.4672C91.4551 31.3874 90.7803 30.583 90.86 29.6721C90.9398 28.7613 91.7443 28.0864 92.6551 28.1662C93.566 28.246 94.2408 29.0505 94.161 29.9613Z" fill="#16100A"/>
<path d="M92.3592 29.0036C92.3359 29.3028 92.07 29.5255 91.7675 29.4989C91.4683 29.4724 91.2456 29.2064 91.2722 28.9072C91.2988 28.608 91.5647 28.3853 91.8639 28.4119C92.1631 28.4385 92.3858 28.7044 92.3592 29.0036Z" fill="white"/>
<path d="M106.291 31.0249C106.211 31.9357 105.407 32.6106 104.496 32.5308C103.585 32.451 102.914 31.6465 102.99 30.7357C103.07 29.8215 103.874 29.1467 104.785 29.2265C105.696 29.3062 106.371 30.1107 106.291 31.0249Z" fill="#16100A"/>
<path d="M104.489 30.0676C104.466 30.3668 104.2 30.5895 103.901 30.5629C103.598 30.5363 103.379 30.2704 103.402 29.9712C103.429 29.672 103.695 29.4493 103.994 29.4759C104.297 29.5025 104.516 29.7651 104.489 30.0676Z" fill="white"/>
<path d="M106.743 36.6127C106.633 32.4208 100.224 31.2208 98.5953 31.0778C96.9664 30.9349 90.4475 31.0047 89.6131 35.1102C88.7754 39.2156 91.3517 42.4701 97.5515 43.0119C103.755 43.5571 106.853 40.8013 106.743 36.6127Z" fill="#D38D5E"/>
<path d="M98.2395 40.0239L97.3951 39.9508L97.8472 34.7949L98.6883 34.868L98.2395 40.0239Z" fill="#AA673A"/>
<path d="M97.7247 40.393C94.4204 40.1038 92.3494 38.2223 92.3161 38.1957C92.1466 38.0361 92.1366 37.7668 92.2962 37.5973C92.4524 37.4244 92.7217 37.4145 92.8912 37.574C93.0674 37.7369 97.1662 41.4202 103.127 38.445C103.336 38.3386 103.589 38.425 103.692 38.6345C103.798 38.8439 103.712 39.0999 103.502 39.2029C101.335 40.2833 99.3769 40.536 97.7247 40.393Z" fill="#AA673A"/>
<path d="M98.4425 32.8303C97.4186 32.7405 95.5504 33.073 95.444 34.2897C95.3376 35.5063 97.0363 36.7064 98.0934 36.8294C99.1539 36.8926 101.035 36.0083 101.142 34.7916C101.248 33.5749 99.4697 32.9201 98.4425 32.8303Z" fill="#351107"/>
<path d="M96.8138 72.4586C94.6995 75.5668 93.2834 81.5838 100.846 85.0244C108.412 88.465 118.731 80.2241 116.254 72.831C113.781 65.4378 102.565 63.9951 96.8138 72.4586Z" fill="#843317"/>
<path d="M116.254 72.8311C116.081 72.3159 115.865 71.8338 115.615 71.3751C117.919 79.9816 108.123 87.9466 100.131 83.9109C97.7642 82.7175 96.2151 80.8459 95.3607 79.4032C95.9026 81.4642 97.4916 83.4954 100.846 85.0245C108.412 88.4651 118.73 80.2243 116.254 72.8311Z" fill="#6D2411"/>
<path d="M99.1837 73.4493C97.6213 75.7463 96.5741 80.1909 102.162 82.7339C107.754 85.277 115.38 79.1869 113.551 73.7252C111.72 68.2601 103.432 67.193 99.1837 73.4493Z" fill="#9B4E27"/>
<path d="M93.7089 72.1859C95.2481 75.6165 95.6005 81.7863 87.5524 83.8574C79.5077 85.9317 70.7748 76.0221 74.4947 69.1707C78.2179 62.3228 89.5137 62.8513 93.7089 72.1859Z" fill="#843317"/>
<path d="M93.7087 72.1862C93.5192 71.7673 93.3198 71.3684 93.1037 70.9861C94.5099 74.4733 94.4932 80.7528 87.0967 82.651C82.2034 83.9076 76.7583 80.4005 74.3149 76.182C76.2829 81.1285 82.0771 85.2705 87.5522 83.8577C95.6002 81.7867 95.2479 75.6168 93.7087 72.1862Z" fill="#6D2411"/>
<path d="M91.2022 72.7476C92.3424 75.284 92.6017 79.8449 86.6546 81.3741C80.7075 82.9066 74.2551 75.5832 77.0043 70.5204C79.7568 65.4608 88.1007 65.8498 91.2022 72.7476Z" fill="#9B4E27"/>
<path d="M116.919 73.3595L112.518 71.9566L124.485 34.3392L128.89 35.7421L116.919 73.3595Z" fill="#9B481F"/>
<path d="M131.542 76.1222L134.427 36.7794L139.035 37.1185L136.149 76.4612L131.542 76.1222Z" fill="#9B481F"/>
<path d="M141.02 41.2837L120.861 37.4575C120.22 37.3345 119.798 36.7129 119.921 36.0713L120.499 33.0196C120.622 32.3747 121.24 31.9525 121.885 32.0755L142.04 35.9051C142.685 36.0281 143.107 36.6464 142.984 37.2913L142.406 40.343C142.283 40.9845 141.661 41.4067 141.02 41.2837Z" fill="#FDD600"/>
<path d="M140.288 40.2629C140.288 40.2629 119.974 36.3967 119.904 36.3668C119.937 36.8921 120.319 37.3508 120.865 37.4539L141.023 41.2834C141.664 41.4064 142.283 40.9842 142.406 40.3426L142.984 37.2876C142.286 40.336 140.93 40.3825 140.288 40.2629Z" fill="#F4C500"/>
<path d="M127.483 35.9249C127.36 36.5731 126.736 36.9986 126.087 36.8789C125.439 36.7559 125.014 36.1276 125.14 35.4794C125.26 34.8312 125.888 34.4057 126.533 34.5287C127.181 34.6517 127.606 35.2766 127.483 35.9249Z" fill="#B9C6CD"/>
<path d="M127.31 35.0473C127.37 35.2368 127.39 35.4396 127.35 35.649C127.227 36.2972 126.602 36.7227 125.954 36.5997C125.622 36.5366 125.349 36.3438 125.179 36.0811C125.312 36.4767 125.648 36.7925 126.087 36.879C126.735 36.9986 127.36 36.5731 127.483 35.9249C127.543 35.6091 127.473 35.2999 127.31 35.0473Z" fill="#A1B6BF"/>
<path d="M137.768 37.8796C137.642 38.5278 137.02 38.9533 136.372 38.8303C135.724 38.7073 135.298 38.0823 135.421 37.4341C135.544 36.7859 136.169 36.3604 136.818 36.4834C137.463 36.6064 137.888 37.2313 137.768 37.8796Z" fill="#B9C6CD"/>
<path d="M137.592 37.002C137.655 37.1881 137.672 37.3942 137.632 37.6036C137.509 38.2519 136.884 38.6774 136.236 38.5544C135.907 38.4912 135.634 38.2951 135.461 38.0358C135.594 38.4314 135.93 38.7472 136.372 38.8303C137.02 38.9533 137.642 38.5278 137.768 37.8796C137.828 37.5638 137.755 37.2513 137.592 37.002Z" fill="#A1B6BF"/>
<path d="M122.823 35.4896C122.507 35.4896 122.188 35.4797 121.872 35.4564C121.383 35.4232 121.034 34.9843 121.121 34.5223L121.303 33.5616C121.387 33.1228 121.779 32.8203 122.224 32.8203C122.284 32.8203 122.347 32.8269 122.41 32.8402L129.418 34.1699C129.541 34.1932 129.554 34.3594 129.435 34.396C128.986 34.5356 128.211 34.7583 127.251 34.9677C127.081 34.7483 126.832 34.5854 126.532 34.5289C126.459 34.5156 126.383 34.509 126.31 34.509C125.798 34.509 125.339 34.8381 125.176 35.3301C124.422 35.4265 123.624 35.4896 122.823 35.4896Z" fill="#FEE24D"/>
<path d="M125.176 35.3299C125.339 34.8379 125.798 34.5088 126.31 34.5088C126.383 34.5088 126.459 34.5154 126.533 34.5287C126.832 34.5852 127.081 34.7481 127.251 34.9675C126.626 35.1038 125.921 35.2334 125.176 35.3299Z" fill="#CED7DC"/>
<path d="M140.744 47.636L118.793 43.464C118.152 43.3443 117.73 42.726 117.853 42.0811L118.431 39.0294C118.554 38.3845 119.172 37.9624 119.814 38.0854L141.764 42.254C142.406 42.377 142.828 42.9986 142.708 43.6402L142.126 46.6919C142.007 47.3368 141.388 47.759 140.744 47.636Z" fill="#FE9001"/>
<path d="M139.826 46.579C139.826 46.579 117.909 42.407 117.836 42.3804C117.87 42.9056 118.252 43.3644 118.794 43.4674L140.744 47.6361C141.389 47.7591 142.007 47.3369 142.127 46.692C142.127 46.692 142.459 44.9401 142.682 43.7766C141.974 46.4094 140.518 46.7119 139.826 46.579Z" fill="#ED8100"/>
<path d="M125.499 41.9516C125.376 42.5998 124.751 43.0286 124.103 42.9023C123.454 42.7793 123.029 42.1544 123.155 41.5061C123.278 40.8579 123.903 40.4324 124.548 40.5554C125.196 40.6784 125.622 41.3033 125.499 41.9516Z" fill="#B9C6CD"/>
<path d="M125.322 41.074C125.386 41.2635 125.405 41.4662 125.366 41.6757C125.243 42.3239 124.618 42.7494 123.969 42.6264C123.637 42.5632 123.364 42.3704 123.195 42.1078C123.328 42.5034 123.664 42.8192 124.102 42.9023C124.751 43.0286 125.376 42.5998 125.499 41.9516C125.558 41.6358 125.489 41.3233 125.322 41.074Z" fill="#A1B6BF"/>
<path d="M137.406 44.2154C137.283 44.8636 136.658 45.2891 136.01 45.1661C135.362 45.0431 134.936 44.4182 135.059 43.7699C135.182 43.1217 135.807 42.6962 136.455 42.8192C137.104 42.9422 137.529 43.5672 137.406 44.2154Z" fill="#B9C6CD"/>
<path d="M137.23 43.3378C137.293 43.524 137.31 43.7301 137.273 43.9362C137.15 44.5844 136.525 45.0099 135.877 44.8902C135.545 44.8271 135.272 44.6309 135.099 44.3683C135.232 44.7672 135.571 45.083 136.01 45.1661C136.658 45.2891 137.283 44.8636 137.406 44.2154C137.466 43.8963 137.396 43.5871 137.23 43.3378Z" fill="#A1B6BF"/>
<path d="M121.403 41.4168C120.921 41.4168 120.436 41.3969 119.957 41.357C119.432 41.3137 119.043 40.8849 119.123 40.4494L119.299 39.5353C119.375 39.1297 119.777 38.8538 120.243 38.8538C120.316 38.8538 120.392 38.8604 120.469 38.8737L128.038 40.3131C128.171 40.3364 128.188 40.496 128.062 40.5292C127.52 40.6688 126.539 40.8949 125.332 41.0844C125.159 40.8184 124.884 40.619 124.548 40.5558C124.475 40.5425 124.398 40.5359 124.325 40.5359C123.82 40.5359 123.364 40.8583 123.198 41.3403C122.616 41.3869 122.011 41.4168 121.403 41.4168Z" fill="#FEAC41"/>
<path d="M123.198 41.3399C123.365 40.8579 123.82 40.5354 124.325 40.5354C124.399 40.5354 124.475 40.5421 124.548 40.5554C124.884 40.6185 125.16 40.818 125.333 41.0839H125.329C125.329 41.0806 125.326 41.0773 125.323 41.074C125.326 41.0773 125.326 41.0806 125.326 41.0873C124.674 41.1903 123.953 41.2801 123.198 41.3399Z" fill="#CBD4DA"/>
<path d="M125.326 41.0873C125.326 41.0806 125.326 41.0773 125.323 41.074C125.326 41.0773 125.329 41.0806 125.329 41.0839C125.329 41.0839 125.329 41.0873 125.326 41.0873Z" fill="#B9C8CF"/>
<path d="M140.468 53.9891L116.726 49.4781C116.084 49.3551 115.662 48.7368 115.785 48.0919L116.364 45.0402C116.487 44.3986 117.105 43.9764 117.746 44.0961L141.488 48.6071C142.13 48.7301 142.552 49.3484 142.432 49.9933L141.851 53.045C141.731 53.6866 141.109 54.1088 140.468 53.9891Z" fill="#DA040C"/>
<path d="M139.551 52.9317C139.551 52.9317 115.882 48.4339 115.769 48.414C115.812 48.9292 116.191 49.378 116.726 49.4777L140.468 53.9888C141.11 54.1084 141.731 53.6896 141.851 53.0447L142.429 49.993C141.655 52.6424 140.648 53.1411 139.551 52.9317Z" fill="#C60513"/>
<path d="M123.511 47.9789C123.388 48.6271 122.763 49.0526 122.115 48.9296C121.467 48.8066 121.041 48.1817 121.164 47.5334C121.287 46.8852 121.912 46.4597 122.56 46.5827C123.209 46.7057 123.634 47.3307 123.511 47.9789Z" fill="#B9C6CD"/>
<path d="M123.335 47.1013C123.398 47.2874 123.415 47.4936 123.378 47.703C123.252 48.3512 122.63 48.7767 121.979 48.6537C121.649 48.5906 121.377 48.3944 121.204 48.1351C121.337 48.5307 121.676 48.8465 122.115 48.9296C122.763 49.0526 123.388 48.6271 123.511 47.9789C123.571 47.6631 123.501 47.3506 123.335 47.1013Z" fill="#A1B6BF"/>
<path d="M137.05 50.5519C136.927 51.2001 136.302 51.6256 135.654 51.5026C135.006 51.3796 134.58 50.7546 134.703 50.1064C134.826 49.4582 135.451 49.0327 136.1 49.1557C136.748 49.2787 137.173 49.9036 137.05 50.5519Z" fill="#B9C6CD"/>
<path d="M136.874 49.6743C136.937 49.8604 136.954 50.0665 136.914 50.2726C136.791 50.9209 136.166 51.3497 135.521 51.2267C135.189 51.1635 134.916 50.9674 134.743 50.7048C134.876 51.1037 135.215 51.4195 135.654 51.5026C136.302 51.6256 136.927 51.2001 137.05 50.5519C137.11 50.2361 137.037 49.9236 136.874 49.6743Z" fill="#A1B6BF"/>
<path d="M119.559 47.4302C119.412 47.4302 119.266 47.4302 119.12 47.4269C118.977 46.8651 118.817 46.2866 118.634 45.6916C118.634 45.6849 118.634 45.6816 118.631 45.675V45.6716C118.628 45.6617 118.621 45.6484 118.621 45.6384C118.541 45.3791 118.461 45.1265 118.382 44.8805C118.385 44.8805 118.388 44.8838 118.388 44.8838L124.076 45.9642C124.183 46.3598 124.399 46.7254 124.691 47.0113C124.292 47.0745 123.853 47.1343 123.388 47.1908C123.225 46.885 122.929 46.6523 122.56 46.5825C122.484 46.5692 122.411 46.5625 122.338 46.5625C121.826 46.5625 121.364 46.8916 121.204 47.3836C120.659 47.4136 120.107 47.4302 119.559 47.4302Z" fill="#E34349"/>
<path d="M121.204 47.3838C121.364 46.8918 121.826 46.5627 122.338 46.5627C122.411 46.5627 122.484 46.5694 122.56 46.5827C122.929 46.6525 123.225 46.8852 123.388 47.191C123.371 47.1611 123.355 47.1312 123.335 47.1013C123.345 47.1312 123.355 47.1611 123.361 47.191C122.687 47.2708 121.952 47.3406 121.204 47.3838Z" fill="#CBD4DA"/>
<path d="M123.361 47.191C123.354 47.1611 123.344 47.1312 123.334 47.1013C123.354 47.1312 123.371 47.1611 123.388 47.191C123.378 47.191 123.371 47.191 123.361 47.191Z" fill="#B9C8CF"/>
<path d="M140.192 60.3382L114.658 55.4881C114.013 55.3651 113.595 54.7468 113.714 54.1052L114.293 51.0502C114.416 50.4086 115.034 49.9864 115.679 50.1094L141.213 54.9595C141.854 55.0825 142.276 55.7009 142.153 56.3424L141.575 59.3974C141.452 60.039 140.834 60.4612 140.192 60.3382Z" fill="#7869C4"/>
<path d="M141.575 59.3973L142.153 56.3423C141.684 58.8256 140.325 59.4937 138.646 59.1746C138.646 59.1746 113.751 54.4475 113.701 54.4375C113.751 54.9495 114.126 55.3883 114.658 55.488L140.192 60.3381C140.833 60.4611 141.452 60.0389 141.575 59.3973Z" fill="#5E52B2"/>
<path d="M121.713 54.0423C121.59 54.6906 120.965 55.1161 120.317 54.9931C119.672 54.8701 119.243 54.2451 119.366 53.5969C119.492 52.9486 120.114 52.5231 120.762 52.6461C121.41 52.7691 121.836 53.3941 121.713 54.0423Z" fill="#B9C6CD"/>
<path d="M121.536 53.1648C121.6 53.3509 121.62 53.557 121.58 53.7631C121.457 54.4147 120.832 54.8402 120.183 54.7139C119.851 54.6507 119.578 54.4579 119.409 54.1953C119.539 54.5942 119.878 54.91 120.316 54.9931C120.965 55.1161 121.59 54.6906 121.713 54.0424C121.772 53.7266 121.703 53.4141 121.536 53.1648Z" fill="#A1B6BF"/>
<path d="M136.502 56.8509C136.379 57.4992 135.754 57.9247 135.106 57.8017C134.457 57.6787 134.032 57.0537 134.155 56.4055C134.278 55.7572 134.903 55.3317 135.551 55.4547C136.199 55.5777 136.625 56.2027 136.502 56.8509Z" fill="#B9C6CD"/>
<path d="M136.326 55.9733C136.389 56.1595 136.406 56.3656 136.369 56.575C136.246 57.2233 135.621 57.6488 134.973 57.5258C134.641 57.4626 134.368 57.2665 134.198 57.0072C134.331 57.4028 134.667 57.7186 135.106 57.8017C135.754 57.9247 136.379 57.4992 136.502 56.8509C136.562 56.5351 136.492 56.2226 136.326 55.9733Z" fill="#A1B6BF"/>
<path d="M121.603 53.2742C121.44 52.9551 121.137 52.7158 120.761 52.6459C120.688 52.6326 120.612 52.6227 120.539 52.6227C120.349 52.6227 120.166 52.6692 120.004 52.7523C119.977 52.4 119.947 52.0376 119.904 51.6719L125.316 52.6991L125.312 52.9551C124.594 53.0914 123.245 53.1911 121.603 53.2742Z" fill="#9A8FD3"/>
<path d="M120.04 53.3439C120.03 53.1477 120.017 52.9516 120.004 52.7521C120.166 52.669 120.349 52.6225 120.539 52.6225C120.612 52.6225 120.688 52.6325 120.761 52.6458C121.137 52.7156 121.44 52.9549 121.603 53.2741C121.583 53.2342 121.559 53.1976 121.536 53.1644C121.549 53.2009 121.559 53.2375 121.569 53.2741C121.081 53.2973 120.569 53.3206 120.04 53.3439Z" fill="#CBD4DA"/>
<path d="M121.569 53.2745C121.559 53.2379 121.549 53.2013 121.536 53.1648C121.559 53.198 121.583 53.2346 121.603 53.2745C121.589 53.2745 121.579 53.2745 121.569 53.2745Z" fill="#B9C8CF"/>
<path d="M139.916 66.6911L112.588 61.4986C111.946 61.3756 111.527 60.7573 111.647 60.1157L112.228 57.0607C112.348 56.4191 112.966 55.9969 113.611 56.1199L140.937 61.3091C141.578 61.4321 142.001 62.0504 141.878 62.6953L141.299 65.747C141.176 66.3886 140.558 66.8108 139.916 66.6911Z" fill="#62B5EA"/>
<path d="M138.184 65.4909C138.184 65.4909 111.693 60.4613 111.633 60.448C111.68 60.9599 112.059 61.3987 112.587 61.4985L139.916 66.691C140.558 66.814 141.176 66.3918 141.299 65.7469L141.877 62.6952C141.409 65.1751 139.973 65.8333 138.184 65.4909Z" fill="#4AA8DD"/>
<path d="M119.625 60.0491C119.502 60.6973 118.877 61.1228 118.228 60.9998C117.583 60.8768 117.158 60.2519 117.281 59.6036C117.404 58.9554 118.026 58.5299 118.674 58.6529C119.322 58.7759 119.748 59.4008 119.625 60.0491Z" fill="#B9C6CD"/>
<path d="M119.452 59.1715C119.511 59.3577 119.531 59.5638 119.492 59.7699C119.369 60.4214 118.744 60.8469 118.095 60.7239C117.763 60.6608 117.49 60.4646 117.321 60.2054C117.454 60.6009 117.79 60.9167 118.228 60.9999C118.877 61.1229 119.502 60.6973 119.625 60.0491C119.684 59.7333 119.615 59.4208 119.452 59.1715Z" fill="#A1B6BF"/>
<path d="M136.246 63.2073C136.123 63.8556 135.498 64.2811 134.85 64.1581C134.202 64.0351 133.776 63.4101 133.899 62.7619C134.022 62.1137 134.647 61.6882 135.296 61.8111C135.944 61.9308 136.369 62.5591 136.246 63.2073Z" fill="#B9C6CD"/>
<path d="M136.07 62.3298C136.133 62.5159 136.15 62.722 136.11 62.9281C135.987 63.5764 135.362 64.0019 134.714 63.8789C134.385 63.8157 134.112 63.6229 133.939 63.3603C134.072 63.7592 134.408 64.075 134.85 64.1581C135.498 64.2811 136.123 63.8556 136.246 63.2074C136.306 62.8882 136.233 62.5791 136.07 62.3298Z" fill="#A1B6BF"/>
<path d="M119.688 59.1383C119.751 58.7393 119.811 58.3371 119.861 57.9249L123.345 58.5864C123.491 58.613 123.514 58.7726 123.375 58.8025C122.713 58.9488 121.36 59.0518 119.688 59.1383Z" fill="#89C8EF"/>
<path d="M139.64 73.04L110.52 67.5085C109.878 67.3888 109.456 66.7671 109.579 66.1256L110.157 63.0739C110.28 62.429 110.899 62.0068 111.54 62.1298L140.661 67.6614C141.302 67.7844 141.725 68.4027 141.602 69.0443L141.023 72.0993C140.9 72.7409 140.282 73.163 139.64 73.04Z" fill="#0164D6"/>
<path d="M141.023 72.0998L141.601 69.0481C141.129 71.528 139.62 72.1696 137.722 71.8106L109.562 66.4585C109.612 66.9704 109.991 67.4126 110.519 67.5123L139.637 73.0439C140.282 73.1635 140.9 72.7414 141.023 72.0998Z" fill="#005DAA"/>
<path d="M135.684 69.5033C135.561 70.1515 134.936 70.577 134.288 70.454C133.64 70.331 133.214 69.7061 133.337 69.0578C133.46 68.4096 134.085 67.9841 134.733 68.1071C135.382 68.2301 135.807 68.8551 135.684 69.5033Z" fill="#B9C6CD"/>
<path d="M135.508 68.6257C135.571 68.8119 135.591 69.018 135.551 69.2274C135.428 69.8756 134.804 70.3011 134.155 70.1781C133.823 70.115 133.55 69.9188 133.381 69.6595C133.514 70.0551 133.849 70.3709 134.288 70.454C134.936 70.577 135.561 70.1515 135.684 69.5033C135.744 69.1875 135.674 68.875 135.508 68.6257Z" fill="#A1B6BF"/>
<path d="M117.84 66.1159C117.717 66.7608 117.092 67.1896 116.443 67.0666C115.795 66.9403 115.373 66.3153 115.496 65.6671C115.616 65.0189 116.244 64.5934 116.892 64.7164C117.537 64.8394 117.963 65.4643 117.84 66.1159Z" fill="#B9C6CD"/>
<path d="M117.666 65.235C117.726 65.4244 117.746 65.6272 117.706 65.8366C117.583 66.4849 116.958 66.9104 116.31 66.7874C115.978 66.7242 115.705 66.5314 115.536 66.2688C115.669 66.6677 116.004 66.9802 116.443 67.0666C117.091 67.1896 117.716 66.7608 117.839 66.1159C117.899 65.7968 117.829 65.4876 117.666 65.235Z" fill="#A1B6BF"/>
<path d="M118.402 65.3711C118.518 64.9854 118.621 64.5998 118.714 64.2209L122.228 64.8857C122.387 64.919 122.417 65.0785 122.264 65.1084C121.563 65.2381 120.154 65.3145 118.402 65.3711Z" fill="#418BE0"/>
<path d="M139.361 79.3931L108.452 73.5225C107.81 73.3995 107.388 72.7812 107.508 72.1363L108.086 69.0846C108.209 68.443 108.828 68.0208 109.473 68.1405L140.382 74.0145C141.023 74.1341 141.445 74.7558 141.326 75.3974L140.747 78.4524C140.624 79.094 140.003 79.5161 139.361 79.3931Z" fill="#76C70E"/>
<path d="M140.747 78.4487L141.326 75.397C140.854 77.8803 139.268 78.5052 137.263 78.1263L107.495 72.4684C107.544 72.9803 107.923 73.4191 108.452 73.5221L139.361 79.3928C140.006 79.5158 140.624 79.0936 140.747 78.4487Z" fill="#6FB708"/>
<path d="M135.249 75.8264C135.126 76.4746 134.501 76.9001 133.853 76.7771C133.205 76.6541 132.779 76.0291 132.902 75.3809C133.025 74.7327 133.65 74.3038 134.298 74.4302C134.946 74.5498 135.372 75.1781 135.249 75.8264Z" fill="#B9C6CD"/>
<path d="M135.073 74.9485C135.136 75.1346 135.153 75.3407 135.113 75.5468C134.99 76.1951 134.365 76.6206 133.72 76.4976C133.387 76.4344 133.115 76.2416 132.942 75.979C133.075 76.3779 133.414 76.6937 133.853 76.7768C134.501 76.8998 135.126 76.4743 135.249 75.8261C135.309 75.5069 135.236 75.1978 135.073 74.9485Z" fill="#A1B6BF"/>
<path d="M115.932 72.1561C115.809 72.8043 115.184 73.2298 114.536 73.1068C113.887 72.9838 113.462 72.3589 113.585 71.7106C113.708 71.0624 114.333 70.6369 114.981 70.7599C115.629 70.8829 116.055 71.5078 115.932 72.1561Z" fill="#B9C6CD"/>
<path d="M115.755 71.2785C115.818 71.4646 115.835 71.6707 115.795 71.8768C115.676 72.5251 115.047 72.9539 114.402 72.8276C114.07 72.7677 113.797 72.5716 113.628 72.309C113.757 72.7079 114.097 73.0237 114.535 73.1068C115.184 73.2298 115.809 72.8043 115.932 72.1561C115.991 71.8369 115.922 71.5278 115.755 71.2785Z" fill="#A1B6BF"/>
<path d="M117.637 71.3049C117.73 71.1353 117.79 70.9459 117.813 70.7431C117.83 70.6134 117.826 70.4871 117.813 70.3641L120.512 70.8794C120.679 70.9093 120.708 71.0722 120.552 71.0988C119.977 71.1985 118.943 71.2617 117.637 71.3049Z" fill="#98D54A"/>
<path d="M38.0071 63.3836L39.2138 65.5177L46.5106 61.3823L45.3005 59.2482L38.0071 63.3836Z" fill="#62B5EA"/>
<path d="M39.6427 66.2755L40.8527 68.4096L48.1462 64.2743L46.9395 62.1434L39.6427 66.2755Z" fill="#62B5EA"/>
<path d="M41.3617 69.3105L42.5684 71.4447L49.8652 67.3093L48.6551 65.1751L41.3617 69.3105Z" fill="#62B5EA"/>
<path d="M44.8186 59.5241L46.0253 61.6583L46.5107 61.3823L45.3006 59.2482L44.8186 59.5241Z" fill="#4AA8DD"/>
<path d="M46.4541 62.416L47.6608 64.5502L48.1462 64.2743L46.9394 62.1434L46.4541 62.416Z" fill="#4AA8DD"/>
<path d="M48.1731 65.451L49.3798 67.5852L49.8651 67.3093L48.6551 65.1751L48.1731 65.451Z" fill="#4AA8DD"/>
<path d="M40.5635 61.934L37.6182 63.6027L38.8282 65.7369L43.3525 63.1739C42.5447 63.2304 41.3846 63.0742 40.5635 61.934Z" fill="#4AA8DD"/>
<path d="M42.1994 64.8292L39.2574 66.4947L40.4642 68.6288L44.9885 66.0658C44.1807 66.1223 43.0205 65.9661 42.1994 64.8292Z" fill="#4AA8DD"/>
<path d="M43.9179 67.8609L40.976 69.5297L42.1827 71.6639L46.707 69.0976C45.8992 69.1574 44.739 69.0012 43.9179 67.8609Z" fill="#4AA8DD"/>
<path d="M44.6856 57.1501C44.1205 56.1495 42.844 55.7938 41.8401 56.3623L39.1408 57.8915C38.3529 58.3402 38.0737 59.3475 38.5224 60.1353L45.4336 72.3487C45.8824 73.1399 46.8863 73.4158 47.6741 72.9703L50.3735 71.4412C51.3774 70.8727 51.7298 69.5929 51.1613 68.5923L44.6856 57.1501ZM43.1598 73.6385L36.2453 61.4252C35.0885 59.3807 35.8098 56.7745 37.8543 55.6177L40.5536 54.0885C42.8074 52.8087 45.6829 53.6065 46.9594 55.8603L53.4384 67.3025C54.7149 69.5596 53.9204 72.4385 51.6633 73.715L48.964 75.2441C46.9195 76.4043 44.3166 75.6829 43.1598 73.6385Z" fill="#62B5EA"/>
<path d="M52.604 73.014L52.614 73.0074C52.6273 72.9941 52.6373 72.9808 52.6505 72.9675C52.7037 72.9176 52.7503 72.8678 52.7968 72.8146C52.8134 72.8013 52.8267 72.7847 52.8434 72.768C52.8999 72.7016 52.9564 72.6384 53.0096 72.5719C53.0162 72.5619 53.0229 72.5553 53.0295 72.5453C53.0761 72.4855 53.1226 72.4223 53.1691 72.3592C53.1791 72.3459 53.1891 72.3292 53.1991 72.3159C53.2489 72.2428 53.2988 72.1697 53.342 72.0965L53.3486 72.0866C53.3952 72.0134 53.4351 71.9403 53.475 71.8638C53.4816 71.8539 53.4883 71.8406 53.4949 71.8306C53.5813 71.671 53.6545 71.5048 53.721 71.3386C53.7243 71.3286 53.7276 71.322 53.7309 71.3153C53.7974 71.1425 53.8506 70.9663 53.8972 70.7868L53.9005 70.7768C53.947 70.594 53.9836 70.4078 54.0068 70.2217V70.2183C54.1332 69.241 53.957 68.2204 53.4384 67.3029L46.9594 55.8608C45.8823 53.956 43.6617 53.0917 41.6373 53.6402L43.0301 56.1002C43.6983 56.15 44.3332 56.5257 44.6856 57.1506L51.1613 68.5928C51.517 69.221 51.5136 69.9557 51.2111 70.5574C51.7829 71.5613 51.4305 72.8345 50.4299 73.4096C49.7618 73.7919 49.1634 74.131 49.1634 74.131C46.4641 75.6602 44.7754 75.0319 43.3858 72.5752L36.5711 60.5347C35.996 59.5208 35.8962 58.364 36.1988 57.3168C35.5372 58.5634 35.5007 60.1092 36.2453 61.4256L43.1598 73.639C44.3199 75.6867 46.9162 76.4048 48.9639 75.2446L51.6632 73.7155C52.0123 73.5193 52.3281 73.28 52.604 73.014Z" fill="#4AA8DD"/>
<path d="M54.4992 75.5001L40.903 51.4789L44.0444 49.7004L57.6406 73.7183L54.4992 75.5001Z" fill="#62B5EA"/>
<path d="M50.2605 58.49L49.712 57.516L51.1415 56.7082L51.69 57.6789L50.2605 58.49Z" fill="#6494AF"/>
<path d="M49.8483 57.4393L49.712 57.5158L50.2605 58.4898L50.8124 58.1773C50.8124 58.1773 50.347 58.2405 49.8483 57.4393Z" fill="#53859B"/>
<path d="M50.6128 57.0041L51.1613 57.9781L51.6899 57.6789L51.1414 56.7082L50.6128 57.0041Z" fill="#53859B"/>
<path d="M52.4911 57.6952L51.5404 56.0098C51.3841 55.7372 51.0384 55.6408 50.7658 55.7971C50.4932 55.95 50.3968 56.299 50.5531 56.5716L51.5038 58.2537C51.66 58.5263 52.0058 58.6227 52.2783 58.4665C52.5509 58.3135 52.6473 57.9678 52.4911 57.6952Z" fill="#62B5EA"/>
<path d="M51.6934 56.6382C51.617 56.6382 51.115 56.3556 51.0119 56.1628C50.9621 56.0731 50.992 55.96 51.0817 55.9102C51.1117 55.8935 51.1416 55.8836 51.1715 55.8836C51.238 55.8836 51.3011 55.9201 51.3344 55.98L51.7001 56.6249C51.7067 56.6349 51.7034 56.6382 51.6934 56.6382Z" fill="#89C8EF"/>
<path d="M52.5643 57.9945C52.5177 58.0709 52.4512 58.1341 52.3681 58.184L52.2352 58.2571C52.0357 58.3701 51.7831 58.3003 51.67 58.1009L50.6395 56.2858C50.5863 56.1894 50.5631 56.0864 50.5697 55.9833C50.46 56.1562 50.4467 56.3822 50.5531 56.5717L51.5038 58.2538C51.6601 58.5264 52.0058 58.6228 52.2784 58.4665C52.4546 58.3668 52.5576 58.184 52.5643 57.9945Z" fill="#4AA8DD"/>
<path d="M50.5101 59.1151C50.5932 59.0686 50.6231 58.9622 50.5766 58.8791L49.5394 57.0474C49.4929 56.9643 49.3865 56.9344 49.3 56.9843L48.4424 57.4696L49.6524 59.6005L50.5101 59.1151Z" fill="#62B5EA"/>
<path d="M49.8416 57.8617C49.7651 57.8617 49.2632 57.5758 49.1601 57.3864C49.1103 57.2966 49.1402 57.1803 49.2299 57.1304C49.2599 57.1138 49.2898 57.1071 49.323 57.1071C49.3862 57.1071 49.4493 57.1404 49.4859 57.2002L49.8483 57.8451C49.8549 57.8551 49.8516 57.8617 49.8416 57.8617Z" fill="#89C8EF"/>
<path d="M48.5521 57.4063L48.4424 57.4695L49.6524 59.6003L50.4835 59.1316C49.8884 59.2613 49.3765 58.8923 48.5521 57.4063Z" fill="#4AA8DD"/>
<path d="M51.8995 61.3821L51.3477 60.4081L52.7771 59.6003L53.3289 60.571L51.8995 61.3821Z" fill="#6494AF"/>
<path d="M52.2483 59.8995L52.8001 60.8702L53.3287 60.571L52.7768 59.6003L52.2483 59.8995Z" fill="#53859B"/>
<path d="M54.1301 60.5877L53.176 58.9023C53.0231 58.6297 52.6774 58.5367 52.4048 58.6896C52.1322 58.8458 52.0358 59.1915 52.1887 59.4641L53.1428 61.1462C53.2957 61.4188 53.6414 61.5152 53.914 61.359C54.1866 61.206 54.283 60.8603 54.1301 60.5877Z" fill="#62B5EA"/>
<path d="M52.6277 59.0053C52.6111 58.9288 52.6444 58.8424 52.7175 58.8025C52.7341 58.7925 52.7507 58.7859 52.7707 58.7826C52.7241 58.8557 52.6776 58.9322 52.6277 59.0053Z" fill="#89C8EF"/>
<path d="M54.2031 60.887C54.1532 60.9635 54.0867 61.03 54.0036 61.0765L53.8707 61.1496C53.6712 61.2627 53.4186 61.1928 53.3055 60.9934L52.2783 59.1783C52.2252 59.0819 52.2019 58.9789 52.2052 58.8792C52.0955 59.0487 52.0822 59.2747 52.1886 59.4642L53.1426 61.1463C53.2956 61.4189 53.6413 61.5153 53.9139 61.3591C54.0934 61.2593 54.1931 61.0765 54.2031 60.887Z" fill="#4AA8DD"/>
<path d="M51.484 60.3315L51.3477 60.4079L51.8995 61.3819L52.4513 61.0694C52.4513 61.0694 51.9826 61.1326 51.484 60.3315Z" fill="#53859B"/>
<path d="M52.1454 62.007C52.2285 61.9605 52.2585 61.8541 52.2119 61.771L51.1781 59.9393C51.1282 59.8562 51.0218 59.8263 50.9387 59.8728L50.0811 60.3615L51.2878 62.4957L52.1454 62.007Z" fill="#62B5EA"/>
<path d="M50.1908 60.2984L50.0811 60.3616L51.2878 62.4958L52.1188 62.0237C51.5238 62.1534 51.0152 61.7844 50.1908 60.2984Z" fill="#4AA8DD"/>
<path d="M51.3841 60.7206C51.2113 60.6408 50.8789 60.4281 50.7957 60.2785C50.7459 60.1887 50.7758 60.0757 50.8656 60.0225C50.8955 60.0059 50.9287 59.9992 50.9586 59.9992C51.0251 59.9992 51.0883 60.0325 51.1215 60.0923L51.4373 60.6541C51.4207 60.6741 51.4008 60.6973 51.3841 60.7206Z" fill="#89C8EF"/>
<path d="M53.6145 64.417L53.066 63.443L54.4955 62.6352L55.044 63.6058L53.6145 64.417Z" fill="#6494AF"/>
<path d="M53.9674 62.9312L54.5192 63.9052L55.0445 63.6061L54.496 62.632L53.9674 62.9312Z" fill="#53859B"/>
<path d="M55.845 63.6195L54.8942 61.9374C54.738 61.6648 54.3923 61.5684 54.1197 61.7246C53.8471 61.8775 53.7507 62.2266 53.9069 62.4992L54.861 64.1813C55.0139 64.4538 55.3596 64.5502 55.6322 64.394C55.9048 64.2411 56.0012 63.892 55.845 63.6195Z" fill="#62B5EA"/>
<path d="M53.2023 63.3669L53.066 63.4434L53.6145 64.4174L54.1664 64.1016C54.1664 64.1016 53.701 64.1681 53.2023 63.3669Z" fill="#53859B"/>
<path d="M55.9183 63.9221C55.8717 63.9985 55.8052 64.0617 55.7221 64.1082L55.5892 64.1847C55.3897 64.2977 55.1371 64.2279 55.024 64.0284L53.9968 62.2134C53.9403 62.117 53.9204 62.0139 53.9237 61.9109C53.814 62.0838 53.8007 62.3065 53.9071 62.4993L54.8612 64.1814C55.0141 64.454 55.3598 64.5504 55.6324 64.3941C55.8086 64.2944 55.9116 64.1116 55.9183 63.9221Z" fill="#4AA8DD"/>
<path d="M53.8639 65.0419C53.947 64.9953 53.977 64.8856 53.9304 64.8025L52.8932 62.9742C52.8467 62.8911 52.7403 62.8612 52.6572 62.9077L51.7996 63.3964L53.0063 65.5272L53.8639 65.0419Z" fill="#62B5EA"/>
<path d="M51.9059 63.3333L51.7996 63.3964L53.0063 65.5273L53.8373 65.0586C53.2423 65.1849 52.7304 64.8159 51.9059 63.3333Z" fill="#4AA8DD"/>
<path d="M47.3254 56.5285C47.0794 56.5285 43.7917 53.2641 42.688 51.818C42.4952 51.5654 42.5284 51.213 42.8043 51.0567L43.4858 50.6711C43.5623 50.6279 43.6454 50.608 43.7252 50.608C43.898 50.608 44.0609 50.6977 44.1507 50.854L47.3121 56.4354C47.3453 56.4986 47.3519 56.5285 47.3254 56.5285Z" fill="#89C8EF"/>
<path d="M44.0442 49.7008C44.0442 49.7008 42.289 46.31 43.0336 42.1912C43.7783 38.0758 45.3806 35.3499 45.3806 35.3499C45.3806 35.3499 43.0669 34.4756 35.7136 38.6443C28.3603 42.8129 27.9215 45.2462 27.9215 45.2462C27.9215 45.2462 31.0796 45.2728 34.9922 46.7521C38.9016 48.2281 40.9028 51.4792 40.9028 51.4792L44.0442 49.7008Z" fill="#FDD600"/>
<path d="M43.4758 48.2415C41.2219 49.0958 39.5232 47.3672 36.4881 45.7649C33.4198 44.146 31.0929 43.531 29.1847 43.3715C28.0379 44.5881 27.9215 45.2463 27.9215 45.2463C27.9215 45.2463 31.0796 45.2729 34.9889 46.7522C38.9016 48.2282 40.9028 51.4793 40.9028 51.4793L44.0442 49.7009C44.0442 49.7009 43.765 49.1557 43.4758 48.2415Z" fill="#F4C500"/>
<path d="M42.0299 41.6857C41.026 41.1804 35.4479 40.1698 35.4479 40.1698C39.1976 37.2777 43.6355 36.3269 43.6355 36.3269C42.2792 38.7271 42.0299 41.6857 42.0299 41.6857Z" fill="#FEE24D"/>
<path d="M27.4226 45.5284C27.3394 45.3821 27.3195 45.2026 27.386 45.0364C27.4359 44.9134 28.6492 41.988 35.4307 38.1452C42.3053 34.2491 45.357 34.7644 45.4833 34.7877C45.7958 34.8442 46.0019 35.1467 45.942 35.4559C45.8855 35.765 45.5863 35.9711 45.2805 35.9146C45.2207 35.9046 42.3851 35.5223 35.9958 39.1425C29.5634 42.7892 28.463 45.432 28.4531 45.4586C28.3367 45.7511 28.0043 45.8974 27.7084 45.781C27.5821 45.7312 27.4824 45.6381 27.4226 45.5284Z" fill="#FCC000"/>
<path d="M41.4082 51.1932L40.903 51.4791L54.4992 75.5003L55.4599 74.9551C54.1468 73.5855 52.1091 70.095 41.4082 51.1932Z" fill="#4AA8DD"/>
<path d="M56.3606 78.7882L54.499 75.5005L57.6405 73.7187L59.502 77.0064L56.3606 78.7882Z" fill="#FDD600"/>
<path d="M56.0947 75.5304C55.8786 75.3542 55.6791 75.1847 55.4597 74.9553L54.499 75.5005L56.3606 78.7882L59.256 77.146C59.256 77.146 57.9795 77.0396 56.0947 75.5304Z" fill="#F4C500"/>
<path d="M59.7714 76.9861C59.7016 76.8664 59.5486 76.8232 59.429 76.893L56.3008 78.6648C56.1812 78.7313 56.1379 78.8876 56.2044 79.0072C56.2742 79.1302 56.4272 79.1734 56.5502 79.1036L59.675 77.3318C59.798 77.262 59.8412 77.1091 59.7714 76.9861Z" fill="#FCC000"/>
<path d="M63.0127 78.788L61.8857 79.7986C61.8857 79.7986 62.9262 81.8596 63.5512 81.7466C64.2327 81.6236 64.4255 79.3365 64.4255 79.3365L63.0127 78.788Z" fill="#005DAA"/>
<path d="M62.607 76.5472L58.2987 78.6914C58.2987 78.6914 60.4063 80.3535 63.2053 79.8449C66.4631 79.2532 67.3939 77.0392 67.3939 77.0392L62.607 76.5472Z" fill="#0164D6"/>
<path d="M66.6559 76.963C66.37 77.4882 65.273 79.1105 62.5537 79.6058C61.4135 79.8119 60.3896 79.659 59.5752 79.4063C60.4595 79.782 61.736 80.1111 63.2053 79.8451C66.4631 79.2534 67.3939 77.0394 67.3939 77.0394L66.6559 76.963Z" fill="#005DAA"/>
<path d="M58.3087 49.6643L57.1818 49.8704L57.328 50.6882L58.455 50.4821L58.3087 49.6643Z" fill="#AEABC6"/>
<path d="M57.2516 50.256L58.3785 50.0532L58.3087 49.6643L57.1818 49.8704L57.2516 50.256Z" fill="#8F8EAF"/>
<path d="M61.6628 52.347L54.9844 53.5604L54.7317 52.1775C54.6087 51.4927 55.0608 50.8378 55.7456 50.7115L59.9475 49.9503C60.6323 49.8239 61.2872 50.2794 61.4102 50.9608L61.6628 52.347Z" fill="#62B5EA"/>
<path d="M54.8948 53.0646L54.9845 53.5599L61.663 52.3466L61.4103 50.9603C61.3538 50.6612 61.1976 50.4019 60.9782 50.219C60.9815 51.5654 58.8074 52.413 54.8948 53.0646Z" fill="#4AA8DD"/>
<path d="M55.699 51.7551C55.5228 51.7551 55.3666 51.662 55.34 51.5157C55.3001 51.2996 55.4962 51.0835 55.7788 51.0304L57.6304 50.6946C57.6337 50.6946 57.6337 50.6946 57.6371 50.6946C57.667 50.6946 57.6836 50.7179 57.667 50.7412C57.4974 50.9473 56.9855 51.3595 55.8619 51.7285C55.8087 51.7484 55.7522 51.7551 55.699 51.7551Z" fill="#89C8EF"/>
<path d="M64.279 70.7169L61.6362 71.1989L58.9935 71.6776L45.9424 74.0511C45.9424 74.0511 48.0167 77.3421 52.797 78.2397C57.8399 79.1838 60.4329 78.7117 62.9161 78.2596C65.4026 77.8075 68.1751 77.3023 72.3836 74.6761C76.5123 72.0998 77.3301 68.3434 77.3301 68.3434L64.279 70.7169Z" fill="#62B5EA"/>
<path d="M74.9632 68.7755C74.4048 70.0853 73.1249 72.2992 70.3957 73.9979C66.1872 76.6241 63.4147 77.1294 60.9315 77.5815C58.4483 78.0336 55.8554 78.5023 50.8124 77.5582C50.5897 77.5183 50.3703 77.4718 50.1609 77.4186C50.9255 77.761 51.8031 78.0502 52.797 78.2397C57.8399 79.1838 60.4329 78.7117 62.9161 78.2596C65.4027 77.8075 68.1751 77.3023 72.3836 74.6761C76.5124 72.0998 77.3301 68.3434 77.3301 68.3434L74.9632 68.7755Z" fill="#4AA8DD"/>
<path d="M46.8665 75.1581L76.8348 69.7096C77.2104 68.8885 77.3301 68.3434 77.3301 68.3434L64.279 70.7169L61.6362 71.1989L58.9935 71.6776L45.9424 74.0511C45.9424 74.0511 46.2382 74.5232 46.8665 75.1581Z" fill="#4AA8DD"/>
<path d="M71.0139 59.5105C64.1726 56.5486 63.1952 54.0387 62.7332 52.6991C62.567 52.2204 62.075 51.9378 61.5763 52.0276L54.9511 53.231C54.4524 53.3207 54.0934 53.7595 54.1067 54.2681C54.1399 55.6843 54.11 58.3769 48.748 63.5595C44.1405 68.0106 46.1285 73.6818 46.2215 74.001C51.4074 73.1965 71.9115 69.47 77.0508 68.3963C77.0242 68.0638 76.8912 62.0569 71.0139 59.5105Z" fill="#0164D6"/>
<path d="M71.014 59.5104C68.0587 58.2305 66.1971 57.0371 65.0004 55.9833C67.9756 59.1015 69.1757 61.1991 69.5746 62.8878C70.9675 68.7917 53.0463 71.0489 45.8427 72.3985C45.9789 73.1631 46.195 73.9144 46.2216 74.0008C51.4075 73.1964 71.9116 69.4699 77.0509 68.3961C77.0243 68.0637 76.8913 62.0567 71.014 59.5104Z" fill="#005DAA"/>
<path d="M77.29 69.3072L46.3178 74.9385C45.8059 75.0316 45.3172 74.6925 45.2241 74.1806C45.131 73.6719 45.4701 73.18 45.9787 73.0869L76.9543 67.4556C77.4629 67.3625 77.9549 67.7016 78.0479 68.2135C78.1377 68.7254 77.8019 69.2141 77.29 69.3072Z" fill="#FDD600"/>
<path d="M45.7662 71.7439L76.6819 66.1225C76.549 65.6305 76.3661 65.0887 76.1168 64.5269L45.7363 70.0485C45.6998 70.6635 45.7197 71.2353 45.7662 71.7439Z" fill="white"/>
<path d="M45.8994 68.739L75.502 63.357C75.2693 62.978 75.0034 62.599 74.6942 62.23L46.2584 67.3993C46.0989 67.8547 45.9825 68.3035 45.8994 68.739Z" fill="white"/>
<path d="M47.0294 65.7238L73.3809 60.9336C73.0917 60.6975 72.7725 60.4715 72.4335 60.2554L47.681 64.7565C47.4383 65.0789 47.2222 65.4014 47.0294 65.7238Z" fill="white"/>
<path d="M76.6821 66.1225C76.6654 66.0594 76.6488 65.9995 76.6289 65.9364L76.6255 65.9231C76.6089 65.8699 76.5923 65.8134 76.5757 65.7569C76.5724 65.7436 76.569 65.7336 76.5657 65.7236C76.5491 65.6704 76.5325 65.6172 76.5158 65.5641C76.5125 65.5541 76.5092 65.5441 76.5059 65.5341C76.4859 65.4743 76.466 65.4145 76.4427 65.3546V65.348C76.3496 65.082 76.2399 64.8061 76.1169 64.5269L68.4345 65.9231C67.3608 66.917 65.6588 67.7647 63.631 68.4961L76.6821 66.1225Z" fill="#E4EBF2"/>
<path d="M75.5016 63.357C75.4484 63.2705 75.3952 63.1841 75.3387 63.0977C75.3287 63.0844 75.3187 63.0678 75.3088 63.0545C75.1891 62.8716 75.0594 62.6921 74.9231 62.5126L74.9165 62.506C74.8467 62.4129 74.7702 62.3198 74.6938 62.23L69.6243 63.1509C69.6874 63.6063 69.6342 64.0384 69.4813 64.4507L75.5016 63.357Z" fill="#E4EBF2"/>
<path d="M73.3811 60.9336C73.0919 60.6975 72.7727 60.4715 72.4337 60.2554L68.8069 60.9169C68.9498 61.1862 69.0728 61.4488 69.1792 61.6981L73.3811 60.9336Z" fill="#E4EBF2"/>
<path d="M50.8392 63.197C50.6797 63.197 50.3805 62.9676 50.9622 62.4191C51.6437 61.7709 52.8405 60.8268 53.7945 59.2278C55.1874 56.8942 54.9148 55.8736 54.9647 54.7434C54.978 54.4442 55.2007 54.2082 55.4899 54.1417C56.0883 53.9987 57.531 53.6397 58.3454 53.6397C58.6712 53.6397 58.8973 53.6962 58.9239 53.8491C59.1931 55.3318 58.751 57.6587 56.321 60.2018C54.5059 62.1033 51.9529 62.9177 50.8725 63.1937C50.8625 63.197 50.8525 63.197 50.8392 63.197Z" fill="#418BE0"/>
<path d="M55.0112 45.7612C54.6356 45.8277 54.4162 46.2299 54.5657 46.5856L55.7259 49.3481C55.942 49.87 56.4772 50.1725 57.0091 50.0761L58.5416 49.7969C59.0734 49.7005 59.4657 49.2317 59.489 48.6633L59.602 45.6681C59.6153 45.2825 59.2729 44.9866 58.8939 45.0531L55.0112 45.7612Z" fill="#FE9001"/>
<path d="M55.5594 47.7828C55.5295 47.7828 55.4996 47.7628 55.4896 47.7329L54.9744 46.5495C54.9045 46.3866 55.0109 46.2037 55.1938 46.1672L56.9789 45.8447C56.9822 45.8447 56.9855 45.8447 56.9922 45.8447C57.0387 45.8447 57.0753 45.8846 57.0686 45.9312C56.9855 46.5694 56.3739 47.3473 55.5993 47.7728C55.586 47.7795 55.5727 47.7828 55.5594 47.7828Z" fill="#FEAC41"/>
<path d="M56.0717 49.8203C56.3309 50.0364 56.67 50.1362 57.0091 50.0763L58.5416 49.7971C59.0735 49.7007 59.4657 49.2319 59.489 48.6635L59.602 45.6683C59.3627 47.0944 58.525 49.3151 56.0717 49.8203Z" fill="#ED8100"/>
<path d="M80.5447 42.8363L68.6239 45.9844C66.9784 46.4199 65.9944 48.1086 66.4299 49.7541C66.8654 51.3996 68.5508 52.3836 70.1963 51.9482L82.1171 48.8001C83.7626 48.3646 84.7433 46.6792 84.3111 45.0304C83.8757 43.3848 82.1903 42.4009 80.5447 42.8363Z" fill="#FE9001"/>
<path d="M82.4098 42.9289C83.5666 45.9706 81.0501 47.7757 77.9353 48.5902C72.6497 49.9697 69.3886 50.8108 67.4207 51.3194C68.162 51.9477 69.1858 52.2169 70.1964 51.9477L82.1172 48.7996C83.7628 48.3641 84.7434 46.6787 84.3113 45.0299C84.0453 44.0259 83.314 43.268 82.4098 42.9289Z" fill="#ED8100"/>
<path d="M67.8192 48.8632C67.6962 48.8632 67.5899 48.8432 67.5034 48.7967C66.9017 48.4709 67.191 47.1645 68.0253 46.9118C69.7008 46.4032 71.6255 45.9179 72.2305 45.8015C72.2538 45.7982 72.2738 45.7949 72.2904 45.7949C72.4699 45.7949 72.3735 46.0209 72.1142 46.2736C70.9208 47.4304 68.8198 48.8632 67.8192 48.8632Z" fill="#FEAC41"/>
<path d="M83.7857 48.3609L68.5273 52.3899C66.8153 52.842 65.7948 54.5972 66.2469 56.3092C66.699 58.0212 68.4509 59.0451 70.1629 58.593L85.4213 54.564C87.1332 54.1119 88.1538 52.3533 87.7017 50.6413C87.2496 48.9293 85.4977 47.9088 83.7857 48.3609Z" fill="#FDD600"/>
<path d="M85.5346 48.3909C86.1264 50.7478 85.2488 53.1712 79.9532 54.5707C73.5274 56.2661 69.6147 57.3531 67.2711 57.9349C68.0457 58.5898 69.1128 58.869 70.1632 58.5931L85.4216 54.5641C87.1336 54.112 88.1542 52.3534 87.7021 50.6414C87.4095 49.5278 86.5618 48.7067 85.5346 48.3909Z" fill="#F4C500"/>
<path d="M67.9755 55.2657C67.8525 55.2657 67.7428 55.2491 67.6564 55.2092C66.9516 54.9 67.3539 53.5371 68.3611 53.2346C70.3856 52.6329 72.7026 52.0445 73.4273 51.8982C73.4606 51.8916 73.4871 51.8882 73.5104 51.8882C73.7132 51.8882 73.5836 52.1209 73.2677 52.3902C71.7752 53.6601 69.149 55.2657 67.9755 55.2657Z" fill="#FEE24D"/>
<path d="M87.0901 54.1221L68.4941 59.032C66.719 59.5041 65.6585 61.3258 66.1272 63.1042C66.596 64.8827 68.4177 65.9432 70.1928 65.4744L88.7888 60.5612C90.5673 60.0925 91.6277 58.2708 91.1556 56.4923C90.6869 54.7138 88.8686 53.6533 87.0901 54.1221Z" fill="#76C70E"/>
<path d="M88.6427 54.0854C89.886 57.0174 88.5231 59.0518 82.2269 60.7505C74.6476 62.7983 69.8839 64.1147 67.1813 64.7862C67.9857 65.471 69.0994 65.7635 70.1931 65.4743L88.789 60.561C90.5675 60.0923 91.6279 58.2706 91.1559 56.4921C90.8268 55.2389 89.8262 54.3447 88.6427 54.0854Z" fill="#6FB708"/>
<path d="M68.1484 62.0339C68.0154 62.0339 67.9024 62.014 67.8093 61.9774C67.0414 61.6583 67.5001 60.2122 68.6071 59.8831C70.8377 59.2216 73.3874 58.5733 74.1853 58.4105C74.2218 58.4038 74.2517 58.4005 74.2783 58.4005C74.4944 58.4005 74.3515 58.6465 74.0024 58.9357C72.3403 60.2953 69.4249 62.0339 68.1484 62.0339Z" fill="#98D54A"/>
<path d="M90.4576 60.1221L68.524 65.9163C66.6824 66.4016 65.5821 68.2931 66.0674 70.1348C66.5561 71.9798 68.4443 73.0801 70.2859 72.5947L92.2194 66.8005C94.0611 66.3152 95.1614 64.4237 94.676 62.5787C94.1907 60.7338 92.2992 59.6334 90.4576 60.1221Z" fill="#62B5EA"/>
<path d="M91.7872 60.036C92.8875 63.0511 91.222 65.4812 84.2477 67.3228C75.4617 69.6431 70.1794 71.1191 67.1477 71.8671C67.9821 72.5884 69.1423 72.8976 70.2858 72.5951L92.2193 66.8009C94.061 66.3156 95.1613 64.424 94.676 62.5791C94.307 61.1829 93.1335 60.2155 91.7872 60.036Z" fill="#4AA8DD"/>
<path d="M68.2484 69.2808C68.1088 69.2808 67.9858 69.2642 67.8861 69.2243C67.0251 68.8852 67.557 67.3095 68.8036 66.9405C71.3101 66.1992 74.1789 65.4679 75.0765 65.2817C75.1197 65.2751 75.1563 65.2717 75.1862 65.2717C75.4255 65.2717 75.2626 65.541 74.867 65.8535C72.9822 67.356 69.6745 69.2808 68.2484 69.2808Z" fill="#89C8EF"/>
<path d="M93.8886 66.362L68.6175 73.0338C66.7094 73.5391 65.5692 75.497 66.0745 77.4085C66.5798 79.3166 68.5344 80.4569 70.4426 79.9549L95.7136 73.2798C97.6218 72.7745 98.762 70.8165 98.2567 68.9084C97.7547 66.9969 95.7967 65.8567 93.8886 66.362Z" fill="#0164D6"/>
<path d="M98.2561 68.9081C97.8805 67.472 96.6837 66.4747 95.3042 66.2752C96.7369 70.3973 94.4831 71.9032 86.6511 74.1172C76.8778 76.8763 70.7312 78.349 67.2274 79.2299C68.0884 79.9546 69.2752 80.2638 70.442 79.9546L95.7131 73.2795C97.6212 72.7742 98.7614 70.8162 98.2561 68.9081Z" fill="#005DAA"/>
<path d="M69.4086 76.2248L67.5703 75.5898C67.6301 74.9948 68.1787 74.2601 69.0263 74.0108C71.7323 73.2163 74.8272 72.4284 75.7912 72.2257C75.8411 72.2157 75.881 72.209 75.9142 72.209C76.1635 72.209 75.984 72.4883 75.5585 72.8107C73.8831 74.0939 71.1738 75.6829 69.4086 76.2248Z" fill="#418BE0"/>
<path d="M99.4931 79.9349L70.8845 87.4909C68.9099 88.0128 66.8887 86.836 66.3668 84.8581C65.8449 82.8835 67.025 80.8557 68.9996 80.3338L97.6049 72.7777C99.5796 72.2591 101.604 73.4359 102.126 75.4139C102.645 77.3885 101.468 79.413 99.4931 79.9349Z" fill="#7869C4"/>
<path d="M98.4193 72.6583C99.7955 77.0064 96.8635 78.8713 89.0515 81.0421C77.8687 84.1469 71.137 85.7891 67.4836 86.68C68.3812 87.4745 69.6411 87.8203 70.8844 87.4912L99.493 79.9351C101.468 79.4132 102.644 77.3887 102.126 75.4141C101.677 73.7087 100.108 72.5984 98.4193 72.6583Z" fill="#5E52B2"/>
<path d="M77.3631 37.5506L68.7832 39.8178C67.2008 40.2366 66.2601 41.8555 66.6756 43.4379C67.0945 45.0169 68.7134 45.961 70.2924 45.5422L78.8757 43.2783C80.4547 42.8595 81.3955 41.2405 80.9799 39.6582C80.5644 38.0792 78.9455 37.1351 77.3631 37.5506Z" fill="#DA040C"/>
<path d="M68.085 42.4236C67.952 42.4236 67.839 42.3937 67.7559 42.3305C67.3171 42.0014 67.5066 40.808 68.2246 40.5953C69.6308 40.1797 71.2929 39.7775 71.8115 39.6911C71.8281 39.6877 71.8414 39.6877 71.8547 39.6877C72.0209 39.6877 71.9411 39.8972 71.7118 40.1299C70.7178 41.1471 68.956 42.4236 68.085 42.4236Z" fill="#E34349"/>
<path d="M79.3978 37.7431C80.1258 39.721 79.3845 41.6757 76.253 42.6464C72.1775 43.9096 69.2322 44.5213 67.6332 44.9468C68.3446 45.5451 69.3252 45.7978 70.2926 45.5418L78.8759 43.278C80.4549 42.8591 81.3956 41.2402 80.9801 39.6579C80.7507 38.7869 80.1524 38.1054 79.3978 37.7431Z" fill="#C60513"/>
<path d="M76.2497 37.8462C76.8415 36.8257 77.0409 35.5758 76.7185 34.3458C76.0636 31.8725 73.5305 30.3932 71.0572 31.0481C68.5873 31.6997 67.1113 34.2361 67.7629 36.7093C68.0887 37.9426 68.8798 38.9266 69.8971 39.525L76.2497 37.8462Z" fill="#FDD600"/>
<path d="M69.7272 35.7221C69.2086 35.7221 68.6967 35.4229 68.5106 34.8678C68.4906 34.8113 68.4773 34.7548 68.4673 34.6949C68.3078 33.6877 68.9061 32.6837 69.8602 32.328C69.9965 32.2782 70.1361 32.2549 70.2691 32.2549C71.017 32.2549 71.6553 32.963 71.4725 33.7542C71.3561 34.2594 71.1267 34.7814 70.7212 35.2634C70.4586 35.5759 70.0896 35.7221 69.7272 35.7221Z" fill="#FEE24D"/>
<path d="M76.7182 34.3457C76.3592 32.9927 75.4417 31.9422 74.2815 31.3705C75.7475 35.3695 73.979 38.4478 69.9301 39.5149L76.2495 37.8461C76.8412 36.8256 77.0407 35.5757 76.7182 34.3457Z" fill="#EDBF00"/>
<path d="M125.425 80.4765C125.046 80.3834 124.767 80.041 124.774 79.6355L125.465 45.3357C125.472 44.8703 125.861 44.498 126.326 44.5079C126.795 44.5179 127.167 44.9035 127.157 45.3723L126.469 79.6687C126.459 80.1374 126.073 80.5064 125.605 80.4998C125.542 80.4965 125.482 80.4898 125.425 80.4765Z" fill="#FFDD4D"/>
<path d="M126.47 79.6689L127.158 45.3725C127.164 45.0367 126.975 44.7442 126.696 44.6012C126.766 44.7242 126.802 44.8672 126.799 45.0168L126.107 79.3166C126.101 79.7819 125.712 80.1543 125.246 80.1443C125.183 80.1443 125.12 80.1343 125.064 80.121C124.997 80.1044 124.934 80.0778 124.874 80.0479C124.987 80.2606 125.187 80.4169 125.426 80.4767C125.482 80.49 125.542 80.4967 125.605 80.5C126.074 80.5066 126.46 80.1376 126.47 79.6689Z" fill="#FCD42D"/>
<path d="M128.564 45.8942C128.265 47.1408 127.015 47.9087 125.771 47.6095C124.525 47.3103 123.76 46.0571 124.059 44.8138C124.355 43.5672 125.608 42.8026 126.852 43.0985C128.095 43.3976 128.863 44.6509 128.564 45.8942Z" fill="#FFDD4D"/>
<path d="M128.032 43.8034C128.251 44.2655 128.321 44.8007 128.191 45.3392C127.896 46.5825 126.642 47.3504 125.399 47.0512C124.927 46.9382 124.521 46.6855 124.219 46.3465C124.508 46.9581 125.06 47.4402 125.771 47.6097C127.015 47.9089 128.265 47.141 128.564 45.8944C128.75 45.1231 128.524 44.3519 128.032 43.8034Z" fill="#FCD42D"/>
<path d="M125.037 45.1163C124.837 45.1163 124.671 45.0365 124.581 44.8437C124.249 44.1456 125.276 43.4575 125.914 43.4575C126.054 43.4575 126.174 43.4907 126.26 43.5672C126.832 44.0858 125.742 45.1163 125.037 45.1163Z" fill="#FFE783"/>
<path d="M100.973 70.9064C100.973 70.9064 98.21 71.3286 96.0459 74.4567C94.201 77.1228 92.7715 83.276 95.6869 83.6217C98.1003 83.9076 98.7087 79.709 99.0943 78.7915C99.7392 77.259 101.209 75.5205 103.755 75.5105L100.973 70.9064Z" fill="#DA040C"/>
<path d="M100.972 70.9064C100.972 70.9064 100.856 70.923 100.66 70.9762L103.023 74.8922C100.483 74.9021 99.0108 76.6407 98.3659 78.1699C97.9803 79.0907 97.3719 83.2893 94.9585 83.0001C94.7823 82.9801 94.6261 82.9402 94.4832 82.8771C94.7491 83.2893 95.1414 83.5552 95.6865 83.6217C98.1 83.9076 98.7083 79.709 99.0939 78.7915C99.7388 77.259 101.208 75.5205 103.755 75.5105L100.972 70.9064Z" fill="#C60513"/>
<path d="M96.8267 75.5466C96.7736 75.5466 96.7503 75.4901 96.747 75.3538C96.7403 74.2036 99.1205 72.0994 99.6923 72.0994C99.7089 72.0994 99.7222 72.0994 99.7355 72.1027C100.217 72.2257 101.148 73.7349 100.463 73.7881C98.1232 73.9643 97.0993 75.5466 96.8267 75.5466Z" fill="#E34349"/>
<path d="M114.336 72.4453C114.336 72.4453 116.929 73.4858 118.325 77.0228C119.519 80.0412 119.512 86.354 116.596 86.0316C114.18 85.7623 114.542 81.5338 114.376 80.5532C114.093 78.911 113.056 76.8865 110.583 76.2981L114.336 72.4453Z" fill="#DA040C"/>
<path d="M118.325 77.0228C117.285 74.39 115.586 73.1401 114.781 72.6747C115.626 73.3661 116.69 74.5329 117.424 76.3912C118.618 79.4096 118.611 85.7258 115.692 85.4C115.573 85.3867 115.46 85.3601 115.35 85.3268C115.649 85.7058 116.051 85.9684 116.597 86.0316C119.512 86.354 119.519 80.0413 118.325 77.0228Z" fill="#C60513"/>
<path d="M118.634 45.6916C116.171 37.5737 113.561 36.2673 112.095 36.0977C110.629 35.9315 107.79 36.6064 103.548 43.953C99.3033 51.2963 99.4894 56.1397 99.28 60.7339C99.0706 65.3313 100.434 71.212 102.475 75.0615C104.516 78.9143 106.214 79.8119 107.055 79.9083C107.893 80.0047 109.755 79.516 112.617 76.2316C115.479 72.9439 118.139 67.5287 118.98 63.0044C119.817 58.48 121.1 53.8061 118.634 45.6916Z" fill="#FBB03B"/>
<path d="M118.634 45.6918C117.724 42.68 116.789 40.609 115.902 39.1829C116.294 40.1503 116.69 41.2639 117.079 42.5504C119.542 50.6682 118.262 55.3422 117.421 59.8665C116.583 64.3875 113.921 69.806 111.058 73.0937C108.196 76.3781 106.335 76.8668 105.497 76.7704C104.742 76.684 103.29 75.946 101.518 72.9907C101.817 73.7287 102.136 74.4235 102.475 75.0617C104.516 78.9145 106.215 79.8121 107.056 79.9085C107.894 80.0049 109.755 79.5162 112.617 76.2318C115.48 72.9441 118.139 67.5289 118.98 63.0046C119.818 58.4803 121.101 53.8063 118.634 45.6918Z" fill="#F29C2A"/>
<path d="M104.399 47.8227C104.143 47.8227 103.937 47.7329 103.801 47.5301C102.564 45.7383 108.392 37.8465 110.44 37.8465C110.606 37.8465 110.745 37.8964 110.855 38.0061C113.116 40.2766 106.71 47.826 104.399 47.8227Z" fill="#FCC46C"/>
<path d="M112.095 36.0976C112.747 36.1741 113.625 36.4732 114.619 37.4971C114.403 36.9752 113.867 35.6621 113.645 35.1568C113.482 34.7845 113.119 34.0066 112.318 33.9136C111.514 33.8205 110.975 34.492 110.739 34.8211C110.443 35.2366 109.778 36.2638 109.416 36.8289C110.57 36.1109 111.461 36.0245 112.095 36.0976Z" fill="#FDD600"/>
<path d="M113.605 36.6564C113.924 36.8592 114.263 37.1318 114.619 37.4975C114.403 36.9756 113.867 35.6625 113.645 35.1572C113.532 34.8946 113.316 34.4292 112.917 34.1466C113.439 35.7024 113.522 36.1279 113.605 36.6564Z" fill="#F4C500"/>
<path d="M110.862 35.5326C110.819 35.5326 110.782 35.5227 110.759 35.4961C110.536 35.2733 111.447 34.3093 111.79 34.3093C111.82 34.3093 111.846 34.3159 111.866 34.3326C112.262 34.6151 111.251 35.5326 110.862 35.5326Z" fill="#FEE24D"/>
<path d="M116.447 69.0178L100.361 67.1629C99.5063 67.0665 98.7351 67.6781 98.6387 68.5325C98.539 69.3868 99.1506 70.1613 100.005 70.2578L116.091 72.1127C116.945 72.2091 117.717 71.5974 117.813 70.7431C117.913 69.8888 117.301 69.1175 116.447 69.0178Z" fill="#DA040C"/>
<path d="M117.005 69.1944C117.038 69.3539 117.048 69.5235 117.028 69.693C116.932 70.5474 116.157 71.159 115.306 71.0626L99.2202 69.2077C99.0174 69.1844 98.8313 69.1246 98.6617 69.0315C98.7947 69.6698 99.3233 70.1817 100.005 70.2581L116.091 72.1131C116.945 72.2095 117.716 71.5978 117.813 70.7435C117.889 70.0919 117.55 69.4869 117.005 69.1944Z" fill="#C60513"/>
<path d="M100.547 68.6588C100.46 68.6588 100.384 68.6554 100.311 68.6455C99.8786 68.589 99.5561 68.2997 99.5927 67.9839C99.6259 67.698 99.9384 67.4919 100.321 67.4919C100.361 67.4919 100.4 67.4953 100.444 67.5019L103.549 67.8576C103.951 67.9042 101.694 68.6588 100.547 68.6588Z" fill="#E34349"/>
<path d="M106.76 84.8948C105.746 84.7785 105.018 83.8643 105.134 82.8504L106.095 74.5032C106.211 73.4893 107.129 72.7613 108.143 72.8776C109.157 72.994 109.881 73.9114 109.765 74.9253L108.804 83.2726C108.688 84.2865 107.774 85.0145 106.76 84.8948Z" fill="#DA040C"/>
<path d="M109.067 73.2599C109.203 73.5558 109.263 73.8916 109.223 74.2373L108.262 82.5812C108.146 83.5984 107.229 84.3231 106.218 84.2068C105.866 84.1669 105.55 84.0273 105.291 83.8245C105.55 84.3962 106.092 84.8184 106.76 84.8949C107.774 85.0146 108.688 84.2865 108.804 83.2726L109.765 74.9254C109.841 74.2639 109.556 73.6456 109.067 73.2599Z" fill="#C60513"/>
<path d="M106.66 74.593C106.763 74.2705 107.059 74.0478 107.388 74.0478C107.418 74.0478 107.444 74.0511 107.474 74.0544C107.654 74.0744 107.81 74.1575 107.926 74.2772L106.66 74.593Z" fill="#E34349"/>
<path d="M115.064 52.5033C114.768 55.083 112.434 56.9346 109.854 56.6387C107.275 56.3429 105.423 54.0092 105.722 51.4263C106.018 48.8433 108.352 46.9917 110.932 47.2876C113.511 47.5867 115.363 49.9204 115.064 52.5033Z" fill="#DA040C"/>
<path d="M113.91 52.3702C113.684 54.3115 111.929 55.7077 109.987 55.4817C108.046 55.2589 106.653 53.5004 106.876 51.559C107.099 49.6143 108.857 48.2215 110.799 48.4442C112.74 48.6702 114.133 50.4255 113.91 52.3702Z" fill="#44CCCC"/>
<path d="M112.564 49.1656C112.933 49.8006 113.106 50.5585 113.016 51.3464C112.794 53.2877 111.038 54.6839 109.097 54.4612C108.429 54.3814 107.824 54.1255 107.332 53.7398C107.874 54.674 108.834 55.3488 109.988 55.4818C111.929 55.7078 113.684 54.3116 113.911 52.3702C114.057 51.0937 113.508 49.897 112.564 49.1656Z" fill="#31BCB8"/>
<path d="M108.675 51.5687C108.472 51.5687 108.279 51.4989 108.11 51.3426C107.179 50.4949 108.745 48.8528 109.845 48.8528C110.084 48.8528 110.304 48.9325 110.47 49.1154C111.025 49.7337 109.732 51.5687 108.675 51.5687Z" fill="#73D9D9"/>
<path d="M120.954 83.1829C120.625 82.9768 120.472 82.5613 120.609 82.179L132.18 49.8904C132.34 49.4483 132.825 49.2189 133.264 49.3785C133.706 49.5347 133.936 50.02 133.776 50.4622L122.201 82.7508C122.045 83.1929 121.559 83.4223 121.121 83.2627C121.061 83.2428 121.004 83.2162 120.954 83.1829Z" fill="#FFDD4D"/>
<path d="M122.201 82.7507L133.776 50.4621C133.889 50.1463 133.803 49.8106 133.587 49.5845C133.61 49.7241 133.597 49.8704 133.547 50.01L121.975 82.3019C121.815 82.7407 121.33 82.9701 120.891 82.8139C120.831 82.7906 120.775 82.764 120.725 82.7341C120.669 82.6975 120.615 82.651 120.569 82.6045C120.609 82.8405 120.745 83.0532 120.954 83.1829C121.004 83.2161 121.061 83.2427 121.121 83.2627C121.559 83.4222 122.045 83.1928 122.201 82.7507Z" fill="#FCD42D"/>
<path d="M134.943 51.4057C134.265 52.4928 132.832 52.8186 131.748 52.1404C130.665 51.4589 130.336 50.0295 131.017 48.9458C131.695 47.8588 133.125 47.5296 134.208 48.2111C135.292 48.8893 135.621 50.322 134.943 51.4057Z" fill="#FFDD4D"/>
<path d="M135.106 49.2554C135.166 49.7607 135.063 50.2926 134.77 50.7613C134.089 51.845 132.659 52.1741 131.576 51.4926C131.163 51.2333 130.861 50.8677 130.678 50.4521C130.761 51.1236 131.13 51.7519 131.749 52.1409C132.832 52.819 134.265 52.4932 134.943 51.4062C135.362 50.7347 135.399 49.9302 135.106 49.2554Z" fill="#FCD42D"/>
<path d="M132.164 49.591C131.822 49.591 131.539 49.458 131.503 49.1389C131.426 48.5205 132.187 48.1914 132.799 48.1914C133.118 48.1914 133.397 48.2812 133.5 48.464C133.823 49.0424 132.862 49.591 132.164 49.591Z" fill="#FFE783"/>
<path d="M141.389 71.1854C142.216 67.1996 144.47 63.8753 144.47 63.8753L140.578 62.5423C140.578 62.5423 140.285 66.5281 138.463 70.1682C136.645 73.8082 134.268 76.4776 137.519 77.6079C140.77 78.7381 140.561 75.1679 141.389 71.1854Z" fill="#FCD42D"/>
<path d="M148.762 45.2494C146.245 44.3751 142.343 45.645 140.81 50.432C139.274 55.2222 140.823 60.1122 140.577 62.5423L144.47 63.8786C145.667 61.9838 150.022 58.9587 151.787 54.2482C153.549 49.541 151.278 46.1237 148.762 45.2494Z" fill="#76C70E"/>
<path d="M144.471 63.8753L143.217 63.4498C142.513 64.6466 141.193 67.1597 140.601 70.0086C139.773 73.9911 139.983 77.5613 136.732 76.4311C136.409 76.3181 136.14 76.1917 135.924 76.0488C136.007 76.7137 136.469 77.2422 137.519 77.6079C140.771 78.7381 140.561 75.1679 141.389 71.1854C142.217 67.1996 144.471 63.8753 144.471 63.8753Z" fill="#F2C611"/>
<path d="M150.906 46.7454C151.721 48.341 151.957 50.5151 150.999 53.0748C149.234 57.782 144.879 60.807 143.682 62.7019C143.682 62.7019 143.5 62.9711 143.217 63.4465L144.47 63.8787C145.667 61.9838 150.022 58.9587 151.787 54.2483C153.007 50.9905 152.292 48.351 150.906 46.7454Z" fill="#6FB708"/>
<path d="M142.26 47.5933L152.409 51.0738C152.412 50.7946 152.399 50.5186 152.372 50.256L142.792 46.9716C142.609 47.1645 142.429 47.3706 142.26 47.5933Z" fill="#FCA100"/>
<path d="M140.95 50.0231L151.947 53.7928C152.113 53.2809 152.229 52.7823 152.306 52.3036L141.585 48.6302C141.349 49.0524 141.136 49.5178 140.95 50.0231Z" fill="#FCA100"/>
<path d="M140.428 51.9182L151.185 55.6048C151.301 55.3787 151.411 55.146 151.514 54.91L140.601 51.1702C140.534 51.4195 140.481 51.6688 140.428 51.9182Z" fill="#FCA100"/>
<path d="M140.172 56.778L148.39 59.597C148.566 59.3942 148.745 59.1881 148.922 58.9721L140.135 55.9603C140.142 56.2362 140.155 56.5088 140.172 56.778Z" fill="#FCA100"/>
<path d="M140.132 54.6937L149.71 57.9748C150.015 57.5592 150.315 57.1238 150.594 56.6683L140.242 53.118C140.179 53.6499 140.146 54.1751 140.132 54.6937Z" fill="#FCA100"/>
<path d="M151.618 49.9965C151.614 50.2525 151.598 50.5151 151.564 50.7844L152.409 51.0736C152.412 50.8043 152.399 50.545 152.375 50.2924C152.372 50.2824 152.372 50.2691 152.372 50.2558L151.618 49.9965Z" fill="#EA9103"/>
<path d="M150.863 53.4203L151.943 53.7926C151.95 53.7793 151.953 53.7693 151.957 53.7561C151.993 53.643 152.027 53.53 152.06 53.417L152.063 53.407C152.169 53.0314 152.249 52.6624 152.306 52.3033L151.342 51.9742C151.252 52.3333 151.139 52.6989 150.999 53.0746C150.956 53.1909 150.906 53.3039 150.863 53.4203Z" fill="#EA9103"/>
<path d="M150.354 54.5142C150.238 54.7436 150.112 54.9696 149.985 55.1923L151.189 55.6046C151.242 55.4982 151.292 55.3951 151.342 55.2887C151.348 55.2754 151.355 55.2622 151.358 55.2522C151.412 55.1392 151.465 55.0261 151.515 54.9131V54.9098L150.354 54.5142Z" fill="#EA9103"/>
<path d="M147.532 58.4965C147.343 58.7059 147.16 58.912 146.974 59.1081L148.39 59.5935C148.503 59.4671 148.616 59.3342 148.729 59.2012C148.742 59.1879 148.752 59.1746 148.765 59.1613C148.819 59.0982 148.868 59.035 148.922 58.9718L147.532 58.4965Z" fill="#EA9103"/>
<path d="M149.324 56.2326C149.018 56.6814 148.695 57.1069 148.366 57.5158L149.706 57.9746C149.716 57.9613 149.726 57.948 149.736 57.938C149.789 57.8615 149.846 57.7851 149.899 57.7119C149.922 57.6754 149.949 57.6388 149.975 57.6056C150.028 57.5291 150.082 57.4526 150.135 57.3762C150.158 57.3396 150.185 57.2997 150.211 57.2632C150.261 57.1867 150.311 57.1102 150.364 57.0305C150.387 56.9939 150.411 56.9573 150.434 56.9208C150.487 56.8377 150.537 56.7579 150.587 56.6748L150.593 56.6681L149.324 56.2326Z" fill="#EA9103"/>
<path d="M143.752 52.2504L141.901 51.6154C141.755 51.2198 141.738 50.7777 141.818 50.319L145.029 51.4193C144.6 51.7816 144.165 52.0709 143.752 52.2504ZM146.206 50.2126L142.34 48.8895C142.532 48.5305 142.769 48.1815 143.024 47.8557L146.917 49.1887C146.714 49.5378 146.472 49.8835 146.206 50.2126ZM147.26 48.5006L143.573 47.2374C144.397 46.4096 145.358 45.8379 146.143 45.8379C146.355 45.8379 146.555 45.8811 146.738 45.9708C147.672 46.4462 147.702 47.4368 147.26 48.5006Z" fill="#98D54A"/>
<path d="M146.914 49.1889L143.028 47.8559C143.197 47.6398 143.383 47.4337 143.573 47.2409L147.259 48.5008C147.163 48.7302 147.047 48.9596 146.914 49.1889Z" fill="#FDB940"/>
<path d="M145.029 51.4193L141.818 50.3223C141.901 49.8502 142.084 49.3616 142.34 48.8895L146.206 50.2126C145.847 50.658 145.441 51.0736 145.029 51.4193Z" fill="#FDB940"/>
<path d="M142.921 52.4529C142.592 52.4529 142.313 52.33 142.12 52.0441C142.027 51.9111 141.954 51.7648 141.901 51.6152L143.752 52.2502C143.456 52.3798 143.174 52.4529 142.921 52.4529Z" fill="#FDB940"/>
<mask id="mask2_235_7714" style="mask-type:luminance" maskUnits="userSpaceOnUse" x="36" y="64" width="48" height="70">
<path d="M36.1984 64.537H83.004V133.692H36.1984V64.537Z" fill="white"/>
</mask>
<g mask="url(#mask2_235_7714)">
<path d="M82.2932 80.6735L36.8405 64.983V116.044L82.2932 133.692V80.6735Z" fill="#E6A352"/>
</g>
<path d="M75.0328 106.113L36.8403 90.4695V87.3513L38.9014 83.6115L82.293 80.6729L75.0328 106.113Z" fill="#D6974D"/>
<mask id="mask3_235_7714" style="mask-type:luminance" maskUnits="userSpaceOnUse" x="82" y="64" width="64" height="70">
<path d="M82.1542 64.537H145.129V133.692H82.1542V64.537Z" fill="white"/>
</mask>
<g mask="url(#mask3_235_7714)">
<path d="M82.2938 80.6731L144.717 65.1022V116.043L82.2938 133.692V80.6731Z" fill="#D69440"/>
</g>
<path d="M93.1204 111.765L82.2932 80.6729L143.978 89.4689L144.716 92.6901V95.7185L93.1204 111.765Z" fill="#C88A3E"/>
<path d="M82.293 80.6465L74.1652 102.238L27.4559 83.6117L36.8403 64.9825L82.293 80.6465Z" fill="#F2BC81"/>
<path d="M82.2932 80.6731L94.1542 107.613L155.291 89.5721L144.716 65.1022L82.2932 80.6731Z" fill="#EDB46F"/>
</svg>
