<svg width="181" height="146" viewBox="0 0 181 146" fill="none" xmlns="http://www.w3.org/2000/svg">
<path d="M149.219 49.3422L148.07 52.7721H33.1734L32.0245 49.3422H149.219Z" fill="#2F84B9"/>
<path d="M150.368 45.9124L149.219 49.3424H32.0245L30.8724 45.9124H150.368Z" fill="#8ECAEF"/>
<path d="M96.3593 35.4835V35.7716C96.3593 36.9502 95.4025 37.917 94.2107 37.917H84.7319C83.5367 37.917 82.5799 36.9502 82.5799 35.7716V35.4835C82.5799 34.3016 83.5367 33.3382 84.7319 33.3382H94.2107C95.4025 33.3382 96.3593 34.3016 96.3593 35.4835Z" fill="#52A7D7"/>
<path d="M138.88 36.7679C140.148 36.7679 141.167 37.7976 141.167 39.0523C141.167 40.3171 140.148 41.3467 138.88 41.3467C137.612 41.3467 136.579 40.3171 136.579 39.0523C136.579 37.7976 137.612 36.7679 138.88 36.7679Z" fill="#F9B132"/>
<path d="M146.918 36.7679C148.186 36.7679 149.219 37.7976 149.219 39.0523C149.219 40.3171 148.186 41.3467 146.918 41.3467C145.65 41.3467 144.62 40.3171 144.62 39.0523C144.62 37.7976 145.65 36.7679 146.918 36.7679Z" fill="#AE2C36"/>
<mask id="mask0_235_7620" style="mask-type:luminance" maskUnits="userSpaceOnUse" x="23" y="5" width="135" height="53">
<path d="M23.9365 5.8952H157.304V57.5697H23.9365V5.8952Z" fill="white"/>
</mask>
<g mask="url(#mask0_235_7620)">
<path d="M157.258 14.6621V49.3556C157.258 53.7722 153.659 57.3512 149.229 57.3512H32.0114C27.5849 57.3512 23.9828 53.7722 23.9828 49.3556V14.6621C23.9828 13.0465 24.5423 11.4705 25.562 10.2025L26.2837 9.32516C27.9491 7.28904 29.8859 6.31236 30.8725 5.8952V41.3469H133.129V36.778C133.129 34.881 134.678 33.3382 136.592 33.3382H150.368V5.8952C151.358 6.31236 153.291 7.28904 154.96 9.32516L155.678 10.2025C156.698 11.4705 157.258 13.0465 157.258 14.6621ZM149.219 49.3424L150.368 45.9124H30.8725L32.0246 49.3424L33.1734 52.7724H148.07L149.219 49.3424ZM149.219 39.0525C149.219 37.7978 148.186 36.7681 146.918 36.7681C145.65 36.7681 144.621 37.7978 144.621 39.0525C144.621 40.3173 145.65 41.3469 146.918 41.3469C148.186 41.3469 149.219 40.3173 149.219 39.0525ZM141.167 39.0525C141.167 37.7978 140.148 36.7681 138.88 36.7681C137.612 36.7681 136.579 37.7978 136.579 39.0525C136.579 40.3173 137.612 41.3469 138.88 41.3469C140.148 41.3469 141.167 40.3173 141.167 39.0525Z" fill="#C3DDDA"/>
</g>
<mask id="mask1_235_7620" style="mask-type:luminance" maskUnits="userSpaceOnUse" x="30" y="5" width="121" height="37">
<path d="M30.0688 5.8952H150.422V41.4661H30.0688V5.8952Z" fill="white"/>
</mask>
<g mask="url(#mask1_235_7620)">
<path d="M150.369 5.8952V33.3382H136.593C134.679 33.3382 133.13 34.881 133.13 36.778V41.3469H30.8732V5.8952H150.369ZM96.3601 35.7716V35.4835C96.3601 34.3016 95.4033 33.3382 94.2115 33.3382H84.7327C83.5375 33.3382 82.5807 34.3016 82.5807 35.4835V35.7716C82.5807 36.9502 83.5375 37.9169 84.7327 37.9169H94.2115C95.4033 37.9169 96.3601 36.9502 96.3601 35.7716Z" fill="#E7F2F1"/>
</g>
<path d="M109.546 97.1731L107.97 97.2989L107.106 95.2727L107.967 95.2032C108.56 95.1568 109 94.6404 108.953 94.0511C108.907 93.4617 108.397 93.0181 107.795 93.0678L106.222 93.1936L105.361 91.1674L106.219 91.1012C106.811 91.0515 107.255 90.535 107.205 89.9457C107.159 89.3564 106.636 88.9227 106.05 88.9624L104.474 89.0882L103.309 86.3502L104.702 84.9398L107.464 86.0522L107.364 87.6282C107.328 88.2175 107.778 88.7273 108.371 88.7638C108.394 88.7638 108.417 88.7671 108.44 88.7671C109.003 88.7671 109.477 88.3267 109.51 87.7606L109.566 86.8998L111.609 87.7242L111.513 89.2968C111.476 89.8894 111.927 90.396 112.519 90.4324C112.542 90.4357 112.566 90.4357 112.585 90.4357C113.148 90.4357 113.622 89.9987 113.658 89.4292L113.711 88.5684L115.757 89.3928L115.658 90.9687C115.621 91.558 116.072 92.0679 116.664 92.1076C116.687 92.1076 116.707 92.1076 116.73 92.1076C117.293 92.1076 117.767 91.6706 117.803 91.1012L117.856 90.2404L119.237 90.7966C119.369 90.8495 119.505 90.876 119.641 90.876C120.068 90.876 120.468 90.6211 120.637 90.2039C120.859 89.6544 120.594 89.0319 120.045 88.8101L118.664 88.2506L119.223 87.5951C119.608 87.1448 119.555 86.4694 119.104 86.0853C118.651 85.7013 117.972 85.7543 117.588 86.2045L116.565 87.4063L114.519 86.582L115.078 85.9264C115.462 85.4762 115.409 84.8008 114.959 84.4134C114.506 84.0327 113.827 84.0856 113.443 84.5359L112.417 85.7377L110.374 84.9133L110.933 84.2545C111.317 83.8042 111.264 83.1288 110.811 82.7448C110.364 82.3607 109.682 82.4137 109.298 82.864L108.271 84.0658L105.51 82.95L105.49 80.9702L108.232 79.8114L109.278 80.9934C109.49 81.2351 109.788 81.3543 110.086 81.3543C110.337 81.3543 110.592 81.2682 110.798 81.0894C111.241 80.6954 111.284 80.0167 110.89 79.5731L110.318 78.9242L112.35 78.0667L113.397 79.2486C113.608 79.4903 113.906 79.6128 114.204 79.6128C114.456 79.6128 114.711 79.5234 114.916 79.3446C115.36 78.954 115.403 78.2752 115.009 77.8316L114.436 77.1827L116.466 76.3252L117.512 77.5071C117.724 77.7488 118.022 77.868 118.316 77.868C118.571 77.868 118.826 77.7819 119.028 77.6032C119.475 77.2092 119.515 76.5338 119.124 76.0901L118.551 75.4412L119.922 74.8618C120.468 74.6301 120.723 74.001 120.492 73.4548C120.256 72.9118 119.627 72.6569 119.081 72.8886L117.71 73.468L117.641 72.6072C117.595 72.0179 117.088 71.5643 116.482 71.6239C115.893 71.6703 115.449 72.1867 115.499 72.7761L115.621 74.3487L113.595 75.2095L113.526 74.3487C113.479 73.7594 112.969 73.3124 112.367 73.3654C111.778 73.4117 111.334 73.9315 111.38 74.5208L111.506 76.0934L109.48 76.9509L109.41 76.0934C109.361 75.5041 108.864 75.0572 108.252 75.1102C107.662 75.1565 107.219 75.673 107.265 76.2623L107.391 77.8349L104.649 78.9937L103.232 77.6065L104.348 74.8519L105.927 74.9512C105.951 74.9512 105.974 74.9545 105.994 74.9545C106.557 74.9545 107.03 74.5175 107.066 73.9481C107.103 73.3588 106.653 72.8489 106.06 72.8125L105.196 72.7595L106.023 70.7201L107.603 70.8161C107.626 70.8194 107.649 70.8194 107.669 70.8194C108.232 70.8194 108.705 70.3824 108.742 69.8129C108.778 69.2236 108.328 68.7137 107.735 68.6773L106.871 68.6244L107.695 66.5849L109.278 66.6842C109.298 66.6842 109.321 66.6842 109.344 66.6842C109.907 66.6842 110.38 66.2472 110.417 65.6811C110.453 65.0885 110.003 64.5786 109.41 64.5422L108.543 64.4892L109.102 63.1119C109.324 62.5623 109.059 61.9366 108.51 61.7148C107.957 61.4963 107.331 61.7578 107.109 62.3074L106.55 63.6847L105.891 63.1252C105.441 62.7411 104.762 62.7941 104.378 63.2477C103.994 63.6979 104.044 64.3733 104.497 64.7574L105.702 65.7804L104.875 67.8198L104.216 67.2603C103.766 66.8763 103.087 66.9292 102.703 67.3795C102.315 67.8298 102.368 68.5085 102.822 68.8925L104.027 69.9156L103.199 71.955L102.541 71.3955C102.09 71.0147 101.412 71.0644 101.028 71.518C100.643 71.9682 100.696 72.6436 101.147 73.031L102.352 74.0507L101.233 76.8053L99.2496 76.8251L98.0842 74.0904L99.2728 73.0442C99.7165 72.6536 99.7595 71.9749 99.3655 71.5312C98.9748 71.0876 98.2928 71.0478 97.8492 71.4385L97.2003 72.0113L96.3395 69.9851L97.5247 68.9422C97.9717 68.5482 98.0114 67.8728 97.6207 67.4292C97.2268 66.9822 96.5481 66.9425 96.1011 67.3332L95.4522 67.9059L94.598 65.8797L95.7833 64.8335C96.2302 64.4429 96.2699 63.7642 95.8793 63.3205C95.4853 62.8769 94.8066 62.8371 94.3629 63.2278L93.714 63.8006L93.1313 62.4332C92.8996 61.8869 92.2639 61.6353 91.721 61.8638C91.1747 62.0955 90.9197 62.7246 91.1515 63.2708L91.7342 64.6382L90.8734 64.7077C90.2808 64.7541 89.8371 65.2706 89.8868 65.8599C89.9298 66.4227 90.4 66.8465 90.9562 66.8465C90.9827 66.8465 91.0158 66.8465 91.0422 66.8432L92.6182 66.7174L93.4823 68.7435L92.6215 68.8131C92.0289 68.8594 91.5885 69.3759 91.6349 69.9652C91.6812 70.528 92.148 70.9518 92.7043 70.9518C92.734 70.9518 92.7638 70.9518 92.7936 70.9485L94.3663 70.8227L95.2271 72.8489L94.3696 72.9184C93.7769 72.9648 93.3333 73.4813 93.383 74.0706C93.426 74.6334 93.8961 75.0572 94.4523 75.0572C94.4821 75.0572 94.5119 75.0572 94.5384 75.0539L96.1143 74.9281L97.2797 77.6661L95.8859 79.0765L93.1247 77.964L93.224 76.3881C93.2605 75.7988 92.8102 75.2889 92.2176 75.2525C91.6283 75.2128 91.1151 75.6664 91.0787 76.2557L91.0257 77.1198L88.9796 76.2954L89.0757 74.7195C89.1121 74.1269 88.6618 73.6203 88.0692 73.5839C87.4865 73.5408 86.97 73.9944 86.9303 74.587L86.8773 75.4478L84.8312 74.6235L84.9306 73.0475C84.967 72.4582 84.5167 71.9484 83.9241 71.912C83.3381 71.8656 82.8216 72.3225 82.7852 72.9151L82.7322 73.7759L81.3516 73.2164C80.802 72.9979 80.173 73.2594 79.9512 73.809C79.7294 74.3586 79.9942 74.9843 80.5438 75.2062L81.9244 75.7624L81.3649 76.4179C80.9808 76.8682 81.0338 77.5436 81.4841 77.9309C81.686 78.0998 81.9343 78.1859 82.1826 78.1859C82.4839 78.1859 82.7852 78.06 83.0004 77.8084L84.0234 76.6066L86.0695 77.431L85.51 78.0898C85.1259 78.5401 85.1789 79.2155 85.6291 79.5996C85.8344 79.7717 86.0794 79.8578 86.3277 79.8578C86.629 79.8578 86.9336 79.7287 87.1455 79.4804L88.1718 78.2786L90.2146 79.1029L89.655 79.7585C89.271 80.2087 89.324 80.8874 89.7775 81.2715C89.9795 81.4436 90.2278 81.5264 90.4728 81.5264C90.7774 81.5264 91.0787 81.3973 91.2906 81.149L92.3169 79.9505L95.0781 81.0629L95.0979 83.0427L92.3566 84.2048L91.3104 83.0196C90.9164 82.5759 90.2344 82.5362 89.7908 82.9269C89.3471 83.3175 89.3041 83.9963 89.6981 84.4399L90.2708 85.0888L88.238 85.9496L87.1918 84.7643C86.7978 84.3207 86.1191 84.281 85.6722 84.6716C85.2285 85.0623 85.1855 85.741 85.5795 86.1847L86.1522 86.8303L84.1261 87.6911L83.0765 86.5058C82.6859 86.0622 82.0072 86.0191 81.5602 86.4131C81.1166 86.8038 81.0735 87.4792 81.4675 87.9228L82.0403 88.5717L80.6696 89.1511C80.12 89.3829 79.8651 90.0119 80.1002 90.5582C80.2723 90.9654 80.6696 91.2104 81.0901 91.2104C81.2291 91.2104 81.3715 91.1839 81.5072 91.1243L82.8812 90.545L82.9507 91.4057C82.9938 91.9653 83.4639 92.3924 84.0201 92.3924C84.0466 92.3924 84.0764 92.3924 84.1062 92.389C84.6988 92.3427 85.1391 91.8262 85.0928 91.2369L84.967 89.6643L86.9965 88.8035L87.066 89.6643C87.1091 90.2238 87.5792 90.6509 88.1354 90.6509C88.1619 90.6509 88.1917 90.6509 88.2215 90.6476C88.8141 90.6012 89.2544 90.0848 89.2081 89.4921L89.0823 87.9195L91.1118 87.062L91.1813 87.9195C91.2243 88.4823 91.6945 88.9061 92.2507 88.9061C92.2772 88.9061 92.307 88.9061 92.3368 88.9028C92.9294 88.8565 93.3697 88.34 93.3234 87.7507L93.1976 86.178L95.9389 85.0193L97.3592 86.4065L96.2435 89.1577L94.6609 89.0617C94.0385 89.0154 93.5584 89.4723 93.522 90.0649C93.4856 90.6542 93.9359 91.1641 94.5285 91.2005L95.3926 91.2535L94.5682 93.2929L92.9857 93.1969C92.3666 93.1538 91.8832 93.6074 91.8468 94.2C91.807 94.7894 92.2606 95.2992 92.8532 95.3356L93.7173 95.3886L92.8897 97.428L91.3104 97.3287C90.6979 97.279 90.2079 97.7426 90.1715 98.3319C90.1351 98.9245 90.5854 99.431 91.178 99.4708L92.0421 99.5238L91.4826 100.901C91.2608 101.451 91.5256 102.076 92.0785 102.298C92.2076 102.351 92.3434 102.378 92.4791 102.378C92.9029 102.378 93.3068 102.123 93.4757 101.706L94.0319 100.328L94.6907 100.888C94.896 101.06 95.1443 101.143 95.3893 101.143C95.6906 101.143 95.9952 101.017 96.207 100.769C96.5911 100.318 96.5381 99.6396 96.0879 99.2556L94.8827 98.2326L95.7104 96.1931L96.3693 96.7526C96.5712 96.9248 96.8195 97.0109 97.0645 97.0109C97.3691 97.0109 97.6704 96.8818 97.8823 96.6334C98.2663 96.1832 98.2134 95.5045 97.7631 95.1204L96.558 94.0974L97.3857 92.058L98.0412 92.6175C98.2432 92.7863 98.4915 92.8724 98.7398 92.8724C99.0411 92.8724 99.3457 92.7466 99.5575 92.495C99.9416 92.0447 99.8886 91.3693 99.435 90.9853L98.2332 89.9623L99.349 87.2077L101.335 87.1878L102.498 89.9225L101.312 90.9687C100.869 91.3594 100.826 92.0381 101.216 92.4817C101.431 92.7234 101.726 92.8459 102.024 92.8459C102.276 92.8459 102.531 92.7565 102.736 92.5778L103.385 92.005L104.246 94.0279L103.057 95.0741C102.613 95.4648 102.57 96.1435 102.964 96.5871C103.176 96.8288 103.474 96.948 103.769 96.948C104.024 96.948 104.279 96.8619 104.481 96.6831L105.13 96.1104L105.994 98.1365L104.805 99.1794C104.361 99.5701 104.318 100.249 104.712 100.692C104.924 100.934 105.222 101.057 105.517 101.057C105.772 101.057 106.023 100.967 106.229 100.788L106.878 100.216L107.46 101.583C107.633 101.994 108.03 102.239 108.45 102.239C108.589 102.239 108.732 102.209 108.867 102.153C109.417 101.921 109.672 101.292 109.44 100.745L108.857 99.3781L109.718 99.3086C110.311 99.2622 110.751 98.7457 110.705 98.1564C110.655 97.5671 110.129 97.1268 109.546 97.1731ZM99.0013 78.9705L101.531 78.9473L103.338 80.7186L103.362 83.2414L101.59 85.0425L99.0576 85.0656L97.2499 83.2977L97.2268 80.7716L99.0013 78.9705Z" fill="#E7F2F1"/>
<path d="M77.5643 99.3678L76.1539 99.5763L76.2963 98.7784C76.3989 98.1924 76.0049 97.6395 75.4222 97.5369C74.8395 97.4343 74.28 97.8249 74.1774 98.4076L73.9158 99.914L71.8267 100.225L71.9691 99.424C72.0717 98.8414 71.6778 98.2851 71.0951 98.1825C70.5124 98.0799 69.9528 98.4739 69.8502 99.0566L69.5887 100.56L67.5029 100.871L67.6419 100.073C67.7446 99.4903 67.3539 98.9341 66.7679 98.8314C66.1852 98.7255 65.6257 99.1195 65.5263 99.7022L65.2615 101.209L62.4109 101.632L61.4243 100L63.1393 97.6859L64.596 98.1593C64.7086 98.1958 64.8212 98.2156 64.9304 98.2156C65.384 98.2156 65.8045 97.9243 65.9534 97.474C66.1355 96.9112 65.8276 96.3053 65.2615 96.1232L64.4868 95.8716L65.7415 94.1765L67.1983 94.6499C67.3075 94.6863 67.4201 94.7029 67.5327 94.7029C67.9862 94.7029 68.4067 94.4149 68.5524 93.9646C68.7378 93.4018 68.4299 92.7959 67.8638 92.6138L67.089 92.3622L68.3405 90.6671L69.7972 91.1405C69.9098 91.1769 70.0191 91.1935 70.1316 91.1935C70.5852 91.1935 71.0057 90.9054 71.1547 90.4552C71.3367 89.8923 71.0288 89.2865 70.4627 89.1044L69.688 88.8528L70.5355 87.7072C70.8898 87.2305 70.7905 86.5617 70.3104 86.2075C69.8337 85.8532 69.1583 85.9558 68.8106 86.4326L67.9598 87.5781L67.4929 86.9093C67.1519 86.426 66.4832 86.3101 65.9932 86.6511C65.5098 86.9888 65.3906 87.6576 65.7316 88.1443L66.6156 89.3924L65.3608 91.0842L64.8907 90.4188C64.5497 89.9354 63.8809 89.8195 63.3942 90.1605C62.9075 90.4982 62.7917 91.167 63.1327 91.6537L64.0133 92.9018L62.7585 94.5936L62.2884 93.9282C61.9474 93.4448 61.2786 93.3289 60.792 93.6666C60.3053 94.0076 60.1894 94.6764 60.5304 95.1598L61.4111 96.4112L59.6961 98.7222L57.8387 98.262L57.4117 95.4213L58.7757 94.7261C59.3054 94.4579 59.5173 93.8123 59.2491 93.2859C58.9776 92.7562 58.3287 92.5443 57.8023 92.8158L57.074 93.1832L56.7627 91.1008L58.1268 90.4088C58.6565 90.1407 58.8651 89.4951 58.5969 88.9686C58.3287 88.4389 57.6765 88.2303 57.1534 88.4985L56.425 88.866L56.1138 86.7868L57.4779 86.0916C58.0076 85.8234 58.2162 85.1778 57.948 84.6514C57.6798 84.125 57.0309 83.9098 56.5012 84.1813L55.7761 84.5488L55.5642 83.145C55.4782 82.559 54.9418 82.1485 54.3426 82.2445C53.7533 82.3306 53.3493 82.8768 53.4387 83.4628L53.6506 84.8699L52.8461 84.7275C52.2634 84.6249 51.7039 85.0189 51.6046 85.6016C51.5019 86.1843 51.8926 86.7405 52.4786 86.8398L53.985 87.1047L54.2995 89.1872L53.495 89.0448C52.9123 88.9422 52.3528 89.3361 52.2535 89.9188C52.1508 90.5015 52.5448 91.0577 53.1275 91.1571L54.6339 91.4219L54.9484 93.5011L54.1472 93.362C53.5645 93.2594 53.005 93.6501 52.9024 94.2361C52.8031 94.8188 53.1937 95.3717 53.7764 95.4743L55.2828 95.7392L55.7132 98.5831L54.0744 99.5664L51.7569 97.8581L52.2303 96.4046C52.4157 95.8418 52.1045 95.2359 51.5417 95.0538C50.9788 94.8684 50.3697 95.1796 50.1843 95.7425L49.9326 96.5139L48.2342 95.2624L48.711 93.8123C48.8931 93.2495 48.5852 92.6436 48.019 92.4615C47.4562 92.2761 46.847 92.584 46.6649 93.1468L46.41 93.9216L44.7149 92.6701L45.1916 91.2167C45.3737 90.6538 45.0658 90.048 44.4997 89.8659C43.9368 89.6805 43.3277 89.9884 43.1456 90.5512L42.8939 91.3259L41.7451 90.4817C41.2684 90.1274 40.5963 90.23 40.242 90.7068C39.8911 91.1802 39.9904 91.8523 40.4672 92.2033L41.616 93.0508L40.9472 93.5176C40.4638 93.8586 40.3447 94.5274 40.6857 95.0108C40.8976 95.3088 41.2286 95.4677 41.5663 95.4677C41.7815 95.4677 41.9967 95.4048 42.1854 95.2723L43.4369 94.395L45.132 95.6431L44.4666 96.1133C43.9832 96.4543 43.864 97.1198 44.205 97.6064C44.4169 97.9044 44.748 98.0633 45.0857 98.0633C45.2976 98.0633 45.5161 97.9971 45.7048 97.868L46.9563 96.9873L48.6514 98.2388L47.9859 98.7056C47.5025 99.0466 47.3833 99.7154 47.7244 100.199C47.9329 100.497 48.2673 100.656 48.605 100.656C48.8169 100.656 49.0354 100.593 49.2208 100.46L50.4756 99.583L52.7931 101.291L52.3296 103.145L49.4791 103.572L48.7871 102.208C48.5156 101.682 47.87 101.47 47.3403 101.742C46.8106 102.006 46.602 102.652 46.8702 103.182L47.241 103.907L45.1519 104.218L44.4599 102.857C44.1885 102.328 43.5429 102.116 43.0131 102.387C42.4834 102.655 42.2748 103.301 42.543 103.827L42.9105 104.552L40.8247 104.864L40.1295 103.503C39.8613 102.976 39.2124 102.765 38.686 103.033C38.1562 103.301 37.9443 103.947 38.2125 104.476L38.5833 105.198L37.1729 105.41C36.5869 105.499 36.183 106.046 36.2691 106.628C36.3486 107.161 36.8088 107.542 37.3319 107.542C37.3848 107.542 37.4378 107.539 37.4908 107.532L38.9012 107.32L38.7588 108.121C38.6595 108.704 39.0501 109.26 39.6328 109.36C39.6957 109.373 39.7586 109.376 39.8182 109.376C40.3314 109.376 40.785 109.009 40.8777 108.489L41.1392 106.986L43.2283 106.671L43.086 107.473C42.9833 108.055 43.3773 108.611 43.96 108.714C44.0229 108.724 44.0858 108.731 44.1454 108.731C44.6586 108.731 45.1122 108.363 45.2049 107.843L45.4664 106.337L47.5522 106.026L47.4131 106.827C47.3105 107.41 47.7012 107.963 48.2872 108.065C48.3468 108.075 48.4097 108.082 48.4726 108.082C48.9858 108.082 49.4393 107.714 49.5287 107.194L49.7936 105.691L52.6442 105.264L53.6308 106.9L51.9191 109.211L50.459 108.737C49.8995 108.552 49.2903 108.86 49.1049 109.423C48.9195 109.985 49.2308 110.591 49.7936 110.773L50.5716 111.028L49.3168 112.72L47.8601 112.247C47.2973 112.061 46.6881 112.372 46.5027 112.935C46.3206 113.498 46.6285 114.101 47.1946 114.286L47.9693 114.538L46.7146 116.229L45.2578 115.756C44.695 115.571 44.0858 115.879 43.9037 116.441C43.7183 117.004 44.0262 117.61 44.5924 117.792L45.3704 118.044L44.5195 119.189C44.1686 119.666 44.2679 120.335 44.7447 120.689C44.9367 120.828 45.1618 120.898 45.3836 120.898C45.7147 120.898 46.0392 120.749 46.2478 120.464L47.0986 119.318L47.5654 119.984C47.774 120.282 48.1084 120.437 48.4461 120.437C48.658 120.437 48.8765 120.375 49.0619 120.245C49.5486 119.904 49.6645 119.236 49.3235 118.752L48.4428 117.501L49.6976 115.809L50.1677 116.474C50.3763 116.769 50.7107 116.928 51.0484 116.928C51.2603 116.928 51.4755 116.865 51.6642 116.733C52.1475 116.395 52.2667 115.726 51.9257 115.24L51.0451 113.991L52.2998 112.3L52.7667 112.965C52.9752 113.26 53.3096 113.419 53.6473 113.419C53.8625 113.419 54.0777 113.356 54.2664 113.223C54.7498 112.886 54.869 112.217 54.5247 111.73L53.6473 110.482L55.359 108.168L57.2163 108.628L57.6467 111.472L56.2794 112.164C55.753 112.432 55.5411 113.081 55.8092 113.607C56.0013 113.978 56.3754 114.193 56.7694 114.193C56.9316 114.193 57.1004 114.154 57.2561 114.074L57.9811 113.707L58.2956 115.789L56.9283 116.481C56.4019 116.749 56.19 117.395 56.4582 117.925C56.6502 118.295 57.0276 118.507 57.4183 118.507C57.5805 118.507 57.7494 118.471 57.905 118.391L58.63 118.024L58.9445 120.103L57.5805 120.798C57.0508 121.067 56.8389 121.712 57.1104 122.239C57.2991 122.613 57.6765 122.825 58.0672 122.825C58.2327 122.825 58.3983 122.788 58.5539 122.709L59.2789 122.338L59.4908 123.745C59.5703 124.278 60.0305 124.659 60.5536 124.659C60.6065 124.659 60.6595 124.655 60.7125 124.645C61.3018 124.559 61.7057 124.013 61.6163 123.427L61.4044 122.02L62.209 122.162C62.7883 122.265 63.3512 121.871 63.4538 121.288C63.5531 120.706 63.1625 120.149 62.5798 120.05L61.0701 119.785L60.7555 117.703L61.56 117.845C62.1427 117.948 62.699 117.554 62.8016 116.971C62.9042 116.388 62.5135 115.832 61.9275 115.733L60.4211 115.468L60.1066 113.389L60.9078 113.528C61.4872 113.631 62.05 113.237 62.1527 112.654C62.2553 112.071 61.8613 111.518 61.2786 111.416L59.7722 111.151L59.3418 108.307L60.984 107.324L63.2982 109.032L62.8248 110.485C62.6394 111.048 62.9506 111.654 63.5134 111.836C63.626 111.873 63.7385 111.892 63.8478 111.892C64.3014 111.892 64.7218 111.601 64.8708 111.151L65.1224 110.376L66.8175 111.628L66.3441 113.081C66.162 113.644 66.4699 114.25 67.0361 114.432C67.1453 114.468 67.2579 114.485 67.3671 114.485C67.8207 114.485 68.2412 114.197 68.3902 113.746L68.6418 112.972L70.3402 114.223L69.8668 115.677C69.6814 116.239 69.9893 116.842 70.5554 117.027C70.668 117.064 70.7772 117.08 70.8898 117.08C71.3434 117.08 71.7638 116.792 71.9095 116.339L72.1611 115.567L73.31 116.412C73.502 116.554 73.7238 116.62 73.9456 116.62C74.2767 116.62 74.6012 116.471 74.8131 116.186C75.164 115.71 75.0647 115.041 74.5879 114.687L73.4391 113.842L74.1079 113.376C74.5912 113.035 74.7104 112.366 74.3694 111.879C74.0284 111.396 73.3563 111.28 72.8696 111.621L71.6182 112.498L69.923 111.247L70.5885 110.78C71.0719 110.439 71.1911 109.77 70.8501 109.287C70.5091 108.803 69.837 108.684 69.3503 109.025L68.0988 109.903L66.407 108.658L67.0725 108.191C67.5558 107.85 67.675 107.181 67.334 106.698C66.993 106.211 66.3209 106.095 65.8342 106.436L64.5828 107.314L62.2652 105.602L62.7254 103.751L65.576 103.324L66.2713 104.688C66.46 105.059 66.8374 105.274 67.2314 105.274C67.3936 105.274 67.5625 105.234 67.7181 105.155C68.2445 104.89 68.4564 104.241 68.1882 103.715L67.8174 102.99L69.9032 102.679L70.5984 104.039C70.7905 104.41 71.1679 104.625 71.5586 104.625C71.7208 104.625 71.8896 104.589 72.0452 104.509C72.575 104.241 72.7836 103.592 72.5154 103.066L72.1446 102.341L74.2304 102.03L74.9256 103.39C75.1176 103.764 75.4951 103.976 75.8857 103.976C76.0513 103.976 76.2168 103.94 76.3724 103.86C76.9021 103.592 77.114 102.947 76.8459 102.417L76.4751 101.695L77.8854 101.483C78.4715 101.394 78.8754 100.848 78.7893 100.265C78.6999 99.6823 78.1669 99.2718 77.5643 99.3678ZM58.0043 106.615L55.6172 106.026L54.3492 103.923L54.9418 101.543L57.0508 100.278L59.4378 100.871L60.7059 102.973L60.1132 105.35L58.0043 106.615Z" fill="#C3DDDA"/>
<mask id="mask2_235_7620" style="mask-type:luminance" maskUnits="userSpaceOnUse" x="110" y="96" width="45" height="44">
<path d="M110.586 96.5573H154.659V139.895H110.586V96.5573Z" fill="white"/>
</mask>
<g mask="url(#mask2_235_7620)">
<path d="M152.96 117.385H151.533L151.792 116.614C151.977 116.051 151.673 115.445 151.11 115.256C150.547 115.067 149.938 115.372 149.749 115.935L149.266 117.382H147.157L147.415 116.614C147.6 116.051 147.299 115.445 146.733 115.256C146.167 115.067 145.564 115.372 145.375 115.935L144.889 117.382H142.78L143.038 116.614C143.227 116.051 142.922 115.445 142.359 115.256C141.79 115.067 141.187 115.372 140.999 115.935L140.515 117.382H137.632L136.897 115.62L138.936 113.588L140.307 114.27C140.462 114.349 140.624 114.382 140.787 114.382C141.181 114.382 141.561 114.167 141.75 113.79C142.015 113.26 141.8 112.618 141.27 112.353L140.538 111.988L142.032 110.502L143.402 111.184C143.555 111.26 143.72 111.297 143.882 111.297C144.276 111.297 144.654 111.081 144.842 110.704C145.111 110.174 144.895 109.532 144.362 109.267L143.634 108.903L145.124 107.413L146.494 108.098C146.65 108.174 146.812 108.211 146.975 108.211C147.369 108.211 147.749 107.996 147.938 107.618C148.203 107.089 147.988 106.443 147.458 106.178L146.73 105.817L147.736 104.811C148.156 104.394 148.156 103.715 147.736 103.294C147.316 102.874 146.637 102.874 146.216 103.294L145.21 104.301L144.846 103.573C144.578 103.043 143.932 102.828 143.402 103.092C142.873 103.357 142.657 104.003 142.922 104.533L143.607 105.9L142.114 107.387L141.75 106.658C141.485 106.128 140.84 105.917 140.307 106.181C139.777 106.446 139.562 107.089 139.827 107.618L140.512 108.986L139.022 110.472L138.655 109.747C138.39 109.214 137.747 109.002 137.214 109.267C136.681 109.532 136.469 110.174 136.734 110.704L137.416 112.071L135.38 114.104L133.612 113.376V110.502L135.066 110.019C135.629 109.83 135.933 109.224 135.748 108.661C135.559 108.098 134.953 107.794 134.387 107.982L133.612 108.241V106.135L135.066 105.652C135.629 105.463 135.933 104.857 135.744 104.294C135.559 103.735 134.953 103.43 134.387 103.619L133.612 103.877V101.771L135.066 101.288C135.629 101.099 135.933 100.493 135.744 99.9307C135.559 99.3711 134.953 99.0632 134.387 99.2553L133.612 99.5102V98.0866C133.612 97.4972 133.132 97.0172 132.54 97.0172C131.944 97.0172 131.464 97.4972 131.464 98.0866V99.5102L130.689 99.2519C130.123 99.0632 129.517 99.3711 129.331 99.9307C129.143 100.493 129.447 101.099 130.01 101.288L131.464 101.771V103.874L130.692 103.616C130.123 103.43 129.52 103.735 129.331 104.294C129.143 104.857 129.447 105.463 130.01 105.652L131.464 106.135V108.237L130.692 107.982C130.123 107.79 129.517 108.098 129.331 108.661C129.143 109.221 129.447 109.83 130.01 110.015L131.464 110.499V113.376L129.696 114.107L127.66 112.075L128.345 110.704C128.61 110.174 128.395 109.532 127.865 109.267C127.335 109.002 126.689 109.217 126.421 109.747L126.057 110.472L124.564 108.986L125.249 107.618C125.514 107.089 125.302 106.446 124.769 106.181C124.236 105.917 123.594 106.128 123.326 106.658L122.962 107.387L121.472 105.9L122.157 104.533C122.422 104.003 122.207 103.357 121.677 103.092C121.144 102.828 120.502 103.043 120.233 103.573L119.869 104.301L118.863 103.294C118.442 102.877 117.764 102.877 117.343 103.294C116.923 103.715 116.923 104.394 117.343 104.811L118.35 105.817L117.621 106.181C117.092 106.446 116.876 107.089 117.141 107.618C117.33 107.996 117.707 108.211 118.105 108.211C118.264 108.211 118.429 108.174 118.585 108.098L119.952 107.416L121.445 108.903L120.717 109.267C120.184 109.532 119.969 110.177 120.237 110.707C120.426 111.081 120.803 111.3 121.197 111.3C121.359 111.3 121.525 111.263 121.677 111.187L123.048 110.505L124.537 111.992L123.812 112.356C123.279 112.621 123.064 113.263 123.329 113.793C123.521 114.17 123.898 114.385 124.292 114.385C124.455 114.385 124.62 114.349 124.773 114.273L126.14 113.591L128.179 115.624L127.448 117.388H124.567L124.081 115.938C123.895 115.379 123.289 115.074 122.723 115.26C122.16 115.448 121.856 116.054 122.044 116.617L122.299 117.388H120.19L119.704 115.938C119.518 115.379 118.916 115.074 118.346 115.26C117.784 115.448 117.479 116.054 117.668 116.617L117.926 117.388H115.814L115.33 115.938C115.142 115.379 114.536 115.074 113.97 115.26C113.407 115.448 113.102 116.054 113.287 116.617L113.546 117.388L112.119 117.385C111.523 117.385 111.043 117.865 111.043 118.454C111.043 119.047 111.523 119.527 112.119 119.527H113.542L113.284 120.298C113.099 120.861 113.403 121.467 113.966 121.656C114.079 121.692 114.195 121.712 114.304 121.712C114.757 121.712 115.175 121.427 115.327 120.977L115.81 119.53H117.919L117.661 120.298C117.476 120.861 117.777 121.467 118.34 121.656C118.456 121.692 118.568 121.712 118.681 121.712C119.131 121.712 119.551 121.427 119.7 120.977L120.184 119.53H122.296L122.038 120.298C121.849 120.861 122.154 121.467 122.717 121.656C122.829 121.692 122.945 121.712 123.058 121.712C123.508 121.712 123.925 121.427 124.074 120.977L124.561 119.53H127.444L128.176 121.292L126.137 123.325L124.766 122.643C124.233 122.374 123.591 122.59 123.326 123.119C123.058 123.649 123.273 124.295 123.806 124.559L124.534 124.924L123.041 126.41L121.674 125.725C121.141 125.46 120.495 125.678 120.23 126.205C119.965 126.735 120.181 127.38 120.71 127.645L121.439 128.009L119.949 129.496L118.578 128.81C118.048 128.549 117.403 128.761 117.135 129.291C116.87 129.82 117.085 130.466 117.615 130.731L118.343 131.092L117.337 132.098C116.916 132.515 116.916 133.194 117.337 133.614C117.545 133.823 117.82 133.929 118.095 133.929C118.373 133.929 118.648 133.823 118.856 133.614L119.866 132.608L120.23 133.336C120.419 133.71 120.796 133.929 121.19 133.929C121.353 133.929 121.518 133.893 121.67 133.816C122.203 133.551 122.419 132.906 122.15 132.376L121.468 131.012L122.958 129.522L123.322 130.251C123.511 130.628 123.892 130.843 124.286 130.843C124.448 130.843 124.61 130.807 124.766 130.731C125.296 130.466 125.511 129.82 125.246 129.291L124.561 127.927L126.054 126.437L126.418 127.165C126.607 127.542 126.984 127.758 127.381 127.758C127.54 127.758 127.706 127.721 127.858 127.645C128.391 127.38 128.606 126.735 128.342 126.208L127.656 124.841L129.696 122.808L131.46 123.536V126.41L130.007 126.894C129.444 127.082 129.139 127.688 129.328 128.251C129.514 128.814 130.119 129.118 130.689 128.93L131.46 128.671V130.777L130.007 131.26C129.444 131.449 129.139 132.055 129.328 132.618C129.517 133.177 130.119 133.482 130.689 133.293L131.46 133.035V135.141L130.007 135.624C129.444 135.813 129.139 136.419 129.328 136.981C129.517 137.541 130.119 137.846 130.689 137.657L131.46 137.402V138.822C131.46 139.415 131.94 139.895 132.536 139.895C133.129 139.895 133.612 139.415 133.612 138.822V137.402L134.384 137.657C134.496 137.697 134.612 137.713 134.725 137.713C135.175 137.713 135.595 137.428 135.744 136.981C135.933 136.419 135.629 135.813 135.066 135.624L133.612 135.141V133.038L134.387 133.293C134.5 133.333 134.615 133.35 134.725 133.35C135.175 133.35 135.595 133.068 135.744 132.618C135.933 132.055 135.629 131.449 135.066 131.26L133.612 130.777V128.675L134.387 128.93C134.5 128.969 134.615 128.986 134.725 128.986C135.175 128.986 135.595 128.701 135.744 128.251C135.933 127.691 135.629 127.082 135.066 126.897L133.612 126.413V123.536L135.38 122.805L137.416 124.838L136.731 126.208C136.466 126.735 136.681 127.38 137.211 127.645C137.367 127.721 137.529 127.758 137.691 127.758C138.085 127.758 138.466 127.542 138.655 127.165L139.019 126.437L140.512 127.927L139.827 129.291C139.558 129.82 139.774 130.466 140.307 130.731C140.462 130.807 140.624 130.843 140.787 130.843C141.181 130.843 141.558 130.628 141.747 130.251L142.114 129.522L143.604 131.009L142.919 132.376C142.654 132.906 142.869 133.551 143.399 133.816C143.555 133.893 143.717 133.929 143.879 133.929C144.273 133.929 144.654 133.71 144.842 133.336L145.207 132.608L146.213 133.614C146.425 133.823 146.7 133.929 146.975 133.929C147.249 133.929 147.524 133.823 147.733 133.614C148.153 133.194 148.153 132.515 147.733 132.098L146.726 131.092L147.455 130.727C147.984 130.463 148.2 129.82 147.935 129.291C147.67 128.761 147.024 128.546 146.491 128.81L145.124 129.492L143.631 128.006L144.359 127.642C144.892 127.377 145.107 126.735 144.839 126.205C144.574 125.675 143.929 125.46 143.399 125.725L142.028 126.407L140.538 124.92L141.263 124.556C141.797 124.291 142.012 123.646 141.744 123.116C141.479 122.586 140.833 122.371 140.303 122.639L138.936 123.321L136.897 121.288L137.625 119.524H140.509L140.995 120.974C141.144 121.424 141.561 121.709 142.012 121.709C142.124 121.709 142.24 121.689 142.353 121.653C142.916 121.464 143.22 120.858 143.031 120.295L142.773 119.524H144.885L145.369 120.974C145.521 121.424 145.938 121.709 146.389 121.709C146.501 121.709 146.614 121.689 146.726 121.653C147.289 121.464 147.594 120.858 147.408 120.295L147.15 119.524H149.259L149.742 120.974C149.895 121.421 150.312 121.709 150.762 121.709C150.875 121.709 150.991 121.689 151.103 121.653C151.666 121.464 151.97 120.858 151.785 120.295L151.527 119.524H152.95C153.546 119.524 154.026 119.044 154.026 118.451C154.026 117.858 153.553 117.385 152.96 117.385ZM132.54 121.659L130.268 120.722L129.325 118.458L130.265 116.19L132.536 115.253L134.811 116.19L135.751 118.454L134.811 120.722L132.54 121.659Z" fill="#B8D3CF"/>
</g>
</svg>
