<svg width="181" height="146" viewBox="0 0 181 146" fill="none" xmlns="http://www.w3.org/2000/svg">
<mask id="mask0_235_8003" style="mask-type:luminance" maskUnits="userSpaceOnUse" x="64" y="64" width="53" height="68">
<path d="M64.968 64.3337H116.782V131.897H64.968V64.3337Z" fill="white"/>
</mask>
<g mask="url(#mask0_235_8003)">
<path d="M116.664 68.6382V127.998C116.664 130.151 114.916 131.896 112.761 131.896H73.0551C68.8184 131.896 65.3804 128.463 65.3804 124.229V68.2088C65.3804 66.2942 66.9367 64.7407 68.854 64.7407H112.761C114.916 64.7407 116.664 66.4857 116.664 68.6382Z" fill="#EBC847"/>
</g>
<path d="M116.663 113.381V125.074C116.663 127.226 114.912 128.971 112.76 128.971H74.1399C72.5235 128.971 71.0602 128.318 70.0017 127.259C69.9552 127.213 69.906 127.163 69.8622 127.112C69.2796 126.493 68.8366 125.749 68.5685 124.921C68.3853 124.355 68.2841 123.753 68.2841 123.124C68.2841 122.826 68.3087 122.53 68.3524 122.243C68.4728 121.45 68.7545 120.706 69.162 120.052C70.1904 118.386 72.0366 117.279 74.1399 117.279H112.76C114.912 117.279 116.663 115.534 116.663 113.381Z" fill="#E6EBF2"/>
<path d="M116.664 116.154V118.345C116.664 120.497 114.913 122.242 112.761 122.242H68.3531C68.4735 121.449 68.7552 120.705 69.1627 120.052H112.761C114.913 120.052 116.664 118.307 116.664 116.154Z" fill="#DBDDDE"/>
<path d="M116.664 121.023V123.214C116.664 125.366 114.914 127.111 112.761 127.111H69.8634C69.2808 126.493 68.8377 125.746 68.5697 124.92H112.761C114.914 124.92 116.664 123.178 116.664 121.023Z" fill="#DBDDDE"/>
<path d="M112.758 117.279H73.6866V64.7398H112.758C114.913 64.7398 116.661 66.4848 116.661 68.6373V113.381C116.661 115.534 114.913 117.279 112.758 117.279Z" fill="#E67445"/>
<path d="M94.9981 82.0399V99.9796C94.9981 100.926 93.8904 101.443 93.1601 100.836L93.0753 100.765L87.0198 95.7155C86.894 95.6088 86.7463 95.535 86.5904 95.494C86.4974 95.4666 86.3989 95.4557 86.3032 95.4557H83.5571C82.939 95.4557 82.4385 94.9551 82.4385 94.337V87.6825C82.4385 87.0643 82.939 86.5638 83.5571 86.5638H86.3032C86.4017 86.5638 86.4974 86.5501 86.5904 86.5255C86.7463 86.4845 86.894 86.4106 87.0198 86.304L93.0753 81.255L93.1601 81.1838C93.8904 80.5739 94.9981 81.0936 94.9981 82.0399Z" fill="white"/>
<path d="M102.6 100.537C102.329 100.537 102.061 100.408 101.891 100.167C101.618 99.7762 101.711 99.2374 102.102 98.9639C104.498 97.2873 106.038 94.1665 106.024 91.0129C106.038 87.8511 104.498 84.7303 102.102 83.0537C101.711 82.7802 101.618 82.2414 101.891 81.8503C102.165 81.4591 102.704 81.3661 103.097 81.6397C105.986 83.6609 107.769 87.2521 107.753 91.0129C107.769 94.7655 105.986 98.3567 103.097 100.378C102.944 100.485 102.772 100.537 102.6 100.537Z" fill="white"/>
<path d="M100.075 98.015C99.8231 98.015 99.5715 97.9056 99.3992 97.6923C99.1011 97.3203 99.1612 96.776 99.5332 96.4779C101.084 95.2334 102.047 93.141 102.044 91.0159C102.058 88.8496 101.084 86.7327 99.5004 85.4854C99.1257 85.1901 99.0628 84.6458 99.3582 84.2711C99.6536 83.8991 100.198 83.8334 100.573 84.1288C102.566 85.7015 103.792 88.3409 103.775 91.0186C103.778 93.6498 102.569 96.2618 100.616 97.8236C100.458 97.9521 100.266 98.015 100.075 98.015Z" fill="white"/>
<path d="M97.4272 95.551C97.203 95.551 96.9759 95.4607 96.8064 95.2884C96.4754 94.9465 96.4809 94.3995 96.8228 94.0658C97.6078 93.3055 98.0727 92.1649 98.07 91.0134C98.0755 89.8483 97.6078 88.7023 96.82 87.9419C96.4782 87.6082 96.4672 87.0612 96.8009 86.7193C97.1346 86.3774 97.6816 86.3692 98.0235 86.7002C99.1422 87.7833 99.8068 89.3942 99.7986 91.0134C99.8041 92.6189 99.1422 94.2245 98.0317 95.3048C97.8621 95.4689 97.6461 95.551 97.4272 95.551Z" fill="white"/>
<path d="M86.5904 86.5247V95.4931C86.4974 95.4658 86.3989 95.4548 86.3032 95.4548H83.5571C82.939 95.4548 82.4385 94.9543 82.4385 94.3362V87.6816C82.4385 87.0635 82.939 86.5629 83.5571 86.5629H86.3032C86.4017 86.5629 86.4974 86.5493 86.5904 86.5247Z" fill="#EBC847"/>
<path d="M94.9983 82.0392V99.9788C94.9983 100.925 93.8906 101.442 93.1604 100.835L93.0756 100.764V81.2542L93.1604 81.1803C93.8906 80.5731 94.9983 81.0928 94.9983 82.0392Z" fill="#EBC847"/>
<path d="M79.2607 58.9964C78.5004 58.9964 77.8877 58.381 77.8877 57.6261V43.811C77.8877 43.0534 78.5004 42.4407 79.2607 42.4407C80.0184 42.4407 80.6338 43.0534 80.6338 43.811V57.6261C80.6338 58.381 80.0184 58.9964 79.2607 58.9964Z" fill="#4E73DE"/>
<path d="M83.9649 61.5503C83.2046 61.5503 82.5919 60.9376 82.5919 60.18V41.2557C82.5919 40.4981 83.2046 39.8827 83.9649 39.8827C84.7226 39.8827 85.338 40.4981 85.338 41.2557V60.18C85.338 60.9376 84.7226 61.5503 83.9649 61.5503Z" fill="#4E73DE"/>
<path d="M88.6692 58.0337C87.9088 58.0337 87.2961 57.4211 87.2961 56.6634V44.7711C87.2961 44.0162 87.9088 43.4008 88.6692 43.4008C89.4268 43.4008 90.0422 44.0162 90.0422 44.7711V56.6634C90.0422 57.4211 89.4268 58.0337 88.6692 58.0337Z" fill="#4E73DE"/>
<path d="M93.3741 55.7523C92.6165 55.7523 92.0011 55.1369 92.0011 54.3792V47.0546C92.0011 46.297 92.6165 45.6843 93.3741 45.6843C94.1318 45.6843 94.7472 46.297 94.7472 47.0546V54.3792C94.7472 55.1369 94.1318 55.7523 93.3741 55.7523Z" fill="#4E73DE"/>
<path d="M98.0784 54.4035C97.3207 54.4035 96.7053 53.7881 96.7053 53.0305V48.4026C96.7053 47.645 97.3207 47.0323 98.0784 47.0323C98.836 47.0323 99.4514 47.645 99.4514 48.4026V53.0305C99.4514 53.7881 98.836 54.4035 98.0784 54.4035Z" fill="#4E73DE"/>
<path d="M102.783 53.1783C102.025 53.1783 101.41 52.5656 101.41 51.808V49.6281C101.41 48.8705 102.025 48.2551 102.783 48.2551C103.54 48.2551 104.156 48.8705 104.156 49.6281V51.808C104.156 52.5656 103.54 53.1783 102.783 53.1783Z" fill="#4E73DE"/>
<path d="M108.86 50.7168C108.86 50.9 108.824 51.0751 108.756 51.2419C108.685 51.4115 108.586 51.5592 108.458 51.6878C108.329 51.8163 108.181 51.9148 108.012 51.9831C107.845 52.0543 107.67 52.0898 107.487 52.0898C107.306 52.0898 107.131 52.0543 106.962 51.9831C106.795 51.9148 106.644 51.8163 106.516 51.6878C106.387 51.5592 106.289 51.4115 106.218 51.2419C106.149 51.0751 106.114 50.9 106.114 50.7168C106.114 50.5363 106.149 50.3612 106.218 50.1916C106.289 50.0248 106.387 49.8771 106.516 49.7486C106.644 49.62 106.795 49.5215 106.962 49.4504C107.131 49.3821 107.306 49.3465 107.487 49.3465C107.67 49.3465 107.845 49.3821 108.012 49.4504C108.181 49.5215 108.329 49.62 108.458 49.7486C108.586 49.8771 108.685 50.0248 108.756 50.1916C108.824 50.3612 108.86 50.5363 108.86 50.7168Z" fill="#4E73DE"/>
<path d="M113.565 50.7168C113.565 50.9 113.529 51.0751 113.461 51.2419C113.392 51.4115 113.291 51.5592 113.163 51.6878C113.034 51.8163 112.886 51.9148 112.717 51.9831C112.55 52.0543 112.375 52.0898 112.192 52.0898C112.011 52.0898 111.836 52.0543 111.667 51.9831C111.5 51.9148 111.349 51.8163 111.221 51.6878C111.092 51.5592 110.994 51.4115 110.923 51.2419C110.854 51.0751 110.819 50.9 110.819 50.7168C110.819 50.5363 110.854 50.3612 110.923 50.1916C110.994 50.0248 111.092 49.8771 111.221 49.7486C111.349 49.62 111.5 49.5215 111.667 49.4504C111.836 49.3821 112.011 49.3465 112.192 49.3465C112.375 49.3465 112.55 49.3821 112.717 49.4504C112.886 49.5215 113.034 49.62 113.163 49.7486C113.291 49.8771 113.392 50.0248 113.461 50.1916C113.529 50.3612 113.565 50.5363 113.565 50.7168Z" fill="#4E73DE"/>
<path d="M75.9261 50.7168C75.9261 50.9 75.8932 51.0751 75.8221 51.2419C75.7537 51.4115 75.6525 51.5592 75.524 51.6878C75.3954 51.8163 75.2478 51.9148 75.0809 51.9831C74.9113 52.0543 74.7363 52.0898 74.553 52.0898C74.3725 52.0898 74.1975 52.0543 74.0279 51.9831C73.861 51.9148 73.7134 51.8163 73.5848 51.6878C73.4535 51.5592 73.3551 51.4115 73.2867 51.2419C73.2156 51.0751 73.1827 50.9 73.1827 50.7168C73.1827 50.5363 73.2156 50.3612 73.2867 50.1916C73.3551 50.0248 73.4535 49.8771 73.5848 49.7486C73.7134 49.62 73.861 49.5215 74.0279 49.4504C74.1975 49.3821 74.3725 49.3465 74.553 49.3465C74.7363 49.3465 74.9113 49.3821 75.0809 49.4504C75.2478 49.5215 75.3954 49.62 75.524 49.7486C75.6525 49.8771 75.7537 50.0248 75.8221 50.1916C75.8932 50.3612 75.9261 50.5363 75.9261 50.7168Z" fill="#4E73DE"/>
<path d="M71.222 50.7168C71.222 50.9 71.1892 51.0751 71.1181 51.2419C71.0497 51.4115 70.9485 51.5592 70.8199 51.6878C70.6914 51.8163 70.5437 51.9148 70.3741 51.9831C70.2073 52.0543 70.0322 52.0898 69.849 52.0898C69.6685 52.0898 69.4934 52.0543 69.3238 51.9831C69.157 51.9148 69.0093 51.8163 68.878 51.6878C68.7495 51.5592 68.651 51.4115 68.5826 51.2419C68.5115 51.0751 68.476 50.9 68.476 50.7168C68.476 50.5363 68.5115 50.3612 68.5826 50.1916C68.651 50.0248 68.7495 49.8771 68.878 49.7486C69.0093 49.62 69.157 49.5215 69.3238 49.4504C69.4934 49.3821 69.6685 49.3465 69.849 49.3465C70.0322 49.3465 70.2073 49.3821 70.3741 49.4504C70.5437 49.5215 70.6914 49.62 70.8199 49.7486C70.9485 49.8771 71.0497 50.0248 71.1181 50.1916C71.1892 50.3612 71.222 50.5363 71.222 50.7168Z" fill="#4E73DE"/>
<path d="M141.487 96.6721L135.391 95.5234L138.769 77.6357C141.148 65.0296 137.74 52.0487 129.412 42.019C125.027 36.7348 119.571 32.5528 113.201 29.5907C106.434 26.4453 98.9698 24.8507 91.0216 24.8507C83.0706 24.8507 75.6092 26.4453 68.8425 29.5907C62.4697 32.5528 57.0159 36.7348 52.6288 42.019C44.3031 52.0487 40.8924 65.0296 43.2747 77.6357L46.6525 95.5234L40.5532 96.6721L37.1754 78.7845C34.4512 64.3595 38.3432 49.5187 47.8533 38.064C52.8312 32.0659 59.0098 27.326 66.2223 23.9727C73.8177 20.4417 82.1598 18.6529 91.0216 18.6529C99.8834 18.6529 108.225 20.4417 115.821 23.9727C123.031 27.326 129.212 32.0659 134.19 38.064C143.7 49.5187 147.592 64.3595 144.868 78.7845L141.487 96.6721Z" fill="#FAAD43"/>
<mask id="mask1_235_8003" style="mask-type:luminance" maskUnits="userSpaceOnUse" x="51" y="14" width="80" height="26">
<path d="M51.6638 14.8952H130.785V39.8258H51.6638V14.8952Z" fill="white"/>
</mask>
<g mask="url(#mask1_235_8003)">
<path d="M124.579 38.6852C123.403 39.9379 121.453 40.0802 120.123 38.9916C111.929 32.2741 101.708 28.6063 91.0217 28.6063C80.3329 28.6063 70.1118 32.2741 61.9174 38.9916C60.5908 40.0802 58.6407 39.9379 57.4646 38.6852L52.5523 33.4502C51.2641 32.0799 51.3899 29.9055 52.834 28.7021C63.542 19.7747 76.9742 14.8952 91.0217 14.8952C105.069 14.8952 118.499 19.7747 129.207 28.7021C130.651 29.9055 130.779 32.0799 129.491 33.4502L124.579 38.6852Z" fill="#4E73DE"/>
</g>
<path d="M55.3397 36.4205L57.4649 38.6852C58.6383 39.9378 60.5911 40.0801 61.9177 38.9915C70.1121 32.2741 80.3332 28.6063 91.022 28.6063C101.708 28.6063 111.929 32.2741 120.124 38.9915C121.453 40.0801 123.403 39.9378 124.579 38.6852L126.704 36.4205C116.442 28.754 103.995 24.5884 91.022 24.5884C78.0467 24.5884 65.6019 28.754 55.3397 36.4205Z" fill="#3C59AB"/>
<path d="M134.65 112.747C129.576 111.724 126.264 106.74 127.289 101.675L130.468 85.9535C131.493 80.8853 136.482 77.5786 141.556 78.6015C146.632 79.6244 149.944 84.6078 148.919 89.6733L145.741 105.395C144.715 110.463 139.726 113.77 134.65 112.747Z" fill="#2BABAA"/>
<path d="M47.3912 112.747C52.4649 111.724 55.7798 106.74 54.7542 101.675L51.5732 85.9535C50.5503 80.8853 45.5587 77.5786 40.4851 78.6015C35.4114 79.6244 32.0992 84.6078 33.1221 89.6733L36.3031 105.395C37.3288 110.463 42.3176 113.77 47.3912 112.747Z" fill="#2BABAA"/>
</svg>
