<svg width="181" height="146" viewBox="0 0 181 146" fill="none" xmlns="http://www.w3.org/2000/svg">
<mask id="mask0_235_7970" style="mask-type:luminance" maskUnits="userSpaceOnUse" x="16" y="70" width="150" height="40">
<path d="M16.9369 70.9407H165.769V109.523H16.9369V70.9407Z" fill="white"/>
</mask>
<g mask="url(#mask0_235_7970)">
<path d="M165.047 78.3961L17.1268 71.0001V79.0213C17.1268 82.7695 18.7093 87.0006 20.6546 88.4658C22.7785 90.065 27.7408 92.0159 31.7318 92.8169L32.6333 92.9983C36.6243 93.7993 43.1691 94.4496 47.2383 94.4496H53.3839C57.4531 94.4496 64.0425 94.7929 68.0922 95.2115L71.2431 95.5409C75.29 95.9595 81.6059 97.408 85.3374 98.77C89.0689 100.132 95.1001 102.621 98.8009 104.324L100.141 104.941C103.841 106.646 110.135 108.329 114.187 108.697L119.78 109.208C123.833 109.579 130.361 109.211 134.346 108.385L140.793 107.053C144.779 106.227 150.93 103.992 154.516 102.06L158.722 99.7998C162.309 97.8685 165.323 92.9844 165.449 88.8984C165.474 88.0639 165.423 82.1025 165.047 78.3961Z" fill="#D9C477"/>
</g>
<path d="M22.6589 69.4099C22.4691 54.0513 61.7209 50.0994 99.8646 47.4675C139.08 44.7659 160.808 61.8911 160.297 79.9485C159.864 95.307 118.226 101.534 99.8646 91.7234C71.1822 76.3956 22.991 96.281 22.6589 69.4099Z" fill="#08CCE2"/>
<path d="M22.6589 64.8277C33.5659 56.1897 62.7536 54.13 84.5871 52.7234C86.6189 52.5922 89.9178 52.4861 91.9524 52.4861H109.809C117.269 52.4861 127.894 53.7476 133.521 55.3022C139.147 56.8568 146.618 60.4431 150.194 63.3066C153.4 65.8743 158.483 72.3827 161.536 77.8307V71.618L154.776 61.1269L138.536 50.6357L117.883 45.6986L86.5352 46.9322L50.7665 50.6357L32.1621 56.0418L22.6589 64.8277Z" fill="#D9C477"/>
<mask id="mask1_235_7970" style="mask-type:luminance" maskUnits="userSpaceOnUse" x="16" y="43" width="150" height="59">
<path d="M16.9369 43.793H165.328V101.666H16.9369V43.793Z" fill="white"/>
</mask>
<g mask="url(#mask1_235_7970)">
<path fill-rule="evenodd" clip-rule="evenodd" d="M17.1312 69.9556C16.9275 52.2443 59.16 47.6867 100.198 44.653C142.397 41.5355 165.771 61.287 165.224 82.1101C164.758 99.8214 119.955 107 100.198 95.6853C69.3385 78.0131 17.4857 100.943 17.1312 69.9556ZM22.6601 69.4114C22.4703 54.0528 61.7221 50.1009 99.8658 47.469C139.081 44.7674 160.809 61.8926 160.298 79.95C159.865 95.3085 118.227 101.535 99.8658 91.7249C71.1833 76.3971 22.9922 96.2825 22.6601 69.4114Z" fill="#FFEAA0"/>
</g>
<path fill-rule="evenodd" clip-rule="evenodd" d="M101.503 58.0315C100.601 58.0315 94.6484 57.4873 93.7721 57.3031C92.9348 57.1412 92.1226 56.8649 91.3579 56.4881C90.7913 56.2035 90.1857 55.9997 89.5633 55.8825C88.8544 55.7346 88.1344 55.6676 87.4115 55.6676C86.8505 55.6676 86.2923 55.7095 85.7425 55.8016C85.2541 55.8825 84.7741 56.0137 84.3191 56.1979L80.2193 57.8752C80.2193 57.8752 80.2193 57.8836 80.2137 57.8836C79.1308 58.3218 77.9642 58.5367 76.7864 58.5311C76.0552 58.5311 75.3212 58.4446 74.6067 58.252C73.9341 58.0929 73.2977 57.7887 72.7451 57.3757C72.547 57.2166 72.3265 57.0854 72.0976 56.9877C71.813 56.8565 71.5115 56.7533 71.2101 56.6723C70.5012 56.4881 69.7672 56.4016 69.0332 56.4016C68.288 56.396 67.5484 56.4937 66.8339 56.6919L63.0801 57.772L62.1926 58.0315C64.3472 56.0918 66.633 54.9392 69.0332 54.5484C69.9291 54.5484 70.8166 54.6601 71.679 54.8834C72.0781 54.9894 72.4744 55.1234 72.8484 55.2964C73.214 55.4555 73.5517 55.662 73.8587 55.8965C74.2243 56.1672 74.6318 56.357 75.0616 56.463C75.6282 56.6109 76.2087 56.6779 76.7948 56.6779C77.7242 56.6863 78.6535 56.5133 79.5243 56.1672L83.6214 54.4815C83.6214 54.4815 83.6214 54.4759 83.6298 54.4759C84.2131 54.2414 84.8187 54.074 85.4411 53.9763C86.0942 53.8647 86.7528 53.8144 87.4115 53.8144C88.2572 53.8144 89.0944 53.8954 89.9206 54.0628C90.7048 54.2163 91.4695 54.4703 92.184 54.8275C92.798 55.1373 93.4511 55.3578 94.1293 55.489C94.894 55.6425 102.086 58.0315 101.503 58.0315ZM66.8283 70.4987C65.9297 70.4987 59.9766 69.9572 59.1002 69.773C58.2629 69.6111 57.448 69.3348 56.6833 68.9581C56.1167 68.6734 55.5139 68.4696 54.8915 68.3524C54.1826 68.2045 53.4625 68.1375 52.7397 68.1375C52.1787 68.1375 51.6177 68.1794 51.0707 68.2715C50.5823 68.3524 50.1022 68.4808 49.6473 68.6678L45.5474 70.3452C45.5474 70.3452 45.5474 70.3507 45.5418 70.3507C44.4562 70.7889 43.2923 71.0066 42.1146 71.001C41.3806 71.001 40.6493 70.9145 39.9321 70.7219C39.2622 70.5628 38.6259 70.2586 38.0705 69.8456C37.8751 69.6865 37.6519 69.5553 37.4258 69.4576C37.1411 69.3265 36.8397 69.2232 36.5383 69.1423C35.8294 68.9581 35.0954 68.8715 34.3613 68.8715C33.6162 68.866 32.8766 68.9636 32.1621 69.1618L28.4083 70.2419L27.5208 70.4987C29.6754 68.5617 31.9611 67.4063 34.3613 67.0184C35.2544 67.0184 36.142 67.13 37.0044 67.3533C37.4063 67.4565 37.7998 67.5933 38.1766 67.7663C38.5394 67.9254 38.8799 68.1291 39.1869 68.3636C39.5497 68.6371 39.9572 68.8269 40.3898 68.9329C40.9563 69.0809 41.5368 69.1478 42.1202 69.1478C43.0523 69.1534 43.9817 68.9804 44.8525 68.6371L48.9496 66.9514C48.9496 66.9514 48.9496 66.9458 48.9552 66.9458C49.5413 66.7114 50.1441 66.5439 50.7665 66.4462C51.4224 66.3346 52.081 66.2843 52.7397 66.2843C53.5853 66.2843 54.4226 66.3653 55.2487 66.5327C56.0302 66.6862 56.7949 66.9402 57.5094 67.2974C58.1262 67.6045 58.7793 67.8277 59.4575 67.9561C60.2222 68.1124 67.4144 70.4987 66.8283 70.4987ZM83.4735 80.373C82.5748 80.373 76.6217 79.8316 75.7454 79.6474C74.9081 79.4855 74.0931 79.2064 73.3312 78.8324C72.7619 78.5477 72.159 78.344 71.5366 78.2268C70.8278 78.0788 70.1077 78.0119 69.3848 78.0119C68.8239 78.0119 68.2629 78.0537 67.7159 78.1458C67.2274 78.2268 66.7474 78.3551 66.2925 78.5421L62.1926 80.2195C62.1926 80.2195 62.1926 80.2251 62.187 80.2251C61.1013 80.6633 59.9375 80.8809 58.7597 80.8726C58.0257 80.8726 57.2945 80.7888 56.5772 80.5963C55.9074 80.4372 55.2711 80.133 54.7185 79.7199C54.5203 79.5608 54.2998 79.4297 54.071 79.332C53.7863 79.2008 53.4849 79.0975 53.1834 79.0166C52.4745 78.8324 51.7405 78.7459 51.0065 78.7459C50.2613 78.7375 49.5217 78.838 48.8072 79.0361L45.0534 80.1162L44.1659 80.373C46.3205 78.4361 48.6063 77.2806 51.0065 76.8927C51.8996 76.8927 52.7899 77.0043 53.6523 77.2276C54.0514 77.3309 54.4477 77.4676 54.8217 77.6407C55.1845 77.7998 55.525 78.0035 55.832 78.2379C56.1976 78.5114 56.6023 78.7012 57.0349 78.8073C57.6015 78.9552 58.182 79.0222 58.7653 79.0222C59.6975 79.0278 60.6269 78.8547 61.4976 78.5114L65.5947 76.8257C65.5947 76.8257 65.5947 76.8201 65.6003 76.8201C66.1864 76.5857 66.7921 76.4182 67.4144 76.3206C68.0675 76.2089 68.7262 76.1587 69.3848 76.1587C70.2305 76.1587 71.0678 76.2396 71.8939 76.4071C72.6781 76.5606 73.4401 76.8146 74.1545 77.1718C74.7713 77.4788 75.4244 77.7021 76.1026 77.8305C76.8673 77.9867 84.0596 80.373 83.4735 80.373ZM112.111 72.229C111.21 72.229 105.257 71.6848 104.383 71.5006C103.543 71.3387 102.731 71.0624 101.966 70.6856C101.4 70.401 100.794 70.1972 100.172 70.08C99.4628 69.9321 98.7427 69.8651 98.0227 69.8651C97.4617 69.8651 96.9007 69.907 96.3509 70.0019C95.8653 70.08 95.3852 70.2112 94.9275 70.3954L90.8304 72.0755C90.8304 72.0755 90.8304 72.0811 90.822 72.0811C89.7392 72.5193 88.5725 72.7342 87.3976 72.7286C86.6635 72.7286 85.9295 72.6421 85.215 72.4495C84.5424 72.2904 83.9089 71.989 83.3535 71.576C83.1553 71.4141 82.9348 71.2857 82.706 71.1852C82.4213 71.0568 82.1199 70.9508 81.8185 70.8699C81.1096 70.6856 80.3755 70.5991 79.6443 70.5991C78.8964 70.5935 78.1568 70.6912 77.4423 70.8894L73.6885 71.9695L72.8009 72.229C74.9555 70.2893 77.2413 69.1367 79.6443 68.7487C80.5374 68.7487 81.4249 68.8576 82.2873 69.0809C82.6864 69.1869 83.0828 69.3209 83.4595 69.4939C83.8224 69.6558 84.1601 69.8595 84.4699 70.094C84.8327 70.3647 85.2402 70.5573 85.67 70.6605C86.2365 70.8084 86.817 70.8782 87.4031 70.8782C88.3325 70.8838 89.2647 70.7108 90.1327 70.3647L94.2326 68.679C94.2326 68.679 94.2326 68.6734 94.2381 68.6734C94.8242 68.4389 95.4271 68.2715 96.0495 68.1738C96.7025 68.0622 97.3612 68.0147 98.0227 68.0147C98.8655 68.0147 99.7028 68.0929 100.529 68.2603C101.313 68.4138 102.078 68.6678 102.792 69.025C103.409 69.3348 104.062 69.5553 104.74 69.6865C105.502 69.84 112.697 72.229 112.111 72.229ZM142.161 61.2634C141.26 61.2634 135.307 60.722 134.43 60.535C133.593 60.3759 132.778 60.0968 132.016 59.7228C131.45 59.4382 130.844 59.2344 130.222 59.1172C129.513 58.9693 128.793 58.8995 128.07 58.8995C127.509 58.8995 126.948 58.9442 126.401 59.0363C125.913 59.1172 125.432 59.2456 124.978 59.4326L120.878 61.1099C120.878 61.1099 120.878 61.1155 120.872 61.1155C119.789 61.5537 118.623 61.7714 117.445 61.763C116.714 61.763 115.98 61.6765 115.265 61.4867C114.592 61.3248 113.956 61.0234 113.404 60.6104C113.205 60.4485 112.985 60.3201 112.756 60.2224C112.471 60.0912 112.17 59.988 111.869 59.907C111.16 59.7228 110.426 59.6363 109.692 59.6363C108.946 59.6279 108.207 59.7284 107.492 59.9266L103.739 61.0039L102.851 61.2634C105.006 59.3265 107.291 58.1711 109.692 57.7831C110.587 57.7831 111.475 57.8948 112.337 58.1181C112.736 58.2213 113.133 58.3581 113.507 58.5311C113.872 58.6902 114.21 58.8939 114.517 59.1284C114.883 59.4019 115.287 59.5917 115.72 59.6977C116.287 59.8456 116.867 59.9126 117.453 59.9126C118.383 59.9182 119.312 59.7452 120.183 59.4019L124.28 57.7162C124.28 57.7162 124.28 57.7106 124.285 57.7106C124.871 57.4761 125.477 57.3087 126.1 57.211C126.753 57.0994 127.411 57.0491 128.07 57.0491C128.916 57.0491 129.753 57.1301 130.579 57.2975C131.363 57.451 132.125 57.7022 132.842 58.0622C133.456 58.3692 134.109 58.5925 134.788 58.7209C135.552 58.8772 142.745 61.2634 142.161 61.2634ZM132.647 80.373C131.746 80.373 125.792 79.8316 124.916 79.6474C124.079 79.4855 123.264 79.2064 122.502 78.8324C121.933 78.5477 121.33 78.344 120.707 78.2268C119.999 78.0788 119.278 78.0119 118.556 78.0119C117.995 78.0119 117.436 78.0537 116.887 78.1458C116.398 78.2268 115.918 78.3551 115.463 78.5421L111.363 80.2195C111.363 80.2195 111.363 80.2251 111.358 80.2251C110.272 80.6633 109.108 80.8809 107.93 80.8726C107.199 80.8726 106.465 80.7888 105.751 80.5963C105.078 80.4372 104.442 80.133 103.889 79.7199C103.691 79.5608 103.471 79.4297 103.242 79.332C102.957 79.2008 102.656 79.0975 102.354 79.0166C101.645 78.8324 100.911 78.7459 100.177 78.7459C99.4321 78.7375 98.6925 78.838 97.978 79.0361L94.2242 80.1162L93.3367 80.373C95.4913 78.4361 97.7771 77.2806 100.177 76.8927C101.07 76.8927 101.961 77.0043 102.823 77.2276C103.222 77.3309 103.618 77.4676 103.992 77.6407C104.355 77.7998 104.696 78.0035 105.003 78.2379C105.368 78.5114 105.773 78.7012 106.206 78.8073C106.772 78.9552 107.353 79.0222 107.939 79.0222C108.868 79.0278 109.798 78.8547 110.668 78.5114L114.766 76.8257C114.766 76.8257 114.766 76.8201 114.771 76.8201C115.357 76.5857 115.963 76.4182 116.585 76.3206C117.238 76.2089 117.897 76.1587 118.556 76.1587C119.401 76.1587 120.239 76.2396 121.065 76.4071C121.849 76.5606 122.611 76.8146 123.328 77.1718C123.942 77.4788 124.595 77.7021 125.273 77.8305C126.038 77.9867 133.23 80.373 132.647 80.373ZM154.776 70.3954C153.875 70.3954 150.336 69.9572 149.462 69.773C148.622 69.6111 147.81 69.3348 147.046 68.9581C146.479 68.6734 145.876 68.4696 145.251 68.3524C144.545 68.2045 143.822 68.1375 143.102 68.1375C142.541 68.1375 141.98 68.1794 141.43 68.2715C140.945 68.3524 140.464 68.4808 140.007 68.6678L135.91 70.3452C135.91 70.3452 135.91 70.3507 135.904 70.3507C134.818 70.7889 133.655 71.0066 132.477 71.001C131.743 71.001 131.009 70.9145 130.294 70.7219C129.622 70.5628 128.988 70.2586 128.433 69.8456C128.235 69.6865 128.014 69.5553 127.785 69.4576C127.503 69.3265 127.202 69.2232 126.898 69.1423C126.189 68.9581 125.458 68.8715 124.724 68.8715C123.978 68.866 123.239 68.9636 122.524 69.1618L118.771 70.2419L117.883 70.4987C120.035 68.5617 122.323 67.4063 124.724 67.0184C125.617 67.0184 126.504 67.13 127.367 67.3533C127.768 67.4565 128.162 67.5933 128.539 67.7663C128.902 67.9254 129.242 68.1291 129.549 68.3636C129.912 68.6371 130.319 68.8269 130.752 68.9329C131.319 69.0809 131.896 69.1478 132.482 69.1478C133.412 69.1534 134.344 68.9804 135.212 68.6371L139.312 66.9514C139.312 66.9514 139.312 66.9458 139.317 66.9458C139.903 66.7114 140.506 66.5439 141.129 66.4462C141.782 66.3346 142.443 66.2843 143.102 66.2843C143.945 66.2843 144.785 66.3653 145.611 66.5327C146.392 66.6862 147.157 66.9402 147.872 67.2974C148.488 67.6045 149.141 67.8277 149.82 67.9561C150.584 68.1124 156.591 70.4987 156.004 70.4987L154.776 70.3954ZM149.186 89.6752C148.287 89.6752 142.332 89.1338 141.458 88.9468C140.618 88.7877 139.806 88.5114 139.041 88.1346C138.475 87.8499 137.869 87.6462 137.247 87.529C136.54 87.381 135.818 87.3141 135.097 87.3141C134.537 87.3141 133.976 87.3559 133.426 87.448C132.94 87.529 132.46 87.6573 132.002 87.8443L127.905 89.5217C127.905 89.5217 127.905 89.5273 127.9 89.5273C126.814 89.9655 125.647 90.1831 124.472 90.1776C123.738 90.1776 123.004 90.091 122.29 89.8985C121.617 89.7394 120.984 89.4352 120.428 89.0221C120.23 88.863 120.01 88.7319 119.781 88.6342C119.499 88.503 119.195 88.3997 118.893 88.3188C118.184 88.1346 117.453 88.0481 116.719 88.0481C115.974 88.0397 115.234 88.1402 114.517 88.3383L110.766 89.4184L109.879 89.6752C112.03 87.7383 114.319 86.5828 116.719 86.1949C117.612 86.1949 118.5 86.3065 119.362 86.5298C119.764 86.6331 120.158 86.7698 120.534 86.9429C120.897 87.102 121.235 87.3057 121.545 87.5401C121.908 87.8136 122.315 88.0034 122.745 88.1095C123.314 88.2574 123.892 88.3244 124.478 88.3244C125.407 88.33 126.34 88.1569 127.208 87.8136L131.307 86.1279C131.307 86.1279 131.307 86.1223 131.313 86.1223C131.899 85.8879 132.502 85.7204 133.124 85.6228C133.777 85.5111 134.436 85.4609 135.097 85.4609C135.94 85.4609 136.78 85.5418 137.607 85.7093C138.388 85.8628 139.153 86.1167 139.867 86.474C140.484 86.781 141.137 87.0043 141.815 87.1326C142.58 87.2889 149.772 89.6752 149.186 89.6752Z" fill="#4BEDFF"/>
<path fill-rule="evenodd" clip-rule="evenodd" d="M66.4627 62.2653C66.1195 62.1788 65.9157 62.056 65.9101 61.9137C65.8962 61.5871 66.9512 61.2773 68.2601 61.2243C69.5691 61.1713 70.6408 61.3946 70.6547 61.7239C70.6603 61.8244 70.5654 61.922 70.384 62.0086C70.4287 61.9667 70.4482 61.922 70.4454 61.8802C70.4342 61.5871 69.4825 61.389 68.3215 61.4364C67.1605 61.4839 66.2283 61.7574 66.2395 62.0476C66.2423 62.1286 66.3176 62.2039 66.4627 62.2653ZM64.6933 62.7565C63.99 62.5416 63.5741 62.2402 63.5602 61.8913C63.5267 61.0875 65.6729 60.3452 68.3438 60.2391C71.0176 60.1303 73.214 60.6968 73.2447 61.5006C73.2559 61.7462 73.0661 61.9834 72.6949 62.1983C72.7842 62.0951 72.8261 61.9862 72.8205 61.8802C72.7926 61.1657 70.8445 60.6633 68.475 60.7582C66.1055 60.8531 64.2049 61.5118 64.2328 62.2263C64.2412 62.4244 64.3974 62.6058 64.6933 62.7565ZM54.4757 62.7482C54.1324 62.6616 53.9286 62.5388 53.9231 62.3993C53.9119 62.07 54.9641 61.7602 56.273 61.7071C57.582 61.6541 58.6565 61.8774 58.6676 62.2067C58.6732 62.3072 58.5783 62.4049 58.3969 62.4942C58.4416 62.4495 58.4611 62.4077 58.4583 62.363C58.4472 62.07 57.4955 61.8718 56.3344 61.9192C55.1734 61.9667 54.2412 62.2402 54.2524 62.5333C54.2552 62.6142 54.3305 62.6868 54.4757 62.7482ZM52.7062 63.2394C52.0029 63.0245 51.587 62.723 51.5731 62.377C51.5424 61.5704 53.6858 60.828 56.3567 60.7219C59.0305 60.6131 61.2269 61.1796 61.2604 61.9834C61.2688 62.229 61.079 62.4663 60.7078 62.6812C60.7999 62.5779 60.839 62.4719 60.8334 62.363C60.8055 61.6485 58.8574 61.1462 56.4879 61.241C54.1184 61.3387 52.2178 61.9946 52.2457 62.7091C52.2541 62.9072 52.4104 63.0887 52.7062 63.2394Z" fill="#4BEDFF"/>
<mask id="mask2_235_7970" style="mask-type:luminance" maskUnits="userSpaceOnUse" x="49" y="37" width="21" height="27">
<path d="M49.5831 37.8952H69.5886V63.0834H49.5831V37.8952Z" fill="white"/>
</mask>
<g mask="url(#mask2_235_7970)">
<path fill-rule="evenodd" clip-rule="evenodd" d="M57.0847 56.154C56.9758 54.7557 56.8474 53.3574 56.6967 51.9592C56.6353 51.3563 56.5656 50.7535 56.4874 50.1506L61.9297 49.9302L61.9493 50.4325L63.9476 50.3404L63.9253 49.8492L66.4678 49.746C66.5515 50.3935 66.6269 51.041 66.6911 51.6885C66.839 53.0393 66.9646 54.3957 67.0707 55.7521L57.0847 56.154ZM57.1572 57.1559C57.2605 58.6602 57.3414 60.1645 57.3973 61.6689L57.4363 62.6708L55.438 62.7434L55.3962 61.7386C55.2789 58.5486 55.0529 55.353 54.704 52.1713C54.6398 51.5238 54.5645 50.8763 54.4807 50.2316H54.4361L54.4193 49.7543C54.2128 48.2528 53.9588 46.7597 53.6574 45.2805C53.4872 44.4627 53.2946 43.6673 53.0629 42.8719C52.9094 42.3053 52.7169 41.7415 52.4852 41.1973C52.4406 41.0996 52.3987 40.9992 52.354 40.9126C52.3373 40.974 52.3178 41.0438 52.301 41.1052C52.2145 41.4485 52.1503 41.8029 52.1028 42.149C51.9745 43.1873 51.8963 44.245 51.8684 45.2916C51.8377 46.8015 51.8489 48.317 51.9186 49.8213L51.9605 50.8261L49.9622 50.9154L49.9231 49.9134C49.8506 48.3589 49.8394 46.8099 49.8757 45.2525C49.8896 44.125 49.9762 42.9975 50.1213 41.8867C50.1855 41.4708 50.258 41.0578 50.3529 40.6503C50.4283 40.3265 50.526 40 50.6627 39.693C50.7716 39.4083 50.9418 39.1404 51.1428 38.9115C51.4107 38.6073 51.7847 38.4315 52.1726 38.4064C52.4824 38.3952 52.7866 38.4817 53.0434 38.6436C53.2499 38.7748 53.4341 38.9394 53.582 39.1348C53.889 39.5339 54.1458 39.9665 54.3356 40.441C54.5896 41.0522 54.8073 41.6857 54.9915 42.3221C55.2343 43.1677 55.438 44.0134 55.6138 44.8702C55.9013 46.2908 56.1469 47.7197 56.3507 49.1515L61.8879 48.9282C61.8349 47.5411 61.8293 46.1596 61.8628 44.7697C61.8767 43.6422 61.9632 42.5146 62.1084 41.4038C62.1726 40.988 62.2451 40.5721 62.34 40.1675C62.4154 39.8437 62.5131 39.5172 62.6498 39.2102C62.7587 38.9255 62.9289 38.6576 63.1298 38.4287C63.3978 38.1245 63.7718 37.9487 64.1597 37.9235C64.4695 37.9096 64.7737 37.9989 65.0305 38.1608C65.2342 38.2919 65.4212 38.4566 65.5691 38.6492C65.8761 39.0511 66.1329 39.4809 66.3227 39.9553C66.5767 40.5694 66.7916 41.2029 66.9786 41.8392C67.2214 42.6821 67.4251 43.5305 67.6009 44.3874C68.0754 46.7373 68.4382 49.104 68.6838 51.4763C69.0327 54.7083 69.2615 57.9457 69.3816 61.186L69.4234 62.188L67.4251 62.2577L67.3832 61.2558C67.3302 59.7543 67.2493 58.2527 67.1432 56.754L57.1572 57.1559ZM66.3311 48.7468C66.1413 47.4239 65.9096 46.1038 65.6445 44.7976C65.4742 43.9799 65.2817 43.1845 65.05 42.389C64.8965 41.8225 64.7039 41.2587 64.4723 40.7145C64.4276 40.6168 64.383 40.5163 64.3411 40.427C64.3216 40.4884 64.3048 40.561 64.2881 40.6224C64.2016 40.9657 64.1346 41.3201 64.0899 41.6634C63.9615 42.7044 63.8834 43.7622 63.8555 44.8088C63.8276 46.154 63.8332 47.5048 63.8862 48.8473L66.3311 48.7468Z" fill="#DB3F64"/>
</g>
<path d="M53.5067 62.0223C52.9765 62.2009 52.6722 62.4186 52.6834 62.6419C52.7029 63.161 54.3998 63.5155 56.4651 63.4317C58.5332 63.348 60.1938 62.8596 60.1743 62.3405C60.1687 62.1842 60.0068 62.0418 59.711 61.9246C59.7863 61.986 59.8226 62.053 59.8254 62.1228C59.845 62.5833 58.3713 63.0159 56.5377 63.0884C54.704 63.1638 53.1997 62.8512 53.183 62.3907C53.1774 62.2623 53.2862 62.1367 53.5067 62.0223Z" fill="#4BEDFF"/>
<path d="M65.4943 61.5402C64.964 61.7189 64.6598 61.9366 64.671 62.1598C64.6905 62.679 66.3846 63.0334 68.4527 62.9497C70.5208 62.8659 72.1814 62.3775 72.1618 61.8584C72.1562 61.6993 71.9944 61.557 71.6985 61.4426C71.7739 61.504 71.8102 61.5682 71.813 61.6379C71.8297 62.0984 70.3589 62.5338 68.5252 62.6064C66.6916 62.6817 65.1873 62.3664 65.1705 61.9087C65.1649 61.7803 65.2738 61.6547 65.4943 61.5402Z" fill="#4BEDFF"/>
<path fill-rule="evenodd" clip-rule="evenodd" d="M120.584 73.4599C120.584 69.9182 114.02 67.0407 105.937 67.0407C97.8548 67.0407 91.2905 69.9182 91.2905 73.4599C91.2905 73.8004 91.3519 74.1381 91.4719 74.4646L91.7092 75.8043C92.1111 78.051 94.1903 80.4512 96.3533 81.1573L98.36 81.8132C100.52 82.5193 104.123 83.0942 106.395 83.0942H107.539C109.814 83.0942 113.336 82.3183 115.399 81.361L116.844 80.6912C118.91 79.7339 120.584 77.1049 120.584 74.8191V73.4599ZM98.0306 73.4599C98.0306 71.5453 101.572 69.9936 105.937 69.9936C110.302 69.9936 113.847 71.5453 113.847 73.4599C113.847 75.3717 110.302 76.9235 105.937 76.9235C101.572 76.9235 98.0306 75.3717 98.0306 73.4599Z" fill="#FFEAA0"/>
<mask id="mask3_235_7970" style="mask-type:luminance" maskUnits="userSpaceOnUse" x="91" y="67" width="30" height="17">
<path d="M91.2924 67.0303H120.745V83.3936H91.2924V67.0303Z" fill="white"/>
</mask>
<g mask="url(#mask3_235_7970)">
<mask id="mask4_235_7970" style="mask-type:luminance" maskUnits="userSpaceOnUse" x="91" y="67" width="30" height="17">
<path d="M120.587 73.4598C120.587 69.9181 114.022 67.0407 105.94 67.0407C97.8573 67.0407 91.293 69.9181 91.293 73.4598C91.293 73.8003 91.3544 74.138 91.4744 74.4646L91.7116 75.8042C92.1135 78.0509 94.1928 80.4511 96.3557 81.1572L98.3624 81.8131C100.523 82.5192 104.126 83.0942 106.398 83.0942H107.542C109.816 83.0942 113.339 82.3183 115.401 81.361L116.847 80.6912C118.912 79.7339 120.587 77.1048 120.587 74.819V73.4598ZM98.0331 73.4598C98.0331 71.5453 101.575 69.9935 105.94 69.9935C110.305 69.9935 113.849 71.5453 113.849 73.4598C113.849 75.3716 110.305 76.9234 105.94 76.9234C101.575 76.9234 98.0331 75.3716 98.0331 73.4598Z" fill="white"/>
</mask>
<g mask="url(#mask4_235_7970)">
<path fill-rule="evenodd" clip-rule="evenodd" d="M99.9888 72.751L91.2922 69.3042L89.9191 76.1978C93.8989 74.9 97.2592 74.3641 99.9888 74.5902V72.751ZM102.277 75.5084L99.9999 76.8648C98.9143 77.5123 97.7839 79.0362 97.4825 80.2698L96.7848 83.0942L103.879 84.9334V82.176C103.879 80.9061 104.382 78.9776 105.001 77.8723L105.939 76.1978L102.277 75.5084ZM109.372 76.1978L110.195 77.1914C111.005 78.1654 111.853 79.9683 112.087 81.2159L112.576 83.7836L118.297 81.7155L117.145 79.0334C116.645 77.8695 115.322 76.4573 114.197 75.8824L111.66 74.5902L109.372 76.1978ZM113.262 72.751C116.162 72.2374 118.604 72.2374 120.586 72.751L118.297 67.9254H116.238L111.66 71.6039L113.262 72.751ZM109.372 66.3151V70.9117H105.252L102.277 66.3151H109.372Z" fill="#DB3F64"/>
</g>
</g>
</svg>
