<svg width="113" height="117" viewBox="0 0 113 117" fill="none" xmlns="http://www.w3.org/2000/svg">
<mask id="mask0_195_2606" style="mask-type:luminance" maskUnits="userSpaceOnUse" x="17" y="7" width="32" height="44">
<path d="M17.069 7.54213H48.0303V50.4116H17.069V7.54213Z" fill="white"/>
</mask>
<g mask="url(#mask0_195_2606)">
<mask id="mask1_195_2606" style="mask-type:luminance" maskUnits="userSpaceOnUse" x="-20" y="-27" width="154" height="157">
<path d="M-19.4489 34.5738L66.7645 -26.4416L133.624 68.0284L47.4106 129.045L-19.4489 34.5738Z" fill="white"/>
</mask>
<g mask="url(#mask1_195_2606)">
<mask id="mask2_195_2606" style="mask-type:luminance" maskUnits="userSpaceOnUse" x="-20" y="-27" width="154" height="157">
<path d="M66.8246 -26.4852L-19.3887 34.5303L47.4708 129.002L133.686 67.9863L66.8246 -26.4852Z" fill="white"/>
</mask>
<g mask="url(#mask2_195_2606)">
<path d="M35.4157 22.6101C38.9199 28.4526 43.1575 33.8143 46.4307 39.7932C47.6727 42.0617 48.2929 44.3704 47.9177 47.011C47.1812 52.1681 41.2798 50.1369 38.495 48.0204C34.7505 45.1767 32.7565 40.9205 30.2058 37.117C28.5375 34.6315 26.7016 32.284 25.393 29.5721C24.8611 28.4712 24.5727 27.299 23.9478 26.2384C23.0609 24.7406 22.1384 23.2675 21.2809 21.7511C19.8017 19.14 18.0945 16.4296 17.4976 13.448C17.1208 11.5733 17.2355 8.67848 19.4016 7.8691C19.4683 7.84429 19.5303 7.83343 19.5908 7.83033C24.1975 7.15274 27.7823 10.1267 30.2787 13.6883C31.3579 15.2264 32.2339 16.8979 33.0759 18.574C33.7767 19.968 34.614 21.272 35.4157 22.6101Z" fill="#2278D4"/>
</g>
</g>
</g>
<mask id="mask3_195_2606" style="mask-type:luminance" maskUnits="userSpaceOnUse" x="29" y="46" width="41" height="55">
<path d="M29.3727 46.0453H69.4636V100.029H29.3727V46.0453Z" fill="white"/>
</mask>
<g mask="url(#mask3_195_2606)">
<mask id="mask4_195_2606" style="mask-type:luminance" maskUnits="userSpaceOnUse" x="-20" y="-27" width="154" height="157">
<path d="M-19.4495 34.5739L66.7638 -26.4415L133.623 68.0285L47.4099 129.045L-19.4495 34.5739Z" fill="white"/>
</mask>
<g mask="url(#mask4_195_2606)">
<mask id="mask5_195_2606" style="mask-type:luminance" maskUnits="userSpaceOnUse" x="-20" y="-27" width="154" height="157">
<path d="M66.824 -26.4851L-19.3893 34.5303L47.4701 129.002L133.685 67.9864L66.824 -26.4851Z" fill="white"/>
</mask>
<g mask="url(#mask5_195_2606)">
<path d="M30.1362 84.8719C29.2276 80.6358 29.8649 76.3656 31.5488 72.4055C33.397 68.0563 36.4128 64.2466 39.6364 60.8385C43.5794 56.6675 48.0233 52.7322 52.8594 49.6374C55.4551 47.9752 58.6538 46.206 61.8526 46.4665C62.555 46.5239 63.2186 46.7533 63.8109 47.1255C63.9272 47.1999 64.6389 47.8325 64.3149 47.572C66.0964 49.0063 67.5074 51.0375 68.3897 53.1292C69.1371 54.9015 69.3681 56.8443 69.1107 58.7468C68.7463 61.4478 67.1818 63.6062 65.577 65.7149C62.4806 69.7851 59.519 74.0662 57.2754 78.6775C56.4738 80.3211 55.8256 82.0406 55.0535 83.6997C53.4611 87.1217 51.6686 90.4802 49.4917 93.5689C47.7302 96.0668 45.3285 99.0687 42.1219 99.6036C40.5497 99.8672 39.0581 99.1214 37.9649 98.0422C34.3723 94.355 31.2309 89.9903 30.1362 84.8719Z" fill="#2278D4"/>
</g>
</g>
</g>
<mask id="mask6_195_2606" style="mask-type:luminance" maskUnits="userSpaceOnUse" x="90" y="32" width="23" height="27">
<path d="M90.899 32.9475H112.334V58.3516H90.899V32.9475Z" fill="white"/>
</mask>
<g mask="url(#mask6_195_2606)">
<mask id="mask7_195_2606" style="mask-type:luminance" maskUnits="userSpaceOnUse" x="-20" y="-27" width="154" height="157">
<path d="M-19.4492 34.5745L66.7641 -26.4409L133.624 68.0291L47.4102 129.046L-19.4492 34.5745Z" fill="white"/>
</mask>
<g mask="url(#mask7_195_2606)">
<mask id="mask8_195_2606" style="mask-type:luminance" maskUnits="userSpaceOnUse" x="-20" y="-27" width="154" height="157">
<path d="M66.8243 -26.4845L-19.3891 34.5309L47.4704 129.002L133.685 67.987L66.8243 -26.4845Z" fill="white"/>
</mask>
<g mask="url(#mask8_195_2606)">
<path d="M91.1759 51.0023C90.2967 44.8622 93.8149 38.7825 98.6852 35.2581C101.019 33.568 104.762 32.3167 107.517 33.83C109.325 34.7821 111.071 36.0194 111.843 37.9855C112.449 39.5298 112.071 41.2401 111.443 42.7085C109.821 46.5073 106.545 49.3603 104.402 52.8428C103.132 54.9066 102.047 57.1301 99.5954 57.972C98.0495 58.5023 96.4338 58.0433 94.9871 57.4448C93.9436 57.0122 93.3001 56.575 92.6939 55.5888C91.8442 54.2073 91.4038 52.5963 91.1759 51.0023Z" fill="white"/>
</g>
</g>
</g>
<mask id="mask9_195_2606" style="mask-type:luminance" maskUnits="userSpaceOnUse" x="2" y="28" width="25" height="29">
<path d="M2.38164 28.5802H26.198V56.7629H2.38164V28.5802Z" fill="white"/>
</mask>
<g mask="url(#mask9_195_2606)">
<mask id="mask10_195_2606" style="mask-type:luminance" maskUnits="userSpaceOnUse" x="-20" y="-27" width="154" height="157">
<path d="M-19.4493 34.5732L66.764 -26.4423L133.623 68.0277L47.4101 129.045L-19.4493 34.5732Z" fill="white"/>
</mask>
<g mask="url(#mask10_195_2606)">
<mask id="mask11_195_2606" style="mask-type:luminance" maskUnits="userSpaceOnUse" x="-20" y="-27" width="154" height="157">
<path d="M66.8248 -26.4867L-19.3885 34.5288L47.4709 129L133.686 67.9848L66.8248 -26.4867Z" fill="white"/>
</mask>
<g mask="url(#mask11_195_2606)">
<path d="M2.61779 33.6161C2.20379 30.7166 4.56992 29.0203 7.24771 28.9133C7.31439 28.904 7.38571 28.9024 7.46479 28.9164C11.29 29.6545 14.4221 33.4719 16.8378 36.2489C18.6628 38.3484 20.401 40.561 21.9639 42.8635C23.6711 45.3801 25.2108 48.2377 25.848 51.2256C26.1581 52.6707 26.0992 54.474 24.8696 55.4943C23.209 56.8742 21.0987 56.8634 19.2117 55.9889C17.4425 55.1686 16.3835 53.7685 15.1338 52.3761C12.6948 49.6549 9.90224 47.2686 7.67876 44.3521C5.34675 41.2928 3.17133 37.4785 2.61779 33.6161Z" fill="white"/>
</g>
</g>
</g>
<mask id="mask12_195_2606" style="mask-type:luminance" maskUnits="userSpaceOnUse" x="25" y="53" width="11" height="13">
<path d="M25.4043 53.9845H35.3278V65.4958H25.4043V53.9845Z" fill="white"/>
</mask>
<g mask="url(#mask12_195_2606)">
<mask id="mask13_195_2606" style="mask-type:luminance" maskUnits="userSpaceOnUse" x="-20" y="-27" width="154" height="157">
<path d="M-19.4491 34.5743L66.7642 -26.4411L133.624 68.0289L47.4103 129.046L-19.4491 34.5743Z" fill="white"/>
</mask>
<g mask="url(#mask13_195_2606)">
<mask id="mask14_195_2606" style="mask-type:luminance" maskUnits="userSpaceOnUse" x="-20" y="-27" width="154" height="157">
<path d="M66.8244 -26.4847L-19.3889 34.5307L47.4705 129.002L133.685 67.9868L66.8244 -26.4847Z" fill="white"/>
</mask>
<g mask="url(#mask14_195_2606)">
<path d="M26.9203 62.6637C26.8071 62.4776 26.7079 62.2823 26.6086 62.0869C26.3047 61.4977 26.0845 60.862 25.945 60.2138C25.5511 58.3795 25.9589 56.6088 27.28 55.2459C29.4368 53.0178 32.2697 54.4675 33.6264 56.7608C35.3242 58.9393 36.129 62.321 33.614 64.2158C31.2122 66.0253 28.3251 65.267 26.9482 62.6978C26.9621 62.7273 26.9652 62.7381 26.9203 62.6637Z" fill="white"/>
</g>
</g>
</g>
<mask id="mask15_195_2606" style="mask-type:luminance" maskUnits="userSpaceOnUse" x="0" y="55" width="28" height="24">
<path d="M0 55.9697H27.3888V78.9922H0V55.9697Z" fill="white"/>
</mask>
<g mask="url(#mask15_195_2606)">
<mask id="mask16_195_2606" style="mask-type:luminance" maskUnits="userSpaceOnUse" x="-20" y="-27" width="154" height="157">
<path d="M-19.4491 34.5733L66.7642 -26.4422L133.624 68.0278L47.4103 129.045L-19.4491 34.5733Z" fill="white"/>
</mask>
<g mask="url(#mask16_195_2606)">
<mask id="mask17_195_2606" style="mask-type:luminance" maskUnits="userSpaceOnUse" x="-20" y="-27" width="154" height="157">
<path d="M66.825 -26.4866L-19.3883 34.5289L47.4711 129L133.686 67.985L66.825 -26.4866Z" fill="white"/>
</mask>
<g mask="url(#mask17_195_2606)">
<mask id="mask18_195_2606" style="mask-type:luminance" maskUnits="userSpaceOnUse" x="-2" y="50" width="32" height="36">
<path d="M11.1264 50.231L-1.93851 59.4784L16.147 85.0345L29.2135 75.787L11.1264 50.231Z" fill="white"/>
</mask>
<g mask="url(#mask18_195_2606)">
<mask id="mask19_195_2606" style="mask-type:luminance" maskUnits="userSpaceOnUse" x="-2" y="50" width="32" height="35">
<path d="M11.1278 50.2305L-1.84563 59.4128L16.2415 84.9688L29.2149 75.7865L11.1278 50.2305Z" fill="white"/>
</mask>
<g mask="url(#mask19_195_2606)">
<path d="M1.77917 57.1787C3.96698 56.1662 6.44475 55.8157 8.5845 57.1322C9.36443 57.6128 9.99705 58.2796 10.5134 59.0316C11.2359 60.0875 11.4825 61.3047 12.3895 62.2552C13.5354 63.4553 15.0084 64.0166 16.4008 64.8229C17.9606 65.7253 19.5096 66.6463 21.0416 67.5937C23.679 69.2217 27.7523 71.6576 27.3337 75.3557C26.746 80.5392 21.0106 78.3544 17.9498 76.9155C15.2239 75.6332 12.5694 73.9385 10.3893 71.8515C9.27605 70.7862 8.31161 69.6559 6.94868 68.8915C6.05712 68.3922 5.13299 68.0123 4.31431 67.3859C2.09703 65.6834 -2.50033 59.2378 1.77917 57.1787Z" fill="#41B9EC"/>
</g>
</g>
</g>
</g>
</g>
<mask id="mask20_195_2606" style="mask-type:luminance" maskUnits="userSpaceOnUse" x="65" y="63" width="35" height="38">
<path d="M65.8911 63.1134H99.234V100.823H65.8911V63.1134Z" fill="white"/>
</mask>
<g mask="url(#mask20_195_2606)">
<mask id="mask21_195_2606" style="mask-type:luminance" maskUnits="userSpaceOnUse" x="-20" y="-27" width="154" height="157">
<path d="M-19.4496 34.5727L66.7638 -26.4428L133.623 68.0272L47.4099 129.044L-19.4496 34.5727Z" fill="white"/>
</mask>
<g mask="url(#mask21_195_2606)">
<mask id="mask22_195_2606" style="mask-type:luminance" maskUnits="userSpaceOnUse" x="-20" y="-27" width="154" height="156">
<path d="M66.8245 -26.4872L-19.3888 34.5283L47.4706 129L133.686 67.9844L66.8245 -26.4872Z" fill="white"/>
</mask>
<g mask="url(#mask22_195_2606)">
<path d="M67.5498 87.6458C66.8025 83.7214 66.3451 79.7148 66.2784 75.719C66.2102 71.7388 66.4055 62.6433 72.5534 63.5876C76.1988 64.1908 79.7774 63.0402 83.4274 63.2449C87.6991 63.4837 91.591 65.3986 94.4021 68.616C97.7839 72.4893 99.5236 78.0092 98.6506 83.0903C97.8878 87.5187 95.2177 91.4633 91.9941 94.4899C89.1442 97.1677 85.5625 99.4672 81.6985 100.301C76.8888 101.34 72.4557 99.6036 70.0881 95.2636C68.767 92.8401 68.0631 90.3376 67.5498 87.6458Z" fill="#41B9EC"/>
</g>
</g>
</g>
<mask id="mask23_195_2606" style="mask-type:luminance" maskUnits="userSpaceOnUse" x="46" y="0" width="21" height="46">
<path d="M46.0453 0H66.6861V45.2511H46.0453V0Z" fill="white"/>
</mask>
<g mask="url(#mask23_195_2606)">
<mask id="mask24_195_2606" style="mask-type:luminance" maskUnits="userSpaceOnUse" x="-20" y="-27" width="154" height="157">
<path d="M-19.449 34.5726L66.7644 -26.4428L133.624 68.0272L47.4105 129.044L-19.449 34.5726Z" fill="white"/>
</mask>
<g mask="url(#mask24_195_2606)">
<mask id="mask25_195_2606" style="mask-type:luminance" maskUnits="userSpaceOnUse" x="-20" y="-27" width="154" height="156">
<path d="M66.8251 -26.4872L-19.3882 34.5282L47.4713 129L133.686 67.9843L66.8251 -26.4872Z" fill="white"/>
</mask>
<g mask="url(#mask25_195_2606)">
<path d="M53.3121 25.4563C52.3678 22.3645 50.9956 19.5239 49.3334 16.7624C47.834 14.266 46.4354 11.7355 46.1346 8.78947C45.6942 4.47275 48.1999 -1.05339 53.3012 0.283183C53.3756 0.30334 53.4501 0.328149 53.5245 0.351407C56.6054 0.866187 58.0118 5.17205 58.8801 7.66842C60.4291 12.1216 61.3237 16.8135 62.1424 21.445C62.9316 25.9075 63.5767 30.3839 64.5101 34.8215C64.8186 36.2899 65.0528 37.8513 65.5381 39.2763C65.9661 40.5353 66.349 41.892 66.3707 43.227C66.3925 44.6272 65.5428 45.5063 64.1457 44.9978C62.9487 44.5605 61.9052 43.4488 61.0477 42.5634C59.7902 41.2625 58.7824 39.7507 57.9094 38.1723C55.7077 34.1812 54.63 29.773 53.3121 25.4563Z" fill="#FF0E66"/>
</g>
</g>
</g>
<mask id="mask26_195_2606" style="mask-type:luminance" maskUnits="userSpaceOnUse" x="48" y="84" width="22" height="33">
<path d="M48.4265 84.9449H69.8612V116.303H48.4265V84.9449Z" fill="white"/>
</mask>
<g mask="url(#mask26_195_2606)">
<mask id="mask27_195_2606" style="mask-type:luminance" maskUnits="userSpaceOnUse" x="-20" y="-27" width="154" height="157">
<path d="M-19.4492 34.5737L66.7642 -26.4418L133.624 68.0282L47.4103 129.045L-19.4492 34.5737Z" fill="white"/>
</mask>
<g mask="url(#mask27_195_2606)">
<mask id="mask28_195_2606" style="mask-type:luminance" maskUnits="userSpaceOnUse" x="-20" y="-27" width="154" height="157">
<path d="M66.8243 -26.4854L-19.389 34.5301L47.4705 129.002L133.685 67.9862L66.8243 -26.4854Z" fill="white"/>
</mask>
<g mask="url(#mask28_195_2606)">
<mask id="mask29_195_2606" style="mask-type:luminance" maskUnits="userSpaceOnUse" x="41" y="83" width="37" height="39">
<path d="M60.9222 83.9175L41.131 97.9251L57.9932 121.751L77.7843 107.745L60.9222 83.9175Z" fill="white"/>
</mask>
<g mask="url(#mask29_195_2606)">
<mask id="mask30_195_2606" style="mask-type:luminance" maskUnits="userSpaceOnUse" x="41" y="83" width="37" height="39">
<path d="M60.9214 83.9182L41.1303 97.9258L57.9289 121.663L77.72 107.657L60.9214 83.9182Z" fill="white"/>
</mask>
<g mask="url(#mask30_195_2606)">
<path d="M48.7891 107.656C47.9394 104.645 48.8899 101.367 50.0342 98.5699C51.8421 94.1509 54.6455 89.9334 57.7528 86.3113C59.4646 84.3546 61.6322 85.0849 62.9797 87.0401C63.7286 88.127 64.1317 89.5272 64.5829 90.7521C66.1924 95.1076 67.6127 99.5623 68.6872 104.081C69.4051 107.098 70.7355 111.453 68.388 114.082C65.6451 117.15 60.5345 116.398 57.1512 115.097C53.8036 113.81 49.8202 111.315 48.7891 107.656Z" fill="#FF0E66"/>
</g>
</g>
</g>
</g>
</g>
</svg>
