<svg width="158" height="124" viewBox="0 0 158 124" fill="none" xmlns="http://www.w3.org/2000/svg">
<path d="M83.3026 92.5585L83.3649 99.2234L83.45 108.051H90.1884L92.0962 96.9838L92.8609 92.5585H83.3026Z" fill="#FFDBAC"/>
<path d="M83.3026 92.5585L83.3649 99.2234L83.45 108.051H90.1884L92.0962 96.9838L92.8609 92.5585H83.3026Z" fill="#FFDBAC"/>
<path d="M66.31 96.9838L68.2179 108.051H74.9563L75.0414 99.2234L75.1036 92.5585H65.5453L66.31 96.9838Z" fill="#FFDBAC"/>
<path d="M66.31 96.9838L68.2179 108.051H74.9563L75.0414 99.2234L75.1036 92.5585H65.5453L66.31 96.9838Z" fill="#FFDBAC"/>
<mask id="mask0_195_2008" style="mask-type:luminance" maskUnits="userSpaceOnUse" x="82" y="107" width="12" height="9">
<path d="M82.2931 107.575H93.9993V115H82.2931V107.575Z" fill="white"/>
</mask>
<g mask="url(#mask0_195_2008)">
<path d="M92.7281 109.697L91.106 107.865C90.9561 107.696 90.7402 107.599 90.5128 107.599H83.5407C83.1203 107.599 82.7735 107.926 82.7468 108.35L82.4217 113.382L82.4051 113.644C82.3594 114.354 82.9183 114.956 83.6195 114.956H92.5934C93.24 114.956 93.7709 114.444 93.8065 113.794L93.8293 113.383L93.8547 112.959C93.9233 111.766 93.5156 110.592 92.7281 109.701V109.697Z" fill="#F6D55C"/>
</g>
<mask id="mask1_195_2008" style="mask-type:luminance" maskUnits="userSpaceOnUse" x="82" y="107" width="12" height="9">
<path d="M82.2931 107.575H93.9993V115H82.2931V107.575Z" fill="white"/>
</mask>
<g mask="url(#mask1_195_2008)">
<path d="M92.7281 109.697L91.106 107.865C90.9561 107.696 90.7402 107.599 90.5128 107.599H83.5407C83.1203 107.599 82.7735 107.926 82.7468 108.35L82.4217 113.382L82.4051 113.644C82.3594 114.354 82.9183 114.956 83.6195 114.956H92.5934C93.24 114.956 93.7709 114.444 93.8065 113.794L93.8293 113.383L93.8547 112.959C93.9233 111.766 93.5156 110.592 92.7281 109.701V109.697Z" fill="#F6D55C"/>
</g>
<mask id="mask2_195_2008" style="mask-type:luminance" maskUnits="userSpaceOnUse" x="64" y="107" width="13" height="9">
<path d="M64.4094 107.575H76.1156V115H64.4094V107.575Z" fill="white"/>
</mask>
<g mask="url(#mask2_195_2008)">
<path d="M75.9854 113.38L75.6602 108.349C75.6323 107.925 75.2868 107.597 74.8676 107.597H67.8942C67.6694 107.597 67.4509 107.694 67.301 107.863L65.679 109.695C64.8889 110.586 64.4837 111.76 64.5523 112.953L64.5777 113.378L64.6005 113.788C64.6374 114.441 65.1696 114.95 65.8136 114.95H74.7876C75.49 114.95 76.0476 114.348 76.0019 113.639L75.9854 113.376V113.38Z" fill="#F6D55C"/>
</g>
<mask id="mask3_195_2008" style="mask-type:luminance" maskUnits="userSpaceOnUse" x="64" y="107" width="13" height="9">
<path d="M64.4094 107.575H76.1156V115H64.4094V107.575Z" fill="white"/>
</mask>
<g mask="url(#mask3_195_2008)">
<path d="M75.9854 113.38L75.6602 108.349C75.6323 107.925 75.2868 107.597 74.8676 107.597H67.8942C67.6694 107.597 67.4509 107.694 67.301 107.863L65.679 109.695C64.8889 110.586 64.4837 111.76 64.5523 112.953L64.5777 113.378L64.6005 113.788C64.6374 114.441 65.1696 114.95 65.8136 114.95H74.7876C75.49 114.95 76.0476 114.348 76.0019 113.639L75.9854 113.376V113.38Z" fill="#F6D55C"/>
</g>
<path d="M83.3033 92.5585L83.3655 99.2234C87.0542 96.4888 92.0969 96.9838 92.0969 96.9838L92.859 92.5585H83.3007H83.3033Z" fill="#EAC292"/>
<path d="M83.3033 92.5585L83.3655 99.2234C87.0542 96.4888 92.0969 96.9838 92.0969 96.9838L92.859 92.5585H83.3007H83.3033Z" fill="#EAC292"/>
<path d="M66.31 96.9838C66.31 96.9838 71.3527 96.4888 75.0414 99.2234L75.1036 92.5585H65.5453L66.3087 96.9838H66.31Z" fill="#EAC292"/>
<path d="M66.31 96.9838C66.31 96.9838 71.3527 96.4888 75.0414 99.2234L75.1036 92.5585H65.5453L66.3087 96.9838H66.31Z" fill="#EAC292"/>
<path d="M98.5583 79.0931L95.8808 95.6409H79.626L79.2043 87.8999L78.7813 95.6409H62.5253L59.8489 79.0931H98.5583Z" fill="#20639B"/>
<path d="M98.5583 79.0931L95.8808 95.6409H79.626L79.2043 87.8999L78.7813 95.6409H62.5253L59.8489 79.0931H98.5583Z" fill="#20639B"/>
<path d="M98.5583 59.118V80.5808H59.8489V59.118C59.8489 56.7086 60.9895 54.568 62.7538 53.2219C63.0968 52.9596 63.4639 52.7256 63.8526 52.5289C64.8484 52.016 65.9725 51.728 67.1602 51.728H91.247C92.5871 51.728 93.8446 52.0931 94.9242 52.7308C95.3053 52.9532 95.6597 53.209 95.9925 53.497C97.565 54.8496 98.5583 56.8668 98.5583 59.118Z" fill="#ED553B"/>
<path d="M98.5583 59.118V80.5808H59.8489V59.118C59.8489 56.7086 60.9895 54.568 62.7538 53.2219C63.0968 52.9596 63.4639 52.7256 63.8526 52.5289C64.8484 52.016 65.9725 51.728 67.1602 51.728H91.247C92.5871 51.728 93.8446 52.0931 94.9242 52.7308C95.3053 52.9532 95.6597 53.209 95.9925 53.497C97.565 54.8496 98.5583 56.8668 98.5583 59.118Z" fill="#ED553B"/>
<path d="M103.1 37.2692C102.114 37.0172 101.015 37.3952 100.115 38.1807C98.449 30.0193 89.8523 23.8019 79.4988 23.8019C69.1442 23.8019 60.5525 30.0181 58.886 38.1807C57.9867 37.3952 56.888 37.0172 55.901 37.2692C54.2383 37.696 53.5321 39.7441 54.326 41.8461C55.1198 43.9469 57.1103 45.3046 58.7717 44.8777C58.8784 44.8507 58.98 44.8173 59.0778 44.7775C59.8526 47.7088 61.5267 50.3649 63.8525 52.5287C67.6821 56.0977 73.271 58.3451 79.4988 58.3451C85.7254 58.3451 91.0996 56.1839 94.9229 52.7306C97.3655 50.5282 99.1222 47.8001 99.9224 44.7749C100.019 44.8147 100.122 44.8482 100.227 44.8752C101.89 45.302 103.88 43.9444 104.674 41.8449C105.468 39.7441 104.761 37.696 103.099 37.2666L103.1 37.2692Z" fill="#FFDBAC"/>
<path d="M103.1 37.2692C102.114 37.0172 101.015 37.3952 100.115 38.1807C98.449 30.0193 89.8523 23.8019 79.4988 23.8019C69.1442 23.8019 60.5525 30.0181 58.886 38.1807C57.9867 37.3952 56.888 37.0172 55.901 37.2692C54.2383 37.696 53.5321 39.7441 54.326 41.8461C55.1198 43.9469 57.1103 45.3046 58.7717 44.8777C58.8784 44.8507 58.98 44.8173 59.0778 44.7775C59.8526 47.7088 61.5267 50.3649 63.8525 52.5287C67.6821 56.0977 73.271 58.3451 79.4988 58.3451C85.7254 58.3451 91.0996 56.1839 94.9229 52.7306C97.3655 50.5282 99.1222 47.8001 99.9224 44.7749C100.019 44.8147 100.122 44.8482 100.227 44.8752C101.89 45.302 103.88 43.9444 104.674 41.8449C105.468 39.7441 104.761 37.696 103.099 37.2666L103.1 37.2692Z" fill="#FFDBAC"/>
<path d="M82.4598 12.1741C82.4598 12.1741 56.5514 8.37878 56.8626 38.6806H72.5446L75.0748 32.1365L76.1532 38.6806H84.6166L85.653 32.053L86.8978 38.6806H101.335C101.335 38.6806 104.904 13.8506 82.4598 12.1741Z" fill="#353535"/>
<path d="M82.4598 12.1741C82.4598 12.1741 56.5514 8.37878 56.8626 38.6806H72.5446L75.0748 32.1365L76.1532 38.6806H84.6166L85.653 32.053L86.8978 38.6806H101.335C101.335 38.6806 104.904 13.8506 82.4598 12.1741Z" fill="#353535"/>
<path d="M67.6593 43.6085C66.497 43.6085 65.5152 43.0621 65.1735 42.3062C65.0935 42.4887 65.0477 42.6829 65.0477 42.8834C65.0477 43.9261 66.2176 44.7721 67.6593 44.7721C69.1009 44.7721 70.2733 43.9261 70.2733 42.8834C70.2733 42.6829 70.2276 42.4887 70.1463 42.3062C69.8059 43.0608 68.819 43.6085 67.6593 43.6085Z" fill="#353535"/>
<path d="M67.6593 43.6085C66.497 43.6085 65.5152 43.0621 65.1735 42.3062C65.0935 42.4887 65.0477 42.6829 65.0477 42.8834C65.0477 43.9261 66.2176 44.7721 67.6593 44.7721C69.1009 44.7721 70.2733 43.9261 70.2733 42.8834C70.2733 42.6829 70.2276 42.4887 70.1463 42.3062C69.8059 43.0608 68.819 43.6085 67.6593 43.6085Z" fill="#353535"/>
<path d="M79.4986 48.684C78.6755 48.684 77.9795 48.2944 77.7369 47.7609C77.6784 47.892 77.6467 48.0283 77.6467 48.171C77.6467 48.9103 78.4761 49.5094 79.4986 49.5094C80.5211 49.5094 81.3518 48.9103 81.3518 48.171C81.3518 48.0283 81.3201 47.8895 81.2629 47.7609C81.0216 48.297 80.3217 48.684 79.4986 48.684Z" fill="#353535"/>
<path d="M79.4986 48.684C78.6755 48.684 77.9795 48.2944 77.7369 47.7609C77.6784 47.892 77.6467 48.0283 77.6467 48.171C77.6467 48.9103 78.4761 49.5094 79.4986 49.5094C80.5211 49.5094 81.3518 48.9103 81.3518 48.171C81.3518 48.0283 81.3201 47.8895 81.2629 47.7609C81.0216 48.297 80.3217 48.684 79.4986 48.684Z" fill="#353535"/>
<path d="M91.3392 43.6085C90.1783 43.6085 89.1939 43.0621 88.8522 42.3062C88.7722 42.4887 88.7264 42.6829 88.7264 42.8834C88.7264 43.9261 89.8976 44.7721 91.3392 44.7721C92.7822 44.7721 93.9521 43.9261 93.9521 42.8834C93.9521 42.6829 93.9063 42.4887 93.825 42.3062C93.4846 43.0608 92.5015 43.6085 91.3392 43.6085Z" fill="#353535"/>
<path d="M91.3392 43.6085C90.1783 43.6085 89.1939 43.0621 88.8522 42.3062C88.7722 42.4887 88.7264 42.6829 88.7264 42.8834C88.7264 43.9261 89.8976 44.7721 91.3392 44.7721C92.7822 44.7721 93.9521 43.9261 93.9521 42.8834C93.9521 42.6829 93.9063 42.4887 93.825 42.3062C93.4846 43.0608 92.5015 43.6085 91.3392 43.6085Z" fill="#353535"/>
<path d="M77.3067 80.5772H71.2085C71.159 81.1801 71.239 81.8448 71.4727 82.5172C72.2145 84.6386 74.1693 86.0464 75.8422 85.6619C77.5163 85.2775 78.2708 83.2475 77.529 81.1261C77.4642 80.9384 77.388 80.752 77.3042 80.5759L77.3067 80.5772Z" fill="#135477"/>
<path d="M77.3067 80.5772H71.2085C71.159 81.1801 71.239 81.8448 71.4727 82.5172C72.2145 84.6386 74.1693 86.0464 75.8422 85.6619C77.5163 85.2775 78.2708 83.2475 77.529 81.1261C77.4642 80.9384 77.388 80.752 77.3042 80.5759L77.3067 80.5772Z" fill="#135477"/>
<path d="M87.1987 80.5778H81.1004C81.0153 80.7552 80.9404 80.939 80.8756 81.1293C80.1338 83.2507 80.8908 85.2794 82.5637 85.6638C84.2378 86.0483 86.1939 84.6405 86.9332 82.5191C87.1682 81.8467 87.2495 81.1833 87.1974 80.5803L87.1987 80.5778Z" fill="#135477"/>
<path d="M87.1987 80.5778H81.1004C81.0153 80.7552 80.9404 80.939 80.8756 81.1293C80.1338 83.2507 80.8908 85.2794 82.5637 85.6638C84.2378 86.0483 86.1939 84.6405 86.9332 82.5191C87.1682 81.8467 87.2495 81.1833 87.1974 80.5803L87.1987 80.5778Z" fill="#135477"/>
<path d="M95.9896 53.4964C95.6581 53.2084 95.3025 52.9526 94.9227 52.7302C91.0994 56.1835 85.6057 58.3447 79.4986 58.3447C73.3915 58.3447 67.6819 56.0973 63.8523 52.5283C63.4636 52.725 63.0978 52.959 62.7535 53.2213C66.5654 57.4293 72.6459 62.3585 79.4986 62.3585C86.3514 62.3585 92.1625 57.5488 95.9896 53.499V53.4964Z" fill="#D8402B"/>
<path d="M95.9896 53.4964C95.6581 53.2084 95.3025 52.9526 94.9227 52.7302C91.0994 56.1835 85.6057 58.3447 79.4986 58.3447C73.3915 58.3447 67.6819 56.0973 63.8523 52.5283C63.4636 52.725 63.0978 52.959 62.7535 53.2213C66.5654 57.4293 72.6459 62.3585 79.4986 62.3585C86.3514 62.3585 92.1625 57.5488 95.9896 53.499V53.4964Z" fill="#D8402B"/>
<path d="M75.1232 78.2711L66.8364 61.5035L61.8928 64.1931L71.2098 80.5275C71.2085 80.5442 71.2085 80.5609 71.2085 80.5776H77.3067C76.8075 79.5298 76.006 78.7083 75.1232 78.2711Z" fill="#D8402B"/>
<path d="M75.1232 78.2711L66.8364 61.5035L61.8928 64.1931L71.2098 80.5275C71.2085 80.5442 71.2085 80.5609 71.2085 80.5776H77.3067C76.8075 79.5298 76.006 78.7083 75.1232 78.2711Z" fill="#D8402B"/>
<path d="M96.5145 64.1931L91.5709 61.5035L83.2841 78.2711C82.4038 78.7108 81.5998 79.5298 81.1006 80.5776H87.1988C87.1988 80.5609 87.1988 80.5442 87.1976 80.5275L96.5145 64.1931Z" fill="#D8402B"/>
<path d="M96.5145 64.1931L91.5709 61.5035L83.2841 78.2711C82.4038 78.7108 81.5998 79.5298 81.1006 80.5776H87.1988C87.1988 80.5609 87.1988 80.5442 87.1976 80.5275L96.5145 64.1931Z" fill="#D8402B"/>
<path d="M78.9186 79.453C78.4626 78.1416 77.5392 77.1067 76.5065 76.5937L66.8339 59.8286L61.8928 64.1935L72.5968 78.8474C72.5384 79.4671 72.6197 80.1473 72.8597 80.8415C73.6003 82.9603 75.5577 84.3707 77.2292 83.9862C78.9021 83.6018 79.6591 81.5718 78.9186 79.4504V79.453Z" fill="#FFDBAC"/>
<path d="M78.9186 79.453C78.4626 78.1416 77.5392 77.1067 76.5065 76.5937L66.8339 59.8286L61.8928 64.1935L72.5968 78.8474C72.5384 79.4671 72.6197 80.1473 72.8597 80.8415C73.6003 82.9603 75.5577 84.3707 77.2292 83.9862C78.9021 83.6018 79.6591 81.5718 78.9186 79.4504V79.453Z" fill="#FFDBAC"/>
<path d="M79.4887 79.4529C79.946 78.1415 80.8682 77.1066 81.9008 76.5936L91.5734 59.8286L96.5145 64.1934L85.8118 78.8474C85.8689 79.467 85.7889 80.1472 85.5476 80.8414C84.8071 82.9602 82.8497 84.3706 81.1781 83.9861C79.5052 83.6017 78.7482 81.5717 79.4887 79.4503V79.4529Z" fill="#FFDBAC"/>
<path d="M79.4887 79.4529C79.946 78.1415 80.8682 77.1066 81.9008 76.5936L91.5734 59.8286L96.5145 64.1934L85.8118 78.8474C85.8689 79.467 85.7889 80.1472 85.5476 80.8414C84.8071 82.9602 82.8497 84.3706 81.1781 83.9861C79.5052 83.6017 78.7482 81.5717 79.4887 79.4503V79.4529Z" fill="#FFDBAC"/>
<mask id="mask4_195_2008" style="mask-type:luminance" maskUnits="userSpaceOnUse" x="82" y="113" width="12" height="2">
<path d="M82.2932 113.17H93.9994V114.999H82.2932V113.17Z" fill="white"/>
</mask>
<g mask="url(#mask4_195_2008)">
<path d="M82.4217 113.38L82.4052 113.642C82.3595 114.353 82.9184 114.954 83.6195 114.954H92.5935C93.24 114.954 93.771 114.443 93.8065 113.791L93.8294 113.383H82.4204L82.4217 113.38Z" fill="#353535"/>
</g>
<mask id="mask5_195_2008" style="mask-type:luminance" maskUnits="userSpaceOnUse" x="82" y="113" width="12" height="2">
<path d="M82.2932 113.17H93.9994V114.999H82.2932V113.17Z" fill="white"/>
</mask>
<g mask="url(#mask5_195_2008)">
<path d="M82.4217 113.38L82.4052 113.642C82.3595 114.353 82.9184 114.954 83.6195 114.954H92.5935C93.24 114.954 93.771 114.443 93.8065 113.791L93.8294 113.383H82.4204L82.4217 113.38Z" fill="#353535"/>
</g>
<mask id="mask6_195_2008" style="mask-type:luminance" maskUnits="userSpaceOnUse" x="64" y="113" width="13" height="2">
<path d="M64.4095 113.17H76.1157V114.999H64.4095V113.17Z" fill="white"/>
</mask>
<g mask="url(#mask6_195_2008)">
<path d="M75.9855 113.38H64.5753L64.5981 113.79C64.6362 114.443 65.1672 114.951 65.8124 114.951H74.7864C75.4888 114.951 76.0452 114.351 75.9995 113.641L75.9829 113.377L75.9855 113.38Z" fill="#353535"/>
</g>
<mask id="mask7_195_2008" style="mask-type:luminance" maskUnits="userSpaceOnUse" x="64" y="113" width="13" height="2">
<path d="M64.4095 113.17H76.1157V114.999H64.4095V113.17Z" fill="white"/>
</mask>
<g mask="url(#mask7_195_2008)">
<path d="M75.9855 113.38H64.5753L64.5981 113.79C64.6362 114.443 65.1672 114.951 65.8124 114.951H74.7864C75.4888 114.951 76.0452 114.351 75.9995 113.641L75.9829 113.377L75.9855 113.38Z" fill="#353535"/>
</g>
<mask id="mask8_195_2008" style="mask-type:luminance" maskUnits="userSpaceOnUse" x="56" y="28" width="47" height="8">
<path d="M56.7128 28.5841H102.976V35.4212H56.7128V28.5841Z" fill="white"/>
</mask>
<g mask="url(#mask8_195_2008)">
<path d="M57.3466 28.6538L56.7509 31.247C56.7267 31.3331 56.7128 31.4257 56.7128 31.5208C56.7128 31.5375 56.714 31.5542 56.714 31.5709C56.714 31.5877 56.7128 31.6044 56.7128 31.6211C56.7128 32.9749 59.5186 34.0098 64.0545 34.5871C68.1039 35.1014 73.6878 35.4215 79.8482 35.4215C86.0087 35.4215 91.5938 35.1014 95.6432 34.5871C99.9174 34.0433 102.655 33.0932 102.957 31.8525C103.01 31.6301 102.947 31.2521 102.895 31.0245L102.351 28.6538C101.238 29.4895 99.0194 30.1773 96.0217 30.6646C91.8796 31.337 86.1611 31.7522 79.8482 31.7522C73.5366 31.7522 67.8181 31.337 63.6747 30.6646C60.6771 30.1773 58.458 29.4895 57.3466 28.6538Z" fill="#00BFA5"/>
</g>
<mask id="mask9_195_2008" style="mask-type:luminance" maskUnits="userSpaceOnUse" x="56" y="28" width="47" height="8">
<path d="M56.7128 28.5841H102.976V35.4212H56.7128V28.5841Z" fill="white"/>
</mask>
<g mask="url(#mask9_195_2008)">
<path d="M57.3466 28.6538L56.7509 31.247C56.7267 31.3331 56.7128 31.4257 56.7128 31.5208C56.7128 31.5375 56.714 31.5542 56.714 31.5709C56.714 31.5877 56.7128 31.6044 56.7128 31.6211C56.7128 32.9749 59.5186 34.0098 64.0545 34.5871C68.1039 35.1014 73.6878 35.4215 79.8482 35.4215C86.0087 35.4215 91.5938 35.1014 95.6432 34.5871C99.9174 34.0433 102.655 33.0932 102.957 31.8525C103.01 31.6301 102.947 31.2521 102.895 31.0245L102.351 28.6538C101.238 29.4895 99.0194 30.1773 96.0217 30.6646C91.8796 31.337 86.1611 31.7522 79.8482 31.7522C73.5366 31.7522 67.8181 31.337 63.6747 30.6646C60.6771 30.1773 58.458 29.4895 57.3466 28.6538Z" fill="#00BFA5"/>
</g>
<path d="M98.0188 12.9243C97.6238 12.5656 97.0166 12.6004 96.6635 13.0002C96.3104 13.4013 96.5466 13.985 96.943 14.3424C99.115 16.3095 57.6772 18.8962 63.0387 13.0002C62.6856 12.5978 62.0759 12.5618 61.6796 12.9205C61.3659 13.2046 61.1055 13.553 60.8984 13.9413C60.6901 14.3309 60.5364 14.7603 60.4348 15.2025L57.6111 27.5038C57.888 28.1003 60.2011 28.7508 63.8008 29.3345C67.9036 30.0018 73.5776 30.4132 79.8486 30.4132C86.1208 30.4132 91.7936 30.0018 95.8976 29.3345C99.4961 28.7508 101.809 28.1003 102.087 27.5038L99.2636 15.2025C99.162 14.7603 99.007 14.3309 98.8 13.9413C98.5955 13.5582 98.3351 13.211 98.0188 12.9243Z" fill="#00897B"/>
<path d="M98.0188 12.9243C97.6238 12.5656 97.0166 12.6004 96.6635 13.0002C96.3104 13.4013 96.5466 13.985 96.943 14.3424C99.115 16.3095 57.6772 18.8962 63.0387 13.0002C62.6856 12.5978 62.0759 12.5618 61.6796 12.9205C61.3659 13.2046 61.1055 13.553 60.8984 13.9413C60.6901 14.3309 60.5364 14.7603 60.4348 15.2025L57.6111 27.5038C57.888 28.1003 60.2011 28.7508 63.8008 29.3345C67.9036 30.0018 73.5776 30.4132 79.8486 30.4132C86.1208 30.4132 91.7936 30.0018 95.8976 29.3345C99.4961 28.7508 101.809 28.1003 102.087 27.5038L99.2636 15.2025C99.162 14.7603 99.007 14.3309 98.8 13.9413C98.5955 13.5582 98.3351 13.211 98.0188 12.9243Z" fill="#00897B"/>
<path fill-rule="evenodd" clip-rule="evenodd" d="M95.8971 29.3357C91.7931 30.003 86.1204 30.4144 79.8481 30.4144C73.5771 30.4144 67.9031 30.003 63.8004 29.3357C60.2082 28.7533 57.899 28.1041 57.6119 27.5088L57.3503 28.6582C58.4642 29.4913 60.6808 30.1791 63.6746 30.6651C67.818 31.3375 73.5365 31.7528 79.8481 31.7528C86.161 31.7528 91.8795 31.3375 96.0216 30.6651C98.9913 30.183 101.196 29.5029 102.318 28.6787L102.061 27.5512C101.69 28.1349 99.4041 28.7675 95.8971 29.3357Z" fill="#FFA000"/>
<path fill-rule="evenodd" clip-rule="evenodd" d="M95.8971 29.3357C91.7931 30.003 86.1204 30.4144 79.8481 30.4144C73.5771 30.4144 67.9031 30.003 63.8004 29.3357C60.2082 28.7533 57.899 28.1041 57.6119 27.5088L57.3503 28.6582C58.4642 29.4913 60.6808 30.1791 63.6746 30.6651C67.818 31.3375 73.5365 31.7528 79.8481 31.7528C86.161 31.7528 91.8795 31.3375 96.0216 30.6651C98.9913 30.183 101.196 29.5029 102.318 28.6787L102.061 27.5512C101.69 28.1349 99.4041 28.7675 95.8971 29.3357Z" fill="#FFA000"/>
<mask id="mask10_195_2008" style="mask-type:luminance" maskUnits="userSpaceOnUse" x="60" y="10" width="39" height="8">
<path d="M60.8323 10H98.5523V17.723H60.8323V10Z" fill="white"/>
</mask>
<g mask="url(#mask10_195_2008)">
<path d="M79.8484 10C84.7781 10 89.2632 10.3227 92.5301 10.8421C96.2442 11.4348 98.542 12.4672 98.542 13.8004C98.542 15.1336 96.2442 16.166 92.5301 16.7574C89.2632 17.2781 84.7781 17.5996 79.8484 17.5996C74.92 17.5996 70.435 17.2781 67.168 16.7574C63.4539 16.166 61.1561 15.1336 61.1561 13.8004C61.1561 12.4672 63.4539 11.4348 67.168 10.8421C70.435 10.3227 74.92 10 79.8484 10Z" fill="#00796B"/>
</g>
<mask id="mask11_195_2008" style="mask-type:luminance" maskUnits="userSpaceOnUse" x="60" y="10" width="39" height="8">
<path d="M60.8323 10H98.5523V17.723H60.8323V10Z" fill="white"/>
</mask>
<g mask="url(#mask11_195_2008)">
<path d="M79.8484 10C84.7781 10 89.2632 10.3227 92.5301 10.8421C96.2442 11.4348 98.542 12.4672 98.542 13.8004C98.542 15.1336 96.2442 16.166 92.5301 16.7574C89.2632 17.2781 84.7781 17.5996 79.8484 17.5996C74.92 17.5996 70.435 17.2781 67.168 16.7574C63.4539 16.166 61.1561 15.1336 61.1561 13.8004C61.1561 12.4672 63.4539 11.4348 67.168 10.8421C70.435 10.3227 74.92 10 79.8484 10Z" fill="#00796B"/>
</g>
<path d="M79.8487 12.1524C83.5704 12.1524 86.9555 12.2913 89.4222 12.5175C92.2268 12.7734 93.9607 13.2221 93.9607 13.8006C93.9607 14.3792 92.2268 14.8266 89.4222 15.0837C86.9555 15.3087 83.5704 15.4488 79.8487 15.4488C76.1283 15.4488 72.7419 15.3087 70.2752 15.0837C67.4719 14.8266 65.738 14.3792 65.738 13.8006C65.738 13.2221 67.4719 12.7734 70.2752 12.5175C72.7419 12.2913 76.1283 12.1524 79.8487 12.1524Z" fill="#00695C"/>
<path d="M79.8487 12.1524C83.5704 12.1524 86.9555 12.2913 89.4222 12.5175C92.2268 12.7734 93.9607 13.2221 93.9607 13.8006C93.9607 14.3792 92.2268 14.8266 89.4222 15.0837C86.9555 15.3087 83.5704 15.4488 79.8487 15.4488C76.1283 15.4488 72.7419 15.3087 70.2752 15.0837C67.4719 14.8266 65.738 14.3792 65.738 13.8006C65.738 13.2221 67.4719 12.7734 70.2752 12.5175C72.7419 12.2913 76.1283 12.1524 79.8487 12.1524Z" fill="#00695C"/>
</svg>
