<svg width="158" height="124" viewBox="0 0 158 124" fill="none" xmlns="http://www.w3.org/2000/svg">
<mask id="mask0_195_1696" style="mask-type:luminance" maskUnits="userSpaceOnUse" x="85" y="75" width="9" height="13">
<path d="M85.1219 75.1535H93.1189V88H85.1219V75.1535Z" fill="white"/>
</mask>
<g mask="url(#mask0_195_1696)">
<path fill-rule="evenodd" clip-rule="evenodd" d="M92.8037 75.3749H88.2058L85.5505 85.26L85.3482 87.7372H89.3675L89.3765 86.0018L92.8037 75.3749Z" fill="#F6B99C"/>
</g>
<mask id="mask1_195_1696" style="mask-type:luminance" maskUnits="userSpaceOnUse" x="94" y="75" width="8" height="13">
<path d="M94.271 75.1535H101.877V88H94.271V75.1535Z" fill="white"/>
</mask>
<g mask="url(#mask1_195_1696)">
<path fill-rule="evenodd" clip-rule="evenodd" d="M94.3671 75.3749H98.9651L101.619 85.26L101.823 87.7372H97.8033L97.7944 86.0018L94.3671 75.3749Z" fill="#F6B99C"/>
</g>
<path fill-rule="evenodd" clip-rule="evenodd" d="M92.4357 76.6376H87.8332L86.6789 80.6977L86.4349 81.8423C87.8005 82.1251 89.2092 82.2154 90.6819 82.0644L91.021 81.1745L92.4357 76.6376Z" fill="#F38B81"/>
<path fill-rule="evenodd" clip-rule="evenodd" d="M94.7389 76.6376H99.3369L100.494 80.6977L100.734 81.8423C99.3696 82.1251 97.9594 82.2154 96.4882 82.0644L96.1491 81.1745L94.7389 76.6376Z" fill="#F38B81"/>
<mask id="mask2_195_1696" style="mask-type:luminance" maskUnits="userSpaceOnUse" x="82" y="84" width="8" height="4">
<path d="M82.0753 84.6299H89.6915V87.9999H82.0753V84.6299Z" fill="white"/>
</mask>
<g mask="url(#mask2_195_1696)">
<path fill-rule="evenodd" clip-rule="evenodd" d="M89.4288 85.6917C89.4288 85.6917 87.6587 86.0989 87.0919 86.087C86.7037 86.0752 86.1042 84.9069 85.472 85.0135C84.6107 85.1572 83.5947 85.8324 82.7171 86.2721C82.3496 86.4528 82.1682 86.8807 82.3005 87.2716C82.4493 87.7084 82.8584 88.0001 83.3165 88.0001C85.1165 88.0001 89.4199 88.0001 89.4199 88.0001C89.4571 87.2479 89.4824 86.4898 89.4288 85.6917Z" fill="#B8483B"/>
</g>
<mask id="mask3_195_1696" style="mask-type:luminance" maskUnits="userSpaceOnUse" x="97" y="84" width="8" height="4">
<path d="M97.6893 84.6299H104.925V87.9999H97.6893V84.6299Z" fill="white"/>
</mask>
<g mask="url(#mask3_195_1696)">
<path fill-rule="evenodd" clip-rule="evenodd" d="M97.7411 85.6917C97.7411 85.6917 99.5113 86.0989 100.077 86.087C100.466 86.0752 101.066 84.9069 101.698 85.0135C102.558 85.1572 103.575 85.8324 104.451 86.2721C104.825 86.4528 105.002 86.8807 104.869 87.2716C104.721 87.7084 104.312 88.0001 103.852 88.0001C102.058 88.0001 97.7501 88.0001 97.7501 88.0001C97.7158 87.2479 97.6876 86.4898 97.7411 85.6917Z" fill="#B8483B"/>
</g>
<path fill-rule="evenodd" clip-rule="evenodd" d="M84.769 85.1038C84.769 85.1038 84.8523 85.203 84.9668 85.3259C85.0293 85.3955 85.0992 85.4739 85.1736 85.5435C85.3848 85.7538 85.6169 85.9433 85.6169 85.9433C85.6749 86.0011 85.7656 86.0011 85.8192 85.9433C85.8772 85.89 85.8772 85.7982 85.8192 85.7419C85.8192 85.7419 85.6288 85.5154 85.4176 85.3007C85.3432 85.2267 85.2688 85.1571 85.2034 85.0949C85.0754 84.9809 84.9758 84.898 84.9758 84.898C84.9177 84.8402 84.827 84.8402 84.769 84.898C84.711 84.9557 84.711 85.046 84.769 85.1038Z" fill="#E58175"/>
<path fill-rule="evenodd" clip-rule="evenodd" d="M102.401 85.1038C102.401 85.1038 102.318 85.203 102.202 85.3259C102.141 85.3955 102.069 85.4739 101.995 85.5435C101.785 85.7538 101.553 85.9433 101.553 85.9433C101.5 86.0011 101.404 86.0011 101.351 85.9433C101.293 85.89 101.293 85.7982 101.351 85.7419C101.351 85.7419 101.541 85.5154 101.751 85.3007C101.825 85.2267 101.9 85.1571 101.971 85.0949C102.095 84.9809 102.194 84.898 102.194 84.898C102.252 84.8402 102.343 84.8402 102.401 84.898C102.459 84.9557 102.459 85.046 102.401 85.1038Z" fill="#E58175"/>
<path fill-rule="evenodd" clip-rule="evenodd" d="M84.133 85.4208C84.133 85.4208 84.2163 85.52 84.3308 85.6429C84.3933 85.708 84.4632 85.7865 84.5376 85.8606C84.7533 86.0664 84.9809 86.2603 84.9809 86.2603C85.0389 86.3181 85.1297 86.3181 85.1877 86.2603C85.2457 86.2026 85.2457 86.1123 85.1877 86.059C85.1877 86.059 84.9928 85.828 84.786 85.6133C84.7117 85.5392 84.6328 85.4741 84.5674 85.4119C84.4394 85.2979 84.3442 85.215 84.3442 85.215C84.2862 85.1572 84.191 85.1572 84.133 85.215C84.075 85.2683 84.075 85.363 84.133 85.4208Z" fill="#E58175"/>
<path fill-rule="evenodd" clip-rule="evenodd" d="M103.037 85.4208C103.037 85.4208 102.954 85.52 102.838 85.6429C102.777 85.708 102.705 85.7865 102.631 85.8606C102.417 86.0664 102.189 86.2603 102.189 86.2603C102.131 86.3181 102.04 86.3181 101.982 86.2603C101.924 86.2026 101.924 86.1123 101.982 86.059C101.982 86.059 102.177 85.828 102.384 85.6133C102.458 85.5392 102.536 85.4741 102.603 85.4119C102.731 85.2979 102.826 85.215 102.826 85.215C102.884 85.1572 102.979 85.1572 103.037 85.215C103.095 85.2683 103.095 85.363 103.037 85.4208Z" fill="#E58175"/>
<path fill-rule="evenodd" clip-rule="evenodd" d="M95.1312 56.543H91.4793V60.0153H95.1312V56.543Z" fill="#F6B99C"/>
<path fill-rule="evenodd" clip-rule="evenodd" d="M95.1312 56.543H91.4793V57.8964C92.6797 58.4516 93.8906 58.539 95.1312 57.8964V56.543Z" fill="#F38B81"/>
<path fill-rule="evenodd" clip-rule="evenodd" d="M99.2046 70.0659L87.4203 70.0081C87.0514 73.6536 85.3735 80.4796 85.3735 80.4796C89.7275 82.0136 97.4597 82.1543 101.64 80.4796C101.64 80.4796 99.8502 73.7276 99.2046 70.0659Z" fill="#FFDCD3"/>
<path fill-rule="evenodd" clip-rule="evenodd" d="M106.346 68.5765C106.4 68.6179 107.131 69.2561 107.218 69.3553C107.529 69.7166 107.652 70.9796 107.747 71.1943C107.859 71.4372 108.156 71.4372 108.223 71.2136C108.33 70.8568 108.219 70.3711 108.426 70.3918C108.735 70.4199 109.137 70.6184 109.889 71.0463C110.315 71.2891 110.642 70.9263 110.496 70.6465C110.84 70.6583 111.114 70.2882 110.877 69.992C111.316 69.8158 111.105 69.268 110.819 69.2147C110.819 69.2147 111.225 69.1288 111.014 68.7127C110.7 68.0834 109 67.5444 109 67.5444C107.776 66.5568 102.371 62.0067 102.371 62.0067L100.564 64.623C100.564 64.623 104.994 67.5533 106.346 68.5765Z" fill="#F6B99C"/>
<path fill-rule="evenodd" clip-rule="evenodd" d="M110.459 70.6881C110.356 70.6097 110.252 70.5401 110.145 70.4779C110.075 70.4335 110.005 70.392 109.931 70.3505C109.875 70.318 109.822 70.2883 109.764 70.2602C109.636 70.1906 109.504 70.1284 109.367 70.0751C109.343 70.0662 109.33 70.0425 109.338 70.0174C109.347 69.9966 109.371 69.9848 109.396 69.9922C109.536 70.0337 109.682 70.0825 109.822 70.1447C109.88 70.1699 109.942 70.198 110 70.2276C110.075 70.2676 110.149 70.3135 110.219 70.3624C110.326 70.4364 110.426 70.5149 110.53 70.6008C110.554 70.6215 110.558 70.6556 110.537 70.6792C110.517 70.7044 110.484 70.7044 110.459 70.6881Z" fill="#F38B81"/>
<path fill-rule="evenodd" clip-rule="evenodd" d="M110.819 70.0334C110.716 69.955 110.612 69.8898 110.51 69.8232C110.435 69.7788 110.364 69.7373 110.29 69.6958C110.236 69.6677 110.182 69.6351 110.129 69.6055C109.996 69.5359 109.864 69.4737 109.727 69.4204C109.706 69.4115 109.69 69.3879 109.703 69.3627C109.706 69.342 109.732 69.3301 109.757 69.3375C109.901 69.379 110.043 69.4293 110.182 69.49C110.245 69.5152 110.303 69.5433 110.361 69.5729C110.435 69.6144 110.51 69.6588 110.58 69.7092C110.687 69.7832 110.786 69.8602 110.889 69.9476C110.914 69.9683 110.919 70.0009 110.898 70.0246C110.877 70.0497 110.844 70.0497 110.819 70.0334Z" fill="#F38B81"/>
<path fill-rule="evenodd" clip-rule="evenodd" d="M110.777 69.2397C110.675 69.1612 110.57 69.096 110.463 69.0294C110.393 68.985 110.323 68.9435 110.249 68.9021C110.194 68.8725 110.141 68.8399 110.087 68.8118C109.955 68.7422 109.822 68.68 109.687 68.6267C109.662 68.6178 109.648 68.5941 109.657 68.5689C109.666 68.5482 109.69 68.5363 109.715 68.5438C109.859 68.5852 110.001 68.6341 110.141 68.6963C110.199 68.7214 110.261 68.7496 110.319 68.7792C110.393 68.8192 110.468 68.8651 110.538 68.9139C110.645 68.988 110.744 69.0664 110.849 69.1523C110.872 69.173 110.877 69.2071 110.856 69.2308C110.835 69.256 110.802 69.2604 110.777 69.2397Z" fill="#F38B81"/>
<path fill-rule="evenodd" clip-rule="evenodd" d="M80.4983 68.7375C80.4432 68.7746 79.7114 69.4113 79.6251 69.5105C79.3157 69.8732 79.1907 71.1363 79.0955 71.3495C78.9884 71.5923 78.6865 71.5923 78.621 71.3747C78.5124 71.0163 78.624 70.5262 78.4142 70.5469C78.1078 70.5766 77.7062 70.7735 76.9535 71.2014C76.528 71.4487 76.2008 71.0859 76.351 70.8031C76.0029 70.8194 75.7307 70.4448 75.9658 70.1486C75.524 69.9754 75.7382 69.4246 76.0238 69.3742C76.0238 69.3742 75.6192 69.2839 75.8289 68.8693C76.1443 68.24 77.843 67.704 77.843 67.704C79.0673 66.7134 84.4715 62.1633 84.4715 62.1633L86.2789 64.7797C86.2789 64.7797 81.8505 67.7129 80.4983 68.7375Z" fill="#F6B99C"/>
<path fill-rule="evenodd" clip-rule="evenodd" d="M76.3839 70.8432C76.4865 70.7691 76.5907 70.6996 76.6978 70.6344C76.7677 70.5885 76.8391 70.547 76.9135 70.5071C76.967 70.4774 77.025 70.4449 77.0786 70.4153C77.211 70.3457 77.3434 70.285 77.4757 70.2302C77.4995 70.2228 77.5129 70.1976 77.504 70.1769C77.4966 70.1532 77.4713 70.1399 77.446 70.1487C77.3062 70.1902 77.1604 70.2391 77.0206 70.3012C76.9625 70.3249 76.9001 70.3546 76.8421 70.3871C76.7677 70.4286 76.6933 70.473 76.6234 70.5233C76.5163 70.5929 76.4166 70.6714 76.314 70.7573C76.2932 70.778 76.2887 70.815 76.3051 70.8358C76.3259 70.8609 76.3586 70.8639 76.3839 70.8432Z" fill="#F38B81"/>
<path fill-rule="evenodd" clip-rule="evenodd" d="M76.0236 70.1906C76.1263 70.1122 76.2304 70.0455 76.333 69.9804C76.4074 69.9345 76.4788 69.8945 76.5532 69.853C76.6068 69.8234 76.6603 69.7908 76.7139 69.7627C76.8462 69.6916 76.9786 69.6309 77.1155 69.5776C77.1393 69.5687 77.1527 69.5436 77.1438 69.5199C77.1363 69.4992 77.111 69.4858 77.0857 69.4947C76.9459 69.5362 76.8016 69.585 76.6603 69.6472C76.6023 69.6724 76.5398 69.7005 76.4833 69.7331C76.4074 69.7746 76.333 69.8205 76.2631 69.8693C76.156 69.9389 76.0519 70.0218 75.9537 70.1077C75.9284 70.124 75.924 70.161 75.9448 70.1818C75.9656 70.2069 75.9984 70.2114 76.0236 70.1906Z" fill="#F38B81"/>
<path fill-rule="evenodd" clip-rule="evenodd" d="M76.0659 69.3954C76.1685 69.3213 76.2727 69.2517 76.3798 69.1866C76.4497 69.1451 76.5211 69.0992 76.5955 69.0622C76.649 69.0296 76.7026 68.9971 76.7606 68.9719C76.893 68.8979 77.0254 68.8357 77.1577 68.7824C77.1815 68.775 77.1949 68.7498 77.186 68.7291C77.1771 68.7054 77.1533 68.692 77.128 68.7009C76.9837 68.7424 76.8424 68.7912 76.7026 68.8534C76.6445 68.8816 76.5821 68.9067 76.5241 68.9393C76.4497 68.9808 76.3753 69.0252 76.3054 69.0755C76.1983 69.1451 76.0986 69.2266 75.996 69.3139C75.9752 69.3302 75.9707 69.3672 75.9871 69.388C76.0079 69.4117 76.0406 69.4161 76.0659 69.3954Z" fill="#F38B81"/>
<path fill-rule="evenodd" clip-rule="evenodd" d="M86.9072 71.6388C91.166 72.0416 95.4754 72.1437 99.8711 71.6388L99.8413 64.6855L101.147 65.6642L103.682 61.9788C103.682 61.9788 99.1422 58.0609 97.1533 58.0742C96.4631 58.0535 95.0946 58.0949 95.0946 58.0949C95.0946 58.0949 95.0276 59.5134 93.4568 59.5134C91.5676 59.5134 91.4799 58.0949 91.4799 58.0949C91.4799 58.0949 90.5412 58.0327 89.5252 58.0949C86.8908 58.2504 82.9711 62.4393 82.9711 62.4393L85.7945 65.7516L86.9443 64.8173L86.9072 71.6388Z" fill="#DB6C8B"/>
<path fill-rule="evenodd" clip-rule="evenodd" d="M93.3236 63.5328C93.8249 62.7673 94.8245 62.7673 95.3259 63.1508C95.8257 63.5328 95.8257 64.2983 95.3259 65.0638C94.9733 65.6354 94.0763 66.2114 93.3236 66.5934C92.5754 66.2114 91.6739 65.6354 91.3273 65.0638C90.826 64.2983 90.826 63.5328 91.3273 63.1508C91.8272 62.7673 92.8283 62.7673 93.3236 63.5328Z" fill="#C15170"/>
<path fill-rule="evenodd" clip-rule="evenodd" d="M86.8578 64.1166C86.8578 64.1166 86.8533 64.1906 86.8489 64.2943C86.8444 64.3476 86.8414 64.4053 86.8414 64.4675C86.8414 64.5045 86.8444 64.5371 86.8444 64.5741C86.8533 64.7059 86.8652 64.817 86.8652 64.817C86.8652 64.8614 86.9024 64.8955 86.9485 64.8955C86.9902 64.8955 87.0274 64.8584 87.0229 64.817C87.0229 64.817 87.0319 64.7015 87.0348 64.5697C87.0348 64.5371 87.0393 64.5001 87.0348 64.4675C87.0348 64.4053 87.0319 64.3432 87.0274 64.2898C87.0185 64.1906 87.011 64.1166 87.011 64.1166C87.011 64.0766 86.9768 64.0396 86.9322 64.0396C86.8905 64.0426 86.8578 64.0766 86.8578 64.1166Z" fill="#945164"/>
<path fill-rule="evenodd" clip-rule="evenodd" d="M99.92 64.6852C99.92 64.6852 99.9244 64.6231 99.9319 64.5416C99.9319 64.5002 99.9363 64.4513 99.9363 64.4009C99.9363 64.3728 99.9363 64.3432 99.9319 64.3151C99.9274 64.204 99.9155 64.1167 99.9155 64.1167C99.9155 64.0722 99.8783 64.0352 99.8366 64.0352C99.792 64.0397 99.7548 64.0722 99.7548 64.1167C99.7548 64.1167 99.7459 64.2085 99.7414 64.3195C99.7414 64.3432 99.7414 64.3728 99.7414 64.4009C99.7414 64.4513 99.7459 64.5002 99.7504 64.5446C99.7578 64.6275 99.7667 64.6852 99.7667 64.6852C99.7667 64.7267 99.7995 64.7637 99.8456 64.7637C99.8872 64.7593 99.92 64.7267 99.92 64.6852Z" fill="#945164"/>
<path fill-rule="evenodd" clip-rule="evenodd" d="M103.128 36.1696C105.294 36.1696 107.052 37.9213 107.052 40.0742C107.052 42.2301 105.294 43.9773 103.128 43.9773C100.961 43.9773 99.2041 42.2301 99.2041 40.0742C99.2041 37.9213 100.961 36.1696 103.128 36.1696Z" fill="#993E47"/>
<path fill-rule="evenodd" clip-rule="evenodd" d="M99.3988 38.5804C99.3988 38.5804 101.176 37.8844 102.835 40.1721C104.431 42.3739 103.228 44.4054 103.228 44.4054L99.3988 38.5804Z" fill="#FFD7CA"/>
<path fill-rule="evenodd" clip-rule="evenodd" d="M82.8669 36.1696C85.0342 36.1696 86.791 37.9213 86.791 40.0742C86.791 42.2301 85.0342 43.9773 82.8669 43.9773C80.7055 43.9773 78.9472 42.2301 78.9472 40.0742C78.9472 37.9213 80.7055 36.1696 82.8669 36.1696Z" fill="#993E47"/>
<path fill-rule="evenodd" clip-rule="evenodd" d="M86.8324 38.5804C86.8324 38.5804 85.092 37.8844 83.3144 40.1721C81.6023 42.3739 82.7015 44.4054 82.7015 44.4054L86.8324 38.5804Z" fill="#FFD7CA"/>
<path fill-rule="evenodd" clip-rule="evenodd" d="M93.1543 37.1025C83.1268 37.0862 81.0235 44.9783 82.694 50.3873C83.9375 54.4118 89.135 53.4938 89.135 53.4938L97.5664 53.6878C97.5664 53.6878 102.252 54.1601 103.421 50.1948C105.034 44.7148 103 37.1203 93.1543 37.1025Z" fill="#993E47"/>
<path fill-rule="evenodd" clip-rule="evenodd" d="M101.495 43.1558C99.6598 39.3904 96.0793 37.6714 93.189 37.6714C90.2972 37.6714 85.9729 39.2054 84.5137 43.2343C83.1079 47.1137 84.5256 48.7218 84.5508 50.4083C84.6163 54.5675 87.581 57.674 93.4285 57.6503C98.803 57.6296 101.661 54.4609 101.777 50.4912C101.826 48.6596 103.092 46.4341 101.495 43.1558Z" fill="#F6B99C"/>
<path fill-rule="evenodd" clip-rule="evenodd" d="M87.163 51.055C87.163 51.055 87.0812 51.0668 86.9696 51.092C86.9279 51.0994 86.8863 51.1113 86.8446 51.129C86.8 51.1409 86.7628 51.166 86.7256 51.1823C86.626 51.2401 86.5605 51.2934 86.5605 51.2934C86.5099 51.3097 86.4861 51.3719 86.507 51.4207C86.5263 51.474 86.5843 51.4992 86.6349 51.4785C86.6349 51.4785 86.7212 51.4651 86.8283 51.4414C86.8699 51.4281 86.9116 51.4163 86.9532 51.4C86.9949 51.3837 87.0321 51.3585 87.0693 51.3378C87.1674 51.28 87.2344 51.2312 87.2344 51.2312C87.2835 51.2105 87.3087 51.1572 87.2879 51.1083C87.2671 51.0579 87.2135 51.0343 87.163 51.055Z" fill="#F38B81"/>
<path fill-rule="evenodd" clip-rule="evenodd" d="M99.5758 51.055C99.5758 51.055 99.6636 51.0668 99.7751 51.092C99.8123 51.0994 99.857 51.1113 99.8986 51.129C99.9403 51.1409 99.9819 51.166 100.015 51.1823C100.114 51.2401 100.184 51.2934 100.184 51.2934C100.233 51.3097 100.259 51.3719 100.238 51.4207C100.217 51.474 100.159 51.4992 100.105 51.4785C100.105 51.4785 100.022 51.4651 99.9105 51.4414C99.8703 51.4281 99.8287 51.4163 99.787 51.4C99.7454 51.3837 99.7082 51.3585 99.671 51.3378C99.5758 51.28 99.5059 51.2312 99.5059 51.2312C99.4568 51.2105 99.436 51.1572 99.4523 51.1083C99.4732 51.0579 99.5312 51.0343 99.5758 51.055Z" fill="#F38B81"/>
<path fill-rule="evenodd" clip-rule="evenodd" d="M87.3453 51.4623C87.3453 51.4623 87.2664 51.5023 87.1712 51.569C87.1385 51.5941 87.1058 51.6134 87.0686 51.6474C87.0344 51.6756 87.0106 51.7081 86.9808 51.7422C86.9109 51.8281 86.8648 51.9021 86.8648 51.9021C86.8276 51.9391 86.8246 52.0043 86.8648 52.0413C86.902 52.0828 86.9644 52.0872 87.0061 52.0457C87.0061 52.0457 87.0805 52.0087 87.1712 51.9436C87.2084 51.9184 87.2411 51.8932 87.2753 51.8607C87.3036 51.8281 87.3319 51.7955 87.3572 51.7614C87.4271 51.6711 87.4732 51.6015 87.4732 51.6015C87.5104 51.5645 87.5148 51.5068 87.4776 51.4653C87.4405 51.4283 87.3824 51.4283 87.3453 51.4623Z" fill="#F38B81"/>
<path fill-rule="evenodd" clip-rule="evenodd" d="M99.3994 51.4623C99.3994 51.4623 99.4738 51.5023 99.569 51.569C99.6017 51.5941 99.6389 51.6134 99.6716 51.6474C99.7044 51.6756 99.7341 51.7081 99.7579 51.7422C99.8323 51.8281 99.8739 51.9021 99.8739 51.9021C99.9156 51.9391 99.9156 52.0043 99.8784 52.0413C99.8412 52.0828 99.7787 52.0872 99.7386 52.0457C99.7386 52.0457 99.6642 52.0087 99.569 51.9436C99.5348 51.9184 99.502 51.8932 99.4693 51.8607C99.4366 51.8281 99.4068 51.7955 99.3816 51.7614C99.3116 51.6711 99.27 51.6015 99.27 51.6015C99.2298 51.5645 99.2298 51.5068 99.267 51.4653C99.3042 51.4283 99.3622 51.4283 99.3994 51.4623Z" fill="#F38B81"/>
<path fill-rule="evenodd" clip-rule="evenodd" d="M84.8018 50.6598C85.7776 50.4702 85.6794 47.9812 84.839 46.4265C86.7371 45.5203 88.0401 44.1092 88.1591 41.6868C92.3733 45.0805 95.1937 44.6896 101.428 45.9985C100.884 47.7384 101.086 49.0547 101.586 50.5443L102.991 50.6968L103.5 46.9284L101.755 41.8881C101.755 41.8881 100.208 39.2673 97.6824 38.3463C96.1443 37.7866 93.8163 37.1943 92.1577 37.449C89.1692 37.9051 85.7776 39.8226 85.7776 39.8226L82.5779 45.1057L84.2157 50.8523L84.8018 50.6598Z" fill="#993E47"/>
<path fill-rule="evenodd" clip-rule="evenodd" d="M101.38 50.4657C101.38 50.4657 103.914 49.6676 104.555 51.5688C104.915 52.6305 103.889 54.7079 101.57 54.7286C100.362 54.736 99.9248 53.6625 99.9248 53.6625L101.38 50.4657Z" fill="#F6B99C"/>
<path fill-rule="evenodd" clip-rule="evenodd" d="M85.0175 50.4657C85.0175 50.4657 82.4782 49.6676 81.8371 51.5688C81.4771 52.6305 82.5035 54.7079 84.8226 54.7286C86.0305 54.736 86.4678 53.6625 86.4678 53.6625L85.0175 50.4657Z" fill="#F6B99C"/>
<path fill-rule="evenodd" clip-rule="evenodd" d="M102.641 52.1868C102.513 52.668 102.364 52.9138 102.215 53.0249C102.099 53.1078 101.988 53.0796 101.916 53.0249C101.876 52.9967 101.846 52.9686 101.839 52.9434C101.805 52.8028 101.83 52.6636 101.888 52.5318C101.979 52.3423 102.148 52.1735 102.371 52.0624C102.682 51.9099 103.096 51.861 103.554 52.0136C103.605 52.0298 103.658 52.0047 103.674 51.9558C103.695 51.9069 103.67 51.8536 103.621 51.8359C102.975 51.5812 102.392 51.7011 102.011 51.9676C101.842 52.092 101.714 52.2475 101.635 52.4119C101.544 52.6058 101.523 52.8116 101.579 53.013C101.59 53.0589 101.632 53.1241 101.698 53.1863C101.839 53.3136 102.104 53.4246 102.364 53.2144C102.529 53.0796 102.703 52.7909 102.818 52.2238C102.827 52.1779 102.798 52.129 102.748 52.1157C102.703 52.1083 102.653 52.1364 102.641 52.1868Z" fill="#F38B81"/>
<path fill-rule="evenodd" clip-rule="evenodd" d="M83.5773 52.2238C83.6904 52.7909 83.8629 53.0796 84.028 53.2144C84.2899 53.4246 84.5532 53.3136 84.6989 53.1863C84.7644 53.1241 84.8016 53.0589 84.815 53.013C84.8685 52.8116 84.8477 52.6058 84.7569 52.4119C84.6826 52.2475 84.5502 52.092 84.3806 51.9676C83.9998 51.7011 83.4167 51.5812 82.7755 51.8359C82.7265 51.8536 82.7012 51.9069 82.7175 51.9558C82.7339 52.0047 82.7889 52.0298 82.8425 52.0136C83.2962 51.861 83.7097 51.9099 84.0206 52.0624C84.2482 52.1735 84.4133 52.3423 84.5041 52.5318C84.5665 52.6636 84.5874 52.8028 84.5532 52.9434C84.5502 52.9686 84.516 52.9967 84.4758 53.0249C84.4044 53.0796 84.2928 53.1078 84.1783 53.0249C84.028 52.9138 83.8793 52.668 83.7514 52.1868C83.7395 52.1364 83.6934 52.1083 83.6443 52.1157C83.5952 52.129 83.5654 52.1779 83.5773 52.2238Z" fill="#F38B81"/>
<path fill-rule="evenodd" clip-rule="evenodd" d="M92.836 52.1037C92.9193 52.0593 93.0219 52.0504 93.1305 52.046C93.1588 52.046 93.1886 52.0504 93.2213 52.0504C93.2495 52.0504 93.2793 52.0504 93.3076 52.0504C93.3983 52.0593 93.489 52.0667 93.5723 52.1082C93.6185 52.1407 93.6794 52.1333 93.7137 52.0874C93.7464 52.0386 93.733 51.9764 93.6884 51.9438C93.6095 51.8698 93.5143 51.8165 93.4147 51.7794C93.3447 51.7587 93.2748 51.7454 93.2049 51.7454C93.1305 51.7454 93.0636 51.7617 92.9937 51.7824C92.8896 51.8194 92.7988 51.8727 92.7244 51.9468C92.6798 51.9764 92.6709 52.0386 92.6992 52.083C92.7289 52.1244 92.7914 52.1363 92.836 52.1037Z" fill="#F38B81"/>
<path fill-rule="evenodd" clip-rule="evenodd" d="M91.4143 53.725C91.7073 53.9634 92.0598 54.1396 92.4392 54.2477C92.6876 54.3129 92.9449 54.3543 93.2053 54.3543C93.4611 54.3543 93.7214 54.3217 93.9698 54.2551C94.3417 54.1574 94.6928 53.9797 94.9948 53.7295C95.0409 53.6954 95.0483 53.6347 95.0156 53.5888C94.9784 53.5473 94.9159 53.5399 94.8713 53.5725C94.5812 53.7828 94.251 53.9146 93.9029 53.9886C93.6768 54.0374 93.4403 54.0582 93.2053 54.0582C92.9687 54.0582 92.7337 54.0374 92.5061 53.9886C92.1506 53.9101 91.8159 53.7739 91.5303 53.577C91.4886 53.5444 91.4306 53.5518 91.3979 53.5932C91.3652 53.6347 91.3726 53.6954 91.4143 53.725Z" fill="#D75E51"/>
<path fill-rule="evenodd" clip-rule="evenodd" d="M89.9386 45.0318C89.3883 44.6942 88.7308 44.5905 88.106 44.7267C87.511 44.8585 86.9561 45.2213 86.5441 45.7928C86.4281 45.9572 86.4727 46.1882 86.6378 46.2992C86.8044 46.4132 87.035 46.3733 87.1465 46.2045C87.4366 45.7632 87.8382 45.4804 88.2711 45.3486C88.7471 45.2035 89.2603 45.2242 89.7111 45.4434C89.8226 45.5041 89.9669 45.4626 90.0294 45.3486C90.0919 45.2376 90.0502 45.0969 89.9386 45.0318Z" fill="#993E47"/>
<path fill-rule="evenodd" clip-rule="evenodd" d="M96.7764 45.4434C97.2226 45.2242 97.7403 45.2035 98.2163 45.3486C98.6492 45.4804 99.0508 45.7632 99.3364 46.2045C99.4525 46.3733 99.6801 46.4132 99.8452 46.2992C100.015 46.1882 100.056 45.9572 99.9448 45.7928C99.5268 45.2213 98.972 44.8585 98.3814 44.7267C97.7522 44.5905 97.0947 44.6942 96.5488 45.0318C96.4342 45.0969 96.3926 45.2376 96.4536 45.3486C96.5205 45.4626 96.6604 45.5041 96.7764 45.4434Z" fill="#993E47"/>
<path fill-rule="evenodd" clip-rule="evenodd" d="M90.8101 48.583C90.1482 48.1388 89.339 48.0929 88.6443 48.3312C87.8618 48.6037 87.2341 49.233 87.0601 50.034C87.0348 50.1629 87.1091 50.2902 87.2296 50.3139C87.3501 50.3435 87.4647 50.2606 87.49 50.1332C87.6104 49.4625 88.1222 48.9443 88.7559 48.6851C89.3672 48.4379 90.0872 48.426 90.703 48.7843C90.7521 48.8125 90.8191 48.7962 90.8473 48.7384C90.8771 48.6851 90.8607 48.6111 90.8101 48.583Z" fill="#A4463B"/>
<path fill-rule="evenodd" clip-rule="evenodd" d="M95.7845 48.7843C96.3973 48.426 97.1158 48.4379 97.7287 48.6851C98.3609 48.9443 98.8771 49.4625 98.9976 50.1332C99.0228 50.2606 99.1374 50.3435 99.2579 50.3139C99.3739 50.2902 99.4527 50.1629 99.423 50.034C99.2504 49.233 98.6212 48.6037 97.8432 48.3312C97.1456 48.0929 96.3393 48.1388 95.6774 48.583C95.6238 48.6111 95.6075 48.6851 95.6357 48.7384C95.6655 48.7962 95.7309 48.8125 95.7845 48.7843Z" fill="#A4463B"/>
<path fill-rule="evenodd" clip-rule="evenodd" d="M98.4142 49.05C98.5213 49.1285 98.6254 49.1951 98.7325 49.2439C98.856 49.3017 98.981 49.3387 99.1178 49.3461C99.1922 49.3506 99.274 49.3432 99.3573 49.3269C99.5016 49.2928 99.6593 49.2232 99.8318 49.1122C99.8824 49.084 99.9032 49.0218 99.8735 48.9685C99.8497 48.9182 99.7827 48.8989 99.7337 48.9271C99.5016 49.0218 99.3157 49.0381 99.1461 49.013C99.0509 49.0011 98.9646 48.973 98.8768 48.9315C98.7906 48.8901 98.7043 48.8412 98.6121 48.779C98.5377 48.7213 98.4306 48.742 98.377 48.816C98.3235 48.8901 98.3398 48.9967 98.4142 49.05Z" fill="#A4463B"/>
<path fill-rule="evenodd" clip-rule="evenodd" d="M87.8241 48.779C87.7378 48.8412 87.647 48.8901 87.5593 48.9315C87.473 48.973 87.3867 49.0011 87.2915 49.013C87.1249 49.0381 86.939 49.0218 86.7039 48.9271C86.6549 48.8989 86.5879 48.9182 86.5626 48.9685C86.5344 49.0218 86.5552 49.084 86.6087 49.1122C86.7783 49.2232 86.936 49.2928 87.0848 49.3269C87.1621 49.3432 87.2454 49.3506 87.3242 49.3461C87.4566 49.3387 87.5846 49.3017 87.708 49.2439C87.8122 49.1951 87.9148 49.1285 88.0234 49.05C88.0978 48.9967 88.1186 48.8901 88.0606 48.816C88.007 48.742 87.9029 48.7213 87.8241 48.779Z" fill="#A4463B"/>
<path fill-rule="evenodd" clip-rule="evenodd" d="M97.8519 48.6892C97.9724 48.7425 98.0869 48.7839 98.203 48.8076C98.3398 48.8372 98.4722 48.8446 98.6046 48.8209C98.679 48.8046 98.7578 48.7839 98.8322 48.7469C98.969 48.6803 99.1044 48.5781 99.2457 48.43C99.2904 48.393 99.2948 48.3264 99.2576 48.282C99.216 48.2361 99.1505 48.2316 99.1089 48.2731C98.9066 48.4167 98.7251 48.4745 98.5555 48.4878C98.4633 48.4952 98.3681 48.4922 98.2773 48.4715C98.1821 48.4508 98.084 48.4167 97.9843 48.3797C97.898 48.3427 97.7984 48.3841 97.7612 48.4715C97.7284 48.5529 97.7656 48.6521 97.8519 48.6892Z" fill="#A4463B"/>
<path fill-rule="evenodd" clip-rule="evenodd" d="M88.4585 48.3797C88.3544 48.4167 88.2547 48.4508 88.1595 48.4715C88.0688 48.4922 87.978 48.4952 87.8828 48.4878C87.7133 48.4745 87.5362 48.4167 87.3295 48.2731C87.2878 48.2316 87.2209 48.2361 87.1837 48.282C87.1435 48.3264 87.1465 48.393 87.1926 48.43C87.3324 48.5781 87.4693 48.6803 87.6062 48.7469C87.685 48.7839 87.7594 48.8046 87.8337 48.8209C87.9661 48.8446 88.0985 48.8372 88.2339 48.8076C88.3499 48.7839 88.466 48.7425 88.5864 48.6892C88.6727 48.6521 88.7144 48.5529 88.6772 48.4715C88.64 48.3841 88.5403 48.3427 88.4585 48.3797Z" fill="#A4463B"/>
<path fill-rule="evenodd" clip-rule="evenodd" d="M89.5907 49.059C90.2363 49.059 90.7569 49.5817 90.7569 50.2228C90.7569 50.861 90.2363 51.3837 89.5907 51.3837C88.9466 51.3837 88.4245 50.861 88.4245 50.2228C88.4245 49.5817 88.9466 49.059 89.5907 49.059Z" fill="#A4463B"/>
<path fill-rule="evenodd" clip-rule="evenodd" d="M96.897 49.059C96.2514 49.059 95.7308 49.5817 95.7308 50.2228C95.7308 50.861 96.2514 51.3837 96.897 51.3837C97.5426 51.3837 98.0632 50.861 98.0632 50.2228C98.0632 49.5817 97.5426 49.059 96.897 49.059Z" fill="#A4463B"/>
<path fill-rule="evenodd" clip-rule="evenodd" d="M96.0909 49.1824C95.9124 49.1824 95.7681 49.3275 95.7681 49.4993C95.7681 49.677 95.9124 49.8206 96.0909 49.8206C96.2679 49.8206 96.4137 49.677 96.4137 49.4993C96.4137 49.3275 96.2679 49.1824 96.0909 49.1824Z" fill="white"/>
<path fill-rule="evenodd" clip-rule="evenodd" d="M88.7428 49.1824C88.5658 49.1824 88.4245 49.3275 88.4245 49.4993C88.4245 49.677 88.5658 49.8206 88.7428 49.8206C88.9213 49.8206 89.0656 49.677 89.0656 49.4993C89.0656 49.3275 88.9213 49.1824 88.7428 49.1824Z" fill="white"/>
<path fill-rule="evenodd" clip-rule="evenodd" d="M93.2798 52.8068C93.921 52.8068 94.809 52.0827 95.4546 53.1237C95.9425 53.9143 94.7138 55.0693 93.2798 55.0693C91.7001 55.0693 90.6201 53.9632 91.1051 53.1237C91.6584 52.1612 92.5346 52.8068 93.2798 52.8068Z" fill="white"/>
<mask id="mask4_195_1696" style="mask-type:luminance" maskUnits="userSpaceOnUse" x="57" y="75" width="7" height="13">
<path d="M57.7034 75.1535H63.0348V88H57.7034V75.1535Z" fill="white"/>
</mask>
<g mask="url(#mask4_195_1696)">
<path fill-rule="evenodd" clip-rule="evenodd" d="M62.6554 75.4035H58.0663L58.7982 85.2694L58.5959 87.7377H62.6063L62.6554 75.4035Z" fill="#CF665A"/>
</g>
<mask id="mask5_195_1696" style="mask-type:luminance" maskUnits="userSpaceOnUse" x="64" y="75" width="8" height="13">
<path d="M64.9389 75.1535H71.4127V88H64.9389V75.1535Z" fill="white"/>
</mask>
<g mask="url(#mask5_195_1696)">
<path fill-rule="evenodd" clip-rule="evenodd" d="M64.9552 75.4035H69.5398L71.133 85.2694L71.3353 87.7377H67.3234L67.3204 85.9075L64.9552 75.4035Z" fill="#CF665A"/>
</g>
<path fill-rule="evenodd" clip-rule="evenodd" d="M62.6554 75.4561H58.0663L58.2017 78.6455L58.4293 80.3483C59.7978 80.8577 61.1961 81.0605 62.6316 80.9124L62.7461 78.8794L62.6554 75.4561Z" fill="#A4463B"/>
<path fill-rule="evenodd" clip-rule="evenodd" d="M64.9554 75.4561H69.54L70.1484 78.3405L70.2897 79.8789C68.9197 80.3439 67.5184 80.5245 66.0844 80.3898L65.4433 78.5537L64.9554 75.4561Z" fill="#A4463B"/>
<mask id="mask6_195_1696" style="mask-type:luminance" maskUnits="userSpaceOnUse" x="55" y="85" width="9" height="3">
<path d="M55.4187 85.0088H63.0349V87.9998H55.4187V85.0088Z" fill="white"/>
</mask>
<g mask="url(#mask6_195_1696)">
<path fill-rule="evenodd" clip-rule="evenodd" d="M62.6687 85.6953C62.6687 85.6953 60.8985 86.1025 60.3362 86.0906C59.9465 86.0818 59.3515 84.909 58.7148 85.0171C57.8595 85.1652 56.8465 85.8345 55.9688 86.2757C55.6014 86.4564 55.4229 86.8843 55.5523 87.2708C55.7011 87.7076 56.1101 87.9993 56.5683 87.9993C58.3593 87.9993 62.6553 87.9993 62.6553 87.9993C62.6925 87.2471 62.7223 86.4889 62.6687 85.6953Z" fill="#703954"/>
</g>
<mask id="mask7_195_1696" style="mask-type:luminance" maskUnits="userSpaceOnUse" x="67" y="85" width="8" height="3">
<path d="M67.2237 85.0088H74.4591V87.9998H67.2237V85.0088Z" fill="white"/>
</mask>
<g mask="url(#mask7_195_1696)">
<path fill-rule="evenodd" clip-rule="evenodd" d="M67.2621 85.6952C67.2621 85.6952 69.0308 86.1024 69.5946 86.0906C69.9828 86.0817 70.5778 84.909 71.2145 85.0171C72.0713 85.1651 73.0843 85.8344 73.9605 86.2757C74.3279 86.4563 74.5064 86.8842 74.3785 87.2707C74.2297 87.7075 73.8192 87.9992 73.361 87.9992C71.57 87.9992 67.274 87.9992 67.274 87.9992C67.2368 87.247 67.2086 86.4889 67.2621 85.6952Z" fill="#703954"/>
</g>
<path fill-rule="evenodd" clip-rule="evenodd" d="M58.0156 85.1111C58.0156 85.1111 58.0989 85.2058 58.215 85.3347C58.276 85.3998 58.3474 85.4783 58.4217 85.5479C58.633 85.7581 58.8591 85.9506 58.8591 85.9506C58.9171 86.0039 59.0078 86.0039 59.0658 85.9506C59.1209 85.8929 59.1209 85.8026 59.0658 85.7448C59.0658 85.7448 58.8725 85.5198 58.6657 85.3051C58.5913 85.231 58.5169 85.1659 58.4455 85.1037C58.3176 84.9882 58.2224 84.9067 58.2224 84.9067C58.1644 84.849 58.0736 84.849 58.0156 84.9067C57.9576 84.96 57.9576 85.0548 58.0156 85.1111Z" fill="#9C6781"/>
<path fill-rule="evenodd" clip-rule="evenodd" d="M71.707 84.9067C71.707 84.9067 71.6074 84.9882 71.4839 85.1037C71.414 85.1659 71.3396 85.231 71.2652 85.3051C71.0585 85.5198 70.8636 85.7448 70.8636 85.7448C70.8101 85.8026 70.8101 85.8929 70.8636 85.9506C70.9216 86.0039 71.0124 86.0039 71.0704 85.9506C71.0704 85.9506 71.298 85.7581 71.5092 85.5479C71.5836 85.4783 71.6535 85.3998 71.716 85.3347C71.8305 85.2058 71.9138 85.1111 71.9138 85.1111C71.9718 85.0548 71.9718 84.96 71.9138 84.9067C71.8558 84.849 71.7651 84.849 71.707 84.9067Z" fill="#9C6781"/>
<path fill-rule="evenodd" clip-rule="evenodd" d="M57.3834 85.4275C57.3834 85.4275 57.4667 85.5223 57.5813 85.6496C57.6438 85.7162 57.7137 85.7903 57.7851 85.8643C57.9993 86.0746 58.2269 86.2626 58.2269 86.2626C58.2849 86.3204 58.3756 86.3204 58.4336 86.2626C58.4872 86.2063 58.4872 86.1145 58.4336 86.0612C58.4336 86.0612 58.2388 85.8317 58.032 85.6215C57.9576 85.5474 57.8803 85.4778 57.8133 85.4157C57.6854 85.3002 57.5902 85.2187 57.5902 85.2187C57.5322 85.161 57.4415 85.161 57.3834 85.2187C57.3254 85.2765 57.3254 85.3668 57.3834 85.4275Z" fill="#9C6781"/>
<path fill-rule="evenodd" clip-rule="evenodd" d="M72.3392 85.2187C72.3392 85.2187 72.2411 85.3002 72.1161 85.4157C72.0507 85.4778 71.9718 85.5474 71.8974 85.6215C71.6907 85.8317 71.4958 86.0612 71.4958 86.0612C71.4423 86.1145 71.4423 86.2063 71.4958 86.2626C71.5538 86.3204 71.6446 86.3204 71.7026 86.2626C71.7026 86.2626 71.9302 86.0746 72.1459 85.8643C72.2158 85.7903 72.2857 85.7162 72.3482 85.6496C72.4642 85.5223 72.546 85.4275 72.546 85.4275C72.604 85.3668 72.604 85.2765 72.546 85.2187C72.488 85.161 72.3973 85.161 72.3392 85.2187Z" fill="#9C6781"/>
<path fill-rule="evenodd" clip-rule="evenodd" d="M65.4013 56.6126H61.7584V61.1257H65.4013V56.6126Z" fill="#CF665A"/>
<path fill-rule="evenodd" clip-rule="evenodd" d="M65.4013 56.6126H61.7584V57.963C62.9529 58.5182 64.1652 58.6041 65.4013 57.963V56.6126Z" fill="#A4463B"/>
<path fill-rule="evenodd" clip-rule="evenodd" d="M69.015 69.3672H58.1158C58.1158 69.3672 57.3215 70.8983 57.1861 71.7334C56.9005 73.4317 57.1608 79.55 57.1608 79.55C59.1497 80.3644 63.6524 80.8707 63.8012 80.508C63.8012 80.508 63.7967 77.4592 63.9425 76.8507C63.9797 76.6982 64.359 76.707 64.4141 76.8507C64.6327 77.4429 65.0998 80.3525 65.0998 80.3525C65.0998 80.3525 69.4583 79.9942 71.3475 78.9281C71.3475 78.9281 70.1024 73.3992 69.8213 71.6993C69.6859 70.8894 69.015 69.3672 69.015 69.3672Z" fill="#E09E52"/>
<path fill-rule="evenodd" clip-rule="evenodd" d="M63.615 76.8629C63.615 76.8629 63.789 76.8674 64.0196 76.8629C64.1446 76.8629 64.2814 76.8629 64.4212 76.8555C64.5045 76.8555 64.5864 76.8467 64.6652 76.8437C64.9716 76.8185 65.223 76.7933 65.223 76.7933C65.2944 76.7889 65.3435 76.7326 65.339 76.666C65.339 76.5964 65.281 76.5476 65.2111 76.5505C65.2111 76.5505 64.9582 76.5476 64.6488 76.555C64.57 76.555 64.4912 76.5594 64.4093 76.5638C64.268 76.5668 64.1282 76.5801 64.0077 76.592C63.7756 76.6127 63.6076 76.6334 63.6076 76.6334C63.5406 76.6379 63.4915 76.6912 63.4945 76.7519C63.499 76.8141 63.5525 76.8674 63.615 76.8629Z" fill="#C17143"/>
<path fill-rule="evenodd" clip-rule="evenodd" d="M73.9485 68.4832C73.9931 68.5321 74.5718 69.305 74.6342 69.4249C74.8618 69.844 74.7131 71.1025 74.7622 71.3335C74.8157 71.5926 75.1103 71.6593 75.2248 71.4535C75.4033 71.1277 75.3988 70.6258 75.5982 70.6924C75.8957 70.7827 76.2423 71.0626 76.8879 71.6385C77.2523 71.9673 77.645 71.683 77.5662 71.375C77.9009 71.4609 78.2475 71.1573 78.0779 70.8153C78.5465 70.7368 78.4542 70.1564 78.1865 70.0453C78.1865 70.0453 78.6 70.0453 78.484 69.5982C78.3055 68.9141 76.7644 68.0301 76.7644 68.0301C75.7752 66.8041 71.4628 61.2204 71.4628 61.2204L69.1393 63.397C69.1393 63.397 72.8477 67.195 73.9485 68.4832Z" fill="#CF665A"/>
<path fill-rule="evenodd" clip-rule="evenodd" d="M77.5202 71.4078C77.4384 71.3131 77.3506 71.2227 77.2599 71.1369C77.1974 71.0791 77.1364 71.0214 77.0784 70.9681C77.0278 70.9266 76.9832 70.8852 76.9326 70.8437C76.821 70.7504 76.7065 70.6586 76.5815 70.5772C76.5652 70.5638 76.5577 70.5401 76.5696 70.5194C76.5815 70.4987 76.6068 70.4898 76.6321 70.5076C76.7601 70.5772 76.8924 70.6556 77.0159 70.746C77.065 70.783 77.12 70.82 77.1691 70.8644C77.2346 70.9177 77.2971 70.9799 77.3551 71.0421C77.4458 71.1369 77.5291 71.2346 77.6079 71.3427C77.6273 71.3634 77.6243 71.4004 77.599 71.4167C77.5737 71.4374 77.541 71.433 77.5202 71.4078Z" fill="#A4463B"/>
<path fill-rule="evenodd" clip-rule="evenodd" d="M78.0125 70.8432C77.9292 70.7499 77.8385 70.6581 77.7522 70.5723C77.6897 70.5145 77.6273 70.4612 77.5663 70.4035C77.5202 70.362 77.4755 70.322 77.425 70.2806C77.3089 70.1858 77.1944 70.0955 77.0739 70.0126C77.0531 70.0007 77.0486 69.9755 77.062 69.9548C77.0739 69.9341 77.0992 69.9311 77.12 69.9385C77.2524 70.0126 77.3803 70.091 77.5038 70.1814C77.5574 70.2184 77.6109 70.2554 77.6615 70.3013C77.7225 70.3546 77.7894 70.4153 77.8474 70.4775C77.9337 70.5723 78.017 70.6715 78.0988 70.7781C78.1152 70.7988 78.1122 70.8358 78.0914 70.8521C78.0661 70.8728 78.0334 70.8684 78.0125 70.8432Z" fill="#A4463B"/>
<path fill-rule="evenodd" clip-rule="evenodd" d="M78.1402 70.0616C78.0584 69.9639 77.9662 69.8735 77.8799 69.7906C77.8174 69.7329 77.7565 69.6751 77.694 69.6218C77.6479 69.5804 77.6032 69.5404 77.5527 69.4989C77.4411 69.3997 77.3221 69.3094 77.2016 69.2309C77.1808 69.2191 77.1763 69.1939 77.1897 69.1702C77.2016 69.1524 77.2269 69.145 77.2477 69.1569C77.3801 69.2265 77.508 69.305 77.6315 69.3953C77.6851 69.4323 77.7401 69.4737 77.7892 69.5152C77.8517 69.573 77.9126 69.6307 77.9751 69.6959C78.0614 69.7862 78.1447 69.8854 78.228 69.992C78.2444 70.0172 78.2399 70.0497 78.2191 70.0705C78.1938 70.0868 78.1611 70.0868 78.1402 70.0616Z" fill="#A4463B"/>
<path fill-rule="evenodd" clip-rule="evenodd" d="M51.9675 69.1659C51.9214 69.2147 51.3427 69.9921 51.2803 70.1076C51.0527 70.5266 51.2014 71.7867 51.1523 72.0162C51.0988 72.2753 50.8057 72.3419 50.6942 72.1406C50.5112 71.8104 50.5157 71.3129 50.3178 71.375C50.0188 71.4698 49.6678 71.7452 49.0311 72.3212C48.6637 72.6499 48.2665 72.3656 48.3483 72.0576C48.0136 72.148 47.667 71.84 47.8411 71.4979C47.3695 71.4195 47.4603 70.8405 47.728 70.7295C47.728 70.7295 47.3145 70.7295 47.4305 70.2808C47.6046 69.5982 49.1516 68.7172 49.1516 68.7172C50.1393 67.4868 54.4517 61.9045 54.4517 61.9045L56.7752 64.0797C56.7752 64.0797 53.0668 67.8777 51.9675 69.1659Z" fill="#CF665A"/>
<path fill-rule="evenodd" clip-rule="evenodd" d="M48.3945 72.0945C48.4778 71.9953 48.5641 71.9049 48.6548 71.8235C48.7173 71.7613 48.7753 71.708 48.8363 71.6547C48.8869 71.6088 48.9315 71.5673 48.9821 71.5303C49.0936 71.4326 49.2097 71.3423 49.3287 71.2638C49.3495 71.252 49.3584 71.2223 49.345 71.2016C49.3331 71.1809 49.3049 71.1764 49.287 71.1898C49.1546 71.2594 49.0237 71.3378 48.8988 71.4282C48.8497 71.4652 48.7961 71.5066 48.7456 71.5481C48.6801 71.6044 48.6176 71.6621 48.5552 71.7243C48.4689 71.8191 48.3856 71.9183 48.3082 72.0249C48.2874 72.05 48.2904 72.0826 48.3157 72.1034C48.341 72.1196 48.3737 72.1152 48.3945 72.0945Z" fill="#A4463B"/>
<path fill-rule="evenodd" clip-rule="evenodd" d="M47.9022 71.5308C47.9855 71.4331 48.0763 71.3428 48.1626 71.2599C48.225 71.1977 48.2875 71.1444 48.3455 71.0911C48.3946 71.0466 48.4407 71.0052 48.4898 70.9637C48.6014 70.869 48.7174 70.7786 48.8409 70.7002C48.8617 70.6883 48.8662 70.6587 48.8543 70.638C48.8409 70.6187 48.8171 70.6143 48.7962 70.6261C48.6639 70.6957 48.5315 70.7742 48.4065 70.8645C48.3574 70.9015 48.3039 70.943 48.2533 70.9845C48.1923 71.0422 48.1254 71.1 48.0673 71.1651C47.9811 71.2554 47.8978 71.3546 47.816 71.4612C47.7996 71.4864 47.7996 71.519 47.8234 71.5397C47.8487 71.556 47.8814 71.5516 47.9022 71.5308Z" fill="#A4463B"/>
<path fill-rule="evenodd" clip-rule="evenodd" d="M47.7739 70.7455C47.8572 70.6463 47.9479 70.5604 48.0342 70.473C48.0967 70.4153 48.1592 70.359 48.2157 70.3042C48.2663 70.2642 48.3109 70.2228 48.3615 70.1813C48.473 70.0866 48.5891 69.9962 48.7125 69.9133C48.7334 69.9015 48.7378 69.8763 48.7244 69.8571C48.7125 69.8363 48.6872 69.8274 48.6634 69.8393C48.534 69.9104 48.4031 69.9874 48.2782 70.0792C48.2291 70.1162 48.1755 70.1562 48.125 70.2021C48.064 70.2554 47.997 70.3131 47.939 70.3783C47.8527 70.4701 47.7694 70.5678 47.6876 70.6759C47.6713 70.6996 47.6713 70.7321 47.6951 70.7529C47.7203 70.7736 47.7531 70.7692 47.7739 70.7455Z" fill="#A4463B"/>
<path fill-rule="evenodd" clip-rule="evenodd" d="M57.934 70.5238C59.9094 70.9147 67.0258 70.968 69.1262 70.5238C69.5695 70.429 69.925 69.7908 69.8551 69.3378C69.7019 68.322 70.0411 65.1045 70.0411 65.1045L70.5944 65.7308L73.8402 63.2817C73.8402 63.2817 70.8012 58.0978 67.1166 58.1807C65.9176 58.2089 65.3598 58.5257 65.3598 58.5257C65.3598 58.5257 65.5457 60.2626 63.6774 60.2581C61.754 60.2581 61.7584 58.4769 61.7584 58.4769C61.7584 58.4769 60.8243 58.16 59.8068 58.16C58.1824 58.16 56.6636 58.9537 55.5316 60.1145C54.4516 61.2176 53.211 62.8627 53.211 62.8627L56.4985 65.3192L57.1976 64.7639L57.2393 65.5294C57.2393 65.5294 57.1976 68.5026 57.1024 69.4666C57.0608 69.8945 57.5204 70.4364 57.934 70.5238Z" fill="#FEDECD"/>
<path fill-rule="evenodd" clip-rule="evenodd" d="M57.1557 63.8662C57.1557 63.8662 57.1438 63.961 57.1304 64.0883C57.123 64.1579 57.1141 64.2364 57.1111 64.3149C57.1111 64.3593 57.1111 64.4052 57.1066 64.4467C57.1066 64.6184 57.1111 64.7591 57.1111 64.7591C57.1066 64.8079 57.1438 64.8494 57.1929 64.8494C57.239 64.8538 57.2807 64.8168 57.2837 64.7665C57.2837 64.7665 57.3 64.6273 57.3134 64.4585C57.3179 64.4141 57.3208 64.3682 57.3208 64.3223C57.3253 64.2453 57.3253 64.1668 57.3253 64.1002C57.3253 63.9684 57.3208 63.8751 57.3208 63.8751C57.3208 63.8292 57.2881 63.7922 57.2435 63.7878C57.1974 63.7878 57.1602 63.8203 57.1557 63.8662Z" fill="#986B6B"/>
<path fill-rule="evenodd" clip-rule="evenodd" d="M70.0072 64.4791C70.0072 64.4791 69.9834 64.7383 69.97 65.0018C69.9581 65.2609 69.9626 65.5201 69.9626 65.5201C69.9581 65.566 69.9953 65.603 70.037 65.6059C70.0831 65.6059 70.1203 65.5734 70.1232 65.529C70.1232 65.529 70.153 65.2684 70.1649 65.0092C70.1812 64.7501 70.1812 64.491 70.1812 64.491C70.1857 64.4421 70.1485 64.4007 70.0994 64.3962C70.0489 64.3933 70.0072 64.4303 70.0072 64.4791Z" fill="#BA865D"/>
<path fill-rule="evenodd" clip-rule="evenodd" d="M63.8469 36.0424C62.4442 34.3707 59.5256 34.7794 58.7313 36.7695C56.6264 35.8485 54.5186 37.4935 54.8324 39.4984C52.5416 39.4243 51.3382 42.1059 52.4256 44.2499C51.2058 44.8703 51.417 47.5208 52.8718 47.8954C52.3348 50.762 54.5096 52.9105 57.2065 52.8898L69.4326 52.7787C72.3274 53.0985 75.4408 51.4461 74.523 48.4166C75.6059 47.9531 76.1816 45.2583 74.6836 44.0648C75.3828 42.1755 74.1377 39.8967 72.2411 39.6746C72.2976 37.7615 70.2805 36.42 68.5193 36.7369C67.7041 35.0134 65.327 34.507 63.8469 36.0424Z" fill="#993621"/>
<path fill-rule="evenodd" clip-rule="evenodd" d="M71.8473 43.2787C70.0161 39.5148 66.4356 37.7898 63.5453 37.7898C60.655 37.7898 56.3292 39.3297 54.87 43.3572C53.4598 47.2321 54.8819 48.8446 54.9072 50.5326C54.9696 54.6919 57.9388 57.7939 63.7803 57.7732C69.1608 57.7525 72.0168 54.5853 72.1329 50.6096C72.1834 48.7839 73.4478 46.554 71.8473 43.2787Z" fill="#CF665A"/>
<path fill-rule="evenodd" clip-rule="evenodd" d="M57.5205 51.1783C57.5205 51.1783 57.4372 51.1857 57.3257 51.2153C57.284 51.2227 57.2439 51.2316 57.1977 51.2479C57.1561 51.2641 57.1189 51.2849 57.0817 51.3056C56.982 51.3633 56.9166 51.4122 56.9166 51.4122C56.863 51.4329 56.8422 51.4907 56.8586 51.544C56.8839 51.5943 56.9419 51.618 56.991 51.5973C56.991 51.5973 57.0773 51.5899 57.1858 51.5603C57.226 51.5529 57.2677 51.5396 57.3093 51.5233C57.351 51.507 57.3881 51.4833 57.4253 51.4626C57.525 51.4048 57.5905 51.3515 57.5905 51.3515C57.6395 51.3337 57.6648 51.2775 57.644 51.2271C57.6232 51.1827 57.5696 51.1575 57.5205 51.1783Z" fill="#A4463B"/>
<path fill-rule="evenodd" clip-rule="evenodd" d="M69.9327 51.1783C69.9327 51.1783 70.0204 51.1857 70.1275 51.2153C70.1692 51.2227 70.2138 51.2316 70.2555 51.2479C70.2971 51.2641 70.3343 51.2849 70.3715 51.3056C70.4712 51.3633 70.5366 51.4122 70.5366 51.4122C70.5902 51.4329 70.6155 51.4907 70.5946 51.544C70.5738 51.5943 70.5158 51.618 70.4622 51.5973C70.4622 51.5973 70.3804 51.5899 70.2689 51.5603C70.2272 51.5529 70.1856 51.5396 70.1439 51.5233C70.1023 51.507 70.0651 51.4833 70.0279 51.4626C69.9327 51.4048 69.8628 51.3515 69.8628 51.3515C69.8137 51.3337 69.7928 51.2775 69.8092 51.2271C69.83 51.1827 69.888 51.1575 69.9327 51.1783Z" fill="#A4463B"/>
<path fill-rule="evenodd" clip-rule="evenodd" d="M57.698 51.585C57.698 51.585 57.6236 51.6264 57.5284 51.6871C57.4957 51.7123 57.4585 51.7375 57.4258 51.7701C57.3931 51.7982 57.3678 51.8322 57.338 51.8648C57.2681 51.9507 57.2235 52.0247 57.2235 52.0247C57.1863 52.0618 57.1818 52.1239 57.219 52.1654C57.2562 52.2069 57.3217 52.2069 57.3633 52.1698C57.3633 52.1698 57.4377 52.1284 57.5284 52.0618C57.5626 52.041 57.5998 52.0129 57.6326 51.9848C57.6608 51.9507 57.6906 51.9181 57.7144 51.8855C57.7858 51.7952 57.8304 51.7242 57.8304 51.7242C57.8676 51.6871 57.8676 51.6264 57.8349 51.5894C57.7977 51.5524 57.7352 51.548 57.698 51.585Z" fill="#A4463B"/>
<path fill-rule="evenodd" clip-rule="evenodd" d="M69.7555 51.585C69.7555 51.585 69.8298 51.6264 69.925 51.6871C69.9578 51.7123 69.995 51.7375 70.0277 51.7701C70.0619 51.7982 70.0902 51.8322 70.1155 51.8648C70.1854 51.9507 70.2315 52.0247 70.2315 52.0247C70.2716 52.0618 70.2716 52.1239 70.2345 52.1654C70.1973 52.2069 70.1318 52.2069 70.0946 52.1698C70.0946 52.1698 70.0158 52.1284 69.925 52.0618C69.8923 52.041 69.8551 52.0129 69.8254 51.9848C69.7927 51.9507 69.7629 51.9181 69.7391 51.8855C69.6692 51.7952 69.6275 51.7242 69.6275 51.7242C69.5859 51.6871 69.5859 51.6264 69.6231 51.5894C69.6558 51.5524 69.7183 51.548 69.7555 51.585Z" fill="#A4463B"/>
<path fill-rule="evenodd" clip-rule="evenodd" d="M55.3369 50.4128C56.6772 48.1295 56.0941 44.9534 56.0941 44.9534C57.8434 45.0186 59.3101 44.5877 60.2116 43.1426C61.4864 43.9584 62.6511 43.8474 63.7103 42.8716C64.7025 43.8104 65.8687 43.9288 67.2298 43.0893C68.4496 44.6203 69.9951 45.0763 71.7117 44.986C71.7117 44.986 71.1078 48.4005 72.1253 50.2973L73.5265 50.4542L74.0353 46.6859L72.7158 41.1155L68.9613 37.9424L63.0111 36.783L56.048 38.9463L53.113 44.8587L54.7493 50.6067L55.3369 50.4128Z" fill="#993621"/>
<path fill-rule="evenodd" clip-rule="evenodd" d="M71.7352 50.5905C71.7352 50.5905 74.27 49.7924 74.9111 51.6921C75.2711 52.7538 74.2462 54.8268 71.9256 54.8475C70.7192 54.8608 70.2804 53.7873 70.2804 53.7873L71.7352 50.5905Z" fill="#CF665A"/>
<path fill-rule="evenodd" clip-rule="evenodd" d="M55.3697 50.5905C55.3697 50.5905 52.8349 49.7924 52.1953 51.6921C51.8353 52.7538 52.8602 54.8268 55.1793 54.8475C56.3872 54.8608 56.826 53.7873 56.826 53.7873L55.3697 50.5905Z" fill="#CF665A"/>
<path fill-rule="evenodd" clip-rule="evenodd" d="M72.997 52.3047C72.8691 52.7903 72.7203 53.0376 72.5716 53.1442C72.4555 53.2301 72.344 53.1975 72.2741 53.1487C72.2324 53.119 72.2041 53.0865 72.1952 53.0657C72.1625 52.9266 72.1863 52.7859 72.2443 52.6541C72.335 52.4661 72.5046 52.2973 72.7292 52.1862C73.0387 52.0337 73.4522 51.9848 73.9118 52.1359C73.9609 52.1521 74.0145 52.1285 74.0308 52.0781C74.0472 52.0293 74.0234 51.9759 73.9773 51.9597C73.3317 51.705 72.7456 51.819 72.3693 52.0914C72.1997 52.2143 72.0718 52.3668 71.9929 52.5356C71.9022 52.7252 71.8813 52.934 71.9349 53.1324C71.9468 53.1768 71.984 53.2479 72.0509 53.3086C72.1952 53.4359 72.46 53.547 72.7203 53.3337C72.8854 53.202 73.0595 52.9132 73.171 52.3461C73.1829 52.2973 73.1547 52.2514 73.1041 52.2395C73.0595 52.2262 73.0104 52.2602 72.997 52.3047Z" fill="#A4463B"/>
<path fill-rule="evenodd" clip-rule="evenodd" d="M53.9356 52.3461C54.0471 52.9132 54.2212 53.202 54.3863 53.3337C54.6466 53.547 54.9114 53.4359 55.0557 53.3086C55.1226 53.2479 55.1598 53.1768 55.1717 53.1324C55.2253 52.934 55.2044 52.7252 55.1137 52.5356C55.0349 52.3668 54.9069 52.2143 54.7374 52.0914C54.3565 51.819 53.7734 51.705 53.1338 51.9597C53.0832 51.9759 53.0579 52.0293 53.0758 52.0781C53.0921 52.1285 53.1457 52.1521 53.1948 52.1359C53.6544 51.9848 54.068 52.0337 54.3774 52.1862C54.6005 52.2973 54.7701 52.4661 54.8608 52.6541C54.9233 52.7859 54.9441 52.9266 54.9114 53.0657C54.9025 53.0865 54.8742 53.119 54.8326 53.1487C54.7626 53.1975 54.6511 53.2301 54.535 53.1442C54.3863 53.0376 54.2375 52.7903 54.1096 52.3047C54.0962 52.2602 54.0516 52.2262 54.001 52.2395C53.9519 52.2514 53.9222 52.2973 53.9356 52.3461Z" fill="#A4463B"/>
<path fill-rule="evenodd" clip-rule="evenodd" d="M63.1889 52.2269C63.2752 52.1825 63.3793 52.1736 63.4864 52.1706C63.5147 52.1706 63.5444 52.1706 63.5772 52.1736C63.6069 52.1736 63.6352 52.1736 63.6634 52.1736C63.7557 52.178 63.8464 52.1899 63.9282 52.2313C63.9743 52.2639 64.0368 52.2521 64.0695 52.2077C64.0978 52.1618 64.0904 52.0966 64.0443 52.0625C63.9654 51.9885 63.8702 51.9352 63.772 51.9026C63.7006 51.8775 63.6307 51.8701 63.5608 51.8701C63.4864 51.8701 63.4165 51.8819 63.3496 51.9071C63.2469 51.9441 63.1562 51.9974 63.0803 52.0714C63.0357 52.0996 63.0268 52.1618 63.0565 52.2032C63.0848 52.2476 63.1473 52.261 63.1889 52.2269Z" fill="#A4463B"/>
<path fill-rule="evenodd" clip-rule="evenodd" d="M61.7707 53.848C62.0652 54.0864 62.4163 54.2641 62.7971 54.3707C63.041 54.4373 63.3013 54.4743 63.5617 54.4773C63.8175 54.4773 64.0778 54.4447 64.3263 54.3796C64.6981 54.2759 65.0507 54.1027 65.3527 53.8524C65.3973 53.8199 65.4062 53.7577 65.369 53.7133C65.3348 53.6674 65.2738 53.6585 65.2277 53.6955C64.9391 53.9013 64.6074 54.0331 64.2608 54.1071C64.0332 54.1604 63.7967 54.1812 63.5617 54.1812C63.3251 54.1812 63.0856 54.1575 62.8625 54.1071C62.5025 54.0331 62.1678 53.8983 61.8867 53.6999C61.845 53.6674 61.787 53.6748 61.7543 53.7162C61.7216 53.7577 61.7305 53.8154 61.7707 53.848Z" fill="#A33226"/>
<path fill-rule="evenodd" clip-rule="evenodd" d="M60.2944 45.1546C59.744 44.817 59.0865 44.7104 58.4632 44.8496C57.8667 44.9814 57.3134 45.3441 56.8998 45.9157C56.7838 46.08 56.8299 46.3066 56.995 46.4221C57.1602 46.5376 57.3922 46.4917 57.5038 46.3273C57.7924 45.8831 58.1895 45.6033 58.6239 45.4715C59.1029 45.3278 59.6161 45.3486 60.0668 45.5618C60.1784 45.6284 60.3227 45.587 60.3851 45.4715C60.4476 45.3604 60.406 45.2168 60.2944 45.1546Z" fill="#993621"/>
<path fill-rule="evenodd" clip-rule="evenodd" d="M67.1297 45.5618C67.5805 45.3486 68.0966 45.3278 68.5727 45.4715C69.007 45.6033 69.4072 45.8831 69.6928 46.3273C69.8088 46.4917 70.0364 46.5376 70.2015 46.4221C70.3711 46.3066 70.4127 46.08 70.3012 45.9157C69.8832 45.3441 69.3298 44.9814 68.7378 44.8496C68.11 44.7104 67.4525 44.817 66.9066 45.1546C66.7906 45.2168 66.7489 45.3604 66.8114 45.4715C66.8724 45.587 67.0182 45.6284 67.1297 45.5618Z" fill="#993621"/>
<path fill-rule="evenodd" clip-rule="evenodd" d="M61.1659 48.7006C60.5054 48.2608 59.6947 48.2149 59 48.4548C58.2191 48.7213 57.5898 49.3506 57.4158 50.1532C57.392 50.285 57.4664 50.4078 57.5854 50.4375C57.7059 50.4656 57.8219 50.3842 57.8457 50.2524C57.9617 49.5861 58.4794 49.0678 59.1116 48.8072C59.723 48.5614 60.4429 48.5481 61.0588 48.902C61.1094 48.936 61.1748 48.9183 61.2046 48.862C61.2328 48.8043 61.2165 48.7332 61.1659 48.7006Z" fill="#7F392A"/>
<path fill-rule="evenodd" clip-rule="evenodd" d="M66.1379 48.902C66.7537 48.5481 67.4737 48.5614 68.0851 48.8072C68.7173 49.0678 69.2349 49.5861 69.3539 50.2524C69.3792 50.3842 69.4953 50.4656 69.6143 50.4375C69.7303 50.4078 69.8091 50.285 69.7809 50.1532C69.6068 49.3506 68.9776 48.7213 68.2011 48.4548C67.502 48.2149 66.6957 48.2608 66.0293 48.7006C65.9802 48.7332 65.9638 48.8043 65.9921 48.862C66.0219 48.9183 66.0873 48.936 66.1379 48.902Z" fill="#7F392A"/>
<path fill-rule="evenodd" clip-rule="evenodd" d="M59.9467 49.1824C60.5923 49.1824 61.1129 49.7051 61.1129 50.3433C61.1129 50.9844 60.5923 51.5071 59.9467 51.5071C59.3026 51.5071 58.782 50.9844 58.782 50.3433C58.782 49.7051 59.3026 49.1824 59.9467 49.1824Z" fill="#7F392A"/>
<path fill-rule="evenodd" clip-rule="evenodd" d="M67.2537 49.1824C66.6096 49.1824 66.0845 49.7051 66.0845 50.3433C66.0845 50.9844 66.6096 51.5071 67.2537 51.5071C67.8948 51.5071 68.4199 50.9844 68.4199 50.3433C68.4199 49.7051 67.8948 49.1824 67.2537 49.1824Z" fill="#7F392A"/>
<path fill-rule="evenodd" clip-rule="evenodd" d="M66.4477 49.3021C66.2707 49.3021 66.125 49.4457 66.125 49.6234C66.125 49.7996 66.2707 49.9432 66.4477 49.9432C66.6263 49.9432 66.7705 49.7996 66.7705 49.6234C66.7705 49.4457 66.6263 49.3021 66.4477 49.3021Z" fill="white"/>
<path fill-rule="evenodd" clip-rule="evenodd" d="M59.1003 49.3021C58.9218 49.3021 58.782 49.4457 58.782 49.6234C58.782 49.7996 58.9218 49.9432 59.1003 49.9432C59.2773 49.9432 59.4216 49.7996 59.4216 49.6234C59.4216 49.4457 59.2773 49.3021 59.1003 49.3021Z" fill="white"/>
<path fill-rule="evenodd" clip-rule="evenodd" d="M63.6893 53.0868C64.3304 53.0868 65.2155 52.3628 65.8596 53.4037C66.352 54.1944 65.1203 55.3493 63.6893 55.3493C62.1095 55.3493 61.0311 54.2432 61.5145 53.4037C62.0679 52.4412 62.9411 53.0868 63.6893 53.0868Z" fill="white"/>
<mask id="mask8_195_1696" style="mask-type:luminance" maskUnits="userSpaceOnUse" x="117" y="75" width="6" height="13">
<path d="M117.559 75.1535H122.822V88H117.559V75.1535Z" fill="white"/>
</mask>
<g mask="url(#mask8_195_1696)">
<path fill-rule="evenodd" clip-rule="evenodd" d="M122.55 75.4282H117.948L118.047 85.26L117.845 87.7372H121.86L121.906 85.993L122.55 75.4282Z" fill="#F6B99C"/>
</g>
<mask id="mask9_195_1696" style="mask-type:luminance" maskUnits="userSpaceOnUse" x="123" y="75" width="7" height="13">
<path d="M123.964 75.1535H129.203V88H123.964V75.1535Z" fill="white"/>
</mask>
<g mask="url(#mask9_195_1696)">
<path fill-rule="evenodd" clip-rule="evenodd" d="M124.271 75.3189H128.869L128.774 85.2588L128.971 87.736H124.956L124.948 85.9221L124.271 75.3189Z" fill="#F6B99C"/>
</g>
<path fill-rule="evenodd" clip-rule="evenodd" d="M122.285 75.3746H117.629L117.766 78.5714L117.944 80.2787C119.334 80.788 120.805 80.9939 122.261 80.8414L122.376 78.8054L122.285 75.3746Z" fill="#F38B81"/>
<path fill-rule="evenodd" clip-rule="evenodd" d="M124.534 75.3746H129.236L129.099 78.5714L128.869 80.2787C127.462 80.788 126.032 80.9939 124.559 80.8414L124.443 78.8054L124.534 75.3746Z" fill="#F38B81"/>
<mask id="mask10_195_1696" style="mask-type:luminance" maskUnits="userSpaceOnUse" x="114" y="84" width="9" height="4">
<path d="M114.444 84.6299H122.061V87.9999H114.444V84.6299Z" fill="white"/>
</mask>
<g mask="url(#mask10_195_1696)">
<path fill-rule="evenodd" clip-rule="evenodd" d="M121.922 85.6917C121.922 85.6917 120.152 86.0989 119.59 86.087C119.197 86.0752 118.602 84.9069 117.964 85.0135C117.104 85.1572 116.091 85.8324 115.215 86.2721C114.843 86.4528 114.665 86.8807 114.797 87.2716C114.943 87.7084 115.352 88.0001 115.815 88.0001C117.609 88.0001 121.914 88.0001 121.914 88.0001C121.951 87.2479 121.98 86.4898 121.922 85.6917Z" fill="#593665"/>
</g>
<mask id="mask11_195_1696" style="mask-type:luminance" maskUnits="userSpaceOnUse" x="124" y="84" width="9" height="4">
<path d="M124.726 84.6299H132.342V87.9999H124.726V84.6299Z" fill="white"/>
</mask>
<g mask="url(#mask11_195_1696)">
<path fill-rule="evenodd" clip-rule="evenodd" d="M124.894 85.6917C124.894 85.6917 126.665 86.0989 127.227 86.087C127.62 86.0752 128.215 84.9069 128.851 85.0135C129.713 85.1572 130.729 85.8324 131.602 86.2721C131.974 86.4528 132.152 86.8807 132.02 87.2716C132.023 87.2716 132.023 87.2716 132.023 87.2716C131.874 87.7084 131.465 88.0001 131.002 88.0001C129.207 88.0001 124.903 88.0001 124.903 88.0001C124.866 87.2479 124.841 86.4898 124.894 85.6917Z" fill="#593665"/>
</g>
<path fill-rule="evenodd" clip-rule="evenodd" d="M117.261 85.1038C117.261 85.1038 117.345 85.203 117.459 85.3259C117.522 85.3955 117.592 85.4739 117.666 85.5435C117.882 85.7538 118.109 85.9433 118.109 85.9433C118.167 86.0011 118.258 86.0011 118.316 85.9433C118.374 85.89 118.374 85.7982 118.316 85.7419C118.316 85.7419 118.121 85.5154 117.914 85.3007C117.84 85.2267 117.761 85.1571 117.696 85.0949C117.568 84.9809 117.473 84.898 117.473 84.898C117.415 84.8402 117.319 84.8402 117.261 84.898C117.203 84.9557 117.203 85.046 117.261 85.1038Z" fill="#9D76AB"/>
<path fill-rule="evenodd" clip-rule="evenodd" d="M129.343 84.898C129.343 84.898 129.248 84.9809 129.12 85.0949C129.055 85.1571 128.976 85.2267 128.906 85.3007C128.695 85.5154 128.5 85.7419 128.5 85.7419C128.442 85.7982 128.442 85.89 128.5 85.9433C128.558 86.0011 128.649 86.0011 128.707 85.9433C128.707 85.9433 128.934 85.7538 129.15 85.5435C129.224 85.4739 129.294 85.3955 129.357 85.3259C129.471 85.203 129.555 85.1038 129.555 85.1038C129.613 85.046 129.613 84.9557 129.555 84.898C129.497 84.8402 129.401 84.8402 129.343 84.898Z" fill="#9D76AB"/>
<path fill-rule="evenodd" clip-rule="evenodd" d="M116.629 85.4208C116.629 85.4208 116.711 85.52 116.827 85.6429C116.89 85.708 116.959 85.7865 117.034 85.8606C117.25 86.0664 117.476 86.2603 117.476 86.2603C117.534 86.3181 117.626 86.3181 117.679 86.2603C117.737 86.2026 117.737 86.1123 117.679 86.059C117.679 86.059 117.489 85.828 117.278 85.6133C117.203 85.5392 117.129 85.4741 117.059 85.4119C116.934 85.2979 116.836 85.215 116.836 85.215C116.778 85.1572 116.687 85.1572 116.629 85.215C116.571 85.2683 116.571 85.363 116.629 85.4208Z" fill="#9D76AB"/>
<path fill-rule="evenodd" clip-rule="evenodd" d="M129.98 85.215C129.98 85.215 129.882 85.2979 129.757 85.4119C129.692 85.4741 129.613 85.5392 129.538 85.6133C129.327 85.828 129.137 86.059 129.137 86.059C129.079 86.1123 129.079 86.2026 129.137 86.2603C129.19 86.3181 129.285 86.3181 129.339 86.2603C129.339 86.2603 129.571 86.0664 129.787 85.8606C129.857 85.7865 129.927 85.708 129.989 85.6429C130.105 85.52 130.187 85.4208 130.187 85.4208C130.245 85.363 130.245 85.2683 130.187 85.215C130.129 85.1572 130.038 85.1572 129.98 85.215Z" fill="#9D76AB"/>
<path fill-rule="evenodd" clip-rule="evenodd" d="M123.637 56.33L120.003 56.6706L120.334 60.131L123.969 59.786L123.637 56.33Z" fill="#F6B99C"/>
<path fill-rule="evenodd" clip-rule="evenodd" d="M123.637 56.33L120.003 56.6706L120.136 58.021C121.376 58.4608 122.592 58.4356 123.765 57.679L123.637 56.33Z" fill="#F38B81"/>
<path fill-rule="evenodd" clip-rule="evenodd" d="M129.002 70.1118L117.269 70.0081L116.758 79.7422C118.8 80.1464 120.872 80.3227 122.968 80.2412C122.968 80.2412 123.071 77.5582 123.182 77.0237C123.22 76.8623 123.617 76.8549 123.654 77.0148C123.779 77.5493 123.923 80.2205 123.923 80.2205C125.87 80.3152 127.843 80.1302 129.852 79.4668C129.852 79.4668 129.323 73.5633 129.002 70.1118Z" fill="#D2D0F7"/>
<path fill-rule="evenodd" clip-rule="evenodd" d="M126.521 71.7334C126.611 72.0088 126.723 72.2354 126.855 72.4234C127.02 72.6588 127.211 72.8276 127.429 72.9461C127.566 73.0246 127.715 73.0779 127.868 73.1149C128.194 73.1978 128.558 73.1934 128.944 73.1401C128.972 73.1356 128.993 73.1105 128.988 73.0823C128.984 73.0571 128.96 73.0364 128.93 73.0409C128.558 73.0868 128.212 73.0823 127.896 73.0038C127.752 72.9668 127.615 72.9135 127.487 72.8439C127.285 72.7284 127.104 72.5715 126.946 72.3583C126.818 72.1806 126.702 71.9629 126.607 71.7038C126.598 71.6786 126.574 71.6668 126.549 71.6757C126.523 71.6831 126.512 71.7082 126.521 71.7334Z" fill="#8885B9"/>
<path fill-rule="evenodd" clip-rule="evenodd" d="M119.498 72.1403C119.445 72.4157 119.366 72.6452 119.266 72.8436C119.146 73.0775 118.99 73.2626 118.808 73.4062C118.692 73.4936 118.567 73.5676 118.432 73.6254C118.133 73.7572 117.791 73.8149 117.414 73.8268C117.389 73.8268 117.364 73.8519 117.368 73.8801C117.368 73.9052 117.389 73.9289 117.419 73.926C117.807 73.9215 118.167 73.8638 118.476 73.7364C118.625 73.6743 118.762 73.5958 118.886 73.501C119.08 73.35 119.241 73.1471 119.366 72.8924C119.469 72.6866 119.543 72.4438 119.589 72.1565C119.594 72.1314 119.577 72.1062 119.552 72.1032C119.527 72.0988 119.503 72.1151 119.498 72.1403Z" fill="#8885B9"/>
<path fill-rule="evenodd" clip-rule="evenodd" d="M123.223 72.3286C123.223 72.3286 123.232 72.7447 123.253 73.3C123.26 73.5961 123.274 73.9337 123.286 74.2758C123.295 74.4682 123.302 74.6667 123.311 74.8562C123.344 75.5995 123.372 76.2169 123.372 76.2169C123.372 76.2421 123.397 76.2673 123.425 76.2628C123.451 76.2628 123.476 76.2377 123.472 76.2125C123.472 76.2125 123.455 75.5965 123.43 74.8517C123.422 74.6622 123.414 74.4653 123.406 74.2669C123.393 73.9293 123.376 73.5932 123.364 73.2955C123.339 72.7403 123.318 72.3257 123.318 72.3257C123.314 72.3005 123.295 72.2798 123.269 72.2798C123.24 72.2798 123.219 72.305 123.223 72.3286Z" fill="#8885B9"/>
<path fill-rule="evenodd" clip-rule="evenodd" d="M124.065 72.3257C124.047 72.5848 124.014 72.798 123.972 72.9787C123.935 73.1445 123.886 73.2793 123.833 73.3903C123.705 73.6539 123.526 73.7782 123.319 73.8316C123.291 73.839 123.278 73.8641 123.282 73.8923C123.291 73.9174 123.315 73.9337 123.345 73.9263C123.58 73.8715 123.791 73.7412 123.94 73.4436C124.002 73.3252 124.051 73.1815 124.088 73.0083C124.126 72.8188 124.151 72.5967 124.158 72.3286C124.163 72.305 124.142 72.2798 124.114 72.2798C124.088 72.2798 124.068 72.3005 124.065 72.3257Z" fill="#8885B9"/>
<mask id="mask12_195_1696" style="mask-type:luminance" maskUnits="userSpaceOnUse" x="128" y="45" width="12" height="15">
<path d="M128.915 45.9671H140V59.6131H128.915V45.9671Z" fill="white"/>
</mask>
<g mask="url(#mask12_195_1696)">
<path fill-rule="evenodd" clip-rule="evenodd" d="M129.12 56.0948C132.312 54.734 136.269 49.9233 136.099 49.7012C135.946 49.5087 135.588 48.4307 135.851 47.526C135.943 47.2121 136.141 47.1425 136.264 47.3276C136.41 47.5334 136.563 48.4559 136.778 48.3315C136.947 48.2323 137.221 46.9456 137.895 46.3237C138.241 46.0024 138.606 46.1431 138.585 46.451C138.845 46.1016 139.254 46.263 139.226 46.6406C139.512 46.3859 139.772 46.765 139.756 46.9782C139.742 47.1218 139.503 47.5542 139.503 47.5542C139.503 47.5542 139.945 47.3439 140.011 47.7481C140.119 48.4174 138.899 49.6641 138.362 50.6355C137.179 52.7795 135.36 55.8312 130.948 59.4352L129.12 56.0948Z" fill="#F6B99C"/>
</g>
<path fill-rule="evenodd" clip-rule="evenodd" d="M139.206 46.6323C139.064 46.8411 138.941 47.0351 138.825 47.2275C138.739 47.3638 138.66 47.4955 138.585 47.6392C138.465 47.8583 138.358 48.0923 138.251 48.3514C138.237 48.3795 138.251 48.4136 138.279 48.421C138.304 48.4343 138.337 48.421 138.349 48.3973C138.46 48.1382 138.576 47.9161 138.697 47.6969C138.771 47.5622 138.85 47.4304 138.932 47.2942C139.048 47.1002 139.164 46.9033 139.296 46.6886C139.313 46.6604 139.305 46.6279 139.28 46.6116C139.255 46.5983 139.222 46.6027 139.206 46.6323Z" fill="#F38B81"/>
<path fill-rule="evenodd" clip-rule="evenodd" d="M138.506 46.4427C138.37 46.6559 138.242 46.8499 138.126 47.0424C138.044 47.1786 137.965 47.3104 137.886 47.4511C137.77 47.6732 137.659 47.9027 137.551 48.1662C137.54 48.1944 137.551 48.2284 137.58 48.2358C137.609 48.2491 137.638 48.2358 137.651 48.2121C137.763 47.953 137.879 47.7294 138.002 47.5118C138.077 47.377 138.155 47.2452 138.234 47.1046C138.349 46.915 138.469 46.7181 138.602 46.5034C138.618 46.4753 138.611 46.4427 138.581 46.4264C138.556 46.4101 138.523 46.4175 138.506 46.4427Z" fill="#F38B81"/>
<path fill-rule="evenodd" clip-rule="evenodd" d="M112.436 68.2727C112.399 68.326 111.879 69.1404 111.825 69.2604C111.63 69.6957 111.874 70.9424 111.846 71.1764C111.809 71.4399 111.519 71.5273 111.391 71.3289C111.188 71.0165 111.154 70.5189 110.961 70.5974C110.671 70.7129 110.343 71.0165 109.748 71.6413C109.409 71.9952 108.993 71.7405 109.054 71.4281C108.724 71.5391 108.355 71.2593 108.5 70.9098C108.024 70.8684 108.073 70.2806 108.335 70.1532C108.335 70.1532 107.917 70.1813 107.999 69.7253C108.124 69.0294 109.595 68.0343 109.595 68.0343C110.485 66.7373 114.363 60.8426 114.363 60.8426L116.848 62.8416C116.848 62.8416 113.438 66.9061 112.436 68.2727Z" fill="#F6B99C"/>
<path fill-rule="evenodd" clip-rule="evenodd" d="M109.099 71.4608C109.174 71.3542 109.256 71.2595 109.334 71.1691C109.393 71.1069 109.451 71.0462 109.509 70.9885C109.55 70.9426 109.595 70.8982 109.641 70.8523C109.744 70.7501 109.855 70.6509 109.968 70.5606C109.988 70.5472 109.992 70.5191 109.98 70.5028C109.968 70.4821 109.938 70.4776 109.918 70.4895C109.79 70.5724 109.669 70.6583 109.55 70.7575C109.504 70.799 109.455 70.8434 109.404 70.8893C109.348 70.9515 109.29 71.0122 109.236 71.0833C109.153 71.181 109.079 71.2846 109.004 71.4001C108.988 71.4238 108.995 71.4564 109.021 71.4742C109.046 71.4904 109.079 71.486 109.099 71.4608Z" fill="#F38B81"/>
<path fill-rule="evenodd" clip-rule="evenodd" d="M108.565 70.9351C108.639 70.8314 108.723 70.7366 108.804 70.6463C108.86 70.5812 108.916 70.519 108.974 70.4612C109.02 70.4153 109.062 70.3709 109.106 70.3295C109.215 70.2228 109.322 70.1236 109.438 70.0378C109.455 70.0215 109.459 69.9963 109.446 69.9756C109.429 69.9548 109.404 69.9504 109.385 69.9637C109.26 70.0452 109.136 70.1325 109.02 70.2302C108.971 70.2717 108.921 70.3176 108.876 70.362C108.813 70.4242 108.755 70.4894 108.702 70.556C108.619 70.6552 108.544 70.7618 108.474 70.8729C108.458 70.898 108.462 70.9306 108.486 70.9469C108.511 70.9676 108.544 70.9587 108.565 70.9351Z" fill="#F38B81"/>
<path fill-rule="evenodd" clip-rule="evenodd" d="M108.38 70.1605C108.454 70.0583 108.537 69.9635 108.616 69.8732C108.673 69.8066 108.731 69.7488 108.789 69.6881C108.83 69.6422 108.876 69.5978 108.921 69.5563C109.025 69.4527 109.132 69.355 109.248 69.2632C109.269 69.2513 109.274 69.2232 109.26 69.2025C109.244 69.1862 109.219 69.1773 109.199 69.1936C109.07 69.2721 108.951 69.3624 108.83 69.4616C108.781 69.503 108.735 69.543 108.686 69.5934C108.628 69.6511 108.57 69.7163 108.512 69.7859C108.433 69.8806 108.359 69.9872 108.284 70.0998C108.268 70.1235 108.277 70.1605 108.301 70.1768C108.326 70.193 108.359 70.1856 108.38 70.1605Z" fill="#F38B81"/>
<path fill-rule="evenodd" clip-rule="evenodd" d="M116.732 72.3461C120.607 72.7652 126.553 72.7444 129.638 71.4118C129.38 67.796 129.017 64.4792 128.69 62.5247C129.687 61.9532 130.746 61.3446 131.824 60.5583L129.906 55.4899L123.746 57.8753C123.746 57.8753 123.816 59.2953 122.252 59.4478C120.37 59.624 120.152 58.2174 120.152 58.2174C120.152 58.2174 119.218 58.3077 118.205 58.4025C116.583 58.555 115.036 59.6818 114.074 60.7479C113.172 61.7429 112.424 63.0592 112.424 63.0592L115.765 65.5897L116.439 64.9234L116.646 65.8118C117.096 68.1617 116.881 70.362 116.732 72.3461Z" fill="#8597CF"/>
<path fill-rule="evenodd" clip-rule="evenodd" d="M116.711 65.6936C116.699 65.5989 116.683 65.4996 116.666 65.4004C116.65 65.3057 116.629 65.2124 116.604 65.1132C116.592 65.0599 116.574 65.0021 116.558 64.9444C116.518 64.817 116.467 64.6853 116.413 64.5535C116.402 64.5165 116.36 64.5002 116.323 64.512C116.286 64.5253 116.269 64.5653 116.281 64.6023C116.318 64.7134 116.348 64.8244 116.381 64.9355C116.409 65.0391 116.434 65.1458 116.463 65.2494C116.504 65.4049 116.546 65.5618 116.579 65.7173C116.587 65.7543 116.62 65.7795 116.657 65.7706C116.695 65.7676 116.72 65.7306 116.711 65.6936Z" fill="#5E5757"/>
<path fill-rule="evenodd" clip-rule="evenodd" d="M128.392 61.7565C128.392 61.7565 128.421 61.8868 128.462 62.06C128.488 62.1548 128.511 62.2614 128.541 62.365C128.557 62.4257 128.578 62.4879 128.595 62.5457C128.665 62.7722 128.727 62.9647 128.727 62.9647C128.739 63.0017 128.776 63.0224 128.813 63.0106C128.851 63.0017 128.876 62.9617 128.864 62.9247C128.864 62.9247 128.818 62.7308 128.757 62.5012C128.743 62.4391 128.727 62.3769 128.711 62.3191C128.678 62.2125 128.644 62.1103 128.615 62.0185C128.562 61.8468 128.52 61.7194 128.52 61.7194C128.511 61.6854 128.474 61.6647 128.437 61.6735C128.4 61.6854 128.38 61.7194 128.392 61.7565Z" fill="#5E5757"/>
<path fill-rule="evenodd" clip-rule="evenodd" d="M119.924 36.4703C112.101 36.5606 110.6 41.8304 110.6 41.8304C110.6 41.8304 105.53 42.9128 109.645 50.3799C112.18 54.9715 115.21 54.1394 115.21 54.1394L127.217 51.8532C127.217 51.8532 131.663 51.7007 131.44 46.6515C131.108 39.1725 127.177 36.3873 119.924 36.4703Z" fill="#3B3A5D"/>
<path fill-rule="evenodd" clip-rule="evenodd" d="M127.822 41.9251C125.338 38.5477 121.504 37.4934 118.663 38.0087C115.819 38.5225 111.841 40.8013 111.126 45.0272C110.438 49.0917 112.13 50.4243 112.457 52.0782C113.268 56.1605 116.744 58.6866 122.488 57.6205C127.777 56.6417 130.022 53.017 129.418 49.0917C129.141 47.2823 129.985 44.8628 127.822 41.9251Z" fill="#F6B99C"/>
<path fill-rule="evenodd" clip-rule="evenodd" d="M115.145 52.2474C115.145 52.2474 115.061 52.2726 114.959 52.3185C114.922 52.3377 114.88 52.3555 114.843 52.3747C114.801 52.3999 114.768 52.4295 114.736 52.4532C114.648 52.5272 114.59 52.5894 114.59 52.5894C114.545 52.6176 114.532 52.6798 114.562 52.7286C114.59 52.7745 114.652 52.7864 114.698 52.7582C114.698 52.7582 114.78 52.7331 114.884 52.6886C114.922 52.6724 114.962 52.6516 114.999 52.6265C115.036 52.6013 115.07 52.5731 115.103 52.5435C115.186 52.4695 115.243 52.4088 115.243 52.4088C115.289 52.3836 115.301 52.3214 115.277 52.277C115.247 52.2355 115.189 52.2237 115.145 52.2474Z" fill="#F38B81"/>
<path fill-rule="evenodd" clip-rule="evenodd" d="M127.359 50.0381C127.359 50.0381 127.442 50.0337 127.557 50.0381C127.599 50.0426 127.64 50.0426 127.686 50.0515C127.731 50.0589 127.773 50.0707 127.81 50.0885C127.917 50.1255 127.996 50.1625 127.996 50.1625C128.049 50.1744 128.082 50.2277 128.075 50.281C128.063 50.3343 128.008 50.3713 127.954 50.3594C127.954 50.3594 127.868 50.3639 127.756 50.3594C127.715 50.355 127.669 50.3506 127.628 50.3387C127.582 50.3313 127.541 50.3135 127.503 50.3017C127.396 50.2602 127.317 50.2232 127.317 50.2232C127.268 50.2114 127.236 50.1625 127.243 50.1122C127.255 50.0589 127.306 50.0263 127.359 50.0381Z" fill="#F38B81"/>
<path fill-rule="evenodd" clip-rule="evenodd" d="M115.393 52.6173C115.393 52.6173 115.326 52.6721 115.247 52.7491C115.214 52.7831 115.186 52.8113 115.156 52.8483C115.131 52.8808 115.107 52.9223 115.086 52.9549C115.033 53.0541 115.003 53.137 115.003 53.137C114.97 53.1814 114.982 53.2436 115.024 53.2762C115.07 53.3088 115.131 53.3014 115.165 53.2555C115.165 53.2555 115.235 53.2022 115.314 53.1192C115.338 53.0911 115.372 53.0585 115.396 53.0215C115.421 52.9845 115.442 52.9475 115.463 52.9105C115.516 52.8113 115.545 52.7283 115.545 52.7283C115.579 52.6884 115.565 52.6306 115.524 52.598C115.484 52.5684 115.426 52.5773 115.393 52.6173Z" fill="#F38B81"/>
<path fill-rule="evenodd" clip-rule="evenodd" d="M127.255 50.47C127.255 50.47 127.333 50.4982 127.442 50.5441C127.479 50.5603 127.516 50.5811 127.557 50.6018C127.594 50.627 127.628 50.6551 127.661 50.6803C127.743 50.7543 127.801 50.8195 127.801 50.8195C127.847 50.8491 127.863 50.9098 127.83 50.9557C127.801 51.0046 127.74 51.0179 127.693 50.9838C127.693 50.9838 127.612 50.9601 127.507 50.9098C127.47 50.8935 127.429 50.8728 127.391 50.8491C127.359 50.8239 127.326 50.7958 127.292 50.7662C127.21 50.6921 127.152 50.6299 127.152 50.6299C127.106 50.6018 127.094 50.5441 127.124 50.4982C127.152 50.4537 127.21 50.4419 127.255 50.47Z" fill="#F38B81"/>
<path fill-rule="evenodd" clip-rule="evenodd" d="M112.924 52.0296C113.821 49.4917 113.18 45.5042 113.18 45.5042C116.104 46.1631 124.187 45.3191 122.637 42.7027C124.034 44.1301 126.636 44.9045 128.033 43.6444C128.033 43.6444 128.091 47.2943 129.434 49.0268L130.828 48.8283L130.633 44.9415L127.255 39.9797L123.332 37.3293L118.307 37.6343L111.89 40.9377L109.711 46.8294L112.387 52.3302L112.924 52.0296Z" fill="#3B3A5D"/>
<path fill-rule="evenodd" clip-rule="evenodd" d="M129.02 49.1425C129.02 49.1425 131.374 47.9032 132.345 49.6607C132.891 50.6395 132.254 52.8605 129.977 53.2973C128.79 53.5239 128.165 52.5407 128.165 52.5407L129.02 49.1425Z" fill="#F6B99C"/>
<path fill-rule="evenodd" clip-rule="evenodd" d="M112.924 52.0546C112.924 52.0546 110.286 51.7215 109.996 53.7041C109.836 54.8147 111.216 56.67 113.502 56.2791C114.694 56.0732 114.929 54.939 114.929 54.939L112.924 52.0546Z" fill="#F6B99C"/>
<path fill-rule="evenodd" clip-rule="evenodd" d="M130.577 50.602C130.535 51.104 130.431 51.372 130.307 51.5067C130.208 51.6104 130.092 51.597 130.01 51.56C129.968 51.5393 129.931 51.5156 129.922 51.4949C129.864 51.3631 129.861 51.2195 129.898 51.0788C129.952 50.8774 130.089 50.6835 130.286 50.5324C130.568 50.3266 130.96 50.2067 131.441 50.2733C131.494 50.2807 131.543 50.2481 131.552 50.1948C131.56 50.1445 131.523 50.0956 131.474 50.0882C130.795 49.952 130.24 50.1697 129.919 50.5028C129.77 50.6553 129.671 50.8286 129.625 51.0092C129.571 51.2106 129.587 51.4208 129.675 51.6059C129.699 51.6503 129.749 51.7081 129.824 51.7584C129.989 51.8562 130.266 51.9228 130.484 51.6681C130.626 51.5023 130.742 51.1899 130.754 50.6094C130.758 50.5606 130.716 50.5191 130.667 50.5191C130.621 50.5161 130.577 50.5532 130.577 50.602Z" fill="#F38B81"/>
<path fill-rule="evenodd" clip-rule="evenodd" d="M111.825 54.0376C112.039 54.5765 112.262 54.8268 112.448 54.9304C112.746 55.0948 112.982 54.9393 113.103 54.7824C113.156 54.7128 113.18 54.6387 113.185 54.5928C113.201 54.387 113.143 54.1856 113.024 54.0124C112.915 53.8643 112.759 53.7325 112.569 53.6422C112.151 53.4453 111.556 53.4364 110.968 53.7992C110.923 53.8243 110.907 53.8806 110.931 53.9265C110.961 53.9724 111.019 53.9887 111.063 53.9635C111.486 53.7296 111.899 53.7044 112.234 53.8036C112.473 53.8688 112.671 54.005 112.792 54.1767C112.878 54.2922 112.924 54.4285 112.915 54.5721C112.915 54.5973 112.891 54.6298 112.859 54.6669C112.792 54.729 112.689 54.7824 112.56 54.7157C112.395 54.6387 112.204 54.4196 111.99 53.968C111.969 53.9221 111.916 53.9013 111.874 53.9221C111.828 53.9384 111.804 53.9917 111.825 54.0376Z" fill="#F38B81"/>
<path fill-rule="evenodd" clip-rule="evenodd" d="M120.911 52.2728C120.986 52.2106 121.09 52.1869 121.192 52.1662C121.222 52.1573 121.25 52.1528 121.28 52.1499C121.309 52.1454 121.338 52.1365 121.367 52.1365C121.457 52.1247 121.548 52.1158 121.636 52.1454C121.685 52.1706 121.747 52.1499 121.773 52.0966C121.796 52.0462 121.773 51.9855 121.722 51.9603C121.631 51.9026 121.532 51.8656 121.42 51.8493C121.355 51.836 121.28 51.8404 121.21 51.8537C121.139 51.87 121.073 51.8937 121.011 51.9278C120.916 51.9855 120.834 52.0507 120.772 52.1365C120.739 52.1736 120.739 52.2358 120.776 52.2728C120.813 52.3098 120.874 52.3098 120.911 52.2728Z" fill="#F38B81"/>
<path fill-rule="evenodd" clip-rule="evenodd" d="M119.808 54.1206C120.135 54.3013 120.516 54.4168 120.909 54.4493C121.16 54.4745 121.425 54.4656 121.681 54.4197C121.934 54.3753 122.182 54.2968 122.417 54.1858C122.765 54.0214 123.079 53.7875 123.332 53.4869C123.369 53.4454 123.365 53.3832 123.323 53.3462C123.281 53.3092 123.219 53.3136 123.182 53.3551C122.93 53.6098 122.628 53.7993 122.301 53.9355C122.087 54.0259 121.859 54.0866 121.627 54.128C121.392 54.1695 121.156 54.1902 120.925 54.1813C120.561 54.1695 120.209 54.0999 119.896 53.9518C119.845 53.9266 119.787 53.9474 119.766 53.9918C119.742 54.0377 119.763 54.0954 119.808 54.1206Z" fill="#D75E51"/>
<path fill-rule="evenodd" clip-rule="evenodd" d="M116.79 45.8298C116.19 45.5944 115.524 45.6077 114.933 45.8535C114.371 46.089 113.89 46.545 113.585 47.1832C113.502 47.3638 113.585 47.5815 113.771 47.6644C113.957 47.7473 114.171 47.6644 114.255 47.4793C114.457 46.9937 114.801 46.6442 115.205 46.4384C115.649 46.2118 116.157 46.1378 116.641 46.274C116.761 46.3155 116.894 46.2489 116.934 46.126C116.98 46.0016 116.91 45.8713 116.79 45.8298Z" fill="#3B3A5D"/>
<path fill-rule="evenodd" clip-rule="evenodd" d="M123.593 45.0154C123.993 44.7193 124.497 44.6082 124.989 44.6645C125.44 44.7193 125.886 44.9236 126.246 45.3115C126.392 45.4507 126.623 45.4552 126.767 45.3115C126.913 45.1709 126.913 44.9414 126.767 44.7963C126.26 44.3076 125.647 44.0485 125.04 44.0278C124.402 44.0026 123.77 44.2203 123.295 44.6526C123.195 44.7355 123.179 44.8836 123.261 44.9813C123.344 45.0806 123.488 45.0968 123.593 45.0154Z" fill="#3B3A5D"/>
<path fill-rule="evenodd" clip-rule="evenodd" d="M118.287 49.1658C117.555 48.8445 116.749 48.9482 116.107 49.3065C115.393 49.7092 114.885 50.4422 114.859 51.2595C114.855 51.3913 114.955 51.5024 115.074 51.5112C115.199 51.5157 115.298 51.412 115.298 51.2847C115.294 50.6065 115.712 50.0009 116.286 49.6352C116.839 49.2813 117.547 49.1421 118.217 49.3805C118.27 49.4042 118.333 49.3761 118.354 49.3139C118.374 49.2532 118.34 49.1866 118.287 49.1658Z" fill="#3D3D4B"/>
<path fill-rule="evenodd" clip-rule="evenodd" d="M123.216 48.4789C123.753 48.0184 124.464 47.9029 125.114 48.0391C125.779 48.1783 126.383 48.5988 126.618 49.2325C126.668 49.3554 126.796 49.4176 126.908 49.3673C127.019 49.3184 127.068 49.1822 127.024 49.0593C126.705 48.3027 125.974 47.7918 125.158 47.6689C124.431 47.5579 123.646 47.7429 123.074 48.2982C123.025 48.3397 123.021 48.4137 123.063 48.4626C123.1 48.5114 123.17 48.5203 123.216 48.4789Z" fill="#3D3D4B"/>
<path fill-rule="evenodd" clip-rule="evenodd" d="M117.171 49.8531C117.808 49.7376 118.415 50.1581 118.528 50.7918C118.642 51.4211 118.226 52.0252 117.589 52.1407C116.956 52.2562 116.349 51.8357 116.233 51.2064C116.117 50.5771 116.538 49.9686 117.171 49.8531Z" fill="#3D3D4B"/>
<path fill-rule="evenodd" clip-rule="evenodd" d="M124.362 48.5531C123.725 48.6686 123.307 49.2727 123.419 49.9035C123.535 50.5358 124.142 50.9518 124.778 50.8408C125.412 50.7253 125.833 50.1212 125.717 49.4874C125.603 48.8581 124.994 48.4376 124.362 48.5531Z" fill="#3D3D4B"/>
<path fill-rule="evenodd" clip-rule="evenodd" d="M123.588 48.8164C123.414 48.8446 123.298 49.0133 123.332 49.1866C123.36 49.3643 123.53 49.4783 123.704 49.4457C123.881 49.4131 123.993 49.2488 123.964 49.0711C123.932 48.8993 123.765 48.7838 123.588 48.8164Z" fill="white"/>
<path fill-rule="evenodd" clip-rule="evenodd" d="M116.36 50.1256C116.186 50.1538 116.07 50.3226 116.104 50.4958C116.133 50.672 116.302 50.7875 116.476 50.7549C116.653 50.7209 116.769 50.5565 116.737 50.3803C116.704 50.2071 116.537 50.0916 116.36 50.1256Z" fill="white"/>
<mask id="mask13_195_1696" style="mask-type:luminance" maskUnits="userSpaceOnUse" x="36" y="75" width="6" height="13">
<path d="M36.3781 75.1535H41.3287V88H36.3781V75.1535Z" fill="white"/>
</mask>
<g mask="url(#mask13_195_1696)">
<path fill-rule="evenodd" clip-rule="evenodd" d="M36.7119 75.5291H41.2564L40.5334 85.2972L40.7357 87.7404H36.7655L36.7119 75.5291Z" fill="#F6B99C"/>
</g>
<path fill-rule="evenodd" clip-rule="evenodd" d="M29.7004 72.5686L34.1824 74.7896C34.1824 74.7896 31.1895 79.0022 30.8533 79.3443C30.1601 80.0565 26.3922 82.2938 26.3922 82.2938L24.6636 84.0469L22.0709 81.0604L28.0761 75.8469L29.7004 72.5686Z" fill="#F6B99C"/>
<path fill-rule="evenodd" clip-rule="evenodd" d="M36.7129 75.53H41.2573L41.1249 78.6898L40.9018 80.3733C39.5422 80.8783 38.1558 81.0796 36.7382 80.9286L36.6222 78.9208L36.7129 75.53Z" fill="#F38B81"/>
<path fill-rule="evenodd" clip-rule="evenodd" d="M31.3176 73.0328L34.2897 76.4518L31.801 78.4181C31.4336 78.7838 31.1391 79.154 30.6883 79.5079C29.415 78.8164 28.0465 77.7474 27.2283 76.5835L28.6831 75.1798L31.3176 73.0328Z" fill="#F38B81"/>
<mask id="mask14_195_1696" style="mask-type:luminance" maskUnits="userSpaceOnUse" x="36" y="85" width="8" height="3">
<path d="M36.3781 85.0088H43.9943V87.9998H36.3781V85.0088Z" fill="white"/>
</mask>
<g mask="url(#mask14_195_1696)">
<path fill-rule="evenodd" clip-rule="evenodd" d="M36.7058 85.7202C36.7058 85.7202 38.4552 86.1185 39.0086 86.1066C39.3968 86.0978 39.9888 84.9428 40.6166 85.0494C41.4645 85.1931 42.4701 85.8549 43.3343 86.2917C43.6973 86.4724 43.8758 86.8929 43.7434 87.2794C43.7479 87.2794 43.7479 87.2794 43.7479 87.2794C43.6021 87.7117 43.1975 87.999 42.7423 87.999C40.9691 87.999 36.7133 87.999 36.7133 87.999C36.6806 87.2542 36.6523 86.505 36.7058 85.7202Z" fill="#293455"/>
</g>
<path fill-rule="evenodd" clip-rule="evenodd" d="M23.5642 79.6886C23.5642 79.6886 24.4032 81.2685 24.7751 81.6802C25.0354 81.9645 26.3013 81.652 26.6315 82.194C27.0793 82.9269 27.231 84.1159 27.463 85.0547C27.5672 85.4456 27.3604 85.8528 26.9841 86.0082C26.5616 86.1815 26.0781 86.066 25.7762 85.7239C24.6189 84.3869 21.8357 81.1871 21.8357 81.1871C22.3771 80.6718 22.932 80.1669 23.5642 79.6886Z" fill="#293455"/>
<path fill-rule="evenodd" clip-rule="evenodd" d="M41.3081 85.1414C41.3081 85.1414 41.2293 85.2361 41.1133 85.359C41.0508 85.4286 40.9809 85.5027 40.911 85.5737C40.6997 85.7825 40.4721 85.972 40.4721 85.972C40.4141 86.0253 40.3234 86.0253 40.2698 85.972C40.2118 85.9143 40.2118 85.824 40.2698 85.7707C40.2698 85.7707 40.4602 85.5441 40.667 85.3353C40.7369 85.2598 40.8158 85.1902 40.8812 85.1325C41.0062 85.0185 41.1014 84.9356 41.1014 84.9356C41.1594 84.8778 41.2501 84.8778 41.3081 84.9356C41.3647 84.9933 41.3647 85.0836 41.3081 85.1414Z" fill="#616E97"/>
<path fill-rule="evenodd" clip-rule="evenodd" d="M27.0376 82.4873C27.0376 82.4873 26.9126 82.4665 26.743 82.4502C26.6523 82.4369 26.5541 82.4251 26.45 82.4177C26.1525 82.3999 25.8594 82.4043 25.8594 82.4043C25.7806 82.3999 25.7107 82.4576 25.7062 82.5361C25.6973 82.6146 25.7598 82.6842 25.8386 82.6886C25.8386 82.6886 26.1272 82.733 26.4247 82.7582C26.5244 82.7671 26.6285 82.7701 26.7192 82.7701C26.8888 82.7789 27.0167 82.7745 27.0167 82.7745C27.0956 82.7834 27.1655 82.7212 27.17 82.6427C27.1774 82.5613 27.1164 82.4917 27.0376 82.4873Z" fill="#616E97"/>
<path fill-rule="evenodd" clip-rule="evenodd" d="M41.9353 85.4534C41.9353 85.4534 41.852 85.5481 41.7374 85.671C41.6794 85.7376 41.608 85.8161 41.5336 85.8857C41.3239 86.0915 41.0963 86.2811 41.0963 86.2811C41.0428 86.3373 40.952 86.3373 40.897 86.2811C40.839 86.2263 40.839 86.1359 40.897 86.0826C40.897 86.0826 41.0874 85.8561 41.2941 85.6473C41.3641 85.5733 41.4399 85.5022 41.5054 85.4415C41.6333 85.3305 41.7285 85.2475 41.7285 85.2475C41.7865 85.1898 41.8773 85.1898 41.9353 85.2475C41.9933 85.3053 41.9933 85.3956 41.9353 85.4534Z" fill="#616E97"/>
<path fill-rule="evenodd" clip-rule="evenodd" d="M27.2121 83.161C27.2121 83.161 27.0871 83.1447 26.9175 83.124C26.8268 83.1122 26.7241 83.1003 26.6245 83.0959C26.327 83.0752 26.0324 83.0796 26.0324 83.0796C25.9506 83.0752 25.8837 83.1329 25.8807 83.2114C25.8718 83.2899 25.9343 83.3594 26.0116 83.3639C26.0116 83.3639 26.3017 83.4127 26.5992 83.4335C26.7033 83.4409 26.8015 83.4453 26.8937 83.4498C27.0633 83.4542 27.1868 83.4542 27.1868 83.4542C27.2686 83.4572 27.34 83.3965 27.3444 83.318C27.3519 83.2395 27.2894 83.1699 27.2121 83.161Z" fill="#616E97"/>
<path fill-rule="evenodd" clip-rule="evenodd" d="M35.5461 37.8073C25.5156 37.7866 24.5443 44.4838 24.1099 49.1983C23.6264 54.4533 24.0355 56.7439 24.0355 56.7439C31.8168 58.3401 39.0909 58.5059 47.1325 56.7854C47.1325 56.7854 47.4434 53.4331 47.0953 49.3093C46.658 44.1388 45.3921 37.8236 35.5461 37.8073Z" fill="#533134"/>
<path fill-rule="evenodd" clip-rule="evenodd" d="M33.7893 56.9296H37.3906V60.3574H33.7893V56.9296Z" fill="#F6B99C"/>
<path fill-rule="evenodd" clip-rule="evenodd" d="M33.7893 56.9296H37.3906V58.2667C36.2125 58.8145 35.0135 58.9004 33.7893 58.2667V56.9296Z" fill="#F38B81"/>
<path fill-rule="evenodd" clip-rule="evenodd" d="M22.4888 53.445C22.2776 53.2511 22.1824 51.8725 21.3479 51.1529C21.0578 50.9071 20.8273 50.9604 20.8183 51.2195C20.8109 51.5112 21.2735 52.6884 20.9805 52.7047C20.7484 52.7121 19.487 51.2358 19.0363 51.0715C18.6436 50.9308 18.5037 51.2403 18.5736 51.4209C18.7388 51.8444 20.1772 53.2762 20.1772 53.2762C20.1772 53.2762 18.3788 52.0295 17.937 51.8814C17.4937 51.7333 17.2587 52.2027 17.4773 52.4041C17.0311 52.2768 16.8332 52.6425 17.1679 53.0127C17.4773 53.3591 19.1151 54.3542 19.1151 54.3542C19.1151 54.3542 17.6767 54.0625 17.3375 54.2964C17.043 54.4978 17.3747 54.7776 17.6841 54.8813C18.2509 55.0664 18.7388 54.9672 19.2386 55.247C19.9868 55.6631 20.3096 55.5224 20.625 55.7564C21.4967 56.399 28.7082 61.6614 28.7082 61.6614L29.217 57.2297C29.217 57.2297 23.0511 53.9588 22.4888 53.445Z" fill="#F6B99C"/>
<path fill-rule="evenodd" clip-rule="evenodd" d="M20.9928 53.9726C20.8886 53.9267 20.7771 53.9104 20.6655 53.9149C20.5584 53.9149 20.4468 53.9386 20.3427 53.9845C20.1493 54.0659 19.9708 54.214 19.8637 54.4331C19.8518 54.4657 19.8146 54.4775 19.7804 54.4657C19.7521 54.4494 19.7358 54.4124 19.7521 54.3798C19.8637 54.1281 20.0586 53.943 20.2862 53.8438C20.3561 53.8157 20.4349 53.7949 20.5093 53.7831C20.6908 53.7535 20.8767 53.7742 21.0418 53.8527C21.0746 53.869 21.0924 53.906 21.0746 53.9386C21.0627 53.9726 21.0255 53.9845 20.9928 53.9726Z" fill="#F38B81"/>
<path fill-rule="evenodd" clip-rule="evenodd" d="M17.5146 52.3509C17.7675 52.499 18.0025 52.6352 18.2256 52.7744C18.3833 52.8736 18.5365 52.9713 18.6897 53.0794C18.9292 53.2482 19.1687 53.4333 19.4172 53.6509C19.4454 53.6717 19.4454 53.7131 19.4246 53.7368C19.4008 53.762 19.3636 53.7664 19.3339 53.7457C19.0825 53.5355 18.8415 53.3622 18.602 53.1979C18.4532 53.0957 18.3 53.0009 18.1438 52.8973C17.9237 52.7581 17.6961 52.6174 17.4447 52.4619C17.4149 52.4412 17.4075 52.4042 17.4239 52.3716C17.4447 52.342 17.4819 52.3346 17.5146 52.3509Z" fill="#F38B81"/>
<path fill-rule="evenodd" clip-rule="evenodd" d="M45.607 69.0086C45.6531 69.0589 46.2318 69.8319 46.2943 69.9474C46.5218 70.3708 46.3761 71.6294 46.4222 71.8604C46.4802 72.1195 46.7732 72.1802 46.8848 71.9789C47.0633 71.6546 47.0588 71.1526 47.2612 71.2178C47.5557 71.3081 47.9067 71.588 48.5479 72.164C48.9108 72.4942 49.308 72.2099 49.2262 71.9019C49.5609 71.9878 49.9075 71.6783 49.7379 71.3422C50.205 71.2637 50.1143 70.6833 49.8465 70.5722C49.8465 70.5722 50.26 70.5722 50.1485 70.1236C49.97 69.441 48.4229 68.557 48.4229 68.557C47.4397 67.331 43.1228 61.7473 43.1228 61.7473L40.8023 63.9239C40.8023 63.9239 44.5077 67.7204 45.607 69.0086Z" fill="#F6B99C"/>
<path fill-rule="evenodd" clip-rule="evenodd" d="M49.1843 71.9346C49.0981 71.8398 49.0103 71.7495 48.924 71.6621C48.8615 71.6044 48.7991 71.5481 48.7381 71.4933C48.692 71.4533 48.6429 71.4119 48.5968 71.3704C48.4807 71.2757 48.3662 71.1853 48.2457 71.1024C48.2249 71.0906 48.216 71.0654 48.2293 71.0461C48.2412 71.0254 48.271 71.0165 48.2903 71.0284C48.4227 71.0995 48.5521 71.1764 48.6756 71.2682C48.7292 71.3082 48.7797 71.3452 48.8288 71.3911C48.8943 71.4445 48.9567 71.5066 49.0192 71.5673C49.1055 71.6592 49.1888 71.7613 49.2676 71.8679C49.287 71.8887 49.284 71.9257 49.2587 71.942C49.2379 71.9627 49.2007 71.9583 49.1843 71.9346Z" fill="#F38B81"/>
<path fill-rule="evenodd" clip-rule="evenodd" d="M49.6724 71.3702C49.5891 71.271 49.5028 71.1852 49.412 71.0993C49.354 71.0415 49.2915 70.9882 49.2291 70.9305C49.18 70.889 49.1354 70.8476 49.0892 70.8061C48.9732 70.7128 48.8572 70.621 48.7382 70.5396C48.7174 70.5262 48.7084 70.5026 48.7218 70.4818C48.7337 70.4611 48.762 70.4522 48.7828 70.4655C48.9152 70.5351 49.0431 70.6136 49.1681 70.7039C49.2216 70.7454 49.2707 70.7824 49.3213 70.8268C49.3868 70.8801 49.4492 70.9423 49.5117 71.0045C49.598 71.0948 49.6798 71.197 49.7586 71.3051C49.7795 71.3258 49.775 71.3628 49.7512 71.3791C49.7259 71.3999 49.6932 71.3954 49.6724 71.3702Z" fill="#F38B81"/>
<path fill-rule="evenodd" clip-rule="evenodd" d="M49.8001 70.589C49.7168 70.4898 49.6305 70.3995 49.5397 70.318C49.4817 70.2558 49.4193 70.2025 49.3583 70.1448C49.3077 70.1078 49.2631 70.0619 49.2169 70.0249C49.1009 69.9271 48.9849 69.8368 48.8659 69.7583C48.8451 69.7465 48.8361 69.7169 48.8495 69.6961C48.8614 69.6754 48.8912 69.6725 48.9105 69.6843C49.0429 69.7539 49.1723 69.8324 49.2958 69.9227C49.3493 69.9597 49.3984 70.0012 49.449 70.0426C49.5145 70.1004 49.5769 70.1566 49.6394 70.2233C49.7257 70.3136 49.809 70.4128 49.8863 70.5194C49.9072 70.5446 49.9042 70.5772 49.8789 70.5979C49.8536 70.6142 49.8209 70.6097 49.8001 70.589Z" fill="#F38B81"/>
<path fill-rule="evenodd" clip-rule="evenodd" d="M28.5343 74.2803C28.869 73.7369 29.1501 71.8475 29.1055 71.8401L29.4566 64.3478L25.8508 61.921L28.5804 56.4898L33.827 58.4606C33.827 58.4606 33.8939 59.8628 35.4439 59.8628C37.3093 59.8628 37.3956 58.4606 37.3956 58.4606C37.3956 58.4606 40.4644 58.5998 41.7213 59.115C43.0765 59.6747 45.3346 63.1307 45.3346 63.1307L41.638 65.5087C41.638 65.5087 41.522 69.6961 41.5428 71.7898C41.5592 74.2551 41.7585 80.3112 41.7585 80.3112C35.9363 80.7095 30.8415 79.747 27.2565 75.9461C27.2565 75.9461 28.2487 74.7438 28.5343 74.2803Z" fill="#AA6CB1"/>
<path fill-rule="evenodd" clip-rule="evenodd" d="M29.7046 63.2249C29.7046 63.2249 29.7046 63.3359 29.7002 63.484C29.7002 63.561 29.6957 63.6528 29.6912 63.7431C29.6749 64.0022 29.6421 64.2614 29.6421 64.2614C29.6377 64.3221 29.5841 64.368 29.5217 64.368C29.4607 64.3635 29.4101 64.3102 29.4146 64.248C29.4146 64.248 29.4101 63.9859 29.4235 63.7268C29.4265 63.635 29.4354 63.5491 29.4443 63.4662C29.4607 63.3182 29.4726 63.2115 29.4726 63.2115C29.477 63.1464 29.5306 63.1005 29.5931 63.1005C29.6585 63.1049 29.7046 63.1582 29.7046 63.2249Z" fill="#864B8C"/>
<path fill-rule="evenodd" clip-rule="evenodd" d="M41.4311 63.3804C41.4311 63.3804 41.4356 63.5906 41.443 63.8779C41.4475 64.0304 41.4564 64.2036 41.4639 64.3769C41.4936 64.8744 41.5427 65.3675 41.5427 65.3675C41.5472 65.4874 41.6052 65.5777 41.6662 65.5733C41.7286 65.5688 41.7748 65.4711 41.7658 65.3512C41.7658 65.3512 41.7614 64.8581 41.7331 64.3591C41.7242 64.1873 41.7123 64.0141 41.7004 63.8616C41.6796 63.5773 41.6587 63.3685 41.6587 63.3685C41.6543 63.2441 41.5963 63.1509 41.5338 63.1538C41.4683 63.1583 41.4222 63.2619 41.4311 63.3804Z" fill="#864B8C"/>
<path fill-rule="evenodd" clip-rule="evenodd" d="M43.8293 43.6982C41.9937 39.9342 38.4132 38.2151 35.5229 38.2151C32.6326 38.2151 28.3113 39.7491 26.8475 43.7811C25.4418 47.656 26.8594 49.27 26.8892 50.9521C26.9472 55.1113 29.9149 58.2178 35.7579 58.1927C41.1383 58.1719 43.9944 55.0047 44.1104 51.035C44.161 49.2034 45.4254 46.9779 43.8293 43.6982Z" fill="#F6B99C"/>
<path fill-rule="evenodd" clip-rule="evenodd" d="M29.4983 51.5973C29.4983 51.5973 29.415 51.6107 29.3034 51.6343C29.2618 51.6432 29.2216 51.6551 29.18 51.6684C29.1383 51.6847 29.0966 51.7054 29.0595 51.7247C28.9643 51.7824 28.8943 51.8357 28.8943 51.8357C28.8453 51.8564 28.8155 51.9142 28.8408 51.9645C28.8616 52.0178 28.9196 52.0415 28.9687 52.0223C28.9687 52.0223 29.055 52.009 29.1636 51.9853C29.2038 51.9719 29.2454 51.9601 29.2871 51.9438C29.3287 51.9275 29.3704 51.9024 29.4031 51.8816C29.5027 51.8239 29.5682 51.775 29.5682 51.775C29.6173 51.7543 29.6426 51.701 29.6218 51.6506C29.6009 51.6018 29.5474 51.5766 29.4983 51.5973Z" fill="#F38B81"/>
<path fill-rule="evenodd" clip-rule="evenodd" d="M41.9105 51.5973C41.9105 51.5973 41.9983 51.6107 42.1098 51.6343C42.147 51.6432 42.1916 51.6551 42.2333 51.6684C42.2749 51.6847 42.3121 51.7054 42.3493 51.7247C42.449 51.7824 42.5144 51.8357 42.5144 51.8357C42.568 51.8564 42.5933 51.9142 42.5725 51.9645C42.5516 52.0178 42.4936 52.0415 42.4401 52.0223C42.4401 52.0223 42.3582 52.009 42.2467 51.9853C42.2095 51.9719 42.1634 51.9601 42.1217 51.9438C42.0801 51.9275 42.0429 51.9024 42.0057 51.8816C41.9105 51.8239 41.8406 51.775 41.8406 51.775C41.7915 51.7543 41.7707 51.701 41.787 51.6506C41.8079 51.6018 41.8659 51.5766 41.9105 51.5973Z" fill="#F38B81"/>
<path fill-rule="evenodd" clip-rule="evenodd" d="M29.6752 52.0041C29.6752 52.0041 29.6008 52.0456 29.5101 52.1122C29.4729 52.1329 29.4402 52.161 29.4074 52.1892C29.3732 52.2188 29.3405 52.2514 29.3152 52.2839C29.2453 52.3713 29.2007 52.4453 29.2007 52.4453C29.1635 52.4824 29.159 52.5475 29.1962 52.5845C29.2379 52.626 29.2988 52.6304 29.3405 52.589C29.3405 52.589 29.4149 52.552 29.5056 52.4853C29.5398 52.4616 29.577 52.432 29.6097 52.4039C29.638 52.3713 29.6678 52.3373 29.6916 52.3047C29.763 52.2144 29.8076 52.1448 29.8076 52.1448C29.8448 52.1077 29.8492 52.0456 29.812 52.0085C29.7749 51.9715 29.7168 51.9671 29.6752 52.0041Z" fill="#F38B81"/>
<path fill-rule="evenodd" clip-rule="evenodd" d="M41.733 52.0041C41.733 52.0041 41.8073 52.0456 41.9025 52.1122C41.9353 52.1329 41.9724 52.161 42.0052 52.1892C42.0394 52.2188 42.0676 52.2514 42.0929 52.2839C42.1629 52.3713 42.209 52.4453 42.209 52.4453C42.2491 52.4824 42.2491 52.5475 42.2119 52.5845C42.1748 52.626 42.1138 52.6304 42.0721 52.589C42.0721 52.589 41.9933 52.552 41.9025 52.4853C41.8698 52.4616 41.8356 52.432 41.8029 52.4039C41.7701 52.3713 41.7449 52.3373 41.7166 52.3047C41.6467 52.2144 41.605 52.1448 41.605 52.1448C41.5678 52.1077 41.5634 52.0456 41.6006 52.0085C41.6333 51.9715 41.6958 51.9671 41.733 52.0041Z" fill="#F38B81"/>
<path fill-rule="evenodd" clip-rule="evenodd" d="M43.713 51.0095C43.713 51.0095 46.2478 50.2114 46.8889 52.1126C47.2489 53.1772 46.224 55.2472 43.9034 55.2724C42.697 55.2798 42.2582 54.2063 42.2582 54.2063L43.713 51.0095Z" fill="#F6B99C"/>
<path fill-rule="evenodd" clip-rule="evenodd" d="M27.3472 51.0095C27.3472 51.0095 24.8125 50.2114 24.1714 52.1126C23.8129 53.1772 24.8378 55.2472 27.1568 55.2724C28.3647 55.2798 28.8035 54.2063 28.8035 54.2063L27.3472 51.0095Z" fill="#F6B99C"/>
<path fill-rule="evenodd" clip-rule="evenodd" d="M44.9748 52.7288C44.8469 53.2115 44.6981 53.4573 44.5494 53.5683C44.4334 53.6512 44.3218 53.6216 44.2519 53.5683C44.2102 53.5402 44.1805 53.5106 44.173 53.4869C44.1403 53.3507 44.1611 53.207 44.2266 53.0753C44.3129 52.8857 44.4824 52.7169 44.7056 52.6059C45.0165 52.4534 45.43 52.4045 45.8882 52.557C45.9387 52.5733 45.9923 52.5481 46.0087 52.4993C46.025 52.4489 46.0012 52.3956 45.9551 52.3793C45.3095 52.1291 44.7264 52.2446 44.3471 52.5156C44.1775 52.6355 44.0496 52.791 43.9707 52.9553C43.88 53.1493 43.8592 53.3551 43.9127 53.5565C43.9246 53.6009 43.9618 53.6675 44.0287 53.7297C44.173 53.8571 44.4378 53.9681 44.6981 53.7579C44.8633 53.6216 45.0373 53.3344 45.1533 52.7658C45.1608 52.7214 45.1325 52.6725 45.0819 52.6592C45.0373 52.6518 44.9882 52.6799 44.9748 52.7288Z" fill="#F38B81"/>
<path fill-rule="evenodd" clip-rule="evenodd" d="M25.9089 52.7658C26.025 53.3344 26.199 53.6216 26.3641 53.7579C26.6289 53.9681 26.8892 53.8571 27.0335 53.7297C27.1005 53.6675 27.1376 53.6009 27.1495 53.5565C27.2031 53.3551 27.1823 53.1493 27.096 52.9553C27.0127 52.791 26.8848 52.6355 26.7152 52.5156C26.3344 52.2446 25.7513 52.1291 25.1101 52.3793C25.061 52.3956 25.0358 52.4489 25.0536 52.4993C25.07 52.5481 25.128 52.5733 25.1726 52.557C25.6323 52.4045 26.0458 52.4534 26.3552 52.6059C26.5828 52.7169 26.7479 52.8857 26.8387 53.0753C26.9011 53.207 26.922 53.3507 26.8892 53.4869C26.8803 53.5106 26.852 53.5402 26.8149 53.5683C26.7405 53.6216 26.6289 53.6512 26.5129 53.5683C26.3641 53.4573 26.2154 53.2115 26.086 52.7288C26.0741 52.6799 26.0294 52.6518 25.9789 52.6592C25.9298 52.6725 25.9 52.7214 25.9089 52.7658Z" fill="#F38B81"/>
<path fill-rule="evenodd" clip-rule="evenodd" d="M35.1674 52.6469C35.2537 52.601 35.3608 52.5936 35.4649 52.5892C35.4931 52.5892 35.5274 52.5936 35.5556 52.5936C35.5839 52.5936 35.6136 52.5936 35.6419 52.5936C35.7341 52.601 35.8249 52.6099 35.9067 52.6513C35.9528 52.6839 36.0153 52.675 36.048 52.6262C36.0807 52.5803 36.0688 52.5196 36.0227 52.4855C35.9439 52.4085 35.8531 52.3552 35.7505 52.3211C35.6791 52.3004 35.6092 52.2886 35.5393 52.2886C35.4693 52.293 35.3979 52.3049 35.3325 52.3256C35.2254 52.3626 35.1332 52.4204 35.0588 52.4899C35.0142 52.5196 35.0052 52.5803 35.035 52.6262C35.0677 52.6676 35.1257 52.6795 35.1674 52.6469Z" fill="#F38B81"/>
<path fill-rule="evenodd" clip-rule="evenodd" d="M33.7525 54.2682C34.0425 54.5066 34.3936 54.6828 34.7744 54.7894C35.0213 54.856 35.2787 54.8975 35.539 54.8975C35.7948 54.8975 36.0552 54.8634 36.3036 54.7983C36.6755 54.6961 37.028 54.5229 37.33 54.2711C37.3746 54.2386 37.3835 54.1764 37.3493 54.132C37.3121 54.0905 37.2511 54.0831 37.2095 54.1157C36.9164 54.3215 36.5847 54.4562 36.2411 54.5303C36.0105 54.5806 35.774 54.6013 35.539 54.6013C35.3025 54.6013 35.0674 54.5806 34.8398 54.5303C34.4843 54.4533 34.1496 54.317 33.864 54.1201C33.8224 54.086 33.7644 54.0949 33.7316 54.1364C33.6989 54.1764 33.7063 54.2386 33.7525 54.2682Z" fill="#D75E51"/>
<path fill-rule="evenodd" clip-rule="evenodd" d="M32.2722 45.5784C31.7218 45.2379 31.0643 45.1342 30.4411 45.2705C29.8446 45.4022 29.2912 45.7635 28.8777 46.3366C28.7616 46.5039 28.8077 46.7304 28.9729 46.8415C29.1424 46.957 29.37 46.9155 29.4816 46.7467C29.7702 46.3069 30.1718 46.0227 30.6017 45.8909C31.0807 45.7472 31.5939 45.768 32.0446 45.9856C32.1562 46.0478 32.3005 46.0064 32.363 45.8953C32.4254 45.7798 32.3838 45.6406 32.2722 45.5784Z" fill="#533134"/>
<path fill-rule="evenodd" clip-rule="evenodd" d="M39.1119 45.9856C39.5626 45.768 40.0743 45.7472 40.5503 45.8909C40.9847 46.0227 41.3848 46.3069 41.6705 46.7467C41.7865 46.9155 42.0141 46.957 42.1792 46.8415C42.3488 46.7304 42.3904 46.5039 42.2789 46.3366C41.8609 45.7635 41.3075 45.4022 40.7155 45.2705C40.0877 45.1342 39.4302 45.2379 38.8843 45.5784C38.7683 45.6406 38.7266 45.7798 38.7936 45.8953C38.8545 46.0064 38.9959 46.0478 39.1119 45.9856Z" fill="#533134"/>
<path fill-rule="evenodd" clip-rule="evenodd" d="M33.1437 49.1211C32.4832 48.6799 31.6725 48.6355 30.9778 48.8739C30.1969 49.1448 29.5677 49.7741 29.3936 50.5766C29.3698 50.704 29.4442 50.8284 29.5632 50.8565C29.6837 50.8861 29.7997 50.8032 29.8235 50.6759C29.9395 50.0051 30.4602 49.4869 31.0894 49.2322C31.7008 48.9805 32.4208 48.9686 33.0366 49.3269C33.0901 49.3551 33.1526 49.3388 33.1809 49.281C33.2151 49.2277 33.1943 49.1537 33.1437 49.1211Z" fill="#6F3337"/>
<path fill-rule="evenodd" clip-rule="evenodd" d="M38.1185 49.3269C38.7314 48.9686 39.4543 48.9805 40.0627 49.2322C40.6949 49.4869 41.2126 50.0051 41.3316 50.6759C41.3569 50.8032 41.4729 50.8861 41.5919 50.8565C41.708 50.8284 41.7868 50.704 41.7615 50.5766C41.5845 49.7741 40.9553 49.1448 40.1788 48.8739C39.4796 48.6355 38.6734 48.6799 38.0114 49.1211C37.9579 49.1537 37.9415 49.2277 37.9698 49.281C37.9995 49.3388 38.065 49.3551 38.1185 49.3269Z" fill="#6F3337"/>
<path fill-rule="evenodd" clip-rule="evenodd" d="M40.7489 49.5938C40.8575 49.6723 40.9601 49.7374 41.0672 49.7878C41.1877 49.8455 41.3157 49.8855 41.4525 49.8899C41.5269 49.8944 41.6087 49.8855 41.692 49.8692C41.8408 49.8366 41.994 49.767 42.168 49.656C42.2171 49.6264 42.2379 49.5612 42.2097 49.5123C42.1844 49.462 42.1174 49.4413 42.0683 49.4709C41.8363 49.5657 41.6503 49.5819 41.4808 49.5568C41.3856 49.5449 41.2993 49.5153 41.213 49.4753C41.1252 49.4339 41.039 49.3835 40.9482 49.3228C40.8739 49.2651 40.7653 49.2814 40.7117 49.3598C40.6582 49.4339 40.6745 49.536 40.7489 49.5938Z" fill="#6F3337"/>
<path fill-rule="evenodd" clip-rule="evenodd" d="M30.1605 49.3228C30.0727 49.3835 29.9865 49.4339 29.8957 49.4753C29.808 49.5153 29.7217 49.5449 29.6265 49.5568C29.4614 49.5819 29.2754 49.5657 29.0389 49.4709C28.9898 49.4413 28.9273 49.462 28.8991 49.5123C28.8693 49.5612 28.8902 49.6264 28.9392 49.656C29.1133 49.767 29.271 49.8366 29.4197 49.8692C29.503 49.8855 29.5804 49.8944 29.6592 49.8899C29.7916 49.8855 29.9195 49.8455 30.0445 49.7878C30.1471 49.7374 30.2542 49.6723 30.3584 49.5938C30.4327 49.536 30.4536 49.4339 30.3955 49.3598C30.342 49.2814 30.2379 49.2651 30.1605 49.3228Z" fill="#6F3337"/>
<path fill-rule="evenodd" clip-rule="evenodd" d="M40.1866 49.2329C40.3071 49.2862 40.4276 49.3276 40.5392 49.3513C40.6746 49.3809 40.807 49.3883 40.9393 49.3647C41.0137 49.3513 41.0926 49.3276 41.1669 49.2906C41.3038 49.224 41.4406 49.1218 41.5805 48.9737C41.6266 48.9367 41.6296 48.8701 41.5924 48.8257C41.5552 48.7842 41.4897 48.7753 41.4436 48.8124C41.2368 48.9604 41.0598 49.0182 40.8903 49.03C40.7995 49.0389 40.7043 49.0345 40.6136 49.0137C40.5184 48.993 40.4187 48.9649 40.319 48.9234C40.2328 48.8864 40.1331 48.9278 40.0959 49.0137C40.0632 49.0966 40.1048 49.1959 40.1866 49.2329Z" fill="#6F3337"/>
<path fill-rule="evenodd" clip-rule="evenodd" d="M30.7925 48.9234C30.6883 48.9649 30.5931 48.993 30.4979 49.0137C30.4042 49.0345 30.312 49.0389 30.2168 49.03C30.0472 49.0182 29.8702 48.9604 29.6634 48.8124C29.6218 48.7753 29.5563 48.7842 29.5191 48.8257C29.4775 48.8701 29.4819 48.9367 29.5266 48.9737C29.6679 49.1218 29.8032 49.224 29.9401 49.2906C30.0145 49.3276 30.0933 49.3513 30.1722 49.3647C30.3045 49.3883 30.4369 49.3809 30.5693 49.3513C30.6854 49.3276 30.7999 49.2862 30.9204 49.2329C31.0067 49.1959 31.0483 49.0966 31.0111 49.0137C30.9739 48.9278 30.8743 48.8864 30.7925 48.9234Z" fill="#6F3337"/>
<path fill-rule="evenodd" clip-rule="evenodd" d="M31.9245 49.6028C32.5701 49.6028 33.0908 50.1255 33.0908 50.7666C33.0908 51.4048 32.5701 51.9275 31.9245 51.9275C31.2804 51.9275 30.7598 51.4048 30.7598 50.7666C30.7598 50.1255 31.2804 49.6028 31.9245 49.6028Z" fill="#6F3337"/>
<path fill-rule="evenodd" clip-rule="evenodd" d="M39.2309 49.6028C38.5868 49.6028 38.0617 50.1255 38.0617 50.7666C38.0617 51.4048 38.5868 51.9275 39.2309 51.9275C39.872 51.9275 40.3971 51.4048 40.3971 50.7666C40.3971 50.1255 39.872 49.6028 39.2309 49.6028Z" fill="#6F3337"/>
<path fill-rule="evenodd" clip-rule="evenodd" d="M38.4249 49.7256C38.2479 49.7256 38.1021 49.8663 38.1021 50.0425C38.1021 50.2201 38.2479 50.3638 38.4249 50.3638C38.6034 50.3638 38.7477 50.2201 38.7477 50.0425C38.7477 49.8663 38.6034 49.7256 38.4249 49.7256Z" fill="white"/>
<path fill-rule="evenodd" clip-rule="evenodd" d="M31.0811 49.7256C30.9041 49.7256 30.7598 49.8663 30.7598 50.0425C30.7598 50.2201 30.9041 50.3638 31.0811 50.3638C31.2596 50.3638 31.3994 50.2201 31.3994 50.0425C31.3994 49.8663 31.2596 49.7256 31.0811 49.7256Z" fill="white"/>
<path fill-rule="evenodd" clip-rule="evenodd" d="M27.194 51.3588C28.4272 49.5361 27.2312 47.1255 27.2312 47.1255L29.882 45.4997L30.2137 44.0191L30.4904 45.2377L33.2691 44.8749L33.5131 42.6405L33.827 44.8542L38.181 44.9534L38.4294 43.908L38.6406 44.9445L40.5253 45.3976L40.9686 43.563L41.287 45.5575L43.8217 46.6976C43.8217 46.6976 42.9649 49.3466 43.9779 51.2434L45.3836 51.4003L45.8879 47.6319L43.4618 42.2748C43.4618 42.2748 42.3788 39.885 40.9716 39.2053C39.5287 38.5109 37.6975 37.8845 34.8147 38.0948C30.8668 38.3865 29.8076 39.2394 28.1669 40.5217C26.5455 41.7936 24.9657 45.8048 24.9657 45.8048L26.6079 51.5528L27.194 51.3588Z" fill="#533134"/>
<path fill-rule="evenodd" clip-rule="evenodd" d="M35.614 53.4035C36.2596 53.4035 37.1432 52.6794 37.7888 53.7159C38.2767 54.5066 37.048 55.663 35.614 55.663C34.0342 55.663 32.9558 54.5554 33.4392 53.7159C33.9926 52.7579 34.8702 53.4035 35.614 53.4035Z" fill="white"/>
</svg>
