<svg width="158" height="124" viewBox="0 0 158 124" fill="none" xmlns="http://www.w3.org/2000/svg">
<path d="M74.0938 53.3359C82.9236 56.2133 85.4736 63.5157 88.559 73.1498L77.0193 76.4585L74.0938 53.3359Z" fill="#273C71"/>
<path d="M113.073 67.2191C113.073 67.2191 99.1427 85.0945 88.5139 88.8574C84.9947 90.1032 78.3672 84.1177 78.3672 84.1177L111.342 66.0596L113.073 67.2191Z" fill="#FFB74D"/>
<path d="M114.994 54.5527L107.09 60.9417L115.877 64.5117L114.994 54.5527Z" fill="#F0F0F0"/>
<mask id="mask0_195_1971" style="mask-type:luminance" maskUnits="userSpaceOnUse" x="84" y="53" width="35" height="27">
<path d="M84.3272 53.7706H119V79.1031H84.3272V53.7706Z" fill="white"/>
</mask>
<g mask="url(#mask0_195_1971)">
<path d="M101.484 61.7021L84.7051 71.1688L94.5271 78.7046L117.883 65.4116L118.776 55.5821C119 53.1056 114.278 53.334 114.58 55.4527L115.876 64.5109L101.484 61.7021Z" fill="#21325E"/>
</g>
<path d="M84.7051 71.1699L85.7758 66.3794L100.68 58.0215L115.876 64.5119L101.484 61.7031L84.7051 71.1699Z" fill="#F0F0F0"/>
<path d="M60.4636 51.1729C48.7386 51.1729 39.2998 61.5936 39.2998 74.5415V105.058C39.2998 105.86 39.3404 106.651 39.4114 107.43C45.5847 108.011 51.8316 108.12 57.3198 108.334C65.1322 108.184 74.6954 106.842 84.6011 104.52C85.6058 96.3269 87.5367 87.8422 87.1967 79.5502C86.6664 66.6124 78.8033 51.1729 67.0784 51.1729H60.4636Z" fill="#49568F"/>
<path d="M62.6258 39.5186H63.1663C66.1121 39.5186 68.4845 42.2056 68.4845 45.5447V50.6016C68.4845 53.9381 66.1121 56.6251 63.1663 56.6251H62.6258C59.68 56.6251 57.3076 53.9381 57.3076 50.6016V45.5447C57.3076 42.2056 59.68 39.5186 62.6258 39.5186Z" fill="#FFB74D"/>
<path d="M71.1544 18.9024C65.6357 18.9227 60.4114 22.1248 57.5366 27.2527C57.2296 27.1411 56.9099 27.0852 56.5927 27.0852C54.4893 27.0852 52.7842 29.4551 52.7842 32.3781C52.7867 34.6718 53.8524 36.7042 55.423 37.4096C56.0167 42.9511 59.3558 47.602 64.2123 49.642C71.809 52.8314 80.7403 48.7768 84.1632 40.5888C87.586 32.3984 84.2038 23.1752 76.607 19.9858C74.8893 19.2652 73.0396 18.8973 71.1544 18.9024Z" fill="#FFB74D"/>
<path d="M43.6416 85.3586C43.6416 85.3586 47.8079 94.3001 49.3633 96.2944C54.783 103.252 97.9453 78.3581 96.7324 76.3054C96.7324 76.3054 100.275 78.7235 104.885 76.5363C109.498 74.3466 113.743 62.2208 108.234 64.3115C102.726 66.3998 100.975 69.1401 98.6253 66.4835C96.2732 63.8244 92.9797 63.2129 92.8047 65.3189C92.6321 67.4274 92.1094 70.6624 92.1094 70.6624C82.1276 75.7929 70.9736 78.8225 59.4034 81.4029L57.9673 77.3813L43.6416 85.3586Z" fill="#FFB74D"/>
<path d="M54.3028 57.6074C61.0572 60.1929 58.9867 73.4098 59.9661 78.591C60.943 83.7696 46.1986 91.7596 43.4127 86.3349C41.1722 81.9707 38.13 73.7827 39.2337 67.4217C41.0022 57.2166 48.708 55.4633 54.3028 57.6074Z" fill="#273C71"/>
<path d="M57.1431 28.0143C58.2215 28.3594 58.7619 29.6509 58.7061 31.0363C58.6477 32.4191 61.3982 33.4366 61.9691 31.5488C62.5374 29.661 63.3342 26.9385 64.1309 26.1113C64.9301 25.2867 71.3166 28.1868 72.91 29.0089C74.5009 29.8336 80.3976 30.3689 79.2406 28.1183C74.1431 18.2152 86.85 35.1873 86.576 28.608C87.053 17.2003 69.8703 11.7806 61.4591 14.8152C46.7401 20.6485 49.7976 35.9434 56.8336 42.4364L55.4228 37.41C50.3837 34.0683 53.398 26.8218 57.1431 28.0143Z" fill="#21325E"/>
<mask id="mask1_195_1971" style="mask-type:luminance" maskUnits="userSpaceOnUse" x="52" y="8" width="33" height="14">
<path d="M52.4992 8H84.9769V21.9426H52.4992V8Z" fill="white"/>
</mask>
<g mask="url(#mask1_195_1971)">
<path d="M68.696 8C60.7948 8.00254 54.1039 13.8333 53.0002 21.6736H84.3969C83.2932 13.8333 76.5972 8.00254 68.696 8Z" fill="#002379"/>
</g>
</svg>
