<svg width="129" height="105" viewBox="0 0 129 105" fill="none" xmlns="http://www.w3.org/2000/svg">
<mask id="mask0_90_42" style="mask-type:luminance" maskUnits="userSpaceOnUse" x="0" y="0" width="126" height="78">
<path d="M0.666667 0.666667H125.214V77.2083H0.666667V0.666667Z" fill="white" stroke="white" stroke-width="1.33333"/>
</mask>
<g mask="url(#mask0_90_42)">
<path d="M83.9688 76.6533L83.9671 76.6519L66.7432 61.7664L66.3552 61.4311L65.9316 61.7201L52.784 70.6884L52.2964 69.9746L52.296 69.974L52.2952 69.9729L51.1936 70.724L51.1943 70.725L51.5092 71.1879C51.3225 71.1353 51.1521 71.0199 51.0315 70.8478C51.0254 70.8382 51.02 70.83 51.0161 70.8242L51.0085 70.8129L50.9934 70.7826L50.9609 70.7379L1.4947 2.77299L2.18841 2.26873L2.18882 2.26844L1.40527 1.18963L1.40486 1.18993L0.954194 1.51699C1.0009 1.32653 1.11152 1.15046 1.28075 1.025C1.50943 0.864302 1.78177 0.824204 2.02707 0.889222L2.05307 0.896114L2.07954 0.900889L122.902 22.694L122.751 23.54L122.75 23.5434L122.75 23.5438L124.062 23.7795L124.062 23.7791L124.064 23.7707L124.161 23.2329C124.258 23.4033 124.298 23.6069 124.261 23.8134L124.26 23.8149C124.211 24.0933 124.037 24.3139 123.795 24.438L123.771 24.4501L123.749 24.464L99.3321 39.5369L99.1385 39.6564L99.0583 39.8693L85.3813 76.1974L85.3712 76.224L85.3635 76.2513C85.3341 76.3556 85.2787 76.4628 85.1922 76.5655C84.8733 76.9288 84.3273 76.9652 83.9688 76.6533ZM82.5642 73.1503L83.6666 74.1027V72.6459V50.8854V49.624L82.6244 50.3346L68.5463 59.9336L67.8299 60.4221L68.486 60.9889L82.5642 73.1503ZM85.401 67.5729L86.6916 67.8079L97.5874 38.8704L97.5951 38.8498L97.6015 38.8288C97.6514 38.6641 97.7484 38.5136 97.8897 38.3993L97.9803 38.3434L119.558 25.0257L121.04 24.1113L119.327 23.8023L5.38914 3.25019L3.75402 2.95525L4.73179 4.29859L51.5651 68.6423L51.9456 69.1651L52.4798 68.8008L83.9694 47.3216L83.987 47.3096L84.0037 47.2965C84.151 47.1817 84.3305 47.1146 84.5364 47.1146C85.0105 47.1146 85.401 47.5021 85.401 47.9844V67.5729Z" fill="white" stroke="#FF9F66" stroke-width="1.33333"/>
</g>
<mask id="mask1_90_42" style="mask-type:luminance" maskUnits="userSpaceOnUse" x="0" y="0" width="101" height="50">
<path d="M0.666667 0.666667H99.8802V49.2083H0.666667V0.666667Z" fill="white" stroke="white" stroke-width="1.33333"/>
</mask>
<g mask="url(#mask1_90_42)">
<path d="M84.9507 47.2277L84.9519 47.2284C85.3697 47.4608 85.5197 47.9871 85.2872 48.405L85.2864 48.4064C85.0603 48.8151 84.5364 48.9685 84.1165 48.7355C84.1163 48.7354 84.116 48.7352 84.1158 48.7351L1.95911 2.80575L2.37847 2.05499L2.3789 2.05423L1.21529 1.40325L1.21486 1.40401L0.942826 1.88951C0.906631 1.6968 0.935329 1.49066 1.03917 1.30635L1.04131 1.30252C1.2635 0.901997 1.76426 0.746708 2.17408 0.944246L2.19821 0.955877L2.22319 0.965535L98.7418 38.2719C98.7419 38.272 98.7421 38.2721 98.7423 38.2722C99.1909 38.4478 99.4095 38.9496 99.2384 39.3875L99.237 39.3911C99.067 39.8338 98.5637 40.0565 98.1228 39.8842L98.1205 39.8833L21.6987 10.3469L21.133 11.5506L84.9507 47.2277Z" fill="white" stroke="#FF9F66" stroke-width="1.33333"/>
</g>
<mask id="mask2_90_42" style="mask-type:luminance" maskUnits="userSpaceOnUse" x="89" y="80" width="40" height="25">
<path d="M90.5465 81.2096H127.88V104.163H90.5465V81.2096Z" fill="white" stroke="white" stroke-width="1.33333"/>
</mask>
<g mask="url(#mask2_90_42)">
<mask id="path-6-inside-1_90_42" fill="white">
<path d="M91.2393 83.7513C89.9268 83.3242 89.7601 81.595 90.9633 80.9284C91.3383 80.7357 91.7237 80.694 92.1299 80.8138C92.1299 80.8138 93.7133 81.3398 94.4789 81.6315C95.6768 82.0794 96.8695 82.5794 98.0362 83.1107C99.4893 83.7877 99.0987 85.9336 97.4685 86.0377C97.2133 86.0482 97.0049 86.0065 96.7706 85.9023C95.0206 85.1159 93.2289 84.3919 91.4008 83.8034L91.2393 83.7513ZM126.552 101.642C127.021 101.6 127.495 101.783 127.812 102.131C128.672 103.074 128.088 104.585 126.817 104.699C124.713 104.881 122.401 104.881 120.317 104.533C120.031 104.491 119.75 104.355 119.531 104.158C119.083 103.746 118.953 103.204 119.062 102.71C118.823 103.512 117.948 104.033 117.062 103.72C114.807 102.902 112.828 101.59 111.432 99.6159C110.849 98.7877 111.229 97.8034 111.958 97.3919C111.39 97.6523 110.672 97.595 110.14 96.9857C110.047 96.8711 109.979 96.7617 109.916 96.6263C109.166 94.9127 107.979 93.4961 106.651 92.1992C105.422 91.0221 106.729 88.9648 108.38 89.7096C108.521 89.7773 108.651 89.8659 108.76 89.97C110.354 91.47 111.838 93.3607 112.718 95.3711C113.083 96.2148 112.687 96.9804 112.062 97.3346C112.468 97.1471 112.963 97.1315 113.453 97.4023C113.656 97.5273 113.812 97.6627 113.948 97.8607L114 97.9284C115.052 99.3502 116.468 100.241 118.114 100.835C118.593 101.006 118.963 101.423 119.078 101.913C119.135 102.152 119.135 102.387 119.088 102.6C119.291 101.913 119.948 101.371 120.802 101.501C122.661 101.803 124.677 101.803 126.552 101.642ZM106.276 87.8815C107.687 88.9596 106.474 91.1523 104.812 90.5429C104.682 90.4961 104.547 90.4232 104.442 90.3398C102.843 89.1471 101.198 88.1523 99.4476 87.2148C98.8487 86.9075 98.5258 86.2252 98.6508 85.569C98.8487 84.5534 99.9581 84.0221 100.875 84.4961C102.76 85.4909 104.573 86.6002 106.276 87.8815ZM92.1299 80.8138L91.2393 83.7513Z"/>
</mask>
<path d="M91.2393 83.7513C89.9268 83.3242 89.7601 81.595 90.9633 80.9284C91.3383 80.7357 91.7237 80.694 92.1299 80.8138C92.1299 80.8138 93.7133 81.3398 94.4789 81.6315C95.6768 82.0794 96.8695 82.5794 98.0362 83.1107C99.4893 83.7877 99.0987 85.9336 97.4685 86.0377C97.2133 86.0482 97.0049 86.0065 96.7706 85.9023C95.0206 85.1159 93.2289 84.3919 91.4008 83.8034L91.2393 83.7513ZM126.552 101.642C127.021 101.6 127.495 101.783 127.812 102.131C128.672 103.074 128.088 104.585 126.817 104.699C124.713 104.881 122.401 104.881 120.317 104.533C120.031 104.491 119.75 104.355 119.531 104.158C119.083 103.746 118.953 103.204 119.062 102.71C118.823 103.512 117.948 104.033 117.062 103.72C114.807 102.902 112.828 101.59 111.432 99.6159C110.849 98.7877 111.229 97.8034 111.958 97.3919C111.39 97.6523 110.672 97.595 110.14 96.9857C110.047 96.8711 109.979 96.7617 109.916 96.6263C109.166 94.9127 107.979 93.4961 106.651 92.1992C105.422 91.0221 106.729 88.9648 108.38 89.7096C108.521 89.7773 108.651 89.8659 108.76 89.97C110.354 91.47 111.838 93.3607 112.718 95.3711C113.083 96.2148 112.687 96.9804 112.062 97.3346C112.468 97.1471 112.963 97.1315 113.453 97.4023C113.656 97.5273 113.812 97.6627 113.948 97.8607L114 97.9284C115.052 99.3502 116.468 100.241 118.114 100.835C118.593 101.006 118.963 101.423 119.078 101.913C119.135 102.152 119.135 102.387 119.088 102.6C119.291 101.913 119.948 101.371 120.802 101.501C122.661 101.803 124.677 101.803 126.552 101.642ZM106.276 87.8815C107.687 88.9596 106.474 91.1523 104.812 90.5429C104.682 90.4961 104.547 90.4232 104.442 90.3398C102.843 89.1471 101.198 88.1523 99.4476 87.2148C98.8487 86.9075 98.5258 86.2252 98.6508 85.569C98.8487 84.5534 99.9581 84.0221 100.875 84.4961C102.76 85.4909 104.573 86.6002 106.276 87.8815ZM92.1299 80.8138L91.2393 83.7513Z" fill="white"/>
<path d="M91.2393 84.4179H91.2497V83.0846H91.2393V84.4179ZM91.2393 83.7513L90.8267 85.0192L90.83 85.0202L91.2393 83.7513ZM90.9633 80.9284L90.3538 79.7425L90.3353 79.752L90.317 79.7621L90.9633 80.9284ZM92.1299 80.8138L92.5503 79.5485L92.5288 79.5413L92.507 79.5349L92.1299 80.8138ZM94.4789 81.6315L94.0042 82.8775L94.0119 82.8804L94.4789 81.6315ZM98.0362 83.1107L98.5993 81.902L98.5887 81.8972L98.0362 83.1107ZM97.4685 86.0377L97.5228 87.37L97.5382 87.3693L97.5535 87.3684L97.4685 86.0377ZM96.7706 85.9023L96.224 87.1185L96.229 87.1207L96.7706 85.9023ZM91.4008 83.8034L90.9914 85.0723L90.9922 85.0725L91.4008 83.8034ZM126.552 101.642L126.666 102.97L126.67 102.97L126.552 101.642ZM127.812 102.131L126.826 103.029L126.827 103.03L127.812 102.131ZM126.817 104.699L126.933 106.028L126.937 106.027L126.817 104.699ZM120.317 104.533L120.538 103.218L120.524 103.215L120.509 103.213L120.317 104.533ZM119.531 104.158L118.629 105.139L118.636 105.146L119.531 104.158ZM119.062 102.71L120.364 102.997L117.785 102.328L119.062 102.71ZM117.062 103.72L116.608 104.974L116.618 104.977L117.062 103.72ZM111.432 99.6159L110.342 100.384L110.343 100.386L111.432 99.6159ZM111.958 97.3919L112.613 98.5531L111.402 96.18L111.958 97.3919ZM110.14 96.9857L109.108 97.83L109.122 97.8461L109.135 97.8618L110.14 96.9857ZM109.916 96.6263L108.695 97.1609L108.7 97.173L108.706 97.185L109.916 96.6263ZM106.651 92.1992L107.582 91.2452L107.573 91.2362L106.651 92.1992ZM108.38 89.7096L108.958 88.5083L108.943 88.5011L108.928 88.4942L108.38 89.7096ZM108.76 89.97L107.841 90.9356L107.846 90.941L108.76 89.97ZM112.718 95.3711L113.942 94.8422L113.94 94.8363L112.718 95.3711ZM112.062 97.3346L111.405 96.1746L112.621 98.5452L112.062 97.3346ZM113.453 97.4023L114.152 96.2668L114.125 96.2506L114.098 96.2356L113.453 97.4023ZM113.948 97.8607L112.847 98.6136L112.868 98.6442L112.891 98.6736L113.948 97.8607ZM114 97.9284L115.072 97.1353L115.064 97.1253L115.057 97.1154L114 97.9284ZM118.114 100.835L117.662 102.089L117.664 102.09L118.114 100.835ZM119.078 101.913L117.78 102.217L117.781 102.223L119.078 101.913ZM119.088 102.6L117.786 102.314L120.367 102.978L119.088 102.6ZM120.802 101.501L121.016 100.185L121.003 100.183L120.802 101.501ZM106.276 87.8815L107.085 86.8219L107.077 86.816L106.276 87.8815ZM104.812 90.5429L105.271 89.2911L105.264 89.2884L104.812 90.5429ZM104.442 90.3398L105.275 89.2987L105.258 89.2846L105.24 89.2711L104.442 90.3398ZM99.4476 87.2148L100.077 86.0395L100.067 86.0339L100.056 86.0285L99.4476 87.2148ZM98.6508 85.569L97.342 85.314L97.341 85.3195L98.6508 85.569ZM100.875 84.4961L101.497 83.3168L101.487 83.3117L100.875 84.4961ZM91.6519 82.4834C91.5751 82.4584 91.5415 82.4255 91.5246 82.4038C91.5041 82.3774 91.489 82.342 91.485 82.3006C91.481 82.2592 91.489 82.2221 91.5036 82.1934C91.5154 82.17 91.5408 82.1327 91.6095 82.0946L90.317 79.7621C88.0897 80.9963 88.4113 84.2332 90.8267 85.0192L91.6519 82.4834ZM91.5727 82.1143C91.6273 82.0862 91.657 82.0817 91.6684 82.0805C91.679 82.0795 91.7035 82.0781 91.7528 82.0927L92.507 79.5349C91.7606 79.3148 91.0226 79.3988 90.3538 79.7425L91.5727 82.1143ZM92.1299 80.8138C91.7095 82.0791 91.7095 82.0791 91.7095 82.0791C91.7095 82.0791 91.7095 82.0791 91.7096 82.0791C91.7096 82.0791 91.7096 82.0791 91.7097 82.0792C91.7099 82.0792 91.7101 82.0793 91.7105 82.0794C91.7112 82.0797 91.7122 82.08 91.7137 82.0805C91.7165 82.0814 91.7209 82.0829 91.7266 82.0848C91.7381 82.0886 91.7552 82.0943 91.7772 82.1017C91.8213 82.1164 91.8854 82.1378 91.9648 82.1645C92.1236 82.2178 92.3431 82.2919 92.5861 82.375C93.0785 82.5432 93.6456 82.7409 94.0042 82.8775L94.9535 80.3855C94.5465 80.2304 93.9391 80.0192 93.4484 79.8516C93.1999 79.7666 92.9758 79.691 92.8138 79.6366C92.7328 79.6094 92.6672 79.5874 92.6217 79.5722C92.599 79.5647 92.5813 79.5588 92.5692 79.5547C92.5631 79.5527 92.5585 79.5512 92.5553 79.5501C92.5537 79.5496 92.5525 79.5492 92.5517 79.5489C92.5513 79.5488 92.5509 79.5487 92.5507 79.5486C92.5506 79.5485 92.5505 79.5485 92.5504 79.5485C92.5504 79.5485 92.5504 79.5485 92.5504 79.5485C92.5503 79.5485 92.5503 79.5485 92.1299 80.8138ZM94.0119 82.8804C95.1773 83.3161 96.3413 83.804 97.4836 84.3241L98.5887 81.8972C97.3977 81.3549 96.1763 80.8427 94.9459 80.3826L94.0119 82.8804ZM97.473 84.3192C97.5583 84.359 97.5787 84.3972 97.5865 84.4134C97.5995 84.4407 97.6089 84.4859 97.5984 84.5415C97.588 84.5968 97.563 84.635 97.5407 84.6558C97.5273 84.6683 97.4898 84.7003 97.3834 84.7071L97.5535 87.3684C100.558 87.1764 101.308 83.1642 98.5993 81.9021L97.473 84.3192ZM97.4141 84.7055C97.3941 84.7063 97.3822 84.7058 97.3763 84.7054C97.3708 84.7051 97.3683 84.7046 97.3674 84.7044C97.3664 84.7042 97.3629 84.7035 97.3554 84.7011C97.3477 84.6986 97.3337 84.6935 97.3121 84.6839L96.229 87.1207C96.6435 87.3049 97.0552 87.3891 97.5228 87.37L97.4141 84.7055ZM97.3171 84.6862C95.5371 83.8862 93.6978 83.1421 91.8094 82.5342L90.9922 85.0725C92.76 85.6417 94.504 86.3455 96.224 87.1185L97.3171 84.6862ZM91.8101 82.5344L91.6486 82.4823L90.83 85.0202L90.9914 85.0723L91.8101 82.5344ZM126.67 102.97C126.728 102.965 126.792 102.991 126.826 103.029L128.798 101.234C128.197 100.574 127.313 100.236 126.434 100.314L126.67 102.97ZM126.827 103.03C126.948 103.163 126.864 103.356 126.698 103.371L126.937 106.027C129.312 105.813 130.395 102.986 128.798 101.233L126.827 103.03ZM126.702 103.371C124.67 103.547 122.476 103.542 120.538 103.218L120.097 105.848C122.325 106.221 124.757 106.216 126.933 106.028L126.702 103.371ZM120.509 103.213C120.496 103.211 120.456 103.197 120.426 103.169L118.636 105.146C119.043 105.514 119.566 105.771 120.126 105.852L120.509 103.213ZM120.433 103.176C120.381 103.128 120.369 103.094 120.364 103.08C120.359 103.063 120.356 103.036 120.364 102.997L117.76 102.422C117.554 103.355 117.812 104.389 118.629 105.139L120.433 103.176ZM117.785 102.328C117.77 102.379 117.731 102.428 117.678 102.456C117.653 102.469 117.629 102.476 117.605 102.478C117.582 102.48 117.55 102.478 117.506 102.463L116.618 104.977C118.268 105.559 119.896 104.577 120.34 103.091L117.785 102.328ZM117.517 102.467C115.457 101.72 113.726 100.55 112.521 98.8461L110.343 100.386C111.93 102.629 114.157 104.085 116.608 104.974L117.517 102.467ZM112.522 98.848C112.49 98.8019 112.483 98.7736 112.482 98.7628C112.48 98.7499 112.479 98.7332 112.486 98.7101C112.502 98.6538 112.55 98.589 112.613 98.5531L111.303 96.2307C110.013 96.9584 109.224 98.7973 110.342 100.384L112.522 98.848ZM111.402 96.18C111.342 96.2074 111.298 96.2075 111.275 96.2033C111.264 96.2014 111.251 96.1974 111.234 96.1876C111.217 96.1778 111.186 96.1562 111.145 96.1095L109.135 97.8618C110.099 98.9677 111.473 99.0813 112.514 98.6038L111.402 96.18ZM111.172 96.1413C111.158 96.1245 111.152 96.115 111.149 96.1094C111.145 96.1035 111.138 96.0918 111.127 96.0675L108.706 97.185C108.814 97.4187 108.94 97.6247 109.108 97.83L111.172 96.1413ZM111.138 96.0917C110.289 94.1534 108.966 92.5965 107.582 91.2452L105.719 93.1532C106.992 94.3956 108.043 95.6721 108.695 97.1609L111.138 96.0917ZM107.573 91.2362C107.534 91.1985 107.518 91.1708 107.511 91.1568C107.504 91.1423 107.501 91.1291 107.5 91.1149C107.498 91.0828 107.507 91.0293 107.544 90.9742C107.58 90.9201 107.621 90.8971 107.644 90.8897C107.655 90.8863 107.67 90.8833 107.693 90.8849C107.716 90.8864 107.762 90.8935 107.832 90.925L108.928 88.4942C105.864 87.1117 103.455 90.9847 105.729 93.1622L107.573 91.2362ZM107.802 90.911C107.812 90.9162 107.822 90.9217 107.829 90.9268C107.833 90.9293 107.836 90.9314 107.838 90.933C107.839 90.9338 107.839 90.9344 107.84 90.9349C107.84 90.9353 107.841 90.9356 107.841 90.9356L109.68 89.0045C109.463 88.7981 109.216 88.6322 108.958 88.5083L107.802 90.911ZM107.846 90.941C109.347 92.3536 110.707 94.102 111.497 95.9058L113.94 94.8363C112.969 92.6193 111.361 90.5864 109.674 88.9991L107.846 90.941ZM111.495 95.8999C111.521 95.9606 111.524 95.9977 111.525 96.0139C111.525 96.0307 111.522 96.0438 111.517 96.0568C111.505 96.0876 111.471 96.1373 111.405 96.1746L112.72 98.4946C113.843 97.8582 114.618 96.4056 113.942 94.8422L111.495 95.8999ZM112.621 98.5452C112.649 98.5323 112.671 98.5289 112.689 98.5294C112.705 98.5298 112.743 98.5334 112.807 98.569L114.098 96.2356C113.222 95.7508 112.279 95.766 111.503 96.124L112.621 98.5452ZM112.754 98.5379C112.802 98.5675 112.821 98.5838 112.827 98.5893C112.831 98.593 112.837 98.5981 112.847 98.6136L115.048 97.1077C114.786 96.7245 114.479 96.4679 114.152 96.2668L112.754 98.5379ZM112.891 98.6736L112.943 98.7413L115.057 97.1154L115.004 97.0477L112.891 98.6736ZM112.928 98.7214C114.176 100.408 115.84 101.432 117.662 102.089L118.567 99.5804C117.097 99.0502 115.927 98.292 115.072 97.1353L112.928 98.7214ZM117.664 102.09C117.718 102.109 117.768 102.168 117.78 102.217L120.376 101.609C120.158 100.678 119.469 99.904 118.564 99.5796L117.664 102.09ZM117.781 102.223C117.792 102.27 117.789 102.301 117.786 102.314L120.391 102.886C120.481 102.473 120.478 102.034 120.375 101.603L117.781 102.223ZM120.367 102.978C120.387 102.911 120.426 102.864 120.46 102.84C120.475 102.83 120.49 102.823 120.506 102.82C120.521 102.816 120.551 102.812 120.601 102.819L121.003 100.183C119.4 99.9388 118.175 100.987 117.81 102.222L120.367 102.978ZM120.588 102.817C122.588 103.142 124.719 103.138 126.666 102.97L126.437 100.313C124.634 100.469 122.735 100.465 121.016 100.185L120.588 102.817ZM105.466 88.9411C105.518 88.9804 105.539 89.0104 105.548 89.024C105.556 89.038 105.56 89.0491 105.561 89.0601C105.566 89.0854 105.564 89.1382 105.529 89.2011C105.494 89.2641 105.45 89.2957 105.424 89.3066C105.412 89.3113 105.4 89.3144 105.384 89.3147C105.367 89.315 105.331 89.313 105.271 89.2912L104.353 91.7947C107.427 92.922 109.731 88.8429 107.085 86.8219L105.466 88.9411ZM105.264 89.2884C105.265 89.289 105.265 89.2888 105.263 89.2879C105.261 89.287 105.259 89.2859 105.257 89.285C105.255 89.2841 105.255 89.2841 105.258 89.2855C105.26 89.2869 105.266 89.291 105.275 89.2987L103.609 91.381C103.842 91.5669 104.11 91.7073 104.361 91.7975L105.264 89.2884ZM105.24 89.2711C103.573 88.0278 101.867 86.9983 100.077 86.0395L98.818 88.3901C100.528 89.3063 102.114 90.2664 103.645 91.4086L105.24 89.2711ZM100.056 86.0285C100.029 86.0147 100 85.9882 99.9793 85.9448C99.958 85.9007 99.9535 85.8553 99.9605 85.8185L97.341 85.3195C97.1078 86.5439 97.702 87.8178 98.839 88.4011L100.056 86.0285ZM99.9595 85.824C99.9861 85.6873 100.13 85.6122 100.262 85.6805L101.487 83.3117C99.7857 82.432 97.7112 83.4194 97.342 85.314L99.9595 85.824ZM100.253 85.6753C102.088 86.644 103.839 87.7165 105.474 88.947L107.077 86.816C105.307 85.484 103.432 84.3377 101.497 83.3168L100.253 85.6753ZM90.8539 80.4269L89.9633 83.3644L92.5153 84.1381L93.4059 81.2006L90.8539 80.4269Z" fill="#FF9F66" mask="url(#path-6-inside-1_90_42)"/>
</g>
</svg>
