<svg width="268" height="243" viewBox="0 0 268 243" fill="none" xmlns="http://www.w3.org/2000/svg">
<path fill-rule="evenodd" clip-rule="evenodd" d="M17.968 94.2246C17.968 94.2246 18.5173 101.081 14.2679 103.531C10.0185 105.979 4.81286 104.921 4.81286 104.921C4.81286 104.921 4.67625 102.587 9.70753 98.3142C13.7767 94.8553 17.968 94.2246 17.968 94.2246Z" fill="#687C3C"/>
<path fill-rule="evenodd" clip-rule="evenodd" d="M117.946 149.507C117.254 147.214 110.973 146.159 104.07 148.24C97.1636 150.321 90.9726 154.643 91.6644 156.937C92.3591 159.233 99.6778 158.637 106.581 156.556C113.487 154.478 118.64 151.804 117.946 149.507Z" fill="#687C3C"/>
<path fill-rule="evenodd" clip-rule="evenodd" d="M71.1407 234.049L71.007 237.853L86.6298 236.572L86.7635 232.898L79.5988 231.622L80.1161 211.552H68.423L71.1407 234.049Z" fill="white"/>
<path fill-rule="evenodd" clip-rule="evenodd" d="M70.3469 240.318C71.1113 240.664 72.4599 241.045 74.1458 241.335C76.7442 241.777 78.7817 242.021 79.6217 242.102C85.6674 242.713 92.3699 242.652 93.1547 240.818C95.5323 235.258 88.6728 232.842 83.9845 231.398C81.6244 230.668 72.4658 238.519 70.7422 230.694C70.3818 229.052 68.4111 239.443 70.3469 240.318Z" fill="#98B065"/>
<mask id="mask0_110_7804" style="mask-type:luminance" maskUnits="userSpaceOnUse" x="69" y="229" width="22" height="8">
<path d="M69.9757 229.922H90.0659V236.618H69.9757V229.922Z" fill="white"/>
</mask>
<g mask="url(#mask0_110_7804)">
<mask id="mask1_110_7804" style="mask-type:luminance" maskUnits="userSpaceOnUse" x="69" y="230" width="25" height="13">
<path d="M93.8663 231.526L69.6226 230.471L69.3058 241.917L93.5466 242.972L93.8663 231.526Z" fill="white"/>
</mask>
<g mask="url(#mask1_110_7804)">
<mask id="mask2_110_7804" style="mask-type:luminance" maskUnits="userSpaceOnUse" x="69" y="230" width="25" height="13">
<path fill-rule="evenodd" clip-rule="evenodd" d="M70.3469 240.318C71.1113 240.664 72.46 241.045 74.1458 241.335C76.7443 241.777 78.7818 242.021 79.6218 242.103C85.6674 242.713 92.37 242.652 93.1548 240.818C95.5323 235.258 88.6728 232.842 83.9845 231.398C81.6244 230.668 72.4658 238.519 70.7422 230.694C70.3818 229.052 68.4111 239.443 70.3469 240.318Z" fill="white"/>
</mask>
<g mask="url(#mask2_110_7804)">
<path d="M90.0595 233.264C90.0595 233.464 89.9956 233.665 89.8706 233.862C89.7427 234.06 89.5567 234.252 89.3067 234.438C89.0567 234.624 88.7545 234.801 88.3911 234.97C88.0307 235.138 87.6209 235.292 87.1617 235.435C86.7024 235.577 86.2025 235.705 85.6619 235.816C85.1212 235.929 84.5516 236.022 83.9499 236.101C83.3511 236.179 82.732 236.237 82.0955 236.275C81.459 236.316 80.8137 236.333 80.1655 236.333C79.5145 236.333 78.8721 236.316 78.2327 236.275C77.5961 236.237 76.977 236.179 76.3783 236.101C75.7766 236.022 75.2069 235.929 74.6663 235.816C74.1257 235.705 73.6258 235.577 73.1665 235.435C72.7073 235.292 72.2975 235.138 71.937 234.97C71.5766 234.801 71.2714 234.624 71.0215 234.438C70.7744 234.252 70.5855 234.06 70.4605 233.862C70.3326 233.665 70.2687 233.464 70.2687 233.264C70.2687 233.063 70.3326 232.863 70.4605 232.665C70.5855 232.467 70.7744 232.275 71.0215 232.089C71.2714 231.903 71.5766 231.726 71.937 231.558C72.2975 231.389 72.7073 231.235 73.1665 231.092C73.6258 230.95 74.1257 230.822 74.6663 230.712C75.2069 230.598 75.7766 230.505 76.3783 230.427C76.977 230.348 77.5961 230.29 78.2327 230.252C78.8721 230.212 79.5145 230.194 80.1655 230.194C80.8137 230.194 81.459 230.212 82.0955 230.252C82.732 230.29 83.3511 230.348 83.9499 230.427C84.5516 230.505 85.1212 230.598 85.6619 230.712C86.2025 230.822 86.7024 230.95 87.1617 231.092C87.6209 231.235 88.0307 231.389 88.3911 231.558C88.7545 231.726 89.0567 231.903 89.3067 232.089C89.5567 232.275 89.7427 232.467 89.8706 232.665C89.9956 232.863 90.0595 233.063 90.0595 233.264Z" fill="white"/>
</g>
</g>
</g>
<mask id="mask3_110_7804" style="mask-type:luminance" maskUnits="userSpaceOnUse" x="77" y="230" width="12" height="8">
<path d="M77.416 230.665H88.5772V237.362H77.416V230.665Z" fill="white"/>
</mask>
<g mask="url(#mask3_110_7804)">
<mask id="mask4_110_7804" style="mask-type:luminance" maskUnits="userSpaceOnUse" x="69" y="230" width="25" height="13">
<path d="M93.8672 231.528L69.6235 230.473L69.3066 241.919L93.5474 242.974L93.8672 231.528Z" fill="white"/>
</mask>
<g mask="url(#mask4_110_7804)">
<mask id="mask5_110_7804" style="mask-type:luminance" maskUnits="userSpaceOnUse" x="69" y="230" width="25" height="13">
<path fill-rule="evenodd" clip-rule="evenodd" d="M70.3459 240.318C71.1103 240.664 72.459 241.045 74.1448 241.335C76.7433 241.777 78.7808 242.021 79.6208 242.102C85.6664 242.713 92.369 242.652 93.1537 240.818C95.5313 235.258 88.6718 232.842 83.9835 231.398C81.6234 230.668 72.4648 238.519 70.7412 230.694C70.3808 229.052 68.4101 239.443 70.3459 240.318Z" fill="white"/>
</mask>
<g mask="url(#mask5_110_7804)">
<path fill-rule="evenodd" clip-rule="evenodd" d="M79.2238 236.851C79.6714 236.168 80.9619 234.729 82.9064 233.622C84.1969 232.887 85.7781 232.297 87.5976 232.178C87.9697 232.151 88.2516 231.832 88.2284 231.463C88.2022 231.09 87.8825 230.809 87.5104 230.835C85.4642 230.968 83.6883 231.628 82.2379 232.454C80.0435 233.703 78.6018 235.343 78.0961 236.119C77.8926 236.43 77.9798 236.845 78.2937 237.049C78.6047 237.252 79.0203 237.162 79.2238 236.851Z" fill="#98B065"/>
</g>
</g>
</g>
<path fill-rule="evenodd" clip-rule="evenodd" d="M60.776 234.049L60.9097 237.853L45.2869 236.572L45.1561 232.898L52.3179 231.622L51.8005 211.552H63.4936L60.776 234.049Z" fill="white"/>
<path fill-rule="evenodd" clip-rule="evenodd" d="M61.569 240.318C60.8046 240.664 59.456 241.045 57.7672 241.335C55.1717 241.777 53.1342 242.021 52.2942 242.102C46.2485 242.713 39.543 242.652 38.7612 240.818C36.3836 235.258 43.2431 232.842 47.9314 231.398C50.2915 230.668 59.4501 238.519 61.1737 230.694C61.5342 229.052 63.5048 239.443 61.569 240.318Z" fill="#98B065"/>
<mask id="mask6_110_7804" style="mask-type:luminance" maskUnits="userSpaceOnUse" x="41" y="229" width="21" height="8">
<path d="M41.7003 229.922H61.7905V236.618H41.7003V229.922Z" fill="white"/>
</mask>
<g mask="url(#mask6_110_7804)">
<mask id="mask7_110_7804" style="mask-type:luminance" maskUnits="userSpaceOnUse" x="38" y="230" width="25" height="13">
<path d="M38.0509 231.526L62.2917 230.47L62.6115 241.917L38.3707 242.972L38.0509 231.526Z" fill="white"/>
</mask>
<g mask="url(#mask7_110_7804)">
<mask id="mask8_110_7804" style="mask-type:luminance" maskUnits="userSpaceOnUse" x="38" y="230" width="25" height="13">
<path fill-rule="evenodd" clip-rule="evenodd" d="M61.5702 240.318C60.8057 240.664 59.4571 241.044 57.7684 241.335C55.1728 241.777 53.1353 242.021 52.2953 242.102C46.2496 242.713 39.5442 242.652 38.7623 240.818C36.3847 235.257 43.2442 232.842 47.9325 231.398C50.2927 230.668 59.4513 238.519 61.1749 230.694C61.5353 229.052 63.5059 239.443 61.5702 240.318Z" fill="white"/>
</mask>
<g mask="url(#mask8_110_7804)">
<path d="M41.8577 233.264C41.8577 233.464 41.9216 233.665 42.0466 233.862C42.1745 234.06 42.3605 234.252 42.6105 234.438C42.8575 234.624 43.1627 234.801 43.526 234.97C43.8865 235.138 44.2963 235.292 44.7555 235.435C45.2148 235.577 45.7147 235.705 46.2553 235.816C46.7959 235.929 47.3656 236.022 47.9644 236.1C48.566 236.179 49.1851 236.237 49.8217 236.275C50.4582 236.316 51.1035 236.333 51.7516 236.333C52.4027 236.333 53.0451 236.316 53.6816 236.275C54.321 236.237 54.9401 236.179 55.5389 236.1C56.1406 236.022 56.7102 235.929 57.2509 235.816C57.7915 235.705 58.2885 235.577 58.7507 235.435C59.2099 235.292 59.6197 235.138 59.9801 234.97C60.3405 234.801 60.6457 234.624 60.8957 234.438C61.1428 234.252 61.3317 234.06 61.4567 233.862C61.5846 233.665 61.6485 233.464 61.6485 233.264C61.6485 233.063 61.5846 232.862 61.4567 232.665C61.3317 232.467 61.1428 232.275 60.8957 232.089C60.6457 231.903 60.3405 231.726 59.9801 231.557C59.6197 231.389 59.2099 231.235 58.7507 231.092C58.2885 230.95 57.7915 230.822 57.2509 230.712C56.7102 230.598 56.1406 230.505 55.5389 230.427C54.9401 230.348 54.321 230.29 53.6816 230.252C53.0451 230.212 52.4027 230.194 51.7516 230.194C51.1035 230.194 50.4582 230.212 49.8217 230.252C49.1851 230.29 48.566 230.348 47.9644 230.427C47.3656 230.505 46.7959 230.598 46.2553 230.712C45.7147 230.822 45.2148 230.95 44.7555 231.092C44.2963 231.235 43.8865 231.389 43.526 231.557C43.1627 231.726 42.8575 231.903 42.6105 232.089C42.3605 232.275 42.1745 232.467 42.0466 232.665C41.9216 232.862 41.8577 233.063 41.8577 233.264Z" fill="white"/>
</g>
</g>
</g>
<mask id="mask9_110_7804" style="mask-type:luminance" maskUnits="userSpaceOnUse" x="43" y="230" width="12" height="8">
<path d="M43.1895 230.665H54.3507V237.362H43.1895V230.665Z" fill="white"/>
</mask>
<g mask="url(#mask9_110_7804)">
<mask id="mask10_110_7804" style="mask-type:luminance" maskUnits="userSpaceOnUse" x="38" y="230" width="25" height="13">
<path d="M38.0518 231.528L62.2925 230.473L62.6123 241.919L38.3715 242.974L38.0518 231.528Z" fill="white"/>
</mask>
<g mask="url(#mask10_110_7804)">
<mask id="mask11_110_7804" style="mask-type:luminance" maskUnits="userSpaceOnUse" x="38" y="230" width="25" height="13">
<path fill-rule="evenodd" clip-rule="evenodd" d="M61.571 240.318C60.8066 240.664 59.4579 241.045 57.7692 241.335C55.1736 241.777 53.1361 242.021 52.2961 242.102C46.2505 242.713 39.545 242.652 38.7631 240.818C36.3856 235.258 43.2451 232.842 47.9334 231.398C50.2935 230.668 59.4521 238.519 61.1757 230.694C61.5361 229.052 63.5068 239.443 61.571 240.318Z" fill="white"/>
</mask>
<g mask="url(#mask11_110_7804)">
<path fill-rule="evenodd" clip-rule="evenodd" d="M53.8223 236.119C53.3166 235.343 51.8749 233.703 49.6805 232.453C48.2301 231.628 46.4542 230.968 44.4079 230.834C44.0359 230.808 43.7162 231.09 43.69 231.462C43.6668 231.831 43.9487 232.151 44.3208 232.177C46.1403 232.296 47.7214 232.887 49.012 233.622C50.9565 234.729 52.247 236.168 52.6946 236.851C52.8951 237.162 53.3137 237.252 53.6247 237.049C53.9386 236.845 54.0258 236.43 53.8223 236.119Z" fill="#98B065"/>
</g>
</g>
</g>
<path fill-rule="evenodd" clip-rule="evenodd" d="M13.8432 223.957C12.9683 238.443 120.808 235.993 117.954 223.34C115.489 212.438 115.344 197.922 108.063 177.98C101.965 161.271 20.7434 179.009 20.7434 179.009C20.7434 179.009 14.1891 218.257 13.8432 223.957Z" fill="#687C3C"/>
<path fill-rule="evenodd" clip-rule="evenodd" d="M102.389 124.487C106.101 129.885 110.897 150.08 110.897 150.08C112.966 151.478 115.004 154.105 116.201 157.189C118.041 161.933 118.852 165.607 116.231 166.525C114.428 167.156 110.237 160.546 109.842 160.851C109.464 161.139 111.208 164.153 109.79 164.389C108.708 164.569 106.325 159.456 105.776 158.035C104.796 155.515 104.578 153.19 105.017 151.533C105.017 151.533 97.1256 139.427 94.1348 131.294L102.389 124.487Z" fill="#FFC2AF"/>
<path fill-rule="evenodd" clip-rule="evenodd" d="M94.2191 157.475C85.7784 162.478 64.7116 104.878 86.9323 92.4497C91.3213 89.9936 102.828 110.517 108.575 124.643C110.057 128.288 116.454 143.838 117.995 149.7C117.995 149.7 103.32 152.084 94.2191 157.475Z" fill="#98B065"/>
<path fill-rule="evenodd" clip-rule="evenodd" d="M0.336879 88.0744C-0.503119 88.8418 0.243868 89.8794 2.39764 92.1146C4.76068 94.5706 6.99583 97.0645 9.54489 98.0033L17.8083 121.096L29.3067 116.137L17.3752 94.7072C18.1047 93.8469 18.2879 91.2106 18.718 88.1297C19.2296 84.4529 19.3284 82.4095 18.3547 82.2816C16.7561 82.0666 15.2854 84.418 14.9424 86.4322C13.9919 83.017 12.4253 77.9073 11.3412 78.2996C10.0477 78.7676 11.6434 85.4847 11.097 85.7259C10.8819 85.8218 8.34739 77.5178 6.41452 78.4014C4.44968 79.3053 8.07126 86.2898 7.86199 86.3944C7.65272 86.4991 3.7957 81.2266 2.79002 81.7527C1.52276 82.4153 4.86531 89.8678 4.69673 90.0306C4.33341 90.3852 1.13328 87.3478 0.336879 88.0744Z" fill="#FFC2AF"/>
<path fill-rule="evenodd" clip-rule="evenodd" d="M28.0047 131.345C31.3938 130.109 34.062 126.473 28.246 113.853C26.1096 109.211 19.1746 92.7193 17.8608 94.2336C9.44337 103.918 4.39175 104.223 4.84227 105.162C6.56005 108.729 19.503 134.443 28.0047 131.345Z" fill="#98B065"/>
<path fill-rule="evenodd" clip-rule="evenodd" d="M23.0228 129.356C25.4091 132.571 30.5886 133.524 41.1424 122.247C45.0227 118.099 55.8816 106.804 57.4192 105.191C57.6285 104.973 45.6011 91.3327 44.8279 92.1902C41.8778 95.4513 33.3179 104.508 29.7138 109.409C23.8134 117.431 19.8431 125.066 23.0228 129.356Z" fill="#98B065"/>
<path fill-rule="evenodd" clip-rule="evenodd" d="M35.265 125.3C29.8763 142.443 19.8835 178.449 12.5415 209.093C7.86771 228.602 123.36 228.457 119.413 209.093C115.614 190.445 103.863 147.593 93.6202 125.579C84.2436 105.425 99.2241 102.846 84.0809 93.9844C75.6518 89.0548 51.2744 88.0666 43.3656 93.7489C29.4664 102.518 42.4733 102.373 35.265 125.3Z" fill="#98B065"/>
<mask id="mask12_110_7804" style="mask-type:luminance" maskUnits="userSpaceOnUse" x="12" y="106" width="108" height="110">
<path d="M12.3838 106.403H119.537V215.039H12.3838V106.403Z" fill="white"/>
</mask>
<g mask="url(#mask12_110_7804)">
<mask id="mask13_110_7804" style="mask-type:luminance" maskUnits="userSpaceOnUse" x="12" y="89" width="108" height="135">
<path fill-rule="evenodd" clip-rule="evenodd" d="M35.2649 125.299C29.8761 142.442 19.8833 178.448 12.5413 209.092C7.86753 228.601 123.36 228.456 119.413 209.092C115.614 190.444 103.863 147.592 93.6201 125.578C84.2435 105.424 99.2239 102.845 84.0807 93.9832C75.6516 89.0537 51.2742 88.0655 43.3655 93.7478C29.4663 102.517 42.4732 102.372 35.2649 125.299Z" fill="white"/>
</mask>
<g mask="url(#mask13_110_7804)">
<path fill-rule="evenodd" clip-rule="evenodd" d="M63.0604 116.433C42.476 88.9951 20.1129 127.981 -0.314487 160.293C-20.7419 192.606 50.3005 238.335 54.0326 200.308C56.6456 173.698 61.8454 140.625 64.0021 124.955C64.6706 120.075 63.4382 116.939 63.0604 116.433ZM66.2663 116.959C86.8506 89.5183 109.621 127.981 130.045 160.293C150.473 192.606 79.4302 238.335 75.6981 200.308C73.027 173.111 67.2313 139.636 65.1909 124.403C64.6183 120.136 65.9146 117.427 66.2663 116.959Z" fill="#687C3C"/>
</g>
</g>
<path fill-rule="evenodd" clip-rule="evenodd" d="M64.0488 123.537C64.0343 123.531 64.0256 123.522 64.0139 123.516C63.9355 123.47 63.8541 123.426 63.7669 123.389C63.6564 123.336 63.5402 123.29 63.4239 123.249C63.142 123.144 62.8542 123.057 62.5606 122.985C62.2729 122.915 61.9793 122.862 61.6829 122.825C60.9417 122.729 60.1453 122.711 59.3663 122.813C58.5641 122.921 57.7822 123.156 57.1021 123.554C56.7184 123.781 56.3319 124.109 56.0993 124.505C55.9133 124.824 55.8174 125.182 55.861 125.568C55.9249 126.109 56.204 126.545 56.6051 126.879C57.105 127.298 57.7997 127.548 58.381 127.658C59.3198 127.836 60.2296 127.737 61.0899 127.458C62.0956 127.129 63.0344 126.551 63.8715 125.885C63.8977 126.013 63.9151 126.112 63.9122 126.15C63.8919 126.58 63.7959 126.984 63.6506 127.371C63.4966 127.777 63.2873 128.164 63.0489 128.542C61.8049 130.501 60.0784 132.076 58.6455 133.896C58.2705 134.37 57.9189 134.858 57.5962 135.372C57.4276 135.643 57.509 135.997 57.7793 136.166C58.0496 136.334 58.4072 136.253 58.5757 135.983C58.8751 135.503 59.2065 135.05 59.5523 134.608C61.0085 132.759 62.7612 131.152 64.0256 129.158C64.3046 128.713 64.5487 128.257 64.7289 127.777C64.9179 127.28 65.0399 126.76 65.069 126.208C65.069 126.205 65.069 126.205 65.069 126.202C65.101 126.249 65.1359 126.298 65.1649 126.347C65.2696 126.507 65.3568 126.676 65.4352 126.844C65.6765 127.359 65.8247 127.894 65.9235 128.437C66.0805 129.295 66.1038 130.181 66.127 131.062C66.1851 133.631 66.4351 136.119 67.0658 138.488C67.7024 140.886 68.7313 143.162 70.3503 145.281C70.545 145.534 70.9054 145.583 71.1612 145.388C71.4141 145.197 71.4635 144.833 71.2687 144.58C69.7457 142.589 68.7807 140.447 68.182 138.192C67.5745 135.907 67.339 133.509 67.2809 131.036C67.2577 130.094 67.2257 129.149 67.06 128.231C66.9438 127.591 66.7635 126.964 66.4816 126.359C66.4351 126.263 66.3886 126.164 66.3392 126.071C67.4437 126.554 69.3678 127.185 70.7049 126.935C71.6146 126.763 72.3035 126.249 72.5011 125.194C72.69 124.188 72.2686 123.496 71.539 123.037C70.2892 122.249 67.932 122.27 66.9379 122.453C66.6153 122.514 66.2956 122.589 65.9788 122.679C65.662 122.769 65.348 122.877 65.0429 123.002L64.4208 123.293C64.3772 123.316 64.293 123.383 64.2203 123.444C64.1593 123.467 64.1011 123.499 64.0488 123.537ZM63.3832 124.49L63.0228 124.327C62.7815 124.24 62.5374 124.168 62.2903 124.106C62.0404 124.045 61.7875 124.002 61.5317 123.967C60.8894 123.883 60.1947 123.868 59.5204 123.958C58.8693 124.043 58.2357 124.226 57.6892 124.548C57.4974 124.662 57.2998 124.81 57.1602 124.996C57.0614 125.124 56.9888 125.269 57.0091 125.435C57.044 125.74 57.262 125.955 57.5148 126.118C57.8462 126.333 58.2502 126.458 58.5961 126.525C59.5262 126.699 60.4243 126.525 61.2527 126.161C62.0665 125.807 62.8164 125.278 63.4878 124.705C63.421 124.621 63.3919 124.534 63.3832 124.49ZM65.1591 124.22L66.406 124.83C67.1036 125.179 68.6732 125.821 69.9491 125.842C70.6293 125.85 71.2338 125.685 71.3646 124.981C71.4867 124.345 71.042 124.008 70.4781 123.801C69.3969 123.4 67.8593 123.455 67.1472 123.586C66.8624 123.641 66.5775 123.708 66.2985 123.787C66.0224 123.865 65.7492 123.961 65.4817 124.072L65.1591 124.22ZM64.9876 123.979V124.008C64.9876 123.996 64.9876 123.987 64.9876 123.979Z" fill="white"/>
<path fill-rule="evenodd" clip-rule="evenodd" d="M101.523 105.156C101.523 105.156 78.0638 122.351 65.926 122.322C54.166 122.29 29.2363 106.405 29.2363 106.405C29.2363 106.405 36.0086 94.4827 44.2197 91.8436C52.8028 89.0823 72.3727 89.5241 80.7262 89.8496C94.0267 90.367 101.523 105.156 101.523 105.156Z" fill="white"/>
<path fill-rule="evenodd" clip-rule="evenodd" d="M77.3344 8.06797C102.046 11.0908 118.724 34.9014 116.236 61.3861C113.736 87.9667 103.284 108.955 65.5919 103.752C25.9608 98.2792 21.6504 76.9159 26.6933 50.4341C31.6664 24.2983 52.6257 5.04804 77.3344 8.06797Z" fill="white"/>
<path fill-rule="evenodd" clip-rule="evenodd" d="M74.5388 30.5891C86.293 31.9959 101.276 49.3772 101.75 68.1246C102.224 86.9272 89.9465 101.419 66.2696 97.9925C40.5407 94.2692 34.2625 75.7631 39.0612 60.4571C44.7813 42.1922 61.747 29.0574 74.5388 30.5891Z" fill="#687C3C"/>
<path fill-rule="evenodd" clip-rule="evenodd" d="M73.5792 38.4162C86.4088 39.7997 100.509 54.5564 101.267 72.0394C101.991 88.6475 89.5682 100.91 66.2895 97.9951C45.6616 95.4111 33.7272 80.451 38.5782 64.3719C43.3218 48.6473 60.1421 36.9687 73.5792 38.4162Z" fill="#FFC2AF"/>
<path fill-rule="evenodd" clip-rule="evenodd" d="M38.5816 23.4527C38.9187 20.7089 40.6307 18.6598 42.3979 18.8749C44.168 19.0929 45.3306 21.4937 44.9964 24.2346C47.5803 22.8162 50.452 22.7871 51.4025 24.1706C52.3529 25.5542 51.0246 27.8271 48.4378 29.2455C51.3269 30.2192 53.1958 32.2335 52.6116 33.7391C52.0274 35.2476 49.208 35.6836 46.3189 34.7099C47.3333 37.3403 46.7955 39.8807 45.1185 40.3806C43.4385 40.8776 41.2498 39.1453 40.2354 36.5119C38.6106 38.8227 36.0703 39.9766 34.5618 39.0872C33.0504 38.2007 33.1434 35.6051 34.7653 33.2973C31.7279 33.5443 29.0945 32.4427 28.8911 30.8383C28.6905 29.2339 30.9925 27.7312 34.0299 27.4841C31.8645 25.4844 31.1233 22.9557 32.3819 21.8425C33.6375 20.7293 36.4162 21.4501 38.5816 23.4527Z" fill="#98B065"/>
<path fill-rule="evenodd" clip-rule="evenodd" d="M202.91 230.479L203.041 234.121L188.127 232.892L188.002 229.375L194.838 228.154L194.344 208.941H205.505L202.91 230.479Z" fill="white"/>
<mask id="mask14_110_7804" style="mask-type:luminance" maskUnits="userSpaceOnUse" x="180" y="226" width="25" height="13">
<path d="M180.837 226.945H204.648V238.522H180.837V226.945Z" fill="white"/>
</mask>
<g mask="url(#mask14_110_7804)">
<path fill-rule="evenodd" clip-rule="evenodd" d="M203.671 236.481C202.941 236.813 201.654 237.179 200.044 237.455C197.564 237.879 197.07 237.144 197.07 237.144L196.753 237.129C196.753 237.129 195.62 238.112 194.82 238.19C189.048 238.775 182.651 238.716 181.901 236.958C179.634 231.636 187.894 228.773 194.425 227.799C196.759 227.451 201.901 230.465 203.293 227.27C203.938 225.791 205.517 235.644 203.671 236.481Z" fill="#687C3C"/>
</g>
<path fill-rule="evenodd" clip-rule="evenodd" d="M216.039 230.476L215.908 234.118L230.822 232.892L230.947 229.375L224.11 228.154L224.602 208.938H213.443L216.039 230.476Z" fill="white"/>
<mask id="mask15_110_7804" style="mask-type:luminance" maskUnits="userSpaceOnUse" x="214" y="226" width="25" height="13">
<path d="M214.321 226.945H238.132V238.522H214.321V226.945Z" fill="white"/>
</mask>
<g mask="url(#mask15_110_7804)">
<path fill-rule="evenodd" clip-rule="evenodd" d="M215.275 236.482C216.005 236.813 217.295 237.176 218.902 237.452C221.382 237.877 221.876 237.144 221.876 237.144L222.193 237.127C222.193 237.127 223.326 238.109 224.128 238.191C229.898 238.772 236.298 238.714 237.045 236.958C239.315 231.633 231.052 228.77 224.524 227.797C222.19 227.448 217.048 230.462 215.653 227.268C215.011 225.791 213.429 235.644 215.275 236.482Z" fill="#687C3C"/>
</g>
<path fill-rule="evenodd" clip-rule="evenodd" d="M210.159 196.22H229.328C229.328 196.22 227.453 220.722 226.389 226.672C226.221 227.614 214.627 228.111 214.411 226.672C213.542 220.83 210.159 196.22 210.159 196.22Z" fill="#98B065"/>
<path fill-rule="evenodd" clip-rule="evenodd" d="M189.455 196.22H208.624C208.624 196.22 206.749 220.722 205.685 226.672C205.52 227.613 193.922 228.11 193.71 226.672C192.838 220.83 189.455 196.22 189.455 196.22Z" fill="#98B065"/>
<path fill-rule="evenodd" clip-rule="evenodd" d="M154.815 98.9113C160.936 96.4989 162.107 96.7401 162.107 96.7401C162.107 96.7401 159.739 100.365 155.951 101.675C152.167 102.989 148.473 102.312 148.473 102.312C148.473 102.312 149.353 101.062 154.815 98.9113Z" fill="#687C3C"/>
<path fill-rule="evenodd" clip-rule="evenodd" d="M257.306 155.987C256.527 156.446 255.931 155.545 254.783 153.17C253.519 150.566 252.196 148.049 252.112 145.727L236.841 132.464L243.343 124.619L256.478 140.364C257.3 140.024 259.314 140.629 261.724 141.166C264.599 141.806 266.151 142.309 266.011 143.131C265.784 144.48 263.668 144.991 262.079 144.692C264.404 146.436 267.845 149.159 267.287 149.921C266.624 150.828 261.986 147.622 261.672 147.991C261.55 148.136 267.148 152.557 266.014 153.859C264.863 155.185 260.518 150.267 260.387 150.406C260.259 150.546 263.267 155.161 262.631 155.821C261.826 156.652 257.062 151.828 256.899 151.915C256.547 152.107 258.044 155.554 257.306 155.987Z" fill="#FFC2AF"/>
<path fill-rule="evenodd" clip-rule="evenodd" d="M245.555 146.701C243.285 147.52 214.664 103.744 222.7 97.0739C225.953 94.3766 238.913 109.157 246.11 119.771C247.964 122.512 256.309 134.871 258.602 139.428C258.602 139.428 253.478 143.835 245.555 146.701Z" fill="#98B065"/>
<mask id="mask16_110_7804" style="mask-type:luminance" maskUnits="userSpaceOnUse" x="243" y="136" width="16" height="12">
<path d="M243.339 136.912H258.965V147.329H243.339V136.912Z" fill="white"/>
</mask>
<g mask="url(#mask16_110_7804)">
<mask id="mask17_110_7804" style="mask-type:luminance" maskUnits="userSpaceOnUse" x="218" y="90" width="42" height="60">
<path d="M218.682 98.6254L238.859 90.4521L259.359 141.212L239.182 149.383L218.682 98.6254Z" fill="white"/>
</mask>
<g mask="url(#mask17_110_7804)">
<mask id="mask18_110_7804" style="mask-type:luminance" maskUnits="userSpaceOnUse" x="221" y="96" width="38" height="51">
<path fill-rule="evenodd" clip-rule="evenodd" d="M245.554 146.701C243.284 147.52 214.663 103.744 222.699 97.0739C225.952 94.3766 238.912 109.157 246.109 119.771C247.963 122.512 256.308 134.871 258.601 139.428C258.601 139.428 253.477 143.835 245.554 146.701Z" fill="white"/>
</mask>
<g mask="url(#mask18_110_7804)">
<path fill-rule="evenodd" clip-rule="evenodd" d="M246.775 148.276C247.455 147.721 250.196 145.721 253.663 143.849C255.962 142.608 258.584 141.419 261.136 140.768C262.058 140.533 262.616 139.591 262.383 138.67C262.148 137.745 261.209 137.187 260.287 137.42C257.468 138.141 254.567 139.437 252.027 140.809C248.283 142.829 245.33 145 244.595 145.602C243.857 146.204 243.746 147.291 244.348 148.029C244.949 148.767 246.037 148.881 246.775 148.276Z" fill="white"/>
</g>
</g>
</g>
<path fill-rule="evenodd" clip-rule="evenodd" d="M143.944 88.3335C143.049 88.9875 143.662 90.0745 145.505 92.4667C147.528 95.0913 149.423 97.745 151.783 98.9251L157.323 122.16L168.952 118.573L159.692 96.5591C160.488 95.8005 160.945 93.266 161.686 90.3303C162.567 86.825 162.878 84.8543 161.95 84.6247C160.433 84.2498 158.765 86.3716 158.218 88.287C157.663 84.8776 156.689 79.7649 155.602 80.0294C154.3 80.3463 155.132 87.0197 154.579 87.197C154.364 87.2668 152.792 78.9569 150.833 79.6109C148.839 80.2765 151.6 87.4238 151.385 87.5022C151.173 87.5807 148.005 82.0699 146.979 82.471C145.685 82.9796 148.127 90.5512 147.946 90.6907C147.557 90.9959 144.79 87.7144 143.944 88.3335Z" fill="#FFC2AF"/>
<path fill-rule="evenodd" clip-rule="evenodd" d="M167.875 133.763C171.345 133.272 174.237 129.685 169.956 116.847C168.383 112.127 162.884 96.2452 162 96.748C153.141 101.797 148.151 101.538 148.488 102.491C149.77 106.128 153.682 114.934 155.795 119.727C159.213 127.485 163.247 134.417 167.875 133.763Z" fill="#98B065"/>
<mask id="mask19_110_7804" style="mask-type:luminance" maskUnits="userSpaceOnUse" x="148" y="96" width="17" height="9">
<path d="M148.098 96.7305H164.467V104.171H148.098V96.7305Z" fill="white"/>
</mask>
<g mask="url(#mask19_110_7804)">
<mask id="mask20_110_7804" style="mask-type:luminance" maskUnits="userSpaceOnUse" x="147" y="95" width="27" height="42">
<path d="M155.385 136.374L173.626 132.636L166.113 95.8711L147.871 99.6089L155.385 136.374Z" fill="white"/>
</mask>
<g mask="url(#mask20_110_7804)">
<mask id="mask21_110_7804" style="mask-type:luminance" maskUnits="userSpaceOnUse" x="148" y="96" width="25" height="38">
<path fill-rule="evenodd" clip-rule="evenodd" d="M167.876 133.764C171.346 133.273 174.238 129.686 169.957 116.848C168.384 112.128 162.885 96.2461 162.001 96.749C153.142 101.798 148.152 101.539 148.489 102.492C149.771 106.128 153.683 114.935 155.796 119.728C159.214 127.486 163.248 134.418 167.876 133.764Z" fill="white"/>
</mask>
<g mask="url(#mask21_110_7804)">
<path fill-rule="evenodd" clip-rule="evenodd" d="M147.357 103.696C149.046 103.658 150.74 103.548 152.763 103.112C153.836 102.879 154.978 102.556 156.228 102.089C156.658 101.929 157.097 101.737 157.542 101.522C158.152 101.225 158.774 100.888 159.425 100.507C160.791 99.6993 162.224 98.7198 163.867 97.5921C164.34 97.3421 164.521 96.755 164.271 96.2812C164.021 95.8074 163.433 95.6272 162.963 95.8772C161.538 96.4236 160.248 96.8625 159.047 97.3072C158.129 97.6473 157.277 97.9583 156.484 98.2693C155.955 98.4786 155.455 98.682 154.981 98.8942C154.185 99.2459 153.461 99.5918 152.778 99.9115C150.601 100.923 148.898 101.67 147.122 102.182C146.706 102.248 146.418 102.641 146.485 103.056C146.549 103.475 146.942 103.76 147.357 103.696Z" fill="white"/>
</g>
</g>
</g>
<path fill-rule="evenodd" clip-rule="evenodd" d="M163.273 131.31C165.237 134.676 170.138 136.146 181.517 126.339C185.703 122.732 197.384 112.94 199.035 111.539C199.262 111.347 189.089 96.8698 188.252 97.6167C185.06 100.465 175.838 108.33 171.838 112.699C165.296 119.843 160.654 126.819 163.273 131.31Z" fill="#98B065"/>
<path fill-rule="evenodd" clip-rule="evenodd" d="M170.24 200.76C174.33 170.38 179.001 141.829 179.995 128.273C181.672 105.331 180.341 102.689 188.046 97.6114C195.748 92.5365 218.277 92.6644 226.218 97.8177C234.162 102.974 231.642 107.656 235.693 128.54C239.954 150.52 246.108 179.187 248.43 199.981C234.301 204.431 227.662 205.401 210.368 205.401C192.833 205.401 185.197 205.558 171.409 201.14C171.266 201.094 171.127 201.047 170.981 201.001C170.868 200.966 170.636 200.89 170.636 200.89C170.636 200.89 170.374 200.803 170.24 200.76Z" fill="#687C3C"/>
<mask id="mask22_110_7804" style="mask-type:luminance" maskUnits="userSpaceOnUse" x="193" y="93" width="29" height="113">
<path d="M193.486 93.873H221.017V205.485H193.486V93.873Z" fill="white"/>
</mask>
<g mask="url(#mask22_110_7804)">
<mask id="mask23_110_7804" style="mask-type:luminance" maskUnits="userSpaceOnUse" x="170" y="93" width="79" height="113">
<path fill-rule="evenodd" clip-rule="evenodd" d="M170.24 200.758C174.33 170.378 179.001 141.827 179.995 128.271C181.672 105.329 180.341 102.687 188.046 97.6094C195.748 92.5345 218.277 92.6624 226.218 97.8158C234.162 102.972 231.642 107.655 235.693 128.538C239.954 150.518 246.108 179.185 248.43 199.979C234.301 204.429 227.662 205.4 210.368 205.4C192.833 205.4 185.197 205.556 171.409 201.139C171.266 201.092 171.127 201.045 170.981 200.999C170.868 200.964 170.636 200.889 170.636 200.889C170.636 200.889 170.374 200.801 170.24 200.758Z" fill="white"/>
</mask>
<g mask="url(#mask23_110_7804)">
<path fill-rule="evenodd" clip-rule="evenodd" d="M203.738 98.8171C197.951 98.2794 193.688 96.4482 193.688 94.277C193.688 91.6786 199.777 89.5713 207.279 89.5713C214.78 89.5713 220.87 91.6786 220.87 94.277C220.87 96.4482 216.606 98.2794 210.819 98.8171V250.418H203.738V98.8171Z" fill="#98B065"/>
</g>
</g>
<path fill-rule="evenodd" clip-rule="evenodd" d="M235.833 145.572C228.217 148.403 222.009 147.043 222.009 147.043L223.151 157.829C223.285 159.091 223.86 160.25 224.747 161.056C225.633 161.864 226.761 162.25 227.883 162.131L233.254 161.558C234.376 161.439 235.397 160.826 236.097 159.849C236.795 158.876 237.111 157.62 236.978 156.359C236.492 151.792 236.498 149.049 235.833 145.572Z" fill="#98B065"/>
<path fill-rule="evenodd" clip-rule="evenodd" d="M182.837 145.572C190.452 148.403 196.664 147.043 196.664 147.043L195.519 157.829C195.385 159.091 194.812 160.25 193.923 161.056C193.036 161.864 191.909 162.25 190.787 162.131L185.415 161.558C184.293 161.439 183.273 160.826 182.576 159.849C181.875 158.876 181.558 157.62 181.692 156.359C182.177 151.792 182.172 149.049 182.837 145.572Z" fill="#98B065"/>
<path fill-rule="evenodd" clip-rule="evenodd" d="M207.401 12.9928C207.258 13.0015 207.116 13.0102 206.97 13.0219C206.77 12.3679 206.087 11.9871 205.468 11.7953C204.793 11.5831 203.166 12.1325 202.977 12.0046C202.134 11.4262 202.329 9.91183 199.945 9.02824C197.571 8.15045 195.167 9.15613 193.722 11.0832C193.219 10.9262 192.687 10.8623 192.159 10.8652C190.734 10.8739 189.243 11.368 188.113 12.272C187.081 12.2662 186.27 13.0044 184.764 13.6381C183.895 14.0014 183.244 14.1583 182.892 14.6321C182.326 15.0768 181.904 15.6523 181.701 16.3499C181.18 16.4981 180.442 16.626 180.163 16.8237C178.742 17.841 176.463 18.399 175.966 20.1255C175.893 20.3813 175.925 20.7359 175.908 21.0614C175.728 21.105 175.547 21.1428 175.437 21.198C173.963 21.9276 172.83 23.2123 172.228 24.7412C171.824 25.7701 171.702 27.0519 172.15 28.0924C172.126 28.3976 172.065 28.6854 171.923 28.947C171.682 29.3829 171.411 29.784 171.127 30.1677C170.162 30.7926 169.086 31.746 168.726 33.2545C168.348 33.8562 168.028 34.513 167.816 35.2804C167.371 36.8761 168.066 37.7568 168.11 39.1461C168.112 39.2391 167.929 39.2827 167.868 39.306C166.273 39.9512 165.209 41.265 165.389 43.0845C165.563 44.843 166.854 45.5609 168.043 46.3864C167.336 47.1246 166.691 47.86 166.54 48.2262C165.889 49.79 166.845 50.9381 168.377 51.2229C168.438 51.2345 168.784 51.2491 168.778 51.3537C168.697 52.4814 166.636 53.2372 167.243 55.1817C167.831 57.0593 170.894 57.8412 172.629 57.5476C172.655 57.5447 173.016 57.4226 173.025 57.4313C173.789 58.3178 174.376 59.4485 175.222 60.274L242.657 58.6928L242.66 59.0096C242.858 59.6287 246.567 59.37 247.093 59.1433C248.174 58.6754 248.854 57.5767 248.996 56.4344C249.008 56.3414 249.084 55.1787 248.898 55.1177C248.863 55.1148 248.851 55.1148 248.886 55.1148C248.892 55.1177 248.895 55.1177 248.898 55.1177C248.967 55.1235 249.127 55.1351 249.194 55.1206C249.369 55.0828 249.543 55.0276 249.709 54.9578C250.24 54.734 250.746 54.3736 250.979 53.8272C251.746 52.0251 250.479 51.2491 249.525 50.3742C249.447 50.1388 249.325 49.912 249.185 49.6882C249.662 49.2871 250.267 48.8802 250.368 48.2466C250.418 47.9385 250.386 47.6711 250.304 47.4386C250.345 47.2845 250.368 47.1246 250.368 46.959C250.363 45.9126 249.775 45.4766 249.246 45.0668C249.517 44.686 249.834 44.2064 250.011 43.7937C250.293 43.5844 250.514 43.3054 250.578 42.9479C250.743 42.0033 249.964 40.8087 249.299 39.9396C249.691 39.4193 250.232 38.7247 250.601 38.0678C251.36 37.4312 251.455 36.4982 250.909 35.4519C250.304 34.298 249.354 33.6643 248.264 33.3533C248.18 32.5308 248.52 31.682 248.624 30.8043C249.287 30.1125 249.462 29.7521 249.121 28.633C248.444 26.4153 242.858 24.4447 241.576 23.2791C239.835 21.698 244.442 20.6807 243.817 20.5237C243.558 20.4598 243.288 20.7272 243.023 20.8841C242.997 20.4336 242.945 19.6198 242.896 19.4948C242.46 18.37 241.652 17.3904 240.698 16.6667C239.201 15.5302 237.329 15.0536 235.466 15.132C235.263 15.1408 235.033 15.1844 234.786 15.2396C234.292 15.0565 233.847 14.9286 233.478 14.8704C232.946 14.7891 232.359 14.7716 231.758 14.8239C230.99 14.1903 230.075 13.2951 229.22 12.9376C227.54 12.24 225.625 12.115 223.863 12.5772C223.186 12.7545 222.553 13.0248 221.96 13.3939C221.936 13.4113 221.904 13.4317 221.875 13.452C221.771 13.423 221.663 13.3939 221.556 13.3677C221.544 13.3212 221.532 13.2776 221.521 13.2428C221.274 12.5888 220.768 12.0133 220.265 11.5453C219.038 10.4001 217.524 9.6764 215.847 9.51073C213.574 9.28692 211.461 10.0833 209.583 11.3099C208.816 11.8127 208.15 12.426 207.424 12.9754L207.401 12.9928Z" fill="#0C0C0C"/>
<path d="M179.55 63.6416C179.733 64.2868 179.869 64.9408 179.962 65.5977C180.055 66.2575 180.102 66.9086 180.102 67.5538C180.099 68.1991 180.052 68.824 179.959 69.4315C179.864 70.036 179.727 70.6115 179.541 71.158C179.358 71.7015 179.134 72.2043 178.867 72.6665C178.599 73.1286 178.297 73.5385 177.957 73.9018C177.617 74.2622 177.251 74.5674 176.849 74.8115C176.451 75.0586 176.033 75.2446 175.588 75.3667C175.146 75.4917 174.69 75.5498 174.219 75.544C173.751 75.5382 173.274 75.4684 172.798 75.3347C172.318 75.201 171.844 75.0063 171.373 74.7476C170.905 74.4918 170.449 74.1779 170.007 73.8088C169.563 73.4367 169.144 73.0182 168.746 72.5473C168.348 72.0794 167.981 71.5678 167.641 71.0185C167.304 70.4662 167.002 69.8878 166.737 69.2745C166.47 68.6641 166.246 68.0363 166.063 67.3911C165.883 66.7429 165.743 66.0889 165.65 65.432C165.557 64.7722 165.511 64.1212 165.514 63.4759C165.514 62.8306 165.56 62.2057 165.656 61.6012C165.749 60.9937 165.889 60.4182 166.072 59.8747C166.255 59.3282 166.482 58.8254 166.749 58.3633C167.014 57.9011 167.319 57.4913 167.656 57.1309C167.996 56.7675 168.365 56.4653 168.763 56.2182C169.162 55.9711 169.583 55.7851 170.025 55.663C170.467 55.5381 170.923 55.4799 171.394 55.4857C171.865 55.4916 172.338 55.5613 172.818 55.695C173.298 55.8287 173.771 56.0235 174.239 56.2821C174.71 56.5379 175.167 56.8518 175.608 57.2239C176.05 57.593 176.469 58.0116 176.867 58.4824C177.265 58.9533 177.634 59.4619 177.971 60.0113C178.311 60.5635 178.611 61.1448 178.878 61.7552C179.143 62.3656 179.367 62.9934 179.55 63.6416Z" fill="#FFC2AF"/>
<path d="M236.425 64.6861C236.152 65.3023 235.922 65.9272 235.736 66.5666C235.55 67.2032 235.411 67.8426 235.318 68.4792C235.225 69.1186 235.184 69.7435 235.19 70.3568C235.196 70.9701 235.251 71.5601 235.353 72.1269C235.457 72.6908 235.608 73.2227 235.806 73.7168C236.004 74.2138 236.245 74.6643 236.527 75.0713C236.812 75.4753 237.131 75.8299 237.492 76.1322C237.849 76.4344 238.239 76.6786 238.66 76.8646C239.082 77.0477 239.524 77.1727 239.989 77.2366C240.457 77.2977 240.936 77.2977 241.427 77.2337C241.921 77.1698 242.418 77.0448 242.921 76.8588C243.421 76.6728 243.918 76.4257 244.409 76.1234C244.901 75.8211 245.377 75.4665 245.837 75.0596C246.299 74.6527 246.735 74.1993 247.15 73.7023C247.563 73.2081 247.947 72.6762 248.296 72.1095C248.647 71.5456 248.958 70.9556 249.231 70.3394C249.505 69.7261 249.737 69.1012 249.923 68.4617C250.109 67.8252 250.249 67.1857 250.339 66.5463C250.432 65.9097 250.475 65.2848 250.47 64.6686C250.464 64.0554 250.409 63.4682 250.304 62.9014C250.199 62.3376 250.051 61.8057 249.853 61.3116C249.656 60.8145 249.415 60.364 249.13 59.9571C248.848 59.5502 248.525 59.1985 248.168 58.8962C247.807 58.5939 247.418 58.3498 246.996 58.1637C246.578 57.9777 246.133 57.8556 245.668 57.7917C245.203 57.7307 244.723 57.7307 244.229 57.7946C243.735 57.8585 243.238 57.9835 242.738 58.1696C242.235 58.3556 241.738 58.6026 241.25 58.9049C240.759 59.2072 240.282 59.5618 239.82 59.9687C239.361 60.3756 238.922 60.8291 238.509 61.3232C238.094 61.8202 237.713 62.3521 237.361 62.9189C237.012 63.4828 236.698 64.0728 236.425 64.6861Z" fill="#FFC2AF"/>
<path fill-rule="evenodd" clip-rule="evenodd" d="M176.567 60.3986C176.332 62.5321 176.408 65.1015 176.309 68.2609C175.957 79.643 181.497 88.3162 193.739 93.5859C203.848 97.9341 211.156 97.5155 220.148 95.5013C231.141 93.0336 241.599 82.6804 242.544 71.8273C242.599 71.2227 242.628 70.6211 242.637 70.0223C242.654 69.8566 242.669 69.6909 242.683 69.5253C244.616 46.7959 238.268 38.8784 209.298 37.3176C176.887 35.5736 176.713 55.533 176.567 60.3986Z" fill="#FFC2AF"/>
<path fill-rule="evenodd" clip-rule="evenodd" d="M176.399 62.6454C176.178 64.6277 176.254 67.014 176.166 69.9496C175.853 80.5266 181.177 88.5982 192.911 93.519C202.602 97.5824 209.601 97.2074 218.207 95.353C228.732 93.0859 238.722 83.4855 239.605 73.3997C239.655 72.8417 239.684 72.2807 239.689 71.7255C239.707 71.5715 239.721 71.4174 239.733 71.2634C241.538 50.1472 238.114 38.7999 210.365 37.2914C179.326 35.6027 176.527 58.1228 176.399 62.6454Z" fill="#FFC2AF"/>
<path fill-rule="evenodd" clip-rule="evenodd" d="M173.396 53.5564C173.015 53.8645 174.62 58.8638 176.59 58.2593C179.895 57.242 177.989 52.8443 178.68 51.859C178.695 51.8357 179.514 52.2746 180.166 52.3066C181.27 52.3589 182.43 51.8096 183.043 50.8795C184.499 48.6647 182.688 47.8043 182.779 46.5632C182.808 46.1621 183.581 46.6679 183.985 46.6504C184.854 46.6155 185.97 46.4702 186.569 45.761C187.069 45.1652 186.999 44.2932 186.702 43.6218C186.691 43.5985 186.505 43.2701 186.534 43.2468C186.572 43.2148 187.435 43.5665 187.51 43.5869C188.49 43.8514 189.757 43.9095 190.548 43.1596C191.129 42.6074 191.615 40.2211 191.725 40.1484C191.821 40.0874 193.696 41.0495 193.946 41.1047C196.12 41.5755 196.878 40.4798 197.817 38.8957C197.817 38.8928 197.901 38.9742 197.904 38.9771C198.276 39.3142 198.718 39.6136 199.134 39.8868C200.07 40.5059 201.261 41.0785 202.407 41.0698C203.816 41.0611 205.839 38.4364 206.144 38.5149C207.101 38.7649 207.836 41.5843 211.751 41.5058C212.835 41.4854 213.902 41.1308 214.78 40.4914C215.12 40.2414 215.475 39.9159 215.669 39.5322C215.687 39.5003 215.78 39.1805 215.815 39.1951C216.288 39.4101 216.774 40.1978 217.143 40.5466C218.506 41.8371 220.331 43.1276 222.215 43.4445C225.587 44.0112 226.342 41.2268 227.636 41.0553C228.141 40.9855 230.068 44.1856 231.417 44.8076C233.443 45.7407 235.419 43.9618 236.009 44.1537C236.143 44.2002 236.132 44.4821 236.14 44.5897C236.257 46.1999 235.943 47.6793 236.608 49.2402C237.015 50.1964 238.12 51.7863 239.372 51.2137C239.413 51.1963 239.617 51.0248 239.66 51.0829C239.678 51.1033 239.538 55.1812 239.805 55.9631C241.087 59.759 246.028 58.3029 247.049 55.1202C249.025 48.9495 240.666 37.0529 236.012 33.8789C223.439 25.3046 187.144 25.6911 173.396 53.5564Z" fill="#0C0C0C"/>
<path fill-rule="evenodd" clip-rule="evenodd" d="M175.713 20.8146C173.225 20.2333 180.026 2.94501 184.38 1.73878C193.769 -0.865502 230.008 1.80563 239.181 5.62196C243.483 7.56064 245.651 25.5465 245.651 25.5465C245.651 25.5465 222.776 29.4587 211.176 28.674C199.521 27.8834 175.713 20.8146 175.713 20.8146Z" fill="#687C3C"/>
<mask id="mask24_110_7804" style="mask-type:luminance" maskUnits="userSpaceOnUse" x="180" y="0" width="65" height="8">
<path d="M180.094 0H244.829V7.44082H180.094V0Z" fill="white"/>
</mask>
<g mask="url(#mask24_110_7804)">
<mask id="mask25_110_7804" style="mask-type:luminance" maskUnits="userSpaceOnUse" x="174" y="-2" width="74" height="34">
<path d="M176.646 -1.31747L247.27 3.79809L245.291 31.2274L174.664 26.1147L176.646 -1.31747Z" fill="white"/>
</mask>
<g mask="url(#mask25_110_7804)">
<mask id="mask26_110_7804" style="mask-type:luminance" maskUnits="userSpaceOnUse" x="175" y="0" width="71" height="29">
<path fill-rule="evenodd" clip-rule="evenodd" d="M175.712 20.8145C173.224 20.2332 180.025 2.94492 184.379 1.73869C193.767 -0.865594 230.007 1.80554 239.18 5.62187C243.481 7.56055 245.65 25.5464 245.65 25.5464C245.65 25.5464 222.775 29.4586 211.175 28.6739C199.52 27.8833 175.712 20.8145 175.712 20.8145Z" fill="white"/>
</mask>
<g mask="url(#mask26_110_7804)">
<path d="M244.461 6.20561C244.456 6.287 244.397 6.36838 244.29 6.44395C244.179 6.51952 244.023 6.59219 243.813 6.65904C243.604 6.72589 243.345 6.78983 243.034 6.84796C242.726 6.9061 242.369 6.95841 241.965 7.00782C241.561 7.05724 241.11 7.10084 240.613 7.13862C240.116 7.17641 239.573 7.20838 238.988 7.23744C238.404 7.2636 237.779 7.28686 237.114 7.3043C236.445 7.32173 235.742 7.33045 235.001 7.33627C234.256 7.34208 233.48 7.34499 232.672 7.33917C231.861 7.33336 231.021 7.32173 230.149 7.3072C229.277 7.28976 228.382 7.26942 227.458 7.24035C226.537 7.21419 225.592 7.18222 224.624 7.14443C223.659 7.10665 222.677 7.06305 221.674 7.01655C220.674 6.96713 219.663 6.91481 218.639 6.85668C217.613 6.79855 216.582 6.73751 215.544 6.67066C214.503 6.60381 213.463 6.53115 212.419 6.45558C211.376 6.38001 210.335 6.30153 209.298 6.21724C208.26 6.13295 207.231 6.04575 206.208 5.95565C205.188 5.86554 204.176 5.77253 203.179 5.67662C202.185 5.5807 201.206 5.47897 200.244 5.37724C199.282 5.27551 198.343 5.17087 197.424 5.06624C196.509 4.95869 195.617 4.85115 194.753 4.74361C193.89 4.63316 193.056 4.52271 192.254 4.41226C191.451 4.2989 190.681 4.18845 189.949 4.0751C189.216 3.96174 188.519 3.84838 187.862 3.73793C187.205 3.62458 186.589 3.51122 186.016 3.40077C185.441 3.28742 184.909 3.17697 184.423 3.06942C183.938 2.95897 183.496 2.85143 183.104 2.74389C182.708 2.63925 182.365 2.53461 182.066 2.43288C181.77 2.33115 181.523 2.22942 181.325 2.13351C181.127 2.03759 180.982 1.94167 180.883 1.85157C180.787 1.76147 180.744 1.67427 180.749 1.58998C180.755 1.50569 180.813 1.42721 180.921 1.35164C181.028 1.27316 181.188 1.20341 181.398 1.13655C181.607 1.0668 181.866 1.00576 182.174 0.947627C182.482 0.889495 182.839 0.834271 183.246 0.787766C183.65 0.738354 184.101 0.694756 184.598 0.65697C185.095 0.619184 185.635 0.584306 186.22 0.558147C186.804 0.529081 187.432 0.508735 188.097 0.491295C188.763 0.473856 189.469 0.46223 190.21 0.456416C190.951 0.450604 191.728 0.450604 192.538 0.456416C193.349 0.46223 194.189 0.470949 195.061 0.488389C195.93 0.505829 196.829 0.526174 197.75 0.552334C198.674 0.581399 199.619 0.613372 200.584 0.651157C201.552 0.688942 202.534 0.732541 203.534 0.779046C204.534 0.828457 205.548 0.880776 206.571 0.938908C207.594 0.994133 208.626 1.05808 209.667 1.12493C210.705 1.19178 211.745 1.26444 212.789 1.34001C213.832 1.41558 214.873 1.49406 215.91 1.57835C216.948 1.65974 217.98 1.74693 219 1.83704C220.023 1.92714 221.032 2.02306 222.028 2.11897C223.025 2.21489 224.005 2.31371 224.967 2.41544C225.929 2.51717 226.868 2.62181 227.784 2.72935C228.702 2.83399 229.591 2.94153 230.458 3.05198C231.321 3.15953 232.155 3.27288 232.957 3.38333C233.759 3.49378 234.527 3.60714 235.262 3.72049C235.995 3.83094 236.689 3.9443 237.346 4.05766C238.003 4.17101 238.619 4.28146 239.195 4.39482C239.77 4.50527 240.299 4.61572 240.787 4.72617C241.273 4.83662 241.712 4.94416 242.107 5.0488C242.499 5.15634 242.845 5.26098 243.142 5.36271C243.438 5.46444 243.688 5.56326 243.886 5.66208C244.081 5.758 244.229 5.85101 244.325 5.94111C244.421 6.03412 244.467 6.12132 244.461 6.20561Z" fill="#98B065"/>
</g>
</g>
</g>
<path fill-rule="evenodd" clip-rule="evenodd" d="M245.433 24.2576C245.433 24.2576 235.153 26.0161 224.91 26.9317C219.957 27.3735 215.013 27.6205 211.267 27.3676C207.439 27.109 202.291 26.1614 197.117 25.0162C186.645 22.6939 176.085 19.5606 176.085 19.5606C175.394 19.3542 174.667 19.7495 174.461 20.4413C174.257 21.1331 174.653 21.8597 175.341 22.0661C175.341 22.0661 185.991 25.2284 196.554 27.5682C201.867 28.7454 207.16 29.7103 211.089 29.9748C214.949 30.2364 220.042 29.9894 225.143 29.5359C235.49 28.6087 245.872 26.8357 245.872 26.8357C246.581 26.7137 247.058 26.0364 246.939 25.3272C246.817 24.6151 246.143 24.1355 245.433 24.2576Z" fill="white"/>
</svg>
