<svg width="335" height="30" viewBox="0 0 335 30" fill="none" xmlns="http://www.w3.org/2000/svg">
<path d="M0.834283 28.1939C0.573748 28.2855 0.436738 28.5709 0.528261 28.8314C0.619784 29.0919 0.905183 29.2289 1.16572 29.1374L0.834283 28.1939ZM334.011 28.6657L330.236 24.2973L328.341 29.7507L334.011 28.6657ZM1.16572 29.1374C2.11542 28.8038 3.06723 28.4729 4.02112 28.1449L3.69589 27.1992C2.73993 27.528 1.78606 27.8596 0.834283 28.1939L1.16572 29.1374ZM9.75582 26.2144C11.6678 25.5846 13.5878 24.9659 15.5158 24.3584L15.2153 23.4046C13.2832 24.0134 11.359 24.6334 9.44296 25.2646L9.75582 26.2144ZM21.2967 22.5776C23.2237 21.9976 25.1584 21.4286 27.1006 20.8709L26.8246 19.9097C24.8783 20.4686 22.9396 21.0388 21.0085 21.6201L21.2967 22.5776ZM32.9264 19.2378C34.868 18.7068 36.8168 18.1869 38.7728 17.6782L38.5212 16.7104C36.5611 17.2201 34.6082 17.7411 32.6625 18.2732L32.9264 19.2378ZM44.6389 16.1919C46.5932 15.7097 48.5544 15.2387 50.5222 14.779L50.2947 13.8052C48.3228 14.2659 46.3577 14.7378 44.3994 15.221L44.6389 16.1919ZM56.4216 13.4391C58.3871 13.0054 60.3591 12.5829 62.3375 12.1717L62.134 11.1927C60.1516 11.6047 58.1756 12.028 56.2061 12.4626L56.4216 13.4391ZM68.2688 10.9766C70.2447 10.591 72.2267 10.2167 74.2147 9.85362L74.0351 8.86989C72.0431 9.23364 70.0571 9.60877 68.0773 9.99516L68.2688 10.9766ZM80.1741 8.80244C82.1591 8.46462 84.1498 8.13807 86.1461 7.82289L85.9902 6.83512C83.9899 7.15093 81.9952 7.47813 80.0064 7.81661L80.1741 8.80244ZM92.1275 6.91508C94.1194 6.62488 96.1168 6.34597 98.1194 6.07842L97.987 5.08723C95.9804 5.3553 93.9791 5.63476 91.9833 5.92553L92.1275 6.91508ZM104.121 5.31269C106.12 5.06968 108.123 4.83797 110.132 4.61765L110.023 3.62361C108.01 3.84436 106.003 4.07652 104.001 4.32L104.121 5.31269ZM116.151 3.99311C118.155 3.79701 120.163 3.61223 122.177 3.43885L122.091 2.44254C120.074 2.61625 118.061 2.80139 116.053 2.99787L116.151 3.99311ZM128.209 2.95465C130.217 2.80517 132.229 2.66702 134.246 2.5403L134.184 1.54227C132.163 1.66923 130.146 1.80764 128.134 1.95741L128.209 2.95465ZM140.287 2.19564C142.298 2.09252 144.312 2.00074 146.331 1.92038L146.291 0.921173C144.269 1.00168 142.25 1.09364 140.236 1.19696L140.287 2.19564ZM152.378 1.71426C154.391 1.65716 156.407 1.6114 158.427 1.57706L158.41 0.577208C156.386 0.611604 154.366 0.657451 152.35 0.714665L152.378 1.71426ZM164.478 1.50856C165.486 1.50286 166.495 1.5 167.506 1.5V0.5C166.494 0.5 165.482 0.502863 164.472 0.508578L164.478 1.50856ZM167.506 1.5C168.516 1.5 169.525 1.50286 170.533 1.50856L170.539 0.508578C169.529 0.502863 168.518 0.5 167.506 0.5V1.5ZM176.584 1.57706C178.604 1.6114 180.621 1.65716 182.633 1.71426L182.661 0.714665C180.645 0.657451 178.625 0.611605 176.601 0.577209L176.584 1.57706ZM188.68 1.92038C190.699 2.00074 192.714 2.09252 194.724 2.19564L194.775 1.19696C192.761 1.09364 190.743 1.00168 188.72 0.921172L188.68 1.92038ZM200.765 2.5403C202.782 2.66702 204.794 2.80517 206.803 2.95465L206.877 1.95741C204.865 1.80764 202.848 1.66923 200.828 1.54226L200.765 2.5403ZM212.835 3.43885C214.848 3.61222 216.857 3.79701 218.861 3.99311L218.958 2.99786C216.95 2.80138 214.938 2.61624 212.92 2.44254L212.835 3.43885ZM224.879 4.61765C226.888 4.83797 228.891 5.06967 230.89 5.31268L231.011 4.31999C229.008 4.07651 227.001 3.84435 224.988 3.62361L224.879 4.61765ZM236.892 6.07842C238.894 6.34596 240.892 6.62488 242.884 6.91508L243.028 5.92552C241.032 5.63476 239.031 5.35529 237.024 5.08723L236.892 6.07842ZM248.865 7.82288C250.861 8.13807 252.852 8.46462 254.837 8.80243L255.005 7.81661C253.016 7.47812 251.021 7.15093 249.021 6.83512L248.865 7.82288ZM260.796 9.85361C262.784 10.2166 264.766 10.591 266.742 10.9766L266.934 9.99515C264.954 9.60876 262.968 9.23364 260.976 8.86988L260.796 9.85361ZM272.674 12.1717C274.652 12.5829 276.624 13.0054 278.59 13.4391L278.805 12.4626C276.836 12.028 274.86 11.6047 272.877 11.1926L272.674 12.1717ZM284.489 14.779C286.457 15.2387 288.418 15.7097 290.372 16.1919L290.612 15.221C288.654 14.7378 286.688 14.2659 284.716 13.8052L284.489 14.779ZM296.238 17.6782C298.194 18.1869 300.143 18.7068 302.085 19.2378L302.349 18.2732C300.403 17.7411 298.45 17.2201 296.49 16.7104L296.238 17.6782ZM307.911 20.8709C309.853 21.4286 311.787 21.9976 313.714 22.5776L314.003 21.6201C312.072 21.0388 310.133 20.4686 308.187 19.9097L307.911 20.8709ZM319.495 24.3584C321.423 24.9659 323.343 25.5846 325.255 26.2144L325.568 25.2646C323.652 24.6334 321.728 24.0134 319.796 23.4046L319.495 24.3584ZM0.834283 28.1939C0.573748 28.2855 0.436738 28.5709 0.528261 28.8314C0.619784 29.0919 0.905183 29.2289 1.16572 29.1374L0.834283 28.1939ZM334.011 28.6657L330.236 24.2973L328.341 29.7507L334.011 28.6657ZM1.16572 29.1374C2.11542 28.8038 3.06723 28.4729 4.02112 28.1449L3.69589 27.1992C2.73993 27.528 1.78606 27.8596 0.834283 28.1939L1.16572 29.1374ZM9.75582 26.2144C11.6678 25.5846 13.5878 24.9659 15.5158 24.3584L15.2153 23.4046C13.2832 24.0134 11.359 24.6334 9.44296 25.2646L9.75582 26.2144ZM21.2967 22.5776C23.2237 21.9976 25.1584 21.4286 27.1006 20.8709L26.8246 19.9097C24.8783 20.4686 22.9396 21.0388 21.0085 21.6201L21.2967 22.5776ZM32.9264 19.2378C34.868 18.7068 36.8168 18.1869 38.7728 17.6782L38.5212 16.7104C36.5611 17.2201 34.6082 17.7411 32.6625 18.2732L32.9264 19.2378ZM44.6389 16.1919C46.5932 15.7097 48.5544 15.2387 50.5222 14.779L50.2947 13.8052C48.3228 14.2659 46.3577 14.7378 44.3994 15.221L44.6389 16.1919ZM56.4216 13.4391C58.3871 13.0054 60.3591 12.5829 62.3375 12.1717L62.134 11.1927C60.1516 11.6047 58.1756 12.028 56.2061 12.4626L56.4216 13.4391ZM68.2688 10.9766C70.2447 10.591 72.2267 10.2167 74.2147 9.85362L74.0351 8.86989C72.0431 9.23364 70.0571 9.60877 68.0773 9.99516L68.2688 10.9766ZM80.1741 8.80244C82.1591 8.46462 84.1498 8.13807 86.1461 7.82289L85.9902 6.83512C83.9899 7.15093 81.9952 7.47813 80.0064 7.81661L80.1741 8.80244ZM92.1275 6.91508C94.1194 6.62488 96.1168 6.34597 98.1194 6.07842L97.987 5.08723C95.9804 5.3553 93.9791 5.63476 91.9833 5.92553L92.1275 6.91508ZM104.121 5.31269C106.12 5.06968 108.123 4.83797 110.132 4.61765L110.023 3.62361C108.01 3.84436 106.003 4.07652 104.001 4.32L104.121 5.31269ZM116.151 3.99311C118.155 3.79701 120.163 3.61223 122.177 3.43885L122.091 2.44254C120.074 2.61625 118.061 2.80139 116.053 2.99787L116.151 3.99311ZM128.209 2.95465C130.217 2.80517 132.229 2.66702 134.246 2.5403L134.184 1.54227C132.163 1.66923 130.146 1.80764 128.134 1.95741L128.209 2.95465ZM140.287 2.19564C142.298 2.09252 144.312 2.00074 146.331 1.92038L146.291 0.921173C144.269 1.00168 142.25 1.09364 140.236 1.19696L140.287 2.19564ZM152.378 1.71426C154.391 1.65716 156.407 1.6114 158.427 1.57706L158.41 0.577208C156.386 0.611604 154.366 0.657451 152.35 0.714665L152.378 1.71426ZM164.478 1.50856C165.486 1.50286 166.495 1.5 167.506 1.5V0.5C166.494 0.5 165.482 0.502863 164.472 0.508578L164.478 1.50856ZM167.506 1.5C168.516 1.5 169.525 1.50286 170.533 1.50856L170.539 0.508578C169.529 0.502863 168.518 0.5 167.506 0.5V1.5ZM176.584 1.57706C178.604 1.6114 180.621 1.65716 182.633 1.71426L182.661 0.714665C180.645 0.657451 178.625 0.611605 176.601 0.577209L176.584 1.57706ZM188.68 1.92038C190.699 2.00074 192.714 2.09252 194.724 2.19564L194.775 1.19696C192.761 1.09364 190.743 1.00168 188.72 0.921172L188.68 1.92038ZM200.765 2.5403C202.782 2.66702 204.794 2.80517 206.803 2.95465L206.877 1.95741C204.865 1.80764 202.848 1.66923 200.828 1.54226L200.765 2.5403ZM212.835 3.43885C214.848 3.61222 216.857 3.79701 218.861 3.99311L218.958 2.99786C216.95 2.80138 214.938 2.61624 212.92 2.44254L212.835 3.43885ZM224.879 4.61765C226.888 4.83797 228.891 5.06967 230.89 5.31268L231.011 4.31999C229.008 4.07651 227.001 3.84435 224.988 3.62361L224.879 4.61765ZM236.892 6.07842C238.894 6.34596 240.892 6.62488 242.884 6.91508L243.028 5.92552C241.032 5.63476 239.031 5.35529 237.024 5.08723L236.892 6.07842ZM248.865 7.82288C250.861 8.13807 252.852 8.46462 254.837 8.80243L255.005 7.81661C253.016 7.47812 251.021 7.15093 249.021 6.83512L248.865 7.82288ZM260.796 9.85361C262.784 10.2166 264.766 10.591 266.742 10.9766L266.934 9.99515C264.954 9.60876 262.968 9.23364 260.976 8.86988L260.796 9.85361ZM272.674 12.1717C274.652 12.5829 276.624 13.0054 278.59 13.4391L278.805 12.4626C276.836 12.028 274.86 11.6047 272.877 11.1926L272.674 12.1717ZM284.489 14.779C286.457 15.2387 288.418 15.7097 290.372 16.1919L290.612 15.221C288.654 14.7378 286.688 14.2659 284.716 13.8052L284.489 14.779ZM296.238 17.6782C298.194 18.1869 300.143 18.7068 302.085 19.2378L302.349 18.2732C300.403 17.7411 298.45 17.2201 296.49 16.7104L296.238 17.6782ZM307.911 20.8709C309.853 21.4286 311.787 21.9976 313.714 22.5776L314.003 21.6201C312.072 21.0388 310.133 20.4686 308.187 19.9097L307.911 20.8709ZM319.495 24.3584C321.423 24.9659 323.343 25.5846 325.255 26.2144L325.568 25.2646C323.652 24.6334 321.728 24.0134 319.796 23.4046L319.495 24.3584Z" fill="#1B1D21"/>
</svg>
