<svg width="100" height="100" viewBox="0 0 100 100" fill="none" xmlns="http://www.w3.org/2000/svg">
<g clip-path="url(#clip0_74_100)">
<g filter="url(#filter0_ii_74_100)">
<path d="M0 12C0 5.37258 5.37258 0 12 0H88C94.6274 0 100 5.37258 100 12V88C100 94.6274 94.6274 100 88 100H12C5.37258 100 0 94.6274 0 88V12Z" fill="#2278D4"/>
</g>
<path d="M12 0.5H88C94.3513 0.5 99.5 5.64873 99.5 12V88C99.5 94.3513 94.3513 99.5 88 99.5H12C5.64873 99.5 0.5 94.3513 0.5 88V12C0.5 5.64873 5.64873 0.5 12 0.5Z" stroke="white"/>
<g filter="url(#filter1_dddd_74_100)">
<rect width="100" height="100" rx="12" fill="#2278D4"/>
<rect x="27" y="27" width="46" height="46" rx="4" fill="white"/>
<path d="M60.7075 44.2925L53.7075 37.2925C53.6146 37.1997 53.5042 37.1261 53.3829 37.0759C53.2615 37.0257 53.1314 36.9999 53 37H41C40.4696 37 39.9609 37.2107 39.5858 37.5858C39.2107 37.9609 39 38.4696 39 39V61C39 61.5304 39.2107 62.0391 39.5858 62.4142C39.9609 62.7893 40.4696 63 41 63H59C59.5304 63 60.0391 62.7893 60.4142 62.4142C60.7893 62.0391 61 61.5304 61 61V45C61.0001 44.8686 60.9743 44.7385 60.9241 44.6172C60.8739 44.4958 60.8003 44.3854 60.7075 44.2925ZM54 56H46C45.7348 56 45.4804 55.8946 45.2929 55.7071C45.1054 55.5196 45 55.2652 45 55C45 54.7348 45.1054 54.4804 45.2929 54.2929C45.4804 54.1054 45.7348 54 46 54H54C54.2652 54 54.5196 54.1054 54.7071 54.2929C54.8946 54.4804 55 54.7348 55 55C55 55.2652 54.8946 55.5196 54.7071 55.7071C54.5196 55.8946 54.2652 56 54 56ZM54 52H46C45.7348 52 45.4804 51.8946 45.2929 51.7071C45.1054 51.5196 45 51.2652 45 51C45 50.7348 45.1054 50.4804 45.2929 50.2929C45.4804 50.1054 45.7348 50 46 50H54C54.2652 50 54.5196 50.1054 54.7071 50.2929C54.8946 50.4804 55 50.7348 55 51C55 51.2652 54.8946 51.5196 54.7071 51.7071C54.5196 51.8946 54.2652 52 54 52ZM53 45V39.5L58.5 45H53Z" fill="#2278D4"/>
</g>
</g>
<defs>
<filter id="filter0_ii_74_100" x="-4" y="0" width="108" height="104" filterUnits="userSpaceOnUse" color-interpolation-filters="sRGB">
<feFlood flood-opacity="0" result="BackgroundImageFix"/>
<feBlend mode="normal" in="SourceGraphic" in2="BackgroundImageFix" result="shape"/>
<feColorMatrix in="SourceAlpha" type="matrix" values="0 0 0 0 0 0 0 0 0 0 0 0 0 0 0 0 0 0 127 0" result="hardAlpha"/>
<feOffset dx="4" dy="4"/>
<feGaussianBlur stdDeviation="15"/>
<feComposite in2="hardAlpha" operator="arithmetic" k2="-1" k3="1"/>
<feColorMatrix type="matrix" values="0 0 0 0 0.819608 0 0 0 0 0.85098 0 0 0 0 0.901961 0 0 0 1 0"/>
<feBlend mode="normal" in2="shape" result="effect1_innerShadow_74_100"/>
<feColorMatrix in="SourceAlpha" type="matrix" values="0 0 0 0 0 0 0 0 0 0 0 0 0 0 0 0 0 0 127 0" result="hardAlpha"/>
<feOffset dx="-4" dy="4"/>
<feGaussianBlur stdDeviation="15"/>
<feComposite in2="hardAlpha" operator="arithmetic" k2="-1" k3="1"/>
<feColorMatrix type="matrix" values="0 0 0 0 1 0 0 0 0 1 0 0 0 0 1 0 0 0 0.5 0"/>
<feBlend mode="normal" in2="effect1_innerShadow_74_100" result="effect2_innerShadow_74_100"/>
</filter>
<filter id="filter1_dddd_74_100" x="-4" y="-2" width="135" height="142" filterUnits="userSpaceOnUse" color-interpolation-filters="sRGB">
<feFlood flood-opacity="0" result="BackgroundImageFix"/>
<feColorMatrix in="SourceAlpha" type="matrix" values="0 0 0 0 0 0 0 0 0 0 0 0 0 0 0 0 0 0 127 0" result="hardAlpha"/>
<feOffset dx="1" dy="2"/>
<feGaussianBlur stdDeviation="2"/>
<feColorMatrix type="matrix" values="0 0 0 0 0.341176 0 0 0 0 0.341176 0 0 0 0 0.341176 0 0 0 0.1 0"/>
<feBlend mode="normal" in2="BackgroundImageFix" result="effect1_dropShadow_74_100"/>
<feColorMatrix in="SourceAlpha" type="matrix" values="0 0 0 0 0 0 0 0 0 0 0 0 0 0 0 0 0 0 127 0" result="hardAlpha"/>
<feOffset dx="4" dy="7"/>
<feGaussianBlur stdDeviation="4"/>
<feColorMatrix type="matrix" values="0 0 0 0 0.341176 0 0 0 0 0.341176 0 0 0 0 0.341176 0 0 0 0.09 0"/>
<feBlend mode="normal" in2="effect1_dropShadow_74_100" result="effect2_dropShadow_74_100"/>
<feColorMatrix in="SourceAlpha" type="matrix" values="0 0 0 0 0 0 0 0 0 0 0 0 0 0 0 0 0 0 127 0" result="hardAlpha"/>
<feOffset dx="10" dy="15"/>
<feGaussianBlur stdDeviation="5.5"/>
<feColorMatrix type="matrix" values="0 0 0 0 0.341176 0 0 0 0 0.341176 0 0 0 0 0.341176 0 0 0 0.05 0"/>
<feBlend mode="normal" in2="effect2_dropShadow_74_100" result="effect3_dropShadow_74_100"/>
<feColorMatrix in="SourceAlpha" type="matrix" values="0 0 0 0 0 0 0 0 0 0 0 0 0 0 0 0 0 0 127 0" result="hardAlpha"/>
<feOffset dx="18" dy="27"/>
<feGaussianBlur stdDeviation="6.5"/>
<feColorMatrix type="matrix" values="0 0 0 0 0.341176 0 0 0 0 0.341176 0 0 0 0 0.341176 0 0 0 0.01 0"/>
<feBlend mode="normal" in2="effect3_dropShadow_74_100" result="effect4_dropShadow_74_100"/>
<feBlend mode="normal" in="SourceGraphic" in2="effect4_dropShadow_74_100" result="shape"/>
</filter>
<clipPath id="clip0_74_100">
<rect width="100" height="100" fill="white"/>
</clipPath>
</defs>
</svg>
