<svg width="48" height="48" viewBox="0 0 48 48" fill="none" xmlns="http://www.w3.org/2000/svg">
<path d="M24 4.5C20.1433 4.5 16.3731 5.64366 13.1664 7.78634C9.95963 9.92903 7.46027 12.9745 5.98436 16.5377C4.50845 20.1008 4.12228 24.0216 4.8747 27.8043C5.62711 31.5869 7.4843 35.0615 10.2114 37.7886C12.9386 40.5157 16.4131 42.3729 20.1957 43.1253C23.9784 43.8777 27.8992 43.4916 31.4623 42.0156C35.0255 40.5397 38.071 38.0404 40.2137 34.8336C42.3564 31.6269 43.5 27.8567 43.5 24C43.4945 18.83 41.4383 13.8732 37.7826 10.2174C34.1268 6.56167 29.1701 4.50546 24 4.5ZM24 40.5C20.7366 40.5 17.5465 39.5323 14.8331 37.7192C12.1197 35.9062 10.0048 33.3293 8.756 30.3143C7.50715 27.2993 7.1804 23.9817 7.81705 20.781C8.45371 17.5803 10.0252 14.6403 12.3327 12.3327C14.6403 10.0252 17.5803 8.4537 20.781 7.81704C23.9817 7.18039 27.2993 7.50714 30.3143 8.75599C33.3293 10.0048 35.9062 12.1197 37.7193 14.8331C39.5323 17.5465 40.5 20.7366 40.5 24C40.495 28.3745 38.7551 32.5685 35.6618 35.6618C32.5685 38.7551 28.3746 40.495 24 40.5ZM15 20.25C15 19.805 15.132 19.37 15.3792 19C15.6264 18.63 15.9778 18.3416 16.389 18.1713C16.8001 18.001 17.2525 17.9564 17.689 18.0432C18.1254 18.13 18.5263 18.3443 18.841 18.659C19.1557 18.9737 19.37 19.3746 19.4568 19.811C19.5436 20.2475 19.499 20.6999 19.3287 21.111C19.1584 21.5222 18.8701 21.8736 18.5 22.1208C18.13 22.368 17.695 22.5 17.25 22.5C16.6533 22.5 16.081 22.2629 15.659 21.841C15.2371 21.419 15 20.8467 15 20.25ZM33 20.25C33 20.695 32.868 21.13 32.6208 21.5C32.3736 21.87 32.0222 22.1584 31.611 22.3287C31.1999 22.499 30.7475 22.5436 30.3111 22.4568C29.8746 22.37 29.4737 22.1557 29.159 21.841C28.8444 21.5263 28.6301 21.1254 28.5432 20.689C28.4564 20.2525 28.501 19.8001 28.6713 19.389C28.8416 18.9778 29.13 18.6264 29.5 18.3792C29.87 18.132 30.305 18 30.75 18C31.3467 18 31.919 18.2371 32.341 18.659C32.763 19.081 33 19.6533 33 20.25ZM32.7994 29.25C30.87 32.5856 27.6619 34.5 24 34.5C20.3381 34.5 17.1319 32.5875 15.2025 29.25C15.094 29.0793 15.0211 28.8884 14.9883 28.6887C14.9554 28.4891 14.9633 28.2849 15.0115 28.0884C15.0596 27.8919 15.147 27.7072 15.2683 27.5453C15.3897 27.3835 15.5426 27.2479 15.7177 27.1466C15.8929 27.0454 16.0867 26.9806 16.2875 26.9562C16.4883 26.9318 16.692 26.9483 16.8863 27.0047C17.0806 27.0611 17.2615 27.1561 17.4181 27.2842C17.5747 27.4123 17.7037 27.5707 17.7975 27.75C19.1981 30.1706 21.3994 31.5 24 31.5C26.6006 31.5 28.8019 30.1688 30.2006 27.75C30.3995 27.4054 30.7272 27.1539 31.1115 27.0509C31.4959 26.9478 31.9054 27.0017 32.25 27.2006C32.5946 27.3995 32.8461 27.7272 32.9491 28.1115C33.0522 28.4959 32.9983 28.9054 32.7994 29.25Z" fill="#FFFAE6"/>
</svg>
