<svg width="48" height="48" viewBox="0 0 48 48" fill="none" xmlns="http://www.w3.org/2000/svg">
<path d="M19.5 7.5H10.5C9.70435 7.5 8.94129 7.81607 8.37868 8.37868C7.81607 8.94129 7.5 9.70435 7.5 10.5V19.5C7.5 20.2956 7.81607 21.0587 8.37868 21.6213C8.94129 22.1839 9.70435 22.5 10.5 22.5H19.5C20.2956 22.5 21.0587 22.1839 21.6213 21.6213C22.1839 21.0587 22.5 20.2956 22.5 19.5V10.5C22.5 9.70435 22.1839 8.94129 21.6213 8.37868C21.0587 7.81607 20.2956 7.5 19.5 7.5ZM19.5 19.5H10.5V10.5H19.5V19.5ZM37.5 7.5H28.5C27.7044 7.5 26.9413 7.81607 26.3787 8.37868C25.8161 8.94129 25.5 9.70435 25.5 10.5V19.5C25.5 20.2956 25.8161 21.0587 26.3787 21.6213C26.9413 22.1839 27.7044 22.5 28.5 22.5H37.5C38.2956 22.5 39.0587 22.1839 39.6213 21.6213C40.1839 21.0587 40.5 20.2956 40.5 19.5V10.5C40.5 9.70435 40.1839 8.94129 39.6213 8.37868C39.0587 7.81607 38.2956 7.5 37.5 7.5ZM37.5 19.5H28.5V10.5H37.5V19.5ZM19.5 25.5H10.5C9.70435 25.5 8.94129 25.8161 8.37868 26.3787C7.81607 26.9413 7.5 27.7044 7.5 28.5V37.5C7.5 38.2956 7.81607 39.0587 8.37868 39.6213C8.94129 40.1839 9.70435 40.5 10.5 40.5H19.5C20.2956 40.5 21.0587 40.1839 21.6213 39.6213C22.1839 39.0587 22.5 38.2956 22.5 37.5V28.5C22.5 27.7044 22.1839 26.9413 21.6213 26.3787C21.0587 25.8161 20.2956 25.5 19.5 25.5ZM19.5 37.5H10.5V28.5H19.5V37.5ZM37.5 25.5H28.5C27.7044 25.5 26.9413 25.8161 26.3787 26.3787C25.8161 26.9413 25.5 27.7044 25.5 28.5V37.5C25.5 38.2956 25.8161 39.0587 26.3787 39.6213C26.9413 40.1839 27.7044 40.5 28.5 40.5H37.5C38.2956 40.5 39.0587 40.1839 39.6213 39.6213C40.1839 39.0587 40.5 38.2956 40.5 37.5V28.5C40.5 27.7044 40.1839 26.9413 39.6213 26.3787C39.0587 25.8161 38.2956 25.5 37.5 25.5ZM37.5 37.5H28.5V28.5H37.5V37.5Z" fill="#FFFAE6"/>
</svg>
