<svg width="328" height="328" viewBox="0 0 328 328" fill="none" xmlns="http://www.w3.org/2000/svg">
<g clip-path="url(#clip0_32_2)">
<path opacity="0.11" d="M902.813 651.668C962.283 687.16 964.024 757.379 957.461 788.052L877.776 1246.53C876.641 1253.06 870.756 1256.3 864.63 1253.77L-162.841 829.331C-168.967 826.801 -173.012 819.457 -171.878 812.927L-92.1925 354.452C-87.9283 322.83 -63.6464 263.36 -0.633312 278.465C78.133 297.345 83.8152 251.892 101.814 220.632C119.813 189.372 144.709 160.96 205.243 216.695C265.777 272.429 328.254 308.481 389.031 260.749C437.653 222.563 476.643 232.068 490.585 237.828C504.528 243.587 541.377 265.41 571.1 335.959C608.254 424.145 674.053 441.083 744.553 439.477C815.053 437.872 827.399 481.667 832.848 522.613C838.297 563.56 828.477 607.303 902.813 651.668Z" fill="white"/>
<path opacity="0.22" d="M977.814 407.781C1037.28 427.015 1039.02 465.07 1032.46 481.692L954.386 725.137C952.362 731.447 945.478 735.39 939.011 733.942L-87.222 504.202C-93.6893 502.754 -97.2914 496.465 -95.2674 490.154L-17.192 246.71C-12.9278 229.572 11.354 197.344 74.367 205.529C153.133 215.761 158.816 191.128 176.815 174.187C194.814 157.246 219.709 141.849 280.243 172.054C340.778 202.258 403.254 221.796 464.031 195.928C512.653 175.234 551.643 180.385 565.585 183.507C579.528 186.628 616.377 198.454 646.1 236.687C683.254 284.479 749.053 293.658 819.553 292.787C890.053 291.917 902.399 315.651 907.848 337.842C913.297 360.032 903.477 383.738 977.814 407.781Z" fill="#FFFDFD"/>
<mask id="mask0_32_2" style="mask-type:alpha" maskUnits="userSpaceOnUse" x="0" y="0" width="328" height="328">
<rect width="328" height="328" rx="12" fill="#F2F0F4"/>
</mask>
<g mask="url(#mask0_32_2)">
</g>
<path opacity="0.11" d="M778.814 630.668C838.284 666.16 840.025 736.379 833.462 767.052L753.777 1225.53C752.642 1232.06 746.756 1235.3 740.631 1232.77L-286.841 808.331C-292.966 805.801 -297.012 798.457 -295.877 791.927L-216.192 333.452C-211.928 301.83 -187.646 242.36 -124.633 257.465C-45.8665 276.345 -40.1843 230.892 -22.1853 199.632C-4.18622 168.372 20.7094 139.96 81.2435 195.695C141.778 251.429 204.255 287.481 265.032 239.749C313.653 201.563 352.643 211.068 366.586 216.828C380.528 222.587 417.377 244.41 447.1 314.959C484.254 403.145 550.053 420.083 620.553 418.477C691.053 416.872 703.399 460.667 708.848 501.613C714.298 542.56 704.477 586.303 778.814 630.668Z" fill="white"/>
</g>
<defs>
<clipPath id="clip0_32_2">
<rect width="328" height="328" fill="white"/>
</clipPath>
</defs>
</svg>
