<svg width="250" height="258" viewBox="0 0 250 258" fill="none" xmlns="http://www.w3.org/2000/svg">
<mask id="mask0_84_12" style="mask-type:alpha" maskUnits="userSpaceOnUse" x="0" y="8" width="250" height="250">
<rect y="8" width="250" height="250" fill="#F2F0F4"/>
</mask>
<g mask="url(#mask0_84_12)">
<path opacity="0.05" d="M703.32 313.396C748.647 328.056 749.974 357.061 744.972 369.731L682.67 563.992L-117.371 384.89L-55.0689 190.628C-51.8187 177.566 -33.3112 153.002 14.717 159.241C74.7523 167.039 79.0833 148.265 92.802 135.352C106.521 122.44 125.496 110.704 171.635 133.726C217.774 156.748 265.393 171.639 311.717 151.923C348.777 136.15 378.494 140.076 389.121 142.455C399.748 144.834 427.834 153.848 450.489 182.989C478.808 219.416 528.959 226.412 582.694 225.749C636.429 225.085 645.839 243.175 649.992 260.089C654.146 277.002 646.66 295.071 703.32 313.396Z" fill="black"/>
</g>
<mask id="mask1_84_12" style="mask-type:alpha" maskUnits="userSpaceOnUse" x="0" y="8" width="250" height="250">
<rect y="8" width="250" height="250" fill="#F2F0F4"/>
</mask>
<g mask="url(#mask1_84_12)">
<path opacity="0.05" d="M624.908 460.419C670.236 487.471 671.563 540.991 666.561 564.37L604.259 922.828L-195.782 592.341L-133.48 233.883C-130.23 209.78 -111.723 164.453 -63.6943 175.965C-3.65904 190.355 0.671926 155.711 14.3907 131.885C28.1095 108.059 47.0848 86.4036 93.2236 128.884C139.362 171.365 186.982 198.843 233.306 162.462C270.365 133.357 300.083 140.602 310.71 144.992C321.337 149.382 349.423 166.015 372.078 219.787C400.396 287.002 450.548 299.912 504.283 298.688C558.018 297.464 567.428 330.845 571.581 362.054C575.734 393.263 568.249 426.604 624.908 460.419Z" fill="black"/>
</g>
</svg>
