<svg width="119" height="207" viewBox="0 0 119 207" fill="none" xmlns="http://www.w3.org/2000/svg">
<path opacity="0.5" d="M108.122 67.2207C104.273 64.0124 99.8516 61.8614 95.2161 60.7364C96.638 58.0332 97.8464 55.2312 98.8307 52.4187C103.909 37.9395 104.018 18.0645 91.2161 7.40824C79.9245 -1.9928 63.6797 -2.3678 51.6536 5.83532C39.4557 14.1582 33.8255 28.5749 35.6432 42.8718C29.0234 42.8562 22.3776 44.8145 16.6797 48.6999C3.69009 57.5645 -1.84636 73.3353 1.11197 88.5072C2.79947 97.1582 7.15364 105.434 13.3932 111.689C16.4453 114.752 20.0495 117.497 23.9453 119.403C26.4036 120.606 29.0338 121.716 31.7422 122.257C30.9818 123.788 29.987 125.257 29.0078 126.58C27.8724 128.101 27.2057 129.788 28.1745 131.611C29.4297 133.96 32.5026 134.887 35.4088 135.195C35.4766 136.575 35.6588 137.919 35.8411 139.07C36.3828 142.471 37.5703 145.747 39.0703 148.846C42.2578 155.439 47.1276 161.049 51.612 166.778C59.138 176.393 67.8984 191.851 57.6953 202.841C56.7891 203.814 58.1536 205.148 59.1484 204.288C66.9609 197.538 67.1641 185.971 63.3568 177.08C58.7109 166.231 49.6068 158.236 44.1328 147.887C42.612 145.012 41.4766 141.95 40.862 138.752C40.638 137.58 40.5026 136.398 40.4557 135.21C43.9661 134.83 47.2786 133.382 48.0911 129.538C48.8411 125.997 47.0338 123.049 44.9245 120.413C46.9245 119.356 48.7838 118.012 50.4661 116.507C51.2005 115.846 51.9088 115.158 52.5911 114.439C50.4505 126.95 55.6276 139.716 61.0547 150.945C67.4088 164.111 75.6276 179.361 71.3255 194.439C70.9453 195.778 72.862 196.221 73.362 195.002C79.237 180.528 73.4036 165.778 67.0651 152.518C61.8724 141.663 55.9088 129.502 57.112 117.33C59.237 121.497 61.9922 125.346 65.2682 128.637C68.3255 131.7 71.9245 134.445 75.8255 136.351C78.2838 137.554 80.9088 138.669 83.6172 139.205C82.8568 140.736 81.8672 142.205 80.8828 143.523C79.7526 145.049 79.0859 146.736 80.0547 148.554C80.9713 150.283 82.8776 151.242 84.9766 151.752C83.2109 155.184 82.0859 159.132 81.2943 162.7C80.1016 168.08 80.0495 173.476 80.2995 178.955C80.7057 187.82 81.4401 200.257 71.7318 204.679C70.5859 205.205 71.4036 207.169 72.6016 206.726C81.8984 203.304 84.9661 192.835 85.1016 183.877C85.1901 177.924 84.7943 172.038 85.8776 166.143C86.362 163.486 87.0703 160.872 87.987 158.33C88.7422 156.236 89.7995 154.283 90.7005 152.262C90.8099 152.262 90.9089 152.257 91.013 152.252C94.9766 152.106 99.0547 150.809 99.9714 146.481C100.721 142.939 98.9141 139.997 96.7995 137.356C98.8047 136.299 100.664 134.955 102.346 133.45C108.581 127.861 112.987 120.049 115.732 112.231C120.81 97.752 120.924 77.877 108.122 67.2155V67.2207ZM49.4505 13.6218C58.1849 4.25199 71.9245 1.34053 83.388 7.53324C96.5547 14.6426 98.9766 30.5072 96.1953 44.002C95.0495 49.5541 93.013 54.9968 90.1276 59.9239C82.6693 59.3197 75.0026 61.2468 68.5547 65.6478C67.7057 66.226 66.888 66.8353 66.1068 67.476C64.6953 60.8405 61.612 54.7416 56.2422 50.2728C51.7891 46.5645 46.5599 44.2676 41.1224 43.3405C39.3203 32.7572 41.8568 21.7676 49.4505 13.6218ZM43.7526 128.346C43.3516 131.122 39.513 130.924 37.3828 130.82C35.9713 130.747 34.5182 130.507 33.1641 130.075C32.9036 129.986 32.0963 129.861 32.0078 129.58C31.9401 129.361 32.9297 128.252 33.0234 128.111C34.1224 126.393 34.612 124.689 34.7422 122.825C36.388 122.929 38.0911 122.726 39.6953 122.367C40.0547 122.288 40.4088 122.195 40.763 122.096C42.2161 123.768 44.0963 125.95 43.7526 128.346ZM52.9922 105.455C53.0234 105.632 53.0703 105.814 53.1068 105.992C52.388 107.028 51.6328 108.038 50.8307 109.012C48.2786 112.101 45.2422 114.966 41.5443 116.643C39.138 117.736 36.7005 117.992 34.2213 118.07C32.2005 117.33 30.1641 116.627 28.2318 115.669C25.2943 114.205 22.4713 112.403 19.9766 110.268C14.8203 105.835 10.6641 100.21 8.23697 93.8509C3.40364 81.1687 5.02343 66.6218 14.4766 56.4864C23.2109 47.1166 36.9505 44.2051 48.4141 50.3978C56.7109 54.877 60.737 62.8405 61.8828 71.4916C53.7526 80.5697 50.6016 93.2051 52.9922 105.455ZM95.6328 145.294C95.2318 148.07 91.3932 147.867 89.263 147.762C87.8516 147.689 86.3932 147.45 85.0443 147.018C84.7786 146.934 83.9766 146.809 83.888 146.528C83.8151 146.309 84.8099 145.2 84.8984 145.059C86.0026 143.341 86.487 141.637 86.6172 139.768C88.2682 139.872 89.9714 139.674 91.5755 139.314C91.9349 139.231 92.2891 139.137 92.638 139.038C94.0911 140.71 95.9766 142.898 95.6328 145.288V145.294ZM113.096 103.814C111.445 111.83 107.94 119.611 102.706 125.955C100.154 129.049 97.1224 131.913 93.4245 133.591C91.0182 134.679 88.5807 134.939 86.1016 135.018C84.0755 134.278 82.0391 133.575 80.112 132.611C77.1693 131.148 74.3463 129.351 71.8568 127.21C66.7005 122.783 62.5391 117.158 60.1172 110.799C55.2838 98.1166 56.9036 83.5645 66.3568 73.4291C75.0911 64.0593 88.8307 61.1478 100.294 67.3405C113.456 74.4499 115.883 90.3145 113.102 103.809L113.096 103.814Z" fill="white"/>
</svg>
