<svg width="181" height="146" viewBox="0 0 181 146" fill="none" xmlns="http://www.w3.org/2000/svg">
<mask id="mask0_235_7644" style="mask-type:luminance" maskUnits="userSpaceOnUse" x="12" y="25" width="157" height="92">
<path d="M12.5166 25.8952H168.357V116.748H12.5166V25.8952Z" fill="white"/>
</mask>
<g mask="url(#mask0_235_7644)">
<path d="M168.288 61.0679C168.285 61.0645 168.285 61.0645 168.285 61.061C168.274 61.0299 168.26 61.0022 168.243 60.9746C168.236 60.9642 168.229 60.9538 168.222 60.9469C168.208 60.9296 168.191 60.9123 168.174 60.8951C168.164 60.8882 168.153 60.8812 168.143 60.8743C168.136 60.8674 168.129 60.8605 168.122 60.857C168.108 60.8501 168.094 60.8467 168.084 60.8432C168.074 60.8363 168.06 60.8328 168.049 60.8294C168.022 60.819 167.994 60.8156 167.966 60.8121C167.96 60.8121 167.953 60.8121 167.949 60.8121H163.69V47.9931C163.69 47.962 163.687 47.9309 163.676 47.8998C163.676 47.8963 163.676 47.8963 163.676 47.8928C163.666 47.8617 163.652 47.8306 163.635 47.803C163.628 47.796 163.621 47.7857 163.611 47.7753C163.597 47.758 163.583 47.7407 163.566 47.7269C163.555 47.72 163.545 47.7096 163.534 47.7027C163.528 47.6992 163.521 47.6923 163.51 47.6854C163.5 47.6785 163.486 47.6785 163.476 47.6716C163.462 47.6681 163.451 47.6612 163.441 47.6578C163.413 47.6508 163.382 47.6439 163.355 47.6439C163.348 47.6439 163.344 47.6405 163.341 47.6405H88.1382C88.4977 47.1634 88.7985 46.6379 89.0197 46.0675C90.3196 42.721 88.6567 38.9424 85.3206 37.6425C84.4529 37.3037 83.5437 37.162 82.6448 37.2069V26.2478C82.6448 26.2133 82.6414 26.1821 82.631 26.151V26.1476C82.6206 26.113 82.6068 26.0853 82.5895 26.0577C82.5826 26.0473 82.5757 26.0404 82.5653 26.03C82.5515 26.0127 82.5377 25.9955 82.5204 25.9816C82.51 25.9713 82.4996 25.9643 82.4893 25.9574C82.4823 25.9505 82.4754 25.9436 82.465 25.9401C82.4547 25.9332 82.4408 25.9298 82.4305 25.9263C82.4166 25.9194 82.4063 25.9159 82.3959 25.9125C82.3682 25.9021 82.3406 25.8987 82.3095 25.8987C82.306 25.8987 82.2991 25.8952 82.2922 25.8952H77.6839C77.6839 25.8952 77.6839 25.8952 77.6804 25.8952C77.6597 25.8952 77.6389 25.8987 77.6182 25.9021C77.6078 25.9056 77.5974 25.9056 77.5905 25.909C77.5594 25.9159 77.5283 25.9298 77.5006 25.9471L45.2388 45.5766C45.1316 45.6388 45.0694 45.7529 45.0694 45.8773V87.5114C45.0694 87.705 45.225 87.8606 45.4186 87.8606H52.4538V93.4196C51.1539 93.8103 49.8817 94.1249 48.6441 94.315C47.1471 94.5432 45.6709 94.7645 44.2328 94.9753C41.8923 95.3245 39.6521 95.6564 37.5571 95.9952L35.4655 83.311C39.9045 82.1909 42.8257 80.1236 42.8257 77.7105V71.2146H42.8015C42.4109 67.9061 36.513 65.3305 28.8659 65.092L28.6412 55.3187H40.5752L35.4068 36.1732C35.3342 33.7394 31.9808 31.8449 27.7078 31.8449C23.4244 31.8449 20.0675 33.7463 20.0053 36.187L14.8369 55.3187H26.7743L26.5462 65.092C18.9025 65.3305 13.0046 67.9061 12.614 71.2146H12.5898V77.7105C12.5898 80.1236 15.511 82.1909 19.95 83.311L16.7038 102.992C16.6865 103.096 16.7141 103.2 16.7798 103.279C16.849 103.355 16.9458 103.4 17.0495 103.4H18.1765C18.3459 103.4 18.4911 103.283 18.5222 103.117L22.2248 83.7777C23.5765 83.9955 25.025 84.1373 26.5427 84.1822L26.7329 98.4912C24.2921 99.4385 22.8643 100.607 22.8643 102.173C22.8643 106.204 32.2954 107.601 44.2328 109.367C45.6709 109.582 47.1471 109.799 48.6441 110.028C51.6345 110.484 54.8012 111.663 58.1546 112.911C63.2054 114.788 68.4291 116.731 74.1369 116.731C79.8446 116.731 85.0683 114.788 90.1191 112.911C93.4725 111.663 96.6392 110.484 99.6296 110.028C101.127 109.799 102.599 109.582 104.041 109.367C115.978 107.601 125.409 106.204 125.409 102.173C125.409 100.109 122.938 98.7401 118.931 97.6546H125.634C126.45 97.6546 127.114 96.9874 127.114 96.1715V87.864H133.06C133.101 87.864 133.139 87.8537 133.181 87.8364C133.191 87.8329 133.198 87.8295 133.209 87.826C133.219 87.8226 133.229 87.8191 133.236 87.8122L147.013 79.6914H161.941C162.757 79.6914 163.42 79.0276 163.42 78.2083V70.0149L168.126 67.2389C168.233 67.1766 168.298 67.0626 168.298 66.9381V61.1613C168.298 61.1301 168.295 61.099 168.288 61.0679ZM55.4131 92.4378V87.864H70.5415C66.2062 88.4448 62.1268 89.9556 58.1546 91.4352C57.2281 91.7775 56.3154 92.1163 55.4131 92.4378ZM35.5934 96.3271C32.966 96.7869 30.6256 97.2709 28.693 97.8378L28.8728 84.1822C30.3905 84.1373 31.839 83.9955 33.1907 83.7777L35.5934 96.3271ZM124.154 94.6884H102.101C101.286 94.5674 100.463 94.4429 99.6296 94.315C96.6392 93.8587 93.4725 92.6798 90.1191 91.4352C86.1469 89.9556 82.0675 88.4448 77.7323 87.8606H99.7437L100.84 92.0956C100.871 92.22 100.968 92.3168 101.092 92.3479C101.12 92.3583 101.151 92.3618 101.178 92.3618C101.275 92.3618 101.365 92.3203 101.434 92.2511L105.583 87.8606H124.154V94.6884ZM160.461 76.7252H152.04L160.461 71.7608V76.7252Z" fill="#32312B"/>
</g>
<mask id="mask1_235_7644" style="mask-type:luminance" maskUnits="userSpaceOnUse" x="13" y="25" width="155" height="63">
<path d="M13.0528 25.8952H167.932V87.8191H13.0528V25.8952Z" fill="white"/>
</mask>
<g mask="url(#mask1_235_7644)">
<path d="M50.3788 46.0755L81.9423 26.8712V37.2841C81.1575 37.412 80.3901 37.6816 79.6813 38.0999C79.6641 38.1069 79.6468 38.1138 79.6295 38.1241L55.7719 52.4055C54.1989 53.1108 52.9889 54.3795 52.3632 55.9905C51.734 57.6119 51.772 59.382 52.4704 60.9722C53.0512 62.2894 54.0261 63.3473 55.2568 64.0318L50.3788 66.998V46.0755ZM163.34 61.515L131.251 80.4358C131.244 80.4427 131.234 80.4462 131.224 80.4496C131.213 80.4531 131.206 80.4566 131.196 80.46C131.154 80.4773 131.116 80.4877 131.075 80.4877H112.552L111.086 82.0399H132.959L166.694 61.515H163.34ZM50.3788 81.7322V82.0399H98.2357L97.8312 80.4877H50.3788V81.7322ZM106.246 87.1599H132.707V82.7417H110.419L106.246 87.1599ZM50.0296 82.7417H45.7705V87.1599H99.5598L98.4155 82.7417H50.0296ZM133.408 82.5896V86.8972L167.596 66.7353V61.7881L133.408 82.5896ZM49.677 82.0399V45.8785C49.677 45.754 49.7427 45.6399 49.8464 45.5777L81.04 26.5981H77.7834L45.7705 46.0755V82.0399H49.677ZM27.707 78.0608C20.8585 78.0608 15.2096 76.1974 13.2943 73.5631V77.7116C13.2943 80.8507 19.8939 83.5023 27.707 83.5023C35.5201 83.5023 42.1198 80.8507 42.1198 77.7116V73.5631C40.2045 76.1974 34.5556 78.0608 27.707 78.0608ZM28.8825 65.7984L28.917 67.278C32.6438 67.603 35.413 69.3938 35.413 71.6271C35.413 74.1024 32.0284 76.0384 27.707 76.0384C23.3822 76.0384 19.9977 74.1024 19.9977 71.6271C19.9977 69.3938 22.7703 67.5995 26.497 67.278L26.5316 65.7984C19.244 66.0473 13.2943 68.5883 13.2943 71.5683C13.2943 74.7074 19.8939 77.359 27.707 77.359C35.5201 77.359 42.1198 74.7074 42.1198 71.5683C42.1198 68.5883 36.1701 66.0473 28.8825 65.7984Z" fill="#2E70DC"/>
</g>
<path d="M124.706 102.173C124.706 105.595 115.082 107.02 103.936 108.672C102.494 108.883 101.022 109.104 99.5247 109.333C96.4583 109.799 93.2604 110.989 89.8725 112.25C84.8804 114.107 79.7154 116.029 74.1357 116.029C68.5559 116.029 63.3909 114.107 58.3989 112.25C55.0109 110.989 51.813 109.799 48.7466 109.333C47.2497 109.104 45.7769 108.883 44.3353 108.672C33.1896 107.02 23.5649 105.595 23.5649 102.173C23.5649 100.977 24.7404 100.026 26.742 99.2239L26.7904 103.054C26.7939 103.248 26.9495 103.4 27.1431 103.4H28.2701C28.4637 103.4 28.6192 103.248 28.6227 103.054L28.6815 98.5602C30.6278 97.9863 33.0305 97.4885 35.7236 97.0183L36.8921 103.117C36.9232 103.283 37.0684 103.4 37.2378 103.4H38.3649C38.4686 103.4 38.5654 103.355 38.6311 103.279C38.7002 103.2 38.7279 103.096 38.7106 102.992L37.67 96.6899C39.7788 96.3476 42.0225 96.0157 44.3318 95.6735C45.7735 95.4591 47.2497 95.2413 48.7466 95.0132C49.96 94.8265 51.1942 94.5257 52.4526 94.1524V96.1713C52.4526 96.9872 53.1164 97.6544 53.9323 97.6544H115.894C121.163 98.7538 124.706 100.095 124.706 102.173ZM58.3989 92.0919C57.3859 92.4687 56.3937 92.8386 55.4119 93.1844V94.6882H97.8653C95.307 94.1074 92.6554 93.129 89.8725 92.0919C84.8804 90.2354 79.7154 88.3133 74.1357 88.3133C68.5559 88.3133 63.3909 90.2354 58.3989 92.0919ZM97.7962 48.3455L124.336 67.2698H130.974L162.081 48.3455H97.7962ZM124.222 68.1687H124.191L113.218 79.7811H130.722V67.9751H124.534C124.475 68.0891 124.361 68.1687 124.222 68.1687ZM131.424 67.8229V79.5184L162.987 60.9052V48.6187L131.424 67.8229ZM60.7739 52.2797C62.3884 52.9124 63.664 54.1362 64.3658 55.7265C65.0642 57.3168 65.1022 59.0868 64.473 60.7082C64.3278 61.0781 64.1515 61.4307 63.9475 61.7626L85.959 48.6774C85.9728 48.6671 85.9901 48.6532 86.0074 48.6429C87.0895 47.9722 87.9054 46.9938 88.3652 45.8115C88.9252 44.3664 88.8906 42.79 88.2684 41.3691C87.6426 39.9517 86.5052 38.8592 85.0636 38.2957C83.3904 37.6458 81.5408 37.8013 79.992 38.7313C79.9747 38.7382 79.9609 38.7486 79.9436 38.7555L58.0635 51.8511C58.9762 51.8027 59.8958 51.9409 60.7739 52.2797ZM56.3177 63.7608C57.7593 64.3243 59.3357 64.2898 60.7532 63.664C62.1671 63.0383 63.2561 61.8974 63.8196 60.4524C64.3797 59.0073 64.3451 57.4308 63.7228 56.01C63.0971 54.5891 61.9597 53.5001 60.5181 52.9366C59.837 52.6704 59.1249 52.539 58.4161 52.539C57.6245 52.539 56.8328 52.705 56.0826 53.0334C54.6686 53.6591 53.5796 54.8 53.0161 56.2451C52.4561 57.6901 52.4906 59.2666 53.1129 60.6875C53.7387 62.1083 54.8761 63.1973 56.3177 63.7608ZM123.227 68.1687H98.4254C98.2318 68.1687 98.0727 68.0096 98.0727 67.816C98.0727 67.6224 98.2318 67.4634 98.4254 67.4634H123.393L96.5827 48.3455H90.2355L101.357 91.3071L123.227 68.1687ZM20.3498 37.5974L15.7553 54.6133H22.6799L24.571 40.2939C22.552 39.7926 21.0101 38.8177 20.3498 37.5974ZM28.6262 54.6133H39.6578L35.0633 37.5939C34.0919 39.3916 31.2086 40.6638 27.7066 40.6638C26.8457 40.6638 26.0264 40.5843 25.2589 40.4426L23.3886 54.6133H28.6262Z" fill="#C9A3E8"/>
<path d="M94.412 67.2692H51.2845L56.0138 64.3929C56.0311 64.3998 56.0449 64.4101 56.0657 64.4171C56.8262 64.7144 57.6248 64.863 58.42 64.863C59.3084 64.863 60.1969 64.6763 61.0335 64.3064C61.5002 64.1025 61.9324 63.8397 62.33 63.5424L86.3742 49.2507C86.395 49.2368 86.4122 49.223 86.4295 49.2057C86.8271 48.9568 87.1866 48.6664 87.5151 48.3449H89.5098L94.412 67.2692ZM94.5918 67.9744H50.3787V79.7805H97.6513L94.5918 67.9744ZM28.9342 67.9848L29.0241 71.9778H26.3898L26.4796 67.9848C23.2438 68.3029 20.6993 69.8378 20.6993 71.6251C20.6993 73.6337 23.9075 75.3312 27.7069 75.3312C31.5028 75.3312 34.711 73.6337 34.711 71.6251C34.711 69.8413 32.1701 68.3029 28.9342 67.9848ZM27.9385 55.3179H27.4753L27.1054 71.276H28.305L27.9385 55.3179Z" fill="#ECB8C5"/>
<mask id="mask2_235_7644" style="mask-type:luminance" maskUnits="userSpaceOnUse" x="12" y="25" width="157" height="92">
<path d="M12.5166 25.8952H168.357V116.748H12.5166V25.8952Z" fill="white"/>
</mask>
<g mask="url(#mask2_235_7644)">
<path d="M168.288 61.0679C168.285 61.0645 168.285 61.0645 168.285 61.061C168.274 61.0299 168.26 61.0022 168.243 60.9746C168.236 60.9642 168.229 60.9538 168.222 60.9469C168.208 60.9296 168.191 60.9123 168.174 60.8951C168.164 60.8882 168.153 60.8812 168.143 60.8743C168.136 60.8674 168.129 60.8605 168.122 60.857C168.108 60.8501 168.094 60.8467 168.084 60.8432C168.074 60.8363 168.06 60.8328 168.049 60.8294C168.022 60.819 167.994 60.8156 167.966 60.8121C167.96 60.8121 167.953 60.8121 167.949 60.8121H163.69V47.9931C163.69 47.962 163.687 47.9309 163.676 47.8998C163.676 47.8963 163.676 47.8963 163.676 47.8928C163.666 47.8617 163.652 47.8306 163.635 47.803C163.628 47.796 163.621 47.7857 163.611 47.7753C163.597 47.758 163.583 47.7407 163.566 47.7269C163.555 47.72 163.545 47.7096 163.534 47.7027C163.528 47.6992 163.521 47.6923 163.51 47.6854C163.5 47.6785 163.486 47.6785 163.476 47.6716C163.462 47.6681 163.451 47.6612 163.441 47.6578C163.413 47.6508 163.382 47.6439 163.355 47.6439C163.348 47.6439 163.344 47.6405 163.341 47.6405H88.1382C88.4977 47.1634 88.7985 46.6379 89.0197 46.0675C90.3196 42.721 88.6567 38.9424 85.3206 37.6425C84.4529 37.3037 83.5437 37.162 82.6448 37.2069V26.2478C82.6448 26.2133 82.6414 26.1821 82.631 26.151V26.1476C82.6206 26.113 82.6068 26.0853 82.5895 26.0577C82.5826 26.0473 82.5757 26.0404 82.5653 26.03C82.5515 26.0127 82.5377 25.9955 82.5204 25.9816C82.51 25.9713 82.4996 25.9643 82.4893 25.9574C82.4823 25.9505 82.4754 25.9436 82.465 25.9401C82.4547 25.9332 82.4408 25.9298 82.4305 25.9263C82.4166 25.9194 82.4063 25.9159 82.3959 25.9125C82.3682 25.9021 82.3406 25.8987 82.3095 25.8987C82.306 25.8987 82.2991 25.8952 82.2922 25.8952H77.6839C77.6839 25.8952 77.6839 25.8952 77.6804 25.8952C77.6597 25.8952 77.6389 25.8987 77.6182 25.9021C77.6078 25.9056 77.5974 25.9056 77.5905 25.909C77.5594 25.9159 77.5283 25.9298 77.5006 25.9471L45.2388 45.5766C45.1316 45.6388 45.0694 45.7529 45.0694 45.8773V87.5114C45.0694 87.705 45.225 87.8606 45.4186 87.8606H52.4538V93.4196C51.1539 93.8103 49.8817 94.1249 48.6441 94.315C47.1471 94.5432 45.6709 94.7645 44.2328 94.9753C41.8923 95.3245 39.6521 95.6564 37.5571 95.9952L35.4655 83.311C39.9045 82.1909 42.8257 80.1236 42.8257 77.7105V71.2146H42.8015C42.4109 67.9061 36.513 65.3305 28.8659 65.092L28.6412 55.3187H40.5752L35.4068 36.1732C35.3342 33.7394 31.9808 31.8449 27.7078 31.8449C23.4244 31.8449 20.0675 33.7463 20.0053 36.187L14.8369 55.3187H26.7743L26.5462 65.092C18.9025 65.3305 13.0046 67.9061 12.614 71.2146H12.5898V77.7105C12.5898 80.1236 15.511 82.1909 19.95 83.311L16.7038 102.992C16.6865 103.096 16.7141 103.2 16.7798 103.279C16.849 103.355 16.9458 103.4 17.0495 103.4H18.1765C18.3459 103.4 18.4911 103.283 18.5222 103.117L22.2248 83.7777C23.5765 83.9955 25.025 84.1373 26.5427 84.1822L26.7329 98.4912C24.2921 99.4385 22.8643 100.607 22.8643 102.173C22.8643 106.204 32.2954 107.601 44.2328 109.367C45.6709 109.582 47.1471 109.799 48.6441 110.028C51.6345 110.484 54.8012 111.663 58.1546 112.911C63.2054 114.788 68.4291 116.731 74.1369 116.731C79.8446 116.731 85.0683 114.788 90.1191 112.911C93.4725 111.663 96.6392 110.484 99.6296 110.028C101.127 109.799 102.599 109.582 104.041 109.367C115.978 107.601 125.409 106.204 125.409 102.173C125.409 100.109 122.938 98.7401 118.931 97.6546H125.634C126.45 97.6546 127.114 96.9874 127.114 96.1715V87.864H133.06C133.101 87.864 133.139 87.8537 133.181 87.8364C133.191 87.8329 133.198 87.8295 133.209 87.826C133.219 87.8226 133.229 87.8191 133.236 87.8122L147.013 79.6914H161.941C162.757 79.6914 163.42 79.0276 163.42 78.2083V70.0149L168.126 67.2389C168.233 67.1766 168.298 67.0626 168.298 66.9381V61.1613C168.298 61.1301 168.295 61.099 168.288 61.0679ZM162.082 48.3457L130.975 67.27H124.338L97.7974 48.3457H162.082ZM162.988 48.6188V60.9054L131.425 79.5186V67.8231L162.988 48.6188ZM130.723 67.9752V79.7813H113.22L124.192 68.1688H124.224C124.362 68.1688 124.476 68.0893 124.535 67.9752H130.723ZM96.5839 48.3457L123.394 67.4636H98.4266C98.233 67.4636 98.0739 67.6226 98.0739 67.8162C98.0739 68.0098 98.233 68.1688 98.4266 68.1688H123.228L101.358 91.3073L90.2366 48.3457H96.5839ZM97.8319 80.4866L98.2364 82.0388H50.3795V80.4866H97.8319ZM50.3795 79.7813V67.9752H94.5926L97.6522 79.7813H50.3795ZM89.5107 48.3457L94.4128 67.27H51.2853L56.0146 64.3937C56.0319 64.4006 56.0458 64.411 56.0665 64.4179C56.8271 64.7152 57.6257 64.8638 58.4208 64.8638C59.3093 64.8638 60.1978 64.6772 61.0344 64.3072C61.5011 64.1033 61.9332 63.8405 62.3308 63.5432L86.375 49.2515C86.3958 49.2377 86.4131 49.2238 86.4304 49.2066C86.8279 48.9576 87.1875 48.6672 87.5159 48.3457H89.5107ZM53.1141 60.6876C52.4918 59.2668 52.4573 57.6903 53.0173 56.2452C53.5808 54.8002 54.6698 53.6593 56.0838 53.0336C56.834 52.7052 57.6257 52.5392 58.4173 52.5392C59.126 52.5392 59.8382 52.6706 60.5193 52.9368C61.9609 53.5003 63.0983 54.5893 63.724 56.0102C64.3463 57.431 64.3809 59.0075 63.8208 60.4526C63.2573 61.8976 62.1683 63.0385 60.7543 63.6642C59.3369 64.29 57.7605 64.3245 56.3189 63.761C54.8772 63.1975 53.7399 62.1085 53.1141 60.6876ZM85.0648 38.2959C86.5064 38.8594 87.6438 39.9518 88.2695 41.3693C88.8918 42.7901 88.9264 44.3666 88.3663 45.8117C87.9066 46.994 87.0907 47.9724 86.0086 48.643C85.9913 48.6534 85.974 48.6672 85.9602 48.6776L63.9487 61.7628C64.1527 61.4309 64.329 61.0783 64.4742 60.7084C65.1034 59.087 65.0654 57.3169 64.367 55.7267C63.6652 54.1364 62.3896 52.9126 60.7751 52.2799C59.897 51.9411 58.9774 51.8028 58.0647 51.8512L79.9448 38.7557C79.9621 38.7488 79.9759 38.7384 79.9932 38.7315C81.542 37.8015 83.3916 37.6459 85.0648 38.2959ZM81.943 37.283C81.1583 37.4109 80.3908 37.6805 79.6821 38.0988C79.6648 38.1057 79.6475 38.1127 79.6302 38.123L55.7726 52.4044C54.1997 53.1096 52.9897 54.3784 52.3639 55.9894C51.7347 57.6108 51.7728 59.3808 52.4711 60.9711C53.0519 62.2883 54.0268 63.3462 55.2575 64.0307L50.3795 66.9969V46.0744L81.943 26.8701V37.283ZM45.7712 81.7311V46.0744L77.7841 26.597H81.0407L49.8471 45.5766C49.7434 45.6388 49.6777 45.7529 49.6777 45.8773V82.0388H45.7712V81.7311ZM45.7712 87.1588V82.7406H98.4162L99.5605 87.1588H45.7712ZM58.4001 92.0921C63.3921 90.2356 68.5571 88.3135 74.1369 88.3135C79.7166 88.3135 84.8816 90.2356 89.8736 92.0921C92.6566 93.1292 95.3082 94.1076 97.8665 94.6884H55.4131V93.1845C56.3949 92.8388 57.3871 92.4689 58.4001 92.0921ZM55.4131 92.4378V87.864H70.5415C66.2062 88.4448 62.1268 89.9556 58.1546 91.4352C57.2281 91.7775 56.3154 92.1163 55.4131 92.4378ZM35.5934 96.3271C32.966 96.7869 30.6256 97.2709 28.693 97.8378L28.8728 84.1822C30.3905 84.1373 31.839 83.9955 33.1907 83.7777L35.5934 96.3271ZM15.7565 54.6135L20.351 37.5975C21.0113 38.8179 22.5532 39.7928 24.5722 40.2941L22.6811 54.6135H15.7565ZM23.3898 54.6135L25.2601 40.4428C26.0276 40.5845 26.8469 40.664 27.7078 40.664C31.2098 40.664 34.0931 39.3918 35.0645 37.5941L39.659 54.6135H23.3898ZM28.3058 71.2768H27.1062L27.4761 55.3187H27.9394L28.3058 71.2768ZM29.0249 71.9786L28.935 67.9856C32.1709 68.3037 34.7119 69.8421 34.7119 71.626C34.7119 73.6345 31.5037 75.332 27.7078 75.332C23.9084 75.332 20.7002 73.6345 20.7002 71.626C20.7002 69.8386 23.2446 68.3037 26.4805 67.9856L26.3906 71.9786H29.0249ZM26.5323 65.7973L26.4978 67.2769C22.771 67.5984 19.9984 69.3927 19.9984 71.626C19.9984 74.1013 23.3829 76.0372 27.7078 76.0372C32.0292 76.0372 35.4137 74.1013 35.4137 71.626C35.4137 69.3927 32.6445 67.6019 28.9177 67.2769L28.8832 65.7973C36.1708 66.0462 42.1205 68.5872 42.1205 71.5672C42.1205 74.7063 35.5208 77.3579 27.7078 77.3579C19.8947 77.3579 13.295 74.7063 13.295 71.5672C13.295 68.5872 19.2447 66.0462 26.5323 65.7973ZM13.295 77.7105V73.5619C15.2103 76.1963 20.8592 78.0597 27.7078 78.0597C34.5563 78.0597 40.2052 76.1963 42.1205 73.5619V77.7105C42.1205 80.8496 35.5208 83.5012 27.7078 83.5012C19.8947 83.5012 13.295 80.8496 13.295 77.7105ZM124.708 102.173C124.708 105.596 115.083 107.02 103.937 108.672C102.496 108.883 101.023 109.105 99.5259 109.333C96.4595 109.799 93.2616 110.989 89.8736 112.251C84.8816 114.107 79.7166 116.029 74.1369 116.029C68.5571 116.029 63.3921 114.107 58.4001 112.251C55.0121 110.989 51.8142 109.799 48.7478 109.333C47.2508 109.105 45.7781 108.883 44.3365 108.672C33.1907 107.02 23.5661 105.596 23.5661 102.173C23.5661 100.977 24.7416 100.026 26.7432 99.2241L26.7916 103.055C26.7951 103.248 26.9507 103.4 27.1442 103.4H28.2713C28.4649 103.4 28.6204 103.248 28.6239 103.055L28.6827 98.5604C30.629 97.9865 33.0317 97.4887 35.7248 97.0185L36.8933 103.117C36.9244 103.283 37.0696 103.4 37.239 103.4H38.3661C38.4698 103.4 38.5666 103.355 38.6323 103.279C38.7014 103.2 38.729 103.096 38.7118 102.992L37.6712 96.6901C39.78 96.3478 42.0237 96.0159 44.333 95.6737C45.7747 95.4593 47.2508 95.2415 48.7478 95.0134C49.9612 94.8267 51.1954 94.5259 52.4538 94.1525V96.1715C52.4538 96.9874 53.1176 97.6546 53.9335 97.6546H115.895C121.164 98.754 124.708 100.095 124.708 102.173ZM124.154 94.6884H102.101C101.286 94.5674 100.463 94.4429 99.6296 94.315C96.6392 93.8587 93.4725 92.6798 90.1191 91.4352C86.1469 89.9556 82.0675 88.4448 77.7323 87.8606H99.7437L100.84 92.0956C100.871 92.22 100.968 92.3168 101.092 92.3479C101.12 92.3583 101.151 92.3618 101.178 92.3618C101.275 92.3618 101.365 92.3203 101.434 92.2511L105.583 87.8606H124.154V94.6884ZM132.707 87.1588H106.247L110.419 82.7406H132.707V87.1588ZM132.96 82.0388H111.087L112.552 80.4866H131.076C131.117 80.4866 131.155 80.4762 131.197 80.4589C131.207 80.4554 131.214 80.452 131.224 80.4485C131.235 80.4451 131.245 80.4416 131.252 80.4347L163.341 61.5139H166.694L132.96 82.0388ZM160.461 76.7252H152.04L160.461 71.7608V76.7252ZM167.597 66.7341L133.409 86.896V82.5885L167.597 61.787V66.7341Z" fill="#32312B"/>
</g>
</svg>
