<svg width="181" height="146" viewBox="0 0 181 146" fill="none" xmlns="http://www.w3.org/2000/svg">
<mask id="mask0_235_8039" style="mask-type:luminance" maskUnits="userSpaceOnUse" x="31" y="13" width="120" height="120">
<path d="M31.9369 13.8952H150.514V132.895H31.9369V13.8952Z" fill="white"/>
</mask>
<g mask="url(#mask0_235_8039)">
<path d="M43.231 70.5819C43.2687 74.1313 44.3216 77.7668 44.7741 81.1815C45.4473 86.3466 46.0155 91.3448 47.2812 96.4264C48.5604 101.567 50.7471 109.17 56.2192 111.243C56.2354 111.243 56.2435 111.243 56.2515 111.257C56.3512 111.346 56.467 111.41 56.5801 111.453C62.8332 123.717 77.0494 132.041 90.6813 132.601C90.7701 132.623 90.8778 132.631 90.9856 132.631C91.069 132.631 91.1498 132.623 91.2225 132.623C91.3033 132.623 91.3841 132.631 91.4703 132.631C91.5753 132.631 91.683 132.623 91.7719 132.601C105.396 132.041 119.617 123.717 125.873 111.453C125.989 111.41 126.102 111.346 126.194 111.257C126.21 111.243 126.218 111.243 126.234 111.243C131.83 109.118 133.685 101.583 135.175 96.4264C136.588 91.4902 137.326 86.2982 137.679 81.1815C137.935 77.4894 138.869 74.1394 138.993 70.6573C139.053 70.6412 139.109 70.6331 139.176 70.6062C153.201 64.7328 152.353 42.4242 146.404 30.8497C146.421 30.5454 146.315 30.2357 146.022 29.9638C139.198 23.5922 130.163 19.4477 121.387 16.4854C111.84 13.2646 101.192 13.8705 91.2737 14.1183C80.6391 14.3822 69.5737 15.147 59.4077 18.462C54.8458 19.9459 50.6501 22.278 46.2283 24.1092C42.8082 25.5392 39.4393 27.0473 36.8513 29.7322C36.6709 29.8345 36.5066 29.9799 36.3774 30.2088C36.3774 30.2169 36.3693 30.2223 36.3693 30.2357C36.2131 30.4054 36.1296 30.5939 36.0811 30.7851C30.1054 42.3191 29.2275 64.6547 43.231 70.5819Z" fill="black"/>
</g>
<path d="M74.4414 103.256C76.0788 102.882 77.1721 101.589 76.9755 99.874C76.8085 98.4494 75.7637 96.9225 74.2556 96.7178C69.9307 96.1065 69.8741 104 74.4414 103.256ZM75.2655 95.0482C76.9028 94.6739 77.9935 93.3812 77.7942 91.6658C77.6326 90.2385 76.5877 88.7089 75.077 88.5042C70.7547 87.8983 70.6982 95.7888 75.2655 95.0482ZM76.9082 110.646C78.5428 110.272 79.6362 108.979 79.4396 107.264C79.2726 105.839 78.2331 104.307 76.7197 104.102C72.3948 103.496 72.3409 111.384 76.9082 110.646ZM80.1936 89.3014C81.8283 88.927 82.9243 87.6344 82.7277 85.919C82.5607 84.4917 81.5159 82.9621 80.0051 82.7574C75.6829 82.1515 75.6263 90.0419 80.1936 89.3014ZM83.4817 117.217C85.1164 116.837 86.207 115.547 86.0105 113.829C85.8489 112.404 84.804 110.878 83.2905 110.673C78.971 110.062 78.9118 117.955 83.4817 117.217ZM85.9458 85.1973C87.5805 84.8203 88.6765 83.5303 88.4799 81.8149C88.3129 80.3876 87.2681 78.858 85.7546 78.6533C81.4351 78.0474 81.3758 85.9351 85.9458 85.1973ZM92.3901 121.321C96.8174 122.043 97.0167 114.473 92.7483 114.753C91.2133 114.85 90.1199 116.36 89.891 117.772C89.5921 119.538 90.6962 120.925 92.3901 121.321ZM92.3901 83.5572C96.8174 84.2763 97.0167 76.709 92.7483 76.9864C91.2133 77.0887 90.1199 78.5941 89.891 80.0106C89.5921 81.7718 90.6962 83.1587 92.3901 83.5572ZM99.785 85.1973C104.21 85.919 104.412 78.3517 100.146 78.6291C98.6082 78.726 97.5149 80.2368 97.286 81.6533C96.9897 83.4145 98.0912 84.8014 99.785 85.1973ZM102.249 117.217C106.679 117.938 106.876 110.369 102.61 110.646C101.072 110.746 99.9816 112.256 99.75 113.667C99.4538 115.434 100.555 116.821 102.249 117.217ZM105.537 89.3014C109.962 90.0231 110.158 82.4558 105.898 82.7332C104.36 82.8301 103.267 84.3409 103.038 85.7574C102.742 87.524 103.843 88.9055 105.537 89.3014ZM107.737 100.057C108.691 92.5706 102.295 86.6488 95.584 84.8768C87.5589 82.7574 79.892 88.8409 77.9935 96.33C75.734 105.279 84.3139 112.954 92.7267 113.382C92.7644 113.382 92.7914 113.347 92.8237 113.347C92.8587 113.347 92.8722 113.339 92.9072 113.339H93.1118C100.504 113.339 106.768 107.643 107.737 100.057ZM108.82 110.646C113.25 111.368 113.447 103.8 109.186 104.08C107.646 104.177 106.555 105.688 106.324 107.102C106.027 108.863 107.126 110.253 108.82 110.646ZM111.284 103.256C115.714 103.978 115.911 96.4108 111.648 96.6909C110.113 96.7905 109.019 98.2986 108.79 99.7124C108.491 101.479 109.596 102.866 111.284 103.256ZM113.807 90.8471C115.42 94.795 115.932 99.1873 114.944 103.496C112.609 113.727 103.111 121.386 92.5221 121.501C78.5024 120.96 67.1084 108.381 70.0546 94.3507C72.4055 83.1722 82.962 76.1246 94.0248 76.4774C102.47 76.7521 109.757 82.2754 113.242 89.5626C112.733 88.8678 111.928 88.4073 110.826 88.4827C109.289 88.577 108.198 90.0904 107.966 91.5042C107.673 93.2654 108.772 94.6523 110.465 95.0482C113.145 95.4844 114.271 92.8992 113.807 90.8471Z" fill="#4D4D4D"/>
<path d="M105.65 57.1606C101.204 55.3051 96.2486 54.6992 91.3958 54.6427C91.3366 54.6427 91.28 54.648 91.2208 54.6561C91.1696 54.648 91.1158 54.6427 91.0592 54.6427C86.3654 54.6911 81.5826 55.2701 77.2523 56.9802C81.2945 53.1804 86.1768 50.7109 92.2307 51.193C92.4111 51.298 92.6319 51.3653 92.8958 51.3572C97.9667 51.193 102.149 53.6328 105.65 57.1606Z" fill="#4D4D4D"/>
<path d="M97.1135 94.6067C98.7913 95.7242 99.5695 98.1425 99.0552 99.9603C98.188 102.979 95.8478 104.942 92.6997 105.088C90.6369 104.926 88.9457 103.833 87.4565 102.465C85.5284 100.69 85.6522 98.595 86.6379 96.3975C88.5822 92.0537 93.7716 92.3823 97.1135 94.6067Z" fill="#575A77"/>
<path d="M100.833 99.9899C101.848 96.4701 98.5437 92.7404 95.3633 91.682C90.6452 90.1228 86.0698 92.498 84.5025 97.1569C82.8086 102.19 88.0761 106.453 92.7 106.811C96.9064 106.607 99.7071 103.949 100.833 99.9899ZM99.085 91.9783C101.813 93.8041 103.063 97.6093 102.282 100.639C101.105 105.195 97.3534 108.152 92.7 108.373C85.4316 107.872 80.4765 100.868 84.0797 94.2215C87.1713 88.5312 94.3858 88.8329 99.085 91.9783Z" fill="#666666"/>
<path d="M93.1124 110.053C104.617 109.234 109.297 92.608 96.6671 88.5713C90.0666 86.4519 83.5388 89.7616 81.4195 96.3378C79.1116 103.488 86.0972 109.636 92.7488 110.088C92.7919 110.096 92.8081 110.061 92.8431 110.061C92.8646 110.061 92.8808 110.053 92.9077 110.053H93.1124ZM98.6841 87.8657C111.271 93.7526 105.349 111.163 92.7004 111.655C83.9563 111.214 77.3854 103.299 80.1861 94.7947C82.7363 87.0524 91.8494 84.6638 98.6841 87.8657Z" fill="#B3B3B3"/>
<path d="M92.4194 116.083C94.7865 114.866 95.7883 120.629 92.7183 120.139C91.7058 119.899 91.0514 119.307 91.0729 118.224C91.0891 117.346 91.6465 116.474 92.4194 116.083Z" fill="#F2F2F2"/>
<path d="M102.281 111.977C104.648 110.762 105.65 116.525 102.578 116.032C101.568 115.795 100.911 115.203 100.935 114.12C100.948 113.242 101.511 112.37 102.281 111.977Z" fill="#F2F2F2"/>
<path d="M108.855 105.408C111.219 104.196 112.224 109.957 109.151 109.466C108.141 109.227 107.484 108.637 107.506 107.554C107.524 106.674 108.082 105.804 108.855 105.408Z" fill="#F2F2F2"/>
<path d="M111.319 98.019C113.686 96.8071 114.688 102.57 111.616 102.077C110.606 101.838 109.946 101.248 109.97 100.165C109.989 99.2847 110.546 98.4148 111.319 98.019Z" fill="#F2F2F2"/>
<path d="M110.5 89.8102C112.862 88.5984 113.867 94.3587 110.794 93.8685C109.784 93.6289 109.127 93.0391 109.151 91.9565C109.165 91.0732 109.727 90.2061 110.5 89.8102Z" fill="#F2F2F2"/>
<path d="M105.567 84.0635C107.936 82.8516 108.938 88.6119 105.863 88.1218C104.853 87.8821 104.196 87.2896 104.223 86.2098C104.236 85.3265 104.794 84.4593 105.567 84.0635Z" fill="#F2F2F2"/>
<path d="M99.8171 79.9597C102.184 78.7452 103.186 84.5081 100.111 84.0126C99.1008 83.7783 98.4437 83.1859 98.4706 82.1006C98.4841 81.2227 99.0416 80.3529 99.8171 79.9597Z" fill="#F2F2F2"/>
<path d="M92.4194 78.3166C94.7865 77.102 95.7883 82.865 92.7183 82.3749C91.7058 82.1352 91.0514 81.5427 91.0729 80.4629C91.0891 79.5796 91.6465 78.7124 92.4194 78.3166Z" fill="#F2F2F2"/>
<path d="M87.2605 81.9609C87.3924 83.0866 86.6626 83.7706 85.6258 84.013C82.8817 84.46 83.1887 79.1629 85.8224 79.9169C86.6465 80.1566 87.1716 81.1746 87.2605 81.9609Z" fill="#F2F2F2"/>
<path d="M81.5077 86.0668C81.6396 87.1951 80.9098 87.8738 79.873 88.1215C77.1289 88.5632 77.4359 83.2688 80.0696 84.0201C80.8937 84.2598 81.4188 85.2804 81.5077 86.0668Z" fill="#F2F2F2"/>
<path d="M76.5797 91.8143C76.7117 92.9373 75.9819 93.6213 74.9451 93.869C72.1982 94.3107 72.5026 89.0163 75.1417 89.7676C75.9603 90.0073 76.4882 91.028 76.5797 91.8143Z" fill="#F2F2F2"/>
<path d="M75.7564 100.024C75.8883 101.15 75.1585 101.829 74.1244 102.076C71.3776 102.518 71.6846 97.2237 74.321 97.9805C75.1424 98.2175 75.6675 99.2354 75.7564 100.024Z" fill="#F2F2F2"/>
<path d="M78.2254 107.412C78.3573 108.535 77.6248 109.219 76.588 109.466C73.8412 109.908 74.1482 104.614 76.7846 105.37C77.606 105.607 78.1311 106.625 78.2254 107.412Z" fill="#F2F2F2"/>
<path d="M84.7958 113.98C84.9278 115.106 84.198 115.787 83.1612 116.032C80.417 116.474 80.7187 111.179 83.3578 111.936C84.1818 112.173 84.707 113.194 84.7958 113.98Z" fill="#F2F2F2"/>
<path d="M143.939 31.456C149.247 41.1023 151.057 62.463 138.92 68.0401C138.831 67.1865 138.691 66.3166 138.443 65.428C136.17 57.0151 128.635 52.1516 120.852 49.6983C115.897 48.1336 110.942 46.4909 105.928 45.1121C100.868 43.7145 95.7592 43.4829 90.5644 43.4613C90.4675 43.4344 90.3517 43.4182 90.2359 43.4182C89.9073 43.4263 89.5788 43.4425 89.2476 43.4613C89.0294 43.4613 88.8167 43.4533 88.5905 43.4613C88.4854 43.4613 88.3858 43.4694 88.2889 43.491C78.6668 44.0161 69.5942 47.1776 60.4435 50.0699C52.3538 52.6121 45.9499 58.2781 43.6797 66.6452C43.5558 67.0868 43.4723 67.5312 43.3996 67.9755C31.502 62.3607 33.1959 41.4227 38.3799 31.7038C40.9678 28.9112 44.4606 27.5001 47.9211 26.0539C52.0037 24.3654 55.8816 22.3134 60.0638 20.8376C69.4326 17.5253 79.8733 16.9921 89.7242 16.6312C99.1092 16.2757 108.863 15.9095 118.06 18.0935C127.035 20.2263 137.04 25.1114 143.904 31.3752C143.926 31.3995 143.926 31.4264 143.939 31.456Z" fill="#B3B3B3"/>
<path d="M93.917 126.863C108.828 126.526 120.432 113.347 121.189 98.9664C121.092 81.5778 104.538 69.1228 87.8955 71.4603C73.2996 73.5043 63.0878 87.6263 64.1569 101.961C65.2314 116.42 80.1209 127.165 93.917 126.863ZM124.426 99.7931C124.49 102.898 124.908 105.92 124.375 108.979C124.318 109.054 124.27 109.138 124.221 109.227C118.525 121.423 104.573 129.806 91.2213 130.159C77.8749 129.806 63.9253 121.423 58.2297 109.227C58.1839 109.127 58.1246 109.046 58.0681 108.973C57.5995 106.364 57.8042 103.736 57.9604 101.091C58.1731 97.6091 58.0762 94.2294 58.7575 90.7878C60.0124 84.4728 63.2925 78.2116 66.3328 72.586C68.1183 69.2709 70.1353 65.7243 72.4971 62.4819C72.6048 62.4335 72.7152 62.3742 72.8256 62.2853C77.9046 58.1624 84.7151 57.1768 91.0598 57.104C91.1163 57.104 91.1702 57.096 91.2213 57.0879C91.2806 57.096 91.3371 57.104 91.3964 57.104C97.7383 57.1768 104.552 58.1624 109.625 62.2853C109.757 62.3904 109.897 62.4631 110.048 62.5142C112.396 65.8805 114.384 69.5025 116.121 72.586C119.306 78.252 122.102 84.4728 123.685 90.7878C124.426 93.7259 124.358 96.7905 124.426 99.7931Z" fill="#B3B3B3"/>
<path d="M64.6089 51.3652C70.4904 49.6094 76.1941 47.727 82.116 46.6956C72.9545 50.0995 65.3307 58.0572 60.3271 66.6101C54.8684 75.9198 49.3398 88.504 50.6997 99.8657C49.9161 97.3155 49.3909 94.7302 48.9547 92.8559C47.9448 88.5229 47.6243 84.1441 47.048 79.7465C46.4313 75.058 45.101 70.795 46.3829 66.085C48.7338 57.4163 56.8182 53.6973 64.6089 51.3652Z" fill="#CCCCCC"/>
<path d="M135.278 64.0898C137.589 68.5089 136.536 73.3509 135.69 77.9801C134.869 82.4208 134.694 86.9289 133.816 91.3723C133.576 92.5868 133.283 94.1272 132.903 95.7888C132.37 89.7942 130.014 83.4657 128.204 79.1408C125.164 71.8832 120.793 64.0978 115.873 57.9255C111.707 52.7065 106.717 48.624 100.458 46.4723C101.072 46.5639 101.7 46.6608 102.316 46.7766C106.784 47.6168 111.122 49.238 115.445 50.6249C119.207 51.8448 123.015 52.7792 126.561 54.5674C130.514 56.571 133.275 60.2415 135.278 64.0898Z" fill="#CCCCCC"/>
<path d="M117.015 102.012C119.603 87.9713 107.072 75.9956 93.9169 74.7542C80.9826 73.5396 69.9387 83.8026 67.927 96.0825C65.5949 110.345 78.5616 122.511 92.1934 123.206C92.223 123.206 92.25 123.233 92.2877 123.233C92.3819 123.233 92.4789 123.225 92.5677 123.225C92.6028 123.225 92.6458 123.233 92.6755 123.233C92.6997 123.233 92.7105 123.225 92.7347 123.225C105.642 123.01 114.844 113.74 117.015 102.012ZM118.725 98.9667C118.043 111.96 108.133 122.862 95.1099 124.316C81.8793 125.797 68.2959 115.098 66.6209 101.961C65.0428 89.6059 73.8623 78.0692 85.3533 74.5414C101.191 69.6806 118.63 82.4049 118.725 98.9667Z" fill="#E6E6E6"/>
<path d="M125.148 75.7396C128.183 81.2494 132.592 91.7817 131.8 99.9333C130.755 103.24 129.258 106.418 127.036 108.061C127.787 102.707 127.087 96.5509 126.333 91.4612C125.296 84.551 121.531 77.4254 118.249 71.342C113.186 61.965 105.643 49.0603 93.6861 48.896C88.4294 48.2524 82.7418 49.3403 78.3873 52.4346C72.9717 56.2694 69.0238 63.2792 65.6414 68.8294C61.6935 75.3141 58.2411 82.7494 56.383 90.1309C55.5966 93.2844 55.6343 96.5752 55.5616 99.7933C55.5051 102.602 55.2088 105.335 55.4727 108.088C54.7806 107.584 54.1586 106.951 53.6173 106.213C48.6029 94.2861 54.5921 79.7387 60.3416 69.0906C67.6962 55.4803 80.6225 43.782 97.0739 46.8116C111.772 49.5181 118.666 63.9821 125.148 75.7396Z" fill="#E6E6E6"/>
<mask id="mask1_235_8039" style="mask-type:luminance" maskUnits="userSpaceOnUse" x="31" y="13" width="120" height="120">
<path d="M31.9369 13.8952H150.514V132.895H31.9369V13.8952Z" fill="white"/>
</mask>
<g mask="url(#mask1_235_8039)">
<path d="M82.1176 46.6952C76.1957 47.7266 70.492 49.609 64.6105 51.3648C56.8197 53.697 48.7354 57.416 46.3845 66.0847C45.1026 70.7947 46.4329 75.0577 47.0496 79.7461C47.6259 84.1438 47.9464 88.5226 48.9563 92.8556C49.3925 94.7299 49.9176 97.3151 50.7013 99.8654C49.3414 88.5037 54.87 75.9194 60.3287 66.6098C65.3323 58.0569 72.9561 50.0991 82.1176 46.6952ZM91.3976 54.6422C96.2503 54.6988 101.205 55.3047 105.652 57.1601C102.151 53.6323 97.9685 51.1925 92.8976 51.3568C92.6337 51.3648 92.4128 51.2975 92.2324 51.1925C86.1786 50.7105 81.2962 53.1799 77.2541 56.9797C81.5844 55.2697 86.3671 54.6907 91.061 54.6422C91.1175 54.6422 91.1714 54.6476 91.2225 54.6557C91.2818 54.6476 91.3383 54.6422 91.3976 54.6422ZM124.376 108.978C124.909 105.919 124.492 102.898 124.427 99.7927C124.36 96.79 124.427 93.7254 123.686 90.7874C122.103 84.4723 119.308 78.2515 116.122 72.5855C114.385 69.5021 112.397 65.88 110.049 62.5138C109.898 62.4626 109.758 62.3899 109.626 62.2849C104.553 58.1619 97.7395 57.1763 91.3976 57.1036C91.3383 57.1036 91.2818 57.0955 91.2225 57.0874C91.1714 57.0955 91.1175 57.1036 91.061 57.1036C84.7163 57.1763 77.9058 58.1619 72.8268 62.2849C72.7164 62.3737 72.606 62.433 72.4983 62.4815C70.1365 65.7238 68.1195 69.2705 66.334 72.5855C63.2937 78.2111 60.0136 84.4723 58.7587 90.7874C58.0774 94.229 58.1743 97.6087 57.9616 101.091C57.8054 103.735 57.6007 106.364 58.0693 108.973C58.1258 109.046 58.1851 109.127 58.2309 109.226C63.9265 121.423 77.8761 129.806 91.2225 130.159C104.574 129.806 118.527 121.423 124.222 109.226C124.271 109.137 124.319 109.054 124.376 108.978ZM131.8 99.9327C132.592 91.7811 128.184 81.2488 125.149 75.739C118.667 63.9814 111.773 49.5175 97.0744 46.811C80.623 43.7814 67.6967 55.4797 60.3422 69.09C54.5927 79.7381 48.6035 94.2855 53.6178 106.213C54.1591 106.951 54.7812 107.583 55.4733 108.087C55.2093 105.335 55.5056 102.601 55.5621 99.7927C55.6348 96.5746 55.5971 93.2837 56.3835 90.1303C58.2416 82.7488 61.694 75.3135 65.6419 68.8288C69.0243 63.2786 72.9722 56.2688 78.3878 52.434C82.7424 49.3397 88.4299 48.2518 93.6866 48.8954C105.643 49.0597 113.186 61.9644 118.249 71.3414C121.532 77.4248 125.297 84.5504 126.334 91.4606C127.088 96.5503 127.788 102.706 127.036 108.06C129.258 106.417 130.755 103.24 131.8 99.9327ZM135.692 77.9795C136.537 73.3503 137.59 68.5083 135.28 64.0892C133.276 60.2409 130.516 56.5704 126.562 54.5668C123.016 52.7787 119.208 51.8442 115.446 50.6243C111.124 49.2374 106.785 47.6162 102.318 46.776C101.701 46.6602 101.073 46.5633 100.459 46.4717C106.718 48.6234 111.708 52.7059 115.874 57.9249C120.794 64.0972 125.165 71.8826 128.205 79.1402C130.015 83.4651 132.371 89.7936 132.904 95.7882C133.284 94.1266 133.578 92.5863 133.817 91.3717C134.695 86.9283 134.87 82.4203 135.692 77.9795ZM138.921 68.0398C151.058 62.4626 149.248 41.1019 143.94 31.4557C143.927 31.426 143.927 31.3991 143.905 31.3749C137.041 25.111 127.036 20.2259 118.061 18.0931C108.864 15.9091 99.1103 16.2753 89.7253 16.6308C79.8743 16.9917 69.4337 17.5249 60.0648 20.8372C55.8826 22.313 52.0047 24.3651 47.9222 26.0535C44.4617 27.4997 40.9689 28.9108 38.3809 31.7034C33.1969 41.4224 31.5031 62.3603 43.4006 67.9751C43.4734 67.5308 43.5568 67.0865 43.6807 66.6448C45.9509 58.2777 52.3548 52.6117 60.4445 50.0695C69.5952 47.1773 78.6679 44.0157 88.2899 43.4906C88.3868 43.469 88.4865 43.461 88.5915 43.461C88.8177 43.4529 89.0305 43.461 89.2486 43.461C89.5798 43.4421 89.9084 43.4259 90.2369 43.4179C90.3527 43.4179 90.4685 43.434 90.5655 43.461C95.7602 43.4825 100.869 43.7141 105.929 45.1118C110.943 46.4906 115.898 48.1333 120.853 49.6979C128.636 52.1512 136.171 57.0147 138.444 65.4276C138.692 66.3163 138.832 67.1861 138.921 68.0398ZM146.404 30.8497C152.353 42.4242 153.201 64.7328 139.176 70.6089C139.109 70.6331 139.053 70.6412 138.993 70.6573C138.869 74.1394 137.935 77.4894 137.679 81.1815C137.326 86.2982 136.588 91.4956 135.175 96.4264C133.685 101.583 131.83 109.118 126.234 111.243C126.218 111.243 126.21 111.243 126.194 111.257C126.102 111.346 125.989 111.41 125.873 111.453C119.617 123.717 105.396 132.041 91.7719 132.601C91.683 132.623 91.5753 132.631 91.4703 132.631C91.3895 132.631 91.3033 132.623 91.2225 132.623C91.1498 132.623 91.069 132.631 90.9856 132.631C90.8778 132.631 90.7701 132.623 90.6813 132.601C77.0494 132.041 62.8332 123.717 56.5801 111.453C56.467 111.41 56.3512 111.346 56.2515 111.257C56.2435 111.243 56.2354 111.243 56.2192 111.243C50.7471 109.17 48.5604 101.567 47.2812 96.4264C46.0155 91.3448 45.4473 86.3466 44.7741 81.1815C44.3216 77.7668 43.2687 74.1313 43.231 70.5819C29.2275 64.6547 30.1054 42.3191 36.0811 30.7851C36.1296 30.5939 36.2131 30.4054 36.3693 30.2357C36.3693 30.2223 36.3774 30.2169 36.3774 30.2088C36.5066 29.9799 36.6709 29.8345 36.8513 29.7322C39.4393 27.0473 42.8082 25.5392 46.2283 24.1092C50.6501 22.278 54.8458 19.9459 59.4077 18.462C69.5737 15.147 80.6391 14.3822 91.2737 14.1183C101.192 13.8705 111.84 13.2646 121.387 16.4854C130.163 19.4477 139.198 23.5922 146.022 29.9638C146.315 30.2357 146.421 30.5454 146.404 30.8497Z" fill="black"/>
</g>
<path d="M110.794 93.8692C113.867 94.3594 112.863 88.5991 110.501 89.8109C109.728 90.2068 109.165 91.0739 109.152 91.9572C109.127 93.0398 109.785 93.6296 110.794 93.8692ZM114.944 103.497C115.933 99.1879 115.421 94.7956 113.808 90.8477C114.271 92.8998 113.145 95.485 110.466 95.0488C108.772 94.6529 107.673 93.266 107.967 91.5048C108.198 90.091 109.289 88.5775 110.827 88.4833C111.928 88.4079 112.733 88.8684 113.242 89.5632C109.758 82.276 102.47 76.7527 94.0252 76.478C82.9624 76.1252 72.406 83.1727 70.055 94.3513C67.1089 108.382 78.5029 120.961 92.5225 121.502C103.111 121.386 112.609 113.727 114.944 103.497ZM93.9175 74.7545C107.073 75.9959 119.603 87.9716 117.015 102.013C114.845 113.741 105.643 123.01 92.7353 123.225C92.711 123.225 92.7002 123.233 92.676 123.233C92.6464 123.233 92.6033 123.225 92.5683 123.225C92.4794 123.225 92.3825 123.233 92.2882 123.233C92.2505 123.233 92.2236 123.207 92.194 123.207C78.5621 122.512 65.5954 110.345 67.9275 96.0829C69.9392 83.8029 80.9831 73.54 93.9175 74.7545Z" fill="black"/>
<path d="M95.11 124.315C108.133 122.861 118.043 111.96 118.725 98.9663C118.63 82.4045 101.191 69.6802 85.3534 74.541C73.8624 78.0688 65.0429 89.6055 66.621 101.961C68.296 115.097 81.8794 125.796 95.11 124.315ZM121.189 98.9663C120.432 113.347 108.828 126.526 93.917 126.863C80.1209 127.165 65.2314 116.42 64.1569 101.961C63.0878 87.6262 73.2996 73.5042 87.8955 71.4603C104.538 69.1228 121.092 81.5778 121.189 98.9663Z" fill="black"/>
<path d="M111.615 102.077C114.688 102.57 113.686 96.8066 111.319 98.0185C110.546 98.4143 109.988 99.2842 109.969 100.165C109.945 101.247 110.605 101.837 111.615 102.077ZM111.647 96.6908C115.91 96.4107 115.714 103.978 111.284 103.256C109.595 102.866 108.491 101.479 108.79 99.7123C109.019 98.2985 110.112 96.7905 111.647 96.6908Z" fill="black"/>
<path d="M109.151 109.467C112.224 109.957 111.219 104.197 108.855 105.408C108.082 105.804 107.525 106.674 107.506 107.555C107.484 108.637 108.141 109.227 109.151 109.467ZM109.186 104.081C113.446 103.801 113.25 111.368 108.82 110.646C107.126 110.253 106.027 108.863 106.323 107.102C106.555 105.688 107.646 104.178 109.186 104.081Z" fill="black"/>
<path d="M92.6994 111.656C105.348 111.163 111.27 93.753 98.6832 87.8661C91.8484 84.6642 82.7353 87.0528 80.1851 94.7952C77.3844 103.3 83.9553 111.214 92.6994 111.656ZM95.5835 84.8769C102.294 86.6489 108.69 92.5708 107.737 100.057C106.767 107.643 100.504 113.339 93.1114 113.339H92.9067C92.8717 113.339 92.8583 113.347 92.8232 113.347C92.7909 113.347 92.764 113.382 92.7263 113.382C84.3134 112.954 75.7336 105.279 77.993 96.3302C79.8916 88.841 87.5585 82.7575 95.5835 84.8769Z" fill="black"/>
<path d="M105.864 88.1215C108.939 88.6116 107.937 82.8513 105.567 84.0632C104.795 84.459 104.237 85.3262 104.224 86.2095C104.197 87.2894 104.854 87.8818 105.864 88.1215ZM105.899 82.7329C110.159 82.4555 109.962 90.0227 105.538 89.301C103.844 88.9052 102.742 87.5237 103.039 85.7571C103.268 84.3406 104.361 82.8298 105.899 82.7329Z" fill="black"/>
<path d="M102.578 116.031C105.65 116.524 104.649 110.761 102.282 111.976C101.511 112.369 100.948 113.242 100.935 114.119C100.911 115.202 101.568 115.794 102.578 116.031ZM102.61 110.645C106.876 110.368 106.679 117.938 102.249 117.216C100.555 116.82 99.4539 115.434 99.7501 113.667C99.9817 112.256 101.072 110.745 102.61 110.645Z" fill="black"/>
<path d="M99.0556 99.9606C99.57 98.1428 98.7917 95.7245 97.114 94.6069C93.772 92.3825 88.5826 92.054 86.6383 96.3977C85.6526 98.5952 85.5288 100.69 87.4569 102.465C88.9462 103.833 90.6374 104.926 92.7002 105.088C95.8483 104.943 98.1885 102.979 99.0556 99.9606ZM95.3635 91.6823C98.5439 92.7407 101.848 96.4705 100.833 99.9902C99.7073 103.949 96.9066 106.607 92.7002 106.811C88.0763 106.453 82.8089 102.19 84.5027 97.1572C86.0701 92.4983 90.6454 90.1231 95.3635 91.6823Z" fill="black"/>
<path d="M100.111 84.0125C103.186 84.508 102.184 78.745 99.8173 79.9595C99.0417 80.3527 98.4843 81.2226 98.4708 82.1005C98.4439 83.1857 99.101 83.7782 100.111 84.0125ZM100.146 78.6292C104.412 78.3518 104.21 85.9191 99.785 85.1974C98.0911 84.8015 96.9897 83.4146 97.2859 81.6534C97.5148 80.2369 98.6081 78.7262 100.146 78.6292Z" fill="black"/>
<path d="M92.719 82.3755C95.7889 82.8656 94.7872 77.1026 92.42 78.3172C91.6471 78.713 91.0897 79.5802 91.0735 80.4635C91.052 81.5434 91.7064 82.1358 92.719 82.3755ZM92.7486 76.9868C97.0169 76.7095 96.8177 84.2767 92.3904 83.5577C90.6965 83.1592 89.5924 81.7723 89.8913 80.0111C90.1202 78.5946 91.2136 77.0892 92.7486 76.9868Z" fill="black"/>
<path d="M92.719 120.138C95.7889 120.628 94.7872 114.865 92.42 116.083C91.6471 116.473 91.0897 117.346 91.0735 118.224C91.052 119.306 91.7064 119.899 92.719 120.138ZM92.7486 114.752C97.0169 114.472 96.8177 122.042 92.3904 121.32C90.6965 120.925 89.5924 119.538 89.8913 117.771C90.1202 116.36 91.2136 114.849 92.7486 114.752Z" fill="black"/>
<path d="M85.6251 84.0125C86.6619 83.7702 87.3917 83.0862 87.2598 81.9605C87.1709 81.1741 86.6458 80.1562 85.8217 79.9165C83.188 79.1625 82.881 84.4596 85.6251 84.0125ZM88.4797 81.8151C88.6763 83.5305 87.5802 84.8204 85.9456 85.1974C81.3756 85.9353 81.4349 78.0476 85.7544 78.6535C87.2678 78.8582 88.3127 80.3878 88.4797 81.8151Z" fill="black"/>
<path d="M83.1609 116.032C84.1977 115.787 84.9275 115.105 84.7955 113.98C84.7067 113.193 84.1815 112.173 83.3575 111.936C80.7184 111.179 80.4167 116.473 83.1609 116.032ZM86.0101 113.829C86.2067 115.547 85.116 116.837 83.4814 117.217C78.9114 117.954 78.9706 110.061 83.2902 110.673C84.8036 110.877 85.8485 112.404 86.0101 113.829Z" fill="black"/>
<path d="M79.8733 88.1215C80.9101 87.8738 81.6399 87.1952 81.5079 86.0668C81.4191 85.2805 80.8939 84.2598 80.0699 84.0201C77.4361 83.2688 77.1291 88.5632 79.8733 88.1215ZM82.7278 85.9187C82.9244 87.6341 81.8284 88.9268 80.1938 89.3011C75.6265 90.0416 75.683 82.1512 80.0052 82.7571C81.516 82.9618 82.5609 84.4914 82.7278 85.9187Z" fill="black"/>
<path d="M76.5873 109.466C77.6241 109.218 78.3566 108.534 78.2247 107.411C78.1304 106.625 77.6053 105.607 76.7839 105.37C74.1475 104.613 73.8405 109.908 76.5873 109.466ZM79.4392 107.263C79.6358 108.979 78.5424 110.271 76.9078 110.646C72.3405 111.384 72.3944 103.496 76.7193 104.102C78.2327 104.306 79.2722 105.839 79.4392 107.263Z" fill="black"/>
<path d="M74.9454 93.8691C75.9822 93.6213 76.712 92.9373 76.5801 91.8143C76.4885 91.028 75.9607 90.0073 75.142 89.7677C72.5029 89.0163 72.1986 94.3107 74.9454 93.8691ZM77.7946 91.6662C77.9939 93.3816 76.9032 94.6743 75.2659 95.0486C70.6986 95.7892 70.7552 87.8987 75.0774 88.5047C76.5882 88.7093 77.633 90.2389 77.7946 91.6662Z" fill="black"/>
<path d="M74.1236 102.077C75.1577 101.829 75.8875 101.15 75.7555 100.025C75.6666 99.2357 75.1415 98.2178 74.3202 97.9808C71.6837 97.2241 71.3767 102.518 74.1236 102.077ZM76.9754 99.874C77.172 101.589 76.0787 102.882 74.4413 103.256C69.874 104 69.9306 96.1065 74.2555 96.7178C75.7636 96.9225 76.8085 98.4494 76.9754 99.874Z" fill="black"/>
<path d="M102.282 100.639C103.063 97.6093 101.813 93.8041 99.0855 91.9783C94.3862 88.8329 87.1718 88.5313 84.0802 94.2215C80.477 100.868 85.4321 107.872 92.7004 108.373C97.3539 108.152 101.105 105.195 102.282 100.639ZM96.6672 88.5717C109.297 92.6084 104.617 109.235 93.1125 110.054H92.9078C92.8809 110.054 92.8647 110.062 92.8432 110.062C92.8082 110.062 92.792 110.097 92.7489 110.089C86.0973 109.636 79.1117 103.488 81.4196 96.3382C83.5389 89.762 90.0667 86.4523 96.6672 88.5717Z" fill="black"/>
</svg>
