<svg width="180" height="146" viewBox="0 0 180 146" fill="none" xmlns="http://www.w3.org/2000/svg">
<mask id="mask0_235_8094" style="mask-type:luminance" maskUnits="userSpaceOnUse" x="62" y="8" width="81" height="130">
<path d="M62.1074 8.79041H142.135V137.79H62.1074V8.79041Z" fill="white"/>
</mask>
<g mask="url(#mask0_235_8094)">
<path fill-rule="evenodd" clip-rule="evenodd" d="M62.6598 8.79041L63.6406 116.993L141.587 137.79L142.124 27.4423L62.6598 8.79041Z" fill="#BFE0E9"/>
</g>
<path fill-rule="evenodd" clip-rule="evenodd" d="M82.8621 114.769L126.856 105.42V40.5546L80.9216 32.3517L82.8621 114.769Z" fill="white"/>
<path fill-rule="evenodd" clip-rule="evenodd" d="M75.9352 26.8814L128.164 37.8461L128.433 45.1399L75.5365 33.2396L75.9352 26.8814Z" fill="#C8525B"/>
<path fill-rule="evenodd" clip-rule="evenodd" d="M81.0175 121.783L84.4278 120.343L84.6405 32.6547L77.7799 29.8611L77.2031 118.905L81.0175 121.783Z" fill="#C8525B"/>
<path fill-rule="evenodd" clip-rule="evenodd" d="M81.1373 28.0221L75.3373 26.8658L75.2549 119.843L81.0177 121.749L81.1373 28.0221Z" fill="#C8525B"/>
<path fill-rule="evenodd" clip-rule="evenodd" d="M81.262 121.44C81.262 121.626 81.1078 121.78 80.9218 121.78C80.7304 121.78 80.5789 121.626 80.5815 121.438L80.7889 34.5391C80.7889 34.3503 80.943 34.1962 81.1291 34.1962C81.3178 34.1988 81.4694 34.3503 81.4694 34.5391L81.262 121.44Z" fill="#2E2F52"/>
<path fill-rule="evenodd" clip-rule="evenodd" d="M81.0541 34.8717C80.8707 34.8318 80.7537 34.6484 80.7962 34.465C80.8361 34.2816 81.0195 34.1646 81.2029 34.2072L123.815 43.7099C123.998 43.7497 124.115 43.9331 124.075 44.1165C124.033 44.3 123.852 44.4169 123.666 44.3744L81.0541 34.8717Z" fill="#2E2F52"/>
<path fill-rule="evenodd" clip-rule="evenodd" d="M88.6304 19.6965C88.6331 19.2579 88.9919 18.9044 89.4305 18.9071C89.8664 18.9097 90.2199 19.2686 90.2173 19.7071L90.1668 26.8734C90.1641 27.312 89.8079 27.6655 89.3693 27.6628C88.9308 27.6602 88.5772 27.3013 88.5825 26.8627L88.6304 19.6965Z" fill="#2E2F52"/>
<path fill-rule="evenodd" clip-rule="evenodd" d="M116.901 25.0341C116.909 24.5955 117.271 24.2473 117.709 24.2553C118.148 24.2659 118.496 24.6274 118.486 25.066L118.337 32.7372C118.329 33.1758 117.967 33.524 117.529 33.5161C117.09 33.5081 116.744 33.1439 116.752 32.7053L116.901 25.0341Z" fill="#2E2F52"/>
<path fill-rule="evenodd" clip-rule="evenodd" d="M86.7588 19.4625C86.3255 19.3854 86.0384 18.9734 86.1155 18.5401C86.1926 18.1095 86.6046 17.8198 87.0352 17.8969L92.4869 18.8671C92.9176 18.9442 93.2073 19.3562 93.1302 19.7868C93.0531 20.2201 92.6411 20.5071 92.2105 20.4327L86.7588 19.4625Z" fill="#2E2F52"/>
<path fill-rule="evenodd" clip-rule="evenodd" d="M114.725 24.9277C114.297 24.8426 114.018 24.4227 114.103 23.9947C114.188 23.5641 114.608 23.285 115.036 23.3701L120.822 24.5316C121.253 24.6167 121.53 25.0367 121.444 25.4646C121.359 25.8952 120.939 26.1743 120.511 26.0893L114.725 24.9277Z" fill="#2E2F52"/>
<path fill-rule="evenodd" clip-rule="evenodd" d="M97.5454 21.7542C97.9574 23.0354 97.968 25.0396 97.6597 26.4245C97.5002 27.1315 97.2424 27.6924 96.9579 28.0034C95.8442 29.2128 94.2547 28.5935 93.5928 27.9449C93.3429 27.6977 93.1117 27.2963 92.9522 26.7727C92.6625 25.8264 92.5641 24.4309 92.6997 23.2055C92.7821 22.4666 92.9495 21.7888 93.1914 21.2864C93.412 20.8345 93.7018 20.5076 94.0234 20.3215C94.7863 19.8802 95.4508 19.8749 95.9904 20.0583C96.7772 20.3295 97.3274 21.0711 97.5454 21.7542ZM96.0356 22.238C95.9505 21.9775 95.7751 21.6638 95.4774 21.5628C95.294 21.499 95.076 21.5469 94.8182 21.6984C94.6906 21.7728 94.6241 21.9482 94.5471 22.1503C94.4142 22.4931 94.3264 22.9211 94.2759 23.3783C94.1802 24.2501 94.2201 25.223 94.3849 25.9779C94.4647 26.3447 94.5444 26.6557 94.7012 26.8099C94.9165 27.0199 95.4295 27.3176 95.791 26.9242C96.009 26.6876 96.118 26.1666 96.203 25.5659C96.3572 24.4841 96.3253 23.1444 96.0356 22.238Z" fill="#2E2F52"/>
<path fill-rule="evenodd" clip-rule="evenodd" d="M99.1932 20.6933C99.2118 20.2547 99.5786 19.9118 100.017 19.9304C100.453 19.9464 100.796 20.3158 100.777 20.7544L100.477 28.6702C100.461 29.1088 100.092 29.4517 99.653 29.4331C99.2171 29.4172 98.8742 29.0477 98.8901 28.6091L99.1932 20.6933Z" fill="#2E2F52"/>
<path fill-rule="evenodd" clip-rule="evenodd" d="M101.88 21.5709C101.894 21.1323 102.261 20.7868 102.699 20.8001C103.138 20.816 103.481 21.1828 103.467 21.6214L103.231 28.9498L106.867 29.71C107.295 29.8004 107.569 30.2203 107.481 30.6483C107.391 31.0789 106.971 31.3553 106.543 31.265L102.255 30.3692C101.878 30.2895 101.612 29.9519 101.625 29.5638L101.88 21.5709Z" fill="#2E2F52"/>
<path fill-rule="evenodd" clip-rule="evenodd" d="M107.943 22.7458C107.946 22.3072 108.307 21.9564 108.743 21.9617C109.182 21.9643 109.533 22.3258 109.53 22.7644L109.445 30.3426L112.941 30.97C113.371 31.047 113.658 31.459 113.581 31.8897C113.504 32.3229 113.092 32.61 112.661 32.5329L108.504 31.7886C108.124 31.7222 107.848 31.3873 107.85 30.9992L107.943 22.7458Z" fill="#2E2F52"/>
<path fill-rule="evenodd" clip-rule="evenodd" d="M108.632 23.543C108.199 23.4845 107.893 23.0884 107.949 22.6525C108.005 22.2166 108.403 21.9109 108.839 21.9667L113.092 22.5196C113.525 22.5781 113.834 22.9741 113.778 23.4101C113.719 23.846 113.321 24.1517 112.887 24.0959L108.632 23.543Z" fill="#2E2F52"/>
<path fill-rule="evenodd" clip-rule="evenodd" d="M108.872 27.7797C108.438 27.7292 108.127 27.3358 108.175 26.8999C108.228 26.464 108.622 26.153 109.055 26.2035L112.625 26.6182C113.061 26.6687 113.372 27.0647 113.321 27.5006C113.271 27.9366 112.877 28.2476 112.441 28.1971L108.872 27.7797Z" fill="#2E2F52"/>
<path fill-rule="evenodd" clip-rule="evenodd" d="M130.331 38.1336L123.786 36.9773L123.396 132.746L130.084 134.609L130.331 38.1336Z" fill="#C8525B"/>
<path fill-rule="evenodd" clip-rule="evenodd" d="M79.2553 124.401C79.2553 124.401 87.9367 126.4 86.9505 127.134C85.9644 127.867 73.7106 131.15 73.3783 130.645C73.046 130.14 71.9855 126.496 71.9855 126.496L79.2553 124.401Z" fill="#2E2F52"/>
<path fill-rule="evenodd" clip-rule="evenodd" d="M54.6148 129.266C54.6148 129.266 62.4482 133.517 61.3025 133.958C60.1569 134.402 47.4725 134.285 47.289 133.708C47.103 133.134 47.0525 129.341 47.0525 129.341L54.6148 129.266Z" fill="#2E2F52"/>
<path fill-rule="evenodd" clip-rule="evenodd" d="M78.1832 97.7308C78.1832 97.7308 79.2651 98.2544 80.1343 98.9934C80.9928 99.7217 81.6388 100.663 81.2188 100.862C80.3708 101.263 79.5601 101.011 79.5601 101.011C79.5601 101.011 81.6255 103.148 80.8201 103.85C80.1343 104.445 78.5607 102.412 78.5607 102.412C78.5607 102.412 80.3097 105.484 79.5973 105.841C78.7414 106.269 76.9711 103.475 76.9711 103.475C76.9711 103.475 78.053 106.423 77.1625 106.553C76.2455 106.689 74.9324 103.435 74.9324 103.435C74.9324 103.435 75.5996 106.314 74.9271 106.386C74.422 106.439 72.4843 104.589 72.3992 100.62C72.3992 100.62 70.4056 97.776 68.8719 94.6075C67.4764 91.7182 66.2404 89.1638 66.0171 88.2494C66.0171 88.2494 68.1356 87.4227 69.175 87.1117C70.1903 86.8087 72.2663 86.386 72.2663 86.386L78.1832 97.7308Z" fill="#FFD0D4"/>
<path fill-rule="evenodd" clip-rule="evenodd" d="M76.7132 100.139C76.5989 99.9872 76.6308 99.7719 76.7797 99.6602C76.9312 99.5459 77.1439 99.5752 77.2582 99.7267C77.2582 99.7267 78.0184 100.721 79.3767 100.588C79.5627 100.569 79.7302 100.705 79.7488 100.894C79.7674 101.08 79.6292 101.25 79.4431 101.268C77.6888 101.441 76.7132 100.139 76.7132 100.139Z" fill="#FF9AA2"/>
<path fill-rule="evenodd" clip-rule="evenodd" d="M74.6538 103.514C74.4731 103.562 74.2843 103.453 74.2365 103.273C74.186 103.092 74.295 102.903 74.4757 102.855C74.4757 102.855 77.0408 102.167 78.3034 101.361C78.4629 101.26 78.6729 101.306 78.7765 101.465C78.8775 101.625 78.8297 101.834 78.6702 101.936C77.3438 102.786 74.6538 103.514 74.6538 103.514Z" fill="#FF9AA2"/>
<path fill-rule="evenodd" clip-rule="evenodd" d="M69.9306 96.2233L82.4927 123.976C82.4927 123.976 78.3567 128.562 71.879 128.059L56.9883 101.494L69.9306 96.2233Z" fill="#277A91"/>
<path fill-rule="evenodd" clip-rule="evenodd" d="M61.863 99.5166L57.5861 130.563C57.5861 130.563 51.3183 132.934 45.9543 129.261L47.161 100.391L50.2604 98.7325L61.863 99.5166Z" fill="#277A91"/>
<path fill-rule="evenodd" clip-rule="evenodd" d="M49.277 102.002C49.2877 101.813 49.4498 101.667 49.6359 101.68C49.8246 101.691 49.9681 101.851 49.9575 102.039L48.3626 130.231C48.352 130.417 48.1899 130.563 48.0011 130.553C47.8151 130.542 47.6715 130.38 47.6822 130.191L49.277 102.002Z" fill="#2E2F52"/>
<path fill-rule="evenodd" clip-rule="evenodd" d="M70.3316 101.503C70.2519 101.333 70.3263 101.131 70.4964 101.051C70.6692 100.971 70.8712 101.048 70.951 101.218L81.6604 124.455C81.7402 124.628 81.6631 124.83 81.493 124.91C81.3228 124.99 81.1208 124.915 81.0411 124.742L70.3316 101.503Z" fill="#2E2F52"/>
<path fill-rule="evenodd" clip-rule="evenodd" d="M57.2566 114.437L65.2309 111.388L61.1667 100.147L55.0557 103.119L57.2566 114.437Z" fill="#277A91"/>
<path fill-rule="evenodd" clip-rule="evenodd" d="M62.7586 74.0468C62.7586 74.0468 69.0689 76.9468 73.4707 86.7153C73.4707 86.7153 72.3702 87.736 71.8227 88.1586C70.9747 88.8152 70.8152 89.1208 70.4803 89.5036L72.7716 99.9898C72.7716 99.9898 71.921 103.145 61.4136 103.374C50.736 103.607 46.3023 100.888 46.3023 100.888C46.3023 100.888 47.0067 96.4652 47.4081 94.8331C47.7244 93.5545 48.7105 91.1011 48.7105 91.1011C48.7105 91.1011 46.5203 89.5807 45.348 88.9507C44.1758 88.3181 41.8207 87.5207 41.6852 87.3107C41.4034 86.8721 44.0243 82.651 47.1476 78.8792C50.3984 74.9532 53.7875 73.6295 56.924 73.4221C60.0606 73.2121 62.7586 74.0468 62.7586 74.0468Z" fill="#F2A815"/>
<mask id="mask1_235_8094" style="mask-type:luminance" maskUnits="userSpaceOnUse" x="45" y="91" width="29" height="6">
<path d="M45.7764 91.6867H73.5508V96.45H45.7764V91.6867Z" fill="white"/>
</mask>
<g mask="url(#mask1_235_8094)">
<mask id="mask2_235_8094" style="mask-type:luminance" maskUnits="userSpaceOnUse" x="41" y="73" width="33" height="31">
<path fill-rule="evenodd" clip-rule="evenodd" d="M62.7566 74.0501C62.7566 74.0501 69.0669 76.9501 73.4687 86.7186C73.4687 86.7186 72.3682 87.7393 71.8207 88.1619C70.9727 88.8185 70.8132 89.1241 70.4783 89.5069L72.7696 99.9931C72.7696 99.9931 71.919 103.148 61.4116 103.377C50.734 103.611 46.3003 100.892 46.3003 100.892C46.3003 100.892 47.0047 96.4685 47.4061 94.8364C47.7224 93.5578 48.7085 91.1044 48.7085 91.1044C48.7085 91.1044 46.5183 89.584 45.346 88.954C44.1738 88.3214 41.8187 87.524 41.6832 87.314C41.4014 86.8754 44.0223 82.6543 47.1456 78.8825C50.3964 74.9565 53.7855 73.6328 56.922 73.4254C60.0586 73.2154 62.7566 74.0501 62.7566 74.0501Z" fill="white"/>
</mask>
<g mask="url(#mask2_235_8094)">
<path fill-rule="evenodd" clip-rule="evenodd" d="M47.0793 94.6739C46.4866 94.533 46.1171 93.9349 46.258 93.3422C46.3989 92.7468 46.9969 92.38 47.5897 92.5208C47.5897 92.5208 53.4535 93.9137 59.9658 94.0546C64.1948 94.1449 68.7109 93.7276 71.9963 91.9706C72.5333 91.6835 73.2031 91.8882 73.4902 92.4251C73.7773 92.9647 73.5752 93.6372 73.0356 93.9243C69.4525 95.8408 64.5351 96.3671 59.9179 96.2661C53.1637 96.1199 47.0793 94.6739 47.0793 94.6739Z" fill="#2E2F52"/>
</g>
</g>
<mask id="mask3_235_8094" style="mask-type:luminance" maskUnits="userSpaceOnUse" x="45" y="95" width="29" height="6">
<path d="M45.7765 95.7691H73.5509V100.532H45.7765V95.7691Z" fill="white"/>
</mask>
<g mask="url(#mask3_235_8094)">
<mask id="mask4_235_8094" style="mask-type:luminance" maskUnits="userSpaceOnUse" x="41" y="73" width="33" height="31">
<path fill-rule="evenodd" clip-rule="evenodd" d="M62.7566 74.0477C62.7566 74.0477 69.0669 76.9477 73.4687 86.7162C73.4687 86.7162 72.3682 87.7369 71.8207 88.1595C70.9727 88.8161 70.8133 89.1218 70.4783 89.5045L72.7696 99.9907C72.7696 99.9907 71.919 103.146 61.4116 103.374C50.734 103.608 46.3003 100.889 46.3003 100.889C46.3003 100.889 47.0047 96.4661 47.4061 94.834C47.7224 93.5555 48.7085 91.102 48.7085 91.102C48.7085 91.102 46.5183 89.5816 45.346 88.9516C44.1738 88.319 41.8188 87.5216 41.6832 87.3116C41.4014 86.873 44.0223 82.6519 47.1456 78.8801C50.3964 74.9541 53.7855 73.6304 56.9221 73.423C60.0586 73.2131 62.7566 74.0477 62.7566 74.0477Z" fill="white"/>
</mask>
<g mask="url(#mask4_235_8094)">
<path fill-rule="evenodd" clip-rule="evenodd" d="M46.6814 98.7383C46.0887 98.5974 45.7192 98.002 45.8601 97.4066C46.001 96.8138 46.5964 96.4444 47.1918 96.5852C47.1918 96.5852 53.0555 97.9781 59.5679 98.119C63.7969 98.212 68.313 97.7947 71.5984 96.0377C72.1353 95.7479 72.8052 95.9526 73.0923 96.4922C73.3793 97.0318 73.1773 97.7016 72.6377 97.9887C69.052 99.9079 64.1371 100.432 59.52 100.333C52.7631 100.187 46.6814 98.7383 46.6814 98.7383Z" fill="#2E2F52"/>
</g>
</g>
<path fill-rule="evenodd" clip-rule="evenodd" d="M45.5184 103.222C45.5184 103.222 45.949 104.349 46.0766 105.484C46.2016 106.603 46.0288 107.73 45.5849 107.587C44.6944 107.3 44.2771 106.558 44.2771 106.558C44.2771 106.558 44.317 109.533 43.2511 109.487C42.3447 109.453 42.5919 106.89 42.5919 106.89C42.5919 106.89 41.7599 110.327 40.9997 110.099C40.0826 109.822 40.7073 106.574 40.7073 106.574C40.7073 106.574 39.4766 109.463 38.7376 108.945C37.9774 108.416 39.248 105.144 39.248 105.144C39.248 105.144 37.7648 107.698 37.2252 107.289C36.8211 106.981 36.6749 104.301 39.3304 101.354C39.3304 101.354 39.8274 97.9167 40.8801 94.5568C41.8396 91.492 42.6902 88.7861 43.1527 87.9674C43.1527 87.9674 45.2314 88.8074 46.2308 89.3071C47.2515 89.8228 49.2796 91.0455 49.2796 91.0455C49.2796 91.0455 47.1027 94.9874 46.5684 97.1245C45.7417 100.439 45.5184 103.222 45.5184 103.222Z" fill="#FFD0D4"/>
<path fill-rule="evenodd" clip-rule="evenodd" d="M51.6665 86.1301C51.7489 85.96 51.9536 85.8883 52.1237 85.968C52.2912 86.0504 52.3629 86.2551 52.2832 86.4252L50.0185 91.1407C49.9786 91.2257 49.9042 91.2895 49.8138 91.3188C49.7235 91.3453 49.6251 91.3347 49.5427 91.2895C49.5427 91.2895 43.6019 87.8765 41.9326 87.6267C41.7465 87.5974 41.6163 87.4246 41.6455 87.2386C41.6721 87.0499 41.8475 86.9223 42.0336 86.9515C43.5168 87.1748 48.2828 89.7983 49.5613 90.516L51.6665 86.1301Z" fill="#2E2F52"/>
<path fill-rule="evenodd" clip-rule="evenodd" d="M68.7185 82.6405C68.6786 82.4545 68.7982 82.2737 68.9816 82.2365C69.1677 82.1966 69.3485 82.3162 69.3857 82.4996L70.8476 89.5595C70.8848 89.7456 70.7679 89.9264 70.5818 89.9636C70.3984 90.0034 70.2177 89.8838 70.1804 89.6978L68.7185 82.6405Z" fill="#2E2F52"/>
<path fill-rule="evenodd" clip-rule="evenodd" d="M61.5229 73.7544C61.5229 73.7544 62.8467 76.4072 62.1396 77.5209C61.4485 78.6054 57.4215 76.8591 55.816 72.9703L61.5229 73.7544Z" fill="#FFD0D4"/>
<mask id="mask5_235_8094" style="mask-type:luminance" maskUnits="userSpaceOnUse" x="55" y="72" width="8" height="5">
<path d="M55.7438 72.9519H62.3943V76.0353H55.7438V72.9519Z" fill="white"/>
</mask>
<g mask="url(#mask5_235_8094)">
<mask id="mask6_235_8094" style="mask-type:luminance" maskUnits="userSpaceOnUse" x="55" y="72" width="8" height="6">
<path fill-rule="evenodd" clip-rule="evenodd" d="M61.5219 73.7524C61.5219 73.7524 62.8456 76.4052 62.1385 77.5189C61.4474 78.6034 57.4204 76.8571 55.8149 72.9683L61.5219 73.7524Z" fill="white"/>
</mask>
<g mask="url(#mask6_235_8094)">
<path fill-rule="evenodd" clip-rule="evenodd" d="M63.3134 74.681C63.3134 74.681 62.9492 76.2387 60.0147 75.7071C56.0807 74.9947 54.1057 72.7114 54.1057 72.7114L57.3167 71.9804L63.3134 74.681Z" fill="#FF9AA2"/>
</g>
</g>
<path fill-rule="evenodd" clip-rule="evenodd" d="M74.0315 53.0243C74.0315 53.0243 75.8603 57.6494 74.3611 62.6678C74.3611 62.6678 75.6024 64.3504 75.2808 67.7421C74.9299 71.4236 69.8237 76.0035 60.1695 74.9987C50.3877 73.9807 47.1528 68.303 47.1528 68.303C47.1528 68.303 43.4262 68.0558 42.6474 65.2037C41.7303 61.8545 44.197 58.2793 47.5834 62.0352C47.5834 62.0352 46.3607 49.7734 49.4388 47.1339C52.5142 44.4971 71.1023 44.4307 74.0315 53.0243Z" fill="#FFD0D4"/>
<path fill-rule="evenodd" clip-rule="evenodd" d="M56.4966 47.1177C56.4966 47.1177 58.0011 53.0293 64.7579 51.9501C64.7579 51.9501 70.837 54.5019 73.5935 53.0878C73.5935 53.0878 75.8821 57.2397 74.3457 62.6675C74.3457 62.6675 74.8109 63.3533 75.0022 64.1428C75.0022 64.1428 79.5901 56.3519 76.9267 50.1904C76.9267 50.1904 79.6433 50.5785 79.0372 49.3372C78.4312 48.0959 75.167 43.4602 70.5579 42.684C70.5579 42.684 73.3941 41.0918 71.5786 40.0844C69.7658 39.077 63.1365 36.5783 56.999 39.9089C56.999 39.9089 57.8283 38.0004 57.2728 37.8782C56.7146 37.7532 55.4068 38.3832 54.6492 40.1482C54.6492 40.1482 51.9938 38.2689 51.3904 38.9015C50.787 39.5368 52.0815 40.8526 52.0815 40.8526C52.0815 40.8526 48.9184 40.523 46.5978 41.1981C43.8706 41.9902 40.4098 45.5733 44.9498 45.3368C44.9498 45.3368 41.6245 47.9523 41.4279 50.653C41.0663 55.6156 43.3762 61.086 43.3762 61.086C43.3762 61.086 45.3911 59.4964 47.6079 62.0934C47.6079 62.0934 49.5696 54.6587 51.2203 53.9065C52.8709 53.1542 57.1 52.184 56.4966 47.1177Z" fill="#2E2F52"/>
<path d="M56.0368 62.5161C56.0368 62.8457 56.1006 63.162 56.2255 63.465C56.3505 63.768 56.5286 64.0365 56.7598 64.2678C56.9937 64.499 57.2595 64.6798 57.5626 64.8047C57.8656 64.9296 58.1819 64.9934 58.5088 64.9934C58.8358 64.9934 59.1521 64.9296 59.4551 64.8047C59.7582 64.6798 60.0266 64.499 60.2579 64.2678C60.4891 64.0365 60.6672 63.768 60.7922 63.465C60.9197 63.162 60.9809 62.8457 60.9809 62.5161C60.9809 62.1891 60.9197 61.8728 60.7922 61.5698C60.6672 61.2668 60.4891 60.9983 60.2579 60.7644C60.0266 60.5331 59.7582 60.355 59.4551 60.2274C59.1521 60.1025 58.8358 60.0414 58.5088 60.0414C58.1819 60.0414 57.8656 60.1025 57.5626 60.2274C57.2595 60.355 56.9937 60.5331 56.7598 60.7644C56.5286 60.9983 56.3505 61.2668 56.2255 61.5698C56.1006 61.8728 56.0368 62.1891 56.0368 62.5161Z" fill="#FF9AA2"/>
<path d="M71.5468 62.1806C71.5468 62.4438 71.5973 62.6989 71.6983 62.9435C71.7993 63.188 71.9428 63.4033 72.1289 63.5921C72.3123 63.7781 72.5276 63.9217 72.7695 64.0227C73.0114 64.1237 73.2639 64.1742 73.527 64.1742C73.7902 64.1742 74.0427 64.1237 74.2846 64.0227C74.5265 63.9217 74.7391 63.7781 74.9252 63.5921C75.1113 63.4033 75.2548 63.188 75.3558 62.9435C75.4542 62.6989 75.5047 62.4438 75.5047 62.1806C75.5047 61.9148 75.4542 61.6596 75.3558 61.4151C75.2548 61.1705 75.1113 60.9552 74.9252 60.7665C74.7391 60.5804 74.5265 60.4369 74.2846 60.3359C74.0427 60.2349 73.7902 60.1844 73.527 60.1844C73.2639 60.1844 73.0114 60.2349 72.7695 60.3359C72.5276 60.4369 72.3123 60.5804 72.1289 60.7665C71.9428 60.9552 71.7993 61.1705 71.6983 61.4151C71.5973 61.6596 71.5468 61.9148 71.5468 62.1806Z" fill="#FF9AA2"/>
<path d="M69.97 60.4028C69.9833 60.5756 70.0285 60.7377 70.1082 60.8919C70.1853 61.0434 70.289 61.1763 70.4219 61.2879C70.5521 61.3996 70.6983 61.482 70.8631 61.5378C71.0252 61.591 71.1927 61.6096 71.3655 61.5963C71.5356 61.583 71.6977 61.5378 71.8519 61.4581C72.0034 61.381 72.1363 61.2773 72.248 61.1444C72.3596 61.0142 72.442 60.868 72.4952 60.7032C72.5483 60.541 72.5696 60.3709 72.5563 60.2008C72.543 60.028 72.4952 59.8659 72.4181 59.7117C72.341 59.5602 72.2347 59.4273 72.1044 59.3156C71.9742 59.204 71.828 59.1189 71.6632 59.0658C71.501 59.0126 71.3336 58.994 71.1608 59.0073C70.9907 59.0206 70.8285 59.0658 70.6744 59.1455C70.5229 59.2226 70.39 59.3263 70.2783 59.4592C70.1667 59.5894 70.0843 59.7356 70.0311 59.9004C69.978 60.0626 69.9567 60.2327 69.97 60.4028Z" fill="#2E2F52"/>
<path d="M59.8294 60.6184C59.8427 60.8045 59.8932 60.9799 59.9783 61.1474C60.0633 61.3148 60.175 61.4584 60.3158 61.578C60.4594 61.7003 60.6189 61.7906 60.7943 61.8465C60.9724 61.9049 61.1531 61.9262 61.3392 61.9129C61.5253 61.897 61.7007 61.8491 61.8682 61.7641C62.033 61.679 62.1765 61.5647 62.2988 61.4238C62.421 61.2803 62.5088 61.1208 62.5672 60.9454C62.6257 60.7673 62.647 60.5839 62.631 60.3978C62.6177 60.2117 62.5672 60.0363 62.4822 59.8688C62.3998 59.704 62.2855 59.5605 62.1446 59.4382C62.0011 59.316 61.8416 59.2282 61.6661 59.1698C61.4881 59.1113 61.3073 59.09 61.1212 59.1033C60.9352 59.1193 60.7597 59.1698 60.5923 59.2548C60.4275 59.3372 60.2839 59.4515 60.1617 59.5924C60.0394 59.7359 59.9517 59.8954 59.8932 60.0735C59.8347 60.2516 59.8135 60.4323 59.8294 60.6184Z" fill="#2E2F52"/>
<path fill-rule="evenodd" clip-rule="evenodd" d="M69.0529 63.6534C68.9838 63.6135 68.8934 63.5657 68.819 63.5391C68.5133 63.4248 68.1811 63.3583 68.1811 63.3583C67.9817 63.3185 67.8488 63.1218 67.8887 62.9197C67.9285 62.7177 68.1252 62.5875 68.3273 62.6274C68.3273 62.6274 69.1247 62.7948 69.5154 63.0526C69.8636 63.2812 69.9593 63.5869 69.7945 63.882C69.5074 64.395 68.9253 64.69 68.9253 64.69C68.7419 64.7804 68.5186 64.706 68.4256 64.5226C68.3352 64.3392 68.4097 64.1132 68.5931 64.0229C68.5931 64.0229 68.8615 63.8926 69.0529 63.6534Z" fill="#2E2F52"/>
<path fill-rule="evenodd" clip-rule="evenodd" d="M61.3339 55.2356C61.3339 55.2356 60.4568 54.066 59.2181 54.4648C58.7529 54.6136 58.3941 54.9592 58.1203 55.31C57.679 55.8815 57.4637 56.4849 57.4637 56.4849C57.3734 56.7454 57.0863 56.8836 56.8258 56.7906C56.5653 56.6976 56.4271 56.4131 56.5201 56.15L57.3308 54.696C57.7189 54.1936 58.2479 53.7232 58.9124 53.5078C60.781 52.9071 62.126 54.6216 62.126 54.6216C62.2962 54.8422 62.2563 55.1559 62.0357 55.326C61.8177 55.4961 61.504 55.4562 61.3339 55.2356Z" fill="#2E2F52"/>
<path fill-rule="evenodd" clip-rule="evenodd" d="M69.7949 54.5579C69.7949 54.5579 70.2414 54.0635 70.9006 53.7977C71.3764 53.6037 71.9559 53.5292 72.5566 53.7844C74.21 54.4915 74.4492 56.299 74.4492 56.299C74.4864 56.5728 74.2924 56.8253 74.0186 56.8625C73.7448 56.8997 73.4923 56.7057 73.4577 56.4292C73.4577 56.4292 73.2956 55.1906 72.1659 54.7094C71.7512 54.534 71.3605 54.6669 71.0707 54.8264C70.7465 55.0071 70.5338 55.2357 70.5338 55.2357C70.3477 55.4404 70.0314 55.4537 69.8268 55.2676C69.6221 55.0816 69.6088 54.7626 69.7949 54.5579Z" fill="#2E2F52"/>
<path fill-rule="evenodd" clip-rule="evenodd" d="M46.7043 67.0637C46.7043 67.0637 46.7707 65.8038 46.5209 64.6395C46.372 63.9484 46.1354 63.2759 45.6384 63.0128C45.2742 62.8214 45.019 62.7868 44.8463 62.9224C44.7479 63.0022 44.6841 63.1271 44.6416 63.2653C44.5592 63.5391 44.5592 63.8713 44.6203 64.177C44.7612 64.9027 45.2849 65.3918 45.2849 65.3918C45.4364 65.5327 45.4443 65.7666 45.3035 65.9181C45.1652 66.0696 44.9287 66.0776 44.7798 65.9367C44.7798 65.9367 44.0807 65.2881 43.8894 64.3206C43.7432 63.571 43.908 62.7177 44.3864 62.3403C44.732 62.0638 45.2556 61.9682 45.9839 62.3536C46.4969 62.6247 46.8558 63.1829 47.0791 63.8527C47.5389 65.2429 47.4459 67.1009 47.4459 67.1009C47.4353 67.3056 47.2598 67.4651 47.0551 67.4545C46.8505 67.4438 46.6936 67.2684 46.7043 67.0637Z" fill="#FF9AA2"/>
<path fill-rule="evenodd" clip-rule="evenodd" d="M46.5945 64.3182C46.5945 64.3182 46.3819 64.3102 46.2755 64.5016C46.1559 64.7116 46.1533 65.0651 46.3446 65.6738C46.4058 65.8705 46.2968 66.0778 46.1028 66.1416C45.9061 66.2028 45.6987 66.0938 45.6349 65.8971C45.3505 64.9854 45.4515 64.4484 45.6296 64.1348C45.9645 63.5394 46.6317 63.5766 46.6317 63.5766C46.8364 63.5872 46.9959 63.7626 46.9852 63.9673C46.9746 64.172 46.7992 64.3288 46.5945 64.3182Z" fill="#FF9AA2"/>
<path fill-rule="evenodd" clip-rule="evenodd" d="M64.4174 67.8615C64.25 67.6834 64.2606 67.4069 64.4361 67.2395C64.6115 67.0747 64.8906 67.0826 65.0554 67.2607L65.9751 68.2389L66.8629 67.2634C67.0277 67.0826 67.3041 67.072 67.4822 67.2342C67.663 67.399 67.6736 67.6754 67.5115 67.8561L66.302 69.1799C66.2196 69.2703 66.1027 69.3234 65.9831 69.3234C65.8608 69.3261 65.7438 69.2756 65.6588 69.1852L64.4174 67.8615Z" fill="#FF9AA2"/>
</svg>
