<svg width="181" height="146" viewBox="0 0 181 146" fill="none" xmlns="http://www.w3.org/2000/svg">
<path d="M130.248 59.137H90.9366V63.0678H96.8345V80.7581H100.765V63.0678H104.696V80.7581H108.627V63.0678H112.558V88.6197H116.489V63.0678H120.419V88.6197H124.35V63.0678H128.281V88.6197H132.215V63.4102C134.499 64.2209 136.146 66.4076 136.146 68.9624V88.6197H140.077V68.9624C140.077 63.5329 135.677 59.137 130.248 59.137Z" fill="#3397E8"/>
<path d="M43.7634 59.137H87.0056V82.7219H43.7634V59.137Z" fill="#3397E8"/>
<mask id="mask0_235_7663" style="mask-type:luminance" maskUnits="userSpaceOnUse" x="85" y="82" width="9" height="48">
<path d="M85.0038 82.0175H93.2724V129.895H85.0038V82.0175Z" fill="white"/>
</mask>
<g mask="url(#mask0_235_7663)">
<path d="M85.0421 82.7218H92.9037V129.895H85.0421V82.7218Z" fill="#FFD33A"/>
</g>
<path d="M85.0421 39.4802H92.9037V82.7223H85.0421V39.4802Z" fill="#FFD33A"/>
<mask id="mask1_235_7663" style="mask-type:luminance" maskUnits="userSpaceOnUse" x="37" y="82" width="10" height="48">
<path d="M37.0472 82.0184H46.1426V129.895H37.0472V82.0184Z" fill="white"/>
</mask>
<g mask="url(#mask1_235_7663)">
<path d="M37.8696 82.7216H45.7313V129.895H37.8696V82.7216Z" fill="#FFD33A"/>
</g>
<path d="M37.8697 39.4802H45.7313V82.7223H37.8697V39.4802Z" fill="#FFD33A"/>
<mask id="mask2_235_7663" style="mask-type:luminance" maskUnits="userSpaceOnUse" x="55" y="82" width="6" height="48">
<path d="M55.236 82.0179H60.1971V129.895H55.236V82.0179Z" fill="white"/>
</mask>
<g mask="url(#mask2_235_7663)">
<path d="M57.5234 129.895C56.4413 129.895 55.5563 129.01 55.5563 127.931V84.6889C55.5563 83.6068 56.4413 82.7218 57.5234 82.7218C58.6054 82.7218 59.4904 83.6068 59.4904 84.6889V127.931C59.4904 129.01 58.6054 129.895 57.5234 129.895Z" fill="#3397E8"/>
</g>
<path d="M37.8697 78.7914H112.558V86.6531H37.8697V78.7914Z" fill="#2978B8"/>
<mask id="mask3_235_7663" style="mask-type:luminance" maskUnits="userSpaceOnUse" x="33" y="15" width="65" height="29">
<path d="M33.9363 15.8952H97.4074V43.9826H33.9363V15.8952Z" fill="white"/>
</mask>
<g mask="url(#mask3_235_7663)">
<path d="M69.9563 15.8952H60.8415C59.9823 15.8952 59.12 16.1891 58.432 16.7059L35.4608 34.3703C34.5015 35.1068 33.9363 36.2631 33.9363 37.4904V39.4801C33.9363 41.6441 35.7063 43.4109 37.8703 43.4109H92.9049C95.0657 43.4109 96.8357 41.6441 96.8357 39.4801V37.4904C96.8357 36.2631 96.2705 35.1068 95.3112 34.3703L72.3626 16.7059C71.652 16.1891 70.8155 15.8952 69.9563 15.8952Z" fill="#EB423F"/>
</g>
<mask id="mask4_235_7663" style="mask-type:luminance" maskUnits="userSpaceOnUse" x="139" y="86" width="9" height="44">
<path d="M139.576 86.1506H147.938V129.893H139.576V86.1506Z" fill="white"/>
</mask>
<g mask="url(#mask4_235_7663)">
<path d="M140.077 86.6532H147.938V129.895H140.077V86.6532Z" fill="#FFD33A"/>
</g>
<path d="M57.5235 66.999C55.3626 66.999 53.5927 68.769 53.5927 70.9298V78.7914H61.4543V70.9298C61.4543 68.769 59.6843 66.999 57.5235 66.999Z" fill="#E9EEF2"/>
<path d="M73.2465 66.999C71.0857 66.999 69.3157 68.769 69.3157 70.9298V78.7914H77.1773V70.9298C77.1773 68.769 75.4105 66.999 73.2465 66.999Z" fill="#E9EEF2"/>
<mask id="mask5_235_7663" style="mask-type:luminance" maskUnits="userSpaceOnUse" x="65" y="86" width="80" height="44">
<path d="M65.1592 86.1506H144.538V129.893H65.1592V86.1506Z" fill="white"/>
</mask>
<g mask="url(#mask5_235_7663)">
<path d="M108.628 86.6532L77.178 122.034H69.3164C67.1556 122.034 65.3856 123.804 65.3856 125.965C65.3856 128.129 67.1556 129.895 69.3164 129.895H103.075C105.359 129.895 107.523 128.913 109.022 127.169L144.008 86.6532H108.628Z" fill="#C7312E"/>
</g>
<path d="M61.4543 100.412C61.4543 100.67 61.4284 100.925 61.38 101.181C61.3283 101.432 61.254 101.678 61.1539 101.917C61.057 102.156 60.9343 102.382 60.7921 102.595C60.65 102.812 60.4853 103.009 60.3044 103.193C60.1203 103.374 59.9233 103.538 59.7069 103.68C59.4937 103.823 59.2676 103.945 59.0286 104.045C58.7896 104.142 58.5441 104.217 58.289 104.268C58.037 104.317 57.7819 104.343 57.5235 104.343C57.2651 104.343 57.0099 104.317 56.758 104.268C56.5028 104.217 56.2573 104.142 56.0183 104.045C55.7793 103.945 55.5532 103.823 55.34 103.68C55.1236 103.538 54.9266 103.374 54.7425 103.193C54.5616 103.009 54.3969 102.812 54.2548 102.595C54.1127 102.382 53.9899 102.156 53.893 101.917C53.7929 101.678 53.7186 101.432 53.6669 101.181C53.6185 100.925 53.5927 100.67 53.5927 100.412C53.5927 100.153 53.6185 99.8982 53.6669 99.6463C53.7186 99.3911 53.7929 99.1457 53.893 98.9067C53.9899 98.6676 54.1127 98.4415 54.2548 98.2284C54.3969 98.012 54.5616 97.8149 54.7425 97.6308C54.9266 97.45 55.1236 97.2885 55.34 97.1431C55.5532 97.001 55.7793 96.8783 56.0183 96.7814C56.2573 96.6812 56.5028 96.607 56.758 96.5553C57.0099 96.5068 57.2651 96.481 57.5235 96.481C57.7819 96.481 58.037 96.5068 58.289 96.5553C58.5441 96.607 58.7896 96.6812 59.0286 96.7814C59.2676 96.8783 59.4937 97.001 59.7069 97.1431C59.9233 97.2885 60.1203 97.45 60.3044 97.6308C60.4853 97.8149 60.65 98.012 60.7921 98.2284C60.9343 98.4415 61.057 98.6676 61.1539 98.9067C61.254 99.1457 61.3283 99.3911 61.38 99.6463C61.4284 99.8982 61.4543 100.153 61.4543 100.412Z" fill="#2978B8"/>
<path d="M61.4543 116.136C61.4543 116.394 61.4284 116.649 61.38 116.904C61.3283 117.156 61.254 117.402 61.1539 117.641C61.057 117.88 60.9343 118.106 60.7921 118.322C60.65 118.535 60.4853 118.736 60.3044 118.917C60.1203 119.101 59.9233 119.262 59.7069 119.404C59.4937 119.55 59.2676 119.669 59.0286 119.769C58.7896 119.866 58.5441 119.944 58.289 119.992C58.037 120.044 57.7819 120.066 57.5235 120.066C57.2651 120.066 57.0099 120.044 56.758 119.992C56.5028 119.944 56.2573 119.866 56.0183 119.769C55.7793 119.669 55.5532 119.55 55.34 119.404C55.1236 119.262 54.9266 119.101 54.7425 118.917C54.5616 118.736 54.3969 118.535 54.2548 118.322C54.1127 118.106 53.9899 117.88 53.893 117.641C53.7929 117.402 53.7186 117.156 53.6669 116.904C53.6185 116.649 53.5927 116.394 53.5927 116.136C53.5927 115.877 53.6185 115.622 53.6669 115.37C53.7186 115.118 53.7929 114.87 53.893 114.634C53.9899 114.395 54.1127 114.169 54.2548 113.952C54.3969 113.739 54.5616 113.539 54.7425 113.358C54.9266 113.174 55.1236 113.012 55.34 112.867C55.5532 112.725 55.7793 112.605 56.0183 112.505C56.2573 112.405 56.5028 112.331 56.758 112.282C57.0099 112.231 57.2651 112.205 57.5235 112.205C57.7819 112.205 58.037 112.231 58.289 112.282C58.5441 112.331 58.7896 112.405 59.0286 112.505C59.2676 112.605 59.4937 112.725 59.7069 112.867C59.9233 113.012 60.1203 113.174 60.3044 113.358C60.4853 113.539 60.65 113.739 60.7921 113.952C60.9343 114.169 61.057 114.395 61.1539 114.634C61.254 114.87 61.3283 115.118 61.38 115.37C61.4284 115.622 61.4543 115.877 61.4543 116.136Z" fill="#2978B8"/>
<mask id="mask6_235_7663" style="mask-type:luminance" maskUnits="userSpaceOnUse" x="65" y="74" width="53" height="56">
<path d="M65.1592 74.5759H117.251V129.895H65.1592V74.5759Z" fill="white"/>
</mask>
<g mask="url(#mask6_235_7663)">
<path d="M108.628 78.7916V86.6532L77.178 122.034H69.3164C67.1556 122.034 65.3856 123.804 65.3856 125.965C65.3856 128.129 67.1556 129.895 69.3164 129.895H75.5566C77.8434 129.895 80.0042 128.914 81.5029 127.169L116.489 86.6532V78.7916C116.489 76.6308 114.723 74.8608 112.559 74.8608C110.398 74.8608 108.628 76.6308 108.628 78.7916Z" fill="#EB423F"/>
</g>
<mask id="mask7_235_7663" style="mask-type:luminance" maskUnits="userSpaceOnUse" x="96" y="74" width="52" height="56">
<path d="M96.5801 74.5763H147.939V129.895H96.5801V74.5763Z" fill="white"/>
</mask>
<g mask="url(#mask7_235_7663)">
<path d="M140.077 78.7919V86.6535L108.627 122.034H100.765C98.6012 122.034 96.8344 123.804 96.8344 125.965C96.8344 128.129 98.6012 129.896 100.765 129.896H107.005C109.289 129.896 111.453 128.914 112.952 127.17L147.938 86.6535V78.7919C147.938 76.6311 146.168 74.8611 144.007 74.8611C141.843 74.8611 140.077 76.6311 140.077 78.7919Z" fill="#EB423F"/>
</g>
</svg>
