<svg width="158" height="124" viewBox="0 0 158 124" fill="none" xmlns="http://www.w3.org/2000/svg">
<path d="M117.952 70.9611C117.952 72.2353 117.891 73.5015 117.766 74.7677C117.64 76.0339 117.454 77.292 117.204 78.5379C116.957 79.7879 116.645 81.0217 116.277 82.2353C115.905 83.453 115.476 84.6504 114.987 85.8276C114.497 87.0007 113.955 88.1496 113.352 89.2701C112.75 90.3947 112.094 91.4829 111.386 92.5428C110.679 93.5986 109.918 94.618 109.109 95.601C108.3 96.584 107.442 97.5266 106.54 98.4247C105.638 99.3268 104.695 100.18 103.708 100.985C102.721 101.794 101.698 102.551 100.638 103.255C99.5782 103.963 98.4819 104.618 97.3573 105.217C96.2327 105.815 95.0798 106.357 93.9026 106.847C92.7214 107.332 91.524 107.761 90.3023 108.129C89.0806 108.497 87.8468 108.809 86.5927 109.056C85.3427 109.302 84.0806 109.493 82.8104 109.614C81.5401 109.739 80.2699 109.804 78.9916 109.804C77.7173 109.804 76.4431 109.739 75.1728 109.614C73.9026 109.493 72.6445 109.302 71.3905 109.056C70.1405 108.809 68.9026 108.497 67.685 108.129C66.4633 107.761 65.2618 107.332 64.0847 106.847C62.9034 106.357 61.7505 105.815 60.6259 105.217C59.5013 104.618 58.4091 103.963 57.3492 103.255C56.2853 102.551 55.2618 101.794 54.2748 100.985C53.2918 100.18 52.3452 99.3268 51.4431 98.4247C50.541 97.5266 49.6834 96.584 48.8743 95.601C48.0652 94.618 47.3088 93.5986 46.5968 92.5428C45.8889 91.4829 45.2335 90.3947 44.6308 89.2701C44.0321 88.1496 43.4859 87.0007 42.9965 85.8276C42.511 84.6504 42.0822 83.453 41.7101 82.2353C41.3379 81.0217 41.0304 79.7879 40.7796 78.5379C40.5329 77.292 40.3468 76.0339 40.2214 74.7677C40.096 73.5015 40.0312 72.2353 40.0312 70.9611C40.0312 69.6908 40.096 68.4206 40.2214 67.1544C40.3468 65.8882 40.5329 64.6342 40.7796 63.3842C41.0304 62.1382 41.3379 60.9044 41.7101 59.6868C42.0822 58.4692 42.511 57.2758 42.9965 56.0986C43.4859 54.9255 44.0321 53.7766 44.6308 52.652C45.2335 51.5315 45.8889 50.4433 46.5968 49.3834C47.3088 48.3276 48.0652 47.3041 48.8743 46.3211C49.6834 45.3381 50.541 44.3996 51.4431 43.4975C52.3452 42.5994 53.2918 41.7459 54.2748 40.9368C55.2618 40.1318 56.2853 39.3753 57.3492 38.6674C58.4091 37.9594 59.5013 37.3082 60.6259 36.7094C61.7505 36.1107 62.9034 35.5646 64.0847 35.0792C65.2618 34.5938 66.4633 34.165 67.685 33.7928C68.9026 33.4247 70.1405 33.1172 71.3905 32.8705C72.6445 32.6196 73.9026 32.4336 75.1728 32.3082C76.4431 32.1827 77.7173 32.1221 78.9916 32.1221C80.2699 32.1221 81.5401 32.1827 82.8104 32.3082C84.0806 32.4336 85.3427 32.6196 86.5927 32.8705C87.8468 33.1172 89.0806 33.4247 90.3023 33.7928C91.524 34.165 92.7214 34.5938 93.9026 35.0792C95.0798 35.5646 96.2327 36.1107 97.3573 36.7094C98.4819 37.3082 99.5782 37.9594 100.638 38.6674C101.698 39.3753 102.721 40.1318 103.708 40.9368C104.695 41.7459 105.638 42.5994 106.54 43.4975C107.442 44.3996 108.3 45.3381 109.109 46.3211C109.918 47.3041 110.679 48.3276 111.386 49.3834C112.094 50.4433 112.75 51.5315 113.352 52.652C113.955 53.7766 114.497 54.9255 114.987 56.0986C115.476 57.2758 115.905 58.4692 116.277 59.6868C116.645 60.9044 116.957 62.1382 117.204 63.3842C117.454 64.6342 117.64 65.8882 117.766 67.1544C117.891 68.4206 117.952 69.6908 117.952 70.9611Z" fill="#6CC8E3"/>
<path d="M109.097 61.2732C104.995 48.5993 93.0694 39.4326 78.9918 39.4326C64.9181 39.4326 52.9926 48.5993 48.8906 61.2732H109.097Z" fill="#CAF5FF"/>
<path d="M48.8906 80.6543C52.9926 93.3242 64.9181 102.495 78.9918 102.495C93.0694 102.495 104.995 93.3242 109.097 80.6543H48.8906Z" fill="#CAF5FF"/>
<path d="M40.0312 70.9619C40.0312 74.3074 40.456 77.5558 41.2529 80.6545H116.73C117.527 77.5558 117.952 74.3074 117.952 70.9619C117.952 67.6165 117.527 64.3721 116.73 61.2734H41.2529C40.456 64.3721 40.0312 67.6165 40.0312 70.9619Z" fill="#A57EF6"/>
<path d="M45.9774 75.3063C45.1845 75.3063 44.5939 75.1809 44.5252 75.1688C44.0478 75.0636 43.708 74.6429 43.708 74.1574V67.7699C43.708 67.2844 44.0478 66.8637 44.5252 66.7586C44.8164 66.6938 47.4095 66.1801 49.1611 67.5878C49.8164 68.1137 50.5972 69.1251 50.5972 70.9616C50.5972 72.7982 49.8164 73.8136 49.1611 74.3395C48.4006 74.9463 47.3488 75.282 46.115 75.3063C46.0705 75.3063 46.0219 75.3063 45.9774 75.3063ZM45.7833 73.2351C46.4548 73.2594 47.3124 73.1663 47.8625 72.7254C48.3075 72.3654 48.5219 71.7909 48.5219 70.9616C48.5219 70.1364 48.3075 69.5579 47.8585 69.1979C47.3083 68.7569 46.4507 68.672 45.7833 68.6922V73.2351Z" fill="#030468"/>
<path d="M113.24 75.3147H109.097C108.527 75.3147 108.062 74.8495 108.062 74.2791V67.6488C108.062 67.0744 108.527 66.6132 109.097 66.6132H113.24C113.81 66.6132 114.275 67.0744 114.275 67.6488C114.275 68.2192 113.81 68.6804 113.24 68.6804H110.137V73.2435H113.24C113.81 73.2435 114.275 73.7087 114.275 74.2791C114.275 74.8495 113.81 75.3147 113.24 75.3147Z" fill="#030468"/>
<path d="M112.329 71.9968H109.097C108.527 71.9968 108.062 71.5357 108.062 70.9612C108.062 70.3909 108.527 69.9297 109.097 69.9297H112.329C112.904 69.9297 113.365 70.3909 113.365 70.9612C113.365 71.5357 112.904 71.9968 112.329 71.9968Z" fill="#030468"/>
<path d="M69.429 75.3755C67.2 75.3755 65.3877 73.3974 65.3877 70.9621C65.3877 68.5308 67.2 66.5486 69.429 66.5486C70.4039 66.5486 71.3424 66.9329 72.0746 67.6287C72.4913 68.0211 72.5075 68.6765 72.1151 69.0891C71.7186 69.5058 71.0633 69.5219 70.6466 69.1255C70.4039 68.8949 69.9913 68.6198 69.429 68.6198C68.3448 68.6198 67.4589 69.6716 67.4589 70.9621C67.4589 72.2566 68.3448 73.3084 69.429 73.3084C69.8012 73.3084 70.1652 73.1829 70.4808 72.9402C70.9338 72.5923 71.5851 72.6813 71.933 73.1344C72.285 73.5875 72.196 74.2388 71.7429 74.5826C71.0592 75.1045 70.2623 75.3755 69.429 75.3755Z" fill="#030468"/>
<path d="M53.272 75.3504C52.6975 75.3504 52.2323 74.8852 52.2323 74.3148V67.6077C52.2323 67.0373 52.6975 66.5762 53.272 66.5762C53.8424 66.5762 54.3076 67.0373 54.3076 67.6077V74.3148C54.3076 74.8852 53.8424 75.3504 53.272 75.3504Z" fill="#030468"/>
<path d="M75.3186 75.3504C74.7442 75.3504 74.2831 74.8852 74.2831 74.3148V67.6077C74.2831 67.0373 74.7442 66.5762 75.3186 66.5762C75.8931 66.5762 76.3542 67.0373 76.3542 67.6077V74.3148C76.3542 74.8852 75.8931 75.3504 75.3186 75.3504Z" fill="#030468"/>
<path d="M95.3999 75.3504C94.8254 75.3504 94.3643 74.8852 94.3643 74.3148V67.6077C94.3643 67.0373 94.8254 66.5762 95.3999 66.5762C95.9743 66.5762 96.4395 67.0373 96.4395 67.6077V74.3148C96.4395 74.8852 95.9743 75.3504 95.3999 75.3504Z" fill="#030468"/>
<path d="M79.7203 75.3504C79.1499 75.3504 78.6847 74.8852 78.6847 74.3148V67.6077C78.6847 67.0373 79.1499 66.5762 79.7203 66.5762H81.7348C83.2882 66.5762 84.5544 67.8343 84.5544 69.3836C84.5544 70.933 83.2882 72.1911 81.7348 72.1911H80.7599V74.3148C80.7599 74.8893 80.2947 75.3504 79.7203 75.3504ZM80.7599 70.1239H81.7348C82.1434 70.1239 82.4792 69.7922 82.4792 69.3836C82.4792 68.975 82.1434 68.6433 81.7348 68.6433H80.7599V70.1239Z" fill="#030468"/>
<path d="M100.109 75.3504C99.5345 75.3504 99.0693 74.8852 99.0693 74.3148V67.6077C99.0693 67.0373 99.5345 66.5762 100.109 66.5762C100.679 66.5762 101.145 67.0373 101.145 67.6077V74.3148C101.145 74.8852 100.679 75.3504 100.109 75.3504Z" fill="#030468"/>
<path d="M104.866 75.3504C104.295 75.3504 103.83 74.8852 103.83 74.3148V67.6077C103.83 67.0373 104.295 66.5762 104.866 66.5762C105.44 66.5762 105.905 67.0373 105.905 67.6077V74.3148C105.905 74.8852 105.44 75.3504 104.866 75.3504Z" fill="#030468"/>
<path d="M104.866 75.351C104.542 75.351 104.222 75.1973 104.02 74.9141L99.2589 68.207C98.9312 67.7418 99.0404 67.0946 99.5097 66.7669C99.9749 66.4352 100.622 66.5444 100.954 67.0137L105.715 73.7208C106.043 74.186 105.934 74.8292 105.464 75.1609C105.282 75.2904 105.076 75.351 104.866 75.351Z" fill="#030468"/>
<path d="M91.3305 75.3504H87.5846C87.0101 75.3504 86.5449 74.8852 86.5449 74.3148V67.6077C86.5449 67.0373 87.0101 66.5762 87.5846 66.5762C88.155 66.5762 88.6202 67.0373 88.6202 67.6077V73.2833H91.3305C91.905 73.2833 92.3702 73.7445 92.3702 74.3148C92.3702 74.8852 91.905 75.3504 91.3305 75.3504Z" fill="#030468"/>
<path d="M60.0108 75.5979C58.5424 75.5979 57.2398 74.9911 56.6128 74.0162C56.3053 73.5348 56.4469 72.8956 56.9283 72.5882C57.4137 72.2807 58.0529 72.4223 58.3644 72.9037C58.5626 73.2111 59.1937 73.5267 60.0108 73.5267C61.5763 73.5267 61.6977 73.1262 61.7139 72.8188C61.5763 72.6448 61.0181 72.3293 60.3183 72.1513C57.9032 71.5485 56.6815 70.5453 56.6815 69.1699C56.6815 67.576 58.3401 66.3301 60.4598 66.3301C61.3903 66.3301 62.2802 66.5809 62.9679 67.0299C63.4453 67.3454 63.5747 67.9887 63.2592 68.462C62.9437 68.9393 62.3005 69.0728 61.8231 68.7573C61.4793 68.5307 60.9817 68.3972 60.4598 68.3972C59.404 68.3972 58.7568 68.8988 58.7568 69.1699C58.7568 69.2467 59.1168 69.72 60.8239 70.1488C61.5197 70.3228 63.7891 71.0226 63.7891 72.7581C63.7891 72.7621 63.7891 72.7662 63.7891 72.7702C63.7729 74.093 63.0488 74.7686 62.4461 75.1003C61.8433 75.4361 61.0464 75.5979 60.0108 75.5979Z" fill="#030468"/>
<mask id="mask0_195_2389" style="mask-type:luminance" maskUnits="userSpaceOnUse" x="39" y="31" width="80" height="80">
<path d="M39 31.0645H119V110.866H39V31.0645Z" fill="white"/>
</mask>
<g mask="url(#mask0_195_2389)">
<path d="M78.9922 110.837C68.3085 110.837 58.264 106.691 50.7114 99.1583C43.1548 91.626 38.9962 81.6138 38.9962 70.9625C38.9962 60.3113 43.1548 50.2991 50.7114 42.7668C58.264 35.2384 68.3085 31.088 78.9922 31.088C89.6758 31.088 99.7203 35.2384 107.277 42.7668C114.83 50.2991 118.992 60.3113 118.992 70.9625C118.992 81.6138 114.83 91.626 107.277 99.1583C99.7203 106.691 89.6758 110.837 78.9922 110.837ZM78.9922 33.1591C68.8627 33.1591 59.3401 37.0912 52.1758 44.2312C45.0156 51.3711 41.0715 60.8655 41.0715 70.9625C41.0715 81.0637 45.0156 90.558 52.1758 97.698C59.3401 104.838 68.8627 108.77 78.9922 108.77C89.1216 108.77 98.6443 104.838 105.809 97.698C112.973 90.558 116.917 81.0637 116.917 70.9625C116.917 60.8655 112.973 51.3711 105.809 44.2312C98.6443 37.0912 89.1216 33.1591 78.9922 33.1591Z" fill="#030468"/>
</g>
<path d="M62.9764 35.5493L58.0168 26.9854L51.2773 30.8648L56.2409 39.4328C58.3405 37.9279 60.5937 36.6213 62.9723 35.5493H62.9764Z" fill="#EA477C"/>
<path d="M101.746 39.4329L106.706 30.865L99.9702 26.9855L95.0107 35.5495C97.3933 36.6215 99.6466 37.9281 101.746 39.4329Z" fill="#EA477C"/>
<path d="M56.2415 40.4682C56.1687 40.4682 56.0959 40.4601 56.0231 40.4439C55.7359 40.3833 55.4891 40.2053 55.3435 39.9504L50.3799 31.3825C50.0927 30.8889 50.2626 30.2538 50.7601 29.9706L57.4996 26.0912C57.7383 25.9537 58.0215 25.9172 58.2844 25.986C58.5514 26.0588 58.7779 26.2328 58.9155 26.4715L63.875 35.0313C64.0207 35.2821 64.053 35.5855 63.964 35.8647C63.871 36.1438 63.6687 36.3703 63.4017 36.4917C61.108 37.5232 58.9034 38.7935 56.8483 40.274C56.6703 40.3994 56.4559 40.4682 56.2415 40.4682ZM52.6979 31.2449L56.5733 37.9399C58.1509 36.8719 59.8055 35.9172 61.5126 35.088L57.6372 28.4011L52.6979 31.2449Z" fill="#030468"/>
<path d="M78.9922 32.0741C80.3069 32.0741 81.6055 32.155 82.8838 32.3168V19.9462H75.1047V32.3168C76.383 32.159 77.6815 32.0741 78.9922 32.0741Z" fill="#A57EF6"/>
<path d="M82.8832 33.3487C82.8387 33.3487 82.7983 33.3487 82.7538 33.3406C81.5078 33.1869 80.2416 33.11 78.9916 33.11C77.7457 33.11 76.4795 33.1869 75.2295 33.3406C74.9342 33.377 74.6389 33.288 74.4164 33.0898C74.1939 32.8956 74.0645 32.6125 74.0645 32.3171V19.9466C74.0645 19.3762 74.5297 18.915 75.1041 18.915H82.8832C83.4577 18.915 83.9188 19.3762 83.9188 19.9466V32.3171C83.9188 32.6125 83.7934 32.8956 83.5709 33.0898C83.3808 33.2597 83.134 33.3487 82.8832 33.3487ZM78.9916 31.0429C79.9382 31.0429 80.8929 31.0833 81.8476 31.1683V20.9822H76.1397V31.1683C77.0903 31.0833 78.045 31.0429 78.9916 31.0429Z" fill="#030468"/>
<path d="M101.747 40.4682C101.529 40.4682 101.319 40.3994 101.141 40.274C99.0816 38.7935 96.8769 37.5232 94.5832 36.4917C94.3162 36.3703 94.1139 36.1438 94.0249 35.8647C93.9359 35.5855 93.9683 35.2821 94.1139 35.0313L99.0694 26.4715C99.211 26.2328 99.4376 26.0588 99.7005 25.986C99.9675 25.9172 100.251 25.9537 100.489 26.0912L107.229 29.9706C107.722 30.2538 107.892 30.8889 107.605 31.3825L102.645 39.9504C102.5 40.2053 102.249 40.3833 101.962 40.4439C101.893 40.4601 101.82 40.4682 101.747 40.4682ZM96.4764 35.088C98.1795 35.9172 99.834 36.8719 101.412 37.9399L105.291 31.2449L100.348 28.4011L96.4764 35.088Z" fill="#030468"/>
<path d="M69.1182 14.0527H88.8714V19.9467H69.1182V14.0527Z" fill="#EA477C"/>
<mask id="mask1_195_2389" style="mask-type:luminance" maskUnits="userSpaceOnUse" x="67" y="13" width="24" height="9">
<path d="M67.2863 13H90.0694V21.7419H67.2863V13Z" fill="white"/>
</mask>
<g mask="url(#mask1_195_2389)">
<path d="M88.8702 20.9826H69.1169C68.5425 20.9826 68.0773 20.5174 68.0773 19.9471V14.053C68.0773 13.4826 68.5425 13.0215 69.1169 13.0215H88.8702C89.4446 13.0215 89.9058 13.4826 89.9058 14.053V19.9471C89.9058 20.5174 89.4446 20.9826 88.8702 20.9826ZM70.1525 18.9155H87.8346V15.0886H70.1525V18.9155Z" fill="#030468"/>
</g>
<path d="M78.9917 44.0488C78.4213 44.0488 77.9561 43.5876 77.9561 43.0172V39.4331C77.9561 38.8627 78.4213 38.3975 78.9917 38.3975C79.5661 38.3975 80.0313 38.8627 80.0313 39.4331V43.0172C80.0313 43.5876 79.5661 44.0488 78.9917 44.0488Z" fill="#030468"/>
<path d="M64.9754 47.7951C64.6194 47.7951 64.2715 47.609 64.0774 47.2773L62.2813 44.1745C61.994 43.681 62.1639 43.0499 62.6615 42.7627C63.155 42.4755 63.7902 42.6454 64.0774 43.143L65.8735 46.2417C66.1607 46.7392 65.9908 47.3703 65.4932 47.6575C65.3314 47.7506 65.1534 47.7951 64.9754 47.7951Z" fill="#030468"/>
<path d="M54.7121 58.0246C54.5382 58.0246 54.3602 57.9801 54.1943 57.883L51.0835 56.095C50.59 55.8077 50.416 55.1767 50.7032 54.6791C50.9904 54.1856 51.6256 54.0157 52.1231 54.3029L55.234 56.095C55.7275 56.3781 55.9014 57.0132 55.6142 57.5068C55.4201 57.8385 55.0722 58.0246 54.7121 58.0246Z" fill="#030468"/>
<path d="M51.6052 87.762C51.2452 87.762 50.8973 87.5759 50.7031 87.2442C50.4159 86.7507 50.5858 86.1196 51.0834 85.8324L54.1942 84.0403C54.6918 83.7571 55.3269 83.927 55.6141 84.4206C55.8973 84.9141 55.7274 85.5452 55.2338 85.8324L52.123 87.6244C51.9571 87.7175 51.7792 87.762 51.6052 87.762Z" fill="#030468"/>
<path d="M63.1793 99.3029C63.0013 99.3029 62.8233 99.2584 62.6615 99.1653C62.1639 98.8781 61.994 98.2471 62.2813 97.7495L64.0774 94.6508C64.3646 94.1532 64.9997 93.9833 65.4932 94.2705C65.9908 94.5577 66.1607 95.1888 65.8735 95.6823L64.0774 98.7851C63.8872 99.1168 63.5353 99.3029 63.1793 99.3029Z" fill="#030468"/>
<path d="M78.9917 103.527C78.4213 103.527 77.9561 103.066 77.9561 102.496V98.9116C77.9561 98.3412 78.4213 97.876 78.9917 97.876C79.5661 97.876 80.0313 98.3412 80.0313 98.9116V102.496C80.0313 103.066 79.5661 103.527 78.9917 103.527Z" fill="#030468"/>
<path d="M94.8086 99.3029C94.4485 99.3029 94.1007 99.1168 93.9065 98.7851L92.1104 95.6823C91.8231 95.1888 91.993 94.5577 92.4906 94.2705C92.9882 93.9833 93.6233 94.1532 93.9065 94.6508L95.7026 97.7495C95.9898 98.2471 95.8199 98.8781 95.3264 99.1653C95.1605 99.2584 94.9825 99.3029 94.8086 99.3029Z" fill="#030468"/>
<path d="M106.383 87.762C106.205 87.762 106.027 87.7175 105.865 87.6244L102.754 85.8324C102.257 85.5452 102.087 84.9141 102.374 84.4206C102.661 83.927 103.292 83.7571 103.79 84.0403L106.901 85.8324C107.398 86.1196 107.568 86.7507 107.281 87.2442C107.091 87.5759 106.743 87.762 106.383 87.762Z" fill="#030468"/>
<path d="M103.272 58.0246C102.916 58.0246 102.564 57.8385 102.374 57.5068C102.087 57.0132 102.257 56.3781 102.754 56.095L105.865 54.3029C106.363 54.0157 106.994 54.1856 107.281 54.6791C107.568 55.1767 107.398 55.8077 106.901 56.095L103.79 57.883C103.628 57.9801 103.45 58.0246 103.272 58.0246Z" fill="#030468"/>
<path d="M93.0084 47.7951C92.8345 47.7951 92.6524 47.7506 92.4906 47.6575C91.993 47.3703 91.8231 46.7392 92.1104 46.2417L93.9065 43.143C94.1937 42.6454 94.8288 42.4755 95.3264 42.7627C95.8199 43.0499 95.9898 43.681 95.7066 44.1745L93.9065 47.2773C93.7163 47.609 93.3684 47.7951 93.0084 47.7951Z" fill="#030468"/>
<mask id="mask2_195_2389" style="mask-type:luminance" maskUnits="userSpaceOnUse" x="39" y="60" width="80" height="22">
<path d="M39 60.0587H119V81.8062H39V60.0587Z" fill="white"/>
</mask>
<g mask="url(#mask2_195_2389)">
<path d="M116.731 81.6844H41.2536C40.7803 81.6844 40.3677 81.3648 40.2504 80.9077C39.417 77.6755 38.9963 74.33 38.9963 70.9603C38.9963 67.5946 39.417 64.2491 40.2504 61.0128C40.3677 60.5557 40.7803 60.2361 41.2536 60.2361H116.731C117.204 60.2361 117.617 60.5557 117.738 61.0128C118.568 64.2491 118.992 67.5946 118.992 70.9603C118.992 74.33 118.568 77.6755 117.738 80.9077C117.617 81.3648 117.204 81.6844 116.731 81.6844ZM42.0707 79.6172H115.918C116.581 76.7936 116.917 73.885 116.917 70.9603C116.917 68.0355 116.581 65.131 115.918 62.3073H42.0707C41.4073 65.131 41.0716 68.0355 41.0716 70.9603C41.0716 73.885 41.4073 76.7936 42.0707 79.6172Z" fill="#030468"/>
</g>
<path d="M109.097 62.3082H48.8908C48.559 62.3082 48.2476 62.1504 48.0493 61.8834C47.8552 61.6124 47.7985 61.2685 47.9037 60.957C50.0073 54.4522 54.0445 48.8535 59.5825 44.7677C65.2338 40.601 71.945 38.4004 78.9919 38.4004C86.0429 38.4004 92.754 40.601 98.4013 44.7677C103.939 48.8535 107.981 54.4522 110.084 60.957C110.185 61.2685 110.129 61.6124 109.934 61.8834C109.74 62.1504 109.429 62.3082 109.097 62.3082ZM50.3511 60.237H107.637C105.566 54.7232 101.965 49.974 97.1675 46.4303C91.8802 42.5306 85.5938 40.4675 78.9919 40.4675C72.394 40.4675 66.1076 42.5306 60.8163 46.4303C56.0186 49.974 52.4223 54.7232 50.3511 60.237Z" fill="#030468"/>
<path d="M78.9919 103.526C71.945 103.526 65.2338 101.325 59.5825 97.1546C54.0485 93.0688 50.0073 87.4742 47.9037 80.9693C47.7985 80.6538 47.8552 80.3099 48.0493 80.0429C48.2476 79.7759 48.559 79.6182 48.8908 79.6182H109.097C109.429 79.6182 109.74 79.7759 109.934 80.0429C110.129 80.3099 110.185 80.6538 110.084 80.9693C107.981 87.4742 103.939 93.0688 98.4013 97.1546C92.754 101.325 86.0429 103.526 78.9919 103.526ZM50.3511 81.6853C52.4223 87.1991 56.0186 91.9523 60.8163 95.4919C66.1076 99.3957 72.394 101.459 78.9919 101.459C85.5938 101.459 91.8802 99.3957 97.1675 95.4919C101.965 91.9523 105.566 87.1991 107.637 81.6853H50.3511Z" fill="#030468"/>
</svg>
