<svg width="158" height="124" viewBox="0 0 158 124" fill="none" xmlns="http://www.w3.org/2000/svg">
<path d="M98.3373 49.8384C97.9573 49.0327 97.4071 48.2924 96.6669 47.7946C95.9267 47.2935 94.9899 47.0577 94.1187 47.2575C92.6088 47.6046 91.6262 49.2554 91.7638 50.7915C91.9013 52.3276 92.9756 53.6737 94.3152 54.45C95.6548 55.2295 97.2269 55.5079 98.7761 55.593C98.7401 53.5689 99.2019 51.6692 98.3373 49.8384Z" fill="#F89F82"/>
<path d="M96.9558 51.5123C96.4383 50.8802 95.7734 50.343 94.9906 50.0974C94.4535 49.9303 93.7689 49.9467 93.4381 50.402C93.1434 50.8114 93.2613 51.3813 93.4643 51.8431C94.0277 53.1401 95.1609 54.1784 96.5038 54.6336C97.1752 54.8629 98.2855 54.8825 98.2724 53.9393C98.2626 53.1532 97.4209 52.0822 96.9558 51.5123Z" fill="#CC654F"/>
<path d="M95.3832 51.3822C94.7576 50.999 94.0797 50.714 93.3525 50.5535C93.3755 50.5011 93.4017 50.452 93.4377 50.4029C93.5884 50.1998 93.8078 50.0819 94.0534 50.0295C94.1583 50.0098 94.2631 50 94.3711 50C94.5808 50 94.7969 50.036 94.9902 50.0983C94.9935 50.0983 94.9967 50.1015 95 50.1015C95.1474 50.5208 95.2784 50.9466 95.3832 51.3822Z" fill="#C55043"/>
<path d="M96.7788 55.3473C96.4349 55.2786 96.0943 55.1934 95.7602 55.0853C95.7733 54.8299 95.7766 54.5744 95.77 54.3189C96.0058 54.4434 96.2515 54.5482 96.5037 54.6333C96.5233 54.6432 96.543 54.6497 96.5659 54.6563C96.6347 54.8855 96.7035 55.1181 96.7788 55.3473ZM95.6226 50.3689C95.4261 50.2608 95.2165 50.1691 95.0003 50.1004C94.663 49.1538 94.2208 48.2466 93.6738 47.4048C93.8179 47.3459 93.9653 47.2934 94.1193 47.2574C94.1979 47.2378 94.2732 47.2247 94.3518 47.2148C94.6859 47.9649 95.0625 48.6953 95.4752 49.406C95.5113 49.6385 95.5473 49.8744 95.5833 50.1102C95.5964 50.1953 95.6095 50.2838 95.6226 50.3689Z" fill="#F68665"/>
<path d="M96.5662 54.6561C96.5432 54.6496 96.5236 54.643 96.5007 54.6365C96.2517 54.548 96.0061 54.4432 95.7703 54.3188C95.7506 53.3296 95.6229 52.3405 95.3838 51.3809C95.5476 51.4791 95.7048 51.5839 95.8587 51.6953C96.0519 52.6942 96.2812 53.6834 96.5662 54.6561Z" fill="#C0463D"/>
<path d="M95.8591 51.6956C95.7052 51.5843 95.5479 51.4795 95.3842 51.3812C95.2794 50.9489 95.1484 50.5198 95.001 50.1006C95.2171 50.1694 95.4268 50.2611 95.6233 50.3692C95.6953 50.8146 95.7739 51.2568 95.8591 51.6956Z" fill="#B43934"/>
<path d="M92.5801 40.6786C92.9633 44.134 94.1784 47.4977 96.0977 50.4061C97.4308 47.3339 97.9712 43.9276 97.6568 40.5967C95.9438 40.8489 94.2046 41.2779 92.5801 40.6786Z" fill="#542414"/>
<path d="M135.974 92.4213C135.816 91.1702 135.643 89.9223 135.44 88.681C135.269 87.6427 135.099 86.6012 134.85 85.5793L134.84 85.5498C134.84 85.5498 131.778 85.766 128.555 86.0018C128.463 86.0083 128.375 86.0149 128.287 86.0214C126.174 86.1787 124.025 86.3391 122.656 86.4505C121.323 86.5586 119.551 86.5029 117.868 86.3915C117.786 86.385 117.707 86.3817 117.629 86.3752C117.134 86.3424 116.65 86.2998 116.191 86.2605C116.047 86.2474 115.903 86.2343 115.762 86.2212C115.755 86.2212 115.752 86.2212 115.749 86.2212C115.585 86.2049 115.428 86.1918 115.274 86.1787C113.708 86.0247 112.585 85.8773 112.585 85.8773C112.585 85.8773 112.248 87.8163 111.848 90.7739C111.818 90.9868 111.789 91.2095 111.76 91.4322C111.694 91.9497 111.625 92.4901 111.556 93.0535C106.552 94.0459 102.766 95.0546 102.766 95.0546L103.355 102.765L121.025 103.328H121.032L122.941 103.354C124.337 103.276 125.817 103.181 126.544 103.141C126.705 103.125 126.862 103.112 127.019 103.099C127.307 103.073 127.595 103.043 127.884 103.017C135.561 102.329 136.157 93.8493 135.974 92.4213Z" fill="#8A61B7"/>
<path d="M122.941 103.354L121.032 103.328H121.025L115.624 103.157C115.706 103.069 115.788 102.984 115.87 102.895C115.88 102.886 115.886 102.876 115.899 102.866C116.024 102.728 116.152 102.594 116.279 102.457C116.322 102.414 116.361 102.368 116.404 102.326C116.433 102.296 116.46 102.267 116.489 102.237C116.532 102.191 116.574 102.145 116.617 102.1C116.725 101.988 116.833 101.874 116.941 101.762C116.941 101.759 116.941 101.759 116.944 101.759C116.948 101.752 116.954 101.749 116.957 101.743C117.101 101.592 117.246 101.441 117.393 101.287L118.13 101.759C118.13 101.759 119.65 99.9968 120.472 99.9575C120.475 99.9575 120.482 99.9575 120.488 99.9575H120.491H120.495C120.498 99.9575 120.498 99.9575 120.498 99.9575C120.501 99.9575 120.501 99.9575 120.501 99.9575H120.505C120.508 99.9575 120.508 99.9575 120.508 99.9575C120.511 99.9575 120.511 99.9575 120.511 99.9575H120.514C120.518 99.9575 120.518 99.9575 120.518 99.9575C120.521 99.9575 120.521 99.9575 120.521 99.9575C120.524 99.9575 120.524 99.9575 120.524 99.9575C120.527 99.9575 120.527 99.9575 120.527 99.9575H120.531H120.534C120.534 99.9608 120.534 99.9608 120.537 99.9608H120.541C120.544 99.9608 120.544 99.9608 120.544 99.9608C120.547 99.9608 120.547 99.9608 120.547 99.9608C121.333 100.059 123.806 101.972 124.848 102.614C125.034 102.814 125.218 103.01 125.404 103.21C124.677 103.252 123.793 103.308 122.941 103.354ZM110.528 102.994L103.355 102.764L103.286 101.844C103.742 101.88 104.203 101.916 104.665 101.955C104.737 101.962 104.809 101.969 104.878 101.975C104.908 101.978 104.937 101.978 104.967 101.982C104.963 100.478 104.917 97.8548 104.849 96.0698C104.59 96.132 104.334 96.1942 104.082 96.2565C104.033 96.2663 103.987 96.2794 103.941 96.2892C103.65 96.358 103.365 96.4268 103.077 96.4988C103.031 96.5087 102.985 96.5185 102.939 96.5316C102.92 96.5349 102.9 96.5414 102.88 96.5447L102.766 95.0544C102.766 95.0544 106.552 94.0457 111.556 93.0533C111.625 92.4899 111.694 91.9495 111.76 91.432C111.789 91.2093 111.818 90.9866 111.848 90.7737C111.868 90.6328 111.884 90.4985 111.904 90.3643C112.722 90.6001 114.059 90.9473 115.723 91.2486C113.24 93.3873 111.746 97.5797 111.717 97.6648L112.772 98.3395C112.736 98.4149 112.7 98.4869 112.667 98.5623C112.657 98.5786 112.65 98.5983 112.641 98.6147C112.523 98.857 112.408 99.0961 112.297 99.3352C112.293 99.3385 112.29 99.3451 112.29 99.3516C112.156 99.6235 112.028 99.8953 111.897 100.167C111.871 100.223 111.845 100.279 111.818 100.334C111.763 100.449 111.71 100.56 111.655 100.672C111.272 101.471 110.895 102.247 110.528 102.994Z" fill="#7A55B0"/>
<path d="M34.9252 104.834C34.9744 104.7 35.0268 104.549 35.0824 104.379C35.1054 104.32 35.125 104.261 35.1479 104.195C35.1578 104.166 35.1676 104.133 35.1774 104.104C35.2102 104.012 35.2397 103.92 35.2724 103.825C35.1414 104.218 35.0235 104.562 34.9252 104.834ZM29.7962 103.167C31.5189 104.739 33.8313 105.519 36.124 105.738C39.3108 106.039 42.383 106.141 45.5175 105.355C47.9543 104.742 49.8768 102.977 51.6095 101.244C52.4054 100.448 53.2143 99.6623 54.0725 98.932C54.5015 98.5684 55.2319 97.7889 55.8542 97.7889C56.2145 97.7889 57.0923 98.5258 58.1043 99.5182C59.385 98.1885 60.6263 96.8161 61.8349 95.411C60.4953 92.6402 58.8183 89.902 57.3314 89.6433C55.7167 89.3649 52.6739 89.8758 50.1487 90.4228C49.6607 88.605 49.153 86.82 49.153 86.82L28.4795 85.3068C28.1585 86.6235 27.9129 87.9631 27.6934 89.2994C26.9434 93.8717 25.9117 99.623 29.7962 103.167Z" fill="#F5BF30"/>
<path d="M37.1523 95.4206C35.5244 95.4206 33.8672 95.2471 32.164 94.8376C30.3397 94.4348 28.6791 93.7994 27.1496 92.9806C27.1758 92.7447 27.2052 92.5056 27.238 92.2698C29.9237 93.1607 32.9796 93.6684 36.4579 93.6684C37.7516 93.6684 39.1076 93.5963 40.5225 93.4522C44.5511 93.033 47.0141 90.7501 52.3593 90.095C52.3561 90.0852 52.3495 90.0492 52.3364 89.9902C53.735 89.7446 55.1237 89.5677 56.2274 89.5645C56.2307 89.5645 56.234 89.5645 56.2373 89.5645C56.6434 89.5645 57.0102 89.5907 57.3247 89.6431C57.3279 89.6431 57.3312 89.6431 57.3312 89.6431C57.3345 89.6463 57.3345 89.6463 57.3378 89.6463C57.341 89.6463 57.341 89.6463 57.341 89.6463H57.3443C57.3443 89.6463 57.3443 89.6463 57.3476 89.6463C57.3509 89.6463 57.3509 89.6496 57.3509 89.6496C57.3541 89.6496 57.3541 89.6496 57.3541 89.6496H57.3574C57.7865 89.7315 58.2352 90.0197 58.6806 90.4553C58.5627 90.4521 58.4415 90.4488 58.3236 90.4488C57.7111 90.4488 57.0921 90.5176 56.4731 90.6715C49.9979 92.4762 43.8371 95.4206 37.1523 95.4206Z" fill="#F5AD26"/>
<path d="M40.4141 70.9546C42.9721 69.6412 46.66 68.8945 49.1296 71.0693C49.4931 74.5181 50.1318 77.9965 51.0096 81.4093C53.5446 81.6156 56.0764 81.7008 58.5689 81.6517C59.0995 80.9901 59.7447 80.4234 60.4718 79.9813C60.6585 79.8699 60.914 79.8175 61.0614 79.9846C61.4184 80.4005 60.6946 81.1899 60.426 81.4748C61.0254 81.275 61.6444 81.1342 62.2732 81.0523C62.4599 81.0261 62.6663 81.0097 62.8235 81.1178C63.0658 81.2816 63.3573 81.7827 62.0865 82.5622C62.5156 82.5098 63.5277 82.4312 63.6816 82.9094C63.8912 83.5612 62.4599 83.8461 61.9097 83.7872C62.3125 83.9411 63.5277 84.5437 62.9676 84.999C62.8661 85.0842 62.735 85.1235 62.6073 85.1333C61.3922 85.2021 60.141 84.8942 59.0242 84.3734C56.155 85.2283 49.9222 86.2469 47.5181 86.6268C47.0465 86.6989 46.5683 86.653 46.1261 86.486L46.1327 86.4762C44.3116 85.5656 41.6783 76.1852 40.4141 70.9546Z" fill="#F1866E"/>
<path d="M43.745 82.8641C43.745 82.8641 44.161 82.7462 45.0715 82.4056C45.8739 82.1042 47.0628 81.6359 48.6939 80.9317C50.122 80.3127 50.9801 79.8017 51.5107 79.4021C52.2804 78.8257 52.3786 78.4818 52.5391 78.3835C52.6996 78.2853 51.717 73.6115 49.5553 70.2281C49.0542 69.4453 48.4909 68.7313 47.862 68.1581C46.6207 67.0249 45.1304 66.4452 43.3847 66.9856C42.2842 67.3295 41.5571 67.9944 41.115 68.8656C40.997 69.0916 40.9021 69.3307 40.8235 69.5829C39.366 74.2141 43.745 82.8641 43.745 82.8641Z" fill="#5BB3B3"/>
<path d="M26.6288 92.0602C30.4412 93.4325 35.0135 94.0254 40.5225 93.4522C44.5511 93.0329 47.0141 90.7501 52.3593 90.095C52.3266 89.9116 50.1813 80.338 49.7621 75.9753C49.5393 73.627 49.3756 68.8844 47.0141 67.5022C44.2203 65.8646 42.1143 65.8613 40.1753 65.7532C35.6292 65.501 31.7055 70.5515 29.0132 81.0913C28.594 82.7257 26.75 90.5372 26.6288 92.0602Z" fill="#9FD8DA"/>
<path d="M42.4586 65.3834C41.8593 65.2393 41.2402 65.1738 40.6179 65.2098C39.9793 65.2491 38.2237 65.4456 38.8165 66.4839C39.3668 67.4435 40.7915 67.7514 41.8036 67.8595C42.4128 67.925 43.0613 68.0003 43.6836 67.9348C44.1782 67.8824 45.2492 67.6531 45.3704 67.0505C45.426 66.7852 45.1673 66.569 44.9348 66.4282C44.1683 65.9664 43.3331 65.593 42.4586 65.3834Z" fill="#68BBC0"/>
<path d="M39.4911 66.2903C40.8798 67.3351 42.7729 67.6855 44.4433 67.2041C44.5055 65.8121 44.5317 64.4659 44.5809 63.0903C44.5907 62.8087 44.6005 62.5204 44.6136 62.2355C43.3395 61.8424 42.0916 61.6459 40.7586 61.5771C40.6997 61.7999 40.6374 62.0226 40.5785 62.2453C40.2149 63.5914 39.8514 64.9376 39.4878 66.2837C39.4747 66.2935 39.4813 66.2903 39.4911 66.287C39.4976 66.2837 39.5075 66.2804 39.4911 66.2903Z" fill="#F89F82"/>
<path d="M44.4661 66.6081C42.8416 66.3133 41.2793 65.7565 39.8611 64.905C39.9888 64.4333 40.1166 63.9617 40.241 63.49C40.3033 63.2673 40.3622 63.0446 40.4245 62.8186C41.7051 63.6505 43.084 64.3285 44.5251 64.8263C44.5087 65.4192 44.4891 66.0087 44.4661 66.6081Z" fill="#F57F5B"/>
<path d="M64.321 101.392L62.8405 104.664C62.8405 104.664 60.181 101.556 58.1045 99.5183C59.3851 98.1886 60.6265 96.8162 61.835 95.4111C63.2729 98.3851 64.321 101.392 64.321 101.392Z" fill="#F89F82"/>
<path d="M63.0363 105.145C63.2558 105.381 63.485 105.613 63.7274 105.836C65.6533 104.408 67.5562 102.918 69.3543 101.333C69.0694 100.887 68.7812 100.442 68.4078 100.075C68.0311 99.7081 67.5529 99.4199 67.0289 99.3675C66.4524 99.3053 65.8727 99.5378 65.4043 99.8817C65.2668 99.9865 65.1325 100.098 65.0113 100.219C64.7165 100.497 64.4545 100.815 64.199 101.13C63.4457 102.047 62.6957 102.964 61.9424 103.878C62.2961 104.32 62.6531 104.742 63.0363 105.145Z" fill="#EE2D43"/>
<path d="M63.0371 105.145C63.2566 105.381 63.4858 105.613 63.7282 105.836C65.6541 104.408 67.557 102.918 69.3551 101.333C69.0702 100.887 68.7819 100.442 68.4086 100.075C68.0319 99.7081 67.5537 99.4199 67.0297 99.3675C66.4532 99.3053 65.8735 99.5378 65.4051 99.8817C65.2676 99.9865 65.1333 100.098 65.0121 100.219C65.4117 100.923 65.9193 101.565 66.5122 102.122C65.392 103.17 64.2293 104.182 63.0371 105.145Z" fill="#DBDCD9"/>
<path d="M64.5374 100.304C64.5276 100.167 64.7405 100.131 64.7962 100.249C64.9599 100.589 65.127 100.91 65.3301 101.228C65.4414 101.408 65.163 101.592 65.0255 101.438C64.7405 101.127 64.5669 100.727 64.5374 100.304Z" fill="#3B3D3F"/>
<path d="M64.2194 101.316C64.1506 101.159 64.0557 100.939 64.1244 100.772C64.1572 100.697 64.2424 100.651 64.321 100.7C64.4618 100.788 64.524 100.978 64.6026 101.119C64.6943 101.286 64.809 101.437 64.9072 101.597C65.0382 101.817 64.7107 102.033 64.5437 101.853C64.3996 101.696 64.3013 101.509 64.2194 101.316Z" fill="#3B3D3F"/>
<path d="M49.7621 75.9749C49.7621 75.9585 49.7588 75.9422 49.7588 75.9291C49.7588 75.9258 49.7588 75.9258 49.7588 75.9258C49.7588 75.9422 49.7621 75.9585 49.7621 75.9749Z" fill="#4EA1A6"/>
<path d="M36.458 93.6679C32.9797 93.6679 29.9238 93.1603 27.2381 92.2694H27.2348C27.0318 92.2006 26.8287 92.1318 26.6289 92.0598C26.6289 92.0565 26.6289 92.0565 26.6289 92.0565C26.6289 92.0565 26.6289 92.0565 26.6289 92.0532C26.6289 92.0499 26.6289 92.0499 26.6289 92.0499C26.6289 92.0467 26.6289 92.0467 26.6289 92.0467C26.6289 92.0434 26.6289 92.0434 26.6289 92.0434V92.0401V92.0368C26.6322 92.0368 26.6322 92.0336 26.6322 92.0336C26.6322 92.0336 26.6322 92.0336 26.6322 92.0303C26.6682 91.6078 26.8254 90.7464 27.0449 89.6787C27.7818 89.7442 28.522 89.7769 29.2655 89.7769C31.7711 89.7769 34.3127 89.397 36.8314 88.588C38.5345 88.077 40.0837 87.3696 41.479 86.4951C41.4823 86.4984 41.4855 86.4984 41.4888 86.5016L41.4823 86.5115C41.4855 86.5115 41.4888 86.5147 41.4954 86.5147C41.4954 86.5147 41.4986 86.5147 41.5019 86.518C41.7508 86.5901 42.0096 86.6261 42.2683 86.6261C42.4681 86.6261 42.6712 86.6064 42.8677 86.5606C42.871 86.5606 42.8743 86.5606 42.8775 86.5573C43.0642 86.518 43.2706 86.4689 43.4998 86.4198C45.3667 85.994 48.547 85.2439 51.1869 84.5037C51.2884 85.0114 51.3867 85.4994 51.4817 85.9678C51.783 87.422 52.045 88.6469 52.2055 89.3773C52.2972 89.8097 52.3529 90.0651 52.3594 90.0946C47.0142 90.7497 44.5512 93.0325 40.5226 93.4518C39.1077 93.5959 37.7517 93.6679 36.458 93.6679ZM47.535 81.1335C47.4203 81.1335 47.309 81.1335 47.1943 81.1335C47.1518 81.1335 47.1059 81.1335 47.0633 81.1335C48.1737 79.5384 49.0711 77.7829 49.7589 75.9258C49.7589 75.9422 49.7622 75.9585 49.7622 75.9749C49.8702 77.0951 50.093 78.5624 50.3648 80.1247C50.4172 80.4358 50.4729 80.7503 50.5286 81.0647C49.5362 81.1105 48.5372 81.1302 47.535 81.1335Z" fill="#8FD2D5"/>
<path d="M27.8936 94.1333C28.5454 93.6813 29.3642 93.642 30.1143 93.4389C31.4211 92.6037 33.0718 92.2533 34.549 92.6136C37.0316 93.2195 38.6431 95.6628 39.6846 97.8114C39.7698 97.985 39.5241 98.1324 39.4193 97.9653C38.2206 96.046 37.1463 93.8516 34.8339 93.0655C33.7203 92.6889 32.4888 92.7675 31.3982 93.1834C30.3075 93.5994 29.5149 94.3625 28.6764 95.1421C28.5814 95.2272 28.4144 95.1159 28.4897 94.9979C28.755 94.6049 29.0793 94.2479 29.4428 93.9335C28.9548 94.0285 28.4635 94.1071 28.0148 94.3363C27.8772 94.4051 27.7692 94.2184 27.8936 94.1333Z" fill="#E4AB24"/>
<path d="M28.8203 95.0046C28.8203 95.0046 30.6021 92.2239 34.1918 92.8495C37.7815 93.4783 39.6451 98.1161 39.6451 98.1161L35.3971 100.517L28.8203 95.0046Z" fill="#F5BF30"/>
<path d="M35.2855 101.3C37.385 99.8719 39.3305 101.005 40.6078 102.741C40.0871 100.131 38.885 96.9733 36.1109 95.9056C31.0964 93.983 31.0964 101.883 33.3957 104.5C33.4055 104.51 33.4121 104.52 33.4219 104.529C33.6184 103.268 34.2866 102.066 35.2855 101.3Z" fill="#F5BF30"/>
<path d="M35.2855 101.3C34.2865 102.066 33.6184 103.268 33.4219 104.529C35.708 107.13 37.0967 108.348 37.0967 108.348L41.0009 106.589C41.0009 106.589 41.0238 104.844 40.6078 102.741C39.3305 101.005 37.385 99.8717 35.2855 101.3Z" fill="#F89F82"/>
<mask id="mask0_195_2153" style="mask-type:luminance" maskUnits="userSpaceOnUse" x="34" y="101" width="9" height="9">
<path d="M34.7383 101.997H42.2845V109.956H34.7383V101.997Z" fill="white"/>
</mask>
<g mask="url(#mask0_195_2153)">
<path d="M41.3719 107.781C41.4014 107.948 41.4243 108.115 41.444 108.282C41.4702 108.561 41.48 108.849 41.3719 109.104C41.2082 109.494 40.7922 109.733 40.373 109.799C39.3413 109.956 38.3161 109.402 37.5431 108.78C36.8357 108.207 36.2167 107.503 35.8662 106.664C35.5125 105.826 35.4437 104.85 35.7941 104.011C36.1413 103.173 36.9438 102.508 37.851 102.429C38.9122 102.338 39.8227 103.111 40.1863 104.047C40.6514 105.243 41.1558 106.5 41.3719 107.781Z" fill="#EE2D43"/>
</g>
<mask id="mask1_195_2153" style="mask-type:luminance" maskUnits="userSpaceOnUse" x="35" y="102" width="7" height="8">
<path d="M35.577 102.836H41.4463V109.957H35.577V102.836Z" fill="white"/>
</mask>
<g mask="url(#mask1_195_2153)">
<path d="M35.9308 105.557C35.9275 105.669 35.9308 105.783 35.9406 105.898C35.9734 106.265 36.0651 106.628 36.2059 106.966C36.2158 106.982 36.2223 107.002 36.2321 107.018C36.2911 107.152 36.3533 107.28 36.4254 107.405C36.599 107.712 36.8151 107.997 37.0542 108.259C37.1427 108.358 37.2377 108.453 37.3326 108.544C37.4669 108.675 37.611 108.797 37.7551 108.918C37.8698 109.009 37.9942 109.098 38.1187 109.186C38.2366 109.268 38.3578 109.344 38.4823 109.416C38.6591 109.517 38.8393 109.606 39.0292 109.678C39.157 109.727 39.2912 109.769 39.4255 109.805C39.7301 109.881 40.0478 109.904 40.3655 109.855C40.752 109.796 41.1319 109.576 41.2859 109.216C41.3809 108.99 41.3776 108.731 41.3514 108.485C41.3514 108.476 41.3514 108.469 41.3481 108.459C41.3383 108.371 41.3285 108.279 41.3186 108.191C41.3088 108.125 41.299 108.06 41.2859 107.994C41.263 107.866 41.24 107.735 41.2106 107.608C41.1909 107.506 41.1647 107.401 41.1385 107.3C41.0337 106.871 40.8961 106.445 40.7487 106.026C40.7127 105.924 40.6767 105.823 40.6407 105.721C40.4933 105.325 40.3393 104.935 40.1919 104.555C40.1887 104.542 40.1821 104.535 40.1788 104.522C40.1395 104.424 40.0937 104.329 40.0413 104.234C39.8972 103.982 39.7105 103.753 39.4943 103.563C39.4255 103.504 39.3502 103.448 39.2781 103.396C38.9211 103.157 38.4954 103.022 38.0401 103.062C37.2016 103.134 36.4647 103.749 36.1404 104.522C36.0061 104.85 35.9374 105.2 35.9308 105.557Z" fill="#DBDCD9"/>
</g>
<mask id="mask2_195_2153" style="mask-type:luminance" maskUnits="userSpaceOnUse" x="38" y="107" width="4" height="3">
<path d="M38.9308 107.866H41.4462V109.956H38.9308V107.866Z" fill="white"/>
</mask>
<g mask="url(#mask2_195_2153)">
<path d="M39.0287 109.678C39.1565 109.727 39.2907 109.769 39.425 109.805C40.0866 109.396 40.7286 108.954 41.3509 108.485C41.3509 108.476 41.3509 108.469 41.3476 108.459C41.3378 108.371 41.328 108.279 41.3181 108.191C40.5747 108.721 39.8115 109.212 39.0287 109.678Z" fill="#BBBDBB"/>
</g>
<path d="M38.1191 109.186C38.2371 109.268 38.3582 109.344 38.4827 109.416C39.426 108.869 40.3365 108.259 41.211 107.608C41.1913 107.506 41.1651 107.401 41.1389 107.3C40.1629 107.978 39.1541 108.6 38.1191 109.186Z" fill="#BBBDBB"/>
<path d="M37.0537 108.26C37.1421 108.358 37.2371 108.453 37.3321 108.545C38.521 107.779 39.6608 106.934 40.7482 106.026C40.7122 105.925 40.6762 105.823 40.6401 105.722C39.4872 106.632 38.2885 107.471 37.0537 108.26Z" fill="#BBBDBB"/>
<path d="M36.2323 107.018C36.2913 107.153 36.3535 107.28 36.4255 107.405C37.7258 106.514 38.977 105.541 40.179 104.523C40.1397 104.424 40.0939 104.329 40.0414 104.234C38.8034 105.21 37.5293 106.131 36.2323 107.018Z" fill="#BBBDBB"/>
<path d="M35.9309 105.558C35.9276 105.67 35.9309 105.784 35.9407 105.899C37.1657 105.178 38.3513 104.402 39.4944 103.564C39.4256 103.505 39.3503 103.449 39.2782 103.396C38.1941 104.166 37.0773 104.89 35.9309 105.558Z" fill="#BBBDBB"/>
<path d="M40.8143 102.689C40.3918 101.415 39.9628 100.144 39.5239 98.8764C39.4813 98.7552 39.2913 98.8043 39.3306 98.9288C39.6483 99.9605 39.9759 100.989 40.3067 102.017C39.3077 100.878 37.7159 100.281 36.206 100.675C34.7485 101.051 33.3926 102.437 33.2779 103.973C32.125 102.581 30.7854 101.271 29.4491 100.072C29.3443 99.9769 29.2002 100.121 29.2919 100.229C29.5605 100.54 29.8323 100.851 30.1042 101.166C29.8946 101.094 29.6784 101.041 29.4655 101.018C29.3509 101.005 29.3214 101.172 29.4098 101.221C29.9437 101.536 30.4677 101.857 30.9951 102.181C31.7516 103.033 32.5246 103.878 33.3238 104.674C33.5006 104.847 33.7299 104.628 33.648 104.435C33.9821 102.997 34.719 101.673 36.242 101.221C37.7683 100.769 39.4289 101.503 40.2477 102.826C40.3591 103 40.572 102.97 40.68 102.856C40.7652 102.856 40.8471 102.79 40.8143 102.689Z" fill="#E4AB24"/>
<path d="M58.1143 99.5284C58.111 99.5251 58.1045 99.5218 58.1045 99.5186C58.1078 99.5218 58.111 99.5251 58.1143 99.5284ZM62.0414 95.8404C62.0414 95.8404 62.0381 95.8404 62.0381 95.8371C62.0381 95.8404 62.0381 95.8404 62.0414 95.8404Z" fill="#C2C3C1"/>
<path d="M61.1276 102.715C60.6232 102.158 60.0566 101.536 59.4768 100.923C59.4768 100.923 59.4768 100.923 59.4768 100.92C59.4736 100.92 59.4703 100.917 59.4703 100.917C59.467 100.914 59.4637 100.907 59.4605 100.904C59.0117 100.432 58.563 99.9703 58.134 99.5478C58.134 99.5478 58.134 99.5478 58.1307 99.5478C58.1274 99.5445 58.1274 99.5413 58.1241 99.538C58.1209 99.5347 58.1176 99.5347 58.1176 99.5314C58.1143 99.5314 58.1143 99.5282 58.1143 99.5282C58.111 99.5249 58.1078 99.5216 58.1045 99.5183C59.3851 98.1886 60.6265 96.8162 61.835 95.4111C61.8383 95.4144 61.8416 95.421 61.8449 95.4275C61.8449 95.4308 61.8449 95.4341 61.8481 95.4341C61.8481 95.4406 61.8514 95.4439 61.8547 95.4472C61.8547 95.4504 61.858 95.457 61.858 95.4603C61.8612 95.4603 61.8612 95.4635 61.8612 95.4635C61.9136 95.5716 61.9628 95.6764 62.0119 95.7812C62.0152 95.7845 62.0152 95.7878 62.0184 95.7911C62.0184 95.7943 62.0184 95.7976 62.0217 95.8009C62.025 95.8042 62.025 95.8107 62.0283 95.814C62.0283 95.8173 62.0283 95.8173 62.0283 95.8173C62.0315 95.8238 62.0348 95.8336 62.0381 95.8369C62.0381 95.8402 62.0414 95.8402 62.0414 95.8402C62.1888 96.1546 62.3296 96.4658 62.4672 96.7736C61.4453 98.5554 61.0359 100.661 61.1276 102.715Z" fill="#F78F6E"/>
<path d="M121.727 71.6787C121.675 72.1372 121.544 72.5892 121.347 73.0379C120.197 73.9091 119.018 74.7378 117.813 75.5304C114.174 77.9246 110.309 79.9553 106.291 81.5766C105.921 81.7305 105.547 81.8779 105.171 82.0187C102.183 83.1651 99.1178 84.092 96.003 84.7831C95.3054 85.7525 94.3981 86.6107 93.337 87.1445C93.1699 87.2297 92.9767 87.2886 92.7965 87.2297C92.2135 87.043 92.9308 85.9949 93.1961 85.6739C92.7474 85.9949 91.3587 86.4403 91.2211 85.7689C91.1229 85.2809 92.04 84.8551 92.4395 84.6913C90.9526 84.6324 90.9591 84.0527 91.0901 83.7939C91.1753 83.6203 91.362 83.5352 91.5388 83.4631C92.1284 83.2338 92.7376 83.0537 93.3566 82.9358C92.9865 82.8179 91.9646 82.4805 92.0727 81.9467C92.1186 81.7272 92.3675 81.6486 92.5869 81.6552C93.4385 81.6879 94.2802 81.8681 95.0663 82.189C95.6853 81.8582 96.3011 81.5209 96.9168 81.1672C99.1604 79.8865 101.368 78.4749 103.503 76.9486C105.94 75.2062 108.282 73.3163 110.476 71.3053C111.439 70.4275 112.373 69.5268 113.27 68.6032C113.293 68.5836 113.313 68.5639 113.333 68.5443C113.336 68.5443 113.339 68.5443 113.342 68.5443C113.346 68.5443 113.349 68.5443 113.352 68.5443C116.356 68.3739 119.526 69.5792 121.727 71.6787Z" fill="#F89F82"/>
<path d="M94.3717 83.8424C94.3881 84.3796 94.3815 84.9921 93.9328 85.3687C93.8247 85.4604 93.9623 85.6144 94.0737 85.5325C94.6174 85.1427 94.6665 84.4844 94.6501 83.8686C94.6468 83.6885 94.3652 83.6623 94.3717 83.8424Z" fill="#CC654F"/>
<path d="M102.887 80.0729C102.828 80.0598 102.373 80.0533 101.652 80.0533C101.443 80.0533 101.217 80.0533 100.968 80.0533C100.981 79.6275 100.991 79.11 100.984 78.6744C101.833 78.1143 102.674 77.5411 103.503 76.9483C104.715 76.0803 105.904 75.1796 107.06 74.2429C107.545 75.1829 108.052 76.1066 108.593 77.0007C108.586 77.0072 108.576 77.0105 108.57 77.0171C108.265 77.1939 107.964 77.3741 107.663 77.5477C107.505 77.6361 107.355 77.7213 107.204 77.8097C106.965 77.944 106.729 78.075 106.49 78.206C106.336 78.2912 106.182 78.3763 106.028 78.4582C105.773 78.599 105.511 78.7399 105.252 78.8774C105.147 78.9298 105.042 78.9888 104.934 79.0445C104.682 79.1755 104.427 79.3065 104.171 79.4375C104.132 79.4572 104.096 79.4768 104.056 79.4965C103.866 79.5914 103.677 79.6864 103.49 79.7781C103.408 79.8207 103.329 79.86 103.251 79.896C103.13 79.9583 103.008 80.014 102.887 80.0729ZM113.27 68.6029C113.293 68.5832 113.312 68.5636 113.332 68.5439C113.335 68.5439 113.339 68.5439 113.342 68.5439C113.345 68.5439 113.348 68.5439 113.352 68.5439C113.352 68.5439 113.352 68.5439 113.355 68.5439C113.325 68.5636 113.299 68.5832 113.27 68.6029Z" fill="#F68665"/>
<path d="M121.275 69.0516C119.856 66.0187 116.62 66.1333 113.355 68.5439C113.325 68.5636 113.299 68.5832 113.273 68.6029C113.136 68.7044 112.998 68.8125 112.86 68.9239C111.698 69.8606 107.997 72.6216 106.726 73.5747C108.036 76.2048 109.516 78.7431 111.393 80.8884C111.947 80.6133 114.96 78.5335 115.562 78.2125C118.576 76.6077 120.541 74.8652 121.347 73.0376C121.543 72.5889 121.674 72.1369 121.727 71.6784C121.835 70.817 121.687 69.9392 121.275 69.0516Z" fill="#8EA229"/>
<path d="M121.275 69.0516C119.856 66.0187 116.62 66.1333 113.355 68.5439C113.325 68.5636 113.299 68.5832 113.273 68.6029C113.136 68.7044 112.998 68.8125 112.86 68.9239C111.698 69.8606 107.997 72.6216 106.726 73.5747C108.036 76.2048 109.516 78.7431 111.393 80.8884C111.947 80.6133 114.96 78.5335 115.562 78.2125C118.576 76.6077 120.541 74.8652 121.347 73.0376C121.543 72.5889 121.674 72.1369 121.727 71.6784C121.835 70.817 121.687 69.9392 121.275 69.0516Z" fill="#A3C23A"/>
<path d="M108.592 77C107.924 75.8963 107.309 74.7434 106.726 73.5741C107.996 72.621 111.697 69.8599 112.86 68.9232C112.998 68.8119 113.135 68.7038 113.27 68.6022C113.299 68.5826 113.325 68.5629 113.355 68.5433C113.826 68.1928 114.298 67.8915 114.766 67.6426C113.076 69.2082 112.572 71.4615 112.434 73.1942C112.032 73.4365 111.707 73.6331 111.511 73.7542C111.507 73.7542 111.507 73.7575 111.504 73.7575L111.501 73.7608C111.498 73.7608 111.498 73.7608 111.498 73.7608C111.498 73.7641 111.494 73.7641 111.494 73.7641C111.494 73.7673 111.491 73.7673 111.491 73.7673C111.488 73.7673 111.488 73.7706 111.485 73.7706H111.481C111.481 73.7739 111.481 73.7739 111.478 73.7739L111.475 73.7772H111.471C111.468 73.7804 111.465 73.7804 111.465 73.7837H111.462C111.462 73.787 111.458 73.787 111.455 73.787C111.455 73.7903 111.452 73.7903 111.452 73.7903C111.449 73.7935 111.449 73.7935 111.449 73.7935H111.445C111.445 73.7968 111.442 73.7968 111.442 73.7968C111.442 73.7968 111.442 73.7968 111.439 73.8001H111.435L111.432 73.8034C111.455 73.8623 111.537 74.3471 111.727 75.0349C111.55 75.1528 111.367 75.2707 111.187 75.3886C111.062 75.4705 110.938 75.5491 110.813 75.6277C110.666 75.726 110.518 75.8209 110.368 75.9126C110.22 76.0076 110.07 76.1026 109.922 76.191C109.772 76.286 109.624 76.381 109.47 76.4694C109.323 76.5611 109.172 76.6561 109.022 76.7446C108.877 76.8297 108.737 76.9149 108.592 77Z" fill="#86A629"/>
<path d="M104.852 96.0693C104.918 97.8544 104.964 100.478 104.967 101.981C104.869 101.971 104.764 101.965 104.666 101.955C104.178 101.916 103.69 101.873 103.202 101.837C102.982 101.821 102.763 101.804 102.543 101.788C102.442 101.778 102.34 101.772 102.239 101.765C102.052 101.752 101.865 101.739 101.679 101.726C101.236 101.696 100.794 101.667 100.352 101.641C99.9132 101.611 99.4776 101.588 99.0485 101.569C98.4721 101.539 97.8989 101.513 97.329 101.49C97.0604 101.48 96.7952 101.47 96.5299 101.464C96.317 100.098 96.7067 99.5608 96.5724 98.2965C96.5626 98.2114 96.5528 98.1262 96.5364 98.0312C96.8246 97.969 97.1194 97.9035 97.4142 97.838C97.5092 97.8151 97.6009 97.7921 97.6959 97.7725C98.6653 97.5498 99.6708 97.3139 100.716 97.065C100.896 97.0224 101.079 96.9799 101.263 96.934C101.554 96.8652 101.849 96.7932 102.144 96.7211C102.406 96.6589 102.671 96.5934 102.94 96.5311C103.316 96.4394 103.696 96.3477 104.083 96.256C104.335 96.1938 104.59 96.1316 104.852 96.0693Z" fill="#F89F82"/>
<path d="M103.283 101.844C103.257 101.844 103.228 101.84 103.201 101.837C102.982 101.821 102.759 101.804 102.54 101.788C102.438 101.781 102.337 101.775 102.238 101.765C102.052 101.752 101.865 101.742 101.678 101.729C101.233 101.696 100.791 101.667 100.352 101.644C99.913 101.614 99.4774 101.591 99.0451 101.569C99.4774 101.588 99.913 101.614 100.352 101.641C100.791 101.667 101.233 101.696 101.678 101.726C101.865 101.739 102.052 101.752 102.238 101.765C102.34 101.775 102.442 101.778 102.543 101.788C102.763 101.804 102.982 101.821 103.201 101.837C103.228 101.84 103.257 101.84 103.283 101.844Z" fill="#A5A7A6"/>
<path d="M103.077 96.4986C103.362 96.4266 103.651 96.3578 103.942 96.289C103.651 96.3611 103.362 96.4298 103.077 96.4986Z" fill="#5C42A3"/>
<path d="M104.967 101.981C104.938 101.978 104.908 101.974 104.882 101.974C104.807 101.968 104.738 101.961 104.666 101.955C104.204 101.916 103.746 101.879 103.287 101.843C103.257 101.84 103.231 101.84 103.202 101.837C102.982 101.821 102.763 101.804 102.543 101.788C102.442 101.778 102.34 101.771 102.239 101.765C102.052 101.752 101.866 101.739 101.679 101.726C101.237 101.696 100.794 101.667 100.352 101.64C99.9134 101.611 99.4778 101.588 99.0488 101.568C99.861 100.157 100.467 98.6566 100.716 97.0648C100.896 97.0223 101.079 96.9797 101.263 96.9338C101.296 96.9273 101.332 96.9174 101.368 96.9076C101.594 96.8552 101.823 96.7995 102.052 96.7439C102.082 96.7373 102.114 96.7308 102.144 96.7209C102.406 96.6587 102.671 96.5932 102.94 96.531C102.986 96.5179 103.031 96.508 103.077 96.4982C103.366 96.4294 103.651 96.3607 103.942 96.2886C103.988 96.2788 104.034 96.2657 104.08 96.2558C104.335 96.1936 104.591 96.1314 104.849 96.0692C104.918 97.8542 104.964 100.478 104.967 101.981Z" fill="#F68665"/>
<path d="M95.6681 101.791C95.3471 101.827 95.0229 101.853 94.6921 101.866C94.1647 99.5341 93.6898 97.1693 93.3623 94.7981C93.8667 94.6474 94.3776 94.4967 94.9017 94.4607C95.429 94.4247 95.9792 94.5131 96.4116 94.8144C96.8898 95.142 97.178 95.6922 97.309 96.2588C97.3483 96.4259 97.3745 96.5962 97.3909 96.7665C97.4302 97.1726 97.4204 97.582 97.4105 97.9849C97.3843 99.1705 97.3549 100.353 97.3254 101.535C96.7686 101.64 96.2216 101.732 95.6681 101.791Z" fill="#EE2D43"/>
<path d="M95.6714 101.791C95.3471 101.827 95.0229 101.853 94.6921 101.866C94.1647 99.5341 93.6898 97.1693 93.3623 94.7981C93.8667 94.6474 94.3776 94.4967 94.9017 94.4607C95.429 94.4247 95.9792 94.5131 96.4116 94.8144C96.8898 95.142 97.178 95.6922 97.309 96.2588C97.3483 96.4259 97.3745 96.5962 97.3909 96.7665C96.6245 97.0416 95.8188 97.2021 95.0065 97.2414C95.1703 98.7644 95.393 100.284 95.6714 101.791Z" fill="#DBDCD9"/>
<path d="M97.6931 97.1439C97.7946 97.0424 97.6538 96.8753 97.5326 96.931C97.1887 97.0849 96.8481 97.2192 96.4878 97.3306C96.2847 97.3928 96.3764 97.7138 96.5828 97.6876C97.002 97.6352 97.395 97.4419 97.6931 97.1439Z" fill="#3B3D3F"/>
<path d="M97.2767 98.1171C97.4274 98.0418 97.6468 97.937 97.6992 97.7666C97.7254 97.6848 97.6894 97.5963 97.5977 97.5832C97.4339 97.557 97.2636 97.6618 97.113 97.7175C96.9328 97.7863 96.7461 97.8256 96.566 97.8846C96.3236 97.9664 96.4317 98.3431 96.6773 98.3136C96.887 98.2874 97.0868 98.2088 97.2767 98.1171Z" fill="#3B3D3F"/>
<path d="M104.947 103.154C104.865 103.291 102.959 103.226 102.746 103.095C102.694 103.065 102.622 102.548 102.543 101.788C102.399 100.419 102.239 98.2571 102.144 96.721C102.085 95.6992 102.052 94.9524 102.075 94.9033C102.15 94.7461 104.702 94.1827 104.702 94.1827C104.754 94.1729 104.806 94.9589 104.849 96.0693C104.918 97.8543 104.964 100.478 104.967 101.981C104.97 102.669 104.964 103.124 104.947 103.154Z" fill="#6C4CAA"/>
<path d="M135.761 89.7642C135.761 89.7642 131.569 65.8646 120.472 65.7827C112.579 65.7237 112.346 72.3856 112.389 74.8388C112.428 77.2953 111.718 79.6142 111.757 82.8894C111.799 86.1647 111.017 90.0917 111.017 90.0917C111.017 90.0917 117.511 92.3026 124.419 91.8113C131.323 91.32 135.761 89.7642 135.761 89.7642Z" fill="#C2D95A"/>
<path d="M117.763 65.9472C118.349 65.7573 118.962 65.6459 119.584 65.6361C120.128 65.6263 120.957 65.6132 121.379 66.0127C122.273 66.8512 120.308 67.8272 119.748 68.0631C118.877 68.4332 117.927 68.6166 116.984 68.5871C116.358 68.5707 115.205 68.5936 114.986 67.8272C114.91 67.5652 115.153 67.3294 115.375 67.1722C116.103 66.6547 116.908 66.2191 117.763 65.9472Z" fill="#A3C23A"/>
<path d="M119.172 62.0225C119.712 63.5553 120.253 65.0881 120.793 66.6209C120.809 66.6308 120.799 66.6275 120.793 66.6242C120.783 66.6209 120.777 66.6177 120.793 66.6275C119.486 67.7738 117.626 68.2619 115.923 67.9081C115.72 66.241 115.579 64.6361 115.379 62.969C116.617 62.481 117.852 62.1895 119.172 62.0225Z" fill="#F89F82"/>
<path d="M115.749 66.3825C115.713 66.0255 115.674 65.6718 115.638 65.3148C117.069 64.925 118.448 64.3518 119.738 63.628C119.804 63.8081 119.866 63.9915 119.932 64.175C118.697 65.1805 117.262 65.9469 115.749 66.3825Z" fill="#F57F5B"/>
<path d="M95.2394 47.6212C95.3409 48.4498 95.449 49.2817 95.5833 50.1104C95.9501 52.4555 96.4774 54.7875 97.3716 56.9754C97.6074 57.5616 97.8793 58.1446 98.1871 58.7145C99.363 60.9122 101.04 62.9134 103.238 64.086C106.519 65.8415 110.486 66.287 114.128 65.6483C121.111 64.4299 127.013 58.8226 128.857 52.0395C129.125 51.0668 129.312 50.0613 129.427 49.0263C129.725 46.2914 129.636 43.5304 129.348 40.7988C129.08 38.2736 128.804 35.5747 127.645 33.2591C126.168 30.3212 123.207 28.1857 119.886 27.1147C116.578 26.0502 112.965 25.9389 109.448 26.1976C106.533 26.4138 103.595 26.8887 100.958 28.0547C98.3542 29.2076 96.4873 31.4839 95.3737 33.9567C94.4664 36.0038 94.5909 38.1786 94.6695 40.3599C94.7514 42.7869 94.9446 45.2106 95.2394 47.6212Z" fill="#F89F82"/>
<path d="M115.582 41.8146C115.949 42.093 116.257 42.5843 116.044 42.9904C115.933 43.2033 115.703 43.3311 115.467 43.3769C115.232 43.4228 114.989 43.3933 114.753 43.3606C113.853 43.2328 112.946 43.0199 112.156 42.5647C111.871 42.3976 111.586 42.1782 111.501 41.8572C111.108 40.3375 115.029 41.3921 115.582 41.8146Z" fill="#381A13"/>
<path d="M106.329 49.3153C106.447 49.2072 106.608 49.3972 106.513 49.5151C105.989 50.18 105.258 50.9235 105.478 51.8438C105.7 52.7674 106.598 52.9083 107.407 53.0393C107.62 53.072 107.61 53.4094 107.39 53.4192C106.467 53.4618 105.389 53.0426 105.098 52.0894C104.764 50.9857 105.563 50.0064 106.329 49.3153Z" fill="#CC654F"/>
<path d="M98.1646 44.8311C97.9255 45.2241 97.8174 45.7907 98.1613 46.0953C98.3415 46.2526 98.6035 46.2919 98.836 46.2493C99.0719 46.2067 99.288 46.0921 99.4976 45.9774C100.294 45.5353 101.063 45.0112 101.633 44.3038C101.839 44.0483 102.026 43.7371 101.987 43.4129C101.807 41.8506 98.5314 44.2415 98.1646 44.8311Z" fill="#381A13"/>
<path d="M98.1868 58.7149C97.879 58.145 97.6071 57.562 97.3713 56.9757C96.4772 54.7878 95.9498 52.4558 95.583 50.1107C96.3756 49.793 97.237 49.626 98.0526 49.626C98.4554 49.626 98.8517 49.6653 99.2186 49.7504C103.738 50.7821 103.359 57.5292 99.0875 58.5937C98.9041 58.6395 98.7174 58.6723 98.5308 58.6919C98.4161 58.705 98.3015 58.7116 98.1868 58.7149Z" fill="#F68275"/>
<path d="M108.409 63.4737C109.202 63.929 110.073 64.1943 110.918 64.2598C112.447 64.3777 113.895 63.9126 115.189 63.215C116.109 62.7171 116.977 62.0948 117.619 61.2236C117.848 60.9157 118.045 60.5718 118.199 60.205H118.202C118.219 60.1657 118.232 60.1231 118.248 60.0838C114.678 58.7803 109.919 60.1133 108.409 63.4737Z" fill="#EE2D43"/>
<path d="M118.013 56.2259C117.898 56.0621 117.764 55.9082 117.61 55.7805C117.207 55.4464 116.729 55.3121 116.264 55.3154C115.995 55.3186 115.733 55.3678 115.491 55.4529C114.826 55.6855 114.272 56.1506 113.693 56.5567C113.097 56.9694 112.468 57.3297 111.809 57.6244C110.65 58.1485 109.409 58.4826 108.118 58.6168C107.607 58.6692 106.834 58.5186 106.422 58.8035C106.173 58.9738 106.009 59.2555 105.93 59.5765C105.875 59.7927 105.858 60.0252 105.884 60.2545C105.924 60.5951 106.038 60.9226 106.196 61.2371C106.33 61.5056 106.5 61.7611 106.684 61.9969C107.063 62.4817 107.509 62.8878 107.994 63.2186C108.128 63.3103 108.269 63.3955 108.41 63.4741C109.92 60.1136 114.678 58.7806 118.249 60.0842C118.501 59.4455 118.635 58.738 118.586 57.9978C118.547 57.3886 118.366 56.7336 118.013 56.2259Z" fill="#C81F32"/>
<path d="M102.009 47.8936C100.899 47.8968 100.689 49.541 100.692 50.35C100.692 50.4843 100.915 50.4941 100.932 50.3598C101 49.7474 101.144 48.3062 101.963 48.2342C102.926 48.1458 103.313 49.7637 103.404 50.4384C103.434 50.6513 103.758 50.6251 103.742 50.409C103.663 49.5115 103.149 47.8936 102.009 47.8936Z" fill="#351912"/>
<path d="M113.378 45.5127C112.003 45.5225 111.928 47.3338 111.983 48.3327C111.99 48.4768 112.229 48.4932 112.242 48.3426C112.317 47.5237 112.36 45.7747 113.552 45.9483C114.577 46.099 114.718 47.3436 115.032 48.1198C115.108 48.3065 115.439 48.2541 115.396 48.038C115.19 47.0161 114.656 45.5062 113.378 45.5127Z" fill="#351912"/>
<path d="M119.516 55.6359C119.427 55.6359 119.339 55.6327 119.254 55.6294C114.858 55.3379 113.283 48.7644 117.544 46.9466C118.212 46.6617 119.001 46.5176 119.81 46.5176C120.96 46.5176 122.149 46.8124 123.086 47.4019C124.032 47.998 124.723 48.8987 124.858 50.1106C125.159 52.8159 122.411 55.4427 119.817 55.6261C119.715 55.6327 119.614 55.6359 119.516 55.6359Z" fill="#F68275"/>
<path d="M111.017 90.0918C111.017 90.0918 111.393 88.2052 111.609 85.9584C111.393 88.202 111.02 90.0852 111.017 90.0918ZM111.757 82.8895C111.754 82.5619 111.75 82.2279 111.744 81.8905C111.747 81.8872 111.75 81.8872 111.754 81.8872C111.757 81.884 111.763 81.884 111.77 81.8807C111.757 82.2082 111.754 82.5423 111.757 82.8895Z" fill="#D1D2D0"/>
<path d="M124.321 91.818C122.27 91.0844 119.329 90.128 118.009 90.128C117.846 90.128 117.705 90.1411 117.593 90.1739C116.922 90.3737 116.296 90.7569 115.723 91.2481C112.906 90.7339 111.02 90.0953 111.017 90.092C111.02 90.0854 111.393 88.2021 111.609 85.9586C111.698 85.0448 111.76 84.072 111.76 83.1418C111.76 83.0567 111.76 82.9715 111.757 82.8897C111.754 82.5425 111.757 82.2084 111.77 81.8809C111.94 81.8252 112.107 81.7695 112.274 81.7138C112.92 81.5009 113.558 81.2749 114.197 81.0391C114.357 80.9834 114.515 80.9245 114.675 80.8623C114.724 80.8426 114.773 80.823 114.822 80.8066C115.268 81.3765 115.589 81.7499 115.615 81.7892C115.658 81.7728 115.697 81.7564 115.74 81.7368C118.13 84.3471 121.042 86.4597 124.517 87.7305C128.179 89.0963 131.841 89.6826 135.473 89.6826C135.561 89.6826 135.653 89.6826 135.748 89.6826C135.758 89.735 135.761 89.7645 135.761 89.7645C135.761 89.7645 135.683 89.7939 135.525 89.8431C134.52 90.164 130.393 91.3857 124.419 91.8115C124.386 91.8148 124.354 91.818 124.321 91.818Z" fill="#BAD34C"/>
<path d="M63.5869 46.6778C63.8948 45.8426 64.3795 45.0566 65.0706 44.4965C65.7617 43.9331 66.6755 43.6122 67.5598 43.7366C69.0959 43.9462 70.2226 45.502 70.2226 47.0479C70.2226 48.5906 69.2728 50.0251 68.0085 50.9193C66.7475 51.8102 65.2016 52.2294 63.6688 52.4489C63.5214 50.4313 62.8925 48.5808 63.5869 46.6778Z" fill="#F89F82"/>
<path d="M65.117 48.224C65.5722 47.5493 66.188 46.9565 66.9479 46.6421C67.4686 46.4259 68.1499 46.3833 68.52 46.8091C68.8508 47.189 68.7853 47.7687 68.6248 48.2437C68.1794 49.5865 67.1444 50.723 65.8474 51.2962C65.1989 51.5812 64.0918 51.6991 64.023 50.7591C63.9641 49.9763 64.7043 48.8332 65.117 48.224Z" fill="#CC654F"/>
<path d="M66.6689 47.9553C66.7377 47.5132 66.8262 47.0775 66.9375 46.6452C66.9408 46.6452 66.9441 46.6419 66.9473 46.6419C66.9572 46.6387 66.967 46.6321 66.9768 46.6288C67.0128 46.9891 67.0194 47.3559 67.003 47.7195C66.8917 47.7948 66.7803 47.8734 66.6689 47.9553ZM67.7858 47.2806C67.7825 47.012 67.7662 46.7467 67.7367 46.4814C68.038 46.488 68.323 46.583 68.5195 46.809C68.5228 46.809 68.5227 46.8122 68.5227 46.8122C68.526 46.8122 68.526 46.8122 68.526 46.8122V46.8155C68.5621 46.8581 68.5948 46.9007 68.621 46.9498C68.3328 47.0415 68.0544 47.1496 67.7858 47.2806Z" fill="#C55043"/>
<path d="M66.5156 51.7256C66.5484 51.6765 66.5811 51.6306 66.6139 51.5848C66.6172 51.6142 66.6237 51.647 66.627 51.6765C66.591 51.6928 66.5516 51.7092 66.5156 51.7256ZM65.5068 51.5717C65.5134 51.516 65.5232 51.4636 65.5298 51.4112C65.5854 51.3948 65.6411 51.3751 65.6935 51.3555C65.6346 51.4308 65.5723 51.4996 65.5068 51.5717ZM65.8769 47.3367C65.8933 46.9535 65.9097 46.5736 65.9195 46.1904C65.9228 46.1544 65.9228 46.1183 65.9228 46.0856C65.9261 46.043 65.9261 45.9972 65.9293 45.9546C66.1619 45.8236 66.3846 45.6729 66.5975 45.5059C66.6663 45.5419 66.7383 45.5779 66.8104 45.6107C66.8825 45.9087 66.9349 46.2166 66.9676 46.5277C66.9578 46.567 66.948 46.6064 66.9381 46.6457C66.5451 46.8094 66.1914 47.0485 65.8769 47.3367Z" fill="#F68665"/>
<path d="M65.5292 51.4108C65.6504 50.5134 65.7356 49.6127 65.7978 48.712C66.0696 48.4368 66.3611 48.1814 66.669 47.9521C66.5609 48.6628 66.5085 49.3801 66.5151 50.0974C66.5151 50.1007 66.5118 50.1072 66.5118 50.1105C66.2858 50.5527 66.0107 50.9752 65.693 51.3551C65.6406 51.3747 65.5849 51.3944 65.5292 51.4108Z" fill="#C0463D"/>
<path d="M65.7979 48.7122C65.7979 48.6729 65.8011 48.6336 65.8044 48.5943C65.8339 48.1751 65.8568 47.7558 65.8765 47.3366C66.1909 47.0484 66.5446 46.8093 66.9376 46.6455C66.8263 47.0778 66.7379 47.5135 66.6691 47.9556C66.3612 48.1816 66.0697 48.4371 65.7979 48.7122Z" fill="#B43934"/>
<path d="M65.9227 46.0858C65.8965 46.9177 65.8605 47.7562 65.8048 48.5947C65.6476 50.9627 65.3332 53.3307 64.6388 55.5939C64.4554 56.1966 64.2359 56.8025 63.9837 57.3986C63.0044 59.688 61.5142 61.8333 59.4311 63.1958C56.3229 65.2363 52.4089 66.0322 48.7275 65.7211C41.6628 65.125 35.2793 60.0614 32.8359 53.4716C32.4822 52.5283 32.2038 51.5424 32.0007 50.5205C31.457 47.8217 31.2965 45.0639 31.3424 42.3225C31.3817 39.7809 31.4112 37.069 32.361 34.6617C33.5663 31.6026 36.3273 29.2116 39.5371 27.8491C42.7403 26.4931 46.3267 26.0641 49.8542 26.0117C52.7758 25.9658 55.7432 26.1787 58.4747 27.1056C61.1703 28.0227 63.237 30.1254 64.5667 32.4869C65.6541 34.4455 65.7229 36.6236 65.8408 38.8049C65.9751 41.2286 66.0046 43.6588 65.9227 46.0858Z" fill="#F89F82"/>
<path d="M46.0222 48.4662C46.0877 48.6431 46.1761 48.8167 46.3202 48.9378C46.4611 49.059 46.6642 49.1245 46.8443 49.0656C47.1292 48.9706 47.234 48.6234 47.2668 48.3221C47.3159 47.8963 47.2996 47.4607 47.2275 47.0382C47.1391 46.5109 46.6904 46.0261 46.186 46.4519C45.711 46.858 45.8322 47.9716 46.0222 48.4662Z" fill="#351912"/>
<path d="M43.9091 43.8383C43.5881 44.1691 43.3621 44.703 43.634 45.0698C43.7781 45.263 44.0238 45.3547 44.2628 45.3646C44.5019 45.3711 44.7378 45.3089 44.967 45.2368C45.8383 44.9748 46.7029 44.6244 47.4104 44.0545C47.6659 43.8481 47.9148 43.5828 47.9475 43.2553C48.1047 41.6963 44.3906 43.3372 43.9091 43.8383Z" fill="#C24928"/>
<path d="M42.2679 57.1329C39.687 57.1329 36.772 54.7812 36.831 52.0857C36.8572 50.8673 37.4631 49.9076 38.3507 49.2297C38.7634 48.9152 39.2383 48.6598 39.7427 48.4698C39.8802 50.0648 40.568 51.6566 41.9666 52.5311C43.0147 53.3532 44.4918 53.707 45.7757 53.7168C45.7921 53.7168 45.8052 53.7168 45.8216 53.7168C46.0574 53.7168 46.2899 53.7004 46.5159 53.6742C46.0738 55.3315 44.8128 56.7857 42.9066 57.0838C42.7199 57.1132 42.5332 57.1296 42.3432 57.1329C42.3203 57.1329 42.2941 57.1329 42.2679 57.1329ZM45.5923 52.898C44.0497 52.898 42.4808 52.4099 41.4917 51.1981C41.3541 51.0343 41.2198 50.8673 41.0954 50.6904C41.0069 50.5627 40.9218 50.4317 40.853 50.2908C40.5418 49.6816 40.4043 48.9742 40.3781 48.2634C40.9513 48.1128 41.5474 48.0342 42.1271 48.0342C42.7264 48.0342 43.3094 48.1161 43.8302 48.2864C45.9788 48.984 46.8467 50.9262 46.6699 52.8161C46.5913 52.8292 46.5127 52.8423 46.4341 52.8488C46.1589 52.8816 45.874 52.898 45.5923 52.898Z" fill="#F68275"/>
<path d="M59.8801 48.8754C59.8113 49.0522 59.7229 49.2226 59.5788 49.347C59.4379 49.4682 59.2349 49.5337 59.058 49.4748C58.7698 49.3798 58.665 49.0326 58.6322 48.7313C58.5864 48.3055 58.5995 47.8699 58.6715 47.4474C58.7632 46.92 59.2119 46.4353 59.7131 46.8611C60.188 47.2672 60.0668 48.3808 59.8801 48.8754Z" fill="#351912"/>
<path d="M61.5963 44.4839C61.8518 44.8638 61.9795 45.4304 61.6421 45.7448C61.4685 45.9086 61.2098 45.9545 60.9707 45.9217C60.7349 45.8857 60.5154 45.7776 60.3025 45.6695C59.4936 45.2535 58.7075 44.7557 58.1147 44.0679C57.8985 43.8157 57.702 43.5144 57.7315 43.1868C57.8592 41.6213 61.2131 43.9041 61.5963 44.4839Z" fill="#C24928"/>
<path d="M63.7149 57.4053C63.6887 57.4053 63.6625 57.4053 63.6363 57.4053C63.4464 57.402 63.2597 57.3856 63.073 57.3561C60.967 57.0286 59.6503 55.2862 59.3523 53.4193C60.2104 53.7828 61.1766 53.9498 62.0511 53.9597C62.0675 53.9597 62.0838 53.9597 62.0969 53.9597C63.2826 53.9597 64.3798 53.5896 65.2838 52.9443C65.1167 53.8385 64.9071 54.7228 64.6386 55.594C64.4551 56.1967 64.2357 56.8026 63.9835 57.3987C63.8918 57.4053 63.8034 57.4053 63.7149 57.4053ZM61.8677 53.1376C60.9801 53.1376 60.0794 52.9771 59.29 52.607C59.29 51.0381 60.0303 49.5086 61.6351 48.7618C62.0642 48.8961 62.5129 48.9682 62.9813 48.9682C63.1516 48.9682 63.3252 48.9583 63.502 48.9387C64.0719 48.8797 64.6189 48.7029 65.1135 48.4277C65.346 48.4703 65.5786 48.526 65.8046 48.5948C65.7391 49.5905 65.6441 50.5829 65.5065 51.572C64.763 52.381 63.8099 52.9673 62.7094 53.0917C62.4343 53.1212 62.1526 53.1376 61.8677 53.1376Z" fill="#F68275"/>
<path d="M56.3066 50.8478C56.1592 49.6491 54.8458 48.9252 53.7683 48.7091C53.5095 48.6567 53.3064 49.0333 53.5783 49.1611C54.3218 49.5115 55.2028 49.6654 55.6581 50.4286C56.2902 51.4865 55.2782 52.3282 54.3938 52.7508C54.2727 52.8097 54.3611 52.9931 54.4855 52.9604C55.4649 52.7082 56.4474 51.9745 56.3066 50.8478Z" fill="#CC654F"/>
<path d="M48.0325 57.0704C46.6995 56.6217 44.9439 56.8542 45.1208 58.6491C45.5171 62.658 50.4464 64.4529 53.8658 63.1329C54.5601 62.8644 55.189 62.4222 55.6737 61.8621C56.4696 60.9385 57.4751 58.839 55.8538 58.2036C55.5427 58.0825 55.2053 58.0563 54.8745 58.0432C53.7773 58.0006 52.6801 58.0825 51.5862 57.9776C50.5184 57.8794 49.4507 57.5682 48.4419 57.2145C48.3142 57.1687 48.1766 57.1195 48.0325 57.0704Z" fill="white"/>
<path d="M52.3208 60.9845C49.7661 60.6373 47.2146 60.1035 45.125 58.6787C45.2265 59.6351 45.5835 60.4637 46.1174 61.1515C48.1907 61.4758 50.2934 61.5904 52.3208 60.9845Z" fill="#D5D7D4"/>
<path d="M56.4958 58.6856C56.3583 58.4858 56.1519 58.3221 55.8539 58.2041C55.5427 58.083 55.2054 58.0568 54.8746 58.0437C53.7774 58.0011 52.6769 58.083 51.5862 57.9782C50.5185 57.8799 49.4507 57.5687 48.4419 57.215C48.3109 57.1692 48.1734 57.12 48.0325 57.0709C47.2399 56.8056 46.2934 56.7794 45.6973 57.1823C48.6614 59.6584 52.857 59.8975 56.4958 58.6856Z" fill="#D5D7D4"/>
<path d="M126.473 92.6305C125.896 92.3848 119.054 89.7449 117.594 90.174C113.978 91.2385 111.718 97.6646 111.718 97.6646L118.131 101.759C118.131 101.759 119.65 99.9966 120.473 99.9572C121.295 99.9147 124.871 102.823 125.281 102.823C125.693 102.823 126.473 92.6305 126.473 92.6305Z" fill="#8A61B7"/>
<path d="M123.856 101.945C122.683 101.133 121.141 100.033 120.548 99.9606H120.545C120.545 99.9606 120.545 99.9606 120.541 99.9606H120.538C120.535 99.9606 120.535 99.9606 120.535 99.9573C120.532 99.9573 120.532 99.9573 120.532 99.9573C120.528 99.9573 120.528 99.9573 120.528 99.9573C120.528 99.9573 120.528 99.9573 120.525 99.9573C120.525 99.9573 120.525 99.9573 120.522 99.9573H120.518H120.515H120.512C120.512 99.9573 120.512 99.9573 120.509 99.9573C120.509 99.9573 120.509 99.9573 120.505 99.9573H120.502H120.499C120.499 99.9573 120.499 99.9573 120.496 99.9573C120.496 99.9573 120.496 99.9573 120.492 99.9573H120.489C120.489 99.9573 120.489 99.9573 120.486 99.9573C120.482 99.9573 120.476 99.9573 120.473 99.9573C119.65 99.9966 118.127 101.759 118.127 101.759L117.394 101.287C117.544 101.13 117.698 100.969 117.852 100.809C117.888 100.773 117.924 100.737 117.957 100.701C118.029 100.629 118.098 100.557 118.17 100.485V100.481C117.947 100.305 117.695 100.101 117.42 99.882C116.234 98.9453 114.649 97.717 113.486 96.8491C113.372 97.0882 113.257 97.324 113.146 97.5598C113.139 97.5729 113.133 97.5893 113.126 97.6024C113.005 97.8513 112.89 98.0937 112.772 98.3393L111.718 97.6646C111.731 97.6253 112.081 96.6395 112.717 95.3916C114.728 96.2301 117.109 96.0925 119.205 96.705C120.007 97.026 120.653 97.3469 121.298 97.9889C122.372 99.1582 122.975 100.681 123.856 101.945Z" fill="#8058B2"/>
<path d="M124.406 102.132C123.342 101.369 122.12 100.249 120.836 99.8785C119.805 99.5805 119.071 100.383 118.39 101.035C118.18 101.234 118.462 101.621 118.711 101.447C119.674 100.766 120.28 99.8458 121.593 100.593C122.52 101.117 123.385 101.765 124.292 102.328C124.416 102.404 124.521 102.217 124.406 102.132Z" fill="#7856B0"/>
<path d="M123.303 91.3167C122.097 90.5536 120.555 90.3177 119.166 90.1147C118.043 89.9509 117.109 89.9935 116.195 90.7304C114.207 92.332 112.881 94.7459 111.908 97.055C111.833 97.2384 112.15 97.3759 112.235 97.1925C113.192 95.1357 114.23 93.1017 115.887 91.5034C116.343 91.0645 116.827 90.6092 117.456 90.452C118.157 90.2752 118.94 90.4389 119.638 90.547C120.885 90.7468 122.022 91.1169 123.211 91.5296C123.342 91.5754 123.414 91.3855 123.303 91.3167Z" fill="#7856B0"/>
<path d="M118.17 100.484C118.098 100.556 118.029 100.628 117.96 100.7C117.619 101.051 117.279 101.405 116.945 101.758C116.791 101.915 116.64 102.076 116.489 102.236C116.417 102.309 116.352 102.384 116.28 102.456C116.152 102.593 116.024 102.728 115.897 102.865C115.595 103.19 115.294 103.514 114.996 103.838C114.698 104.156 114.406 104.48 114.115 104.801C113.728 105.227 113.345 105.653 112.972 106.078C112.795 106.278 112.621 106.478 112.444 106.678C111.246 105.98 111.075 105.341 110.008 104.65C109.936 104.604 109.86 104.555 109.778 104.509C109.909 104.247 110.044 103.979 110.178 103.707C110.22 103.622 110.263 103.533 110.306 103.448C110.745 102.561 111.193 101.634 111.655 100.671C111.737 100.504 111.819 100.337 111.897 100.166C112.028 99.8979 112.159 99.6261 112.29 99.3509C112.405 99.1086 112.523 98.8596 112.641 98.614C112.808 98.2668 112.978 97.9164 113.145 97.5594C113.257 97.3235 113.371 97.0877 113.486 96.8486C114.92 97.9196 116.994 99.5376 118.17 100.481V100.484Z" fill="#F89F82"/>
<path d="M111.897 100.167C112.025 99.895 112.156 99.6232 112.29 99.3513C112.159 99.6265 112.028 99.8983 111.897 100.167Z" fill="#5C42A3"/>
<path d="M117.42 99.8815C116.234 98.9481 114.652 97.7166 113.486 96.8486C114.649 97.7166 116.234 98.9448 117.42 99.8815Z" fill="#6045A5"/>
<path d="M112.771 98.3385C112.889 98.0929 113.007 97.8505 113.125 97.6016C113.007 97.8505 112.889 98.0961 112.771 98.3385Z" fill="#6045A5"/>
<path d="M114.115 104.798C113.529 103.281 112.739 101.863 111.655 100.671C111.711 100.56 111.763 100.448 111.819 100.334C111.845 100.278 111.871 100.222 111.898 100.166C112.029 99.8979 112.16 99.6261 112.291 99.3509C112.291 99.3444 112.294 99.3378 112.297 99.3346C112.412 99.0955 112.526 98.8564 112.641 98.614C112.648 98.5976 112.658 98.578 112.667 98.5616C112.703 98.4863 112.736 98.4142 112.772 98.3389C112.89 98.0965 113.008 97.8509 113.126 97.6019C113.132 97.5888 113.139 97.5725 113.146 97.5594C113.257 97.3235 113.372 97.0877 113.486 96.8486C114.649 97.7166 116.234 98.9481 117.42 99.8815C117.695 100.101 117.947 100.304 118.17 100.481C118.098 100.556 118.029 100.628 117.957 100.7C117.924 100.736 117.888 100.772 117.852 100.808C117.698 100.969 117.544 101.129 117.39 101.287C117.246 101.441 117.102 101.591 116.958 101.742C116.951 101.748 116.948 101.752 116.945 101.758C116.945 101.758 116.942 101.758 116.942 101.762C116.833 101.873 116.725 101.988 116.617 102.099C116.575 102.145 116.532 102.191 116.49 102.236C116.46 102.266 116.434 102.295 116.404 102.325C116.362 102.371 116.323 102.413 116.28 102.456C116.152 102.593 116.024 102.728 115.897 102.865C115.887 102.875 115.88 102.885 115.871 102.895C115.733 103.042 115.595 103.19 115.461 103.334C115.314 103.491 115.166 103.651 115.022 103.809C115.012 103.818 115.003 103.828 114.996 103.838C114.986 103.845 114.98 103.851 114.973 103.861C114.8 104.048 114.626 104.238 114.452 104.428C114.338 104.552 114.226 104.677 114.115 104.798Z" fill="#F68665"/>
<path d="M112.159 107.549C111.986 107.821 111.799 108.089 111.606 108.351C109.451 107.293 107.308 106.167 105.255 104.925C105.455 104.437 105.658 103.949 105.959 103.52C106.264 103.091 106.683 102.724 107.187 102.577C107.744 102.413 108.357 102.538 108.881 102.793C109.035 102.872 109.185 102.957 109.329 103.055C109.667 103.278 109.981 103.543 110.292 103.805C111.196 104.571 112.1 105.341 113.004 106.108C112.736 106.605 112.46 107.084 112.159 107.549Z" fill="#EE2D43"/>
<path d="M112.159 107.549C111.986 107.821 111.799 108.089 111.606 108.351C109.451 107.293 107.308 106.167 105.255 104.925C105.455 104.437 105.658 103.949 105.962 103.52C106.264 103.091 106.683 102.724 107.187 102.577C107.747 102.413 108.357 102.538 108.881 102.793C109.035 102.872 109.185 102.957 109.326 103.055C109.061 103.818 108.678 104.542 108.196 105.194C109.487 106.026 110.81 106.812 112.159 107.549Z" fill="#DBDCD9"/>
<path d="M109.811 103.055C109.798 102.914 109.578 102.917 109.542 103.045C109.447 103.409 109.339 103.756 109.198 104.103C109.12 104.303 109.424 104.43 109.532 104.257C109.758 103.9 109.857 103.474 109.811 103.055Z" fill="#3B3D3F"/>
<path d="M110.306 103.991C110.346 103.828 110.401 103.592 110.303 103.441C110.257 103.372 110.162 103.343 110.093 103.405C109.972 103.517 109.946 103.713 109.894 103.867C109.835 104.047 109.746 104.214 109.681 104.394C109.589 104.633 109.949 104.784 110.084 104.578C110.198 104.398 110.26 104.198 110.306 103.991Z" fill="#3B3D3F"/>
<path d="M119.07 101.238C119.125 101.388 117.871 102.823 117.638 102.902C117.579 102.921 117.131 102.653 116.489 102.237C115.332 101.483 113.544 100.245 112.29 99.3512C111.451 98.7518 110.849 98.3064 110.829 98.2605C110.75 98.1 111.92 95.7746 111.92 95.7746C111.946 95.7222 112.591 96.1807 113.485 96.8489C114.92 97.9199 116.993 99.5379 118.169 100.481V100.484C118.709 100.913 119.056 101.205 119.07 101.238Z" fill="#6C4CAA"/>
<path d="M110.958 65.9242C109.648 65.9242 108.334 65.7867 107.06 65.4952C112.54 65.2757 119.008 64.0344 122.69 59.8879C125.503 56.724 126.558 54.1725 126.866 51.5818C127.472 51.382 128.058 51.1396 128.611 50.8383C128.536 51.703 128.441 52.5578 128.399 53.3275C128.438 53.2686 128.477 53.2063 128.52 53.1441C126.368 59.4097 120.751 64.4766 114.171 65.6426C114.154 65.6458 114.141 65.6491 114.128 65.6491C114.095 65.6557 114.063 65.6622 114.03 65.6655C113.021 65.8391 111.993 65.9242 110.958 65.9242ZM97.3391 46.5641C96.576 46.5641 95.8292 46.5182 95.1021 46.4265C95.0497 45.9483 95.0039 45.4669 94.958 44.9854C96.1044 44.969 97.2638 44.7922 98.4003 44.5629C98.289 44.671 98.2071 44.7627 98.1645 44.8347C97.9254 45.2245 97.8173 45.7944 98.1612 46.0957C98.2955 46.2136 98.4757 46.266 98.6591 46.266C98.718 46.266 98.7803 46.2595 98.8359 46.2497C99.0718 46.2071 99.2879 46.0925 99.4975 45.9778C100.293 45.5357 101.063 45.0116 101.633 44.3042C101.774 44.1306 101.905 43.9275 101.964 43.7146C107.944 42.0868 113.742 39.3978 117.702 34.7207C119.267 38.8148 122.172 42.077 125.579 44.8315C125.379 45.1786 125.222 45.552 125.1 45.9352C121.632 44.5531 119.994 40.721 117.512 37.5407C116.342 38.8344 114.937 40.0463 113.378 41.137C113.09 41.0911 112.808 41.0649 112.553 41.0649C111.852 41.0649 111.347 41.2647 111.505 41.8575C111.541 41.9951 111.613 42.1163 111.708 42.2211C107.332 44.8642 102.062 46.5641 97.3391 46.5641Z" fill="#F68665"/>
<path d="M111.708 42.2204C111.613 42.1156 111.541 41.9944 111.504 41.8568C111.351 41.264 111.852 41.0642 112.553 41.0642C112.808 41.0642 113.093 41.0904 113.378 41.133C112.841 41.5096 112.281 41.8732 111.708 42.2204Z" fill="#251310"/>
<path d="M98.6587 46.2653C98.4753 46.2653 98.2951 46.2129 98.1608 46.095C97.8137 45.7937 97.9217 45.2238 98.1641 44.834C98.2067 44.7652 98.2886 44.6702 98.3999 44.5622C98.662 44.5098 98.9207 44.4541 99.1794 44.3984C100.106 44.1921 101.037 43.9661 101.963 43.7139C101.904 43.9268 101.773 44.1298 101.633 44.3034C101.063 45.0109 100.293 45.5349 99.4971 45.9771C99.2875 46.095 99.0714 46.2064 98.8355 46.2489C98.7799 46.2588 98.7176 46.2653 98.6587 46.2653Z" fill="#251310"/>
<path d="M117.702 34.7197C119.709 39.97 123.925 43.8577 128.569 47.0511C128.942 48.9475 128.504 51.3974 128.399 53.3265C132.699 46.9103 134.111 38.4437 131.039 31.3593C130.187 29.3941 128.441 27.6157 126.787 26.2499C125.13 24.8841 122.926 24.0816 120.803 24.4386C116.716 21.1372 111.675 18.9296 106.418 19.1589C101.158 19.3914 95.9277 22.1459 93.3173 26.6986C92.2004 28.6441 91.5683 30.8516 90.3008 32.7054C89.03 34.556 86.7995 36.0495 84.6182 35.4927C85.4239 37.3989 85.9578 39.0136 87.1467 40.7069C88.3323 42.4035 89.9405 43.8774 91.9056 44.5423C94.2311 45.3349 96.7793 44.9255 99.18 44.3981C106.107 42.8719 113.126 40.1206 117.702 34.7197Z" fill="#542414"/>
<path d="M128.697 45.6404C124.799 42.3913 121.658 38.4282 119.412 33.8854C119.333 33.7249 119.107 33.8658 119.179 34.0197C121.262 38.6346 124.439 42.7581 128.396 45.9384C128.605 46.1055 128.907 45.814 128.697 45.6404Z" fill="#381A13"/>
<path d="M129.165 43.9461C126.188 41.2964 123.62 38.2734 121.57 34.8573C121.475 34.7033 121.236 34.8409 121.324 34.9981C123.279 38.483 125.827 41.6404 128.89 44.218C129.08 44.3752 129.352 44.1132 129.165 43.9461Z" fill="#381A13"/>
<path d="M111.049 36.2563C107.98 38.8012 104.449 40.8482 100.489 41.6015C96.5655 42.3483 92.3797 41.7031 89.0225 39.5054C88.8882 39.4169 88.7671 39.6298 88.8981 39.7183C96.0316 44.6181 105.31 41.8275 111.376 36.5805C111.602 36.384 111.275 36.0696 111.049 36.2563Z" fill="#381A13"/>
<path d="M109.539 29.1162C105.858 34.0684 100.352 38.3754 93.7883 37.3797C93.6278 37.3535 93.5558 37.5959 93.7195 37.6253C100.388 38.8241 106.323 34.5662 109.948 29.3553C110.122 29.1031 109.716 28.8771 109.539 29.1162Z" fill="#381A13"/>
<path d="M104.78 21.6416C100.342 22.7978 96.6087 25.9158 94.6271 30.0263C94.5583 30.1638 94.7647 30.285 94.8335 30.1475C96.874 26.168 100.575 23.2399 104.902 22.0739C105.18 21.9986 105.062 21.5663 104.78 21.6416Z" fill="#381A13"/>
<path d="M125.028 46.1842C125.257 45.3261 125.67 44.5008 126.309 43.8785C126.947 43.2594 127.828 42.8598 128.719 42.8991C130.268 42.9745 131.529 44.4254 131.667 45.9615C131.808 47.5009 130.989 49.0141 129.81 50.0163C128.631 51.0185 127.134 51.5688 125.624 51.9258C125.297 49.9312 124.504 48.1429 125.028 46.1842Z" fill="#F89F82"/>
<path d="M126.686 47.5885C127.082 46.8745 127.642 46.2293 128.369 45.8494C128.867 45.5874 129.545 45.4858 129.951 45.8756C130.315 46.226 130.298 46.809 130.184 47.297C129.859 48.6727 128.932 49.8943 127.691 50.5821C127.069 50.926 125.978 51.1422 125.824 50.2088C125.696 49.4358 126.332 48.2338 126.686 47.5885Z" fill="#CC654F"/>
<path d="M125.955 50.5531C125.896 50.4647 125.85 50.3566 125.827 50.2223C125.827 50.219 125.824 50.219 125.824 50.2157C125.824 50.2125 125.824 50.2125 125.824 50.2092C125.814 50.1404 125.808 50.0683 125.808 49.993C125.808 49.2233 126.364 48.1752 126.685 47.5922C127.082 46.875 127.642 46.2297 128.369 45.8498C128.424 45.8203 128.483 45.7908 128.546 45.7679C128.768 45.6762 129.011 45.6172 129.243 45.6172C129.509 45.6172 129.761 45.6926 129.951 45.876C129.993 45.9153 130.029 45.9612 130.062 46.007C128.123 46.8225 126.721 48.529 125.955 50.5531Z" fill="#C55043"/>
<path d="M69.1709 99.1124C69.1709 99.1124 69.0693 95.7782 69.1938 95.7356C69.315 95.6963 72.79 95.6341 72.9931 95.716C73.1995 95.7979 73.0553 98.929 73.0553 98.929L69.1709 99.1124Z" fill="#F8A0C4"/>
<path d="M75.3357 105.934C74.9885 106.019 67.8713 106.052 67.2196 105.944C67.1934 105.941 67.177 105.938 67.1737 105.934C67.0165 105.81 67.0656 98.3389 67.0656 98.3389C67.0656 98.2767 67.9532 98.2145 69.1487 98.1588C70.3507 98.1031 71.8606 98.0573 73.0888 98.0278C74.3433 98.0049 75.3062 98.0016 75.3357 98.0311C75.3455 98.0409 75.3521 98.0966 75.3586 98.1948C75.4274 99.3248 75.3881 105.921 75.3357 105.934Z" fill="#F4689C"/>
<path d="M70.7536 106.014C69.0734 106.014 67.5078 105.994 67.2196 105.945C67.2065 105.827 67.1934 105.65 67.1836 105.427C69.473 105.201 71.6707 104.058 73.1839 101.933C74.006 100.763 74.3335 99.5516 74.4613 98.3234C74.7593 98.3168 75.0639 98.3103 75.3652 98.3037C75.3652 98.3332 75.3652 98.3659 75.3685 98.402C75.339 98.4052 75.3259 98.4118 75.3292 98.4183C75.3292 98.4183 75.2768 102.48 75.3751 104.661C75.3652 105.421 75.3521 105.932 75.3357 105.935C75.1425 105.981 72.8564 106.014 70.7536 106.014Z" fill="#F2528B"/>
<path d="M67.8484 104.146C67.6126 104.146 67.665 99.1776 67.7731 98.9909C67.8844 98.7977 73.5441 98.7715 73.5441 98.7715C74.3498 98.9909 68.9948 99.6853 68.7065 99.7934C68.4183 99.9047 68.1039 104.038 67.8582 104.146C67.855 104.146 67.8517 104.146 67.8484 104.146Z" fill="#F681AC"/>
<path d="M56.8963 78.1445C56.8963 78.1445 56.7947 74.807 56.9159 74.7677C57.0404 74.7251 60.5122 74.6662 60.7185 74.748C60.9249 74.8299 60.7807 77.9611 60.7807 77.9611L56.8963 78.1445Z" fill="#C2D95A"/>
<path d="M56.8728 77.1913C56.8695 77.0799 56.8662 76.9588 56.8662 76.8408C58.1829 76.5199 59.3227 75.7567 60.1808 74.7119C60.1873 74.7119 60.1906 74.7119 60.1972 74.7119H60.2004C60.4788 74.7185 60.6721 74.7283 60.7179 74.7479C60.8031 74.7807 60.8293 75.344 60.8293 75.986C60.8293 76.3463 60.8227 76.7295 60.8129 77.0603C59.5847 77.0898 58.0748 77.1356 56.8728 77.1913Z" fill="#B8D24A"/>
<path d="M63.0599 84.966C62.7128 85.0511 55.5956 85.0839 54.9438 84.9758C54.9176 84.9725 54.9012 84.9693 54.898 84.966C54.7408 84.8415 54.7866 77.3706 54.7866 77.3706C54.7866 77.3084 55.6775 77.2462 56.873 77.1905C58.075 77.1348 59.5849 77.089 60.8131 77.0595C62.0675 77.0366 63.0305 77.03 63.0599 77.0628C63.0698 77.0726 63.0763 77.1283 63.0829 77.2265C63.1484 78.3565 63.1123 84.9529 63.0599 84.966Z" fill="#A3C23A"/>
<path d="M58.474 85.045C57.7109 85.045 56.9674 85.0418 56.3582 85.0319C55.6343 85.0221 55.1005 85.0025 54.9433 84.9763C54.9302 84.8584 54.9171 84.6815 54.9072 84.4588C55.4869 84.3998 56.0568 84.2852 56.6136 84.1116C56.7676 84.1214 56.9215 84.128 57.0755 84.128C57.3309 84.128 57.5831 84.1116 57.8353 84.0821C57.9663 84.0657 58.0908 84.0133 58.1858 83.9249C58.3725 83.7546 58.3397 83.581 58.2054 83.4205C59.2273 82.8408 60.1509 82.0252 60.9075 80.9641C61.7591 79.7522 62.0801 78.4945 62.1947 77.2171C62.2897 77.2171 62.3748 77.2139 62.4567 77.2139C62.7613 77.2139 62.9808 77.2204 63.0823 77.227C63.1085 77.6593 63.1183 78.8941 63.1183 80.2533V80.2566C63.1183 80.2599 63.1183 80.2599 63.1183 80.2631C63.1183 82.451 63.0921 84.9566 63.0594 84.9664C63.0496 84.9697 63.0266 84.973 62.9972 84.9763C62.7613 84.9992 62.008 85.0188 61.0516 85.0287C60.2721 85.0385 59.3583 85.045 58.474 85.045Z" fill="#93B431"/>
<path d="M55.418 80.5736C55.6669 80.2723 56.3383 79.4371 55.9551 79.0473C55.8896 78.9786 55.8077 78.9524 55.7226 78.9524C55.6243 78.9524 55.5195 78.9884 55.4245 79.0408C55.4442 78.4774 55.4671 78.0713 55.4966 78.0189C55.6079 77.8289 61.2643 77.8027 61.2643 77.8027C62.0733 78.0189 56.7183 78.7165 56.43 78.8246C56.3154 78.8672 56.2008 79.5321 56.0828 80.3312C55.8601 80.4033 55.6374 80.4819 55.418 80.5736Z" fill="#B2D043"/>
<path d="M77.1465 99.1482C77.1465 99.1482 77.0417 95.814 77.1662 95.7747C77.2906 95.7321 80.7624 95.6699 80.9688 95.7518C81.1751 95.8337 81.031 98.9648 81.031 98.9648L77.1465 99.1482Z" fill="#9EDED1"/>
<path d="M77.124 98.3C77.124 98.2869 77.124 98.277 77.124 98.2639C78.6077 98.2279 79.9932 98.1951 81.0609 98.1689C81.0609 98.1788 81.0576 98.1919 81.0576 98.2017C79.5477 98.2312 78.159 98.2639 77.124 98.3Z" fill="#86D6C7"/>
<path d="M85.6951 99.1486C85.6951 99.1486 85.5936 95.8143 85.7147 95.7718C85.8392 95.7325 89.3143 95.6702 89.5173 95.7521C89.7237 95.834 89.5796 98.9652 89.5796 98.9652L85.6951 99.1486Z" fill="#9EDED1"/>
<path d="M85.6693 98.126C85.6693 98.0605 85.6693 97.995 85.666 97.9262C87.1759 97.7493 88.4827 96.9207 89.5406 95.7744C89.6487 95.961 89.6356 97.2122 89.6094 98.09C88.5613 98.0932 87.1726 98.1063 85.6693 98.126Z" fill="#86D6C7"/>
<path d="M75.3293 98.4175C75.3293 98.4175 75.2343 105.888 75.5422 106.013C75.814 106.121 87.9358 105.816 90.8147 105.744C90.8868 105.741 90.9556 105.744 91.0145 105.751C91.234 105.764 91.3584 105.777 91.3683 105.509C91.4338 103.72 91.6892 98.185 91.5353 98.1097C91.3519 98.018 75.2965 98.2341 75.3293 98.4175Z" fill="#78D1C5"/>
<path d="M76.3803 106.036C76.2034 106.036 76.0528 106.032 75.9283 106.032H75.925C75.7056 106.029 75.5746 106.023 75.5451 106.013H75.5418C75.5418 106.009 75.5418 106.009 75.5418 106.009C75.5385 106.009 75.5385 106.009 75.5385 106.009C75.5353 106.009 75.5353 106.009 75.5353 106.009C75.4468 105.941 75.3912 105.233 75.3584 104.277C76.0298 104.316 76.7045 104.336 77.376 104.336C80.4318 104.336 83.4647 103.877 86.2651 102.433C88.3121 101.414 89.6943 99.865 90.7718 98.0898C91.2369 98.0931 91.512 98.0997 91.535 98.1095C91.571 98.1259 91.5841 98.4174 91.5841 98.8759C91.5841 100.474 91.4203 104.12 91.3679 105.508C91.3614 105.718 91.2828 105.757 91.1485 105.757C91.1092 105.757 91.0633 105.754 91.0142 105.751C90.9651 105.747 90.9127 105.744 90.8537 105.744C90.8439 105.744 90.8308 105.744 90.8177 105.744H90.8144C88.3645 105.806 79.2134 106.036 76.3803 106.036Z" fill="#61C9BB"/>
<path d="M75.8033 102.875C75.7083 102.875 75.7705 98.876 75.7902 98.7581C75.8098 98.6336 88.4294 98.4502 88.4294 98.4502C88.6129 98.6958 76.6941 99.2494 76.5304 99.3083C76.3633 99.3705 75.9114 102.685 75.8098 102.872C75.8065 102.875 75.8065 102.875 75.8033 102.875Z" fill="#93DAD1"/>
<path d="M68.844 91.5363C68.844 91.5363 68.7392 88.202 68.8636 88.1595C68.9881 88.1202 72.4599 88.0579 72.6662 88.1398C72.8726 88.2217 72.7285 91.3528 72.7285 91.3528L68.844 91.5363Z" fill="#D1B9E2"/>
<path d="M68.821 90.6883C68.8177 90.5704 68.8177 90.446 68.8145 90.3149C70.3244 90.1381 71.6312 89.3062 72.6858 88.1631C72.8037 88.3563 72.7808 89.709 72.7546 90.5901C71.2447 90.6195 69.856 90.6523 68.821 90.6883Z" fill="#C4A8DA"/>
<path d="M77.3926 91.5364C77.3926 91.5364 77.291 88.2022 77.4122 88.1596C77.5367 88.1203 81.0117 88.0581 81.2148 88.14C81.4211 88.2219 81.277 91.353 81.277 91.353L77.3926 91.5364Z" fill="#D1B9E2"/>
<path d="M77.3665 90.5147C77.3665 90.4492 77.3665 90.3837 77.3632 90.3149C78.8731 90.138 80.1799 89.3061 81.2378 88.163C81.3492 88.3497 81.3328 89.5976 81.3099 90.4786C80.2585 90.4819 78.8698 90.495 77.3665 90.5147Z" fill="#C4A8DA"/>
<path d="M67.0226 90.8024C67.0226 90.8024 66.9309 98.2766 67.2388 98.401C67.5106 98.5058 79.6324 98.2045 82.5114 98.1324C82.5834 98.1292 82.6522 98.1324 82.7112 98.1357C82.9306 98.1521 83.0551 98.1652 83.0649 97.8966C83.1304 96.1083 83.3859 90.5731 83.2319 90.4978C83.0485 90.4061 66.9931 90.619 67.0226 90.8024Z" fill="#9F7BC4"/>
<path d="M68.0775 98.4211C67.583 98.4211 67.2817 98.4145 67.2391 98.4014V98.3981C67.2358 98.3981 67.2358 98.3981 67.2358 98.3981C67.2358 98.3981 67.2358 98.3981 67.2325 98.3949H67.2293C67.1441 98.313 67.0884 97.6121 67.0557 96.6655C67.7271 96.7015 68.4018 96.7245 69.0732 96.7245C72.1291 96.7245 75.162 96.2626 77.9623 94.8215C80.0094 93.8029 81.3915 92.2537 82.4691 90.4785C82.5739 90.4785 82.6689 90.4785 82.754 90.4785C83.003 90.4818 83.1635 90.4883 83.2159 90.4949C83.2159 90.4949 83.2159 90.4949 83.2191 90.4949H83.2224C83.2257 90.4949 83.229 90.4982 83.2322 90.4982C83.2683 90.5145 83.2814 90.806 83.2814 91.2646C83.2814 92.8629 83.1176 96.5083 83.0652 97.897C83.0619 97.9789 83.0488 98.0313 83.0259 98.0706C82.9899 98.1296 82.9276 98.1427 82.8458 98.1427C82.8065 98.1427 82.7606 98.1394 82.7115 98.1361C82.6623 98.1361 82.6099 98.1328 82.551 98.1328C82.5379 98.1328 82.5248 98.1328 82.5117 98.1328C80.0618 98.1951 70.9139 98.4211 68.0775 98.4211Z" fill="#906BBC"/>
<path d="M67.5005 95.2638C67.4056 95.2638 67.4678 91.2647 67.4874 91.1435C67.5071 91.0223 80.1267 90.8389 80.1267 90.8389C80.3101 91.0845 68.3914 91.6348 68.2276 91.697C68.0606 91.7592 67.6086 95.0738 67.5071 95.2572C67.5038 95.2638 67.5038 95.2638 67.5005 95.2638Z" fill="#BC9CD4"/>
<path d="M88.5051 81.1142C88.5051 81.1142 88.4003 77.7767 88.5248 77.7374C88.6492 77.6948 92.121 77.6359 92.3274 77.7178C92.5337 77.7997 92.3896 80.9308 92.3896 80.9308L88.5051 81.1142Z" fill="#F8A6C7"/>
<path d="M88.4831 80.2664C88.4798 80.1485 88.4766 80.0208 88.4766 79.8931C89.9865 79.7162 91.29 78.8843 92.3479 77.7412C92.4626 77.9345 92.4429 79.2871 92.4167 80.1649C90.9068 80.1977 89.5148 80.2304 88.4831 80.2664Z" fill="#F790BB"/>
<path d="M97.0545 81.1142C97.0545 81.1142 96.9529 77.78 97.0741 77.7374C97.1986 77.6948 100.67 77.6359 100.877 77.7178C101.083 77.7997 100.939 80.9308 100.939 80.9308L97.0545 81.1142Z" fill="#F8A6C7"/>
<path d="M97.0277 80.0929C97.0277 80.0274 97.0244 79.9586 97.0244 79.8931C98.5343 79.7162 99.8411 78.8843 100.899 77.7412C101.007 77.9246 100.994 79.1758 100.968 80.0536C99.9198 80.0601 98.531 80.0732 97.0277 80.0929Z" fill="#F790BB"/>
<path d="M86.6837 80.3813C86.6837 80.3813 86.592 87.8555 86.8998 87.9767C87.1717 88.0847 99.2935 87.7834 102.172 87.7081C102.245 87.7081 102.313 87.7114 102.372 87.7146C102.592 87.731 102.716 87.7441 102.726 87.4755C102.791 85.684 103.047 80.152 102.893 80.0767C102.71 79.985 86.6542 80.1979 86.6837 80.3813Z" fill="#F4689C"/>
<path d="M87.7397 87.9985C87.2451 87.9985 86.9405 87.992 86.9012 87.9756C86.8946 87.9723 86.8881 87.9658 86.8815 87.956C86.7997 87.8282 86.7473 87.147 86.7178 86.2397C87.3892 86.279 88.0639 86.302 88.7353 86.302C90.8151 86.302 92.8851 86.0891 94.8765 85.4962C94.9846 85.529 95.109 85.5421 95.24 85.5421C95.6953 85.5421 96.2488 85.3816 96.5141 85.2277C96.2161 85.5224 95.394 86.4919 95.9606 86.7408C96.0261 86.767 96.0949 86.7801 96.1637 86.7801C96.2783 86.7769 96.3962 86.7474 96.5076 86.7081C97.6113 86.279 98.6005 85.5159 99.3931 84.6185C100.553 84.4809 101.709 84.3106 102.858 84.1075C102.809 85.434 102.754 86.7572 102.727 87.4745C102.727 87.4843 102.727 87.4942 102.724 87.504C102.711 87.6874 102.636 87.7201 102.508 87.7201C102.465 87.7201 102.423 87.7169 102.374 87.7136C102.324 87.7103 102.272 87.707 102.213 87.707C102.2 87.707 102.187 87.707 102.174 87.707C102.151 87.7103 102.128 87.7103 102.105 87.7103C102.056 87.7103 102.007 87.7136 101.954 87.7136C99.2162 87.7824 90.4942 87.9985 87.7397 87.9985ZM101.787 80.5997C101.905 80.4196 102.02 80.2394 102.131 80.0527C102.573 80.056 102.845 80.0626 102.891 80.0724C102.737 80.1477 102.58 80.223 102.426 80.2951C102.213 80.3966 102 80.4982 101.787 80.5997Z" fill="#F14883"/>
<path d="M87.1619 84.8413C87.0669 84.8413 87.1259 80.8421 87.1455 80.721C87.1685 80.5998 99.7848 80.4131 99.7848 80.4131C99.9715 80.6587 88.0495 81.2123 87.8857 81.2745C87.722 81.3367 87.27 84.6513 87.1685 84.8347C87.1652 84.838 87.1619 84.8413 87.1619 84.8413Z" fill="#F78FB5"/>
<path d="M124.819 76.0117C123.895 76.5521 122.965 77.0696 122.019 77.5642C121.753 77.7017 121.488 77.8393 121.226 77.9736C120.692 78.2421 120.158 78.5042 119.621 78.7596C119.5 78.8153 119.382 78.871 119.261 78.93C119.143 78.9824 119.025 79.038 118.907 79.0937C118.851 79.1166 118.799 79.1428 118.747 79.1658C118.498 79.2771 118.249 79.3918 118 79.4999C117.77 79.6014 117.541 79.7029 117.309 79.8012C117.227 79.8372 117.148 79.87 117.066 79.9027C116.87 79.9879 116.673 80.0697 116.477 80.1516C116.418 80.1778 116.356 80.1975 116.293 80.2237C116.094 80.3088 115.887 80.3907 115.681 80.4726C115.615 80.4988 115.547 80.525 115.481 80.5512C115.262 80.6364 115.042 80.7215 114.823 80.8067C114.774 80.8231 114.724 80.8427 114.672 80.8624C114.515 80.9246 114.358 80.9836 114.197 81.0392C113.558 81.2751 112.92 81.501 112.275 81.7139C112.104 81.7729 111.927 81.8318 111.754 81.8875C111.656 81.9203 111.554 81.953 111.452 81.9825C111.276 82.0415 111.095 82.0971 110.922 82.1528C110.837 82.179 110.752 82.2052 110.666 82.2314C110.46 82.2937 110.254 82.3559 110.047 82.4148C109.887 82.464 109.723 82.5131 109.559 82.559C109.307 82.631 109.048 82.7031 108.79 82.7751H108.786C108.767 82.7817 108.744 82.7882 108.721 82.7948C108.626 82.8177 108.531 82.8439 108.439 82.8701C105.465 83.666 102.439 84.2555 99.3929 84.6191C98.6003 85.5165 97.6112 86.2797 96.5041 86.7087C96.3305 86.7742 96.134 86.8135 95.9604 86.7415C95.3938 86.4926 96.2159 85.5231 96.514 85.2283C96.0358 85.5034 94.6045 85.8113 94.5357 85.13C94.4866 84.6322 95.443 84.3014 95.8556 84.1802C94.3818 83.9706 94.4473 83.3942 94.6012 83.1485C94.7027 82.988 94.8993 82.9192 95.0827 82.8668C95.6886 82.6965 96.3142 82.5753 96.943 82.5197C96.586 82.3657 95.6002 81.9301 95.7639 81.4093C95.8294 81.1964 96.0882 81.1408 96.3043 81.1702C97.1461 81.2849 97.9649 81.5502 98.7182 81.9465C99.3241 81.6943 99.9268 81.4388 100.529 81.1702C100.572 81.1506 100.615 81.1309 100.66 81.1113V81.1146C100.7 81.0949 100.736 81.0785 100.772 81.0589C101.031 80.9475 101.286 80.8296 101.545 80.7117C101.84 80.5741 102.134 80.4366 102.426 80.2957C102.701 80.1647 102.976 80.0337 103.248 79.8962C103.33 79.8601 103.408 79.8208 103.49 79.7783C103.677 79.6865 103.867 79.5916 104.054 79.4966C104.096 79.4769 104.132 79.4573 104.172 79.4376C104.427 79.3066 104.682 79.1756 104.935 79.0446C105.043 78.9889 105.148 78.9332 105.252 78.8776C105.511 78.74 105.77 78.5992 106.029 78.4583C106.183 78.3764 106.337 78.2946 106.49 78.2061C106.73 78.0784 106.965 77.9441 107.201 77.8098C107.355 77.7214 107.506 77.6362 107.66 77.5478C107.964 77.3742 108.266 77.1941 108.57 77.0172C108.721 76.9255 108.872 76.8371 109.022 76.7453C109.173 76.6569 109.324 76.5619 109.471 76.4702C109.622 76.3818 109.772 76.2868 109.923 76.1918C110.07 76.1034 110.221 76.0084 110.368 75.9134C110.519 75.8217 110.666 75.7267 110.814 75.6285C110.938 75.5499 111.063 75.4713 111.187 75.3894C111.371 75.2715 111.551 75.1536 111.731 75.0324C111.865 74.9439 112.003 74.8522 112.134 74.7638C112.543 74.4887 112.946 74.2136 113.342 73.9319C113.405 73.8893 113.467 73.8467 113.529 73.8009C113.64 73.7223 113.755 73.6469 113.866 73.5651C113.991 73.4766 114.112 73.3882 114.236 73.2965C114.328 73.2343 114.417 73.1688 114.505 73.1032C114.718 72.946 114.928 72.7921 115.137 72.6349C115.222 72.5726 115.307 72.5071 115.393 72.4416C116.146 71.8783 116.883 71.2986 117.607 70.7025C117.8 70.5453 117.993 70.3848 118.186 70.2243C118.209 70.2079 118.229 70.1883 118.249 70.1719C118.262 70.1719 118.265 70.1719 118.275 70.1719C121.128 70.2931 124.007 71.6621 125.985 73.7747C125.887 74.2201 125.713 74.6524 125.477 75.075C125.317 75.3534 125.13 75.6285 124.911 75.8971C124.881 75.9364 124.852 75.9724 124.819 76.0117Z" fill="#F89F82"/>
<path d="M108.721 82.7953C108.36 82.4284 107.994 82.0714 107.627 81.721C106.562 80.7842 105.35 80.044 104.057 79.4971C104.096 79.4774 104.135 79.4578 104.171 79.4381C104.427 79.3071 104.682 79.1761 104.934 79.0451C105.042 78.9894 105.147 78.9304 105.252 78.878C105.511 78.7372 105.773 78.5996 106.028 78.4588C106.182 78.3769 106.336 78.2918 106.49 78.2066C106.729 78.0756 106.965 77.9446 107.204 77.8103C107.355 77.7219 107.506 77.6367 107.663 77.5483C107.967 77.3747 108.269 77.1945 108.57 77.0144C108.721 76.926 108.871 76.8343 109.022 76.7458C109.173 76.6574 109.323 76.5624 109.471 76.4707C109.625 76.3823 109.772 76.2873 109.923 76.1923C110.07 76.1006 110.224 76.0089 110.368 75.9139C110.519 75.8222 110.666 75.7272 110.814 75.629C110.938 75.5504 111.062 75.4717 111.187 75.3899C111.367 75.272 111.55 75.154 111.727 75.0361C111.927 75.7567 112.242 76.7065 112.723 77.6236C113.355 78.8322 114.207 80.0113 114.822 80.8072C114.773 80.8235 114.724 80.8432 114.675 80.8628C114.515 80.9251 114.357 80.9808 114.197 81.0397C113.558 81.2755 112.92 81.5015 112.274 81.7144C112.107 81.7701 111.94 81.8258 111.767 81.8815C111.763 81.8815 111.757 81.8847 111.754 81.888C111.75 81.888 111.747 81.888 111.744 81.8913C111.649 81.9208 111.55 81.9535 111.452 81.983C111.275 82.0419 111.095 82.0976 110.922 82.1533C110.836 82.1795 110.751 82.2057 110.666 82.2319C110.46 82.2941 110.253 82.3531 110.05 82.4153C109.887 82.4645 109.726 82.5136 109.562 82.5594C109.307 82.6315 109.048 82.7035 108.789 82.7756C108.766 82.7822 108.744 82.7887 108.721 82.7953Z" fill="#F78F6E"/>
<path d="M125.991 73.7552C125.991 73.7618 125.991 73.7683 125.985 73.7749C125.886 74.2203 125.716 74.6526 125.477 75.0751C125.297 75.3929 125.077 75.7073 124.819 76.0119C123.685 77.358 118.157 80.7348 115.615 81.7895C115.546 81.6945 113.81 79.6966 112.723 77.6233C111.786 75.8317 111.478 73.9288 111.433 73.8043C112.238 73.3032 116.693 70.6306 117.439 70.1426C117.587 70.0443 117.738 69.9526 117.882 69.8642C117.911 69.8445 117.941 69.8282 117.97 69.8118C121.462 67.7385 124.694 67.9416 125.801 71.1022C126.125 72.0226 126.184 72.9102 125.991 73.7552Z" fill="#A3C23A"/>
<path d="M111.433 73.8035L111.436 73.8003C111.436 73.8003 111.436 73.8035 111.433 73.8035ZM111.446 73.7937H111.449C111.446 73.7937 111.446 73.7937 111.446 73.7937Z" fill="#769827"/>
<path d="M115.615 81.7893C115.589 81.75 115.268 81.3766 114.823 80.8067C114.207 80.0109 113.355 78.8318 112.723 77.6232C111.786 75.8316 111.478 73.9287 111.433 73.8042C111.436 73.8042 111.436 73.8009 111.436 73.8009H111.439V73.7977C111.442 73.7977 111.442 73.7977 111.442 73.7977C111.442 73.7977 111.446 73.7977 111.446 73.7944H111.449C111.449 73.7944 111.452 73.7944 111.452 73.7911C111.452 73.7911 111.456 73.7911 111.456 73.7878C111.459 73.7878 111.462 73.7878 111.462 73.7846C111.465 73.7846 111.465 73.7846 111.465 73.7846C111.469 73.7813 111.469 73.7813 111.472 73.778H111.475C111.475 73.778 111.478 73.7747 111.482 73.7747C111.482 73.7747 111.482 73.7747 111.482 73.7715C111.485 73.7715 111.485 73.7715 111.485 73.7715C111.488 73.7715 111.492 73.7682 111.492 73.7682C111.495 73.7649 111.495 73.7649 111.495 73.7649C111.495 73.7649 111.498 73.7649 111.498 73.7616C111.498 73.7616 111.498 73.7616 111.501 73.7616L111.505 73.7584C111.508 73.7584 111.508 73.7551 111.511 73.7551C111.708 73.6339 112.032 73.4374 112.435 73.1917C113.67 72.445 115.625 71.2659 116.725 70.5879C116.103 71.7899 115.753 73.1197 115.795 74.5084C115.743 76.7421 116.077 79.0741 116.87 81.2063C116.408 81.4389 115.979 81.6387 115.615 81.7893Z" fill="#98B834"/>
<path d="M50.2698 65.7857C49.7589 65.7857 49.2447 65.7628 48.737 65.7202C48.7337 65.7202 48.7304 65.7202 48.7272 65.7202C48.5798 65.7071 48.4357 65.694 48.2915 65.6777C41.4069 64.9145 35.2429 59.9361 32.8421 53.4904C32.8388 53.4838 32.8355 53.4773 32.8355 53.4707C32.8257 53.4511 32.8192 53.4281 32.8093 53.4052C32.7504 53.2414 32.6914 53.0744 32.6357 52.9074C32.9207 52.6846 33.1598 52.3931 33.3301 52.0853C34.2013 52.4292 35.1348 52.6388 36.065 52.7731C38.2921 58.3803 43.1756 62.7889 49.3364 64.1645C50.7382 64.4953 52.1138 64.6492 53.4567 64.6492C54.9305 64.6492 56.3684 64.4658 57.7669 64.1317C55.4546 65.2486 52.8442 65.7857 50.2698 65.7857ZM53.4927 48.0141C53.3093 48.0141 53.1193 47.9945 52.9293 47.9551C53.211 47.9158 53.496 47.8962 53.7875 47.8962C53.8661 47.8962 53.9414 47.8962 54.02 47.8995C54.0855 47.9027 54.151 47.906 54.2165 47.9126C53.984 47.9781 53.7416 48.0141 53.4927 48.0141ZM51.8649 47.5523C51.7437 47.4901 51.6225 47.4213 51.5111 47.3492C51.557 44.7159 50.4041 41.9974 47.9083 41.0902C48.3964 40.8904 48.8025 40.5465 49.0187 40.0519C49.1922 41.9057 50.6235 43.5761 52.4315 44.0412C52.7819 44.1296 53.1422 44.1722 53.5058 44.1722C55.0026 44.1722 56.5059 43.4287 57.351 42.1874C57.4328 42.5706 57.5573 42.9407 57.7178 43.2977C56.9645 44.2148 56.4273 45.3349 56.1686 46.5173C55.8574 46.8907 55.5102 47.2215 55.1303 47.4802C54.6849 47.3721 54.2165 47.3328 53.83 47.3197C53.7514 47.3165 53.6761 47.3165 53.6008 47.3165C53.0145 47.3165 52.4282 47.3918 51.8649 47.5523ZM36.0191 46.2422C35.9569 46.2422 35.8914 46.2389 35.8259 46.2324C35.6719 45.9441 35.4918 45.669 35.2822 45.4135C36.0682 45.086 36.7429 44.4866 37.136 43.7333C37.719 42.6066 37.6502 41.1721 36.9591 40.1043C37.8402 40.5596 38.826 40.9199 39.802 40.9199C40.1165 40.9199 40.4309 40.8806 40.7388 40.7987C42.0063 40.458 43.0446 39.0792 42.6122 37.8477C43.2968 38.9776 44.037 40.1633 45.1637 40.838C44.5152 40.9395 43.9027 41.1557 43.3459 41.4603C43.2476 41.2146 43.1559 40.9788 43.0577 40.7626C42.9922 41.1426 42.8775 41.5225 42.7039 41.8631C42.2618 42.1841 41.8589 42.564 41.5019 42.9866C41.4823 42.9931 41.4659 42.9997 41.4462 43.0062C41.3512 43.0193 41.2563 43.0226 41.1678 43.0226C40.0608 43.0226 39.4418 42.1677 38.5509 41.7223C38.8719 42.8457 38.7114 44.1264 38.0661 45.0893C37.5061 45.7869 36.8248 46.2422 36.0191 46.2422Z" fill="#F68665"/>
<path d="M61.6356 48.7614C61.069 48.5846 60.5351 48.3062 60.0438 47.9492C60.0536 47.5201 59.975 47.0845 59.713 46.8618C59.5787 46.7471 59.4477 46.698 59.3265 46.698C59.166 46.698 59.0219 46.7864 58.9073 46.9175C58.3537 46.3083 57.8854 45.6041 57.5186 44.877C57.6823 44.5789 57.8723 44.294 58.0786 44.0254C58.0917 44.0385 58.1016 44.0549 58.1147 44.068C58.1474 44.104 58.1802 44.1433 58.2162 44.1793C58.9007 45.1881 59.8997 45.9873 61.0493 46.4032C61.6683 46.6227 62.3201 46.7308 62.9752 46.7308C64.0069 46.7308 65.0353 46.4655 65.9295 45.9545C65.9262 45.9971 65.9262 46.043 65.9229 46.0855C65.9229 46.1216 65.9229 46.1543 65.9196 46.1903C65.9 46.7635 65.8738 47.3334 65.8443 47.9066C65.6183 48.1064 65.3727 48.28 65.1139 48.4274C64.6947 48.3455 64.2722 48.3062 63.8529 48.3062C63.2536 48.3062 62.6738 48.3913 62.1498 48.5584C61.9697 48.6173 61.7993 48.6861 61.6356 48.7614Z" fill="#F68665"/>
<path d="M60.0428 47.9494C59.6334 47.6513 59.2534 47.3042 58.9062 46.9177C59.0209 46.7867 59.165 46.6982 59.3255 46.6982C59.4467 46.6982 59.5777 46.7474 59.712 46.862C59.974 47.0847 60.0559 47.5171 60.0428 47.9494Z" fill="#23130F"/>
<path d="M58.2157 44.179C58.1797 44.143 58.147 44.1069 58.1142 44.0676C58.1011 44.0545 58.0913 44.0414 58.0782 44.0251C58.0847 44.0185 58.0913 44.0087 58.0978 44.0021C58.1371 44.0611 58.1732 44.1233 58.2157 44.179Z" fill="#B03421"/>
<path d="M62.9809 48.9673C62.5158 48.9673 62.0638 48.8952 61.6348 48.7609C61.7985 48.6856 61.9688 48.6168 62.149 48.5579C62.673 48.3908 63.2528 48.3057 63.8521 48.3057C64.2681 48.3057 64.6939 48.3482 65.1131 48.4268C64.6185 48.702 64.0716 48.8788 63.5017 48.9378C63.3248 48.9574 63.1512 48.9673 62.9809 48.9673Z" fill="#F36555"/>
<path d="M50.728 46.7477C49.5784 45.6668 48.9725 44.1307 48.3698 42.6863C48.0259 43.4822 47.6034 44.1143 46.9877 44.36C47.1318 44.265 47.2726 44.1635 47.4102 44.0554C47.6657 43.849 47.9146 43.5837 47.9473 43.2595C47.9932 42.778 47.6755 42.5979 47.1973 42.5979C46.3719 42.5979 45.0684 43.1252 44.3609 43.5281C44.0629 43.1383 43.8336 42.6667 43.6338 42.1852C44.3478 41.7823 45.1437 41.5498 45.9789 41.5498C46.5946 41.5498 47.2333 41.6775 47.8753 41.9559C49.7454 42.7682 50.633 44.7268 50.728 46.7477Z" fill="#F68665"/>
<path d="M46.3953 44.4709C46.3068 44.4709 46.2119 44.4643 46.1169 44.448C45.3243 44.448 44.7773 44.0713 44.3613 43.5276C45.0688 43.128 46.3723 42.6007 47.1977 42.6007C47.6759 42.6007 47.9936 42.7776 47.9478 43.259C47.915 43.5833 47.6661 43.8486 47.4106 44.0549C47.273 44.163 47.1322 44.2645 46.9881 44.3595C46.808 44.4316 46.6114 44.4709 46.3953 44.4709Z" fill="#B03421"/>
<mask id="mask3_195_2153" style="mask-type:luminance" maskUnits="userSpaceOnUse" x="23" y="15" width="52" height="39">
<path d="M23 15H74.9851V53.3665H23V15Z" fill="white"/>
</mask>
<g mask="url(#mask3_195_2153)">
<path d="M28.4112 49.8847C26.4919 49.413 25.3128 47.0352 26.1054 45.2338C24.4481 44.3232 23.305 42.5415 23.1707 40.6615C23.0365 38.7782 23.911 36.8556 25.4241 35.7191C23.9863 34.5793 23.3574 32.529 23.9044 30.7833C24.4547 29.0408 26.148 27.7143 27.9821 27.5931C27.3598 26.437 27.4122 24.95 28.1131 23.8397C28.814 22.7294 30.1372 22.0383 31.4539 22.094C31.6963 21.0459 32.597 20.1812 33.6582 19.9749C34.7161 19.7685 35.8788 20.2336 36.5011 21.1147C36.7468 18.2193 39.2261 15.6712 42.1215 15.3338C45.0201 14.9997 48.0235 16.9092 48.9308 19.6703C49.7987 17.7903 51.6427 16.2935 53.7159 16.1886C55.7892 16.0806 57.9279 17.6101 58.1703 19.6637C58.9662 17.8165 61.2884 16.7782 63.2044 17.4136C65.1204 18.049 66.3519 20.2664 65.877 22.2217C67.5834 21.6977 69.5846 22.3494 70.6524 23.7742C71.7201 25.1989 71.7758 27.2951 70.7867 28.7755C72.9975 29.4371 74.6515 31.6217 74.6842 33.921C74.7137 36.2202 73.1219 38.4474 70.9308 39.1712C72.3686 40.3896 72.6863 42.7249 71.6219 44.2774C70.5574 45.8299 68.2647 46.3932 66.5976 45.5056C65.0615 46.7109 62.89 47.0614 61.0493 46.403C59.2086 45.7414 57.7609 44.0907 57.3515 42.1878C56.3034 43.7271 54.24 44.5034 52.432 44.0416C50.6241 43.5765 49.1928 41.9061 49.0192 40.0523C48.4559 41.3362 46.6184 41.6015 45.3705 40.953C44.1259 40.3045 43.3399 39.0468 42.6128 37.848C43.0451 39.0828 42.0068 40.4584 40.7393 40.799C39.4751 41.143 38.1256 40.7073 36.9596 40.1047C37.6507 41.1724 37.7195 42.607 37.1365 43.7337C36.5535 44.8604 35.3384 45.6334 34.0643 45.6923C34.6309 46.2688 34.8274 47.1793 34.5458 47.9359C34.2608 48.6925 33.5173 49.2558 32.7083 49.3246C33.4944 49.2558 33.632 51.2406 33.5042 51.6697C33.2651 52.4688 32.4627 53.2713 31.6013 53.3532C29.9342 53.5137 27.7365 51.6107 28.4112 49.8847Z" fill="#E3653C"/>
</g>
<path d="M61.393 22.0642C59.8602 21.6744 58.2225 22.4375 57.3775 23.7214C57.2268 22.2967 56.5128 20.9604 55.0586 20.456C53.6601 19.968 52.1403 20.6329 51.6425 22.0347C51.5901 22.1821 51.8194 22.241 51.875 22.0969C52.4318 20.6853 54.0858 20.2234 55.3861 20.9276C56.6406 21.6089 57.1515 23.0304 57.0434 24.3929C57.0303 24.573 57.3054 24.6418 57.3873 24.4846C58.0358 23.2269 59.2935 22.2934 60.7707 22.3917C61.5666 22.4474 62.464 22.8568 62.6703 23.6985C62.8963 24.609 62.2708 25.4606 61.8024 26.1779C61.6255 26.4497 62.0415 26.6692 62.2282 26.4268C63.3909 24.9169 63.6464 22.6406 61.393 22.0642Z" fill="#CF5534"/>
<path d="M69.0566 31.3267C68.9223 31.2809 68.8274 31.4938 68.9584 31.5527C70.0883 32.0669 70.8875 33.1838 70.727 34.4546C70.5502 35.8401 69.2531 36.7833 67.8972 36.7375C67.7039 36.7342 67.6057 36.9864 67.74 37.1174C68.6145 37.9788 70.0392 39.4232 69.4497 40.7857C69.1189 41.5521 68.1461 41.7355 67.3928 41.8207C66.5117 41.9222 65.6143 41.7552 65.0706 40.9888C64.897 40.7464 64.4843 40.884 64.5695 41.1984C65.0182 42.8557 62.7223 43.4976 62.1491 41.8993C62.0344 41.5751 61.5399 41.6995 61.625 42.0434C61.8674 43.0064 62.8991 43.6778 63.8915 43.3896C64.6186 43.1799 65.0673 42.5314 65.1525 41.8305C65.6438 42.1974 66.2432 42.3742 66.8982 42.3775C67.7662 42.3775 68.9256 42.1646 69.5545 41.5227C70.8744 40.1765 69.4922 38.2638 68.4016 37.1436C69.7379 36.9405 70.9104 35.9154 71.0807 34.5267C71.2511 33.1478 70.3635 31.7722 69.0566 31.3267Z" fill="#CF5534"/>
<path d="M54.2163 36.9935C53.987 37.5208 53.7545 38.1038 53.3614 38.5394C52.69 39.2829 51.6812 39.1977 50.941 38.6049C49.7684 37.6649 49.359 36.0174 49.4311 34.5861C49.4409 34.3765 49.1658 34.2815 49.025 34.4191C48.2651 35.1593 47.2825 36.0993 46.1132 35.8013C45.1143 35.5458 44.492 34.4879 44.2693 33.5577C44.2365 33.4136 44.0334 33.4791 44.0531 33.6167C44.207 34.7008 44.8883 35.8569 46.0084 36.1812C47.1253 36.5054 48.1275 35.8438 48.9431 35.1298C48.9857 36.7838 49.7226 38.69 51.2882 39.3942C53.0634 40.1934 54.1835 38.6868 54.7207 37.2031C54.8255 36.9149 54.3407 36.7052 54.2163 36.9935Z" fill="#CF5534"/>
<path d="M35.8001 22.6773C35.358 21.7996 34.2608 21.5867 33.4976 22.1992C32.7738 22.7756 32.669 23.6567 32.9179 24.4624C32.0794 24.0693 31.0608 24.2495 30.4876 25.1076C29.7769 26.1819 30.3042 27.5084 31.4473 27.9833C31.6536 28.0684 31.7977 27.7213 31.6012 27.6263C30.7693 27.2169 30.2944 26.2801 30.8021 25.4253C31.3327 24.5312 32.515 24.4853 33.2421 25.1666C33.4059 25.3205 33.6778 25.124 33.5598 24.9242C33.1504 24.2266 32.9965 23.316 33.5729 22.661C34.1363 22.0223 35.132 22.0649 35.5872 22.7985C35.6691 22.9361 35.8689 22.8149 35.8001 22.6773Z" fill="#CF5534"/>
<path d="M29.7995 36.1607C28.2864 36.295 26.426 36.8485 26.128 38.5811C25.8496 40.222 27.2776 41.3651 28.5058 42.1806C27.8999 42.816 27.4053 43.6643 27.6706 44.5618C27.9031 45.3478 28.6597 45.8751 29.472 45.6852C29.7537 45.6229 29.6292 45.2135 29.3541 45.2627C28.4763 45.4166 27.9392 44.5225 28.0898 43.7593C28.2078 43.1796 28.5746 42.708 28.9807 42.292C29.079 42.1937 29.0495 42.0398 28.9381 41.9677C27.8147 41.2406 26.3179 40.2286 26.5505 38.6826C26.7863 37.1334 28.4992 36.6094 29.8323 36.4063C29.9698 36.3834 29.9404 36.1476 29.7995 36.1607Z" fill="#CF5534"/>
<path d="M46.101 22.0582C45.613 20.3288 43.9852 18.1573 41.9382 19.2644C41.1226 19.7033 40.5855 20.5417 40.2776 21.39C40.0778 21.937 39.7765 23.0473 40.5003 23.3388C40.6739 23.4076 40.7886 23.1259 40.6281 23.0408C40.0189 22.7198 40.8148 21.1902 41.0473 20.807C41.3945 20.2437 41.8694 19.7065 42.5343 19.5198C44.2571 19.0384 45.1971 20.8791 45.6425 22.1826C45.7375 22.4709 46.1862 22.3562 46.101 22.0582Z" fill="#CF5534"/>
<path d="M34.912 71.8817C36.1304 75.7203 38.1348 81.4226 39.8347 84.4653C40.4406 85.5527 41.0105 86.2994 41.4887 86.5025L41.4822 86.5123C41.9341 86.6466 42.4123 86.663 42.8774 86.5582C45.252 86.0243 51.4062 84.5996 54.2099 83.558C55.3595 84.0068 56.627 84.2295 57.8356 84.0821C57.9666 84.0657 58.0911 84.0133 58.1861 83.9249C58.7166 83.4336 57.4655 82.9128 57.0528 82.7818C57.6063 82.808 59.0147 82.4281 58.7625 81.7927C58.5758 81.3276 57.5736 81.4684 57.1478 81.5503C58.3662 80.6922 58.0419 80.2107 57.7897 80.0633C57.6227 79.9651 57.4196 79.9913 57.2362 80.0306C56.6139 80.155 56.0047 80.3352 55.4184 80.5743C55.6674 80.2729 56.3388 79.4377 55.9556 79.048C55.7984 78.8875 55.5429 78.9563 55.3628 79.0807C54.6717 79.5688 54.0625 80.178 53.5777 80.8723C51.1213 81.0819 48.6223 81.1671 46.1068 81.1278C46.0774 81.1278 46.0479 81.1278 46.0184 81.1245C45.0424 78.1473 44.2465 75.1078 43.6668 72.0684C43.1231 71.3118 42.5237 70.6273 41.8654 70.0901C39.6644 69.3696 37.1162 70.0803 35.1642 71.1513C35.0594 71.3839 34.9775 71.6262 34.912 71.8817Z" fill="#F89F82"/>
<path d="M47.0636 81.1343C46.7427 81.1343 46.425 81.131 46.1073 81.1277C46.425 81.131 46.7459 81.1343 47.0636 81.1343Z" fill="#8FD2D5"/>
<path d="M47.2796 81.1372C47.2075 81.1372 47.1355 81.1372 47.0634 81.1339C47.106 81.1339 47.1519 81.1339 47.1944 81.1339C47.3091 81.1339 47.4204 81.1339 47.5351 81.1339C47.4499 81.1372 47.3648 81.1372 47.2796 81.1372Z" fill="#7EC7CE"/>
<path d="M42.2682 86.6269C42.0095 86.6269 41.7507 86.5909 41.5018 86.5188C41.4985 86.5156 41.4953 86.5156 41.4953 86.5156C41.4887 86.5156 41.4854 86.5123 41.4822 86.5123L41.4887 86.5025C41.0203 86.3027 40.4668 85.5854 39.874 84.534C40.814 84.1737 42.1962 83.5678 43.8567 82.6278C44.5576 82.2282 45.3601 81.5764 45.9889 81.0295C45.9988 81.0622 46.0086 81.095 46.0184 81.1245C46.0479 81.1277 46.0774 81.1277 46.1068 81.1277C46.4245 81.131 46.7422 81.1343 47.0632 81.1343C47.1353 81.1376 47.2073 81.1376 47.2794 81.1376C47.3646 81.1376 47.4497 81.1376 47.5349 81.1343C46.1396 82.7752 44.9015 84.5078 43.8502 86.3387C43.729 86.3682 43.6111 86.3944 43.4997 86.4206C43.2705 86.4697 43.0641 86.5188 42.8774 86.5581C42.8742 86.5614 42.8709 86.5614 42.8676 86.5614C42.6711 86.6073 42.468 86.6269 42.2682 86.6269Z" fill="#F78F6E"/>
<path d="M38.5352 84.9919C38.5352 84.9919 40.6936 84.422 43.8575 82.6271C45.2102 81.8574 46.9231 80.1641 47.0771 80.056C47.2343 79.9479 46.0061 75.3331 43.6675 72.0676C43.1238 71.311 42.5245 70.6265 41.8661 70.0894C40.5658 69.0216 39.0461 68.5238 37.3299 69.1559C36.249 69.5555 35.5612 70.2564 35.1649 71.1506C35.0601 71.3831 34.9782 71.6255 34.9127 71.8809C33.7009 76.581 38.5352 84.9919 38.5352 84.9919Z" fill="#68BBC0"/>
<path d="M38.5346 84.9923C38.5281 84.9825 38.325 84.6255 38.0138 84.0294C38.3184 83.8198 38.6198 83.6004 38.9145 83.3776C42.0424 80.7803 44.0895 77.2103 44.4596 73.2898C46.1693 76.1884 47.0995 79.5292 47.0896 80.0008V80.0041C47.0896 80.0074 47.0896 80.0074 47.0896 80.0074C47.0896 80.0107 47.0896 80.0107 47.0896 80.0107V80.0139C47.0896 80.0172 47.0896 80.0172 47.0896 80.0172V80.0205C47.0896 80.0238 47.0896 80.0238 47.0896 80.0238C47.0896 80.0336 47.0864 80.0401 47.0831 80.0467C47.0831 80.05 47.0831 80.05 47.0831 80.05C47.0831 80.05 47.0831 80.05 47.0831 80.0532C47.0831 80.0532 47.0831 80.0532 47.0798 80.0532C47.0798 80.0565 47.0798 80.0565 47.0798 80.0565C47.0765 80.0565 47.0765 80.0565 47.0765 80.0565C47.0045 80.1089 46.5689 80.5249 45.9891 81.0293C45.3603 81.5762 44.5578 82.228 43.8569 82.6276C42.1964 83.5676 40.8142 84.1735 39.8742 84.5338C39.0226 84.8646 38.5346 84.9923 38.5346 84.9923Z" fill="#59ADB5"/>
<path d="M40.5026 46.6615C41.1151 43.3567 44.4264 40.4515 47.8786 41.9549C50.7379 43.2028 51.3012 47.1298 50.2335 49.8712C49.4736 51.3713 48.1242 52.6585 46.4342 52.8484C44.6459 53.0515 42.6643 52.6323 41.4918 51.1977C41.3542 51.0339 41.2199 50.8669 41.0955 50.69C41.007 50.5623 40.9219 50.4313 40.8531 50.2905C40.3029 49.2129 40.2898 47.8242 40.5026 46.6615ZM56.7807 46.9005C57.3899 43.5991 60.7012 40.6939 64.1534 42.1973C67.016 43.4419 67.576 47.3689 66.5116 50.1103C65.7484 51.6104 64.4023 52.9008 62.7123 53.0908C60.9207 53.2906 58.9392 52.8746 57.7666 51.4401C57.6323 51.2763 57.4948 51.106 57.3703 50.9324C57.2819 50.8047 57.1967 50.6704 57.1279 50.5328C56.581 49.452 56.5646 48.0633 56.7807 46.9005ZM31.7151 47.0479C33.1529 47.3263 34.6661 47.3722 36.1236 47.5261C37.342 47.6571 38.5244 47.8471 39.7199 48.0698C39.7723 49.7959 40.4502 51.5842 41.9667 52.5307C43.0148 53.3496 44.4919 53.7066 45.7758 53.7164C48.0751 53.7328 50.0468 52.3735 50.9278 50.261C51.1768 49.6616 51.3471 49.0065 51.4355 48.3286H51.4388C52.2903 48.0338 53.1157 47.8668 54.0197 47.8995C54.7042 47.9257 55.3364 48.191 55.9947 48.2663C56.0373 50.0055 56.712 51.8167 58.2415 52.7698C59.2896 53.5919 60.7668 53.9457 62.0507 53.9555C64.3499 53.9751 66.3216 52.6159 67.2027 50.5034C68.6372 47.0578 67.4778 41.7715 63.2396 41.0869C59.211 40.4352 56.1519 44.0674 55.998 47.8144C55.3822 47.4442 54.4913 47.3427 53.8297 47.3198C53.0404 47.2903 52.2412 47.4049 51.4977 47.6702C51.6648 44.6275 50.2269 41.3719 46.9648 40.8446C42.9493 40.1961 39.8934 43.8054 39.7264 47.536C38.7111 47.0512 37.4534 46.989 36.3725 46.8416C34.843 46.632 33.261 46.3536 31.7151 46.3634C31.2991 46.3667 31.3581 46.9792 31.7151 47.0479Z" fill="#5CB1B1"/>
<path d="M36.1729 47.0058C35.8651 46.1706 35.3836 45.3845 34.6892 44.8245C33.9982 44.2611 33.0844 43.9402 32.2 44.0613C30.6672 44.2742 29.5372 45.83 29.5372 47.3726C29.5372 48.9186 30.4871 50.3531 31.7513 51.2473C33.0156 52.1382 34.5582 52.5574 36.0911 52.7768C36.2384 50.7593 36.8706 48.9087 36.1729 47.0058Z" fill="#F89F82"/>
<path d="M34.6469 48.552C34.1884 47.8772 33.5726 47.2844 32.816 46.97C32.2953 46.7538 31.6107 46.7112 31.2406 47.137C30.9098 47.517 30.9786 48.0934 31.1358 48.5716C31.5845 49.9145 32.6163 51.0477 33.9133 51.6209C34.565 51.9091 35.6688 52.027 35.7409 51.087C35.7965 50.3042 35.0563 49.1612 34.6469 48.552Z" fill="#CC654F"/>
<path d="M35.6395 51.4408C34.693 49.492 33.147 47.9166 31.1426 47.2779C31.1688 47.2288 31.1983 47.1862 31.2343 47.1436C31.2343 47.1404 31.2376 47.1404 31.2408 47.1338C31.4439 46.9013 31.742 46.8096 32.0564 46.8096C32.3119 46.8096 32.5804 46.8718 32.8162 46.9701C33.5728 47.2845 34.1886 47.8773 34.6471 48.552C35.0434 49.1383 35.7443 50.2191 35.7443 50.9986C35.7443 51.0281 35.7411 51.0576 35.7411 51.0871C35.7411 51.0871 35.7411 51.0871 35.7378 51.0904C35.728 51.2312 35.6919 51.3425 35.6395 51.4408Z" fill="#C55043"/>
</svg>
