<svg width="180" height="145" viewBox="0 0 180 145" fill="none" xmlns="http://www.w3.org/2000/svg">
<path fill-rule="evenodd" clip-rule="evenodd" d="M68.357 61.6328C64.7086 55.1057 60.8645 46.1546 58.5139 39.6135C46.8029 44.0384 51.623 59.2332 67.1607 61.3635C67.5734 61.4369 67.9722 61.5279 68.357 61.6328ZM86.5845 72.847C88.197 77.3174 90.8729 84.2257 91.478 91.134C92.1566 99.1687 90.3237 107.158 85.2238 110.547L86.616 115.577L100.807 111.646L104.028 110.757L118.205 106.805L116.803 101.761C110.695 101.491 105.004 95.5869 101.458 88.3532C98.4109 82.1375 97.1551 74.8303 96.2247 70.1677L91.5375 71.9726L91.611 72.2104L91.5235 71.9726L86.5845 72.847ZM105.211 59.2927C103.245 70.4195 84.7376 76.5163 75.2758 70.465C75.4262 71.4269 75.4262 72.2384 75.2163 72.5952C74.5517 73.718 71.9213 74.1343 70.739 73.718C67.528 72.6232 70.4872 70.8777 70.4872 68.9119C70.4872 68.5271 70.3682 68.1704 70.1024 67.859C69.5567 67.2084 68.4759 66.6768 66.6885 66.3969C45.0155 63.1124 39.6357 40.6664 57.0937 35.3076C57.0063 35.0418 56.9293 34.79 56.8699 34.5381C56.576 33.5167 66.3317 29.9069 78.6478 26.4755C90.9603 23.0545 101.178 21.1202 101.458 22.1556C103.969 31.2256 106.837 50.0897 105.211 59.2927Z" fill="#EAB40A"/>
<mask id="mask0_234_4388" style="mask-type:luminance" maskUnits="userSpaceOnUse" x="32" y="77" width="81" height="59">
<path d="M32.0519 77.8799H112.073V135.791H32.0519V77.8799Z" fill="white"/>
</mask>
<g mask="url(#mask0_234_4388)">
<path fill-rule="evenodd" clip-rule="evenodd" d="M91.6106 94.7157C93.5484 92.0083 98.456 96.8914 100.509 98.8747C106.113 104.335 108.285 101.582 112.028 100.414C110.59 99.6722 109.188 98.6508 107.886 97.409L107.785 97.5734L106.351 98.357C103.853 99.7596 101.929 96.9228 104.28 95.3208L105.819 94.2714L106.704 92.3931L105.256 93.9321L102.594 95.1319C99.8166 96.3877 98.2041 92.9842 100.866 91.4906L103.57 89.9655L104.784 88.5174L103.217 89.5528L99.4319 91.1933C96.6231 92.4245 94.9826 88.7238 97.7004 87.2861L101.636 85.1874L103.955 83.0117L101.279 84.8306L98.2041 85.838C95.6926 86.681 94.1256 83.1586 96.4762 82.0358L96.8889 81.8434C98.0432 82.4066 99.6103 83.0397 100.807 82.9837C101.915 82.9243 102.699 81.9309 103.185 80.9829L103.217 80.941L103.231 80.9095V80.8955L103.245 80.8675L103.276 80.822L103.29 80.7766L103.364 80.6296L103.378 80.5842L103.391 80.5702V80.5422L103.423 80.5107L103.437 80.4687L103.451 80.4233L103.482 80.3638C102.521 81.1788 100.981 82.0638 99.4179 81.3852C98.1027 80.808 96.8574 79.979 95.9445 79.283L95.899 79.255L95.885 79.2375L95.8535 79.2235L95.8081 79.1955L95.7801 79.164L95.7346 79.136L95.7066 79.1046L95.6926 79.0906L95.6611 79.0626L95.6332 79.0451L95.6157 79.0311L95.5562 78.9856L95.5422 78.9716L95.5002 78.9437L95.4863 78.9262H95.4688L95.4268 78.8982L95.4093 78.8667H95.3953L95.3673 78.8387L95.3358 78.8247L95.2309 78.7198L95.2029 78.7058H95.1889L95.1574 78.6778L95.1295 78.6463L95.1015 78.6323L95.084 78.6009H95.07L95.042 78.5729L95.0245 78.5589H95.0105L94.9826 78.5274L94.9231 78.4679H94.9091L94.8776 78.44L94.8636 78.4225L94.8321 78.3945L94.8182 78.3805L94.7902 78.3665L94.7307 78.307L94.6992 78.293L94.6712 78.2616L94.6572 78.2476L94.6258 78.2336V78.2161H94.6118L94.5663 78.1741V78.1566H94.5523L94.5243 78.1286H94.5068V78.1147H94.4929V78.1007H94.4789V78.0867H94.4649V78.0692H94.4474L94.2865 80.3323L90.1345 81.5776C90.1345 81.5776 92.8978 83.7498 91.8484 89.2415L91.831 89.3604H91.817V89.3884L91.803 89.4478V89.4793L91.775 89.5668V89.6122L91.7435 89.6997V89.7277L91.7295 89.7452V89.7731L91.7155 89.7871V89.8326L91.698 89.8641L91.684 89.9061V89.9375H91.67V89.9655L91.6561 90.011V90.025L91.6421 90.0705L91.6281 90.0984V90.1124L91.6106 90.1299L91.5966 90.1719V90.2034L91.5826 90.2174V90.2314L91.5686 90.2768L91.5511 90.2908V90.3223L91.5371 90.3363C90.8271 92.1867 89.3509 93.1766 87.8993 93.7118C87.9308 93.7537 87.9763 93.8132 88.0497 93.8587L88.0777 93.8727C88.1092 93.9007 88.1372 93.9321 88.1826 93.9461L88.1966 93.9601H88.2106C88.2421 93.9916 88.2701 94.0056 88.2981 94.0196L88.3296 94.0371L88.389 94.079L88.4345 94.0965L88.4625 94.1105L88.4905 94.1385H88.508L88.5359 94.1525L88.5674 94.17H88.5814L88.6689 94.226L88.6828 94.2434H88.7143L88.7283 94.2574H88.7423L88.7738 94.2714L88.8018 94.2854V94.3029H88.8158L88.8472 94.3169L88.8752 94.3309V94.3449L88.9522 94.3764L88.9942 94.4044L89.0082 94.4183H89.0221L89.0536 94.4358V94.4498H89.0816L89.0991 94.4638L89.1586 94.5093L89.1865 94.5233L89.2005 94.5408L89.218 94.5513H89.232L89.246 94.5688V94.5827L89.3055 94.6107L89.3195 94.6422L89.3509 94.6562L89.3649 94.6877H89.3789L89.3929 94.7017L89.4069 94.7297H89.4244V94.7471L89.4384 94.7611V94.7751H89.4524V94.7891L89.4664 94.8066V94.8346H89.4804V94.8626L89.4979 94.8941V94.936C89.4804 96.9788 88.7003 99.8051 88.1092 101.683C85.9195 102.187 83.8942 98.5319 83.8942 98.5319C83.8942 98.5319 83.0827 102.883 81.4387 104.156C80.0675 105.206 44.0112 124.857 32.0519 131.367V135.791L82.3412 106.776C82.3412 106.776 86.2448 104.779 88.1092 104.779C88.4345 104.779 89.0082 104.748 89.7637 104.702C90.061 104.006 90.3094 103.296 90.5332 102.544C90.5472 102.457 90.5752 102.366 90.6067 102.278C90.6347 102.142 90.6801 102.012 90.7081 101.879L90.7256 101.862L90.7536 101.743V101.715L90.7676 101.669C90.7991 101.568 90.8271 101.449 90.841 101.33L90.8585 101.299L90.8865 101.169L90.9005 101.124L90.918 101.019L90.932 100.991L90.946 100.914V100.872L90.96 100.854L91.0054 100.648V100.589L91.0194 100.575L91.0334 100.501C91.3902 98.6683 91.5826 96.713 91.6106 94.7157Z" fill="#B9612F"/>
</g>
<path fill-rule="evenodd" clip-rule="evenodd" d="M81.3657 116.085L122.595 104.629L127.562 122.563L86.3467 134.001L81.3657 116.085Z" fill="#1F193D"/>
<path fill-rule="evenodd" clip-rule="evenodd" d="M89.7363 119.589L117.23 111.954L119.196 119.04L91.7161 126.676L89.7363 119.589Z" fill="#EAB40A"/>
<mask id="mask1_234_4388" style="mask-type:luminance" maskUnits="userSpaceOnUse" x="32" y="73" width="78" height="59">
<path d="M32 73.7498H109.797V131.955H32V73.7498Z" fill="white"/>
</mask>
<g mask="url(#mask1_234_4388)">
<path fill-rule="evenodd" clip-rule="evenodd" d="M96.4772 82.0363L96.8899 81.8439C98.0443 82.4071 99.6113 83.0402 100.808 82.9842C102.168 82.9107 103.025 81.4276 103.483 80.3643C102.522 81.1793 100.982 82.0643 99.4189 81.3857C96.8165 80.2454 94.4484 78.0697 94.4484 78.0697L94.2875 80.3328L90.1355 81.5781C90.1355 81.5781 92.8988 83.7502 91.8495 89.2419C91.3598 91.8164 89.6178 93.0756 87.9004 93.7122C88.1102 94.0795 89.4989 94.4643 89.4989 94.9365C89.4814 96.9793 88.7014 99.8056 88.1102 101.684C85.9206 102.188 83.8953 98.5323 83.8953 98.5323C83.8953 98.5323 83.0838 102.884 81.4398 104.157C80.0686 105.206 44.0123 124.857 32.053 131.367V108.995L76.046 91.3582L76.1929 91.3267C77.2878 90.795 78.3511 90.1444 78.9597 89.4483C80.5828 87.5839 82.0904 79.6997 84.0562 77.9507C86.0535 76.2053 93.6229 73.5714 96.4317 73.8827C98.3381 74.1065 101.385 76.5621 103.127 78.1011C104.162 77.4785 105.596 78.2935 106.054 79.4443C106.411 80.3328 106.1 81.1793 105.463 81.8579C107.163 81.4871 108.611 84.0476 107.489 86.2687C108.835 86.5031 110.119 88.7977 108.02 91.0154L107.859 91.1798C109.115 91.0608 110.728 93.1316 109.087 95.6326L107.786 97.5739L106.352 98.3575C103.854 99.7601 101.93 96.9233 104.281 95.3213L105.82 94.2719L106.705 92.3935L105.257 93.9326L102.595 95.1324C99.8177 96.3881 98.2052 92.9847 100.867 91.4911L103.571 89.966L104.785 88.5179L103.218 89.5532L99.4329 91.1938C96.6241 92.425 94.9836 88.7242 97.7015 87.2866L101.637 85.1879L103.956 83.0122L101.28 84.8311L98.2052 85.8385C95.6937 86.6815 94.1266 83.1591 96.4772 82.0363Z" fill="#F8A66A"/>
</g>
<path fill-rule="evenodd" clip-rule="evenodd" d="M72.3798 92.8372C72.3798 92.8372 77.3328 91.3261 78.9593 89.4478C80.5823 87.5834 82.0899 79.6991 84.0557 77.9502C86.053 76.2047 93.6225 73.5708 96.4313 73.8821C98.0858 74.0885 100.601 75.9529 102.374 77.45C102.36 77.45 96.9035 75.005 95.8401 75.0959C95.2315 75.1554 91.877 76.2957 89.1417 77.464C85.2835 79.136 84.9582 79.4893 83.8214 83.5293C83.0378 86.3556 82.3872 89.6681 81.7366 90.2313C81.0405 90.8259 76.3849 92.1097 73.2088 92.9387L72.3798 92.8372Z" fill="#FAC38A"/>
<path d="M102.892 27.2133C115.516 24.5514 119.433 40.2954 107.103 50.2539C106.659 50.6212 106.246 51.0374 105.893 51.4642C105.774 43.8003 104.413 34.286 102.892 27.2133ZM82.6984 72.7733V72.7873L84.6327 76.2048C84.8251 76.5616 85.1084 76.8274 85.4617 77.0338C88.4174 75.4073 94.0805 73.6163 96.4311 73.8822C96.8893 73.9416 97.407 74.12 97.9667 74.3859C98.8272 73.7632 99.3448 73.0252 99.3134 72.1052L99.2084 68.2611C101.65 66.5156 103.588 64.3399 104.665 61.8214C105.078 62.9198 105.55 63.8047 105.98 64.0286C107.135 64.6477 109.573 63.6578 110.402 62.6679C112.574 60.076 109.16 60.1215 108.139 58.4215C107.932 58.0962 107.841 57.7114 107.918 57.3266C108.037 56.4837 108.702 55.4588 110.076 54.3219C127.104 40.1905 119.905 17.9369 101.856 22.8339C101.797 22.5995 101.737 22.3757 101.678 22.1553C101.531 21.6656 99.2084 21.844 95.5007 22.5086C99.107 38.9627 102.461 59.2645 98.6033 68.5269C94.126 71.5876 88.0781 73.2036 82.6984 72.7733ZM116.803 101.76L98.5298 107.203L102.549 110.208L117.954 105.916L116.803 101.76Z" fill="#BB8804"/>
<path fill-rule="evenodd" clip-rule="evenodd" d="M47.5728 80.4095C48.7551 80.7173 49.4057 81.4729 49.0069 82.078C48.6396 82.7006 47.3664 82.97 46.1841 82.6587C45.0018 82.3474 44.3512 81.5918 44.75 80.9552C45.1208 80.3326 46.3905 80.0807 47.5728 80.4095ZM51.0462 70.8183L56.6498 69.1638L50.2207 68.2438L51.0462 70.8183ZM54.7889 34.6116L49.8044 32.3345L48.5067 34.6431L52.274 35.2342L54.7889 34.6116ZM81.9886 23.3833L79.7569 17.374L83.3912 16.7968V21.547L81.9886 23.3833ZM123.704 35.8254L125.111 34.7165L125.569 36.5494L122.994 36.5949L123.704 35.8254ZM116.684 53.2729L123.855 50.548L123.603 53.1819L117.349 54.1893L116.684 53.2729ZM111.539 81.0881L115.603 83.7815L114.11 84.9498L110.517 80.7488L111.539 81.0881ZM76.0736 75.3761L71.3305 80.1122L74.1673 81.3854L76.6088 76.1001L76.0736 75.3761Z" fill="#B9612F"/>
<path fill-rule="evenodd" clip-rule="evenodd" d="M120.468 82.2424L126.38 86.4748L123.868 87.5102L119.832 83.5296L120.468 82.2424ZM129.28 58.5826C130.49 58.1104 131.732 58.4777 132.102 59.4116C132.456 60.3281 131.791 61.4544 130.595 61.9126C129.395 62.3848 128.139 62.0176 127.769 61.0976C127.415 60.1812 128.08 59.0549 129.28 58.5826ZM144.859 68.1424C145.996 68.5411 146.591 69.3562 146.16 69.9473C145.73 70.5384 144.446 70.6854 143.292 70.2726C142.124 69.8878 141.547 69.0728 141.991 68.4957C142.418 67.8905 143.705 67.7401 144.859 68.1424ZM123.305 49.0998L131.378 48.4912L130.238 45.8888L123.735 47.7077L123.305 49.0998ZM133.299 40.4111C134.481 40.7679 135.104 41.5374 134.687 42.146C134.275 42.7652 132.987 42.9715 131.819 42.6008C130.654 42.2475 130.032 41.4779 130.444 40.8553C130.861 40.2502 132.13 40.0578 133.299 40.4111ZM140.263 42.2615C141.386 41.8312 142.362 42.0551 142.418 42.7966C142.449 43.5207 141.578 44.4686 140.424 44.9129C139.301 45.3396 138.325 45.1018 138.28 44.3777C138.238 43.6396 139.109 42.6917 140.263 42.2615ZM134.971 50.8453C136.121 50.4011 137.083 50.6354 137.143 51.377C137.188 52.101 136.3 53.049 135.163 53.4792C134.023 53.9234 133.064 53.6856 133.005 52.9615C132.959 52.22 133.848 51.272 134.971 50.8453ZM122.049 33.2964L125.894 29.2703L127.919 31.5334L122.049 33.2964ZM123.557 24.6845L126.32 21.4455L127.52 22.7467L123.557 24.6845ZM125.642 63.4517L132.781 64.9733L130.875 66.9146L125.596 64.8719L125.642 63.4517ZM108.523 66.25L114.924 69.664L112.574 71.0107L108.065 67.5792L108.523 66.25Z" fill="#F7A42E"/>
<path fill-rule="evenodd" clip-rule="evenodd" d="M57.979 90.868C58.9864 91.564 59.3396 92.4805 58.7625 92.9562C58.2028 93.4004 56.9156 93.2046 55.9117 92.526C54.8903 91.8299 54.551 90.9134 55.1142 90.4377C55.6878 89.9935 56.9751 90.1894 57.979 90.868Z" fill="#EEC238"/>
<path fill-rule="evenodd" clip-rule="evenodd" d="M71.2707 106.241C72.6453 106.182 73.6073 106.79 73.3834 107.588C73.177 108.389 71.8898 109.085 70.5011 109.144C69.1264 109.186 68.1645 108.581 68.3709 107.78C68.5948 106.997 69.8785 106.287 71.2707 106.241Z" fill="#F1CD5E"/>
<path fill-rule="evenodd" clip-rule="evenodd" d="M54.7714 27.5843L52.0676 24.1074L54.5651 22.3759L55.2017 26.444L54.7714 27.5843ZM62.5193 15.4676C63.6561 15.0058 64.632 15.2157 64.709 15.9538C64.7649 16.6778 63.9079 17.6572 62.7851 18.1155C61.6448 18.5737 60.6724 18.3673 60.6129 17.6398C60.5395 16.9157 61.3965 15.9398 62.5193 15.4676ZM54.0474 10.4656C54.9498 9.4302 56.1776 9.02794 56.8282 9.5911C57.5068 10.1403 57.3144 11.4275 56.4434 12.4629C55.541 13.4983 54.3132 13.897 53.6626 13.3513C52.984 12.7882 53.1764 11.501 54.0474 10.4656ZM41.4829 43.5347C42.5638 44.1433 43.0045 45.0143 42.4728 45.532C41.9412 46.0357 40.6539 45.9762 39.6046 45.3851C38.5132 44.8079 38.069 43.9194 38.6007 43.4018C39.1184 42.8841 40.4196 42.9575 41.4829 43.5347Z" fill="#EAB40A"/>
<mask id="mask2_234_4388" style="mask-type:luminance" maskUnits="userSpaceOnUse" x="84" y="9" width="65" height="12">
<path d="M84.3321 9H148.011V20.4801H84.3321V9Z" fill="white"/>
</mask>
<g mask="url(#mask2_234_4388)">
<path fill-rule="evenodd" clip-rule="evenodd" d="M127.681 11.7389C129.528 11.0428 131.067 11.4275 131.155 12.5958C131.214 13.7501 129.811 15.2577 127.979 15.9678C126.146 16.6779 124.607 16.2931 124.533 15.1108C124.442 13.9425 125.88 12.4314 127.681 11.7389ZM101.618 20.1863L103.409 14.6666L105.344 15.1388L103.616 18.2484L101.618 20.1863ZM106.942 18.885L110.237 13.3794L111.923 14.3413L108.495 18.4093L106.942 18.885ZM85.1643 20.4661L84.5452 13.6452L87.5464 14.2818L85.1643 20.4661ZM92.5274 14.7715L93.2514 9L95.2487 9.11893L94.1084 12.4909L92.5274 14.7715ZM146.78 17.2725C147.861 17.8322 148.319 18.7381 147.801 19.2523C147.283 19.756 145.982 19.728 144.905 19.1509C143.824 18.5737 143.38 17.6993 143.897 17.1816C144.415 16.6499 145.702 16.7094 146.78 17.2725Z" fill="#EEC238"/>
</g>
<path fill-rule="evenodd" clip-rule="evenodd" d="M49.6115 93.5021C50.8112 93.2643 51.6997 93.9324 51.5808 95.0132C51.4619 96.0766 50.381 97.1295 49.1847 97.3638C47.971 97.6017 47.072 96.9371 47.1874 95.8702C47.3204 94.8068 48.4012 93.74 49.6115 93.5021ZM42.1784 64.6935C43.9064 63.777 45.5049 63.9554 45.7253 65.1237C45.9457 66.278 44.7039 67.964 42.976 68.8665C41.248 69.7969 39.6635 69.608 39.4431 68.4537C39.2192 67.2819 40.433 65.6274 42.1784 64.6935ZM45.1936 69.0449C45.7708 67.964 46.6558 67.5338 47.1734 68.0515C47.6771 68.5691 47.6037 69.8564 47.0265 70.9512C46.4179 72.0041 45.5329 72.4623 45.0292 71.9306C44.5115 71.3954 44.5885 70.1117 45.1936 69.0449ZM56.5023 74.2952L61.9555 71.2485L61.0706 70.5245L54.8618 71.7662L56.5023 74.2952ZM64.3236 85.5584L68.654 80.8817L67.4262 79.682L61.1895 84.3272L64.3236 85.5584ZM73.3692 116.067C74.9047 115.357 76.2654 115.577 76.4018 116.585C76.5488 117.592 75.4259 118.981 73.8729 119.708C72.3338 120.432 70.9731 120.212 70.8402 119.191C70.6933 118.197 71.8161 116.795 73.3692 116.067Z" fill="#EEC238"/>
</svg>
