<svg width="180" height="145" viewBox="0 0 180 145" fill="none" xmlns="http://www.w3.org/2000/svg">
<mask id="mask0_234_4703" style="mask-type:luminance" maskUnits="userSpaceOnUse" x="98" y="83" width="11" height="16">
<path d="M98.7369 83.0025H108.684V99H98.7369V83.0025Z" fill="white"/>
</mask>
<g mask="url(#mask0_234_4703)">
<path fill-rule="evenodd" clip-rule="evenodd" d="M108.292 83.2782H102.573L99.2701 95.5879L99.0185 98.6727H104.018L104.029 96.5117L108.292 83.2782Z" fill="#F6B99C"/>
</g>
<mask id="mask1_234_4703" style="mask-type:luminance" maskUnits="userSpaceOnUse" x="110" y="83" width="10" height="16">
<path d="M110.118 83.0025H119.578V99H110.118V83.0025Z" fill="white"/>
</mask>
<g mask="url(#mask1_234_4703)">
<path fill-rule="evenodd" clip-rule="evenodd" d="M110.237 83.2782H115.957L119.258 95.5879L119.511 98.6727H114.511L114.5 96.5117L110.237 83.2782Z" fill="#F6B99C"/>
</g>
<path fill-rule="evenodd" clip-rule="evenodd" d="M107.835 84.8506H102.11L100.674 89.9066L100.37 91.3319C102.069 91.6841 103.821 91.7965 105.653 91.6085L106.075 90.5003L107.835 84.8506Z" fill="#F38B81"/>
<path fill-rule="evenodd" clip-rule="evenodd" d="M110.7 84.8506H116.419L117.859 89.9066L118.157 91.3319C116.46 91.6841 114.706 91.7965 112.876 91.6085L112.454 90.5003L110.7 84.8506Z" fill="#F38B81"/>
<mask id="mask2_234_4703" style="mask-type:luminance" maskUnits="userSpaceOnUse" x="94" y="94" width="11" height="5">
<path d="M94.9473 94.8033H104.421V98.9999H94.9473V94.8033Z" fill="white"/>
</mask>
<g mask="url(#mask2_234_4703)">
<path fill-rule="evenodd" clip-rule="evenodd" d="M104.094 96.1255C104.094 96.1255 101.892 96.6326 101.188 96.6178C100.705 96.6031 99.9589 95.1482 99.1725 95.281C98.1011 95.4599 96.8373 96.3007 95.7456 96.8483C95.2886 97.0733 95.0628 97.6061 95.2275 98.0929C95.4126 98.6369 95.9214 99.0001 96.4913 99.0001C98.7302 99.0001 104.083 99.0001 104.083 99.0001C104.13 98.0634 104.161 97.1194 104.094 96.1255Z" fill="#B8483B"/>
</g>
<mask id="mask3_234_4703" style="mask-type:luminance" maskUnits="userSpaceOnUse" x="114" y="94" width="10" height="5">
<path d="M114.37 94.8033H123.37V98.9999H114.37V94.8033Z" fill="white"/>
</mask>
<g mask="url(#mask3_234_4703)">
<path fill-rule="evenodd" clip-rule="evenodd" d="M114.434 96.1255C114.434 96.1255 116.636 96.6326 117.339 96.6178C117.824 96.6031 118.57 95.1482 119.356 95.281C120.426 95.4599 121.691 96.3007 122.781 96.8483C123.245 97.0733 123.466 97.6061 123.301 98.0929C123.116 98.6369 122.607 99.0001 122.035 99.0001C119.804 99.0001 114.445 99.0001 114.445 99.0001C114.403 98.0634 114.367 97.1194 114.434 96.1255Z" fill="#B8483B"/>
</g>
<path fill-rule="evenodd" clip-rule="evenodd" d="M98.298 95.3934C98.298 95.3934 98.4016 95.5169 98.5441 95.67C98.6218 95.7566 98.7088 95.8544 98.8013 95.941C99.0641 96.2029 99.3527 96.4389 99.3527 96.4389C99.4249 96.5108 99.5378 96.5108 99.6044 96.4389C99.6765 96.3725 99.6765 96.2582 99.6044 96.1881C99.6044 96.1881 99.3675 95.906 99.1048 95.6386C99.0123 95.5464 98.9197 95.4598 98.8383 95.3823C98.6792 95.2404 98.5552 95.1371 98.5552 95.1371C98.4831 95.0652 98.3702 95.0652 98.298 95.1371C98.2259 95.209 98.2259 95.3215 98.298 95.3934Z" fill="#E58175"/>
<path fill-rule="evenodd" clip-rule="evenodd" d="M120.231 95.3934C120.231 95.3934 120.127 95.5169 119.983 95.67C119.907 95.7566 119.818 95.8544 119.726 95.941C119.465 96.2029 119.176 96.4389 119.176 96.4389C119.109 96.5108 118.991 96.5108 118.924 96.4389C118.852 96.3725 118.852 96.2582 118.924 96.1881C118.924 96.1881 119.161 95.906 119.422 95.6386C119.515 95.5464 119.607 95.4598 119.696 95.3823C119.849 95.2404 119.973 95.1371 119.973 95.1371C120.046 95.0652 120.158 95.0652 120.231 95.1371C120.303 95.209 120.303 95.3215 120.231 95.3934Z" fill="#E58175"/>
<path fill-rule="evenodd" clip-rule="evenodd" d="M97.5069 95.7882C97.5069 95.7882 97.6105 95.9117 97.753 96.0647C97.8307 96.1459 97.9177 96.2436 98.0102 96.3358C98.2785 96.5921 98.5616 96.8336 98.5616 96.8336C98.6337 96.9055 98.7466 96.9055 98.8188 96.8336C98.8909 96.7617 98.8909 96.6492 98.8188 96.5829C98.8188 96.5829 98.5764 96.2952 98.3192 96.0279C98.2267 95.9357 98.1286 95.8545 98.0472 95.7771C97.8881 95.6351 97.7696 95.5319 97.7696 95.5319C97.6975 95.4599 97.579 95.4599 97.5069 95.5319C97.4347 95.5982 97.4347 95.7162 97.5069 95.7882Z" fill="#E58175"/>
<path fill-rule="evenodd" clip-rule="evenodd" d="M121.022 95.7882C121.022 95.7882 120.918 95.9117 120.774 96.0647C120.698 96.1459 120.609 96.2436 120.517 96.3358C120.25 96.5921 119.967 96.8336 119.967 96.8336C119.895 96.9055 119.782 96.9055 119.71 96.8336C119.638 96.7617 119.638 96.6492 119.71 96.5829C119.71 96.5829 119.952 96.2952 120.209 96.0279C120.302 95.9357 120.398 95.8545 120.481 95.7771C120.641 95.6351 120.759 95.5319 120.759 95.5319C120.831 95.4599 120.95 95.4599 121.022 95.5319C121.094 95.5982 121.094 95.7162 121.022 95.7882Z" fill="#E58175"/>
<path fill-rule="evenodd" clip-rule="evenodd" d="M111.188 59.8272H106.645V64.1511H111.188V59.8272Z" fill="#F6B99C"/>
<path fill-rule="evenodd" clip-rule="evenodd" d="M111.188 59.8272H106.645V61.5125C108.138 62.2039 109.644 62.3127 111.188 61.5125V59.8272Z" fill="#F38B81"/>
<path fill-rule="evenodd" clip-rule="evenodd" d="M116.255 76.667L101.596 76.595C101.137 81.1347 99.0499 89.635 99.0499 89.635C104.466 91.5452 114.084 91.7204 119.284 89.635C119.284 89.635 117.058 81.2269 116.255 76.667Z" fill="#FFDCD3"/>
<path fill-rule="evenodd" clip-rule="evenodd" d="M125.138 74.8122C125.204 74.8638 126.115 75.6586 126.222 75.7821C126.609 76.232 126.762 77.8048 126.881 78.0722C127.02 78.3746 127.39 78.3746 127.473 78.0962C127.606 77.6518 127.467 77.047 127.724 77.0728C128.109 77.1079 128.609 77.3549 129.545 77.8878C130.074 78.1902 130.482 77.7385 130.3 77.39C130.728 77.4047 131.068 76.9437 130.774 76.575C131.32 76.3555 131.057 75.6733 130.702 75.6069C130.702 75.6069 131.207 75.5 130.944 74.9819C130.554 74.1982 128.439 73.527 128.439 73.527C126.916 72.2972 120.194 66.6309 120.194 66.6309L117.945 69.8891C117.945 69.8891 123.456 73.5381 125.138 74.8122Z" fill="#F6B99C"/>
<path fill-rule="evenodd" clip-rule="evenodd" d="M130.253 77.4418C130.126 77.3441 129.996 77.2574 129.863 77.18C129.776 77.1247 129.689 77.073 129.596 77.0214C129.528 76.9808 129.461 76.944 129.389 76.9089C129.23 76.8223 129.065 76.7448 128.895 76.6784C128.866 76.6674 128.849 76.6379 128.86 76.6065C128.871 76.5807 128.901 76.566 128.932 76.5752C129.106 76.6268 129.287 76.6877 129.461 76.7651C129.534 76.7964 129.611 76.8315 129.683 76.8684C129.776 76.9181 129.868 76.9753 129.955 77.0361C130.089 77.1283 130.213 77.2261 130.342 77.333C130.372 77.3588 130.377 77.4012 130.351 77.4307C130.326 77.4621 130.285 77.4621 130.253 77.4418Z" fill="#F38B81"/>
<path fill-rule="evenodd" clip-rule="evenodd" d="M130.702 76.6265C130.574 76.5288 130.445 76.4477 130.317 76.3647C130.224 76.3094 130.136 76.2578 130.043 76.2061C129.976 76.1711 129.91 76.1305 129.843 76.0937C129.679 76.007 129.514 75.9296 129.344 75.8632C129.318 75.8521 129.297 75.8226 129.314 75.7913C129.318 75.7654 129.349 75.7507 129.381 75.7599C129.56 75.8115 129.736 75.8742 129.91 75.9498C129.988 75.9812 130.06 76.0162 130.132 76.0531C130.224 76.1047 130.317 76.16 130.404 76.2227C130.537 76.3149 130.661 76.4108 130.789 76.5196C130.82 76.5454 130.826 76.586 130.8 76.6155C130.774 76.6468 130.733 76.6468 130.702 76.6265Z" fill="#F38B81"/>
<path fill-rule="evenodd" clip-rule="evenodd" d="M130.65 75.6381C130.522 75.5404 130.392 75.4592 130.259 75.3763C130.172 75.3209 130.085 75.2693 129.993 75.2177C129.924 75.1808 129.858 75.1402 129.791 75.1052C129.626 75.0185 129.462 74.9411 129.293 74.8747C129.262 74.8637 129.245 74.8342 129.256 74.8028C129.267 74.777 129.297 74.7622 129.329 74.7715C129.508 74.8231 129.684 74.8839 129.858 74.9614C129.93 74.9927 130.008 75.0278 130.08 75.0646C130.172 75.1144 130.265 75.1716 130.352 75.2324C130.485 75.3246 130.609 75.4224 130.739 75.5293C130.768 75.5551 130.774 75.5975 130.748 75.627C130.722 75.6584 130.681 75.6639 130.65 75.6381Z" fill="#F38B81"/>
<path fill-rule="evenodd" clip-rule="evenodd" d="M92.9857 75.0128C92.9172 75.0589 92.0068 75.8518 91.8995 75.9753C91.5146 76.427 91.3592 77.9999 91.2408 78.2654C91.1076 78.5678 90.7319 78.5678 90.6505 78.2967C90.5155 77.8505 90.6542 77.2402 90.3933 77.266C90.0122 77.3029 89.5126 77.5481 88.5763 78.081C88.0471 78.3889 87.64 77.9372 87.8269 77.585C87.3939 77.6053 87.0553 77.1388 87.3477 76.77C86.7981 76.5543 87.0645 75.8684 87.4198 75.8057C87.4198 75.8057 86.9165 75.6932 87.1774 75.1769C87.5697 74.3932 89.6828 73.7258 89.6828 73.7258C91.2056 72.4922 97.928 66.826 97.928 66.826L100.176 70.0841C100.176 70.0841 94.6676 73.7368 92.9857 75.0128Z" fill="#F6B99C"/>
<path fill-rule="evenodd" clip-rule="evenodd" d="M87.8677 77.6349C87.9954 77.5427 88.1249 77.4561 88.2582 77.3749C88.3451 77.3178 88.434 77.2661 88.5265 77.2164C88.5931 77.1795 88.6652 77.1389 88.7319 77.102C88.8965 77.0154 89.0612 76.9398 89.2259 76.8716C89.2555 76.8623 89.2722 76.831 89.2611 76.8052C89.2518 76.7757 89.2204 76.7591 89.1889 76.7701C89.015 76.8218 88.8336 76.8826 88.6597 76.9601C88.5875 76.9896 88.5098 77.0264 88.4377 77.067C88.3451 77.1186 88.2526 77.174 88.1657 77.2366C88.0324 77.3233 87.9085 77.421 87.7808 77.528C87.7549 77.5538 87.7493 77.5999 87.7697 77.6257C87.7956 77.657 87.8363 77.6607 87.8677 77.6349Z" fill="#F38B81"/>
<path fill-rule="evenodd" clip-rule="evenodd" d="M87.4197 76.8223C87.5473 76.7246 87.6769 76.6416 87.8045 76.5605C87.897 76.5033 87.9859 76.4535 88.0784 76.4019C88.145 76.365 88.2116 76.3245 88.2782 76.2894C88.4429 76.2009 88.6076 76.1253 88.7778 76.059C88.8074 76.0479 88.8241 76.0165 88.813 75.987C88.8037 75.9612 88.7723 75.9446 88.7408 75.9557C88.5669 76.0073 88.3874 76.0682 88.2116 76.1456C88.1394 76.177 88.0617 76.212 87.9914 76.2526C87.897 76.3042 87.8045 76.3613 87.7176 76.4222C87.5843 76.5089 87.4548 76.6121 87.3327 76.7191C87.3012 76.7393 87.2957 76.7854 87.3216 76.8113C87.3475 76.8426 87.3882 76.8481 87.4197 76.8223Z" fill="#F38B81"/>
<path fill-rule="evenodd" clip-rule="evenodd" d="M87.4722 75.832C87.5999 75.7398 87.7294 75.6531 87.8627 75.572C87.9496 75.5204 88.0384 75.4632 88.131 75.4171C88.1976 75.3765 88.2642 75.336 88.3364 75.3046C88.501 75.2124 88.6657 75.135 88.8304 75.0686C88.86 75.0594 88.8767 75.028 88.8656 75.0022C88.8545 74.9727 88.8248 74.9561 88.7934 74.9672C88.6139 75.0188 88.4381 75.0797 88.2642 75.1571C88.192 75.1921 88.1143 75.2235 88.0421 75.2641C87.9496 75.3157 87.8571 75.371 87.7701 75.4337C87.6369 75.5204 87.5129 75.6218 87.3853 75.7306C87.3594 75.7508 87.3538 75.7969 87.3742 75.8228C87.4001 75.8523 87.4408 75.8578 87.4722 75.832Z" fill="#F38B81"/>
<path fill-rule="evenodd" clip-rule="evenodd" d="M100.958 78.6257C106.255 79.1272 111.616 79.2545 117.084 78.6257L117.046 69.9668L118.671 71.1856L121.824 66.5962C121.824 66.5962 116.177 61.7173 113.703 61.7339C112.844 61.7081 111.142 61.7597 111.142 61.7597C111.142 61.7597 111.059 63.5262 109.105 63.5262C106.755 63.5262 106.646 61.7597 106.646 61.7597C106.646 61.7597 105.478 61.6823 104.214 61.7597C100.937 61.9533 96.0616 67.1697 96.0616 67.1697L99.5736 71.2944L101.004 70.1309L100.958 78.6257Z" fill="#DB6C8B"/>
<path fill-rule="evenodd" clip-rule="evenodd" d="M108.939 68.5314C109.563 67.5781 110.806 67.5781 111.43 68.0557C112.051 68.5314 112.051 69.4847 111.43 70.438C110.991 71.1497 109.875 71.867 108.939 72.3427C108.008 71.867 106.887 71.1497 106.456 70.438C105.832 69.4847 105.832 68.5314 106.456 68.0557C107.078 67.5781 108.323 67.5781 108.939 68.5314Z" fill="#C15170"/>
<path fill-rule="evenodd" clip-rule="evenodd" d="M100.896 69.2584C100.896 69.2584 100.891 69.3506 100.885 69.4797C100.88 69.546 100.876 69.618 100.876 69.6954C100.876 69.7415 100.88 69.7821 100.88 69.8282C100.891 69.9923 100.906 70.1306 100.906 70.1306C100.906 70.1859 100.952 70.2283 101.009 70.2283C101.061 70.2283 101.107 70.1822 101.102 70.1306C101.102 70.1306 101.113 69.9867 101.117 69.8226C101.117 69.7821 101.122 69.736 101.117 69.6954C101.117 69.618 101.113 69.5405 101.107 69.4741C101.096 69.3506 101.087 69.2584 101.087 69.2584C101.087 69.2086 101.044 69.1625 100.989 69.1625C100.937 69.1662 100.896 69.2086 100.896 69.2584Z" fill="#945164"/>
<path fill-rule="evenodd" clip-rule="evenodd" d="M117.144 69.9665C117.144 69.9665 117.15 69.8891 117.159 69.7877C117.159 69.736 117.165 69.6752 117.165 69.6125C117.165 69.5775 117.165 69.5406 117.159 69.5056C117.154 69.3673 117.139 69.2585 117.139 69.2585C117.139 69.2032 117.093 69.1571 117.041 69.1571C116.985 69.1626 116.939 69.2032 116.939 69.2585C116.939 69.2585 116.928 69.3728 116.922 69.5111C116.922 69.5406 116.922 69.5775 116.922 69.6125C116.922 69.6752 116.928 69.736 116.933 69.7914C116.943 69.8946 116.954 69.9665 116.954 69.9665C116.954 70.0182 116.994 70.0642 117.052 70.0642C117.104 70.0587 117.144 70.0182 117.144 69.9665Z" fill="#945164"/>
<path fill-rule="evenodd" clip-rule="evenodd" d="M121.135 34.4565C123.829 34.4565 126.016 36.6379 126.016 39.3189C126.016 42.0035 123.829 44.1793 121.135 44.1793C118.439 44.1793 116.254 42.0035 116.254 39.3189C116.254 36.6379 118.439 34.4565 121.135 34.4565Z" fill="#993E47"/>
<path fill-rule="evenodd" clip-rule="evenodd" d="M116.496 37.4585C116.496 37.4585 118.707 36.5919 120.77 39.4407C122.756 42.1826 121.259 44.7124 121.259 44.7124L116.496 37.4585Z" fill="#FFD7CA"/>
<path fill-rule="evenodd" clip-rule="evenodd" d="M95.932 34.4565C98.6279 34.4565 100.813 36.6379 100.813 39.3189C100.813 42.0035 98.6279 44.1793 95.932 44.1793C93.2434 44.1793 91.0563 42.0035 91.0563 39.3189C91.0563 36.6379 93.2434 34.4565 95.932 34.4565Z" fill="#993E47"/>
<path fill-rule="evenodd" clip-rule="evenodd" d="M100.865 37.4585C100.865 37.4585 98.6998 36.5919 96.4887 39.4407C94.3589 42.1826 95.7263 44.7124 95.7263 44.7124L100.865 37.4585Z" fill="#FFD7CA"/>
<path fill-rule="evenodd" clip-rule="evenodd" d="M108.729 35.6182C96.2553 35.5979 93.6389 45.4258 95.7169 52.1615C97.2638 57.1732 103.729 56.03 103.729 56.03L114.217 56.2715C114.217 56.2715 120.045 56.8597 121.5 51.9218C123.505 45.0976 120.976 35.6404 108.729 35.6182Z" fill="#993E47"/>
<path fill-rule="evenodd" clip-rule="evenodd" d="M119.104 43.1563C116.821 38.4673 112.367 36.3266 108.772 36.3266C105.175 36.3266 99.7956 38.2368 97.9804 43.254C96.2318 48.085 97.9952 50.0875 98.0266 52.1876C98.1081 57.3671 101.796 61.2356 109.07 61.2061C115.755 61.1802 119.309 57.2343 119.454 52.2909C119.515 50.01 121.089 47.2387 119.104 43.1563Z" fill="#F6B99C"/>
<path fill-rule="evenodd" clip-rule="evenodd" d="M101.276 52.993C101.276 52.993 101.174 53.0078 101.035 53.0391C100.984 53.0483 100.932 53.0631 100.88 53.0852C100.824 53.1 100.778 53.1313 100.732 53.1516C100.608 53.2235 100.526 53.2899 100.526 53.2899C100.464 53.3102 100.434 53.3876 100.46 53.4484C100.484 53.5148 100.556 53.5462 100.619 53.5204C100.619 53.5204 100.726 53.5038 100.86 53.4743C100.911 53.4577 100.963 53.4429 101.015 53.4226C101.067 53.4024 101.113 53.371 101.159 53.3452C101.281 53.2733 101.365 53.2124 101.365 53.2124C101.426 53.1866 101.457 53.1202 101.431 53.0594C101.405 52.9967 101.339 52.9672 101.276 52.993Z" fill="#F38B81"/>
<path fill-rule="evenodd" clip-rule="evenodd" d="M116.716 52.993C116.716 52.993 116.825 53.0078 116.964 53.0391C117.01 53.0483 117.066 53.0631 117.118 53.0852C117.17 53.1 117.221 53.1313 117.262 53.1516C117.386 53.2235 117.473 53.2899 117.473 53.2899C117.534 53.3102 117.566 53.3876 117.54 53.4484C117.514 53.5148 117.442 53.5462 117.375 53.5204C117.375 53.5204 117.271 53.5038 117.133 53.4743C117.083 53.4577 117.031 53.4429 116.979 53.4226C116.927 53.4024 116.881 53.371 116.835 53.3452C116.716 53.2733 116.629 53.2124 116.629 53.2124C116.568 53.1866 116.542 53.1202 116.563 53.0594C116.589 52.9967 116.661 52.9672 116.716 52.993Z" fill="#F38B81"/>
<path fill-rule="evenodd" clip-rule="evenodd" d="M101.503 53.5003C101.503 53.5003 101.405 53.5501 101.286 53.6331C101.245 53.6644 101.205 53.6884 101.158 53.7308C101.116 53.7658 101.086 53.8064 101.049 53.8488C100.962 53.9557 100.905 54.0479 100.905 54.0479C100.859 54.094 100.855 54.1752 100.905 54.2213C100.951 54.2729 101.029 54.2784 101.081 54.2268C101.081 54.2268 101.173 54.1807 101.286 54.0996C101.332 54.0682 101.373 54.0369 101.416 53.9963C101.451 53.9557 101.486 53.9152 101.517 53.8728C101.604 53.7603 101.662 53.6736 101.662 53.6736C101.708 53.6275 101.714 53.5556 101.667 53.504C101.621 53.4579 101.549 53.4579 101.503 53.5003Z" fill="#F38B81"/>
<path fill-rule="evenodd" clip-rule="evenodd" d="M116.497 53.5003C116.497 53.5003 116.589 53.5501 116.708 53.6331C116.748 53.6644 116.795 53.6884 116.835 53.7308C116.876 53.7658 116.913 53.8064 116.943 53.8488C117.035 53.9557 117.087 54.0479 117.087 54.0479C117.139 54.094 117.139 54.1752 117.093 54.2213C117.046 54.2729 116.969 54.2784 116.919 54.2268C116.919 54.2268 116.826 54.1807 116.708 54.0996C116.665 54.0682 116.625 54.0369 116.584 53.9963C116.543 53.9557 116.506 53.9152 116.475 53.8728C116.388 53.7603 116.336 53.6736 116.336 53.6736C116.286 53.6275 116.286 53.5556 116.332 53.504C116.378 53.4579 116.451 53.4579 116.497 53.5003Z" fill="#F38B81"/>
<path fill-rule="evenodd" clip-rule="evenodd" d="M98.3388 52.5008C99.5526 52.2648 99.4305 49.1652 98.385 47.2292C100.746 46.1007 102.367 44.3435 102.515 41.3269C107.757 45.5531 111.265 45.0663 119.02 46.6963C118.343 48.8628 118.595 50.502 119.216 52.357L120.965 52.5469L121.598 47.8542L119.427 41.5777C119.427 41.5777 117.503 38.314 114.361 37.1671C112.448 36.4701 109.552 35.7326 107.489 36.0497C103.771 36.6176 99.5526 39.0054 99.5526 39.0054L95.5725 45.5844L97.6097 52.7405L98.3388 52.5008Z" fill="#993E47"/>
<path fill-rule="evenodd" clip-rule="evenodd" d="M118.96 52.2592C118.96 52.2592 122.113 51.2653 122.91 53.6329C123.358 54.9549 122.082 57.5419 119.197 57.5677C117.694 57.5769 117.15 56.2401 117.15 56.2401L118.96 52.2592Z" fill="#F6B99C"/>
<path fill-rule="evenodd" clip-rule="evenodd" d="M98.6071 52.2592C98.6071 52.2592 95.4486 51.2653 94.6511 53.6329C94.2033 54.9549 95.48 57.5419 98.3647 57.5677C99.8672 57.5769 100.411 56.2401 100.411 56.2401L98.6071 52.2592Z" fill="#F6B99C"/>
<path fill-rule="evenodd" clip-rule="evenodd" d="M120.529 54.4024C120.369 55.0017 120.184 55.3078 119.999 55.446C119.855 55.5493 119.716 55.5143 119.627 55.446C119.577 55.411 119.54 55.376 119.531 55.3446C119.489 55.1695 119.52 54.9961 119.592 54.832C119.705 54.596 119.916 54.3858 120.194 54.2475C120.58 54.0576 121.095 53.9968 121.665 54.1867C121.728 54.207 121.794 54.1756 121.815 54.1148C121.84 54.0539 121.809 53.9875 121.748 53.9654C120.945 53.6483 120.22 53.7976 119.746 54.1295C119.535 54.2844 119.376 54.478 119.278 54.6827C119.165 54.9242 119.139 55.1805 119.207 55.4313C119.222 55.4885 119.274 55.5696 119.355 55.647C119.531 55.8056 119.861 55.9439 120.184 55.6821C120.39 55.5143 120.606 55.1547 120.749 54.4485C120.76 54.3913 120.725 54.3305 120.662 54.3139C120.606 54.3047 120.543 54.3397 120.529 54.4024Z" fill="#F38B81"/>
<path fill-rule="evenodd" clip-rule="evenodd" d="M96.8157 54.4485C96.9563 55.1547 97.1709 55.5143 97.3763 55.6821C97.702 55.9439 98.0295 55.8056 98.2108 55.647C98.2923 55.5696 98.3385 55.4885 98.3552 55.4313C98.4218 55.1805 98.3959 54.9242 98.283 54.6827C98.1905 54.478 98.0258 54.2844 97.8149 54.1295C97.3412 53.7976 96.6158 53.6483 95.8183 53.9654C95.7573 53.9875 95.7258 54.0539 95.7462 54.1148C95.7665 54.1756 95.835 54.207 95.9016 54.1867C96.466 53.9968 96.9804 54.0576 97.3671 54.2475C97.6502 54.3858 97.8556 54.596 97.9684 54.832C98.0462 54.9961 98.0721 55.1695 98.0295 55.3446C98.0258 55.376 97.9832 55.411 97.9333 55.446C97.8445 55.5143 97.7057 55.5493 97.5632 55.446C97.3763 55.3078 97.1913 55.0017 97.0322 54.4024C97.0174 54.3397 96.96 54.3047 96.8989 54.3139C96.8379 54.3305 96.8009 54.3913 96.8157 54.4485Z" fill="#F38B81"/>
<path fill-rule="evenodd" clip-rule="evenodd" d="M108.333 54.299C108.436 54.2437 108.564 54.2326 108.699 54.2271C108.734 54.2271 108.771 54.2326 108.812 54.2326C108.847 54.2326 108.884 54.2326 108.919 54.2326C109.032 54.2437 109.145 54.2529 109.249 54.3045C109.306 54.3451 109.382 54.3358 109.424 54.2787C109.465 54.2178 109.448 54.1404 109.393 54.0998C109.295 54.0076 109.176 53.9413 109.052 53.8952C108.965 53.8693 108.878 53.8528 108.791 53.8528C108.699 53.8528 108.616 53.873 108.529 53.8988C108.399 53.9449 108.286 54.0113 108.194 54.1035C108.138 54.1404 108.127 54.2178 108.162 54.2732C108.199 54.3248 108.277 54.3395 108.333 54.299Z" fill="#F38B81"/>
<path fill-rule="evenodd" clip-rule="evenodd" d="M106.564 56.318C106.929 56.6148 107.367 56.8342 107.839 56.9688C108.148 57.05 108.468 57.1016 108.792 57.1016C109.11 57.1016 109.434 57.061 109.743 56.9781C110.206 56.8564 110.642 56.6351 111.018 56.3235C111.075 56.2811 111.084 56.2055 111.044 56.1483C110.998 56.0967 110.92 56.0875 110.864 56.128C110.503 56.3899 110.093 56.554 109.66 56.6462C109.378 56.707 109.084 56.7328 108.792 56.7328C108.498 56.7328 108.205 56.707 107.922 56.6462C107.48 56.5484 107.064 56.3788 106.708 56.1336C106.657 56.093 106.584 56.1022 106.544 56.1538C106.503 56.2055 106.512 56.2811 106.564 56.318Z" fill="#D75E51"/>
<path fill-rule="evenodd" clip-rule="evenodd" d="M104.729 45.4924C104.044 45.072 103.226 44.9429 102.449 45.1126C101.709 45.2767 101.019 45.7284 100.506 46.4401C100.362 46.6448 100.417 46.9325 100.623 47.0708C100.83 47.2127 101.117 47.1629 101.255 46.9527C101.616 46.4033 102.116 46.0511 102.654 45.887C103.246 45.7063 103.885 45.7321 104.445 46.005C104.584 46.0806 104.764 46.029 104.841 45.887C104.919 45.7487 104.867 45.5735 104.729 45.4924Z" fill="#993E47"/>
<path fill-rule="evenodd" clip-rule="evenodd" d="M113.234 46.005C113.789 45.7321 114.433 45.7063 115.025 45.887C115.564 46.0511 116.063 46.4033 116.419 46.9527C116.563 47.1629 116.846 47.2127 117.051 47.0708C117.262 46.9325 117.314 46.6448 117.175 46.4401C116.655 45.7284 115.965 45.2767 115.231 45.1126C114.448 44.9429 113.63 45.072 112.951 45.4924C112.808 45.5735 112.757 45.7487 112.833 45.887C112.916 46.029 113.09 46.0806 113.234 46.005Z" fill="#993E47"/>
<path fill-rule="evenodd" clip-rule="evenodd" d="M105.813 49.9147C104.989 49.3615 103.983 49.3043 103.118 49.6012C102.145 49.9405 101.364 50.7241 101.148 51.7217C101.116 51.8821 101.209 52.0407 101.359 52.0702C101.509 52.107 101.651 52.0038 101.683 51.8452C101.832 51.0099 102.469 50.3646 103.257 50.0419C104.018 49.734 104.913 49.7192 105.679 50.1654C105.74 50.2005 105.824 50.1802 105.859 50.1083C105.896 50.0419 105.876 49.9497 105.813 49.9147Z" fill="#A4463B"/>
<path fill-rule="evenodd" clip-rule="evenodd" d="M112 50.1654C112.763 49.7192 113.656 49.734 114.419 50.0419C115.205 50.3646 115.847 51.0099 115.997 51.8452C116.028 52.0038 116.171 52.107 116.321 52.0702C116.465 52.0407 116.563 51.8821 116.526 51.7217C116.312 50.7241 115.529 49.9405 114.561 49.6012C113.693 49.3043 112.69 49.3615 111.867 49.9147C111.8 49.9497 111.78 50.0419 111.815 50.1083C111.852 50.1802 111.934 50.2005 112 50.1654Z" fill="#A4463B"/>
<path fill-rule="evenodd" clip-rule="evenodd" d="M115.271 50.4962C115.405 50.5939 115.534 50.6769 115.667 50.7378C115.821 50.8097 115.976 50.8558 116.147 50.865C116.239 50.8705 116.341 50.8613 116.444 50.841C116.624 50.7986 116.82 50.7119 117.035 50.5736C117.098 50.5386 117.124 50.4612 117.087 50.3948C117.057 50.3321 116.974 50.3081 116.913 50.3432C116.624 50.4612 116.393 50.4815 116.182 50.4501C116.063 50.4354 115.956 50.4003 115.847 50.3487C115.739 50.2971 115.632 50.2362 115.517 50.1588C115.425 50.0869 115.292 50.1127 115.225 50.2049C115.158 50.2971 115.179 50.4298 115.271 50.4962Z" fill="#A4463B"/>
<path fill-rule="evenodd" clip-rule="evenodd" d="M102.098 50.1588C101.991 50.2362 101.878 50.2971 101.769 50.3487C101.662 50.4003 101.554 50.4354 101.436 50.4501C101.229 50.4815 100.997 50.4612 100.705 50.3432C100.644 50.3081 100.561 50.3321 100.529 50.3948C100.494 50.4612 100.52 50.5386 100.586 50.5736C100.797 50.7119 100.994 50.7986 101.179 50.841C101.275 50.8613 101.378 50.8705 101.477 50.865C101.641 50.8558 101.8 50.8097 101.954 50.7378C102.083 50.6769 102.211 50.5939 102.346 50.4962C102.439 50.4298 102.465 50.2971 102.392 50.2049C102.326 50.1127 102.196 50.0869 102.098 50.1588Z" fill="#A4463B"/>
<path fill-rule="evenodd" clip-rule="evenodd" d="M114.572 50.0469C114.722 50.1133 114.864 50.1649 115.009 50.1944C115.179 50.2313 115.344 50.2405 115.508 50.211C115.601 50.1907 115.699 50.1649 115.791 50.1188C115.962 50.0358 116.13 49.9086 116.306 49.7242C116.361 49.6781 116.367 49.5951 116.32 49.5398C116.269 49.4827 116.187 49.4771 116.135 49.5288C115.884 49.7076 115.658 49.7795 115.447 49.7961C115.332 49.8053 115.214 49.8017 115.101 49.7758C114.983 49.75 114.861 49.7076 114.737 49.6615C114.629 49.6154 114.505 49.667 114.459 49.7758C114.418 49.8773 114.465 50.0008 114.572 50.0469Z" fill="#A4463B"/>
<path fill-rule="evenodd" clip-rule="evenodd" d="M102.887 49.6615C102.758 49.7076 102.634 49.75 102.516 49.7758C102.403 49.8017 102.29 49.8053 102.171 49.7961C101.96 49.7795 101.74 49.7076 101.483 49.5288C101.431 49.4771 101.348 49.4827 101.302 49.5398C101.252 49.5951 101.255 49.6781 101.313 49.7242C101.487 49.9086 101.657 50.0358 101.827 50.1188C101.925 50.1649 102.018 50.1907 102.11 50.211C102.275 50.2405 102.44 50.2313 102.608 50.1944C102.752 50.1649 102.897 50.1133 103.047 50.0469C103.154 50.0008 103.206 49.8773 103.159 49.7758C103.113 49.667 102.989 49.6154 102.887 49.6615Z" fill="#A4463B"/>
<path fill-rule="evenodd" clip-rule="evenodd" d="M104.296 50.5074C105.099 50.5074 105.746 51.1583 105.746 51.9567C105.746 52.7514 105.099 53.4023 104.296 53.4023C103.495 53.4023 102.845 52.7514 102.845 51.9567C102.845 51.1583 103.495 50.5074 104.296 50.5074Z" fill="#A4463B"/>
<path fill-rule="evenodd" clip-rule="evenodd" d="M113.384 50.5074C112.581 50.5074 111.933 51.1583 111.933 51.9567C111.933 52.7514 112.581 53.4023 113.384 53.4023C114.187 53.4023 114.835 52.7514 114.835 51.9567C114.835 51.1583 114.187 50.5074 113.384 50.5074Z" fill="#A4463B"/>
<path fill-rule="evenodd" clip-rule="evenodd" d="M112.381 50.6611C112.159 50.6611 111.98 50.8418 111.98 51.0557C111.98 51.277 112.159 51.4558 112.381 51.4558C112.602 51.4558 112.783 51.277 112.783 51.0557C112.783 50.8418 112.602 50.6611 112.381 50.6611Z" fill="white"/>
<path fill-rule="evenodd" clip-rule="evenodd" d="M103.241 50.6611C103.021 50.6611 102.845 50.8418 102.845 51.0557C102.845 51.277 103.021 51.4558 103.241 51.4558C103.463 51.4558 103.643 51.277 103.643 51.0557C103.643 50.8418 103.463 50.6611 103.241 50.6611Z" fill="white"/>
<path fill-rule="evenodd" clip-rule="evenodd" d="M108.885 55.1745C109.682 55.1745 110.787 54.2728 111.59 55.5691C112.197 56.5537 110.668 57.9919 108.885 57.9919C106.92 57.9919 105.576 56.6146 106.179 55.5691C106.868 54.3706 107.958 55.1745 108.885 55.1745Z" fill="white"/>
<mask id="mask4_234_4703" style="mask-type:luminance" maskUnits="userSpaceOnUse" x="64" y="83" width="8" height="16">
<path d="M64.6311 83.0025H71.2628V99H64.6311V83.0025Z" fill="white"/>
</mask>
<g mask="url(#mask4_234_4703)">
<path fill-rule="evenodd" clip-rule="evenodd" d="M70.7908 83.3138H65.0825L65.9929 95.5996L65.7412 98.6733H70.7298L70.7908 83.3138Z" fill="#CF665A"/>
</g>
<mask id="mask5_234_4703" style="mask-type:luminance" maskUnits="userSpaceOnUse" x="73" y="83" width="9" height="16">
<path d="M73.6314 83.0025H81.6841V99H73.6314V83.0025Z" fill="white"/>
</mask>
<g mask="url(#mask5_234_4703)">
<path fill-rule="evenodd" clip-rule="evenodd" d="M73.6517 83.3138H79.3545L81.3362 95.5996L81.5878 98.6733H76.5974L76.5937 96.3943L73.6517 83.3138Z" fill="#CF665A"/>
</g>
<path fill-rule="evenodd" clip-rule="evenodd" d="M70.7908 83.3793H65.0825L65.2509 87.351L65.534 89.4715C67.2363 90.1058 68.9756 90.3584 70.7612 90.174L70.9037 87.6423L70.7908 83.3793Z" fill="#A4463B"/>
<path fill-rule="evenodd" clip-rule="evenodd" d="M73.6518 83.3793H79.3546L80.1114 86.9712L80.2872 88.8869C78.583 89.4659 76.84 89.6909 75.0562 89.5231L74.2587 87.2367L73.6518 83.3793Z" fill="#A4463B"/>
<mask id="mask6_234_4703" style="mask-type:luminance" maskUnits="userSpaceOnUse" x="61" y="95" width="11" height="4">
<path d="M61.7891 95.2751H71.2629V98.9997H61.7891V95.2751Z" fill="white"/>
</mask>
<g mask="url(#mask6_234_4703)">
<path fill-rule="evenodd" clip-rule="evenodd" d="M70.8074 96.13C70.8074 96.13 68.6055 96.637 67.9061 96.6223C67.4213 96.6112 66.6811 95.1509 65.8892 95.2855C64.8252 95.4699 63.5652 96.3033 62.4734 96.8528C62.0164 97.0777 61.7944 97.6106 61.9553 98.0919C62.1404 98.6358 62.6492 98.9991 63.2191 98.9991C65.447 98.9991 70.7908 98.9991 70.7908 98.9991C70.837 98.0624 70.874 97.1183 70.8074 96.13Z" fill="#703954"/>
</g>
<mask id="mask7_234_4703" style="mask-type:luminance" maskUnits="userSpaceOnUse" x="76" y="95" width="10" height="4">
<path d="M76.4734 95.2751H85.4735V98.9997H76.4734V95.2751Z" fill="white"/>
</mask>
<g mask="url(#mask7_234_4703)">
<path fill-rule="evenodd" clip-rule="evenodd" d="M76.5211 96.1299C76.5211 96.1299 78.7212 96.637 79.4225 96.6222C79.9054 96.6112 80.6456 95.1508 81.4375 95.2854C82.5033 95.4698 83.7634 96.3032 84.8533 96.8527C85.3103 97.0777 85.5324 97.6106 85.3732 98.0918C85.1882 98.6358 84.6775 98.999 84.1076 98.999C81.8798 98.999 76.5359 98.999 76.5359 98.999C76.4897 98.0623 76.4545 97.1182 76.5211 96.1299Z" fill="#703954"/>
</g>
<path fill-rule="evenodd" clip-rule="evenodd" d="M65.0195 95.4025C65.0195 95.4025 65.1231 95.5205 65.2674 95.6809C65.3433 95.762 65.4321 95.8598 65.5246 95.9464C65.7874 96.2083 66.0686 96.448 66.0686 96.448C66.1408 96.5143 66.2536 96.5143 66.3258 96.448C66.3943 96.376 66.3943 96.2636 66.3258 96.1917C66.3258 96.1917 66.0853 95.9114 65.8281 95.644C65.7355 95.5518 65.643 95.4707 65.5542 95.3933C65.3951 95.2494 65.2767 95.148 65.2767 95.148C65.2045 95.0761 65.0916 95.0761 65.0195 95.148C64.9473 95.2144 64.9473 95.3324 65.0195 95.4025Z" fill="#9C6781"/>
<path fill-rule="evenodd" clip-rule="evenodd" d="M82.0502 95.148C82.0502 95.148 81.9262 95.2494 81.7727 95.3933C81.6857 95.4707 81.5932 95.5518 81.5007 95.644C81.2435 95.9114 81.0011 96.1917 81.0011 96.1917C80.9345 96.2636 80.9345 96.376 81.0011 96.448C81.0732 96.5143 81.1861 96.5143 81.2583 96.448C81.2583 96.448 81.5414 96.2083 81.8041 95.9464C81.8966 95.8598 81.9836 95.762 82.0613 95.6809C82.2038 95.5205 82.3074 95.4025 82.3074 95.4025C82.3796 95.3324 82.3796 95.2144 82.3074 95.148C82.2353 95.0761 82.1224 95.0761 82.0502 95.148Z" fill="#9C6781"/>
<path fill-rule="evenodd" clip-rule="evenodd" d="M64.233 95.7965C64.233 95.7965 64.3367 95.9145 64.4791 96.0731C64.5569 96.1561 64.6438 96.2483 64.7326 96.3405C64.9991 96.6023 65.2822 96.8365 65.2822 96.8365C65.3544 96.9084 65.4672 96.9084 65.5394 96.8365C65.606 96.7664 65.606 96.6521 65.5394 96.5857C65.5394 96.5857 65.297 96.2999 65.0398 96.0381C64.9473 95.9459 64.8511 95.8592 64.7678 95.7818C64.6087 95.638 64.4902 95.5365 64.4902 95.5365C64.4181 95.4646 64.3052 95.4646 64.233 95.5365C64.1609 95.6084 64.1609 95.7209 64.233 95.7965Z" fill="#9C6781"/>
<path fill-rule="evenodd" clip-rule="evenodd" d="M82.8366 95.5365C82.8366 95.5365 82.7145 95.638 82.559 95.7818C82.4776 95.8592 82.3796 95.9459 82.287 96.0381C82.0298 96.2999 81.7874 96.5857 81.7874 96.5857C81.7208 96.6521 81.7208 96.7664 81.7874 96.8365C81.8596 96.9084 81.9725 96.9084 82.0446 96.8365C82.0446 96.8365 82.3278 96.6023 82.5961 96.3405C82.683 96.2483 82.77 96.1561 82.8477 96.0731C82.992 95.9145 83.0938 95.7965 83.0938 95.7965C83.166 95.7209 83.166 95.6084 83.0938 95.5365C83.0216 95.4646 82.9088 95.4646 82.8366 95.5365Z" fill="#9C6781"/>
<path fill-rule="evenodd" clip-rule="evenodd" d="M74.2065 59.9138H69.675V65.5339H74.2065V59.9138Z" fill="#CF665A"/>
<path fill-rule="evenodd" clip-rule="evenodd" d="M74.2065 59.9138H69.675V61.5954C71.1609 62.2869 72.6689 62.3938 74.2065 61.5954V59.9138Z" fill="#A4463B"/>
<path fill-rule="evenodd" clip-rule="evenodd" d="M78.7016 75.797H65.1441C65.1441 75.797 64.156 77.7035 63.9876 78.7435C63.6324 80.8584 63.9562 88.4773 63.9562 88.4773C66.4301 89.4915 72.0311 90.1221 72.2161 89.6703C72.2161 89.6703 72.2106 85.8738 72.3919 85.1159C72.4382 84.926 72.91 84.9371 72.9785 85.1159C73.2505 85.8535 73.8315 89.4767 73.8315 89.4767C73.8315 89.4767 79.253 89.0305 81.603 87.7029C81.603 87.7029 80.0542 80.8178 79.7045 78.7011C79.5361 77.6925 78.7016 75.797 78.7016 75.797Z" fill="#E09E52"/>
<path fill-rule="evenodd" clip-rule="evenodd" d="M71.9845 85.1312C71.9845 85.1312 72.201 85.1367 72.4878 85.1312C72.6432 85.1312 72.8135 85.1312 72.9874 85.122C73.091 85.122 73.1928 85.1109 73.2909 85.1072C73.672 85.0759 73.9847 85.0445 73.9847 85.0445C74.0736 85.039 74.1346 84.969 74.1291 84.886C74.1291 84.7993 74.0569 84.7385 73.9699 84.7422C73.9699 84.7422 73.6554 84.7385 73.2705 84.7477C73.1724 84.7477 73.0744 84.7532 72.9726 84.7587C72.7968 84.7624 72.6229 84.779 72.473 84.7938C72.1843 84.8196 71.9753 84.8454 71.9753 84.8454C71.892 84.8509 71.8309 84.9173 71.8346 84.9929C71.8402 85.0704 71.9068 85.1367 71.9845 85.1312Z" fill="#C17143"/>
<path fill-rule="evenodd" clip-rule="evenodd" d="M84.8383 74.6961C84.8938 74.7569 85.6136 75.7194 85.6913 75.8688C85.9744 76.3906 85.7894 77.9579 85.8505 78.2455C85.9171 78.5682 86.2835 78.6512 86.4259 78.3949C86.648 77.9892 86.6424 77.3642 86.8904 77.4471C87.2604 77.5596 87.6916 77.9081 88.4946 78.6254C88.948 79.0347 89.4365 78.6807 89.3384 78.2972C89.7547 78.4041 90.1859 78.0261 89.9749 77.6002C90.5578 77.5024 90.4431 76.7796 90.11 76.6414C90.11 76.6414 90.6244 76.6414 90.4801 76.0845C90.258 75.2326 88.3411 74.1318 88.3411 74.1318C87.1106 72.6051 81.7464 65.6518 81.7464 65.6518L78.8561 68.3623C78.8561 68.3623 83.4691 73.0919 84.8383 74.6961Z" fill="#CF665A"/>
<path fill-rule="evenodd" clip-rule="evenodd" d="M89.2812 78.3381C89.1794 78.2201 89.0703 78.1076 88.9574 78.0006C88.8797 77.9287 88.8038 77.8568 88.7316 77.7904C88.6687 77.7388 88.6132 77.6872 88.5503 77.6355C88.4115 77.5194 88.2691 77.4051 88.1136 77.3037C88.0933 77.2871 88.084 77.2576 88.0988 77.2317C88.1136 77.2059 88.1451 77.1949 88.1765 77.217C88.3357 77.3036 88.5003 77.4014 88.6539 77.5139C88.715 77.5599 88.7834 77.606 88.8445 77.6614C88.9259 77.7277 89.0036 77.8052 89.0758 77.8826C89.1887 78.0006 89.2923 78.1223 89.3904 78.2569C89.4144 78.2828 89.4107 78.3288 89.3793 78.3491C89.3478 78.3749 89.3071 78.3694 89.2812 78.3381Z" fill="#A4463B"/>
<path fill-rule="evenodd" clip-rule="evenodd" d="M89.8936 77.635C89.79 77.5188 89.6771 77.4045 89.5698 77.2975C89.4921 77.2256 89.4144 77.1592 89.3385 77.0873C89.2812 77.0357 89.2256 76.9859 89.1627 76.9343C89.0184 76.8163 88.8759 76.7038 88.7261 76.6005C88.7001 76.5858 88.6946 76.5544 88.7112 76.5286C88.7261 76.5028 88.7575 76.4991 88.7834 76.5084C88.9481 76.6005 89.1072 76.6983 89.2608 76.8107C89.3274 76.8568 89.394 76.9029 89.4569 76.9601C89.5328 77.0265 89.6161 77.1021 89.6882 77.1795C89.7956 77.2975 89.8992 77.4211 90.0009 77.5538C90.0213 77.5796 90.0176 77.6257 89.9917 77.646C89.9602 77.6718 89.9195 77.6663 89.8936 77.635Z" fill="#A4463B"/>
<path fill-rule="evenodd" clip-rule="evenodd" d="M90.0525 76.6616C89.9507 76.5399 89.836 76.4274 89.7287 76.3242C89.651 76.2522 89.5751 76.1803 89.4974 76.114C89.44 76.0623 89.3845 76.0125 89.3216 75.9609C89.1828 75.8374 89.0348 75.7249 88.8849 75.6272C88.859 75.6124 88.8535 75.5811 88.8701 75.5516C88.8849 75.5294 88.9164 75.5202 88.9423 75.535C89.107 75.6216 89.2661 75.7194 89.4197 75.8318C89.4863 75.8779 89.5548 75.9296 89.6158 75.9812C89.6935 76.0531 89.7694 76.125 89.8471 76.2061C89.9544 76.3186 90.0581 76.4422 90.1617 76.5749C90.182 76.6063 90.1765 76.6468 90.1506 76.6726C90.1191 76.6929 90.0784 76.6929 90.0525 76.6616Z" fill="#A4463B"/>
<path fill-rule="evenodd" clip-rule="evenodd" d="M57.4962 75.5461C57.4388 75.607 56.719 76.575 56.6413 76.7189C56.3582 77.2407 56.5432 78.8098 56.4822 79.0956C56.4156 79.4183 56.0511 79.5013 55.9123 79.2505C55.6847 78.8393 55.6902 78.2198 55.4441 78.2972C55.0722 78.4152 54.6355 78.7582 53.8436 79.4755C53.3865 79.8848 52.8925 79.5308 52.9943 79.1472C52.5779 79.2597 52.1468 78.8762 52.3633 78.4503C51.7767 78.3525 51.8896 77.6316 52.2227 77.4933C52.2227 77.4933 51.7083 77.4933 51.8526 76.9346C52.0691 76.0846 53.9935 74.9875 53.9935 74.9875C55.2221 73.4552 60.5863 66.5038 60.5863 66.5038L63.4765 69.2124C63.4765 69.2124 58.8636 73.942 57.4962 75.5461Z" fill="#CF665A"/>
<path fill-rule="evenodd" clip-rule="evenodd" d="M53.0517 79.1931C53.1553 79.0696 53.2626 78.9571 53.3755 78.8557C53.4532 78.7782 53.5254 78.7119 53.6012 78.6455C53.6642 78.5883 53.7197 78.5367 53.7826 78.4906C53.9214 78.3689 54.0657 78.2564 54.2137 78.1587C54.2396 78.1439 54.2507 78.1071 54.2341 78.0813C54.2193 78.0554 54.1841 78.0499 54.1619 78.0665C53.9972 78.1532 53.8344 78.2509 53.679 78.3634C53.6179 78.4095 53.5513 78.4611 53.4884 78.5127C53.407 78.5828 53.3292 78.6547 53.2515 78.7321C53.1442 78.8502 53.0406 78.9737 52.9444 79.1065C52.9185 79.1378 52.9222 79.1784 52.9536 79.2042C52.9851 79.2245 53.0258 79.2189 53.0517 79.1931Z" fill="#A4463B"/>
<path fill-rule="evenodd" clip-rule="evenodd" d="M52.4394 78.4912C52.543 78.3695 52.6559 78.2571 52.7632 78.1538C52.8409 78.0764 52.9186 78.01 52.9908 77.9436C53.0518 77.8883 53.1092 77.8366 53.1703 77.785C53.309 77.667 53.4534 77.5545 53.6069 77.4568C53.6328 77.4421 53.6384 77.4052 53.6236 77.3794C53.6069 77.3554 53.5773 77.3499 53.5514 77.3646C53.3868 77.4513 53.2221 77.549 53.0666 77.6615C53.0056 77.7076 52.939 77.7592 52.8761 77.8108C52.8002 77.8827 52.7169 77.9547 52.6448 78.0358C52.5374 78.1483 52.4338 78.2718 52.332 78.4046C52.3117 78.4359 52.3117 78.4765 52.3413 78.5023C52.3728 78.5226 52.4135 78.517 52.4394 78.4912Z" fill="#A4463B"/>
<path fill-rule="evenodd" clip-rule="evenodd" d="M52.2797 77.5132C52.3834 77.3897 52.4962 77.2828 52.6035 77.174C52.6813 77.1021 52.759 77.032 52.8293 76.9638C52.8922 76.914 52.9477 76.8623 53.0106 76.8107C53.1494 76.6927 53.2937 76.5802 53.4473 76.477C53.4732 76.4622 53.4788 76.4309 53.4621 76.4069C53.4473 76.3811 53.4158 76.37 53.3862 76.3848C53.2253 76.4733 53.0624 76.5692 52.907 76.6835C52.8459 76.7296 52.7793 76.7794 52.7164 76.8365C52.6406 76.9029 52.5573 76.9748 52.4851 77.056C52.3778 77.1703 52.2742 77.292 52.1724 77.4266C52.1521 77.4561 52.1521 77.4966 52.1817 77.5225C52.2131 77.5483 52.2538 77.5427 52.2797 77.5132Z" fill="#A4463B"/>
<path fill-rule="evenodd" clip-rule="evenodd" d="M64.9179 77.2372C67.3751 77.724 76.2272 77.7903 78.8399 77.2372C79.3913 77.1192 79.8336 76.3244 79.7466 75.7602C79.556 74.4953 79.9779 70.4886 79.9779 70.4886L80.6662 71.2685L84.7037 68.2187C84.7037 68.2187 80.9234 61.7633 76.3401 61.8666C74.8487 61.9016 74.1548 62.2962 74.1548 62.2962C74.1548 62.2962 74.3861 64.4591 72.0621 64.4535C69.6696 64.4535 69.6751 62.2353 69.6751 62.2353C69.6751 62.2353 68.5131 61.8408 67.2475 61.8408C65.2269 61.8408 63.3377 62.8291 61.9296 64.2747C60.5862 65.6484 59.043 67.6969 59.043 67.6969L63.1323 70.7559L64.0019 70.0645L64.0538 71.0178C64.0538 71.0178 64.0019 74.7203 63.8835 75.9206C63.8317 76.4535 64.4035 77.1284 64.9179 77.2372Z" fill="#FEDECD"/>
<path fill-rule="evenodd" clip-rule="evenodd" d="M63.9498 68.9466C63.9498 68.9466 63.935 69.0646 63.9184 69.2232C63.9091 69.3099 63.898 69.4076 63.8943 69.5053C63.8943 69.5606 63.8943 69.6178 63.8888 69.6694C63.8888 69.8833 63.8943 70.0585 63.8943 70.0585C63.8888 70.1193 63.935 70.171 63.9961 70.171C64.0534 70.1765 64.1053 70.1304 64.109 70.0677C64.109 70.0677 64.1293 69.8944 64.146 69.6842C64.1515 69.6289 64.1552 69.5717 64.1552 69.5145C64.1608 69.4187 64.1608 69.3209 64.1608 69.238C64.1608 69.0738 64.1552 68.9577 64.1552 68.9577C64.1552 68.9005 64.1145 68.8544 64.059 68.8489C64.0016 68.8489 63.9554 68.8895 63.9498 68.9466Z" fill="#986B6B"/>
<path fill-rule="evenodd" clip-rule="evenodd" d="M79.9358 69.7099C79.9358 69.7099 79.9062 70.0326 79.8895 70.3608C79.8747 70.6834 79.8803 71.0061 79.8803 71.0061C79.8747 71.0633 79.921 71.1094 79.9728 71.1131C80.0302 71.1131 80.0764 71.0725 80.0801 71.0172C80.0801 71.0172 80.1171 70.6927 80.1319 70.37C80.1523 70.0473 80.1523 69.7246 80.1523 69.7246C80.1578 69.6638 80.1116 69.6122 80.0505 69.6066C79.9876 69.6029 79.9358 69.649 79.9358 69.7099Z" fill="#BA865D"/>
<path fill-rule="evenodd" clip-rule="evenodd" d="M72.273 34.2981C70.5281 32.2164 66.8977 32.7253 65.9096 35.2035C63.2914 34.0566 60.6694 36.1051 61.0598 38.6018C58.2103 38.5096 56.7134 41.8488 58.066 44.5188C56.5487 45.2914 56.8114 48.5919 58.6211 49.0584C57.9531 52.6282 60.6583 55.3036 64.013 55.2778L79.221 55.1395C82.8218 55.5378 86.6946 53.48 85.553 49.7074C86.9 49.1303 87.6161 45.7744 85.7528 44.2883C86.6225 41.9355 85.0737 39.0978 82.7145 38.8212C82.7848 36.4389 80.2757 34.7683 78.0849 35.1629C77.0709 33.0166 74.1141 32.386 72.273 34.2981Z" fill="#993621"/>
<path fill-rule="evenodd" clip-rule="evenodd" d="M82.2246 43.3093C79.9469 38.6222 75.4931 36.474 71.8978 36.474C68.3026 36.474 62.9218 38.3917 61.1066 43.407C59.3524 48.2325 61.1214 50.2404 61.1528 52.3425C61.2305 57.5219 64.9238 61.3849 72.1902 61.359C78.8829 61.3332 82.4356 57.3892 82.5799 52.4384C82.6428 50.1648 84.2156 47.388 82.2246 43.3093Z" fill="#CF665A"/>
<path fill-rule="evenodd" clip-rule="evenodd" d="M64.4036 53.1465C64.4036 53.1465 64.3 53.1557 64.1612 53.1926C64.1094 53.2018 64.0594 53.2129 64.0021 53.2332C63.9503 53.2535 63.904 53.2793 63.8578 53.3051C63.7338 53.377 63.6524 53.4379 63.6524 53.4379C63.5858 53.4637 63.5598 53.5356 63.5802 53.602C63.6117 53.6647 63.6838 53.6942 63.7449 53.6683C63.7449 53.6683 63.8522 53.6591 63.9873 53.6223C64.0372 53.613 64.089 53.5964 64.1409 53.5762C64.1927 53.5559 64.2389 53.5264 64.2852 53.5006C64.4092 53.4286 64.4906 53.3623 64.4906 53.3623C64.5516 53.3401 64.5831 53.2701 64.5572 53.2074C64.5313 53.1521 64.4647 53.1207 64.4036 53.1465Z" fill="#A4463B"/>
<path fill-rule="evenodd" clip-rule="evenodd" d="M79.8431 53.1465C79.8431 53.1465 79.9523 53.1557 80.0855 53.1926C80.1373 53.2018 80.1928 53.2129 80.2446 53.2332C80.2964 53.2535 80.3427 53.2793 80.389 53.3051C80.5129 53.377 80.5943 53.4379 80.5943 53.4379C80.661 53.4637 80.6924 53.5356 80.6665 53.602C80.6406 53.6647 80.5684 53.6942 80.5018 53.6683C80.5018 53.6683 80.4001 53.6591 80.2613 53.6223C80.2095 53.613 80.1577 53.5964 80.1058 53.5762C80.054 53.5559 80.0078 53.5264 79.9615 53.5006C79.8431 53.4286 79.7561 53.3623 79.7561 53.3623C79.6951 53.3401 79.6692 53.2701 79.6895 53.2074C79.7154 53.1521 79.7876 53.1207 79.8431 53.1465Z" fill="#A4463B"/>
<path fill-rule="evenodd" clip-rule="evenodd" d="M64.6243 53.653C64.6243 53.653 64.5318 53.7046 64.4134 53.7802C64.3727 53.8116 64.3264 53.8429 64.2857 53.8835C64.245 53.9185 64.2136 53.9609 64.1766 54.0015C64.0896 54.1084 64.0341 54.2006 64.0341 54.2006C63.9878 54.2467 63.9823 54.3242 64.0285 54.3758C64.0748 54.4274 64.1562 54.4274 64.208 54.3813C64.208 54.3813 64.3005 54.3297 64.4134 54.2467C64.456 54.2209 64.5022 54.1859 64.5429 54.1508C64.5781 54.1084 64.6151 54.0679 64.6447 54.0273C64.7335 53.9148 64.789 53.8263 64.789 53.8263C64.8353 53.7802 64.8353 53.7046 64.7946 53.6585C64.7483 53.6124 64.6706 53.6069 64.6243 53.653Z" fill="#A4463B"/>
<path fill-rule="evenodd" clip-rule="evenodd" d="M79.6227 53.653C79.6227 53.653 79.7152 53.7046 79.8336 53.7802C79.8743 53.8116 79.9206 53.8429 79.9613 53.8835C80.0038 53.9185 80.039 53.9609 80.0704 54.0015C80.1574 54.1084 80.2148 54.2006 80.2148 54.2006C80.2647 54.2467 80.2647 54.3242 80.2185 54.3758C80.1722 54.4274 80.0908 54.4274 80.0445 54.3813C80.0445 54.3813 79.9465 54.3297 79.8336 54.2467C79.7929 54.2209 79.7466 54.1859 79.7096 54.1508C79.6689 54.1084 79.6319 54.0679 79.6023 54.0273C79.5153 53.9148 79.4635 53.8263 79.4635 53.8263C79.4117 53.7802 79.4117 53.7046 79.458 53.6585C79.4987 53.6124 79.5764 53.6069 79.6227 53.653Z" fill="#A4463B"/>
<path fill-rule="evenodd" clip-rule="evenodd" d="M61.6874 52.1932C63.3546 49.35 62.6292 45.3948 62.6292 45.3948C64.8052 45.476 66.6297 44.9394 67.751 43.1398C69.3367 44.1558 70.7856 44.0175 72.103 42.8023C73.3372 43.9714 74.7879 44.1189 76.481 43.0734C77.9983 44.98 79.9208 45.5479 82.0561 45.4354C82.0561 45.4354 81.3048 49.6874 82.5705 52.0494L84.3135 52.2449L84.9463 47.5522L83.3051 40.6155L78.6348 36.6641L71.2334 35.2203L62.5719 37.9142L58.9211 45.2768L60.9565 52.4348L61.6874 52.1932Z" fill="#993621"/>
<path fill-rule="evenodd" clip-rule="evenodd" d="M82.0853 52.4146C82.0853 52.4146 85.2383 51.4207 86.0358 53.7864C86.4836 55.1085 85.2087 57.6899 82.3221 57.7157C80.8215 57.7323 80.2756 56.3955 80.2756 56.3955L82.0853 52.4146Z" fill="#CF665A"/>
<path fill-rule="evenodd" clip-rule="evenodd" d="M61.7282 52.4146C61.7282 52.4146 58.5752 51.4207 57.7795 53.7864C57.3317 55.1085 58.6066 57.6899 61.4913 57.7157C62.9938 57.7323 63.5397 56.3955 63.5397 56.3955L61.7282 52.4146Z" fill="#CF665A"/>
<path fill-rule="evenodd" clip-rule="evenodd" d="M83.6548 54.5492C83.4957 55.154 83.3106 55.4619 83.1256 55.5947C82.9813 55.7016 82.8425 55.6611 82.7555 55.6002C82.7037 55.5633 82.6686 55.5228 82.6575 55.497C82.6168 55.3236 82.6464 55.1485 82.7185 54.9844C82.8314 54.7502 83.0423 54.54 83.3217 54.4017C83.7066 54.2118 84.221 54.1509 84.7928 54.339C84.8538 54.3593 84.9205 54.3298 84.9408 54.2671C84.9612 54.2062 84.9316 54.1399 84.8742 54.1196C84.0711 53.8024 83.3421 53.9444 82.874 54.2837C82.663 54.4367 82.5039 54.6266 82.4058 54.8368C82.293 55.0729 82.267 55.3328 82.3337 55.5799C82.3485 55.6352 82.3947 55.7237 82.478 55.7993C82.6575 55.9579 82.9868 56.0962 83.3106 55.8307C83.516 55.6666 83.7325 55.307 83.8713 54.6008C83.8861 54.54 83.8509 54.4828 83.788 54.4681C83.7325 54.4515 83.6715 54.4939 83.6548 54.5492Z" fill="#A4463B"/>
<path fill-rule="evenodd" clip-rule="evenodd" d="M59.9443 54.6008C60.083 55.307 60.2995 55.6666 60.5049 55.8307C60.8287 56.0962 61.1581 55.9579 61.3376 55.7993C61.4208 55.7237 61.4671 55.6352 61.4819 55.5799C61.5485 55.3328 61.5226 55.0729 61.4097 54.8368C61.3117 54.6266 61.1525 54.4367 60.9416 54.2837C60.4679 53.9444 59.7426 53.8024 58.9469 54.1196C58.884 54.1399 58.8525 54.2062 58.8747 54.2671C58.8951 54.3298 58.9617 54.3593 59.0228 54.339C59.5945 54.1509 60.1089 54.2118 60.4938 54.4017C60.7714 54.54 60.9823 54.7502 61.0952 54.9844C61.1729 55.1485 61.1988 55.3236 61.1581 55.497C61.147 55.5228 61.1118 55.5633 61.06 55.6002C60.973 55.6611 60.8343 55.7016 60.6899 55.5947C60.5049 55.4619 60.3199 55.154 60.1607 54.5492C60.1441 54.4939 60.0886 54.4515 60.0257 54.4681C59.9646 54.4828 59.9276 54.54 59.9443 54.6008Z" fill="#A4463B"/>
<path fill-rule="evenodd" clip-rule="evenodd" d="M71.4545 54.4524C71.5618 54.3971 71.6913 54.386 71.8246 54.3823C71.8597 54.3823 71.8967 54.3823 71.9374 54.386C71.9744 54.386 72.0096 54.386 72.0448 54.386C72.1595 54.3915 72.2724 54.4063 72.3741 54.4579C72.4315 54.4985 72.5092 54.4837 72.5499 54.4284C72.5851 54.3712 72.5758 54.2901 72.5184 54.2477C72.4204 54.1555 72.302 54.0891 72.1798 54.0486C72.091 54.0172 72.0041 54.008 71.9171 54.008C71.8246 54.008 71.7376 54.0227 71.6543 54.0541C71.5267 54.1002 71.4138 54.1666 71.3194 54.2588C71.2639 54.2938 71.2528 54.3712 71.2898 54.4229C71.325 54.4782 71.4027 54.4948 71.4545 54.4524Z" fill="#A4463B"/>
<path fill-rule="evenodd" clip-rule="evenodd" d="M69.6903 56.4711C70.0567 56.7679 70.4934 56.9892 70.9671 57.122C71.2705 57.2049 71.5943 57.251 71.9182 57.2547C72.2364 57.2547 72.5602 57.2142 72.8692 57.133C73.3318 57.004 73.7704 56.7882 74.146 56.4766C74.2015 56.436 74.2126 56.3586 74.1663 56.3033C74.1238 56.2461 74.0479 56.2351 73.9906 56.2812C73.6316 56.5375 73.219 56.7016 72.7878 56.7938C72.5047 56.8601 72.2105 56.8859 71.9182 56.8859C71.624 56.8859 71.326 56.8564 71.0485 56.7938C70.6007 56.7016 70.1844 56.5338 69.8347 56.2867C69.7829 56.2461 69.7107 56.2553 69.67 56.307C69.6293 56.3586 69.6404 56.4305 69.6903 56.4711Z" fill="#A33226"/>
<path fill-rule="evenodd" clip-rule="evenodd" d="M67.854 45.6453C67.1694 45.2249 66.3515 45.0922 65.5762 45.2655C64.8342 45.4296 64.1459 45.8814 63.6315 46.5931C63.4872 46.7978 63.5445 47.0799 63.7499 47.2237C63.9553 47.3675 64.244 47.3104 64.3827 47.1057C64.7417 46.5525 65.2358 46.204 65.7761 46.0399C66.3719 45.8611 67.0102 45.8869 67.5709 46.1524C67.7097 46.2354 67.8892 46.1838 67.9669 46.0399C68.0446 45.9016 67.9928 45.7228 67.854 45.6453Z" fill="#993621"/>
<path fill-rule="evenodd" clip-rule="evenodd" d="M76.3565 46.1524C76.9172 45.8869 77.5592 45.8611 78.1514 46.0399C78.6917 46.204 79.1894 46.5525 79.5447 47.1057C79.689 47.3104 79.9721 47.3675 80.1775 47.2237C80.3884 47.0799 80.4402 46.7978 80.3015 46.5931C79.7815 45.8814 79.0932 45.4296 78.3567 45.2655C77.5759 45.0922 76.758 45.2249 76.079 45.6453C75.9346 45.7228 75.8828 45.9016 75.9605 46.0399C76.0364 46.1838 76.2177 46.2354 76.3565 46.1524Z" fill="#993621"/>
<path fill-rule="evenodd" clip-rule="evenodd" d="M68.938 50.0612C68.1165 49.5135 67.108 49.4564 66.2439 49.7551C65.2725 50.087 64.4898 50.8706 64.2733 51.87C64.2437 52.0341 64.3362 52.1872 64.4842 52.224C64.6341 52.2591 64.7784 52.1577 64.8081 51.9936C64.9524 51.1638 65.5963 50.5184 66.3827 50.1939C67.1432 49.8878 68.0388 49.8712 68.8048 50.3119C68.8677 50.3543 68.9491 50.3322 68.9861 50.2621C69.0213 50.1902 69.001 50.1017 68.938 50.0612Z" fill="#7F392A"/>
<path fill-rule="evenodd" clip-rule="evenodd" d="M75.1227 50.3119C75.8888 49.8712 76.7843 49.8878 77.5448 50.1939C78.3312 50.5184 78.9752 51.1638 79.1232 51.9936C79.1547 52.1577 79.299 52.2591 79.447 52.224C79.5913 52.1872 79.6894 52.0341 79.6542 51.87C79.4378 50.8706 78.6551 50.087 77.6892 49.7551C76.8195 49.4564 75.8166 49.5135 74.9877 50.0612C74.9266 50.1017 74.9062 50.1902 74.9414 50.2621C74.9784 50.3322 75.0598 50.3543 75.1227 50.3119Z" fill="#7F392A"/>
<path fill-rule="evenodd" clip-rule="evenodd" d="M67.4215 50.6611C68.2246 50.6611 68.8722 51.312 68.8722 52.1067C68.8722 52.9051 68.2246 53.556 67.4215 53.556C66.6203 53.556 65.9727 52.9051 65.9727 52.1067C65.9727 51.312 66.6203 50.6611 67.4215 50.6611Z" fill="#7F392A"/>
<path fill-rule="evenodd" clip-rule="evenodd" d="M76.5107 50.6611C75.7095 50.6611 75.0563 51.312 75.0563 52.1067C75.0563 52.9051 75.7095 53.556 76.5107 53.556C77.3082 53.556 77.9614 52.9051 77.9614 52.1067C77.9614 51.312 77.3082 50.6611 76.5107 50.6611Z" fill="#7F392A"/>
<path fill-rule="evenodd" clip-rule="evenodd" d="M75.5082 50.8102C75.288 50.8102 75.1066 50.989 75.1066 51.2103C75.1066 51.4297 75.288 51.6086 75.5082 51.6086C75.7302 51.6086 75.9097 51.4297 75.9097 51.2103C75.9097 50.989 75.7302 50.8102 75.5082 50.8102Z" fill="white"/>
<path fill-rule="evenodd" clip-rule="evenodd" d="M66.3687 50.8102C66.1466 50.8102 65.9727 50.989 65.9727 51.2103C65.9727 51.4297 66.1466 51.6086 66.3687 51.6086C66.5889 51.6086 66.7683 51.4297 66.7683 51.2103C66.7683 50.989 66.5889 50.8102 66.3687 50.8102Z" fill="white"/>
<path fill-rule="evenodd" clip-rule="evenodd" d="M72.0769 55.5232C72.8744 55.5232 73.9754 54.6216 74.7766 55.9178C75.389 56.9024 73.857 58.3407 72.0769 58.3407C70.1118 58.3407 68.7703 56.9633 69.3717 55.9178C70.06 54.7193 71.1462 55.5232 72.0769 55.5232Z" fill="white"/>
<mask id="mask8_234_4703" style="mask-type:luminance" maskUnits="userSpaceOnUse" x="139" y="83" width="7" height="16">
<path d="M139.086 83.0025H145.633V99H139.086V83.0025Z" fill="white"/>
</mask>
<g mask="url(#mask8_234_4703)">
<path fill-rule="evenodd" clip-rule="evenodd" d="M145.294 83.3446H139.569L139.693 95.5879L139.441 98.6728H144.436L144.493 96.5007L145.294 83.3446Z" fill="#F6B99C"/>
</g>
<mask id="mask9_234_4703" style="mask-type:luminance" maskUnits="userSpaceOnUse" x="147" y="83" width="7" height="16">
<path d="M147.053 83.0025H153.57V99H147.053V83.0025Z" fill="white"/>
</mask>
<g mask="url(#mask9_234_4703)">
<path fill-rule="evenodd" clip-rule="evenodd" d="M147.434 83.2085H153.154L153.035 95.5864L153.281 98.6713H148.287L148.276 96.4125L147.434 83.2085Z" fill="#F6B99C"/>
</g>
<path fill-rule="evenodd" clip-rule="evenodd" d="M144.964 83.2779H139.172L139.343 87.2588L139.565 89.3848C141.293 90.0191 143.123 90.2754 144.934 90.0855L145.077 87.5501L144.964 83.2779Z" fill="#F38B81"/>
<path fill-rule="evenodd" clip-rule="evenodd" d="M147.762 83.2779H153.611L153.441 87.2588L153.154 89.3848C151.403 90.0191 149.625 90.2754 147.793 90.0855L147.649 87.5501L147.762 83.2779Z" fill="#F38B81"/>
<mask id="mask10_234_4703" style="mask-type:luminance" maskUnits="userSpaceOnUse" x="135" y="94" width="10" height="5">
<path d="M135.211 94.8033H144.685V98.9999H135.211V94.8033Z" fill="white"/>
</mask>
<g mask="url(#mask10_234_4703)">
<path fill-rule="evenodd" clip-rule="evenodd" d="M144.513 96.1255C144.513 96.1255 142.311 96.6326 141.612 96.6178C141.123 96.6031 140.383 95.1482 139.589 95.281C138.52 95.4599 137.26 96.3007 136.17 96.8483C135.707 97.0733 135.485 97.6061 135.65 98.0929C135.831 98.6369 136.34 99.0001 136.916 99.0001C139.147 99.0001 144.502 99.0001 144.502 99.0001C144.548 98.0634 144.585 97.1194 144.513 96.1255Z" fill="#593665"/>
</g>
<mask id="mask11_234_4703" style="mask-type:luminance" maskUnits="userSpaceOnUse" x="148" y="94" width="10" height="5">
<path d="M148.001 94.8033H157.474V98.9999H148.001V94.8033Z" fill="white"/>
</mask>
<g mask="url(#mask11_234_4703)">
<path fill-rule="evenodd" clip-rule="evenodd" d="M148.21 96.1255C148.21 96.1255 150.412 96.6326 151.112 96.6178C151.6 96.6031 152.34 95.1482 153.132 95.281C154.204 95.4599 155.467 96.3007 156.553 96.8483C157.016 97.0733 157.238 97.6061 157.073 98.0929C157.077 98.0929 157.077 98.0929 157.077 98.0929C156.892 98.6369 156.383 99.0001 155.808 99.0001C153.574 99.0001 148.221 99.0001 148.221 99.0001C148.175 98.0634 148.144 97.1194 148.21 96.1255Z" fill="#593665"/>
</g>
<path fill-rule="evenodd" clip-rule="evenodd" d="M138.715 95.3934C138.715 95.3934 138.819 95.5169 138.962 95.67C139.039 95.7566 139.126 95.8544 139.219 95.941C139.487 96.2029 139.77 96.4389 139.77 96.4389C139.842 96.5108 139.955 96.5108 140.027 96.4389C140.1 96.3725 140.1 96.2582 140.027 96.1881C140.027 96.1881 139.785 95.906 139.528 95.6386C139.435 95.5464 139.337 95.4598 139.256 95.3823C139.097 95.2404 138.978 95.1371 138.978 95.1371C138.906 95.0652 138.788 95.0652 138.715 95.1371C138.643 95.209 138.643 95.3215 138.715 95.3934Z" fill="#9D76AB"/>
<path fill-rule="evenodd" clip-rule="evenodd" d="M153.744 95.1371C153.744 95.1371 153.626 95.2404 153.467 95.3823C153.385 95.4598 153.287 95.5464 153.2 95.6386C152.938 95.906 152.695 96.1881 152.695 96.1881C152.623 96.2582 152.623 96.3725 152.695 96.4389C152.767 96.5108 152.88 96.5108 152.952 96.4389C152.952 96.4389 153.235 96.2029 153.504 95.941C153.596 95.8544 153.683 95.7566 153.761 95.67C153.903 95.5169 154.007 95.3934 154.007 95.3934C154.079 95.3215 154.079 95.209 154.007 95.1371C153.935 95.0652 153.816 95.0652 153.744 95.1371Z" fill="#9D76AB"/>
<path fill-rule="evenodd" clip-rule="evenodd" d="M137.929 95.7882C137.929 95.7882 138.031 95.9117 138.175 96.0647C138.253 96.1459 138.34 96.2436 138.432 96.3358C138.701 96.5921 138.982 96.8336 138.982 96.8336C139.054 96.9055 139.169 96.9055 139.235 96.8336C139.308 96.7617 139.308 96.6492 139.235 96.5829C139.235 96.5829 138.999 96.2952 138.736 96.0279C138.643 95.9357 138.551 95.8545 138.464 95.7771C138.308 95.6351 138.186 95.5319 138.186 95.5319C138.114 95.4599 138.001 95.4599 137.929 95.5319C137.857 95.5982 137.857 95.7162 137.929 95.7882Z" fill="#9D76AB"/>
<path fill-rule="evenodd" clip-rule="evenodd" d="M154.536 95.5319C154.536 95.5319 154.414 95.6351 154.259 95.7771C154.177 95.8545 154.079 95.9357 153.987 96.0279C153.724 96.2952 153.487 96.5829 153.487 96.5829C153.415 96.6492 153.415 96.7617 153.487 96.8336C153.554 96.9055 153.672 96.9055 153.739 96.8336C153.739 96.8336 154.027 96.5921 154.296 96.3358C154.383 96.2436 154.47 96.1459 154.547 96.0647C154.692 95.9117 154.793 95.7882 154.793 95.7882C154.866 95.7162 154.866 95.5982 154.793 95.5319C154.721 95.4599 154.608 95.4599 154.536 95.5319Z" fill="#9D76AB"/>
<path fill-rule="evenodd" clip-rule="evenodd" d="M146.647 59.5619L142.126 59.986L142.537 64.2952L147.059 63.8655L146.647 59.5619Z" fill="#F6B99C"/>
<path fill-rule="evenodd" clip-rule="evenodd" d="M146.647 59.5619L142.126 59.986L142.291 61.6676C143.834 62.2153 145.346 62.1839 146.806 61.2417L146.647 59.5619Z" fill="#F38B81"/>
<path fill-rule="evenodd" clip-rule="evenodd" d="M153.319 76.7241L138.725 76.595L138.089 88.7167C140.629 89.2201 143.207 89.4395 145.814 89.3381C145.814 89.3381 145.942 85.997 146.081 85.3314C146.127 85.1304 146.621 85.1212 146.667 85.3203C146.823 85.9859 147.002 89.3123 147.002 89.3123C149.424 89.4303 151.878 89.1998 154.378 88.3738C154.378 88.3738 153.719 81.0222 153.319 76.7241Z" fill="#D2D0F7"/>
<path fill-rule="evenodd" clip-rule="evenodd" d="M150.233 78.7435C150.346 79.0864 150.484 79.3686 150.649 79.6027C150.855 79.8959 151.091 80.1061 151.363 80.2536C151.534 80.3514 151.719 80.4177 151.909 80.4638C152.314 80.5671 152.768 80.5616 153.247 80.4952C153.282 80.4896 153.308 80.4583 153.303 80.4233C153.297 80.3919 153.267 80.3661 153.23 80.3716C152.768 80.4288 152.337 80.4233 151.944 80.3255C151.765 80.2794 151.595 80.2131 151.436 80.1264C151.184 79.9826 150.958 79.7871 150.762 79.5216C150.603 79.3003 150.459 79.0293 150.34 78.7066C150.329 78.6753 150.299 78.6605 150.268 78.6716C150.236 78.6808 150.222 78.7121 150.233 78.7435Z" fill="#8885B9"/>
<path fill-rule="evenodd" clip-rule="evenodd" d="M141.498 79.2501C141.431 79.5931 141.333 79.8789 141.209 80.126C141.06 80.4173 140.865 80.6478 140.64 80.8266C140.495 80.9354 140.34 81.0276 140.171 81.0995C139.799 81.2636 139.374 81.3355 138.906 81.3503C138.874 81.3503 138.843 81.3816 138.848 81.4167C138.848 81.448 138.874 81.4775 138.911 81.4738C139.394 81.4683 139.842 81.3964 140.227 81.2378C140.412 81.1604 140.582 81.0626 140.736 80.9446C140.978 80.7566 141.178 80.504 141.333 80.1868C141.461 79.9305 141.554 79.6281 141.611 79.2704C141.616 79.2391 141.596 79.2077 141.565 79.204C141.533 79.1985 141.504 79.2188 141.498 79.2501Z" fill="#8885B9"/>
<path fill-rule="evenodd" clip-rule="evenodd" d="M146.131 79.4847C146.131 79.4847 146.142 80.0029 146.168 80.6943C146.178 81.0631 146.194 81.4835 146.209 81.9094C146.22 82.1491 146.229 82.3962 146.24 82.6322C146.281 83.5579 146.316 84.3268 146.316 84.3268C146.316 84.3581 146.348 84.3895 146.383 84.3839C146.414 84.3839 146.446 84.3526 146.44 84.3212C146.44 84.3212 146.42 83.5542 146.388 82.6267C146.379 82.3907 146.368 82.1455 146.359 81.8984C146.342 81.478 146.322 81.0594 146.307 80.6888C146.276 79.9973 146.25 79.481 146.25 79.481C146.244 79.4497 146.22 79.4239 146.189 79.4239C146.152 79.4239 146.126 79.4552 146.131 79.4847Z" fill="#8885B9"/>
<path fill-rule="evenodd" clip-rule="evenodd" d="M147.178 79.481C147.156 79.8037 147.115 80.0692 147.063 80.2942C147.017 80.5007 146.956 80.6685 146.889 80.8068C146.73 81.135 146.508 81.2899 146.251 81.3563C146.216 81.3655 146.199 81.3968 146.205 81.4319C146.216 81.4632 146.245 81.4835 146.282 81.4743C146.575 81.4061 146.837 81.2438 147.023 80.8732C147.1 80.7257 147.161 80.5468 147.208 80.3311C147.254 80.0951 147.285 79.8185 147.295 79.4847C147.3 79.4552 147.274 79.4239 147.239 79.4239C147.208 79.4239 147.182 79.4497 147.178 79.481Z" fill="#8885B9"/>
<mask id="mask12_234_4703" style="mask-type:luminance" maskUnits="userSpaceOnUse" x="153" y="46" width="14" height="18">
<path d="M153.211 46.6571H167V63.6503H153.211V46.6571Z" fill="white"/>
</mask>
<g mask="url(#mask12_234_4703)">
<path fill-rule="evenodd" clip-rule="evenodd" d="M153.466 59.269C157.437 57.5745 162.359 51.5837 162.148 51.3071C161.957 51.0674 161.511 49.7251 161.839 48.5985C161.954 48.2076 162.2 48.1209 162.353 48.3514C162.535 48.6077 162.725 49.7564 162.992 49.6015C163.203 49.478 163.543 47.8757 164.381 47.1012C164.812 46.7011 165.266 46.8763 165.24 47.2598C165.564 46.8247 166.072 47.0256 166.037 47.4958C166.393 47.1787 166.716 47.6507 166.696 47.9162C166.679 48.0951 166.381 48.6335 166.381 48.6335C166.381 48.6335 166.931 48.3717 167.014 48.8751C167.148 49.7085 165.63 51.261 164.962 52.4706C163.491 55.1406 161.228 58.9408 155.74 63.4288L153.466 59.269Z" fill="#F6B99C"/>
</g>
<path fill-rule="evenodd" clip-rule="evenodd" d="M166.012 47.4855C165.836 47.7455 165.683 47.9871 165.538 48.2268C165.431 48.3964 165.333 48.5605 165.24 48.7394C165.09 49.0123 164.957 49.3036 164.824 49.6263C164.807 49.6613 164.824 49.7037 164.859 49.7129C164.891 49.7295 164.931 49.7129 164.946 49.6834C165.085 49.3607 165.229 49.0842 165.379 48.8113C165.472 48.6435 165.57 48.4794 165.671 48.3097C165.816 48.0682 165.96 47.8229 166.125 47.5556C166.145 47.5206 166.136 47.48 166.104 47.4597C166.073 47.4431 166.032 47.4486 166.012 47.4855Z" fill="#F38B81"/>
<path fill-rule="evenodd" clip-rule="evenodd" d="M165.142 47.2494C164.972 47.5149 164.813 47.7565 164.669 47.9962C164.567 48.1658 164.469 48.3299 164.371 48.5051C164.226 48.7816 164.088 49.0675 163.954 49.3957C163.94 49.4307 163.954 49.4731 163.989 49.4823C164.026 49.4989 164.062 49.4823 164.078 49.4528C164.217 49.1301 164.361 48.8517 164.515 48.5807C164.607 48.4129 164.706 48.2488 164.804 48.0736C164.946 47.8376 165.096 47.5923 165.261 47.325C165.281 47.2899 165.272 47.2494 165.235 47.2291C165.203 47.2088 165.163 47.218 165.142 47.2494Z" fill="#F38B81"/>
<path fill-rule="evenodd" clip-rule="evenodd" d="M132.714 74.434C132.667 74.5004 132.02 75.5145 131.953 75.6638C131.711 76.2059 132.014 77.7585 131.979 78.0498C131.933 78.378 131.572 78.4868 131.413 78.2397C131.161 77.8507 131.119 77.2311 130.878 77.3289C130.517 77.4727 130.11 77.8507 129.37 78.6288C128.948 79.0695 128.43 78.7523 128.506 78.3633C128.095 78.5016 127.636 78.1531 127.818 77.7179C127.225 77.6663 127.287 76.9343 127.612 76.7757C127.612 76.7757 127.092 76.8107 127.194 76.2428C127.349 75.3762 129.179 74.1371 129.179 74.1371C130.286 72.5219 135.11 65.1814 135.11 65.1814L138.202 67.6706C138.202 67.6706 133.959 72.7321 132.714 74.434Z" fill="#F6B99C"/>
<path fill-rule="evenodd" clip-rule="evenodd" d="M128.563 78.404C128.655 78.2713 128.757 78.1533 128.855 78.0408C128.927 77.9633 128.999 77.8877 129.072 77.8158C129.123 77.7587 129.179 77.7034 129.236 77.6462C129.364 77.519 129.503 77.3954 129.643 77.283C129.667 77.2664 129.673 77.2313 129.658 77.211C129.643 77.1852 129.606 77.1797 129.58 77.1944C129.421 77.2977 129.271 77.4046 129.123 77.5282C129.066 77.5798 129.005 77.6351 128.942 77.6923C128.872 77.7697 128.8 77.8453 128.733 77.9338C128.629 78.0555 128.537 78.1846 128.444 78.3284C128.424 78.3579 128.433 78.3985 128.465 78.4206C128.496 78.4409 128.537 78.4354 128.563 78.404Z" fill="#F38B81"/>
<path fill-rule="evenodd" clip-rule="evenodd" d="M127.898 77.7493C127.99 77.6203 128.094 77.5022 128.196 77.3898C128.264 77.3086 128.335 77.2312 128.407 77.1593C128.464 77.1021 128.516 77.0468 128.571 76.9952C128.707 76.8624 128.84 76.7389 128.984 76.6319C129.004 76.6116 129.01 76.5803 128.993 76.5545C128.973 76.5287 128.942 76.5231 128.917 76.5397C128.762 76.6412 128.608 76.7499 128.464 76.8716C128.403 76.9233 128.34 76.9804 128.285 77.0357C128.207 77.1132 128.135 77.1943 128.068 77.2773C127.965 77.4008 127.872 77.5336 127.785 77.6719C127.765 77.7032 127.77 77.7438 127.8 77.7641C127.831 77.7899 127.872 77.7788 127.898 77.7493Z" fill="#F38B81"/>
<path fill-rule="evenodd" clip-rule="evenodd" d="M127.667 76.7847C127.76 76.6575 127.864 76.5395 127.962 76.427C128.032 76.3441 128.104 76.2721 128.176 76.1965C128.228 76.1394 128.285 76.0841 128.341 76.0324C128.47 75.9034 128.604 75.7817 128.748 75.6674C128.774 75.6526 128.779 75.6176 128.763 75.5918C128.742 75.5715 128.711 75.5604 128.687 75.5807C128.526 75.6784 128.378 75.7909 128.228 75.9144C128.167 75.9661 128.11 76.0158 128.049 76.0785C127.976 76.1505 127.904 76.2316 127.832 76.3182C127.734 76.4363 127.641 76.569 127.549 76.7091C127.529 76.7386 127.54 76.7847 127.569 76.805C127.601 76.8253 127.641 76.8161 127.667 76.7847Z" fill="#F38B81"/>
<path fill-rule="evenodd" clip-rule="evenodd" d="M138.057 79.5065C142.877 80.0283 150.273 80.0025 154.11 78.343C153.79 73.8402 153.339 69.7099 152.932 67.276C154.171 66.5643 155.489 65.8065 156.83 64.8274L154.443 58.5157L146.781 61.4862C146.781 61.4862 146.868 63.2545 144.923 63.4444C142.583 63.6639 142.311 61.9122 142.311 61.9122C142.311 61.9122 141.149 62.0247 139.889 62.1427C137.872 62.3326 135.947 63.7358 134.75 65.0634C133.629 66.3025 132.698 67.9417 132.698 67.9417L136.854 71.0929L137.692 70.2631L137.949 71.3694C138.51 74.2957 138.242 77.0357 138.057 79.5065Z" fill="#8597CF"/>
<path fill-rule="evenodd" clip-rule="evenodd" d="M138.031 71.2222C138.016 71.1042 137.996 70.9807 137.975 70.8571C137.955 70.7391 137.929 70.623 137.898 70.4994C137.883 70.433 137.86 70.3611 137.84 70.2892C137.79 70.1307 137.727 69.9665 137.661 69.8024C137.646 69.7563 137.594 69.7361 137.548 69.7508C137.502 69.7674 137.481 69.8172 137.496 69.8633C137.542 70.0016 137.579 70.1399 137.62 70.2782C137.655 70.4072 137.687 70.54 137.722 70.6691C137.774 70.8627 137.825 71.0581 137.866 71.2517C137.877 71.2978 137.918 71.3292 137.964 71.3181C138.01 71.3144 138.042 71.2683 138.031 71.2222Z" fill="#5E5757"/>
<path fill-rule="evenodd" clip-rule="evenodd" d="M152.561 66.3194C152.561 66.3194 152.596 66.4816 152.648 66.6973C152.68 66.8154 152.709 66.9481 152.746 67.0772C152.767 67.1528 152.793 67.2302 152.813 67.3021C152.9 67.5843 152.978 67.824 152.978 67.824C152.992 67.8701 153.039 67.8959 153.085 67.8811C153.131 67.8701 153.163 67.8203 153.148 67.7742C153.148 67.7742 153.09 67.5326 153.015 67.2468C152.998 67.1694 152.978 67.0919 152.957 67.02C152.917 66.8873 152.874 66.76 152.839 66.6457C152.772 66.4318 152.72 66.2733 152.72 66.2733C152.709 66.2308 152.663 66.205 152.617 66.2161C152.57 66.2308 152.546 66.2733 152.561 66.3194Z" fill="#5E5757"/>
<path fill-rule="evenodd" clip-rule="evenodd" d="M142.027 34.8309C132.296 34.9434 130.429 41.5058 130.429 41.5058C130.429 41.5058 124.123 42.8536 129.241 52.1523C132.394 57.8702 136.163 56.8339 136.163 56.8339L151.099 53.987C151.099 53.987 156.63 53.7971 156.352 47.5094C155.94 38.196 151.049 34.7276 142.027 34.8309Z" fill="#3B3A5D"/>
<path fill-rule="evenodd" clip-rule="evenodd" d="M151.852 41.6238C148.761 37.4179 143.993 36.105 140.459 36.7467C136.921 37.3865 131.973 40.2243 131.083 45.4867C130.228 50.5481 132.332 52.2076 132.739 54.2673C133.748 59.3508 138.072 62.4965 145.216 61.1689C151.796 59.9501 154.588 55.4363 153.837 50.5481C153.493 48.2949 154.542 45.282 151.852 41.6238Z" fill="#F6B99C"/>
<path fill-rule="evenodd" clip-rule="evenodd" d="M136.082 54.4779C136.082 54.4779 135.979 54.5092 135.851 54.5664C135.805 54.5903 135.753 54.6125 135.707 54.6364C135.655 54.6678 135.614 54.7047 135.574 54.7342C135.464 54.8264 135.392 54.9038 135.392 54.9038C135.337 54.9388 135.32 55.0163 135.357 55.0771C135.392 55.1343 135.47 55.149 135.527 55.114C135.527 55.114 135.629 55.0827 135.759 55.0273C135.805 55.0071 135.855 54.9812 135.901 54.9499C135.947 54.9186 135.99 54.8835 136.031 54.8466C136.134 54.7544 136.205 54.6788 136.205 54.6788C136.262 54.6475 136.277 54.5701 136.247 54.5147C136.21 54.4631 136.138 54.4484 136.082 54.4779Z" fill="#F38B81"/>
<path fill-rule="evenodd" clip-rule="evenodd" d="M151.276 51.7267C151.276 51.7267 151.38 51.7212 151.522 51.7267C151.574 51.7323 151.626 51.7323 151.683 51.7433C151.739 51.7526 151.79 51.7673 151.837 51.7894C151.97 51.8355 152.068 51.8816 152.068 51.8816C152.135 51.8964 152.175 51.9628 152.166 52.0291C152.151 52.0955 152.083 52.1416 152.016 52.1269C152.016 52.1269 151.909 52.1324 151.77 52.1269C151.718 52.1213 151.661 52.1158 151.611 52.1011C151.554 52.0918 151.502 52.0697 151.455 52.055C151.322 52.0033 151.224 51.9572 151.224 51.9572C151.163 51.9425 151.122 51.8816 151.132 51.8189C151.146 51.7526 151.209 51.712 151.276 51.7267Z" fill="#F38B81"/>
<path fill-rule="evenodd" clip-rule="evenodd" d="M136.391 54.9385C136.391 54.9385 136.308 55.0067 136.21 55.1026C136.169 55.145 136.134 55.1801 136.097 55.2261C136.066 55.2667 136.036 55.3183 136.01 55.3589C135.943 55.4824 135.906 55.5857 135.906 55.5857C135.866 55.641 135.88 55.7185 135.932 55.759C135.99 55.7996 136.066 55.7904 136.108 55.7332C136.108 55.7332 136.195 55.6668 136.293 55.5636C136.323 55.5285 136.365 55.488 136.395 55.4419C136.426 55.3958 136.452 55.3497 136.478 55.3036C136.545 55.1801 136.58 55.0768 136.58 55.0768C136.622 55.027 136.606 54.9551 136.554 54.9145C136.504 54.8777 136.432 54.8887 136.391 54.9385Z" fill="#F38B81"/>
<path fill-rule="evenodd" clip-rule="evenodd" d="M151.146 52.2645C151.146 52.2645 151.244 52.2996 151.379 52.3567C151.425 52.377 151.472 52.4028 151.522 52.4287C151.568 52.46 151.61 52.495 151.651 52.5264C151.753 52.6186 151.825 52.6997 151.825 52.6997C151.882 52.7366 151.903 52.8122 151.862 52.8693C151.825 52.9302 151.749 52.9468 151.692 52.9044C151.692 52.9044 151.59 52.8749 151.461 52.8122C151.414 52.7919 151.362 52.7661 151.316 52.7366C151.276 52.7052 151.235 52.6702 151.192 52.6333C151.09 52.5411 151.018 52.4637 151.018 52.4637C150.961 52.4287 150.946 52.3567 150.983 52.2996C151.018 52.2443 151.09 52.2295 151.146 52.2645Z" fill="#F38B81"/>
<path fill-rule="evenodd" clip-rule="evenodd" d="M133.32 54.2067C134.435 51.0462 133.638 46.0807 133.638 46.0807C137.276 46.9012 147.331 45.8502 145.403 42.592C147.14 44.3695 150.376 45.3339 152.114 43.7648C152.114 43.7648 152.186 48.3099 153.857 50.4673L155.591 50.2202L155.348 45.38L151.146 39.2012L146.267 35.9006L140.016 36.2804L132.034 40.3941L129.323 47.7309L132.652 54.581L133.32 54.2067Z" fill="#3B3A5D"/>
<path fill-rule="evenodd" clip-rule="evenodd" d="M153.342 50.6114C153.342 50.6114 156.27 49.0681 157.478 51.2568C158.157 52.4756 157.365 55.2414 154.532 55.7853C153.056 56.0674 152.279 54.8431 152.279 54.8431L153.342 50.6114Z" fill="#F6B99C"/>
<path fill-rule="evenodd" clip-rule="evenodd" d="M133.32 54.2379C133.32 54.2379 130.039 53.823 129.678 56.292C129.479 57.6749 131.196 59.9853 134.04 59.4985C135.522 59.2422 135.814 57.8298 135.814 57.8298L133.32 54.2379Z" fill="#F6B99C"/>
<path fill-rule="evenodd" clip-rule="evenodd" d="M155.278 52.4289C155.226 53.054 155.097 53.3877 154.943 53.5555C154.819 53.6846 154.675 53.668 154.573 53.6219C154.521 53.5961 154.475 53.5666 154.464 53.5408C154.392 53.3767 154.388 53.1978 154.434 53.0226C154.501 52.7719 154.671 52.5303 154.917 52.3423C155.267 52.086 155.756 51.9366 156.353 52.0196C156.42 52.0288 156.481 51.9882 156.492 51.9219C156.501 51.8592 156.455 51.7983 156.394 51.7891C155.55 51.6195 154.86 51.8905 154.46 52.3054C154.275 52.4953 154.151 52.711 154.094 52.936C154.027 53.1868 154.048 53.4486 154.157 53.6791C154.186 53.7344 154.249 53.8063 154.342 53.869C154.547 53.9907 154.891 54.0737 155.163 53.7565C155.339 53.55 155.484 53.1609 155.498 52.4381C155.504 52.3773 155.452 52.3257 155.391 52.3257C155.334 52.322 155.278 52.3681 155.278 52.4289Z" fill="#F38B81"/>
<path fill-rule="evenodd" clip-rule="evenodd" d="M131.953 56.7071C132.219 57.3783 132.497 57.6899 132.728 57.819C133.098 58.0237 133.392 57.8301 133.542 57.6346C133.609 57.548 133.639 57.4558 133.644 57.3986C133.664 57.1423 133.592 56.8915 133.444 56.6758C133.309 56.4914 133.115 56.3273 132.878 56.2148C132.358 55.9696 131.618 55.9585 130.887 56.4103C130.832 56.4416 130.811 56.5117 130.841 56.5689C130.878 56.626 130.95 56.6463 131.006 56.6149C131.531 56.3236 132.045 56.2923 132.462 56.4158C132.76 56.4969 133.006 56.6666 133.156 56.8805C133.263 57.0243 133.32 57.1939 133.309 57.3728C133.309 57.4041 133.28 57.4447 133.239 57.4908C133.156 57.5682 133.028 57.6346 132.867 57.5516C132.662 57.4558 132.425 57.1829 132.158 56.6205C132.132 56.5633 132.066 56.5375 132.014 56.5633C131.957 56.5836 131.927 56.65 131.953 56.7071Z" fill="#F38B81"/>
<path fill-rule="evenodd" clip-rule="evenodd" d="M143.256 54.5095C143.348 54.432 143.478 54.4025 143.605 54.3767C143.642 54.3657 143.677 54.3601 143.714 54.3564C143.75 54.3509 143.787 54.3398 143.822 54.3398C143.935 54.3251 144.048 54.314 144.157 54.3509C144.218 54.3822 144.295 54.3564 144.327 54.2901C144.357 54.2274 144.327 54.1518 144.264 54.1204C144.151 54.0485 144.027 54.0024 143.888 53.9821C143.807 53.9655 143.714 53.9711 143.627 53.9877C143.539 54.0079 143.457 54.0374 143.38 54.0799C143.261 54.1518 143.159 54.2329 143.082 54.3398C143.041 54.3859 143.041 54.4634 143.087 54.5095C143.133 54.5556 143.209 54.5556 143.256 54.5095Z" fill="#F38B81"/>
<path fill-rule="evenodd" clip-rule="evenodd" d="M141.883 56.8106C142.29 57.0355 142.764 57.1794 143.252 57.2199C143.565 57.2513 143.894 57.2402 144.213 57.183C144.527 57.1277 144.836 57.03 145.128 56.8917C145.561 56.687 145.952 56.3957 146.266 56.0214C146.313 55.9698 146.307 55.8923 146.255 55.8462C146.203 55.8001 146.126 55.8057 146.08 55.8573C145.767 56.1744 145.391 56.4105 144.984 56.5801C144.718 56.6926 144.435 56.7682 144.146 56.8198C143.854 56.8714 143.559 56.8972 143.273 56.8862C142.819 56.8714 142.383 56.7848 141.992 56.6004C141.929 56.569 141.857 56.5948 141.831 56.6502C141.802 56.7073 141.827 56.7792 141.883 56.8106Z" fill="#D75E51"/>
<path fill-rule="evenodd" clip-rule="evenodd" d="M138.128 46.4862C137.383 46.193 136.554 46.2096 135.819 46.5157C135.12 46.8089 134.522 47.3768 134.143 48.1715C134.039 48.3965 134.143 48.6675 134.374 48.7708C134.605 48.874 134.872 48.7708 134.975 48.5403C135.227 47.9355 135.655 47.5003 136.158 47.244C136.709 46.9619 137.342 46.8697 137.943 47.0394C138.093 47.091 138.258 47.008 138.308 46.855C138.365 46.7001 138.278 46.5378 138.128 46.4862Z" fill="#3B3A5D"/>
<path fill-rule="evenodd" clip-rule="evenodd" d="M146.591 45.472C147.089 45.1032 147.716 44.9649 148.328 45.035C148.889 45.1032 149.444 45.3577 149.892 45.8408C150.073 46.0141 150.36 46.0196 150.539 45.8408C150.721 45.6656 150.721 45.3798 150.539 45.1991C149.908 44.5906 149.146 44.2679 148.391 44.2421C147.597 44.2108 146.811 44.4818 146.221 45.0202C146.097 45.1235 146.076 45.3079 146.178 45.4296C146.282 45.5531 146.461 45.5734 146.591 45.472Z" fill="#3B3A5D"/>
<path fill-rule="evenodd" clip-rule="evenodd" d="M139.991 50.6405C139.08 50.2403 138.077 50.3694 137.28 50.8156C136.392 51.3172 135.759 52.2299 135.727 53.2477C135.722 53.4118 135.846 53.5501 135.994 53.5612C136.149 53.5667 136.273 53.4376 136.273 53.2791C136.268 52.4346 136.788 51.6804 137.502 51.225C138.19 50.7843 139.071 50.611 139.904 50.9078C139.97 50.9373 140.048 50.9023 140.074 50.8249C140.1 50.7493 140.057 50.6663 139.991 50.6405Z" fill="#3D3D4B"/>
<path fill-rule="evenodd" clip-rule="evenodd" d="M146.122 49.785C146.79 49.2115 147.674 49.0677 148.483 49.2373C149.31 49.4107 150.061 49.9343 150.354 50.7235C150.417 50.8766 150.576 50.954 150.715 50.8913C150.853 50.8305 150.914 50.6608 150.859 50.5078C150.463 49.5656 149.553 48.9294 148.539 48.7764C147.634 48.6381 146.657 48.8686 145.946 49.56C145.885 49.6117 145.88 49.7038 145.931 49.7647C145.978 49.8255 146.065 49.8366 146.122 49.785Z" fill="#3D3D4B"/>
<path fill-rule="evenodd" clip-rule="evenodd" d="M138.603 51.4963C139.395 51.3525 140.15 51.8761 140.291 52.6653C140.433 53.4489 139.915 54.2012 139.123 54.3451C138.335 54.4889 137.58 53.9652 137.436 53.1816C137.291 52.3979 137.815 51.6401 138.603 51.4963Z" fill="#3D3D4B"/>
<path fill-rule="evenodd" clip-rule="evenodd" d="M147.548 49.8775C146.756 50.0213 146.236 50.7736 146.375 51.5591C146.519 52.3464 147.274 52.8646 148.066 52.7263C148.854 52.5825 149.378 51.8301 149.233 51.041C149.091 50.2573 148.334 49.7337 147.548 49.8775Z" fill="#3D3D4B"/>
<path fill-rule="evenodd" clip-rule="evenodd" d="M146.585 50.2054C146.369 50.2404 146.224 50.4506 146.267 50.6663C146.302 50.8876 146.513 51.0296 146.729 50.989C146.95 50.9485 147.088 50.7438 147.053 50.5225C147.013 50.3086 146.805 50.1648 146.585 50.2054Z" fill="white"/>
<path fill-rule="evenodd" clip-rule="evenodd" d="M137.594 51.8357C137.378 51.8707 137.234 52.0809 137.276 52.2966C137.311 52.5161 137.522 52.6599 137.739 52.6193C137.959 52.5769 138.103 52.3722 138.062 52.1528C138.022 51.9371 137.815 51.7933 137.594 51.8357Z" fill="white"/>
<mask id="mask13_234_4703" style="mask-type:luminance" maskUnits="userSpaceOnUse" x="38" y="83" width="7" height="16">
<path d="M38.1045 83.0025H44.2625V99H38.1045V83.0025Z" fill="white"/>
</mask>
<g mask="url(#mask13_234_4703)">
<path fill-rule="evenodd" clip-rule="evenodd" d="M38.5197 83.4702H44.1726L43.2733 95.6343L43.525 98.6767H38.5864L38.5197 83.4702Z" fill="#F6B99C"/>
</g>
<path fill-rule="evenodd" clip-rule="evenodd" d="M29.7981 79.7835L35.3732 82.5494C35.3732 82.5494 31.6503 87.7952 31.2321 88.2211C30.3699 89.108 25.6829 91.8942 25.6829 91.8942L23.5328 94.0773L20.3076 90.3582L27.7775 83.8659L29.7981 79.7835Z" fill="#F6B99C"/>
<path fill-rule="evenodd" clip-rule="evenodd" d="M38.5209 83.4713H44.1738L44.0091 87.4062L43.7315 89.5027C42.0403 90.1314 40.3158 90.3822 38.5524 90.1941L38.4081 87.6938L38.5209 83.4713Z" fill="#F38B81"/>
<path fill-rule="evenodd" clip-rule="evenodd" d="M31.8097 80.3616L35.5067 84.6192L32.411 87.0678C31.954 87.5233 31.5876 87.9842 31.027 88.4249C29.4431 87.5638 27.7407 86.2326 26.7231 84.7833L28.5327 83.0353L31.8097 80.3616Z" fill="#F38B81"/>
<mask id="mask14_234_4703" style="mask-type:luminance" maskUnits="userSpaceOnUse" x="38" y="95" width="10" height="4">
<path d="M38.1045 95.2751H47.5783V98.9997H38.1045V95.2751Z" fill="white"/>
</mask>
<g mask="url(#mask14_234_4703)">
<path fill-rule="evenodd" clip-rule="evenodd" d="M38.5122 96.161C38.5122 96.161 40.6882 96.657 41.3765 96.6422C41.8595 96.6312 42.5959 95.1929 43.3767 95.3257C44.4314 95.5045 45.6823 96.3288 46.7573 96.8727C47.2088 97.0977 47.4309 97.6213 47.2662 98.1026C47.2717 98.1026 47.2717 98.1026 47.2717 98.1026C47.0904 98.641 46.5871 98.9987 46.0209 98.9987C43.8153 98.9987 38.5214 98.9987 38.5214 98.9987C38.4807 98.0712 38.4455 97.1382 38.5122 96.161Z" fill="#293455"/>
</g>
<path fill-rule="evenodd" clip-rule="evenodd" d="M22.1652 88.65C22.1652 88.65 23.2088 90.6174 23.6714 91.13C23.9952 91.4841 25.5699 91.095 25.9806 91.7699C26.5376 92.6826 26.7263 94.1632 27.015 95.3322C27.1445 95.819 26.8873 96.3261 26.4192 96.5197C25.8937 96.7354 25.2923 96.5916 24.9167 96.1657C23.4771 94.5006 20.0151 90.516 20.0151 90.516C20.6886 89.8743 21.3788 89.2456 22.1652 88.65Z" fill="#293455"/>
<path fill-rule="evenodd" clip-rule="evenodd" d="M44.237 95.4402C44.237 95.4402 44.1389 95.5582 43.9946 95.7113C43.9169 95.7979 43.8299 95.8901 43.7429 95.9786C43.4802 96.2386 43.1971 96.4746 43.1971 96.4746C43.1249 96.541 43.012 96.541 42.9454 96.4746C42.8733 96.4027 42.8733 96.2902 42.9454 96.2239C42.9454 96.2239 43.1823 95.9417 43.4395 95.6818C43.5264 95.5877 43.6245 95.5011 43.7059 95.4291C43.8613 95.2872 43.9798 95.1839 43.9798 95.1839C44.0519 95.112 44.1648 95.112 44.237 95.1839C44.3073 95.2558 44.3073 95.3683 44.237 95.4402Z" fill="#616E97"/>
<path fill-rule="evenodd" clip-rule="evenodd" d="M26.4857 92.1351C26.4857 92.1351 26.3303 92.1092 26.1194 92.089C26.0065 92.0724 25.8844 92.0576 25.7548 92.0484C25.3848 92.0263 25.0203 92.0318 25.0203 92.0318C24.9222 92.0263 24.8352 92.0982 24.8297 92.1959C24.8186 92.2936 24.8963 92.3803 24.9944 92.3858C24.9944 92.3858 25.3533 92.4411 25.7234 92.4725C25.8474 92.4836 25.9769 92.4872 26.0898 92.4872C26.3007 92.4983 26.4598 92.4928 26.4598 92.4928C26.5579 92.5038 26.6449 92.4264 26.6504 92.3287C26.6597 92.2273 26.5838 92.1406 26.4857 92.1351Z" fill="#616E97"/>
<path fill-rule="evenodd" clip-rule="evenodd" d="M45.0171 95.8287C45.0171 95.8287 44.9134 95.9467 44.771 96.0998C44.6988 96.1828 44.61 96.2805 44.5175 96.3671C44.2566 96.6234 43.9735 96.8595 43.9735 96.8595C43.9068 96.9295 43.794 96.9295 43.7255 96.8595C43.6533 96.7912 43.6533 96.6788 43.7255 96.6124C43.7255 96.6124 43.9624 96.3303 44.2196 96.0703C44.3065 95.9781 44.4009 95.8896 44.4823 95.814C44.6414 95.6757 44.7599 95.5724 44.7599 95.5724C44.832 95.5005 44.9449 95.5005 45.0171 95.5724C45.0892 95.6443 45.0892 95.7568 45.0171 95.8287Z" fill="#616E97"/>
<path fill-rule="evenodd" clip-rule="evenodd" d="M26.7028 92.9741C26.7028 92.9741 26.5474 92.9538 26.3364 92.928C26.2236 92.9133 26.0959 92.8985 25.9719 92.893C25.6018 92.8672 25.2355 92.8727 25.2355 92.8727C25.1337 92.8672 25.0504 92.9391 25.0467 93.0368C25.0356 93.1345 25.1134 93.2212 25.2096 93.2267C25.2096 93.2267 25.5704 93.2876 25.9405 93.3134C26.07 93.3226 26.1921 93.3281 26.3068 93.3337C26.5178 93.3392 26.6714 93.3392 26.6714 93.3392C26.7731 93.3429 26.8619 93.2673 26.8675 93.1696C26.8767 93.0718 26.799 92.9852 26.7028 92.9741Z" fill="#616E97"/>
<path fill-rule="evenodd" clip-rule="evenodd" d="M37.0695 36.4959C24.5926 36.4701 23.3843 44.81 22.844 50.6809C22.2426 57.2248 22.7515 60.0773 22.7515 60.0773C32.4307 62.065 41.4789 62.2716 51.4819 60.129C51.4819 60.129 51.8687 55.9544 51.4357 50.8192C50.8917 44.3804 49.317 36.5162 37.0695 36.4959Z" fill="#533134"/>
<path fill-rule="evenodd" clip-rule="evenodd" d="M34.8842 60.3085H39.3639V64.5771H34.8842V60.3085Z" fill="#F6B99C"/>
<path fill-rule="evenodd" clip-rule="evenodd" d="M34.8842 60.3085H39.3639V61.9736C37.8984 62.6558 36.4071 62.7627 34.8842 61.9736V60.3085Z" fill="#F38B81"/>
<path fill-rule="evenodd" clip-rule="evenodd" d="M20.8276 55.9693C20.5648 55.7277 20.4464 54.0111 19.4084 53.115C19.0476 52.8089 18.7607 52.8753 18.7496 53.1979C18.7404 53.5612 19.3159 55.0271 18.9513 55.0473C18.6627 55.0566 17.0936 53.2182 16.5329 53.0135C16.0444 52.8384 15.8705 53.2237 15.9575 53.4487C16.1629 53.9761 17.9521 55.7591 17.9521 55.7591C17.9521 55.7591 15.7151 54.2065 15.1655 54.0221C14.6141 53.8378 14.3218 54.4223 14.5938 54.673C14.0386 54.5145 13.7926 54.9699 14.2089 55.4309C14.5938 55.8623 16.631 57.1014 16.631 57.1014C16.631 57.1014 14.8417 56.7382 14.4198 57.0295C14.0535 57.2803 14.4661 57.6288 14.851 57.7579C15.5559 57.9883 16.1629 57.8648 16.7846 58.2133C17.7153 58.7314 18.1168 58.5563 18.5091 58.8476C19.5934 59.6478 28.5639 66.201 28.5639 66.201L29.1967 60.6822C29.1967 60.6822 21.527 56.6091 20.8276 55.9693Z" fill="#F6B99C"/>
<path fill-rule="evenodd" clip-rule="evenodd" d="M18.9666 56.6263C18.8371 56.5691 18.6983 56.5488 18.5595 56.5544C18.4263 56.5544 18.2875 56.5839 18.158 56.641C17.9175 56.7424 17.6954 56.9268 17.5622 57.1997C17.5474 57.2403 17.5011 57.255 17.4586 57.2403C17.4234 57.22 17.4031 57.1739 17.4234 57.1333C17.5622 56.8199 17.8046 56.5894 18.0877 56.4658C18.1747 56.4308 18.2727 56.405 18.3652 56.3902C18.591 56.3534 18.8223 56.3792 19.0277 56.4769C19.0684 56.4972 19.0906 56.5433 19.0684 56.5839C19.0536 56.6263 19.0073 56.641 18.9666 56.6263Z" fill="#F38B81"/>
<path fill-rule="evenodd" clip-rule="evenodd" d="M14.6401 54.6068C14.9547 54.7912 15.247 54.9608 15.5246 55.1341C15.7207 55.2577 15.9113 55.3794 16.1019 55.514C16.3998 55.7242 16.6977 55.9547 17.0067 56.2257C17.0419 56.2515 17.0419 56.3032 17.016 56.3327C16.9864 56.364 16.9401 56.3695 16.9031 56.3437C16.5904 56.0819 16.2906 55.8662 15.9927 55.6615C15.8077 55.5343 15.6171 55.4163 15.4228 55.2872C15.149 55.1139 14.8658 54.9387 14.5531 54.7451C14.5161 54.7193 14.5069 54.6732 14.5272 54.6326C14.5531 54.5957 14.5994 54.5865 14.6401 54.6068Z" fill="#F38B81"/>
<path fill-rule="evenodd" clip-rule="evenodd" d="M49.5843 75.3503C49.6417 75.413 50.3615 76.3755 50.4392 76.5193C50.7223 77.0467 50.541 78.614 50.5983 78.9016C50.6705 79.2243 51.035 79.2999 51.1738 79.0491C51.3958 78.6453 51.3903 78.0203 51.6419 78.1014C52.0083 78.2139 52.445 78.5624 53.2425 79.2796C53.694 79.6908 54.188 79.3368 54.0862 78.9533C54.5026 79.0602 54.9337 78.6748 54.7228 78.2563C55.3038 78.1585 55.1909 77.4357 54.8578 77.2975C54.8578 77.2975 55.3722 77.2975 55.2335 76.7388C55.0114 75.8887 53.0871 74.7879 53.0871 74.7879C51.864 73.2612 46.4942 66.3079 46.4942 66.3079L43.6077 69.0184C43.6077 69.0184 48.2169 73.7461 49.5843 75.3503Z" fill="#F6B99C"/>
<path fill-rule="evenodd" clip-rule="evenodd" d="M54.0342 78.994C53.9269 78.876 53.8177 78.7635 53.7104 78.6547C53.6327 78.5828 53.555 78.5127 53.4791 78.4445C53.4217 78.3947 53.3607 78.3431 53.3033 78.2914C53.159 78.1734 53.0165 78.061 52.8666 77.9577C52.8407 77.943 52.8296 77.9116 52.8463 77.8876C52.8611 77.8618 52.8981 77.8508 52.9221 77.8655C53.0868 77.954 53.2478 78.0499 53.4014 78.1642C53.468 78.214 53.5309 78.2601 53.592 78.3173C53.6734 78.3836 53.7511 78.4611 53.8288 78.5367C53.9361 78.651 54.0397 78.7782 54.1378 78.911C54.1619 78.9368 54.1582 78.9829 54.1267 79.0032C54.1008 79.029 54.0545 79.0235 54.0342 78.994Z" fill="#F38B81"/>
<path fill-rule="evenodd" clip-rule="evenodd" d="M54.6412 78.2912C54.5376 78.1677 54.4303 78.0608 54.3174 77.9538C54.2452 77.8819 54.1675 77.8155 54.0898 77.7436C54.0288 77.692 53.9732 77.6403 53.9159 77.5887C53.7716 77.4726 53.6272 77.3582 53.4792 77.2568C53.4533 77.2402 53.4422 77.2107 53.4588 77.1849C53.4736 77.1591 53.5088 77.148 53.5347 77.1646C53.6994 77.2513 53.8585 77.349 54.014 77.4615C54.0806 77.5131 54.1416 77.5592 54.2045 77.6145C54.286 77.6809 54.3637 77.7584 54.4414 77.8358C54.5487 77.9483 54.6505 78.0755 54.7485 78.2101C54.7744 78.2359 54.7689 78.282 54.7393 78.3023C54.7078 78.3281 54.6671 78.3226 54.6412 78.2912Z" fill="#F38B81"/>
<path fill-rule="evenodd" clip-rule="evenodd" d="M54.8001 77.3184C54.6964 77.1948 54.5891 77.0824 54.4763 76.9809C54.4041 76.9035 54.3264 76.8371 54.2505 76.7652C54.1876 76.7191 54.1321 76.662 54.0747 76.6159C53.9304 76.4942 53.7861 76.3817 53.638 76.284C53.6121 76.2692 53.601 76.2323 53.6177 76.2065C53.6325 76.1807 53.6695 76.177 53.6936 76.1918C53.8582 76.2784 54.0192 76.3762 54.1728 76.4886C54.2394 76.5347 54.3005 76.5864 54.3634 76.638C54.4448 76.7099 54.5225 76.78 54.6002 76.8629C54.7075 76.9754 54.8112 77.099 54.9074 77.2317C54.9333 77.2631 54.9296 77.3036 54.8981 77.3294C54.8667 77.3497 54.826 77.3442 54.8001 77.3184Z" fill="#F38B81"/>
<path fill-rule="evenodd" clip-rule="evenodd" d="M28.3475 81.9151C28.7639 81.2384 29.1136 78.8856 29.0581 78.8764L29.4947 69.5463L25.0095 66.5242L28.4049 59.7609L34.9311 62.2151C34.9311 62.2151 35.0143 63.9612 36.9424 63.9612C39.2628 63.9612 39.3701 62.2151 39.3701 62.2151C39.3701 62.2151 43.1874 62.3884 44.7509 63.0301C46.4366 63.7271 49.2454 68.0307 49.2454 68.0307L44.6473 70.9919C44.6473 70.9919 44.503 76.2064 44.5289 78.8137C44.5492 81.8837 44.7972 89.4252 44.7972 89.4252C37.5549 89.9212 31.2174 88.7227 26.7581 83.9895C26.7581 83.9895 27.9923 82.4922 28.3475 81.9151Z" fill="#AA6CB1"/>
<path fill-rule="evenodd" clip-rule="evenodd" d="M29.8033 68.148C29.8033 68.148 29.8033 68.2862 29.7978 68.4706C29.7978 68.5665 29.7922 68.6808 29.7867 68.7933C29.7663 69.116 29.7256 69.4387 29.7256 69.4387C29.7201 69.5143 29.6534 69.5714 29.5757 69.5714C29.4999 69.5659 29.437 69.4995 29.4425 69.4221C29.4425 69.4221 29.437 69.0957 29.4536 68.773C29.4573 68.6587 29.4684 68.5518 29.4795 68.4485C29.4999 68.2641 29.5147 68.1314 29.5147 68.1314C29.5202 68.0502 29.5868 67.9931 29.6646 67.9931C29.746 67.9986 29.8033 68.065 29.8033 68.148Z" fill="#864B8C"/>
<path fill-rule="evenodd" clip-rule="evenodd" d="M44.39 68.3416C44.39 68.3416 44.3955 68.6034 44.4048 68.9611C44.4103 69.151 44.4214 69.3668 44.4307 69.5825C44.4677 70.202 44.5287 70.8161 44.5287 70.8161C44.5343 70.9654 44.6064 71.0779 44.6823 71.0724C44.76 71.0668 44.8174 70.9451 44.8063 70.7958C44.8063 70.7958 44.8007 70.1818 44.7656 69.5604C44.7545 69.3465 44.7397 69.1308 44.7249 68.9408C44.699 68.5868 44.6731 68.3268 44.6731 68.3268C44.6675 68.1719 44.5953 68.0558 44.5176 68.0595C44.4362 68.065 44.3789 68.1941 44.39 68.3416Z" fill="#864B8C"/>
<path fill-rule="evenodd" clip-rule="evenodd" d="M47.373 43.8316C45.0897 39.1445 40.6359 37.0038 37.0407 37.0038C33.4454 37.0038 28.0702 38.914 26.2494 43.9349C24.5008 48.7603 26.2642 50.7702 26.3012 52.8648C26.3734 58.0443 30.0648 61.9127 37.333 61.8814C44.0257 61.8556 47.5784 57.9115 47.7228 52.9681C47.7857 50.6872 49.3585 47.9158 47.373 43.8316Z" fill="#F6B99C"/>
<path fill-rule="evenodd" clip-rule="evenodd" d="M29.5467 53.6684C29.5467 53.6684 29.443 53.685 29.3043 53.7145C29.2524 53.7255 29.2025 53.7403 29.1507 53.7569C29.0989 53.7772 29.0471 53.803 29.0008 53.8269C28.8824 53.8988 28.7954 53.9652 28.7954 53.9652C28.7343 53.991 28.6973 54.063 28.7288 54.1256C28.7547 54.192 28.8269 54.2215 28.8879 54.1976C28.8879 54.1976 28.9952 54.181 29.1303 54.1515C29.1803 54.1349 29.2321 54.1201 29.2839 54.0998C29.3357 54.0795 29.3875 54.0482 29.4282 54.0224C29.5522 53.9505 29.6336 53.8896 29.6336 53.8896C29.6947 53.8638 29.7261 53.7974 29.7002 53.7347C29.6743 53.6739 29.6077 53.6425 29.5467 53.6684Z" fill="#F38B81"/>
<path fill-rule="evenodd" clip-rule="evenodd" d="M44.9862 53.6684C44.9862 53.6684 45.0954 53.685 45.2342 53.7145C45.2804 53.7255 45.3359 53.7403 45.3878 53.7569C45.4396 53.7772 45.4858 53.803 45.5321 53.8269C45.6561 53.8988 45.7375 53.9652 45.7375 53.9652C45.8041 53.991 45.8355 54.063 45.8096 54.1256C45.7837 54.192 45.7116 54.2215 45.645 54.1976C45.645 54.1976 45.5432 54.181 45.4044 54.1515C45.3581 54.1349 45.3008 54.1201 45.249 54.0998C45.1972 54.0795 45.1509 54.0482 45.1046 54.0224C44.9862 53.9505 44.8993 53.8896 44.8993 53.8896C44.8382 53.8638 44.8123 53.7974 44.8326 53.7347C44.8586 53.6739 44.9307 53.6425 44.9862 53.6684Z" fill="#F38B81"/>
<path fill-rule="evenodd" clip-rule="evenodd" d="M29.7667 54.1749C29.7667 54.1749 29.6742 54.2265 29.5613 54.3095C29.5151 54.3353 29.4744 54.3704 29.4336 54.4054C29.3911 54.4423 29.3504 54.4828 29.3189 54.5234C29.232 54.6322 29.1764 54.7244 29.1764 54.7244C29.1302 54.7705 29.1246 54.8516 29.1709 54.8977C29.2227 54.9493 29.2986 54.9549 29.3504 54.9032C29.3504 54.9032 29.4429 54.8571 29.5558 54.7742C29.5983 54.7447 29.6446 54.7078 29.6853 54.6728C29.7205 54.6322 29.7575 54.5898 29.7871 54.5492C29.8759 54.4367 29.9314 54.3501 29.9314 54.3501C29.9777 54.304 29.9832 54.2265 29.9369 54.1804C29.8907 54.1343 29.8185 54.1288 29.7667 54.1749Z" fill="#F38B81"/>
<path fill-rule="evenodd" clip-rule="evenodd" d="M44.7654 54.1749C44.7654 54.1749 44.8579 54.2265 44.9763 54.3095C45.017 54.3353 45.0633 54.3704 45.104 54.4054C45.1466 54.4423 45.1817 54.4828 45.2132 54.5234C45.3001 54.6322 45.3575 54.7244 45.3575 54.7244C45.4075 54.7705 45.4075 54.8516 45.3612 54.8977C45.3149 54.9493 45.2391 54.9549 45.1873 54.9032C45.1873 54.9032 45.0892 54.8571 44.9763 54.7742C44.9356 54.7447 44.8931 54.7078 44.8524 54.6728C44.8116 54.6322 44.7802 54.5898 44.745 54.5492C44.6581 54.4367 44.6063 54.3501 44.6063 54.3501C44.56 54.304 44.5544 54.2265 44.6007 54.1804C44.6414 54.1343 44.7191 54.1288 44.7654 54.1749Z" fill="#F38B81"/>
<path fill-rule="evenodd" clip-rule="evenodd" d="M47.2284 52.9364C47.2284 52.9364 50.3814 51.9425 51.1789 54.31C51.6267 55.6358 50.3518 58.2135 47.4653 58.2449C45.9646 58.2541 45.4188 56.9173 45.4188 56.9173L47.2284 52.9364Z" fill="#F6B99C"/>
<path fill-rule="evenodd" clip-rule="evenodd" d="M26.871 52.9364C26.871 52.9364 23.718 51.9425 22.9205 54.31C22.4745 55.6358 23.7494 58.2135 26.6341 58.2449C28.1366 58.2541 28.6825 56.9173 28.6825 56.9173L26.871 52.9364Z" fill="#F6B99C"/>
<path fill-rule="evenodd" clip-rule="evenodd" d="M48.7979 55.0773C48.6388 55.6784 48.4538 55.9845 48.2687 56.1228C48.1244 56.2261 47.9856 56.1892 47.8987 56.1228C47.8469 56.0878 47.8098 56.0509 47.8006 56.0214C47.7599 55.8518 47.7858 55.6729 47.8672 55.5088C47.9745 55.2728 48.1855 55.0626 48.463 54.9243C48.8497 54.7344 49.3641 54.6735 49.9341 54.8635C49.997 54.8837 50.0636 54.8524 50.0839 54.7915C50.1043 54.7288 50.0747 54.6625 50.0173 54.6422C49.2143 54.3306 48.4889 54.4744 48.0171 54.8118C47.8061 54.9612 47.647 55.1548 47.5489 55.3595C47.4361 55.601 47.4102 55.8573 47.4768 56.1081C47.4916 56.1634 47.5378 56.2464 47.6211 56.3238C47.8006 56.4824 48.13 56.6207 48.4538 56.3588C48.6592 56.1892 48.8757 55.8315 49.02 55.1234C49.0292 55.0681 48.9941 55.0073 48.9312 54.9907C48.8757 54.9815 48.8146 55.0165 48.7979 55.0773Z" fill="#F38B81"/>
<path fill-rule="evenodd" clip-rule="evenodd" d="M25.0818 55.1234C25.2262 55.8315 25.4427 56.1892 25.6481 56.3588C25.9774 56.6207 26.3012 56.4824 26.4807 56.3238C26.564 56.2464 26.6102 56.1634 26.625 56.1081C26.6917 55.8573 26.6657 55.601 26.5584 55.3595C26.4548 55.1548 26.2957 54.9612 26.0847 54.8118C25.611 54.4744 24.8857 54.3306 24.0882 54.6422C24.0271 54.6625 23.9957 54.7288 24.0179 54.7915C24.0382 54.8524 24.1104 54.8837 24.1659 54.8635C24.7377 54.6735 25.2521 54.7344 25.637 54.9243C25.9201 55.0626 26.1254 55.2728 26.2383 55.5088C26.316 55.6729 26.3419 55.8518 26.3012 56.0214C26.2901 56.0509 26.255 56.0878 26.2087 56.1228C26.1162 56.1892 25.9774 56.2261 25.8331 56.1228C25.6481 55.9845 25.463 55.6784 25.302 55.0773C25.2872 55.0165 25.2317 54.9815 25.1688 54.9907C25.1078 55.0073 25.0707 55.0681 25.0818 55.1234Z" fill="#F38B81"/>
<path fill-rule="evenodd" clip-rule="evenodd" d="M36.5984 54.9754C36.7058 54.9182 36.839 54.909 36.9685 54.9035C37.0037 54.9035 37.0462 54.909 37.0814 54.909C37.1165 54.909 37.1536 54.909 37.1887 54.909C37.3034 54.9182 37.4163 54.9293 37.5181 54.9809C37.5754 55.0215 37.6531 55.0104 37.6939 54.9495C37.7346 54.8924 37.7198 54.8168 37.6624 54.7744C37.5643 54.6785 37.4515 54.6121 37.3238 54.5697C37.235 54.5439 37.148 54.5291 37.061 54.5291C36.9741 54.5347 36.8853 54.5494 36.8038 54.5752C36.6706 54.6213 36.5559 54.6932 36.4634 54.7799C36.4079 54.8168 36.3968 54.8924 36.4338 54.9495C36.4745 55.0012 36.5466 55.0159 36.5984 54.9754Z" fill="#F38B81"/>
<path fill-rule="evenodd" clip-rule="evenodd" d="M34.8384 56.9943C35.1992 57.2912 35.6359 57.5106 36.1096 57.6434C36.4168 57.7264 36.7369 57.778 37.0607 57.778C37.3789 57.778 37.7028 57.7356 38.0118 57.6545C38.4744 57.5272 38.9129 57.3115 39.2885 56.998C39.344 56.9575 39.3551 56.88 39.3126 56.8247C39.2663 56.7731 39.1904 56.7639 39.1386 56.8044C38.7741 57.0607 38.3615 57.2285 37.9341 57.3207C37.6473 57.3834 37.353 57.4092 37.0607 57.4092C36.7665 57.4092 36.4741 57.3834 36.191 57.3207C35.7488 57.2248 35.3325 57.0552 34.9772 56.81C34.9254 56.7675 34.8532 56.7786 34.8125 56.8302C34.7718 56.88 34.7811 56.9575 34.8384 56.9943Z" fill="#D75E51"/>
<path fill-rule="evenodd" clip-rule="evenodd" d="M32.9971 46.1732C32.3125 45.7491 31.4947 45.62 30.7194 45.7897C29.9774 45.9538 29.289 46.4037 28.7746 47.1172C28.6303 47.3256 28.6877 47.6077 28.8931 47.746C29.104 47.8898 29.3871 47.8382 29.5259 47.628C29.8848 47.0804 30.3844 46.7263 30.9192 46.5622C31.515 46.3834 32.1534 46.4092 32.714 46.6802C32.8528 46.7577 33.0323 46.7061 33.11 46.5678C33.1877 46.4239 33.1359 46.2506 32.9971 46.1732Z" fill="#533134"/>
<path fill-rule="evenodd" clip-rule="evenodd" d="M41.505 46.6802C42.0657 46.4092 42.7022 46.3834 43.2943 46.5622C43.8346 46.7263 44.3324 47.0804 44.6876 47.628C44.832 47.8382 45.1151 47.8898 45.3205 47.746C45.5314 47.6077 45.5832 47.3256 45.4444 47.1172C44.9245 46.4037 44.2362 45.9538 43.4997 45.7897C42.7189 45.62 41.901 45.7491 41.2219 46.1732C41.0776 46.2506 41.0258 46.4239 41.1091 46.5678C41.1849 46.7061 41.3607 46.7577 41.505 46.6802Z" fill="#533134"/>
<path fill-rule="evenodd" clip-rule="evenodd" d="M34.0812 50.5848C33.2596 50.0353 32.2512 49.98 31.3871 50.2769C30.4156 50.6143 29.6329 51.398 29.4165 52.3973C29.3869 52.5559 29.4794 52.7108 29.6274 52.7458C29.7773 52.7827 29.9216 52.6795 29.9512 52.5209C30.0955 51.6856 30.7432 51.0402 31.5259 50.7231C32.2864 50.4096 33.1819 50.3949 33.948 50.8411C34.0146 50.8761 34.0923 50.8559 34.1275 50.7839C34.17 50.7176 34.1441 50.6254 34.0812 50.5848Z" fill="#6F3337"/>
<path fill-rule="evenodd" clip-rule="evenodd" d="M40.2694 50.8411C41.0317 50.3949 41.931 50.4096 42.6878 50.7231C43.4742 51.0402 44.1181 51.6856 44.2662 52.5209C44.2976 52.6795 44.4419 52.7827 44.59 52.7458C44.7343 52.7108 44.8324 52.5559 44.8009 52.3973C44.5807 51.398 43.798 50.6143 42.8321 50.2769C41.9625 49.98 40.9596 50.0353 40.1362 50.5848C40.0696 50.6254 40.0492 50.7176 40.0844 50.7839C40.1214 50.8559 40.2028 50.8761 40.2694 50.8411Z" fill="#6F3337"/>
<path fill-rule="evenodd" clip-rule="evenodd" d="M43.5413 51.1734C43.6764 51.2711 43.8041 51.3523 43.9373 51.415C44.0872 51.4869 44.2463 51.5367 44.4165 51.5422C44.509 51.5477 44.6108 51.5367 44.7144 51.5164C44.8995 51.4758 45.09 51.3892 45.3065 51.2509C45.3676 51.214 45.3935 51.1329 45.3583 51.072C45.3269 51.0093 45.2436 50.9835 45.1826 51.0204C44.8939 51.1384 44.6626 51.1587 44.4517 51.1273C44.3333 51.1126 44.2259 51.0757 44.1186 51.0259C44.0094 50.9743 43.9021 50.9116 43.7893 50.836C43.6967 50.7641 43.5617 50.7844 43.495 50.8821C43.4284 50.9743 43.4488 51.1015 43.5413 51.1734Z" fill="#6F3337"/>
<path fill-rule="evenodd" clip-rule="evenodd" d="M30.3704 50.836C30.2612 50.9116 30.1539 50.9743 30.041 51.0259C29.9319 51.0757 29.8245 51.1126 29.7061 51.1273C29.5007 51.1587 29.2694 51.1384 28.9752 51.0204C28.9142 50.9835 28.8364 51.0093 28.8013 51.072C28.7643 51.1329 28.7902 51.214 28.8513 51.2509C29.0677 51.3892 29.2639 51.4758 29.4489 51.5164C29.5525 51.5367 29.6488 51.5477 29.7468 51.5422C29.9115 51.5367 30.0706 51.4869 30.2261 51.415C30.3537 51.3523 30.487 51.2711 30.6165 51.1734C30.709 51.1015 30.7349 50.9743 30.6627 50.8821C30.5961 50.7844 30.4666 50.7641 30.3704 50.836Z" fill="#6F3337"/>
<path fill-rule="evenodd" clip-rule="evenodd" d="M42.8419 50.7239C42.9918 50.7903 43.1417 50.842 43.2804 50.8715C43.4488 50.9083 43.6135 50.9176 43.7782 50.888C43.8707 50.8715 43.9688 50.842 44.0613 50.7959C44.2315 50.7129 44.4018 50.5857 44.5757 50.4013C44.6331 50.3552 44.6368 50.2722 44.5905 50.2169C44.5442 50.1652 44.4628 50.1542 44.4055 50.2003C44.1483 50.3847 43.9281 50.4566 43.7171 50.4713C43.6043 50.4824 43.4858 50.4769 43.373 50.451C43.2545 50.4252 43.1306 50.3902 43.0066 50.3386C42.8993 50.2925 42.7753 50.3441 42.729 50.451C42.6883 50.5543 42.7401 50.6778 42.8419 50.7239Z" fill="#6F3337"/>
<path fill-rule="evenodd" clip-rule="evenodd" d="M31.1565 50.3386C31.027 50.3902 30.9085 50.4252 30.7901 50.451C30.6735 50.4769 30.5588 50.4824 30.4404 50.4713C30.2295 50.4566 30.0093 50.3847 29.7521 50.2003C29.7003 50.1542 29.6188 50.1652 29.5726 50.2169C29.5208 50.2722 29.5263 50.3552 29.5818 50.4013C29.7576 50.5857 29.926 50.7129 30.0962 50.7959C30.1888 50.842 30.2868 50.8715 30.3849 50.888C30.5496 50.9176 30.7143 50.9083 30.8789 50.8715C31.0233 50.842 31.1657 50.7903 31.3156 50.7239C31.4229 50.6778 31.4747 50.5543 31.4285 50.451C31.3822 50.3441 31.2583 50.2925 31.1565 50.3386Z" fill="#6F3337"/>
<path fill-rule="evenodd" clip-rule="evenodd" d="M32.5647 51.1846C33.3677 51.1846 34.0153 51.8355 34.0153 52.6339C34.0153 53.4286 33.3677 54.0795 32.5647 54.0795C31.7635 54.0795 31.1158 53.4286 31.1158 52.6339C31.1158 51.8355 31.7635 51.1846 32.5647 51.1846Z" fill="#6F3337"/>
<path fill-rule="evenodd" clip-rule="evenodd" d="M41.653 51.1846C40.8518 51.1846 40.1987 51.8355 40.1987 52.6339C40.1987 53.4286 40.8518 54.0795 41.653 54.0795C42.4505 54.0795 43.1037 53.4286 43.1037 52.6339C43.1037 51.8355 42.4505 51.1846 41.653 51.1846Z" fill="#6F3337"/>
<path fill-rule="evenodd" clip-rule="evenodd" d="M40.6505 51.3375C40.4303 51.3375 40.249 51.5127 40.249 51.7321C40.249 51.9534 40.4303 52.1322 40.6505 52.1322C40.8726 52.1322 41.052 51.9534 41.052 51.7321C41.052 51.5127 40.8726 51.3375 40.6505 51.3375Z" fill="white"/>
<path fill-rule="evenodd" clip-rule="evenodd" d="M31.5155 51.3375C31.2953 51.3375 31.1158 51.5127 31.1158 51.7321C31.1158 51.9534 31.2953 52.1322 31.5155 52.1322C31.7376 52.1322 31.9115 51.9534 31.9115 51.7321C31.9115 51.5127 31.7376 51.3375 31.5155 51.3375Z" fill="white"/>
<path fill-rule="evenodd" clip-rule="evenodd" d="M26.6804 53.3714C28.2143 51.1016 26.7266 48.0997 26.7266 48.0997L30.024 46.0751L30.4366 44.2313L30.7807 45.7488L34.2372 45.297L34.5407 42.5146L34.9311 45.2712L40.3471 45.3948L40.6561 44.093L40.9188 45.3837L43.2632 45.9479L43.8146 43.6634L44.2106 46.1471L47.3636 47.5668C47.3636 47.5668 46.2978 50.8656 47.5579 53.2276L49.3065 53.423L49.9338 48.7303L46.9158 42.0592C46.9158 42.0592 45.5688 39.0832 43.8183 38.2368C42.0235 37.372 39.7457 36.5921 36.1597 36.8539C31.2489 37.2171 29.9314 38.2792 27.8905 39.876C25.8736 41.4599 23.9085 46.455 23.9085 46.455L25.9513 53.6129L26.6804 53.3714Z" fill="#533134"/>
<path fill-rule="evenodd" clip-rule="evenodd" d="M37.154 55.9175C37.9571 55.9175 39.0562 55.0159 39.8592 56.3066C40.4661 57.2912 38.9377 58.7313 37.154 58.7313C35.1889 58.7313 33.8474 57.3521 34.4488 56.3066C35.1371 55.1136 36.2288 55.9175 37.154 55.9175Z" fill="white"/>
</svg>
