<svg width="180" height="145" viewBox="0 0 180 145" fill="none" xmlns="http://www.w3.org/2000/svg">
<mask id="mask0_234_4455" style="mask-type:luminance" maskUnits="userSpaceOnUse" x="42" y="26" width="106" height="101">
<path d="M42.875 26.2705H147.968V126.69H42.875V26.2705Z" fill="white"/>
</mask>
<g mask="url(#mask0_234_4455)">
<path d="M147.968 76.5887C147.968 60.1441 140.578 45.4315 128.946 35.5973C119.628 27.7216 93.4516 26.8183 93.4516 26.8183L74.4793 26.926C74.3412 26.9868 74.17 26.9454 74.0291 27.0061C55.4353 35.089 43.369 54.238 43.369 76.5003C43.369 106.111 65.4076 126.26 94.9709 126.26C103.86 126.26 111.708 128.033 119.087 124.193C136.247 115.263 147.968 97.2958 147.968 76.5887Z" fill="#94CCD4"/>
</g>
<path d="M128.946 35.5965C123.502 39.1628 117.659 42.6987 115.469 43.1793C109.458 44.9417 101.632 41.2097 100.024 50.0909C99.977 51.8063 99.8278 53.4334 99.5709 54.9555C99.2836 56.6516 98.6538 58.2483 97.7422 59.6654C96.8278 61.0825 94.3941 61.4969 92.9798 62.4693C89.082 65.1543 85.9163 65.3146 81.7201 63.124C81.6124 63.0687 81.5047 63.0107 81.3942 62.9527C74.4053 59.5218 70.2976 51.6295 77.5461 45.8616C82.3085 41.9252 81.5876 34.9749 78.2588 30.6352L76.2561 28.312C77.8113 27.6684 77.1787 25.7927 78.803 25.2954C83.7505 23.7844 88.9991 22.9695 94.4411 22.9695C107.587 22.9695 119.629 27.7181 128.946 35.5965Z" fill="#B7E546"/>
<path d="M135.954 63.3144C135.924 58.889 134.139 54.6542 130.993 51.5437C128.308 48.4664 127.38 46.6349 123.692 50.0299C120.195 54.389 123.642 59.7951 116.209 67.2259C114.894 68.5685 114.156 70.4055 114.231 72.2895C114.225 72.2895 114.228 71.958 114.225 71.9552C114.493 76.6209 117.673 80.3833 122.208 80.3833C128.032 80.3833 135.954 73.5325 135.954 63.3144Z" fill="#B7E546"/>
<path d="M119.195 66.8812C117.881 68.2238 117.14 70.0635 117.215 71.9447C117.212 71.9447 117.212 71.942 117.209 71.942C117.43 75.8038 120.773 79.0552 124.491 80.0607C123.712 80.2734 122.944 80.3839 122.209 80.3839C117.673 80.3839 112.85 76.6077 112.582 71.942C112.585 71.942 112.585 71.9447 112.588 71.9447C112.513 70.0635 113.253 68.2238 114.568 66.8812C122.002 59.4531 117.695 53.6493 121.193 49.2929C123.3 47.3509 125.325 47.3592 127.171 48.2985C126.723 48.5471 126.275 48.873 125.82 49.2929C122.32 53.6493 126.629 59.4531 119.195 66.8812Z" fill="#ABD641"/>
<mask id="mask1_234_4455" style="mask-type:luminance" maskUnits="userSpaceOnUse" x="98" y="15" width="44" height="44">
<path d="M98.741 15H141.172V58.0937H98.741V15Z" fill="white"/>
</mask>
<g mask="url(#mask1_234_4455)">
<path d="M140.981 19.1028V45.8651L139.279 47.4839C139.279 49.7242 136.738 50.0612 134.5 50.0612L122.279 49.9701C121.713 49.9701 121.158 50.1496 120.696 50.4839L110.614 57.4976C109.721 58.1441 108.473 57.5059 108.473 56.4037L109.417 53.0281C109.417 51.5364 108.21 50.3264 106.719 50.3264H103.481C101.243 50.3264 99.4313 48.5087 99.4313 46.2712L98.9451 21.1636C98.9451 18.926 99.8319 16.5614 102.069 16.5614L103.197 15.0476H136.934C139.169 15.0476 140.981 16.8625 140.981 19.1028Z" fill="#DC4955"/>
</g>
<mask id="mask2_234_4455" style="mask-type:luminance" maskUnits="userSpaceOnUse" x="97" y="15" width="45" height="46">
<path d="M97.3278 15H141.173V60.2152H97.3278V15Z" fill="white"/>
</mask>
<g mask="url(#mask2_234_4455)">
<path d="M140.981 45.8651V47.2159C140.981 49.4563 139.169 51.2712 136.934 51.2712H122.445C121.876 51.2712 121.324 51.4535 120.862 51.785L109.926 59.7214C109.034 60.3678 107.785 59.7297 107.785 58.6247V53.9756C107.785 52.4811 106.578 51.2712 105.086 51.2712H101.849C99.6112 51.2712 97.7991 49.4563 97.7991 47.2159V19.1028C97.7991 16.8625 99.6112 15.0476 101.849 15.0476H103.197V45.3237C103.197 45.622 103.44 45.8651 103.736 45.8651H105.086C108.194 45.8651 110.896 47.6248 112.252 50.2049C112.484 50.6441 113.045 50.7822 113.445 50.4894L117.694 47.4065C119.086 46.3983 120.73 45.8651 122.445 45.8651H140.981Z" fill="#D82F3C"/>
</g>
<path d="M107.162 125.518C76.8916 125.518 52.353 101.007 52.353 70.7755C52.353 52.7701 60.5933 36.9829 74.0297 27.005C54.5933 35.0409 40.9139 54.2148 40.9139 76.5876C40.9139 85.7036 43.1846 94.2892 47.1928 101.806C47.1928 101.806 59.911 111.897 66.3447 116.637C75.2175 123.179 92.4578 127.397 92.4578 127.397C92.4578 127.397 111.643 128.049 118.996 124.237C115.187 125.074 111.226 125.518 107.162 125.518Z" fill="#6FBBC6"/>
<path d="M119.085 124.187C114.781 118.187 106.872 111.571 107.212 103.604C107.328 100.886 106.969 98.1594 106.077 95.5932C106.063 95.5572 106.052 95.5213 106.041 95.4909C105.588 94.2175 104.911 93.0379 104.066 91.991C101.734 89.0904 96.759 81.5214 94.3281 80.4606C89.6845 77.5822 83.3945 79.7258 80.911 84.4496C78.7536 89.9164 78.1597 97.4025 72.5244 100.35C69.157 102.179 64.3034 101.77 61.7399 98.7395C57.2952 92.9578 51.0714 98.5489 47.1985 101.803C48.7372 104.684 55.0162 106.795 57.0465 109.35C65.4747 119.952 72.9746 124.041 85.3226 126.259C96.8087 128.347 108.593 129.645 118.958 124.25C118.999 124.228 119.043 124.209 119.085 124.187Z" fill="#B7E546"/>
<path d="M118.977 124.24C109.776 129.036 99.1485 130.991 88.8392 129.909V129.906C71.4166 128.199 55.3394 117.312 47.1985 101.804C50.2593 99.2291 54.7952 95.1905 58.7592 96.4805C67.9774 113.759 86.1955 125.519 107.162 125.519C111.22 125.519 115.171 125.077 118.977 124.24Z" fill="#ABD641"/>
<path d="M130.914 77.8199V104.585L129.212 106.204C129.212 108.441 126.668 108.781 124.433 108.781L112.212 108.687C111.646 108.687 111.09 108.867 110.632 109.201L100.546 116.215C99.6541 116.864 98.4054 116.223 98.4054 115.121L99.3502 111.748C99.3502 110.253 98.143 109.044 96.6541 109.044H93.4138C91.179 109.044 89.3668 107.229 89.3668 104.988L88.8779 79.8835C88.8779 77.6431 89.7646 75.2813 91.9994 75.2813L93.1292 73.7647H126.867C129.101 73.7647 130.914 75.5824 130.914 77.8199Z" fill="#FFBF54"/>
<path d="M130.913 104.585V105.936C130.913 108.176 129.101 109.991 126.866 109.991H112.377C111.808 109.991 111.255 110.171 110.797 110.505L99.8576 118.438C98.9653 119.088 97.7167 118.45 97.7167 117.342V112.693C97.7167 111.201 96.5068 109.991 95.0178 109.991H91.7775C89.5427 109.991 87.7306 108.176 87.7306 105.936V77.8199C87.7306 75.5824 89.5427 73.7647 91.7775 73.7647H93.1284V104.044C93.1284 104.342 93.3714 104.585 93.6698 104.585H95.0178C98.1256 104.585 100.827 106.345 102.184 108.922C102.416 109.361 102.976 109.499 103.377 109.209L107.626 106.124C109.018 105.115 110.661 104.585 112.377 104.585H130.913Z" fill="#FFA442"/>
<path d="M129.879 28.3121C130.838 28.3121 131.614 27.5358 131.614 26.5745C131.614 25.616 130.838 24.837 129.879 24.837H120.899V21.8812C120.899 20.9226 120.123 20.1436 119.164 20.1436C118.205 20.1436 117.429 20.9226 117.429 21.8812V24.837H108.449C107.49 24.837 106.714 25.616 106.714 26.5745C106.714 27.5358 107.49 28.3121 108.449 28.3121H112.045C112.88 32.011 114.526 35.4115 116.822 38.3037C115.065 39.9833 113.009 41.3755 110.719 42.3976L108.33 43.4639C107.454 43.8562 107.059 44.881 107.451 45.7595C107.739 46.4059 108.371 46.7899 109.037 46.7899C109.272 46.7899 109.512 46.7402 109.741 46.6407L112.131 45.5717C114.769 44.3949 117.136 42.7982 119.164 40.87C121.192 42.7982 123.559 44.3949 126.194 45.5717L128.587 46.6407C128.816 46.7402 129.056 46.7899 129.291 46.7899C129.957 46.7899 130.589 46.4059 130.877 45.7595C131.266 44.881 130.874 43.8562 129.998 43.4639L127.609 42.3976C125.316 41.3755 123.263 39.9833 121.507 38.3037C123.802 35.4115 125.449 32.011 126.283 28.3121H129.879ZM119.164 35.6546C117.537 33.4806 116.324 30.9944 115.617 28.3121H122.711C122.001 30.9944 120.788 33.4806 119.164 35.6546Z" fill="#FAF8F8"/>
<path d="M122.612 81.1984H114.54C113.582 81.1984 112.805 81.9747 112.805 82.936C112.805 83.8946 113.582 84.6736 114.54 84.6736H116.841V90.1183H109.941C110.344 89.2951 110.571 88.3724 110.571 87.3945C110.571 83.9774 107.794 81.1984 104.383 81.1984H99.3717C98.4159 81.1984 97.6369 81.9747 97.6369 82.936C97.6369 83.8946 98.4159 84.6736 99.3717 84.6736H104.383C105.88 84.6736 107.101 85.8945 107.101 87.3945C107.101 88.8973 105.88 90.1183 104.383 90.1183H98.8165C97.8579 90.1183 97.0817 90.8945 97.0817 91.8558C97.0817 92.8144 97.8579 93.5934 98.8165 93.5934H104.383C105.88 93.5934 107.101 94.8144 107.101 96.3171C107.101 97.842 105.908 99.0381 104.383 99.0381C101.985 99.0381 99.264 98.7674 97.2585 96.7591C96.5817 96.0823 95.485 96.0823 94.8054 96.7591C94.1286 97.4387 94.1286 98.5381 94.8054 99.2177C97.7225 102.14 101.457 102.513 104.383 102.513C107.794 102.513 110.571 99.7342 110.571 96.3171C110.571 95.3392 110.344 94.4166 109.941 93.5934H116.841V100.776C116.841 101.737 117.617 102.513 118.576 102.513C119.535 102.513 120.311 101.737 120.311 100.776V84.6736H122.612C123.57 84.6736 124.347 83.8946 124.347 82.936C124.347 81.9747 123.57 81.1984 122.612 81.1984Z" fill="#FAF8F8"/>
<path d="M79.3033 48.8559L79.2342 48.9111C78.342 49.6238 75.2425 52.4664 73.0464 54.9028C72.1624 51.5603 72.9304 48.0106 76.3585 45.2841C81.1209 41.3449 79.3641 33.6709 76.0353 29.3284L74.0298 27.0052C75.5851 26.3616 77.1762 25.7897 78.8033 25.2953C80.2425 27.4831 81.5215 29.3284 81.5215 29.3284C84.9718 35.762 85.1237 44.0438 79.3033 48.8559Z" fill="#ABD641"/>
<path d="M97.9353 59.3504C97.8746 59.4581 97.8083 59.5604 97.742 59.6653C96.8276 61.0824 95.6342 62.32 94.2171 63.2924C90.3194 65.9774 85.2669 66.2785 81.0708 64.088C80.9631 64.0327 80.8553 63.9747 80.7448 63.9167C74.1675 60.6874 69.6675 52.1433 75.1979 46.3422C73.4382 51.6681 77.5957 57.8145 83.1923 60.4416C83.3028 60.4996 83.4161 60.5576 83.5293 60.6128C87.9161 62.8034 93.1978 62.5023 97.2696 59.8173C97.4989 59.6708 97.7199 59.5134 97.9353 59.3504Z" fill="#ABD641"/>
<path d="M71.6615 125.113C71.7139 125.137 71.7692 125.162 71.8217 125.187C71.7664 125.162 71.7139 125.137 71.6615 125.113Z" fill="#94CCD4"/>
<path d="M118.996 124.237C118.04 124.732 117.074 125.199 116.085 125.632C117.057 125.201 118.016 124.74 118.958 124.251C118.963 124.248 118.969 124.243 118.977 124.24C118.982 124.237 118.991 124.237 118.996 124.237Z" fill="#94CCD4"/>
<path d="M34.8637 46.7901L35.2034 70.1077C35.2034 72.3922 37.0598 74.243 39.3526 74.243L52.3774 74.6684C52.9602 74.6684 53.5293 74.8535 53.9989 75.1933L62.8884 82.7209C63.8027 83.3811 65.0817 82.7292 65.0817 81.6049L65.6452 77.964C65.6452 76.4419 66.8828 75.2071 68.4104 75.2071L72.7087 75.1933C74.9988 75.1933 77.2584 74.6491 77.2584 72.3646V43.699C77.2584 41.4145 75.3993 39.5637 73.1065 39.5637H37.1509C34.8581 39.5637 34.8637 44.5056 34.8637 46.7901Z" fill="#FAF8F8"/>
<path d="M57.1506 47.2761C57.1451 47.2622 57.1395 47.2484 57.1368 47.2346C56.7942 46.4031 55.9931 45.8645 55.0954 45.8617H55.0926C54.1948 45.8617 53.3937 46.4004 53.0512 47.2319C53.0456 47.2484 53.0401 47.265 53.0318 47.2788L45.2888 67.8395C44.949 68.7373 45.402 69.74 46.2971 70.0798C47.1949 70.4168 48.1948 69.9638 48.5346 69.0687L50.0401 65.0715H60.2058L61.7252 69.0715C61.9903 69.7649 62.6478 70.1931 63.3467 70.1931C63.5539 70.1931 63.7611 70.1544 63.9655 70.0798C64.8605 69.7373 65.308 68.7317 64.9682 67.8339L57.1506 47.2761ZM51.3468 61.5964L55.0981 51.6434L58.8826 61.5964H51.3468Z" fill="#AAD8DE"/>
<mask id="mask3_234_4455" style="mask-type:luminance" maskUnits="userSpaceOnUse" x="33" y="39" width="45" height="47">
<path d="M33 39.0001H77.5246V85.6739H33V39.0001Z" fill="white"/>
</mask>
<g mask="url(#mask3_234_4455)">
<path d="M77.2567 71.866V72.366C77.2567 74.6477 75.3976 76.5013 73.1048 76.5013H69.7871C68.2595 76.5013 67.0219 77.7361 67.0219 79.2582V84.0012C67.0219 85.1228 65.7402 85.7747 64.8258 85.1145L53.6187 77.0234C53.1463 76.6836 52.5772 76.5013 51.9944 76.5013H37.1491C34.8563 76.5013 33 74.6477 33 72.366V43.7004C33 41.4159 34.8563 39.565 37.1491 39.565H37.627V70.7085C37.627 71.3466 38.1436 71.866 38.7817 71.866H51.9944C53.5496 71.866 55.0662 72.3577 56.3231 73.2665L61.4916 76.9985C61.9888 77.3549 62.6766 77.1366 62.9004 76.5704C63.9777 73.819 66.6573 71.866 69.7871 71.866H77.2567Z" fill="#F0E9E6"/>
</g>
</svg>
