<svg width="180" height="145" viewBox="0 0 180 145" fill="none" xmlns="http://www.w3.org/2000/svg">
<path fill-rule="evenodd" clip-rule="evenodd" d="M147.687 108.112C146.462 104.615 142.63 102.769 139.136 103.998L96.6009 118.948C93.1067 120.176 91.2644 124.014 92.4896 127.511C93.7177 131.012 98.2221 133.109 101.044 131.629L143.579 116.679C143.579 116.679 148.915 111.612 147.687 108.112Z" fill="#FCA002"/>
<mask id="mask0_234_4494" style="mask-type:luminance" maskUnits="userSpaceOnUse" x="37" y="93" width="118" height="40">
<path d="M37.6019 93.3395H154.046V132.641H37.6019V93.3395Z" fill="white"/>
</mask>
<g mask="url(#mask0_234_4494)">
<path fill-rule="evenodd" clip-rule="evenodd" d="M97.0683 93.9018L154.047 112.957L97.8021 132.012L40.0929 112.957C40.0929 112.957 35.4565 105.072 39.924 100.227C40.1973 99.9322 40.9465 99.3826 40.9465 99.3826L97.0683 93.9018Z" fill="#FCA002"/>
</g>
<mask id="mask1_234_4494" style="mask-type:luminance" maskUnits="userSpaceOnUse" x="37" y="100" width="71" height="33">
<path d="M37.9708 100.416H107.56V132.02H37.9708V100.416Z" fill="white"/>
</mask>
<g mask="url(#mask1_234_4494)">
<mask id="mask2_234_4494" style="mask-type:luminance" maskUnits="userSpaceOnUse" x="37" y="93" width="118" height="40">
<path fill-rule="evenodd" clip-rule="evenodd" d="M97.0676 93.9025L154.046 112.958L97.8014 132.013L40.0922 112.958C40.0922 112.958 35.4558 105.073 39.9233 100.228C40.1966 99.9329 40.9458 99.3833 40.9458 99.3833L97.0676 93.9025Z" fill="white"/>
</mask>
<g mask="url(#mask2_234_4494)">
<path fill-rule="evenodd" clip-rule="evenodd" d="M106.816 130.462C107.992 126.943 106.097 123.132 102.585 121.953L39.9351 100.93C36.4225 99.7508 32.6182 101.648 31.4422 105.167C30.2631 108.683 32.1607 112.493 35.6702 113.672L98.3229 134.696C101.835 135.875 105.64 133.977 106.816 130.462Z" fill="#FCA002"/>
</g>
</g>
<path fill-rule="evenodd" clip-rule="evenodd" d="M147.678 107.302C146.49 103.789 146.272 100.225 146.272 100.225L98.2104 116.648C94.7039 117.84 92.8217 121.659 94.01 125.172C95.1982 128.685 99.0117 130.567 102.518 129.379L150.58 112.955C150.58 112.955 148.867 110.815 147.678 107.302Z" fill="white"/>
<mask id="mask3_234_4494" style="mask-type:luminance" maskUnits="userSpaceOnUse" x="93" y="99" width="55" height="32">
<path d="M93.4108 99.6289H147.647V130.284H93.4108V99.6289Z" fill="white"/>
</mask>
<g mask="url(#mask3_234_4494)">
<mask id="mask4_234_4494" style="mask-type:luminance" maskUnits="userSpaceOnUse" x="91" y="100" width="60" height="32">
<path d="M91.7948 118.698L146.295 100.192L150.646 113.051L96.1456 131.554L91.7948 118.698Z" fill="white"/>
</mask>
<g mask="url(#mask4_234_4494)">
<mask id="mask5_234_4494" style="mask-type:luminance" maskUnits="userSpaceOnUse" x="93" y="100" width="58" height="30">
<path fill-rule="evenodd" clip-rule="evenodd" d="M147.675 107.3C146.487 103.787 146.269 100.222 146.269 100.222L98.2071 116.646C94.7006 117.838 92.8184 121.657 94.0067 125.17C95.1949 128.682 99.0084 130.565 102.515 129.376L150.577 112.952C150.577 112.952 148.863 110.812 147.675 107.3Z" fill="white"/>
</mask>
<g mask="url(#mask5_234_4494)">
<path fill-rule="evenodd" clip-rule="evenodd" d="M144.689 96.6236C143.501 93.111 143.286 89.5462 143.286 89.5462L95.2211 105.97C91.7147 107.158 89.8325 110.978 91.0207 114.491C92.209 118.003 90.901 134.369 99.9159 129.812C99.9159 129.812 97.349 128.59 96.0102 126.349C94.6684 124.098 94.5579 120.825 97.2875 119.818C105.894 116.64 147.594 102.273 147.594 102.273C147.594 102.273 145.878 100.136 144.689 96.6236Z" fill="#DCDCDC"/>
</g>
</g>
</g>
<path fill-rule="evenodd" clip-rule="evenodd" d="M96.1189 125.274L146.044 108.57C146.226 108.509 146.321 108.315 146.262 108.137C146.201 107.956 146.008 107.861 145.83 107.919L95.9039 124.626C95.7259 124.684 95.6276 124.881 95.689 125.059C95.7474 125.237 95.9408 125.335 96.1189 125.274Z" fill="#DCDCDC"/>
<path fill-rule="evenodd" clip-rule="evenodd" d="M98.8759 126.974L142.209 111.785C142.384 111.723 142.479 111.527 142.418 111.349C142.357 111.171 142.16 111.076 141.982 111.137L98.6487 126.327C98.4706 126.391 98.3754 126.584 98.4399 126.763C98.5013 126.941 98.6978 127.036 98.8759 126.974Z" fill="#DCDCDC"/>
<path fill-rule="evenodd" clip-rule="evenodd" d="M97.986 122.633L140.487 108.57C140.665 108.512 140.764 108.318 140.705 108.137C140.647 107.959 140.453 107.861 140.272 107.919L97.771 121.982C97.593 122.04 97.4947 122.234 97.5561 122.415C97.6144 122.593 97.8079 122.691 97.986 122.633Z" fill="#DCDCDC"/>
<path fill-rule="evenodd" clip-rule="evenodd" d="M93.6075 81.1721L149.487 99.1803L96.0147 117.815L40.7619 99.4413L93.6075 81.1721Z" fill="#FDB12D"/>
<mask id="mask6_234_4494" style="mask-type:luminance" maskUnits="userSpaceOnUse" x="93" y="98" width="57" height="20">
<path d="M93.4108 98.0568H149.619V117.855H93.4108V98.0568Z" fill="white"/>
</mask>
<g mask="url(#mask6_234_4494)">
<mask id="mask7_234_4494" style="mask-type:luminance" maskUnits="userSpaceOnUse" x="40" y="81" width="110" height="37">
<path fill-rule="evenodd" clip-rule="evenodd" d="M93.6065 81.1725L149.486 99.1807L96.0137 117.815L40.7609 99.4417L93.6065 81.1725Z" fill="white"/>
</mask>
<g mask="url(#mask7_234_4494)">
<path fill-rule="evenodd" clip-rule="evenodd" d="M149.014 98.6521L94.1173 117.824C93.7949 117.935 93.626 118.288 93.7396 118.61C93.8502 118.929 94.2002 119.098 94.5226 118.988L149.419 99.8158C149.742 99.7053 149.911 99.3552 149.8 99.0328C149.686 98.7135 149.333 98.5416 149.014 98.6521Z" fill="#FCA002"/>
</g>
</g>
<path fill-rule="evenodd" clip-rule="evenodd" d="M38.0441 93.1657C39.1402 89.6255 42.9046 87.6419 46.4418 88.7442L89.4896 102.138C93.0268 103.237 95.0041 107.007 93.9049 110.548C92.8088 114.091 89.0444 116.071 85.5103 114.972L42.4594 101.576C38.9222 100.476 36.9449 96.709 38.0441 93.1657Z" fill="#E1663A"/>
<path fill-rule="evenodd" clip-rule="evenodd" d="M88.1141 77.1253L31.8664 98.2347L88.765 115.236L145.743 94.0988C145.743 94.0988 150.091 86.0512 145.452 81.3718C145.166 81.0862 144.399 80.5642 144.399 80.5642L88.1141 77.1253Z" fill="#E1663A"/>
<mask id="mask8_234_4494" style="mask-type:luminance" maskUnits="userSpaceOnUse" x="79" y="81" width="69" height="35">
<path d="M79.2603 81.5498H147.645V115.349H79.2603V81.5498Z" fill="white"/>
</mask>
<g mask="url(#mask8_234_4494)">
<mask id="mask9_234_4494" style="mask-type:luminance" maskUnits="userSpaceOnUse" x="31" y="74" width="118" height="44">
<path d="M147.17 74.9317L31.0212 79.1505L32.4029 117.292L148.552 113.07L147.17 74.9317Z" fill="white"/>
</mask>
<g mask="url(#mask9_234_4494)">
<mask id="mask10_234_4494" style="mask-type:luminance" maskUnits="userSpaceOnUse" x="31" y="77" width="117" height="39">
<path fill-rule="evenodd" clip-rule="evenodd" d="M88.1145 77.1256L31.8668 98.235L88.7654 115.236L145.744 94.0991C145.744 94.0991 150.092 86.0514 145.452 81.372C145.167 81.0865 144.399 80.5645 144.399 80.5645L88.1145 77.1256Z" fill="white"/>
</mask>
<g mask="url(#mask10_234_4494)">
<path fill-rule="evenodd" clip-rule="evenodd" d="M79.6987 114.014C78.3968 110.541 80.1531 106.663 83.6166 105.358L145.468 82.0752C148.934 80.7702 152.806 82.5265 154.108 85.9992C155.41 89.4719 153.654 93.3499 150.187 94.6548L88.3389 117.938C84.8724 119.243 81.0006 117.484 79.6987 114.014Z" fill="#E1663A"/>
</g>
</g>
</g>
<path fill-rule="evenodd" clip-rule="evenodd" d="M38.026 92.3554C39.0853 88.8029 39.1713 85.2319 39.1713 85.2319L87.7981 99.8995C91.3475 100.962 93.3648 104.711 92.3055 108.263C91.2432 111.816 87.5003 113.839 83.9539 112.777L35.3271 98.1094C35.3271 98.1094 36.9636 95.911 38.026 92.3554Z" fill="white"/>
<mask id="mask11_234_4494" style="mask-type:luminance" maskUnits="userSpaceOnUse" x="37" y="84" width="56" height="30">
<path d="M37.6017 84.6933H92.6242V113.777H37.6017V84.6933Z" fill="white"/>
</mask>
<g mask="url(#mask11_234_4494)">
<mask id="mask12_234_4494" style="mask-type:luminance" maskUnits="userSpaceOnUse" x="35" y="85" width="60" height="30">
<path d="M94.2821 101.714L39.1459 85.2011L35.2649 98.2107L90.398 114.724L94.2821 101.714Z" fill="white"/>
</mask>
<g mask="url(#mask12_234_4494)">
<mask id="mask13_234_4494" style="mask-type:luminance" maskUnits="userSpaceOnUse" x="35" y="85" width="58" height="29">
<path fill-rule="evenodd" clip-rule="evenodd" d="M38.0262 92.3568C39.0855 88.8043 39.1715 85.2333 39.1715 85.2333L87.7983 99.9009C91.3477 100.963 93.365 104.712 92.3057 108.265C91.2434 111.817 87.5005 113.841 83.9541 112.778L35.3273 98.1108C35.3273 98.1108 36.9638 95.9124 38.0262 92.3568Z" fill="white"/>
</mask>
<g mask="url(#mask13_234_4494)">
<path fill-rule="evenodd" clip-rule="evenodd" d="M40.6229 81.5765C41.6822 78.024 41.7712 74.4531 41.7712 74.4531L90.395 89.1206C93.9444 90.183 95.9617 93.932 94.9024 97.4846C93.84 101.037 95.1481 115.281 84.3554 112.957C84.3554 112.957 89.2528 112.821 90.6652 108.821C91.6662 105.99 91.2332 104.126 89.7287 103.619C80.9134 100.65 37.927 87.3306 37.927 87.3306C37.927 87.3306 39.5605 85.1321 40.6229 81.5765Z" fill="#DCDCDC"/>
</g>
</g>
</g>
<path fill-rule="evenodd" clip-rule="evenodd" d="M90.3927 107.787L39.8929 92.9045C39.7117 92.8523 39.5214 92.9567 39.4692 93.1379C39.417 93.319 39.5214 93.5094 39.6995 93.5616L90.1993 108.444C90.3804 108.496 90.5708 108.392 90.623 108.211C90.6752 108.03 90.5739 107.839 90.3927 107.787Z" fill="#DCDCDC"/>
<path fill-rule="evenodd" clip-rule="evenodd" d="M87.7086 109.586L43.8532 95.9807C43.6752 95.9255 43.4817 96.0268 43.4264 96.208C43.3712 96.3891 43.4725 96.5795 43.6506 96.6348L87.5059 110.24C87.6871 110.298 87.8774 110.197 87.9358 110.016C87.9911 109.835 87.8897 109.644 87.7086 109.586Z" fill="#DCDCDC"/>
<path fill-rule="evenodd" clip-rule="evenodd" d="M88.427 105.214L45.4468 92.7049C45.2656 92.6496 45.0752 92.754 45.023 92.9382C44.9708 93.1194 45.0752 93.3098 45.2564 93.362L88.2366 105.871C88.4178 105.923 88.6082 105.819 88.6604 105.638C88.7126 105.456 88.6082 105.266 88.427 105.214Z" fill="#DCDCDC"/>
<path fill-rule="evenodd" clip-rule="evenodd" d="M72.3101 97.8663L79.9064 100.105C79.9064 100.105 78.5185 102.711 77.9751 104.081C77.3732 105.604 76.2802 109.258 76.2802 109.258L73.7747 103.691L69.1628 108.883C69.1628 108.883 70.1208 103.568 70.6428 101.732C71.0297 100.384 72.3101 97.8663 72.3101 97.8663Z" fill="#FCA002"/>
<path fill-rule="evenodd" clip-rule="evenodd" d="M91.1146 64.2789L35.9262 84.3044L90.0368 100.986L144.587 80.6168L91.1146 64.2789Z" fill="#E57952"/>
<mask id="mask14_234_4494" style="mask-type:luminance" maskUnits="userSpaceOnUse" x="57" y="68" width="78" height="23">
<path d="M57.253 68.1862H134.285V90.9812H57.253V68.1862Z" fill="white"/>
</mask>
<g mask="url(#mask14_234_4494)">
<mask id="mask15_234_4494" style="mask-type:luminance" maskUnits="userSpaceOnUse" x="35" y="62" width="111" height="41">
<path d="M143.959 62.3118L35.1358 66.2635L36.4653 102.968L145.288 99.013L143.959 62.3118Z" fill="white"/>
</mask>
<g mask="url(#mask15_234_4494)">
<mask id="mask16_234_4494" style="mask-type:luminance" maskUnits="userSpaceOnUse" x="35" y="64" width="110" height="37">
<path fill-rule="evenodd" clip-rule="evenodd" d="M91.1112 64.2758L35.9228 84.3013L90.0334 100.983L144.583 80.6137L91.1112 64.2758Z" fill="white"/>
</mask>
<g mask="url(#mask16_234_4494)">
<path fill-rule="evenodd" clip-rule="evenodd" d="M106.545 71.9963C118.206 72.4384 129.668 76.6787 134.096 80.001C135.373 80.959 128.501 85.4602 118.513 88.3127C94.3518 95.212 57.9607 83.0346 57.9577 73.7311C57.9577 64.4276 70.5926 70.6238 106.545 71.9963Z" fill="#E1663A"/>
</g>
</g>
</g>
<path fill-rule="evenodd" clip-rule="evenodd" d="M35.8243 84.6324L91.6482 101.839C91.8294 101.894 92.0198 101.793 92.0781 101.612C92.1334 101.431 92.032 101.24 91.8509 101.185L36.0269 83.9753C35.8458 83.92 35.6554 84.0213 35.5971 84.2025C35.5418 84.3837 35.6431 84.574 35.8243 84.6324Z" fill="#E1663A"/>
<path fill-rule="evenodd" clip-rule="evenodd" d="M135.571 76.1951C134.407 72.8882 130.769 71.1442 127.449 72.3048L87.0637 86.4381C83.7476 87.5987 82.0005 91.2249 83.1642 94.5349C84.3279 97.8418 88.6051 99.8222 91.2825 98.4252L131.668 84.2919C131.668 84.2919 136.734 79.505 135.571 76.1951Z" fill="#A38C40"/>
<path fill-rule="evenodd" clip-rule="evenodd" d="M87.5091 62.7588L141.604 80.7732L88.203 98.7845L33.4138 80.7732C33.4138 80.7732 29.0107 73.3212 33.2541 68.74C33.512 68.4606 34.2244 67.9417 34.2244 67.9417L87.5091 62.7588Z" fill="#A38C40"/>
<mask id="mask17_234_4494" style="mask-type:luminance" maskUnits="userSpaceOnUse" x="31" y="68" width="67" height="31">
<path d="M31.4002 68.975H97.3413V98.7922H31.4002V68.975Z" fill="white"/>
</mask>
<g mask="url(#mask17_234_4494)">
<mask id="mask18_234_4494" style="mask-type:luminance" maskUnits="userSpaceOnUse" x="31" y="62" width="111" height="37">
<path fill-rule="evenodd" clip-rule="evenodd" d="M87.5113 62.7592L141.607 80.7736L88.2053 98.7849L33.416 80.7736C33.416 80.7736 29.013 73.3216 33.2564 68.7404C33.5143 68.461 34.2266 67.9421 34.2266 67.9421L87.5113 62.7592Z" fill="white"/>
</mask>
<g mask="url(#mask18_234_4494)">
<path fill-rule="evenodd" clip-rule="evenodd" d="M96.7648 97.3176C97.8825 93.9954 96.0832 90.3906 92.7487 89.2791L33.2647 69.4041C29.9333 68.2895 26.3193 70.0857 25.2017 73.4079C24.084 76.7332 25.8833 80.338 29.2178 81.4495L88.7018 101.325C92.0363 102.439 95.6472 100.643 96.7648 97.3176Z" fill="#A38C40"/>
</g>
</g>
<path fill-rule="evenodd" clip-rule="evenodd" d="M135.562 75.4302C134.432 72.1079 134.227 68.7397 134.227 68.7397L88.5935 84.2639C85.2651 85.3907 83.4781 88.9985 84.608 92.3177C85.7349 95.6399 89.3549 97.4208 92.6833 96.2939L138.316 80.7697C138.316 80.7697 136.689 78.7493 135.562 75.4302Z" fill="white"/>
<mask id="mask19_234_4494" style="mask-type:luminance" maskUnits="userSpaceOnUse" x="83" y="68" width="53" height="30">
<path d="M83.9784 68.1862H135.857V97.2695H83.9784V68.1862Z" fill="white"/>
</mask>
<g mask="url(#mask19_234_4494)">
<mask id="mask20_234_4494" style="mask-type:luminance" maskUnits="userSpaceOnUse" x="82" y="68" width="57" height="31">
<path d="M82.5056 86.2016L134.249 68.7092L138.382 80.8651L86.6384 98.3544L82.5056 86.2016Z" fill="white"/>
</mask>
<g mask="url(#mask20_234_4494)">
<mask id="mask21_234_4494" style="mask-type:luminance" maskUnits="userSpaceOnUse" x="84" y="68" width="55" height="29">
<path fill-rule="evenodd" clip-rule="evenodd" d="M135.561 75.4315C134.431 72.1093 134.225 68.741 134.225 68.741L88.5922 84.2652C85.2638 85.3921 83.4768 88.9999 84.6067 92.319C85.7336 95.6413 89.3536 97.4221 92.682 96.2953L138.315 80.771C138.315 80.771 136.688 78.7507 135.561 75.4315Z" fill="white"/>
</mask>
<g mask="url(#mask21_234_4494)">
<path fill-rule="evenodd" clip-rule="evenodd" d="M132.725 65.3361C131.595 62.0169 131.392 58.6456 131.392 58.6456L85.7592 74.1698C82.4277 75.2967 80.6407 78.9075 81.7707 82.2267C82.8975 85.5458 81.6571 101.015 90.2144 96.71C90.2144 96.71 87.7765 95.5555 86.5084 93.4369C85.2311 91.3091 85.1297 88.2141 87.7212 87.2622C95.8917 84.2593 135.482 70.6787 135.482 70.6787C135.482 70.6787 133.855 68.6553 132.725 65.3361Z" fill="#DCDCDC"/>
</g>
</g>
</g>
<path fill-rule="evenodd" clip-rule="evenodd" d="M86.6094 92.4196L134.011 76.6282C134.18 76.5699 134.272 76.3887 134.217 76.2168C134.159 76.0479 133.977 75.9558 133.805 76.0111L86.4037 91.8024C86.2349 91.8577 86.1427 92.0419 86.2011 92.2139C86.2563 92.3827 86.4406 92.4749 86.6094 92.4196Z" fill="#DCDCDC"/>
<path fill-rule="evenodd" clip-rule="evenodd" d="M89.2254 94.0256L130.366 79.6681C130.535 79.6067 130.624 79.4225 130.566 79.2536C130.508 79.0848 130.323 78.9957 130.155 79.054L89.0105 93.4115C88.8416 93.4698 88.7526 93.6571 88.8109 93.826C88.8723 93.9949 89.0565 94.0839 89.2254 94.0256Z" fill="#DCDCDC"/>
<path fill-rule="evenodd" clip-rule="evenodd" d="M88.3811 89.9202L128.733 76.6282C128.902 76.5729 128.997 76.3887 128.939 76.2198C128.883 76.0479 128.702 75.9558 128.53 76.011L88.1784 89.3031C88.0096 89.3583 87.9174 89.5425 87.9727 89.7114C88.028 89.8834 88.2122 89.9755 88.3811 89.9202Z" fill="#DCDCDC"/>
<path fill-rule="evenodd" clip-rule="evenodd" d="M103.221 81.814L96.0912 84.1875C96.0912 84.1875 97.4944 86.6009 98.0563 87.8751C98.6827 89.2967 99.8433 92.708 99.8433 92.708L102.029 87.3654L106.583 92.1123C106.583 92.1123 105.493 87.1228 104.934 85.4065C104.52 84.1445 103.221 81.814 103.221 81.814Z" fill="#FDC056"/>
<path fill-rule="evenodd" clip-rule="evenodd" d="M84.221 50.7282L137.275 67.7508L86.5085 85.363L34.0498 67.9965L84.221 50.7282Z" fill="#937F3A"/>
<mask id="mask22_234_4494" style="mask-type:luminance" maskUnits="userSpaceOnUse" x="83" y="66" width="55" height="20">
<path d="M83.9792 66.6141H137.402V85.3991H83.9792V66.6141Z" fill="white"/>
</mask>
<g mask="url(#mask22_234_4494)">
<mask id="mask23_234_4494" style="mask-type:luminance" maskUnits="userSpaceOnUse" x="34" y="50" width="104" height="36">
<path fill-rule="evenodd" clip-rule="evenodd" d="M84.2206 50.7285L137.275 67.7511L86.508 85.3632L34.0493 67.9967L84.2206 50.7285Z" fill="white"/>
</mask>
<g mask="url(#mask23_234_4494)">
<path fill-rule="evenodd" clip-rule="evenodd" d="M136.83 67.2506L84.7061 85.3693C84.4022 85.4768 84.2425 85.8115 84.3469 86.1124C84.4544 86.4194 84.786 86.5791 85.0899 86.4747L137.211 68.3529C137.515 68.2485 137.678 67.9169 137.57 67.6098C137.466 67.3058 137.134 67.1431 136.83 67.2506Z" fill="#A38C40"/>
</g>
</g>
<path fill-rule="evenodd" clip-rule="evenodd" d="M57.4029 87.141C57.4029 87.141 58.843 89.235 58.0846 89.8031C57.0437 90.586 51.7901 92.2195 51.1515 91.8388C50.5159 91.4611 54.2588 87.5279 54.2588 87.5279L52.4595 77.3769L56.8011 76.4527L57.4029 87.141Z" fill="#FFC2AF"/>
<path fill-rule="evenodd" clip-rule="evenodd" d="M47.8729 68.3313C48.4317 65.703 56.0526 64.2108 57.4128 66.5321C59.0801 69.3845 58.5857 82.1115 57.8765 85.4461C57.6001 86.7572 53.848 87.6998 53.1695 86.5422C51.5022 83.6898 47.1667 71.6659 47.8729 68.3313Z" fill="#F7AB3D"/>
<path fill-rule="evenodd" clip-rule="evenodd" d="M51.0169 92.1609C51.4959 93.0452 57.6767 91.6942 58.7452 90.8375C59.476 90.2511 57.4219 87.0302 57.4219 87.0302C57.4219 87.0302 57.1517 87.3587 55.9266 87.5737C54.6308 87.8039 54.2224 87.503 54.2224 87.503C54.2224 87.503 50.6362 91.4486 51.0169 92.1609Z" fill="#763821"/>
<path fill-rule="evenodd" clip-rule="evenodd" d="M65.5156 66.4249C67.3334 67.3307 71.064 67.9141 71.064 70.3428C71.064 72.1421 70.6679 74.1809 69.2954 75.1818C64.1739 78.9155 52.761 73.14 49.0549 71.789C46.9179 71.0091 44.8975 67.782 47.0714 67.0758C49.8133 66.1792 61.8956 64.6164 65.5156 66.4249Z" fill="#F7AB3D"/>
<path fill-rule="evenodd" clip-rule="evenodd" d="M46.4235 90.1688C46.4235 90.1688 47.5227 92.4993 46.6753 92.8923C45.5085 93.4327 40.0093 93.9147 39.4352 93.4142C38.861 92.9138 43.2302 89.8832 43.2302 89.8832L43.0859 79.6678L47.5627 79.6832L46.4235 90.1688Z" fill="#FFC2AF"/>
<path fill-rule="evenodd" clip-rule="evenodd" d="M46.819 66.3907C53.5341 63.4646 55.0264 64.6897 52.0081 70.3424C50.304 73.5326 48.6583 86.1092 46.9695 88.9186C46.0177 90.4999 41.9524 89.0691 41.8695 87.193C41.3567 75.6144 41.9462 68.5155 46.819 66.3907Z" fill="#F7AB3D"/>
<path fill-rule="evenodd" clip-rule="evenodd" d="M39.128 93.7243C39.4596 94.6823 46.0703 94.759 47.2924 94.148C48.149 93.7212 46.4634 90.0643 46.4634 90.0643C46.4634 90.0643 46.0703 90.4235 44.8176 90.3775C43.4881 90.3283 43.1964 89.8555 43.1964 89.8555C43.1964 89.8555 38.8609 92.9536 39.128 93.7243Z" fill="#763821"/>
<path fill-rule="evenodd" clip-rule="evenodd" d="M51.434 64.3796C50.9397 57.2377 49.2877 46.006 51.8792 42.2846C54.4737 38.5663 64.0628 37.4456 66.9951 42.0574C70.1945 47.0837 72.3407 62.4391 71.0634 72.4457C70.437 77.3492 51.7349 68.7397 51.434 64.3796Z" fill="#763821"/>
<mask id="mask24_234_4494" style="mask-type:luminance" maskUnits="userSpaceOnUse" x="53" y="39" width="11" height="4">
<path d="M53.3217 39.0203H63.5402V42.2473H53.3217V39.0203Z" fill="white"/>
</mask>
<g mask="url(#mask24_234_4494)">
<mask id="mask25_234_4494" style="mask-type:luminance" maskUnits="userSpaceOnUse" x="50" y="39" width="22" height="35">
<path fill-rule="evenodd" clip-rule="evenodd" d="M51.4361 64.3791C50.9417 57.2372 49.2898 46.0055 51.8813 42.2841C54.4758 38.5658 64.0649 37.445 66.9971 42.0569C70.1966 47.0832 72.3428 62.4386 71.0655 72.4452C70.4391 77.3487 51.737 68.7391 51.4361 64.3791Z" fill="white"/>
</mask>
<g mask="url(#mask25_234_4494)">
<path fill-rule="evenodd" clip-rule="evenodd" d="M60.442 25.6859C62.9076 26.3 64.0099 30.4267 62.8984 34.8942C61.79 39.3617 56.5456 42.0176 56.5456 42.0176C56.5456 42.0176 52.8549 37.1356 53.9634 32.6681C55.0749 28.1975 57.9765 25.0687 60.442 25.6859Z" fill="#FFA487"/>
</g>
</g>
<path fill-rule="evenodd" clip-rule="evenodd" d="M27 44.8329L50.4829 48.3363L49.7766 54.0903L33.1133 49.4263L27 44.8329Z" fill="#584F26"/>
<path fill-rule="evenodd" clip-rule="evenodd" d="M27.1135 44.8636L49.7612 48.3363L49.7765 54.0903C49.7765 54.0903 33.2206 49.4816 33.2114 49.4539C32.5021 46.3651 27.1135 44.8636 27.1135 44.8636Z" fill="#FEFEFE"/>
<path fill-rule="evenodd" clip-rule="evenodd" d="M27.8168 43.9864L50.4645 47.456L50.4829 53.21C50.4829 53.21 33.3037 49.4917 33.2976 49.461C32.5852 46.3752 27.8168 43.9864 27.8168 43.9864Z" fill="#FEFEFE"/>
<path fill-rule="evenodd" clip-rule="evenodd" d="M55.2574 43.5375C55.2574 43.5375 39.7854 37.2492 39.7454 37.2922C35.0354 42.6869 33.1409 49.4297 33.1409 49.4297L49.2792 55.6719L55.2574 43.5375Z" fill="#FEFEFE"/>
<path fill-rule="evenodd" clip-rule="evenodd" d="M56.2369 44.2624L39.9849 37.879L33.1409 49.43L49.2792 55.6723L56.2369 44.2624Z" fill="#FEFEFE"/>
<path fill-rule="evenodd" clip-rule="evenodd" d="M56.3873 44.7876L40.2459 38.5423L33.1409 49.427L49.2823 55.6723L56.3873 44.7876Z" fill="#584F26"/>
<path fill-rule="evenodd" clip-rule="evenodd" d="M33.2669 49.8534L48.874 55.9206C49.0613 55.9913 49.2701 55.8991 49.3438 55.7118C49.4144 55.5245 49.3223 55.3157 49.135 55.2421L33.5279 49.1779C33.3436 49.1073 33.1318 49.1994 33.0612 49.3836C32.9875 49.5709 33.0796 49.7828 33.2669 49.8534Z" fill="#584F26"/>
<path fill-rule="evenodd" clip-rule="evenodd" d="M39.6862 52.2455C40.6043 51.5946 44.7494 52.6355 44.7494 52.6355C44.7494 52.6355 43.2173 50.9375 43.5919 50.6243C44.3103 50.0195 49.0849 53.2373 48.6397 54.8063C47.8475 57.5974 44.6665 56.8604 42.4527 55.5647C40.2942 54.3028 38.2677 53.2527 39.6862 52.2455Z" fill="#FFC2AF"/>
<path fill-rule="evenodd" clip-rule="evenodd" d="M47.6084 52.8102L46.5092 56.6913C46.5092 56.6913 50.464 58.9081 52.7729 59.6389C57.2712 61.0575 61.5545 61.822 63.0651 58.2603C65.85 51.6834 60.3386 55.721 58.1555 54.8951C56.8689 54.4099 55.3091 53.9954 53.6173 53.6546C51.3759 53.2063 47.6084 52.8102 47.6084 52.8102Z" fill="#FFC2AF"/>
<path fill-rule="evenodd" clip-rule="evenodd" d="M65.4577 42.1193C67.7544 42.8286 69.0287 46.1907 67.082 51.911C66.3267 54.1248 65.6327 56.0008 64.7638 57.7663C64.3923 58.5186 56.0468 54.9231 56.5688 53.6335C57.2166 52.0307 61.3679 40.8543 65.4577 42.1193Z" fill="#F7AB3D"/>
<path fill-rule="evenodd" clip-rule="evenodd" d="M54.0231 67.7444C52.0672 67.6431 50.6179 67.4405 49.3898 69.5714C48.9231 70.382 48.6805 71.5825 48.6252 72.869C48.5423 74.7696 48.8739 76.8545 49.4481 78.0949C49.5157 78.2362 49.6815 78.2976 49.8227 78.2331C49.9639 78.1656 50.0254 77.9998 49.9609 77.8585C49.4143 76.6764 49.1104 74.699 49.1871 72.8936C49.2393 71.7084 49.4512 70.6 49.881 69.8538C50.9649 67.9747 52.2699 68.2204 53.9924 68.3094C54.149 68.3186 54.281 68.1958 54.2902 68.0423C54.2994 67.8857 54.1797 67.7536 54.0231 67.7444Z" fill="#763821"/>
<path fill-rule="evenodd" clip-rule="evenodd" d="M52.6382 20.1959C49.7151 20.7823 47.2035 24.6757 47.3447 30.052C47.4768 35.0722 50.409 38.8581 55.7301 37.8049C59.6143 37.0373 62.1228 32.1123 60.3942 27.3439C58.7054 22.6799 55.6994 19.5787 52.6382 20.1959Z" fill="white"/>
<path fill-rule="evenodd" clip-rule="evenodd" d="M52.1775 21.6816C49.2545 22.2742 46.9332 26.321 47.3047 31.1017C47.6578 35.646 50.4397 38.9959 55.7301 37.8045C60.4156 36.7514 62.2087 32.4957 60.5844 28.194C58.994 23.9844 55.2388 21.0583 52.1775 21.6816Z" fill="#FFC2AF"/>
<path fill-rule="evenodd" clip-rule="evenodd" d="M54.6894 34.2499C54.7109 35.1864 53.9341 35.9693 52.9454 36.0062C51.9506 36.04 51.1154 35.303 51.0816 34.3604C51.0816 34.3604 52.2883 34.5109 52.8871 34.4924C53.4889 34.474 54.6894 34.2499 54.6894 34.2499Z" fill="white"/>
<path fill-rule="evenodd" clip-rule="evenodd" d="M56.3163 15.1607C56.3593 15.1607 56.4023 15.1607 56.4453 15.1607C56.4944 14.9734 56.6909 14.8506 56.8721 14.7861C57.0686 14.7124 57.5629 14.8291 57.6151 14.7892C57.8546 14.6111 57.7717 14.1904 58.4626 13.8895C59.1534 13.5917 59.8872 13.822 60.3509 14.3317C60.4983 14.2764 60.6549 14.2457 60.8115 14.2365C61.2352 14.2088 61.6865 14.3132 62.0396 14.5435C62.3467 14.519 62.6015 14.7093 63.059 14.8536C63.3231 14.9365 63.5196 14.9642 63.6332 15.0901C63.8113 15.2037 63.9464 15.3541 64.017 15.5476C64.1767 15.5752 64.3977 15.5967 64.4837 15.6458C64.9259 15.9007 65.6136 16.0051 65.7917 16.4779C65.8163 16.5485 65.8132 16.6499 65.8255 16.7389C65.8777 16.7481 65.933 16.7543 65.9667 16.7665C66.4181 16.9385 66.7773 17.2762 66.9861 17.6907C67.1243 17.9702 67.1826 18.3263 67.069 18.6272C67.0813 18.7132 67.1028 18.79 67.1519 18.8606C67.2287 18.9773 67.3177 19.0847 67.4099 19.1861C67.7077 19.3396 68.0454 19.5821 68.1775 19.9997C68.3003 20.1594 68.4078 20.3344 68.4845 20.5463C68.6442 20.9823 68.6688 22.8829 68.678 23.2759C68.681 23.3005 68.7332 23.3097 68.7547 23.3158C69.2399 23.4601 69.5807 23.804 69.5592 24.3199C69.5377 24.8142 69.1662 25.0445 68.8284 25.2993C69.0495 25.4928 69.2552 25.6831 69.3074 25.7845C69.5285 26.2082 69.2644 26.549 68.8161 26.6626C68.7977 26.6657 68.6933 26.678 68.6995 26.7087C68.7424 27.0219 69.3197 26.9359 69.2245 27.7465C68.9512 30.0063 67.8827 30.0831 67.3607 30.037C67.3577 30.037 68.2235 30.0033 68.0823 31.7964C67.9134 33.9181 64.1951 34.3081 63.9924 35.263C63.9218 35.5946 60.6395 37.0715 63.7867 33.0092L47.8204 31.692C47.8204 31.692 47.5072 32.0943 46.7549 31.9469C46.3435 31.867 45.714 30.6358 45.5544 30.5836C45.2227 30.4761 45.0017 30.1844 44.9372 29.8682C44.9341 29.8436 44.8881 29.5181 44.9433 29.4966C44.9525 29.4966 44.9587 29.4936 44.9464 29.4966H44.9433C44.9218 29.4997 44.8758 29.5059 44.8574 29.5028C44.8021 29.4966 44.7499 29.4844 44.7008 29.469C44.538 29.4168 44.3814 29.3278 44.3016 29.1804C44.0406 28.6922 44.406 28.4465 44.6731 28.1825C44.6916 28.1149 44.7223 28.0474 44.7622 27.9829C44.6117 27.8816 44.4244 27.7803 44.3845 27.6052C44.363 27.5193 44.3692 27.4425 44.3876 27.378C44.3753 27.335 44.363 27.289 44.3599 27.2429C44.3446 26.9512 44.5104 26.8161 44.6609 26.6902C44.5749 26.5889 44.2586 24.8203 44.1972 24.7098C44.1112 24.6576 44.0406 24.5839 44.0161 24.4857C43.9485 24.2247 44.1604 23.8716 44.3415 23.6167C44.2156 23.4786 44.0437 23.2943 43.9209 23.1193C43.6844 22.9566 43.6384 22.6987 43.7827 22.3947C43.9424 22.0569 44.2126 21.8604 44.5319 21.7499C44.5411 21.5165 44.4244 21.2862 44.3784 21.0437C44.1696 20.8625 44.1112 20.7673 44.1941 20.4449C44.3538 19.8094 45.9781 19.1369 46.3404 18.7838C46.8286 18.3018 45.4407 18.1175 45.625 18.0592C45.7017 18.0346 45.7846 18.1053 45.8675 18.1421C45.8675 18.0162 45.8675 17.789 45.8798 17.7522C45.9904 17.4267 46.2114 17.135 46.4816 16.9108C46.9084 16.5608 47.455 16.3858 48.0107 16.3674C48.0721 16.3674 48.1427 16.3735 48.2164 16.3827C48.3577 16.3213 48.4897 16.2783 48.5972 16.2538C48.7538 16.2169 48.9288 16.2016 49.1069 16.2016C49.3249 16.0081 49.5828 15.7379 49.8284 15.6182C50.3166 15.3879 50.8847 15.3111 51.4159 15.4033C51.6185 15.437 51.8119 15.4984 51.9962 15.5905C52.0023 15.5936 52.0115 15.5998 52.0207 15.6059C52.0514 15.5936 52.0852 15.5844 52.1159 15.5721C52.119 15.5598 52.1221 15.5476 52.1251 15.5384C52.1865 15.3511 52.3247 15.176 52.466 15.0348C52.8098 14.6878 53.2489 14.4514 53.7433 14.3716C54.4157 14.258 55.0574 14.4361 55.6377 14.737C55.8772 14.8629 56.086 15.0194 56.3102 15.1576L56.3163 15.1607Z" fill="#0C0C0C"/>
<path fill-rule="evenodd" clip-rule="evenodd" d="M65.3373 30.2182C65.4356 30.7678 65.4601 31.4372 65.54 32.2601C65.8317 35.2138 64.496 37.5719 61.3058 39.1747C58.6744 40.4981 56.3071 40.6424 53.9091 40.3446C51.7813 40.0836 48.2963 37.2465 47.8572 34.4401C47.8326 34.2835 47.7866 33.8874 47.7804 33.8444C46.8716 27.9706 46.3834 25.0476 55.3491 23.7733C63.9802 22.5482 65.2145 28.9562 65.3373 30.2182Z" fill="#FFC2AF"/>
<path fill-rule="evenodd" clip-rule="evenodd" d="M66.7102 29.72C66.8146 29.809 66.311 31.1938 65.7645 31.0034C64.8495 30.6841 65.4298 29.4713 65.2487 29.1857C65.2425 29.1796 65.0092 29.2932 64.828 29.2963C64.5148 29.2993 62.3563 31.0894 62.1936 30.8223C61.8098 30.1867 59.5898 27.368 59.6789 27.1807C59.6819 27.1746 59.7372 27.0855 59.7311 27.0794C59.7218 27.0671 59.4762 27.1592 59.4547 27.1623C59.1753 27.2268 59.4793 27.1255 59.2674 26.9075C59.1078 26.7478 58.9972 26.0723 58.9665 26.0508C58.9419 26.0324 58.4046 26.2811 58.334 26.2964C57.7199 26.4039 57.5203 26.0876 57.2747 25.6332C57.2747 25.6332 57.2501 25.6547 57.2471 25.6578C57.1396 25.7468 57.0137 25.8267 56.894 25.8973C56.6268 26.0631 56.2461 26.3026 56.0895 25.9341C55.9697 25.6516 55.0609 25.4459 55.0118 25.3385C55.0087 25.3292 54.9841 25.2371 54.9749 25.2433C54.8398 25.2955 54.6955 25.5135 54.588 25.6056C54.192 25.9525 53.6669 26.2964 53.1357 26.364C52.1839 26.4868 52.0027 25.6977 51.6435 25.6363C51.5022 25.6117 50.9281 26.4899 50.5443 26.6495C49.9639 26.889 49.4297 26.3701 49.2639 26.4162C49.224 26.4285 49.224 26.5083 49.2209 26.5359C49.1718 26.9873 49.2454 27.4049 49.0397 27.8347C48.9169 28.0988 48.5914 28.5317 48.2445 28.3598C48.2353 28.3536 48.18 28.3045 48.1646 28.3199C48.1616 28.326 48.1554 29.4713 48.0725 29.6862C47.6734 30.7363 46.304 30.2757 46.0522 29.373C45.564 27.6229 48.0326 24.3774 49.3713 23.5361C52.9853 21.267 63.1546 21.7614 66.7102 29.72Z" fill="#0C0C0C"/>
<path d="M62.3439 31.729C62.4299 32.1006 62.5619 32.4475 62.74 32.7669C62.915 33.0862 63.1238 33.3533 63.3633 33.5744C63.6059 33.7924 63.8577 33.9459 64.1248 34.0319C64.3919 34.1179 64.6529 34.1332 64.9047 34.0718C65.1595 34.0104 65.3868 33.8814 65.5863 33.6849C65.7859 33.4853 65.9456 33.2366 66.0653 32.9296C66.182 32.6256 66.2496 32.2909 66.268 31.9256C66.2833 31.5571 66.2496 31.1886 66.1636 30.8202C66.0776 30.4487 65.9456 30.1017 65.7675 29.7824C65.5925 29.4631 65.3837 29.1929 65.1442 28.9748C64.9047 28.7538 64.6498 28.6033 64.3827 28.5173C64.1156 28.4314 63.8577 28.416 63.6028 28.4774C63.351 28.5388 63.1238 28.6678 62.9212 28.8643C62.7216 29.0608 62.5619 29.3126 62.4453 29.6196C62.3255 29.9236 62.258 30.2583 62.2426 30.6237C62.2242 30.9891 62.258 31.3575 62.3439 31.729Z" fill="#FFC2AF"/>
<path fill-rule="evenodd" clip-rule="evenodd" d="M64.0603 29.8C64.0756 29.8061 64.18 29.8461 64.2476 29.8952C64.4349 30.0303 64.6467 30.2698 64.7941 30.5738C64.9599 30.9176 65.0489 31.3444 64.9384 31.805C64.9077 31.937 64.9875 32.0721 65.1196 32.1028C65.2516 32.1335 65.3836 32.0537 65.4143 31.9217C65.5894 31.2032 65.3836 30.5492 65.0797 30.0825C64.8402 29.7202 64.5423 29.4684 64.312 29.3701C64.1524 29.2995 64.0111 29.2964 63.9098 29.3333C63.7809 29.3824 63.7164 29.5237 63.7624 29.6495C63.8054 29.7693 63.9374 29.8368 64.0603 29.8Z" fill="#FF9886"/>
<path fill-rule="evenodd" clip-rule="evenodd" d="M62.8376 21.7156C62.8744 21.6419 63.0064 21.5805 63.1477 21.5437C63.2613 21.5161 63.3841 21.513 63.467 21.5683C63.5622 21.6327 63.6052 21.7371 63.6543 21.8446C63.7157 21.9828 63.7771 22.1302 63.8631 22.256C63.9184 22.3297 63.9828 22.3973 64.0627 22.4525C64.1763 22.5293 64.3022 22.5815 64.4342 22.6153C64.686 22.6798 64.9623 22.6736 65.2079 22.7381C65.4874 22.8026 65.7054 22.9408 65.862 23.1342C66.0278 23.3368 66.1291 23.5948 66.1659 23.8834C66.1721 23.954 66.2365 24.0062 66.3072 24.0001C66.3778 23.9939 66.43 23.9325 66.4238 23.8619C66.4085 23.5088 66.3102 23.1925 66.1322 22.9346C65.9449 22.6644 65.6716 22.4648 65.3123 22.3543C65.0667 22.2806 64.7904 22.2714 64.5386 22.2069C64.4526 22.1823 64.3666 22.1547 64.2899 22.1087C64.1916 22.0503 64.1333 21.9582 64.078 21.863C63.9982 21.7279 63.9306 21.5867 63.8324 21.4761C63.774 21.4055 63.7065 21.3472 63.6205 21.3042C63.467 21.2274 63.2551 21.2336 63.0709 21.3134C62.8775 21.3932 62.7147 21.5345 62.6779 21.6542C62.6595 21.6972 62.681 21.7463 62.7239 21.7648C62.77 21.7832 62.8191 21.7617 62.8376 21.7156Z" fill="#2B2B2B"/>
<path fill-rule="evenodd" clip-rule="evenodd" d="M52.365 23.8589C52.3896 23.8405 52.3742 23.8374 52.3496 23.8374L52.3619 23.8558C52.3619 23.8558 52.3619 23.8558 52.3619 23.8589H52.365C52.365 23.8619 52.365 23.8589 52.3619 23.8589C52.3527 23.8497 52.3404 23.8435 52.3281 23.8405C52.3374 23.8405 52.3435 23.8405 52.3496 23.8374C52.3159 23.7913 52.2606 23.7115 52.2545 23.7054C52.2115 23.6532 52.1654 23.604 52.1163 23.5549C52.0672 23.5088 52.015 23.4659 51.9597 23.4259C51.7877 23.3031 51.6035 23.2202 51.407 23.1772C51.2074 23.1312 50.9986 23.1312 50.7868 23.1803C50.5596 23.2325 50.3753 23.3277 50.2095 23.4444C50.0161 23.5795 49.8564 23.7453 49.6876 23.9049C49.5432 24.0431 49.3959 24.1782 49.2086 24.2734C49.055 24.3532 48.877 24.344 48.6897 24.3287C48.4655 24.3102 48.2322 24.2826 48.0049 24.3102C47.8791 24.3256 47.7562 24.3563 47.6334 24.4146C47.4001 24.5282 47.2066 24.6971 47.0746 24.9059C46.9456 25.1147 46.8719 25.3573 46.8719 25.6152C46.8719 25.7257 46.9272 25.8823 46.9426 26.0174C46.9456 26.0512 46.9518 26.0819 46.9426 26.1064C46.9241 26.1433 46.8842 26.174 46.8412 26.2108C46.7614 26.2784 46.6662 26.349 46.5833 26.4411C46.525 26.5087 46.4697 26.5824 46.4329 26.6714C46.4052 26.739 46.4359 26.8127 46.5004 26.8434C46.5649 26.871 46.6417 26.8434 46.6693 26.7789C46.6969 26.7175 46.7368 26.6714 46.7798 26.6284C46.875 26.5332 46.9856 26.4688 47.0685 26.4012C47.136 26.3459 47.1851 26.2876 47.2158 26.2293C47.2373 26.1801 47.2496 26.1218 47.2527 26.0604C47.2558 25.9192 47.1943 25.7411 47.2005 25.6244C47.2097 25.4309 47.2742 25.2559 47.3755 25.1055C47.4768 24.9581 47.6211 24.8414 47.7931 24.7677C47.9712 24.691 48.1554 24.6971 48.3366 24.7125C48.5699 24.7309 48.8002 24.7708 49.0121 24.7554C49.1502 24.7432 49.2823 24.7125 49.4051 24.648C49.5832 24.5528 49.7367 24.43 49.8749 24.2918C50.0621 24.1107 50.2249 23.9049 50.4306 23.7391C50.5565 23.6378 50.6947 23.5518 50.8728 23.4966C51.0355 23.4444 51.1982 23.4321 51.3579 23.4536C51.5237 23.4751 51.6834 23.5303 51.8338 23.6194C51.886 23.6501 51.9321 23.6808 51.9781 23.7176C52.0242 23.7514 52.0702 23.7913 52.1101 23.8343C52.1163 23.8405 52.1961 23.9326 52.2299 23.9694C52.2913 24.0339 52.365 23.994 52.3711 23.9878C52.4049 23.9541 52.4049 23.8988 52.3711 23.865L52.365 23.8589Z" fill="#2B2B2B"/>
<path fill-rule="evenodd" clip-rule="evenodd" d="M46.5246 23.0726C46.4755 23.0695 46.4325 23.0664 46.3956 23.0726C46.2329 23.0941 46.0702 23.1371 45.9197 23.2077C45.7631 23.2814 45.6219 23.3796 45.5114 23.5117C45.3885 23.656 45.3241 23.8341 45.3333 24.0029C45.3425 24.178 45.4192 24.3468 45.5881 24.4604C45.6434 24.5034 45.7263 24.4911 45.7662 24.4359C45.8092 24.3775 45.8 24.2977 45.7416 24.2547C45.6618 24.1841 45.6342 24.092 45.6372 24.0029C45.6434 23.9108 45.6925 23.8218 45.7662 23.7512C45.8522 23.6652 45.9596 23.6068 46.0702 23.5639C46.1899 23.5178 46.3127 23.4963 46.4356 23.4871C46.5 23.481 46.6014 23.5086 46.6781 23.5055C46.7303 23.5025 46.7764 23.4902 46.8163 23.4748C46.8838 23.4441 46.9299 23.3919 46.9514 23.3152C46.9667 23.2568 46.9483 23.1555 46.9422 23.1156C46.936 23.0757 46.933 23.0327 46.936 22.9928C46.9391 22.9559 46.9422 22.9221 46.9575 22.8914C47.0097 22.784 47.1141 22.7348 47.2247 22.7287C47.369 22.7195 47.5256 22.7533 47.633 22.8331C47.6453 22.8423 47.6545 22.8484 47.6607 22.8607C47.6852 22.8976 47.6975 22.9375 47.7282 22.9743C47.7559 23.0112 47.8111 23.0204 47.848 22.9958C47.8879 22.9682 47.8971 22.9129 47.8695 22.873C47.848 22.8331 47.848 22.7901 47.8295 22.7471C47.8173 22.7226 47.7988 22.7011 47.7773 22.6734C47.6208 22.5015 47.3475 22.3971 47.1018 22.4124C46.9053 22.4247 46.7365 22.526 46.6198 22.7041C46.5768 22.7748 46.5492 22.8546 46.5369 22.9375C46.5277 22.9805 46.5246 23.0265 46.5246 23.0726ZM46.5369 23.1831C46.5123 23.2138 46.5062 23.2384 46.54 23.2353C46.5614 23.2353 46.5461 23.2046 46.5369 23.1831ZM46.6321 23.0941C46.6505 23.0972 46.6628 23.0941 46.6597 23.0818C46.6597 23.0757 46.6474 23.0849 46.6413 23.0879C46.6382 23.0879 46.6351 23.091 46.6321 23.0941Z" fill="#2B2B2B"/>
<path fill-rule="evenodd" clip-rule="evenodd" d="M66.3421 25.8335C66.3237 25.7936 66.3022 25.7567 66.2776 25.7321C66.207 25.6554 66.1333 25.6063 66.0535 25.6093C65.9951 25.6124 65.9368 25.6277 65.8877 25.6677C65.8232 25.726 65.7648 25.8181 65.7372 25.8826L65.7034 25.987C65.7034 25.9931 65.7034 26.0054 65.7034 26.0177C65.685 26.03 65.6727 26.0453 65.6973 26.0484C65.6973 26.0515 65.6973 26.0545 65.6973 26.0576C65.6942 26.0668 65.6942 26.0699 65.6942 26.073C65.6942 26.1067 65.7126 26.1221 65.7188 26.1282C65.7403 26.1589 65.7741 26.1589 65.8078 26.1528C65.814 26.1497 65.8477 26.1374 65.8662 26.0883C65.8692 26.0791 65.8784 26.0545 65.8815 26.0423L65.9184 25.9839C65.9337 25.9624 65.9583 25.9348 65.9859 25.9102C66.0043 25.8949 66.0412 25.858 66.0443 25.8795C66.0443 25.8795 66.0412 25.8826 66.0381 25.8826C66.032 25.8826 66.0228 25.8826 66.0228 25.8826C66.0228 25.8826 66.0258 25.8979 66.032 25.9041C66.0473 25.9256 66.0565 25.9532 66.0688 25.9808C66.1118 26.0791 66.1548 26.1804 66.1916 26.2296C66.2623 26.3217 66.3544 26.3217 66.4311 26.3032C66.4588 26.2971 66.514 26.2603 66.5754 26.1896C66.6246 26.1282 66.6983 26.0208 66.7689 25.9133C66.8334 25.815 66.8886 25.7137 66.9193 25.683C67.079 25.5019 67.2816 25.4497 67.4567 25.5019C67.6501 25.5633 67.8128 25.7291 67.8558 25.9778C67.862 26.0484 67.9234 26.1006 67.994 26.0945C68.0646 26.0883 68.1168 26.0238 68.1107 25.9532C68.0953 25.5633 67.865 25.2839 67.5795 25.1641C67.2816 25.0382 66.9132 25.0996 66.6123 25.3944C66.5785 25.4282 66.514 25.5264 66.4465 25.6431C66.4127 25.7045 66.3759 25.7721 66.3421 25.8335ZM65.7188 26.0085C65.7126 26.0116 65.7096 26.0146 65.7034 26.0177V26.033C65.7004 26.0361 65.7004 26.0392 65.7004 26.0423L65.6973 26.0484C65.7034 26.0484 65.7034 26.0392 65.7034 26.03C65.7065 26.0208 65.7126 26.0146 65.7188 26.0085ZM66.3974 25.9409C66.4219 25.9808 66.4434 26.0054 66.4618 25.987C66.4895 25.9563 66.4465 25.944 66.3974 25.9409Z" fill="#2B2B2B"/>
<path fill-rule="evenodd" clip-rule="evenodd" d="M107.455 72.1023C103.863 71.1505 103.304 63.3484 104.434 63.8305C108.681 65.6359 122.617 57.4286 126.547 58.1379C130.475 58.8471 131.187 65.7587 128.006 68.0892C124.825 70.4166 114.41 73.9507 107.455 72.1023Z" fill="#763821"/>
<path fill-rule="evenodd" clip-rule="evenodd" d="M134.029 79.6736C134.029 79.6736 133.182 81.9366 134.134 82.2344C135.445 82.6397 141.34 82.6335 141.88 82.1177C142.421 81.6019 137.376 79.1424 137.376 79.1424L137.106 77.0545L131.398 69.9955L134.029 79.6736Z" fill="#FFC2AF"/>
<path fill-rule="evenodd" clip-rule="evenodd" d="M142.445 82.2741C142.224 83.1921 134.963 84.1194 133.55 83.6711C132.522 83.3457 133.974 79.5813 133.974 79.5813C133.974 79.5813 134.355 79.7993 135.678 79.6488C137.078 79.4922 137.41 79.1115 137.41 79.1115C137.41 79.1115 142.624 81.5341 142.445 82.2741Z" fill="#5B2B19"/>
<path fill-rule="evenodd" clip-rule="evenodd" d="M134.5 56.8972C132.869 54.4592 123.621 56.673 125.758 59.6544C128.534 63.5263 129.918 72.7499 133.225 79.2317C133.529 79.8273 138.169 78.7865 138.166 78.2031C138.11 70.5883 136.566 59.9891 134.5 56.8972Z" fill="#763821"/>
<path fill-rule="evenodd" clip-rule="evenodd" d="M131.493 83.6075C131.493 83.6075 130.735 86.156 131.696 86.4446C133.019 86.8438 138.912 86.5859 139.434 85.9902C139.952 85.3945 134.822 82.8737 134.822 82.8737L134.472 80.5647L128.503 72.9622L131.493 83.6075Z" fill="#FFC2AF"/>
<path fill-rule="evenodd" clip-rule="evenodd" d="M140.002 86.1399C139.817 87.1716 132.593 88.5073 131.165 88.0651C130.127 87.7458 131.438 83.5024 131.438 83.5024C131.438 83.5024 131.825 83.7296 133.142 83.5086C134.536 83.2752 134.852 82.8392 134.852 82.8392C134.852 82.8392 140.152 85.3109 140.002 86.1399Z" fill="#5B2B19"/>
<path fill-rule="evenodd" clip-rule="evenodd" d="M131.107 58.2789C129.387 55.6413 120.228 58.4846 122.476 61.7086C125.396 65.8936 127.124 76.0844 130.674 83.1465C130.999 83.7943 135.599 82.4433 135.571 81.7985C135.23 73.3394 133.29 61.6287 131.107 58.2789Z" fill="#763821"/>
<path fill-rule="evenodd" clip-rule="evenodd" d="M124.667 58.3558C125.306 58.0795 126.82 57.4992 128.312 57.5114C129.737 57.5237 131.143 58.0918 131.677 60.0722C132.829 64.3463 135.294 79.456 135.294 79.456C135.319 79.6095 135.463 79.7139 135.617 79.6893C135.77 79.6617 135.875 79.5174 135.85 79.3639C135.85 79.3639 133.375 64.2112 132.221 59.9248C131.601 57.625 129.97 56.9588 128.318 56.9465C126.731 56.9342 125.125 57.5421 124.446 57.8369C124.302 57.8983 124.234 58.0641 124.299 58.2054C124.36 58.3497 124.526 58.4172 124.667 58.3558Z" fill="#5B2B19"/>
<path fill-rule="evenodd" clip-rule="evenodd" d="M110.587 32.5302C105.806 34.8147 99.3426 63.1365 105.705 71.1504C108.99 75.2894 125.432 64.3156 125.438 58.0949C125.438 57.9997 125.573 35.2721 123.12 33.6387C120.492 31.8885 113.319 31.0257 110.587 32.5302Z" fill="#F7AB3D"/>
<path fill-rule="evenodd" clip-rule="evenodd" d="M110.252 39.6228C108.232 40.3444 108.204 45.4659 110.187 51.0603C112.171 56.6516 115.189 60.5695 117.246 59.9554C121.468 58.6996 119.491 54.0478 117.507 48.4535C115.521 42.8622 112.272 38.9043 110.252 39.6228Z" fill="#F7AB3D"/>
<path fill-rule="evenodd" clip-rule="evenodd" d="M116.433 37.1484L122.611 36.6817L124.192 53.7135L120.121 55.6141L116.433 37.1484Z" fill="#763821"/>
<path fill-rule="evenodd" clip-rule="evenodd" d="M144.378 39.2604L126.289 45.0513L126.299 53.7223L142.664 49.1412L144.378 39.2604Z" fill="#E1663A"/>
<path fill-rule="evenodd" clip-rule="evenodd" d="M144.263 39.2949L126.276 45.0581L126.298 53.7229C126.298 53.7229 142.562 49.1971 142.565 49.1664C142.897 42.8044 144.263 39.2949 144.263 39.2949Z" fill="white"/>
<path fill-rule="evenodd" clip-rule="evenodd" d="M120.916 43.3569C120.916 43.3569 136.112 37.1822 136.149 37.2252C140.773 42.5217 142.637 49.1447 142.637 49.1447L126.787 55.2764L120.916 43.3569Z" fill="white"/>
<path fill-rule="evenodd" clip-rule="evenodd" d="M119.955 44.0688L135.915 37.799L142.637 49.1443L126.787 55.276L119.955 44.0688Z" fill="white"/>
<path fill-rule="evenodd" clip-rule="evenodd" d="M119.81 44.5846L135.66 38.4529L142.636 49.1443L126.786 55.276L119.81 44.5846Z" fill="#E1663A"/>
<path fill-rule="evenodd" clip-rule="evenodd" d="M136.21 51.9102C135.307 51.2715 131.236 52.2909 131.236 52.2909C131.236 52.2909 132.74 50.6267 132.372 50.3166C131.666 49.724 126.977 52.8835 127.416 54.4249C128.193 57.1668 130.732 55.7237 132.906 54.4525C135.025 53.2121 137.601 52.8989 136.21 51.9102Z" fill="#FFC2AF"/>
<path fill-rule="evenodd" clip-rule="evenodd" d="M127.904 52.3617L129.123 56.9736C129.123 56.9736 125.751 58.7452 123.418 59.2119C118.935 60.1085 114.802 61.306 114.612 57.5109C114.517 55.6348 117.569 53.4517 122.052 52.5552C124.25 52.113 127.904 52.3617 127.904 52.3617Z" fill="#F7AB3D"/>
<path fill-rule="evenodd" clip-rule="evenodd" d="M110.964 45.0972C111.376 46.1135 112.592 52.8747 114.385 56.9584C114.861 58.0453 115.38 58.945 115.932 59.5161C116.341 59.9398 116.774 60.1885 117.216 60.2376C120.962 60.6429 127.213 57.9992 129.108 57.4558C129.255 57.4128 129.344 57.2562 129.301 57.1088C129.258 56.9584 129.102 56.8724 128.951 56.9154C127.09 57.4466 120.956 60.0749 117.274 59.6757C116.949 59.6389 116.639 59.4362 116.338 59.123C115.822 58.5918 115.346 57.7444 114.901 56.7312C113.111 52.6536 111.898 45.9017 111.489 44.8853C111.431 44.741 111.265 44.6704 111.121 44.7287C110.977 44.7871 110.909 44.9529 110.964 45.0972Z" fill="#DC8609"/>
<path d="M130.668 26.3586C130.619 26.7823 130.551 27.1999 130.465 27.6175C130.376 28.032 130.272 28.4435 130.149 28.8488C130.023 29.2571 129.882 29.6532 129.722 30.0462C129.562 30.4362 129.387 30.82 129.194 31.1915C129 31.5661 128.792 31.9284 128.564 32.2785C128.337 32.6316 128.098 32.9693 127.843 33.2948C127.585 33.6233 127.315 33.9334 127.032 34.2313C126.75 34.5291 126.452 34.8116 126.145 35.0787C125.835 35.3458 125.515 35.5976 125.187 35.831C124.855 36.0643 124.518 36.2793 124.168 36.4758C123.818 36.6723 123.461 36.8504 123.096 37.01C122.734 37.1697 122.362 37.3109 121.984 37.4307C121.61 37.5504 121.229 37.6487 120.845 37.7285C120.458 37.8084 120.075 37.8667 119.685 37.9035C119.295 37.9435 118.905 37.9588 118.515 37.9557C118.125 37.9527 117.738 37.9281 117.351 37.882C116.964 37.8391 116.58 37.7715 116.2 37.6855C115.819 37.5996 115.444 37.4921 115.073 37.3662C114.704 37.2403 114.342 37.0929 113.986 36.9271C113.63 36.7613 113.283 36.5771 112.942 36.3714C112.604 36.1687 112.276 35.9477 111.959 35.7082C111.64 35.4687 111.333 35.2138 111.038 34.9405C110.747 34.6703 110.464 34.3817 110.197 34.0777C109.93 33.7738 109.675 33.4575 109.435 33.1259C109.196 32.7974 108.975 32.4535 108.766 32.0973C108.56 31.7411 108.37 31.3757 108.195 31.0012C108.02 30.6235 107.863 30.2397 107.725 29.8436C107.587 29.4506 107.464 29.0483 107.363 28.64C107.262 28.2347 107.176 27.8202 107.111 27.4026C107.047 26.985 107.001 26.5643 106.973 26.1406C106.945 25.72 106.936 25.2932 106.948 24.8694C106.961 24.4427 106.988 24.0189 107.037 23.5983C107.087 23.1746 107.157 22.757 107.243 22.3394C107.329 21.9218 107.437 21.5134 107.559 21.1051C107.682 20.6998 107.824 20.3037 107.983 19.9107C108.143 19.5207 108.321 19.1369 108.514 18.7654C108.708 18.3908 108.917 18.0285 109.144 17.6784C109.368 17.3253 109.611 16.9876 109.865 16.659C110.12 16.3336 110.39 16.0235 110.673 15.7226C110.958 15.4247 111.253 15.1422 111.563 14.8782C111.87 14.6111 112.19 14.3593 112.521 14.1259C112.85 13.8926 113.191 13.6776 113.541 13.4811C113.888 13.2846 114.244 13.1065 114.609 12.9469C114.975 12.7872 115.346 12.646 115.721 12.5262C116.098 12.4065 116.479 12.3082 116.863 12.2284C117.247 12.1485 117.634 12.0902 118.024 12.0503C118.41 12.0134 118.8 11.995 119.19 12.0012C119.58 12.0042 119.97 12.0288 120.357 12.0718C120.744 12.1178 121.128 12.1854 121.509 12.2714C121.886 12.3573 122.264 12.4648 122.632 12.5907C123.004 12.7166 123.366 12.864 123.722 13.0298C124.078 13.1956 124.425 13.3798 124.763 13.5824C125.101 13.7882 125.429 14.0092 125.749 14.2487C126.065 14.4882 126.372 14.7431 126.667 15.0164C126.962 15.2866 127.244 15.5752 127.511 15.8792C127.778 16.1801 128.033 16.4994 128.27 16.8279C128.509 17.1595 128.733 17.5034 128.939 17.8596C129.148 18.2127 129.338 18.5812 129.513 18.9557C129.685 19.3334 129.842 19.7172 129.983 20.1133C130.121 20.5063 130.241 20.9086 130.345 21.3139C130.447 21.7222 130.53 22.1367 130.597 22.5543C130.662 22.9719 130.708 23.3926 130.735 23.8132C130.763 24.2369 130.769 24.6607 130.76 25.0875C130.748 25.5112 130.717 25.9349 130.668 26.3586Z" fill="#763821" fill-opacity="0.99"/>
<path fill-rule="evenodd" clip-rule="evenodd" d="M117.573 32.0814C122.329 32.6371 125.307 33.9022 124.985 36.6809C124.616 39.8251 121.573 39.1281 116.814 38.5723C112.058 38.0166 107.164 37.2367 108.223 34.2583C109.949 29.3917 112.813 31.5226 117.573 32.0814Z" fill="#763821" fill-opacity="0.99"/>
<path fill-rule="evenodd" clip-rule="evenodd" d="M108.769 34.2927L115.014 35.0756C115.014 35.0756 109.395 38.9229 104.842 57.0294C104.642 57.8277 102.818 51.9355 103.052 50.6889C105.066 39.9085 108.769 34.2927 108.769 34.2927Z" fill="#763821"/>
<path fill-rule="evenodd" clip-rule="evenodd" d="M109.079 32.985C109.414 33.2859 112.3 35.0361 115.576 35.3738C115.73 35.3923 115.868 35.2787 115.886 35.1251C115.902 34.9685 115.788 34.8304 115.635 34.815C112.521 34.4926 109.773 32.853 109.457 32.5644C109.34 32.463 109.162 32.4723 109.058 32.5889C108.953 32.7025 108.962 32.8806 109.079 32.985Z" fill="#5B2B19"/>
<path fill-rule="evenodd" clip-rule="evenodd" d="M108.143 35.594C108.637 36.0546 111.539 39.2203 122.568 39.1159C122.724 39.1159 122.85 38.9869 122.847 38.8334C122.847 38.6768 122.718 38.5509 122.562 38.5509C111.84 38.6522 109.009 35.6278 108.527 35.1795C108.41 35.0721 108.232 35.0782 108.127 35.1949C108.02 35.3085 108.029 35.4866 108.143 35.594Z" fill="#5B2B19"/>
<path fill-rule="evenodd" clip-rule="evenodd" d="M127.256 18.8178C131.662 19.5087 132.111 38.177 121.241 36.5865C109.248 34.8272 122.949 18.1392 127.256 18.8178Z" fill="#FFA487" fill-opacity="0.99"/>
<mask id="mask26_234_4494" style="mask-type:luminance" maskUnits="userSpaceOnUse" x="116" y="19" width="15" height="18">
<path d="M116.205 19.4535H130.354V36.7463H116.205V19.4535Z" fill="white"/>
</mask>
<g mask="url(#mask26_234_4494)">
<mask id="mask27_234_4494" style="mask-type:luminance" maskUnits="userSpaceOnUse" x="115" y="17" width="17" height="21">
<path d="M118.051 17.7386L131.076 19.2585L128.951 37.5001L115.926 35.9802L118.051 17.7386Z" fill="white"/>
</mask>
<g mask="url(#mask27_234_4494)">
<mask id="mask28_234_4494" style="mask-type:luminance" maskUnits="userSpaceOnUse" x="116" y="18" width="15" height="19">
<path fill-rule="evenodd" clip-rule="evenodd" d="M127.258 18.8156C131.664 19.5065 132.113 38.1748 121.243 36.5843C109.25 34.825 122.95 18.137 127.258 18.8156Z" fill="white"/>
</mask>
<g mask="url(#mask28_234_4494)">
<path fill-rule="evenodd" clip-rule="evenodd" d="M127.048 20.1486C131.454 20.8394 132.111 38.1752 121.242 36.5847C109.249 34.8253 122.74 19.4731 127.048 20.1486Z" fill="#FFC2AF" fill-opacity="0.99"/>
</g>
</g>
</g>
</svg>
