<svg width="80" height="74" viewBox="0 0 80 74" fill="none" xmlns="http://www.w3.org/2000/svg">
<path d="M75.7096 37C75.7096 56.5981 59.73 72.5 40.0003 72.5C20.2706 72.5 4.29102 56.5981 4.29102 37C4.29102 17.4019 20.2706 1.5 40.0003 1.5C59.73 1.5 75.7096 17.4019 75.7096 37Z" fill="white" stroke="url(#paint0_linear_57_50)" stroke-width="3"/>
<ellipse cx="40" cy="37.0003" rx="32.2481" ry="32.0667" fill="#E4A321"/>
<ellipse cx="39.9999" cy="36.9841" rx="28.0702" ry="27.9123" fill="white"/>
<path d="M78.4999 36.8457C78.4999 37.7973 77.7218 38.5832 76.7441 38.5832C75.7664 38.5832 74.9883 37.7973 74.9883 36.8457C74.9883 35.894 75.7664 35.1082 76.7441 35.1082C77.7218 35.1082 78.4999 35.894 78.4999 36.8457Z" fill="white" stroke="url(#paint1_linear_57_50)" stroke-width="3"/>
<path d="M5.01163 36.8457C5.01163 37.7973 4.23351 38.5832 3.25581 38.5832C2.27812 38.5832 1.5 37.7973 1.5 36.8457C1.5 35.894 2.27812 35.1082 3.25581 35.1082C4.23351 35.1082 5.01163 35.894 5.01163 36.8457Z" fill="white" stroke="url(#paint2_linear_57_50)" stroke-width="3"/>
<path d="M36.5452 37.1011C35.5692 37.1011 34.6812 36.8771 33.8812 36.4291C33.0812 35.9731 32.3892 35.3451 31.8052 34.5451C31.2292 33.7451 30.7852 32.8211 30.4732 31.7731C30.1612 30.7171 30.0052 29.5891 30.0052 28.3891C30.0052 27.1891 30.1612 26.0651 30.4732 25.0171C30.7852 23.9611 31.2292 23.0331 31.8052 22.2331C32.3892 21.4331 33.0812 20.8091 33.8812 20.3611C34.6812 19.9051 35.5692 19.6771 36.5452 19.6771C37.5212 19.6771 38.4092 19.9051 39.2092 20.3611C40.0092 20.8091 40.6932 21.4331 41.2612 22.2331C41.8372 23.0331 42.2812 23.9611 42.5932 25.0171C42.9132 26.0651 43.0732 27.1891 43.0732 28.3891C43.0732 29.5891 42.9132 30.7171 42.5932 31.7731C42.2812 32.8211 41.8372 33.7451 41.2612 34.5451C40.6932 35.3451 40.0092 35.9731 39.2092 36.4291C38.4092 36.8771 37.5212 37.1011 36.5452 37.1011ZM36.5452 34.1731C37.4012 34.1731 38.1092 33.9011 38.6692 33.3571C39.2292 32.8131 39.6452 32.1011 39.9172 31.2211C40.1892 30.3411 40.3252 29.3971 40.3252 28.3891C40.3252 27.3251 40.1812 26.3571 39.8932 25.4851C39.6052 24.6051 39.1812 23.9051 38.6212 23.3851C38.0612 22.8651 37.3692 22.6051 36.5452 22.6051C35.8972 22.6051 35.3332 22.7651 34.8532 23.0851C34.3812 23.3971 33.9892 23.8251 33.6772 24.3691C33.3652 24.9131 33.1332 25.5331 32.9812 26.2291C32.8292 26.9171 32.7532 27.6371 32.7532 28.3891C32.7532 29.3891 32.8892 30.3331 33.1612 31.2211C33.4412 32.1011 33.8612 32.8131 34.4212 33.3571C34.9892 33.9011 35.6972 34.1731 36.5452 34.1731ZM46.865 36.7891V22.9171H44.753L45.545 19.9891H49.793V36.7891H46.865Z" fill="#343434"/>
<path d="M28.7265 54.9711C28.1992 54.9711 27.6905 54.8894 27.2005 54.7261C26.7105 54.5581 26.2812 54.3201 25.9125 54.0121C25.5485 53.7041 25.2895 53.3377 25.1355 52.9131L26.2345 52.5001C26.3279 52.7614 26.5005 52.9901 26.7525 53.1861C27.0092 53.3774 27.3102 53.5267 27.6555 53.6341C28.0009 53.7414 28.3579 53.7951 28.7265 53.7951C29.1465 53.7951 29.5362 53.7274 29.8955 53.5921C30.2595 53.4521 30.5535 53.2584 30.7775 53.0111C31.0015 52.7637 31.1135 52.4744 31.1135 52.1431C31.1135 51.8024 30.9969 51.5247 30.7635 51.3101C30.5302 51.0907 30.2315 50.9181 29.8675 50.7921C29.5035 50.6614 29.1232 50.5611 28.7265 50.4911C28.0499 50.3791 27.4432 50.2204 26.9065 50.0151C26.3745 49.8051 25.9522 49.5134 25.6395 49.1401C25.3315 48.7667 25.1775 48.2744 25.1775 47.6631C25.1775 47.0937 25.3409 46.5967 25.6675 46.1721C25.9989 45.7474 26.4352 45.4184 26.9765 45.1851C27.5179 44.9517 28.1012 44.8351 28.7265 44.8351C29.2445 44.8351 29.7462 44.9167 30.2315 45.0801C30.7215 45.2387 31.1532 45.4721 31.5265 45.7801C31.8999 46.0881 32.1682 46.4637 32.3315 46.9071L31.2185 47.3131C31.1252 47.0471 30.9502 46.8184 30.6935 46.6271C30.4415 46.4311 30.1429 46.2817 29.7975 46.1791C29.4569 46.0717 29.0999 46.0181 28.7265 46.0181C28.3112 46.0134 27.9239 46.0811 27.5645 46.2211C27.2052 46.3611 26.9135 46.5547 26.6895 46.8021C26.4655 47.0494 26.3535 47.3364 26.3535 47.6631C26.3535 48.0551 26.4562 48.3561 26.6615 48.5661C26.8715 48.7714 27.1562 48.9254 27.5155 49.0281C27.8749 49.1307 28.2785 49.2217 28.7265 49.3011C29.3612 49.4084 29.9492 49.5787 30.4905 49.8121C31.0319 50.0407 31.4659 50.3464 31.7925 50.7291C32.1239 51.1117 32.2895 51.5831 32.2895 52.1431C32.2895 52.7124 32.1239 53.2094 31.7925 53.6341C31.4659 54.0587 31.0319 54.3877 30.4905 54.6211C29.9492 54.8544 29.3612 54.9711 28.7265 54.9711ZM40.9327 44.9891V46.1651H37.6707V54.7891H36.4947V46.1651H33.2397V44.9891H40.9327ZM42.338 54.7891V44.9891H48.351V46.1651H43.514V48.9511H47.476V50.1271H43.514V53.6131H48.351V54.7891H42.338ZM49.967 54.7891V44.9891H53.201C53.7283 44.9891 54.202 45.1174 54.622 45.3741C55.0466 45.6307 55.3826 45.9784 55.63 46.4171C55.882 46.8511 56.008 47.3364 56.008 47.8731C56.008 48.4191 55.8796 48.9114 55.623 49.3501C55.371 49.7841 55.0303 50.1294 54.601 50.3861C54.1763 50.6381 53.7096 50.7641 53.201 50.7641H51.143V54.7891H49.967ZM51.143 49.5881H53.096C53.4133 49.5881 53.7026 49.5111 53.964 49.3571C54.23 49.1984 54.44 48.9861 54.594 48.7201C54.7526 48.4494 54.832 48.1461 54.832 47.8101C54.832 47.4694 54.7526 47.1661 54.594 46.9001C54.44 46.6294 54.23 46.4171 53.964 46.2631C53.7026 46.1044 53.4133 46.0251 53.096 46.0251H51.143V49.5881Z" fill="#343434"/>
<defs>
<linearGradient id="paint0_linear_57_50" x1="40.0003" y1="0" x2="65.9409" y2="73.0136" gradientUnits="userSpaceOnUse">
<stop stop-color="#E2A11A"/>
<stop offset="1" stop-color="#D82108"/>
</linearGradient>
<linearGradient id="paint1_linear_57_50" x1="76.7441" y1="33.6082" x2="79.0139" y2="39.9968" gradientUnits="userSpaceOnUse">
<stop stop-color="#E2A11A"/>
<stop offset="1" stop-color="#D82108"/>
</linearGradient>
<linearGradient id="paint2_linear_57_50" x1="3.25581" y1="33.6082" x2="5.52561" y2="39.9968" gradientUnits="userSpaceOnUse">
<stop stop-color="#E2A11A"/>
<stop offset="1" stop-color="#D82108"/>
</linearGradient>
</defs>
</svg>
